<svg width="200" height="200" viewBox="0 0 200 200" fill="none" xmlns="http://www.w3.org/2000/svg">
<g clip-path="url(#clip0_3_14583)">
<path d="M0.446777 100.293C0.446777 45.4332 44.9191 0.960938 99.7785 0.960938V0.960938C154.638 0.960938 199.11 45.4332 199.11 100.293V100.293C199.11 155.152 154.638 199.624 99.7785 199.624V199.624C44.9191 199.624 0.446777 155.152 0.446777 100.293V100.293Z" fill="#FFF628"/>
<path d="M148.257 220.642H35.5178C34.5569 220.642 33.7028 219.788 33.7028 218.828L32.3149 132.671C34.5569 130.536 37.2259 128.828 40.1085 127.44C47.3682 124.13 56.9767 122.849 69.5746 121.888C72.0301 121.675 74.6991 121.568 77.3681 121.355C81.6386 121.034 86.2293 120.821 91.1403 120.394C97.8662 119.967 103.738 119.646 108.969 119.646C110.357 119.646 111.745 119.646 113.026 119.646C143.24 120.501 147.51 132.778 147.83 178.685C147.937 192.031 148.044 206.443 148.257 220.642Z" fill="#788BF1"/>
<path d="M77.3672 121.355C89.5379 131.817 108.648 131.283 113.025 119.753C111.744 119.753 110.356 119.646 108.968 119.646C103.737 119.646 97.8653 119.967 91.1394 120.394C86.2283 120.714 81.7444 121.034 77.3672 121.355Z" fill="#FF6B57"/>
<path d="M166.835 220.643H133.739C133.099 209.22 132.458 197.796 131.924 186.373C131.177 173.455 130.536 160.537 129.789 147.725C129.576 147.725 129.362 147.832 129.149 147.832C124.238 148.9 119.113 147.939 115.27 145.376C112.28 143.348 109.932 140.252 108.757 136.302C106.515 128.081 111.533 117.832 120.287 115.91L140.785 111.533C151.675 109.184 161.177 116.337 161.711 127.547C162.671 144.736 163.526 161.924 164.486 179.113C165.341 192.885 166.088 206.764 166.835 220.643Z" fill="#788BF1"/>
<path d="M134.27 200.252C133.95 207.085 133.63 213.811 133.203 220.643H132.028C132.349 213.811 132.669 207.085 133.096 200.252C133.096 199.505 134.377 199.505 134.27 200.252Z" fill="#2D264F"/>
<path d="M106.514 210.928C102.137 202.387 97.7594 193.739 93.3822 185.198C93.0619 184.451 91.9943 185.092 92.3146 185.839C96.6918 194.38 101.069 203.027 105.446 211.568C105.767 212.209 106.834 211.675 106.514 210.928Z" fill="#FFC741"/>
<path d="M109.502 121.889C112.065 114.096 114.627 106.302 117.189 98.5085C122.207 83.2416 99.0399 73.4196 93.9154 88.7932L83.2393 121.462C90.2855 126.053 100.748 124.772 109.502 121.889Z" fill="#FF6B57"/>
<path d="M108.757 125.092C111.746 116.017 114.735 106.835 117.725 97.7608C121.782 85.2697 107.155 76.4085 98.8281 81.9601C95.732 96.4796 96.6929 116.657 108.757 125.092Z" fill="#2D264F"/>
<path d="M181.888 216.158C176.55 205.696 170.465 192.564 164.486 179.005C156.692 161.283 130.536 104.806 138.543 99.5751C143.347 96.479 139.397 86.3367 135.02 80.0378C134.059 77.0485 132.778 75.9809 130.963 75.5538C130.216 75.1268 129.682 74.8065 129.148 74.9133C128.828 75.02 128.614 75.1268 128.401 75.3403C128.401 75.3403 128.401 75.3403 128.294 75.3403V75.4471C128.187 75.5538 128.187 75.7674 128.08 75.9809C126.906 79.7175 121.354 98.5075 128.828 100.536C123.49 101.817 115.162 101.817 108.116 105.233C97.2265 110.571 125.625 172.173 131.71 186.265C136.835 198.222 142.066 209.966 147.191 220.535H183.383C183.169 219.148 182.635 217.546 181.888 216.158Z" fill="#FF6B57"/>
<path d="M133.848 83.1334C133.528 82.386 132.353 82.7063 132.673 83.4536C134.168 87.297 133.955 91.2472 132.033 94.8771C131.713 95.6244 132.78 96.1582 133.1 95.5176C135.129 91.5675 135.449 87.1903 133.848 83.1334Z" fill="#FFC741"/>
<path d="M98.4033 52.28C99.3642 51.3191 100.325 50.465 101.286 49.6109C107.585 43.7391 112.923 39.4686 112.923 39.4686C120.823 30.2872 137.905 38.8281 123.065 52.28C123.065 52.28 117.087 58.0451 109.827 66.9062C106.304 61.7817 102.353 56.9775 98.4033 52.28Z" fill="#2D264F"/>
<path d="M130.857 98.1872C128.828 106.408 116.764 106.301 103.739 101.817C99.5758 100.429 95.5188 98.2939 91.7822 95.4114C90.8214 94.6641 89.8605 93.81 88.8997 92.9559C84.5225 88.6854 82.0669 82.7068 80.5723 75.5538C74.3802 45.8742 76.8357 37.4401 103.953 37.1198C112.921 37.0131 117.725 38.401 121.142 44.5931C123.811 49.3974 125.625 57.0842 127.974 69.3617C129.576 77.3688 133.206 89.1125 130.857 98.1872Z" fill="#FF6B57"/>
<path d="M121.248 44.4865C114.949 45.9812 103.526 47.0488 99.1487 48.8637C91.5687 51.9598 95.4121 86.1234 91.7822 95.4116C90.8214 94.6643 89.8605 93.8102 88.8997 92.9561C84.5225 88.6856 82.0669 82.707 80.5723 75.554C74.3802 45.8744 76.8357 37.4403 103.953 37.12C113.028 36.9065 133.633 33.5969 121.248 44.4865Z" fill="#2D264F"/>
<path d="M97.3356 58.4716C82.0688 55.9093 74.2752 77.048 100.218 80.8914L97.3356 58.4716Z" fill="#FF6B57"/>
<path d="M87.7249 64.4505C91.675 63.9167 95.0914 66.906 95.0914 70.8562C95.0914 71.6035 94.0238 71.7102 94.0238 70.9629C94.0238 70.0021 93.8103 69.0412 93.3832 68.2939C91.8886 69.2547 91.6751 71.4967 93.49 72.5643C94.1306 72.8846 93.7035 73.9522 93.0629 73.6319C90.6074 72.244 90.5007 68.9344 92.7426 67.4398C91.5683 66.0519 89.8601 65.3046 87.8317 65.6249C87.1911 65.7316 86.9776 64.5573 87.7249 64.4505Z" fill="#788BF1"/>
<path d="M107.049 56.7639C108.223 56.5504 109.504 56.2301 110.679 56.0166C112.066 55.6963 112.387 57.9383 110.999 58.2586C109.824 58.4721 108.543 58.7924 107.369 59.0059C105.874 59.2194 105.661 57.0842 107.049 56.7639Z" fill="#2D264F"/>
<path d="M109.293 66.3728C109.613 64.9849 110.04 63.5971 110.361 62.2092C110.574 61.4618 111.748 61.6754 111.535 62.4227C111.215 63.8106 110.788 65.1985 110.467 66.5864C110.254 67.3337 109.079 67.1202 109.293 66.3728Z" fill="#2D264F"/>
<path d="M122.423 64.2371C122.744 62.8492 123.171 61.4613 123.491 60.0734C123.704 59.3261 124.879 59.5396 124.665 60.2869C124.345 61.6748 123.918 63.0627 123.598 64.4506C123.491 65.198 122.317 65.0912 122.423 64.2371Z" fill="#2D264F"/>
<path d="M120.18 92.8488C117.405 93.2759 114.629 91.6745 113.561 89.0054C113.241 88.2581 112.067 88.5784 112.387 89.3257C113.775 92.6353 117.084 94.4502 120.501 94.0232C121.355 93.9164 121.034 92.7421 120.18 92.8488Z" fill="#2D264F"/>
<path d="M127.228 80.6787C125.413 76.9421 123.812 73.0987 122.531 69.1485C121.89 67.4404 117.406 55.9102 121.57 55.5899C122.317 55.5899 122.317 54.3087 121.57 54.4155C116.552 54.7358 118.688 60.8212 119.542 63.7037C121.143 69.4688 123.278 75.0204 125.84 80.4652C122.638 80.7855 119.435 81.2125 116.232 81.9599C115.485 82.1734 115.805 83.3478 116.552 83.1342C119.969 82.3869 123.278 81.8531 126.801 81.6396C127.228 81.5328 127.442 81.1058 127.228 80.6787Z" fill="#788BF1"/>
<path d="M100.643 45.0204C100.643 44.9137 100.643 44.8069 100.643 44.7001C100.643 43.9528 99.4684 43.9528 99.4684 44.7001C99.4684 44.8069 99.4684 44.9137 99.4684 45.0204C97.4399 46.3015 95.7317 47.903 94.3438 49.8247C94.2371 49.9314 94.2371 49.9314 94.1303 50.0382C93.9168 50.3585 93.7033 50.572 93.4898 50.8923C93.1695 51.3193 93.5965 51.7464 94.0236 51.7464C93.9168 55.3762 94.3438 63.063 98.294 61.4616C100.216 60.7143 100.216 58.2588 100.322 56.5506C100.429 52.9207 100.536 49.2909 100.643 45.661C100.75 45.3407 100.75 45.1272 100.643 45.0204Z" fill="#2D264F"/>
<path d="M119.22 54.5217C120.394 54.3082 121.675 53.9879 122.85 53.7744C124.237 53.4541 124.558 55.6961 123.17 56.0164C121.995 56.2299 120.714 56.5502 119.54 56.7637C118.152 56.9772 117.832 54.7352 119.22 54.5217Z" fill="#2D264F"/>
<path d="M131.498 92.9559C130.964 88.899 130.537 84.842 130.004 80.7851C129.897 80.0378 128.722 80.0378 128.829 80.7851C129.47 86.5502 130.644 92.5288 130.858 98.2939C131.178 105.981 121.249 102.351 116.765 103.525C116.018 103.739 116.338 104.913 117.085 104.7C121.356 103.525 129.043 106.728 131.605 101.39C132.779 99.0413 131.819 95.6249 131.498 92.9559Z" fill="#788BF1"/>
<path d="M76.3003 131.497C76.0868 161.176 75.8732 190.963 75.553 220.642H42.457C42.6706 190.963 42.8841 161.176 43.2044 131.497C43.3111 110.144 76.407 110.144 76.3003 131.497Z" fill="#FF6B57"/>
<path d="M43.0981 131.497C43.6319 110.998 41.1764 81.212 46.0874 80.358C50.9984 79.5039 46.5144 96.6924 49.7172 98.4006C53.0268 100.002 48.5429 75.1267 52.5998 75.1267C56.6567 75.1267 53.4539 97.6533 55.9094 98.0803C58.3649 98.5073 55.9094 74.3793 59.219 74.8064C62.5286 75.2334 60.8204 98.0803 63.2759 97.76C65.7314 97.4397 61.6745 75.2334 66.1584 75.2334C70.6424 75.2334 68.1869 108.756 71.4965 109.61C74.8061 110.465 73.952 98.6141 77.2616 96.1586C80.5712 93.7031 82.1726 106.408 80.1441 115.803C78.1157 125.198 76.194 121.568 76.3008 131.71C76.4075 141.746 43.0981 131.497 43.0981 131.497Z" fill="#FF6B57"/>
<path d="M71.1742 113.028C66.0497 116.551 62.9536 121.996 62.6333 128.294C62.6333 129.042 63.8077 129.042 63.8077 128.294C64.128 122.529 67.0105 117.405 71.708 114.095C72.4553 113.668 71.8148 112.601 71.1742 113.028Z" fill="#FFC741"/>
</g>
<defs>
<clipPath id="clip0_3_14583">
<path d="M0.446777 100.293C0.446777 45.4332 44.9191 0.960938 99.7785 0.960938V0.960938C154.638 0.960938 199.11 45.4332 199.11 100.293V100.293C199.11 155.152 154.638 199.624 99.7785 199.624V199.624C44.9191 199.624 0.446777 155.152 0.446777 100.293V100.293Z" fill="white"/>
</clipPath>
</defs>
</svg>
