<svg width="200" height="200" viewBox="0 0 200 200" fill="none" xmlns="http://www.w3.org/2000/svg">
<g clip-path="url(#clip0_3_14609)">
<path d="M0.51709 100.272C0.51709 45.4127 44.9894 0.94043 99.8488 0.94043V0.94043C154.708 0.94043 199.18 45.4127 199.18 100.272V100.272C199.18 155.132 154.708 199.604 99.8488 199.604V199.604C44.9894 199.604 0.51709 155.132 0.51709 100.272V100.272Z" fill="#FBFCFF"/>
<path d="M113.252 84.584C113.274 85.3852 113.274 86.2081 113.296 87.0093C113.664 86.2081 113.686 85.277 113.404 84.4541" stroke="#003188" stroke-width="1.51578" stroke-miterlimit="10" stroke-linecap="round" stroke-linejoin="round"/>
<path d="M129.666 83.0029C129.623 83.7608 129.558 84.5404 129.515 85.2983C129.774 84.627 129.883 83.9124 129.818 83.1978" stroke="#003188" stroke-width="1.51578" stroke-miterlimit="10" stroke-linecap="round" stroke-linejoin="round"/>
<path d="M108.295 80.1457C110.72 78.8897 113.6 78.5433 116.242 79.2362" stroke="#003188" stroke-width="1.51578" stroke-miterlimit="10" stroke-linecap="round" stroke-linejoin="round"/>
<path d="M133.63 76.334C132.006 76.3773 130.36 76.4206 128.801 76.832C127.242 77.2651 125.726 78.1096 124.838 79.4738C123.691 81.2278 123.712 83.5231 124.319 85.5369C124.925 87.5291 126.073 89.3264 127.025 91.1886C127.199 91.5351 127.393 91.9249 127.329 92.3147C127.285 92.6395 127.069 92.921 126.874 93.1592C126.159 94.047 125.336 94.8265 124.427 95.5194" stroke="#003188" stroke-width="1.51578" stroke-miterlimit="10" stroke-linecap="round" stroke-linejoin="round"/>
<path d="M116.695 99.0498C117.886 100.197 119.51 100.847 121.178 100.977C122.845 101.107 124.491 100.739 126.007 100.068" stroke="#003188" stroke-width="1.51578" stroke-miterlimit="10" stroke-linecap="round" stroke-linejoin="round"/>
<path d="M94.7162 83.5883C93.8501 82.9387 92.7674 82.6139 91.7063 82.5706C89.0646 82.4623 86.4661 84.0647 85.2534 86.425C84.0408 88.7853 84.2357 91.7519 85.6215 94.0039C87.0074 96.2559 89.4976 97.7717 92.1178 98.0965" stroke="#003188" stroke-width="1.51578" stroke-miterlimit="10" stroke-linecap="round" stroke-linejoin="round"/>
<path d="M89.6069 88.2012C91.1227 88.8941 92.422 90.1067 93.2015 91.5792" stroke="#003188" stroke-width="1.51578" stroke-miterlimit="10" stroke-linecap="round" stroke-linejoin="round"/>
<path d="M90.8408 99.4609C92.0101 111.132 92.2916 122.869 91.707 134.584" stroke="#003188" stroke-width="1.51578" stroke-miterlimit="10" stroke-linecap="round" stroke-linejoin="round"/>
<path d="M138.048 76.5498C138.697 87.0737 137.095 97.7274 133.392 107.58C131.66 112.192 129.061 117.021 124.427 118.71C120.941 119.988 117.043 119.143 113.578 117.801C108.836 115.96 104.419 113.102 101.322 109.074" stroke="#003188" stroke-width="1.51578" stroke-miterlimit="10" stroke-linecap="round" stroke-linejoin="round"/>
<path d="M130.142 114.033C130.142 120.313 130.38 127.784 130.77 134.605" stroke="#003188" stroke-width="1.51578" stroke-miterlimit="10" stroke-linecap="round" stroke-linejoin="round"/>
<path d="M118.298 59.9414C115.202 70.1621 106.93 78.6721 96.7959 82.0502" stroke="#003188" stroke-width="1.51578" stroke-miterlimit="10" stroke-linecap="round" stroke-linejoin="round"/>
<path d="M114.507 59.2275C110.977 67.2612 103.853 73.0861 96.6641 78.1315" stroke="#003188" stroke-width="1.51578" stroke-miterlimit="10" stroke-linecap="round" stroke-linejoin="round"/>
<path d="M86.1846 102.015C83.9109 100.175 82.0054 97.9012 80.6195 95.3244C78.2809 91.0152 77.3931 86.0564 77.3281 81.1626C77.1982 71.4833 80.3164 61.5874 86.7909 54.3983C93.2655 47.2091 103.291 43.0082 112.862 44.4591C113.815 44.6106 114.768 44.8055 115.742 44.8272C116.825 44.8488 117.886 44.6323 118.969 44.589C122.304 44.4374 125.53 45.8666 128.258 47.7721C136.249 53.3805 140.666 63.7095 139.172 73.3888" stroke="#003188" stroke-width="1.51578" stroke-miterlimit="10" stroke-linecap="round" stroke-linejoin="round"/>
<path d="M117.345 47.4912C119.056 58.21 126.18 67.9109 135.859 72.7831" stroke="#003188" stroke-width="1.51578" stroke-miterlimit="10" stroke-linecap="round" stroke-linejoin="round"/>
<path d="M124.124 53.4463C126.614 59.0114 130.772 63.8402 135.882 67.1749" stroke="#003188" stroke-width="1.51578" stroke-miterlimit="10" stroke-linecap="round" stroke-linejoin="round"/>
<path d="M87.6361 60.7217C86.3585 61.5012 85.6006 62.8871 84.951 64.2296C83.7167 66.8714 82.7206 69.5998 81.9844 72.4149" stroke="#003188" stroke-width="1.51578" stroke-miterlimit="10" stroke-linecap="round" stroke-linejoin="round"/>
<path d="M87.4636 105.09C86.1644 109.875 84.1073 114.466 81.4438 118.624" stroke="#003188" stroke-width="1.51578" stroke-miterlimit="10" stroke-linecap="round" stroke-linejoin="round"/>
<path d="M88.3293 109.508C87.4415 113.146 86.7485 116.827 86.2505 120.53" stroke="#003188" stroke-width="1.51578" stroke-miterlimit="10" stroke-linecap="round" stroke-linejoin="round"/>
<path d="M117.108 133.739C117.281 135.493 117.173 137.269 116.805 139.001" stroke="#003188" stroke-width="1.51578" stroke-miterlimit="10" stroke-linecap="round" stroke-linejoin="round"/>
<path d="M101.322 109.075C103.791 114.056 106.887 119.144 111.738 122.068C116.588 124.991 122.846 126.03 128.173 123.995C128.563 123.843 128.974 123.67 129.234 123.345C129.537 122.934 129.559 122.414 129.581 121.894C129.602 120.075 129.646 118.256 129.667 116.416C126.722 119.946 121.244 120.4 116.653 119.426C111.521 118.365 106.801 114.943 103.033 111.435" fill="#003188"/>
<path d="M101.322 109.075C103.791 114.056 106.887 119.144 111.738 122.068C116.588 124.991 122.846 126.03 128.173 123.995C128.563 123.843 128.974 123.67 129.234 123.345C129.537 122.934 129.559 122.414 129.581 121.894C129.602 120.075 129.646 118.256 129.667 116.416C126.722 119.946 121.244 120.4 116.653 119.426C111.521 118.365 106.801 114.943 103.033 111.435" stroke="#003188" stroke-width="1.51578" stroke-miterlimit="10" stroke-linecap="round" stroke-linejoin="round"/>
<path d="M88.5883 137.551C75.2061 142.185 61.9755 147.165 48.8531 152.514C43.483 154.701 37.9612 157.061 34.1284 161.392C30.6854 165.268 28.9314 170.313 27.3074 175.229C13.4705 216.934 2.5785 259.614 -5.26025 302.858" stroke="#003188" stroke-width="1.51578" stroke-miterlimit="10" stroke-linecap="round" stroke-linejoin="round"/>
<path d="M163.167 176.81C171.33 195.215 167.151 216.566 161.738 235.968C156.324 255.37 149.741 275.444 153.552 295.235C154.245 298.83 155.263 302.641 153.921 306.041C153.314 307.578 152.275 308.921 151.777 310.48C150.889 313.23 152.015 316.521 154.397 318.167" stroke="#003188" stroke-width="1.51578" stroke-miterlimit="10" stroke-linecap="round" stroke-linejoin="round"/>
<path d="M133.238 137.658C139.734 140.105 146.252 142.552 152.749 144.999C159.526 147.554 166.456 150.174 172.064 154.787C179.881 161.196 184.342 170.724 188.218 180.035C195.927 198.593 202.358 217.691 207.403 237.158C208.486 241.316 208.919 246.859 205.086 248.787C201.687 243.914 205.065 237.332 208.529 232.524C217.862 219.532 228.148 207.233 239.256 195.734" stroke="#003188" stroke-width="1.51578" stroke-miterlimit="10" stroke-linecap="round" stroke-linejoin="round"/>
<path d="M169.379 187.202C169.314 184.864 170.115 182.525 171.566 180.706" stroke="#003188" stroke-width="1.51578" stroke-miterlimit="10" stroke-linecap="round" stroke-linejoin="round"/>
<path d="M91.4702 137.854C100.846 143.743 110.309 149.482 119.837 155.09C123.691 149.417 127.546 143.743 131.4 138.048" stroke="#003188" stroke-width="1.51578" stroke-miterlimit="10" stroke-linecap="round" stroke-linejoin="round"/>
<path d="M104.115 151.668C108.078 153.92 111.867 156.475 115.44 159.269" stroke="#003188" stroke-width="1.51578" stroke-miterlimit="10" stroke-linecap="round" stroke-linejoin="round"/>
<path d="M189.885 107.84C202.985 95.3244 218.555 85.4069 235.445 78.8457" stroke="#003188" stroke-width="1.51578" stroke-miterlimit="10" stroke-linecap="round" stroke-linejoin="round"/>
<path d="M193.308 116.61C201.016 107.429 210.263 99.5253 220.505 93.3105" stroke="#003188" stroke-width="1.51578" stroke-miterlimit="10" stroke-linecap="round" stroke-linejoin="round"/>
<path d="M33.5664 171.785C35.0389 167.368 37.8539 163.405 41.5351 160.568" stroke="#003188" stroke-width="1.51578" stroke-miterlimit="10" stroke-linecap="round" stroke-linejoin="round"/>
<path d="M97.8352 44.9143C90.2346 41.4063 80.8801 43.4418 74.1457 48.4222C67.4113 53.4027 62.9722 60.9166 59.8324 68.6904C56.7142 76.3776 54.5055 84.801 48.6372 90.6476C43.1804 96.0827 35.385 98.3997 27.7844 99.7423C20.1838 101.085 12.3884 101.713 5.24256 104.593C-1.90326 107.473 -8.48608 113.233 -9.76367 120.833" stroke="#003188" stroke-width="1.51578" stroke-miterlimit="10" stroke-linecap="round" stroke-linejoin="round"/>
<path d="M8.361 113.969C-2.53097 122.782 -7.98779 137.81 -5.3027 151.582C-4.21999 149.785 -3.15894 148.009 -2.07624 146.212C-3.85187 152.231 -1.8597 159.161 2.79591 163.34C5.32943 158.295 9.42205 154.05 14.3808 151.344C11.4792 156.064 10.4831 161.889 11.6091 167.303" stroke="#003188" stroke-width="1.51578" stroke-miterlimit="10" stroke-linecap="round" stroke-linejoin="round"/>
<path d="M15.2461 168.018C17.5414 163.06 20.8112 158.556 24.8172 154.831" stroke="#003188" stroke-width="1.51578" stroke-miterlimit="10" stroke-linecap="round" stroke-linejoin="round"/>
<path d="M27.2422 152.838C33.6301 147.381 42.0969 145.194 49.7407 141.729C63.7076 135.407 76.0287 123.518 78.9304 108.447" stroke="#003188" stroke-width="1.51578" stroke-miterlimit="10" stroke-linecap="round" stroke-linejoin="round"/>
<path d="M84.6273 49.7012C76.3988 53.3607 69.4045 59.7703 65.0304 67.6523C59.2055 78.1762 57.6897 91.4718 48.7899 99.5704C43.6579 104.226 36.7719 106.435 29.9942 107.799C26.2048 108.578 22.2421 109.185 19.0156 111.307" stroke="#003188" stroke-width="1.51578" stroke-miterlimit="10" stroke-linecap="round" stroke-linejoin="round"/>
<path d="M40.7549 109.703C31.4653 112.691 23.4316 119.404 18.8193 128.022" stroke="#003188" stroke-width="1.51578" stroke-miterlimit="10" stroke-linecap="round" stroke-linejoin="round"/>
<path d="M74.8174 97.9248C71.5693 108.037 64.5534 116.915 55.437 122.394" stroke="#003188" stroke-width="1.51578" stroke-miterlimit="10" stroke-linecap="round" stroke-linejoin="round"/>
<path d="M51.4287 124.19C50.8874 124.429 50.346 124.667 49.8047 124.905" stroke="#003188" stroke-width="1.51578" stroke-miterlimit="10" stroke-linecap="round" stroke-linejoin="round"/>
<path d="M43.938 56.6299C43.9596 56.7598 43.9596 56.8897 43.9813 57.0197" stroke="#003188" stroke-width="1.51578" stroke-miterlimit="10" stroke-linecap="round" stroke-linejoin="round"/>
<path d="M166.023 132.96C165.612 132.808 165.178 133.328 165.373 133.696C165.655 133.717 165.98 133.674 166.066 133.414C166.153 133.154 165.568 133.09 165.698 133.328" stroke="#003188" stroke-width="1.51578" stroke-miterlimit="10" stroke-linecap="round" stroke-linejoin="round"/>
</g>
<path d="M99.8488 198.279C45.7208 198.279 1.84151 154.4 1.84151 100.272H-0.807333C-0.807333 155.863 44.2579 200.928 99.8488 200.928V198.279ZM197.856 100.272C197.856 154.4 153.977 198.279 99.8488 198.279V200.928C155.44 200.928 200.505 155.863 200.505 100.272H197.856ZM99.8488 2.26485C153.977 2.26485 197.856 46.1442 197.856 100.272H200.505C200.505 44.6813 155.44 -0.383993 99.8488 -0.383993V2.26485ZM99.8488 -0.383993C44.2579 -0.383993 -0.807333 44.6813 -0.807333 100.272H1.84151C1.84151 46.1442 45.7208 2.26485 99.8488 2.26485V-0.383993Z" fill="#003188" fill-opacity="0.1"/>
<defs>
<clipPath id="clip0_3_14609">
<path d="M0.51709 100.272C0.51709 45.4127 44.9894 0.94043 99.8488 0.94043V0.94043C154.708 0.94043 199.18 45.4127 199.18 100.272V100.272C199.18 155.132 154.708 199.604 99.8488 199.604V199.604C44.9894 199.604 0.51709 155.132 0.51709 100.272V100.272Z" fill="white"/>
</clipPath>
</defs>
</svg>
