<svg width="200" height="199" viewBox="0 0 200 199" fill="none" xmlns="http://www.w3.org/2000/svg">
<g clip-path="url(#clip0_3_14615)">
<path d="M0.938965 99.6686C0.938965 44.8092 45.4113 0.336914 100.271 0.336914V0.336914C155.13 0.336914 199.602 44.8092 199.602 99.6686V99.6686C199.602 154.528 155.13 199 100.271 199V199C45.4113 199 0.938965 154.528 0.938965 99.6686V99.6686Z" fill="#FBFCFF"/>
<path d="M-0.567183 35.1219C1.15822 31.6002 4.53812 29.1657 7.96529 27.2512C11.3925 25.3131 15.0324 23.6822 17.9868 21.0823C19.5704 19.6878 20.9176 18.0097 22.5012 16.6152C23.2576 15.9534 24.3448 15.3152 25.2193 15.8352C25.7866 16.1661 25.9993 16.8752 26.0466 17.537C26.1884 19.3806 25.3848 21.1769 24.5103 22.8077C22.5249 26.5185 20.0667 29.9693 17.2305 33.0656C15.3632 35.0983 13.3306 37.0128 11.6997 39.2109C10.0688 41.409 8.86345 43.8671 7.7053 46.3725C-0.354462 63.9811 -4.89252 82.9369 -9.3833 101.775" stroke="#003188" stroke-width="1.41814" stroke-miterlimit="10" stroke-linecap="round" stroke-linejoin="round"/>
<path d="M-5.36475 98.5127C25.1016 105.225 55.7098 111.3 86.4362 116.736" stroke="#003188" stroke-width="1.41814" stroke-miterlimit="10" stroke-linecap="round" stroke-linejoin="round"/>
<path d="M-11.1079 133.163C6.66612 137.441 24.4402 141.719 42.2142 145.997" stroke="#003188" stroke-width="1.41814" stroke-miterlimit="10" stroke-linecap="round" stroke-linejoin="round"/>
<path d="M21.2253 99.9551C20.0198 113.522 15.7181 126.782 8.74561 138.458" stroke="#003188" stroke-width="1.41814" stroke-miterlimit="10" stroke-linecap="round" stroke-linejoin="round"/>
<path d="M23.2134 129.026C28.7914 130.61 33.9203 133.754 37.8675 138.008" stroke="#003188" stroke-width="1.41814" stroke-miterlimit="10" stroke-linecap="round" stroke-linejoin="round"/>
<path d="M22.1714 132.69C25.6222 134.558 29.073 136.401 32.5238 138.268" stroke="#003188" stroke-width="1.41814" stroke-miterlimit="10" stroke-linecap="round" stroke-linejoin="round"/>
<path d="M49.4692 137.536C46.7274 151.741 38.9276 164.812 38.0295 179.253C37.344 190.551 40.9603 201.589 43.8438 212.556C47.8146 227.706 50.4382 243.235 51.62 258.834" stroke="#003188" stroke-width="1.41814" stroke-miterlimit="10" stroke-linecap="round" stroke-linejoin="round"/>
<path d="M49.4248 196.837C60.0609 200.028 71.4769 198.113 82.5856 198.633C95.6562 199.271 108.301 203.337 120.757 207.378" stroke="#003188" stroke-width="1.41814" stroke-miterlimit="10" stroke-linecap="round" stroke-linejoin="round"/>
<path d="M132.408 187.785C136.071 193.434 137.277 200.288 138.269 206.954C141.2 226.76 143.115 246.874 148.976 266.019" stroke="#003188" stroke-width="1.41814" stroke-miterlimit="10" stroke-linecap="round" stroke-linejoin="round"/>
<path d="M113.525 118.697C126.288 120.517 138.839 123.921 150.775 128.813C154.344 130.279 157.96 131.933 160.749 134.604C164.342 138.079 166.232 142.924 167.58 147.722C169.872 155.853 170.889 164.29 171.905 172.681C175.474 202.202 178.925 231.77 182.257 261.315" stroke="#003188" stroke-width="1.41814" stroke-miterlimit="10" stroke-linecap="round" stroke-linejoin="round"/>
<path d="M85.8919 58.2607C84.6865 63.177 83.7647 68.1877 83.1738 73.2221C82.4175 79.6983 82.2284 86.5763 85.2774 92.3434C86.341 94.3524 87.8301 96.196 89.8391 97.236C92.4627 98.6068 95.6535 98.4177 98.5134 97.6141C101.373 96.8105 104.044 95.4633 106.384 93.6433" stroke="#003188" stroke-width="1.41814" stroke-miterlimit="10" stroke-linecap="round" stroke-linejoin="round"/>
<path d="M89.6271 97.4961C89.6508 103.452 89.178 108.936 88.209 114.797" stroke="#003188" stroke-width="1.41814" stroke-miterlimit="10" stroke-linecap="round" stroke-linejoin="round"/>
<path d="M90.194 104.492C93.6211 105.083 97.261 104.374 100.215 102.554C103.17 100.734 104.966 97.5436 105.959 94.2109C101.61 97.1418 96.6701 98.7017 91.4703 98.1108C91.2812 98.0872 91.0685 98.0635 90.903 98.1581C90.5721 98.2999 90.5012 98.749 90.4776 99.1035C90.3594 100.805 90.2412 102.531 90.123 104.232" fill="#003188"/>
<path d="M90.194 104.492C93.6211 105.083 97.261 104.374 100.215 102.554C103.17 100.734 104.966 97.5436 105.959 94.2109C101.61 97.1418 96.6701 98.7017 91.4703 98.1108C91.2812 98.0872 91.0685 98.0635 90.903 98.1581C90.5721 98.2999 90.5012 98.749 90.4776 99.1035C90.3594 100.805 90.2412 102.531 90.123 104.232" stroke="#003188" stroke-width="1.41814" stroke-miterlimit="10" stroke-linecap="round" stroke-linejoin="round"/>
<path d="M88.6357 62.9648C90.3139 62.6575 92.1811 62.3975 93.5756 63.3666C94.8756 64.2647 95.3246 66.0138 95.1356 67.5737C94.9228 69.1337 94.1665 70.5518 93.4338 71.9463C92.7484 73.199 92.0865 74.4517 91.4011 75.7044C91.3538 75.7989 91.3066 75.8935 91.3066 76.0117C91.3066 76.2007 91.4484 76.3426 91.5666 76.4607C92.1102 77.0044 92.6775 77.548 93.2211 78.0916" stroke="#003188" stroke-width="1.41814" stroke-miterlimit="10" stroke-linecap="round" stroke-linejoin="round"/>
<path d="M89.5311 69.8184C89.3657 70.4565 89.2948 71.0947 89.3184 71.7565C89.3893 71.1656 89.4602 70.5747 89.5548 69.9838" stroke="#003188" stroke-width="1.41814" stroke-miterlimit="10" stroke-linecap="round" stroke-linejoin="round"/>
<path d="M100.76 65.2587C103.36 64.3842 106.267 64.5023 108.796 65.5659" stroke="#003188" stroke-width="1.41814" stroke-miterlimit="10" stroke-linecap="round" stroke-linejoin="round"/>
<path d="M101.989 70.8604C101.989 71.5222 101.989 72.1839 101.989 72.8457C102.06 72.2312 102.131 71.6403 102.202 71.0258" stroke="#003188" stroke-width="1.41814" stroke-miterlimit="10" stroke-linecap="round" stroke-linejoin="round"/>
<path d="M92.6299 81.897C95.1353 82.0861 97.6642 81.8733 100.099 81.2352C100.359 81.1643 100.666 81.117 100.879 81.2588C101.186 81.4952 101.068 81.9679 100.855 82.2988C100.359 83.0551 99.5551 83.5515 98.7278 83.8824C97.2624 84.4969 95.6316 84.7096 94.048 84.5442" stroke="#003188" stroke-width="1.41814" stroke-miterlimit="10" stroke-linecap="round" stroke-linejoin="round"/>
<path d="M102.132 40.085C100.383 43.7958 100.974 48.3338 103.03 51.8555C105.11 55.3772 108.513 57.9772 112.248 59.7026" stroke="#003188" stroke-width="1.41814" stroke-miterlimit="10" stroke-linecap="round" stroke-linejoin="round"/>
<path d="M108.82 52.5176C112.743 58.4265 114.8 65.5881 114.563 72.6788C114.398 77.9496 113.027 83.1021 111.892 88.2311C110.758 93.3837 109.812 98.6781 110.545 103.902C111.278 109.125 113.901 114.325 118.44 116.972" stroke="#003188" stroke-width="1.41814" stroke-miterlimit="10" stroke-linecap="round" stroke-linejoin="round"/>
<path d="M100.665 47.2002C97.356 52.6837 91.9671 56.9145 85.8218 58.8053" stroke="#003188" stroke-width="1.41814" stroke-miterlimit="10" stroke-linecap="round" stroke-linejoin="round"/>
<path d="M97.9953 43.1816C94.639 47.9324 89.7701 51.5959 84.2866 53.4868" stroke="#003188" stroke-width="1.41814" stroke-miterlimit="10" stroke-linecap="round" stroke-linejoin="round"/>
<path d="M99.8375 39.8031C96.6467 39.3304 93.5031 40.9376 90.8796 42.8521C83.4107 48.3356 78.1636 56.7499 76.5564 65.8496C74.9964 74.6185 76.5564 84.2618 72.0892 91.967C70.5293 94.6615 68.3075 96.9542 65.6603 98.5614C63.6986 99.7668 61.5241 100.594 59.7042 102.012C57.9079 103.43 56.4661 105.676 56.8915 107.921" stroke="#003188" stroke-width="1.41814" stroke-miterlimit="10" stroke-linecap="round" stroke-linejoin="round"/>
<path d="M77.4796 96.5508C73.5797 100.285 72.1616 106.383 74.0052 111.441" stroke="#003188" stroke-width="1.41814" stroke-miterlimit="10" stroke-linecap="round" stroke-linejoin="round"/>
<path d="M77.5036 102.531C76.5109 105.273 76.3691 108.322 77.1018 111.135" stroke="#003188" stroke-width="1.41814" stroke-miterlimit="10" stroke-linecap="round" stroke-linejoin="round"/>
<path d="M109.694 47.1533C115.981 53.6059 118.534 62.8238 119.621 71.7817C120.709 80.716 120.614 89.8393 122.694 98.6082C123.427 101.634 124.443 104.683 126.381 107.117C129.146 110.591 133.566 112.506 136.143 116.122" stroke="#003188" stroke-width="1.41814" stroke-miterlimit="10" stroke-linecap="round" stroke-linejoin="round"/>
<path d="M115.107 46.1836C120.425 49.4453 123.238 55.5906 124.869 61.5941C126.5 67.6212 127.256 73.9082 129.809 79.6044" stroke="#003188" stroke-width="1.41814" stroke-miterlimit="10" stroke-linecap="round" stroke-linejoin="round"/>
<path d="M132.217 99.2461C135.479 105.817 142.192 109.835 148.266 113.947C154.34 118.06 160.556 123.284 161.833 130.516" stroke="#003188" stroke-width="1.41814" stroke-miterlimit="10" stroke-linecap="round" stroke-linejoin="round"/>
<path d="M154.53 110.047C158.359 111.985 161.172 115.53 162.897 119.454C164.623 123.377 165.332 127.655 165.757 131.91" stroke="#003188" stroke-width="1.41814" stroke-miterlimit="10" stroke-linecap="round" stroke-linejoin="round"/>
<path d="M105.463 39.4943C116.974 37.8162 129.241 44.1978 134.464 54.5975C140.397 66.4154 137.726 81.8731 145.999 92.2019C150.111 97.3545 156.351 100.356 161.007 105.036C169.871 113.947 171.667 128.601 166.538 140.088" stroke="#003188" stroke-width="1.41814" stroke-miterlimit="10" stroke-linecap="round" stroke-linejoin="round"/>
<path d="M130.635 82.3232C130.919 82.985 131.179 83.6468 131.463 84.3086" stroke="#003188" stroke-width="1.41814" stroke-miterlimit="10" stroke-linecap="round" stroke-linejoin="round"/>
<path d="M130.895 94.6592C130.99 94.8246 131.06 94.9901 131.155 95.1555" stroke="#003188" stroke-width="1.41814" stroke-miterlimit="10" stroke-linecap="round" stroke-linejoin="round"/>
<path d="M100.098 110.804C100.027 112.198 99.7202 113.593 99.2002 114.893" stroke="#003188" stroke-width="1.41814" stroke-miterlimit="10" stroke-linecap="round" stroke-linejoin="round"/>
<path d="M71.9009 115.839C76.4862 134.251 81.426 152.592 86.7204 170.815" stroke="#003188" stroke-width="1.41814" stroke-miterlimit="10" stroke-linecap="round" stroke-linejoin="round"/>
<path d="M83.7197 160.982C99.012 146.186 116.502 133.659 135.435 123.969" stroke="#003188" stroke-width="1.41814" stroke-miterlimit="10" stroke-linecap="round" stroke-linejoin="round"/>
<path d="M93.1968 158.902C103.762 150.181 115.58 142.972 128.178 137.606" stroke="#003188" stroke-width="1.41814" stroke-miterlimit="10" stroke-linecap="round" stroke-linejoin="round"/>
<path d="M69.7988 133.611C73.3678 140.442 76.1096 147.698 77.9059 155.191" stroke="#003188" stroke-width="1.41814" stroke-miterlimit="10" stroke-linecap="round" stroke-linejoin="round"/>
<path d="M139.05 190.148C140.279 185.917 141.957 181.805 144.061 177.952" stroke="#003188" stroke-width="1.41814" stroke-miterlimit="10" stroke-linecap="round" stroke-linejoin="round"/>
<path d="M28.4352 81.9912C27.6789 81.9912 28.3643 83.5039 28.8607 82.9366C29.3807 82.4876 28.0334 81.8494 28.0098 82.5348" stroke="#003188" stroke-width="1.41814" stroke-miterlimit="10" stroke-linecap="round" stroke-linejoin="round"/>
<path d="M181.334 137.82C181.026 137.3 180.294 138.411 180.908 138.482C181.381 138.222 181.641 137.608 181.452 137.111" stroke="#003188" stroke-width="1.41814" stroke-miterlimit="10" stroke-linecap="round" stroke-linejoin="round"/>
</g>
<path d="M100.271 197.676C46.1427 197.676 2.26339 153.797 2.26339 99.6686H-0.385458C-0.385458 155.259 44.6798 200.325 100.271 200.325V197.676ZM198.278 99.6686C198.278 153.797 154.399 197.676 100.271 197.676V200.325C155.862 200.325 200.927 155.259 200.927 99.6686H198.278ZM100.271 1.66134C154.399 1.66134 198.278 45.5407 198.278 99.6686H200.927C200.927 44.0778 155.862 -0.987508 100.271 -0.987508V1.66134ZM100.271 -0.987508C44.6798 -0.987508 -0.385458 44.0778 -0.385458 99.6686H2.26339C2.26339 45.5407 46.1427 1.66134 100.271 1.66134V-0.987508Z" fill="#003188" fill-opacity="0.1"/>
<defs>
<clipPath id="clip0_3_14615">
<path d="M0.938965 99.6686C0.938965 44.8092 45.4113 0.336914 100.271 0.336914V0.336914C155.13 0.336914 199.602 44.8092 199.602 99.6686V99.6686C199.602 154.528 155.13 199 100.271 199V199C45.4113 199 0.938965 154.528 0.938965 99.6686V99.6686Z" fill="white"/>
</clipPath>
</defs>
</svg>
