<svg width="199" height="199" viewBox="0 0 199 199" fill="none" xmlns="http://www.w3.org/2000/svg">
<g clip-path="url(#clip0_3_14611)">
<path d="M0.228027 99.6686C0.228027 44.8092 44.7003 0.336914 99.5597 0.336914V0.336914C154.419 0.336914 198.891 44.8092 198.891 99.6686V99.6686C198.891 154.528 154.419 199 99.5597 199V199C44.7003 199 0.228027 154.528 0.228027 99.6686V99.6686Z" fill="#FBFCFF"/>
<path d="M68.209 55.7399C68.1893 48.6663 73.287 39.6367 77.9302 34.6379C83.8577 28.2559 92.255 24.1462 101.048 24.3437C110.354 24.5611 118.613 31.5951 123.71 38.9254C129.203 46.8288 132.187 55.7201 129.539 65.2634C127.227 73.641 122.466 80.4379 119.423 88.4005" stroke="#003188" stroke-width="1.58067" stroke-miterlimit="10" stroke-linecap="round" stroke-linejoin="round"/>
<path d="M98.7773 24.917C100.358 30.0344 95.3196 36.4757 91.6643 39.5185C85.7566 44.4185 76.806 44.9718 72.064 51.2945" stroke="#003188" stroke-width="1.58067" stroke-miterlimit="10" stroke-linecap="round" stroke-linejoin="round"/>
<path d="M94.5268 40.5254C92.9659 45.9194 104.722 50.8393 107.785 53.5067C113.119 58.1697 112.052 64.8875 110.926 71.1509" stroke="#003188" stroke-width="1.58067" stroke-miterlimit="10" stroke-linecap="round" stroke-linejoin="round"/>
<path d="M102.826 44.5762C105.236 48.1327 108.338 49.8121 111.717 52.3807C114.286 54.3368 117.17 57.9329 116.38 61.4103" stroke="#003188" stroke-width="1.58067" stroke-miterlimit="10" stroke-linecap="round" stroke-linejoin="round"/>
<path d="M92.7094 30.3887C90.8917 36.5533 80.4395 43.0143 74.4922 43.9825" stroke="#003188" stroke-width="1.58067" stroke-miterlimit="10" stroke-linecap="round" stroke-linejoin="round"/>
<path d="M84.4115 34.0244C83.3841 35.7632 81.3885 36.9684 79.7485 38.0749" stroke="#003188" stroke-width="1.58067" stroke-miterlimit="10" stroke-linecap="round" stroke-linejoin="round"/>
<path d="M113.754 27.9592C118.298 23.7704 125.253 23.2171 130.825 25.5289C137.207 28.1765 140.665 33.531 142.008 40.1501C143.095 45.5441 144.696 59.3355 131.576 63.2477" stroke="#003188" stroke-width="1.58067" stroke-miterlimit="10" stroke-linecap="round" stroke-linejoin="round"/>
<path d="M132.384 31.2002C137.363 34.5986 138.094 41.7314 136.019 47.0267" stroke="#003188" stroke-width="1.58067" stroke-miterlimit="10" stroke-linecap="round" stroke-linejoin="round"/>
<path d="M132.78 40.7246C133.63 42.2262 133.195 44.5775 132.978 46.1977" stroke="#003188" stroke-width="1.58067" stroke-miterlimit="10" stroke-linecap="round" stroke-linejoin="round"/>
<path d="M114.208 66.4487C117.527 63.3466 123.889 64.0975 124.284 69.2742C124.719 74.8855 118.969 80.0227 113.773 80.3981" stroke="#003188" stroke-width="1.58067" stroke-miterlimit="10" stroke-linecap="round" stroke-linejoin="round"/>
<path d="M116.56 73.1067C117.449 72.099 118.872 70.7357 120.196 70.5381" stroke="#003188" stroke-width="1.58067" stroke-miterlimit="10" stroke-linecap="round" stroke-linejoin="round"/>
<path d="M73.7422 58.17C76.4688 57.3599 80.4601 57.3401 82.5149 57.9922C86.4271 59.2369 84.5896 62.8923 83.6016 65.6584C82.4557 68.8988 80.0649 72.317 79.5314 75.6957C79.0967 78.4224 80.5984 78.7583 82.5347 79.9833" stroke="#003188" stroke-width="1.58067" stroke-miterlimit="10" stroke-linecap="round" stroke-linejoin="round"/>
<path d="M76.5094 64.6113C76.1735 65.6388 76.134 67.338 76.4699 68.2469C76.5489 67.1207 76.5094 65.9747 76.5094 64.8287" stroke="#003188" stroke-width="1.58067" stroke-miterlimit="10" stroke-linecap="round" stroke-linejoin="round"/>
<path d="M95.2784 66.1914C94.9425 67.2188 94.903 68.9181 95.2389 69.827C95.3179 68.7007 95.2784 67.5547 95.2784 66.4088" stroke="#003188" stroke-width="1.77826" stroke-miterlimit="10" stroke-linecap="round" stroke-linejoin="round"/>
<path d="M92.355 58.9391C94.4296 57.1015 99.7446 58.0499 101.997 59.3737" stroke="#003188" stroke-width="1.58067" stroke-miterlimit="10" stroke-linecap="round" stroke-linejoin="round"/>
<path d="M81.4478 86.6617C84.451 87.4718 86.4664 87.1161 89.1535 85.5947" stroke="#003188" stroke-width="1.58067" stroke-miterlimit="10" stroke-linecap="round" stroke-linejoin="round"/>
<path d="M68.1308 58.4072C67.5775 64.5521 67.7949 70.5389 67.6566 78.7386C67.538 85.6145 69.6522 92.9844 74.0781 98.418C78.3261 103.634 85.1428 105.689 91.6828 104.543C99.4478 103.2 105.652 96.5805 105.652 96.5805" stroke="#003188" stroke-width="1.58067" stroke-miterlimit="10" stroke-linecap="round" stroke-linejoin="round"/>
<path d="M79.5911 103.081C79.3145 107.507 78.2278 115.331 76.8052 123.867" stroke="#003188" stroke-width="1.58067" stroke-miterlimit="10" stroke-linecap="round" stroke-linejoin="round"/>
<path d="M117.725 83.5C114.188 96.3627 113.596 110.036 115.986 123.175" stroke="#003188" stroke-width="1.58067" stroke-miterlimit="10" stroke-linecap="round" stroke-linejoin="round"/>
<path d="M117.744 92.4521C117.645 94.0526 117.586 95.7123 118.12 97.2337C118.653 98.7551 119.878 100.118 121.459 100.375C123.039 100.612 124.818 99.3478 124.758 97.7474C124.739 97.3127 124.581 96.878 124.284 96.5817C123.593 95.9099 122.348 96.226 121.755 96.9768C121.162 97.7276 121.044 98.7551 121.044 99.7035C121.044 100.711 121.162 101.758 121.617 102.647C122.071 103.537 122.941 104.287 123.948 104.366" stroke="#003188" stroke-width="1.58067" stroke-miterlimit="10" stroke-linecap="round" stroke-linejoin="round"/>
<path d="M80.0456 112.368C90.2607 112.526 100.575 105.65 105.534 96.6992C99.0136 103.061 88.8776 106.697 80.0653 104.365C80.5988 107.053 80.1641 109.621 79.9468 112.348" fill="#003188"/>
<path d="M80.0456 112.368C90.2607 112.526 100.575 105.65 105.534 96.6992C99.0136 103.061 88.8776 106.697 80.0653 104.365C80.5988 107.053 80.1641 109.621 79.9468 112.348" stroke="#003188" stroke-width="1.58067" stroke-miterlimit="10" stroke-linecap="round" stroke-linejoin="round"/>
<path d="M71.6268 125.15C57.8157 122.819 43.1549 126.118 31.6753 134.14C16.0661 145.067 7.21439 163.422 -7.42659 175.593C-12.5835 179.881 -18.8272 183.991 -20.2893 190.531C-20.5857 191.894 -20.5659 193.534 -19.4792 194.423C-17.9183 195.688 -15.3497 194.107 -15.0336 192.092C-14.7174 190.096 -15.8634 188.16 -17.1082 186.579C-19.9337 182.983 -23.4704 180.059 -26.5527 176.68C-32.2432 170.437 -36.2146 162.869 -40.1465 155.381C-45.2639 145.58 -50.4011 135.78 -55.5186 125.98" stroke="#003188" stroke-width="1.58067" stroke-miterlimit="10" stroke-linecap="round" stroke-linejoin="round"/>
<path d="M40.4292 149.355C37.3271 164.807 26.7168 178.025 24.1285 193.575C22.7652 201.775 23.7136 210.152 24.4446 218.431C26.6773 243.583 26.9144 268.914 25.1164 294.106" stroke="#003188" stroke-width="1.58067" stroke-miterlimit="10" stroke-linecap="round" stroke-linejoin="round"/>
<path d="M30.9448 152.062C31.6956 155.164 32.0118 158.364 31.8537 161.565" stroke="#003188" stroke-width="1.58067" stroke-miterlimit="10" stroke-linecap="round" stroke-linejoin="round"/>
<path d="M76.8052 126.376C80.2036 129.122 83.6218 131.869 87.0203 134.615C87.3759 134.892 87.7316 135.188 88.1663 135.267C88.7195 135.366 89.253 135.129 89.7667 134.892C96.8995 131.552 104.032 128.213 111.165 124.874" stroke="#003188" stroke-width="1.58067" stroke-miterlimit="10" stroke-linecap="round" stroke-linejoin="round"/>
<path d="M73.3849 126.336C69.69 129.319 66.9041 133.429 65.521 137.993C65.3037 138.685 65.2246 139.614 65.8569 139.949C66.1928 140.127 66.6077 140.048 66.9634 139.969C72.6736 138.764 78.4035 137.559 84.1137 136.353" stroke="#003188" stroke-width="1.58067" stroke-miterlimit="10" stroke-linecap="round" stroke-linejoin="round"/>
<path d="M91.9985 137.519C98.3015 139.614 104.624 141.708 111.085 143.23C112.745 143.625 114.464 143.98 116.163 143.743C117.862 143.526 119.562 142.617 120.312 141.076C121.201 139.219 120.549 137.045 119.878 135.109C118.929 132.343 117.981 129.576 117.032 126.83" stroke="#003188" stroke-width="1.58067" stroke-miterlimit="10" stroke-linecap="round" stroke-linejoin="round"/>
<path d="M119.917 124.874C130.29 123.669 140.762 127.107 149.771 132.362C158.801 137.618 166.645 144.632 174.687 151.311C186.463 161.071 198.753 170.2 211.516 178.617C223.648 186.639 236.531 194.305 245.205 205.982C253.878 217.659 257.277 234.77 248.919 246.704C245.442 251.664 240.344 255.22 235.128 258.263C210.291 272.706 179.745 278.18 159.493 298.61" stroke="#003188" stroke-width="1.58067" stroke-miterlimit="10" stroke-linecap="round" stroke-linejoin="round"/>
<path d="M157.241 191.658C151.215 210.547 147.243 230.108 145.406 249.847" stroke="#003188" stroke-width="1.58067" stroke-miterlimit="10" stroke-linecap="round" stroke-linejoin="round"/>
<path d="M86.605 143.447C83.5622 162.198 75.975 180.139 74.671 199.107C74.0585 208.057 74.8883 217.028 75.6984 225.978C77.7138 248.127 79.7489 270.276 81.7642 292.426" stroke="#003188" stroke-width="1.58067" stroke-miterlimit="10" stroke-linecap="round" stroke-linejoin="round"/>
<path d="M114.669 179.121C113.148 178.903 111.587 179.022 110.105 179.437C109.927 179.496 109.73 179.555 109.611 179.694C109.453 179.871 109.453 180.128 109.433 180.346C109.414 181.254 109.473 182.163 109.611 183.072C109.67 183.487 109.789 183.961 110.125 184.198C110.402 184.396 110.757 184.396 111.073 184.396C112.397 184.416 113.721 184.436 115.045 184.455" stroke="#003188" stroke-width="1.58067" stroke-miterlimit="10" stroke-linecap="round" stroke-linejoin="round"/>
<path d="M115.827 181.917C115.669 178.775 115.768 175.594 116.163 172.472C116.242 171.8 116.361 171.109 116.736 170.556C117.131 170.002 117.882 169.647 118.495 169.943C119.186 170.259 119.344 171.148 119.403 171.919C119.818 177.155 119.542 182.43 118.574 187.587C118.435 188.299 117.961 189.227 117.27 189.01C116.795 188.852 116.677 188.259 116.618 187.765C116.44 186.184 116.262 184.584 116.104 183.003" stroke="#003188" stroke-width="1.58067" stroke-miterlimit="10" stroke-linecap="round" stroke-linejoin="round"/>
<path d="M124.936 181.304C124.818 179.763 124.857 178.222 125.075 176.68C125.173 175.989 125.312 175.278 125.746 174.744C126.201 174.211 127.05 173.993 127.584 174.428C127.959 174.724 128.058 175.238 128.137 175.712C128.829 179.96 128.789 184.327 128.038 188.575C127.88 189.425 127.386 190.492 126.556 190.334C125.924 190.215 125.687 189.444 125.569 188.812C125.252 187.014 125.114 185.196 125.114 183.379" stroke="#003188" stroke-width="1.58067" stroke-miterlimit="10" stroke-linecap="round" stroke-linejoin="round"/>
<path d="M120.766 181.937C121.339 181.621 122.07 181.602 122.643 181.878" stroke="#003188" stroke-width="1.58067" stroke-miterlimit="10" stroke-linecap="round" stroke-linejoin="round"/>
<path d="M120.986 186.283C121.756 186.283 122.507 186.283 123.278 186.283" stroke="#003188" stroke-width="1.58067" stroke-miterlimit="10" stroke-linecap="round" stroke-linejoin="round"/>
<path d="M130.725 181.918C133.017 181.878 135.309 182.135 137.522 182.708C137.403 184.348 137.284 185.988 137.166 187.648C137.146 187.885 137.126 188.142 136.968 188.32C136.711 188.636 136.257 188.596 135.862 188.537C134.36 188.32 132.859 188.083 131.377 187.865" stroke="#003188" stroke-width="1.58067" stroke-miterlimit="10" stroke-linecap="round" stroke-linejoin="round"/>
<path d="M110.75 188.574C110.632 194.245 110.711 199.896 111.007 205.566C111.165 208.807 111.521 212.324 113.753 214.655C115.63 216.631 118.476 217.342 121.183 217.56C124.166 217.797 127.189 217.56 130.094 216.848C131.082 216.611 132.109 216.275 132.82 215.564C133.808 214.576 134.006 213.075 134.124 211.692C134.816 204.48 135.132 197.228 135.073 189.977" stroke="#003188" stroke-width="1.58067" stroke-miterlimit="10" stroke-linecap="round" stroke-linejoin="round"/>
<path d="M92.9475 117.247C92.9277 118.788 92.6116 120.31 92.0386 121.732" stroke="#003188" stroke-width="1.58067" stroke-miterlimit="10" stroke-linecap="round" stroke-linejoin="round"/>
<path d="M89.0558 166.663C87.9098 166.88 87.1985 168.323 87.7122 169.37C88.2259 170.417 89.8263 170.694 90.676 169.903C91.5256 169.113 91.3675 167.493 90.3796 166.9" stroke="#003188" stroke-width="1.58067" stroke-miterlimit="10" stroke-linecap="round" stroke-linejoin="round"/>
<path d="M83.6013 194.384C82.3763 195.313 83.2061 197.723 84.7275 197.684C86.2687 197.664 86.9998 195.234 85.755 194.345" stroke="#003188" stroke-width="1.58067" stroke-miterlimit="10" stroke-linecap="round" stroke-linejoin="round"/>
<path d="M29.048 99.3064C28.4553 98.9903 27.9021 100.196 28.5343 100.433C28.8702 100.393 29.2456 100.334 29.4037 100.037C29.5617 99.7411 29.1271 99.3064 28.9097 99.583" stroke="#003188" stroke-width="1.58067" stroke-miterlimit="10" stroke-linecap="round" stroke-linejoin="round"/>
<path d="M147.323 110.648C146.967 110.787 147.007 111.439 147.402 111.518C147.777 111.597 148.074 111.004 147.777 110.747" stroke="#003188" stroke-width="1.58067" stroke-miterlimit="10" stroke-linecap="round" stroke-linejoin="round"/>
<path d="M150.069 30.4678C149.931 30.4678 149.793 30.4678 149.654 30.4678" stroke="#003188" stroke-width="1.58067" stroke-miterlimit="10" stroke-linecap="round" stroke-linejoin="round"/>
</g>
<path d="M99.5597 197.676C45.4318 197.676 1.55245 153.797 1.55245 99.6686H-1.0964C-1.0964 155.259 43.9689 200.325 99.5597 200.325V197.676ZM197.567 99.6686C197.567 153.797 153.688 197.676 99.5597 197.676V200.325C155.151 200.325 200.216 155.259 200.216 99.6686H197.567ZM99.5597 1.66134C153.688 1.66134 197.567 45.5407 197.567 99.6686H200.216C200.216 44.0778 155.151 -0.987508 99.5597 -0.987508V1.66134ZM99.5597 -0.987508C43.9689 -0.987508 -1.0964 44.0778 -1.0964 99.6686H1.55245C1.55245 45.5407 45.4318 1.66134 99.5597 1.66134V-0.987508Z" fill="#003188" fill-opacity="0.1"/>
<defs>
<clipPath id="clip0_3_14611">
<path d="M0.228027 99.6686C0.228027 44.8092 44.7003 0.336914 99.5597 0.336914V0.336914C154.419 0.336914 198.891 44.8092 198.891 99.6686V99.6686C198.891 154.528 154.419 199 99.5597 199V199C44.7003 199 0.228027 154.528 0.228027 99.6686V99.6686Z" fill="white"/>
</clipPath>
</defs>
</svg>
