<svg width="199" height="200" viewBox="0 0 199 200" fill="none" xmlns="http://www.w3.org/2000/svg">
<g clip-path="url(#clip0_3_14616)">
<path d="M0.228027 100.272C0.228027 45.4127 44.7003 0.94043 99.5597 0.94043V0.94043C154.419 0.94043 198.891 45.4127 198.891 100.272V100.272C198.891 155.132 154.419 199.604 99.5597 199.604V199.604C44.7003 199.604 0.228027 155.132 0.228027 100.272V100.272Z" fill="#FBFCFF"/>
<g clip-path="url(#clip1_3_14616)">
<path d="M598.542 -91.7705H-352.733V621.685H598.542V-91.7705Z" fill="#FBFCFF"/>
<path d="M89.0587 84.0579C89.3441 87.7044 92.3248 91.3827 95.7176 92.3974C100.981 93.9511 102.091 87.7361 100.95 84.153C100.062 81.2992 97.8421 77.7795 94.6395 77.2721C90.7393 76.6062 88.8051 80.6967 89.0587 84.0579Z" fill="#EBF2FF"/>
<path d="M124.857 92.9056C128.345 95.1887 132.816 87.2931 131.928 85.8979C131.04 84.5027 129.201 83.9319 127.742 84.7881C126.125 85.7711 124.761 87.1028 123.778 88.6883C122.922 90.0518 123.493 92.0178 124.857 92.9056Z" fill="#EBF2FF"/>
<path d="M105.483 107.713C107.576 109.552 112.586 110.313 112.491 106.159C112.396 102.83 106.118 100.293 104.342 103.623C103.549 105.113 104.247 106.635 105.483 107.713Z" fill="#EBF2FF"/>
<path d="M-20.8467 192.884C-1.28218 186.86 15.5237 172.749 25.0998 154.675C27.7951 149.601 37.1176 134.603 31.41 135.491C15.27 137.933 -2.67738 149.062 -6.57761 154.104C-10.4461 159.083 -24.3665 183.467 -24.747 189.967C-24.8421 191.901 -22.6859 193.455 -20.8467 192.884Z" fill="#EBF2FF"/>
<path d="M155.36 192.504C160.529 194.692 166.046 195.833 171.659 195.707C173.371 195.675 174.639 194.311 174.734 192.631C175.369 181.184 162.59 157.465 126.315 140.691C124.951 140.057 123.049 142.086 123.239 143.767C125.871 163.966 135.669 184.196 155.36 192.504Z" fill="#EBF2FF"/>
<path d="M76.1837 145.098C85.8867 150.045 96.5727 152.011 107.417 150.901C109.066 150.742 110.081 148.745 109.764 147.254C109.383 145.479 107.766 144.749 106.117 144.908C97.0483 145.859 87.6307 144.084 79.4815 139.93C78.0228 139.169 76.2154 139.359 75.2641 140.849C74.4397 142.149 74.6934 144.337 76.1837 145.098Z" fill="#EBF2FF"/>
<path d="M141.504 64.9069C138.873 64.0825 136.177 65.985 135.385 68.4901C134.782 70.4877 134.941 72.8342 134.719 74.8953C134.465 77.3686 134.084 79.7785 133.609 82.2201C132.658 86.9765 131.326 91.6694 129.582 96.2038C127.901 100.58 125.872 104.86 125.111 109.522C124.477 113.358 124.73 117.766 127.616 120.715C130.692 123.854 135.48 123.505 138.936 121.254C146.229 116.466 148.354 106.573 148.48 98.4552C148.607 92.6841 143.439 65.5094 141.504 64.9069Z" fill="#EEE1FF"/>
<path d="M135.703 56.2172C139.001 52.3804 139.603 47.085 137.764 42.4238C135.862 37.6357 131.898 34.2428 127.364 31.9914C117.597 27.1716 105.453 24.413 95.0521 28.6937C85.3808 32.689 77.7389 40.8383 71.9995 49.3681C66.3236 57.8027 62.3917 67.5057 60.5842 77.5258C59.5695 83.17 59.1256 88.9411 59.4427 94.6487C59.7915 100.61 60.7428 106.857 64.2625 111.835C65.2138 113.199 66.926 113.833 68.4481 112.945C69.0823 112.564 69.5579 111.93 69.8116 111.201C70.3506 112.025 70.9214 112.85 71.5239 113.642C74.2192 117.162 77.6754 121.189 82.4001 121.538C88.4248 122.014 89.7883 115.799 90.1371 111.137C90.5494 105.715 89.6298 100.261 88.8054 94.9024C87.1882 84.375 87.0613 74.0061 89.7249 63.6372C90.264 61.5444 90.8982 59.515 91.5958 57.4856C96.0667 59.9906 101.394 60.9736 106.531 61.3541C108.18 69.8205 134.815 57.2319 135.703 56.2172Z" fill="#EEE1FF"/>
<path d="M90.6439 105.905C96.193 115.988 110.208 119.064 119.024 111.327C123.431 107.459 126.38 101.909 128.727 96.614C131.422 90.5576 133.42 84.2157 134.91 77.7788C136.686 70.0418 137.764 62.1462 138.176 54.2506C138.239 53.0139 136.337 53.0457 136.273 54.2506C135.639 66.744 133.388 79.3325 128.949 91.0966C125.334 100.704 119.15 114.244 106.974 113.927C100.854 113.769 95.1783 110.281 92.2294 104.954C91.722 103.844 90.0732 104.827 90.6439 105.905Z" fill="#003188"/>
<path d="M101.107 69.8845C104.786 69.1235 108.527 69.5991 111.889 71.3114C112.967 71.8505 113.95 70.2333 112.84 69.6626C109.003 67.7283 104.786 67.1892 100.6 68.0454C99.3952 68.2991 99.9025 70.1382 101.107 69.8845Z" fill="#003188"/>
<path d="M105.706 75.4318C105.389 76.7953 105.072 78.1588 104.723 79.5223C104.438 80.7272 106.277 81.2346 106.562 80.0296C106.88 78.6661 107.197 77.3027 107.545 75.9392C107.799 74.7659 105.992 74.2586 105.706 75.4318Z" fill="#003188"/>
<path d="M129.934 69.2486C127.429 69.4389 124.226 69.1852 122.133 70.8024C120.548 72.039 120.104 74.0684 120.041 76.0027C119.977 78.8248 120.389 81.6469 120.485 84.469C120.516 85.6105 120.58 87.0375 119.882 88.0204C119.121 89.0668 117.504 89.1303 116.394 89.6693C115.284 90.1767 116.236 91.8255 117.345 91.3182C119.28 90.3986 121.119 90.3669 121.975 88.0839C122.736 86.0545 122.324 83.6763 122.197 81.5835C122.038 79.2053 121.468 76.3832 122.165 74.0684C123.148 70.8975 127.27 71.3731 129.902 71.1829C131.171 71.0878 131.171 69.1852 129.934 69.2486Z" fill="#003188"/>
<path d="M126.285 79.2385C126.095 80.5069 125.778 81.7436 125.334 82.9485C124.922 84.09 126.761 84.5974 127.173 83.4558C127.617 82.2509 127.934 81.0143 128.124 79.7459C128.314 78.5726 126.475 78.0336 126.285 79.2385Z" fill="#003188"/>
<path d="M106.245 94.0132C108.052 97.3109 111.667 98.1988 115.155 98.6427C116.36 98.8013 116.36 96.8987 115.155 96.7402C112.365 96.3914 109.353 95.7255 107.894 93.0302C107.291 91.9838 105.643 92.9351 106.245 94.0132Z" fill="#003188"/>
<path d="M118.486 109.425C116.329 118.272 114.776 127.119 113.539 136.124C113.38 137.329 115.22 137.837 115.378 136.632C116.615 127.626 118.168 118.78 120.325 109.933C120.61 108.728 118.771 108.22 118.486 109.425Z" fill="#003188"/>
<path d="M68.9236 129.591C80.2755 141.197 98.4448 145.16 113.602 139.263C114.743 138.819 114.236 136.979 113.094 137.423C98.5399 143.068 81.195 139.389 70.2554 128.228C69.431 127.372 68.0674 128.703 68.9236 129.591Z" fill="#003188"/>
<path d="M76.5341 140.912C85.0005 148.807 97.0816 148.363 107.799 147C109.004 146.841 109.004 144.939 107.799 145.097C97.6524 146.366 85.9517 147.063 77.8976 139.548C77.0098 138.724 75.6463 140.055 76.5341 140.912Z" fill="#003188"/>
<path d="M62.3307 123.758C52.2789 126.865 42.2905 130.226 32.3021 133.492C22.3138 136.758 12.1034 139.358 3.00288 144.812C-1.18273 147.317 -4.51219 149.854 -7.46114 153.723C-10.2833 157.433 -12.6931 161.46 -15.0079 165.518C-21.4448 176.902 -26.8988 188.856 -32.0674 200.874C-37.7751 214.097 -43.1022 227.51 -48.0171 241.081C-51.9173 251.831 -55.7224 262.707 -58.6397 273.774C-58.8934 274.757 -59.147 275.771 -59.4007 276.754C-59.6861 277.959 -57.8469 278.466 -57.5616 277.262C-55.0882 266.893 -51.6002 256.777 -48.0488 246.757C-43.3559 233.503 -38.2824 220.407 -32.8284 207.438C-27.6281 195.071 -22.1424 182.8 -15.8323 170.972C-13.4541 166.501 -10.9174 162.03 -8.06358 157.845C-6.19274 155.086 -4.13167 152.169 -1.46811 150.076C2.17845 147.254 6.39576 144.939 10.5814 143.005C15.528 140.722 20.76 139.263 25.9603 137.614C35.6633 134.507 45.3029 131.209 55.0059 128.102C57.606 127.277 60.2062 126.453 62.8064 125.66C64.0113 125.216 63.504 123.377 62.3307 123.758Z" fill="#003188"/>
<path d="M114.552 133.239C123.589 138.598 132.499 144.178 141.219 150.045C149.21 155.403 157.264 160.984 163.352 168.531C169.631 176.3 173.626 185.686 177.622 194.786C181.934 204.648 185.993 214.636 189.893 224.688C194.237 235.849 198.391 247.106 202.513 258.363C202.925 259.504 204.765 258.997 204.352 257.856C196.869 237.593 189.386 217.331 180.856 197.513C176.861 188.222 172.929 178.614 167.031 170.307C161.45 162.411 153.871 156.45 145.976 151.028C136.051 144.21 125.872 137.773 115.503 131.653C114.457 130.956 113.506 132.605 114.552 133.239Z" fill="#003188"/>
<path d="M190.652 83.1078C190.652 83.1078 197.66 83.0127 204.7 85.7714" stroke="#003188" stroke-width="2.21964" stroke-miterlimit="10" stroke-linecap="round" stroke-linejoin="round"/>
<path d="M199.882 108.538C199.882 108.538 206.034 101.72 212.154 98.1055" stroke="#003188" stroke-width="2.21964" stroke-miterlimit="10" stroke-linecap="round" stroke-linejoin="round"/>
<path d="M10.1008 150.742C0.0489965 159.24 -7.49776 170.402 -11.7151 182.864C-12.0956 184.037 -10.2565 184.512 -9.87597 183.371C-5.78549 171.195 1.63448 160.35 11.4326 152.074C12.3839 151.281 11.0204 149.949 10.1008 150.742Z" fill="#003188"/>
<path d="M10.8 116.369C10.3877 115.386 9.46818 114.911 8.42177 115.101C7.50221 115.259 6.70947 116.02 6.70947 117.003C6.70947 117.986 7.53392 118.747 8.42177 118.906C9.46818 119.096 10.3877 118.652 10.8 117.638C10.9902 117.162 10.578 116.591 10.134 116.464C9.59498 116.306 9.15107 116.655 8.96081 117.13C8.96081 117.067 8.99254 117.035 9.05596 117.003C8.99254 117.067 8.99251 117.067 9.02422 117.035C9.08763 117.003 9.05593 117.003 8.99252 117.035C9.08764 117.003 9.08764 117.003 8.99252 117.035C8.80226 117.098 9.15108 117.035 8.92911 117.035C8.86569 117.035 8.64371 117.003 8.83397 117.035C8.73884 117.003 8.67545 117.003 8.58032 116.972C8.83399 117.067 8.39003 116.877 8.54858 116.94C8.612 116.972 8.5803 116.972 8.51688 116.908C8.5803 117.003 8.5803 117.003 8.51688 116.908C8.51688 116.94 8.54858 116.972 8.54858 117.003C8.51687 116.908 8.51687 116.908 8.54858 117.003C8.51687 117.225 8.61201 116.877 8.51688 117.098C8.61201 116.94 8.42174 117.162 8.54858 117.035C8.35832 117.225 8.70716 116.94 8.58032 117.003C8.48519 117.035 8.73886 116.94 8.77057 116.94C8.61202 116.972 8.77054 116.94 8.86567 116.94C9.11934 116.94 8.70715 116.877 8.92911 116.94C9.02424 116.972 9.02424 116.972 8.92911 116.94C8.96082 116.94 8.96081 116.972 8.99252 116.972C8.89739 116.908 8.89739 116.908 8.99252 116.972C8.96081 116.94 8.92911 116.877 8.92911 116.845C9.11937 117.32 9.56328 117.669 10.1023 117.511C10.578 117.416 10.9902 116.845 10.8 116.369Z" fill="#003188"/>
<path d="M143.757 134.824C143.757 134.856 143.757 134.856 143.757 134.887C143.757 136.124 145.66 136.124 145.66 134.887C145.66 134.856 145.66 134.792 145.66 134.761C145.66 133.524 143.757 133.524 143.757 134.761C143.757 134.792 143.757 134.824 143.757 134.824C143.757 136.061 145.66 136.061 145.66 134.824C145.66 134.792 145.66 134.792 145.66 134.761C145.66 133.524 143.757 133.524 143.757 134.761C143.757 134.792 143.757 134.856 143.757 134.887C143.757 136.124 145.66 136.124 145.66 134.887C145.66 134.856 145.66 134.856 145.66 134.824C145.66 133.619 143.757 133.619 143.757 134.824Z" fill="#003188"/>
<path d="M199.215 177.632C199.374 176.776 198.994 175.951 198.201 175.507C197.44 175.095 196.52 175.158 195.854 175.761C195.601 175.983 195.506 176.363 195.601 176.68C195.918 177.663 196.932 178.139 197.915 177.885C198.359 177.759 198.772 177.473 199.025 177.061C199.406 176.427 199.184 175.761 198.55 175.38C197.725 174.905 196.615 175.158 196.013 175.856C195.315 176.68 195.505 177.917 196.425 178.488C197.313 179.059 198.676 178.837 199.184 177.854C199.406 177.41 199.311 176.807 198.835 176.554C198.423 176.3 197.757 176.427 197.535 176.902C197.408 177.124 197.662 176.744 197.503 176.934C197.693 176.68 197.408 177.124 197.63 176.871C197.598 176.902 197.313 176.934 197.598 176.902C197.567 176.902 197.345 176.902 197.503 176.902C197.63 176.902 197.408 176.871 197.376 176.871C197.25 176.839 197.535 176.902 197.376 176.871C197.471 176.934 197.471 176.966 197.44 176.902C197.376 176.839 197.408 176.871 197.471 176.966C197.44 176.902 197.408 176.871 197.44 176.966C197.471 177.029 197.471 177.029 197.44 176.934C197.44 176.966 197.44 176.998 197.44 177.029C197.44 176.902 197.44 176.934 197.44 177.061C197.44 177.093 197.408 177.124 197.408 177.156C197.44 177.093 197.471 177.061 197.408 177.124C197.313 177.219 197.471 177.061 197.471 177.061C197.281 177.188 197.503 177.061 197.535 177.029C197.345 177.124 197.535 177.029 197.598 177.029C197.376 177.093 197.567 176.998 197.662 177.029C197.471 176.934 197.693 177.156 197.535 176.998C197.693 177.124 197.408 176.871 197.567 177.029C197.471 176.712 197.408 176.427 197.313 176.11C197.281 176.268 197.376 176.046 197.408 176.015C197.313 176.141 197.503 175.983 197.408 176.015C197.313 176.046 197.567 175.983 197.408 176.015C197.186 176.046 197.598 176.046 197.376 176.015C197.345 176.015 197.154 176.046 197.281 176.015C197.345 176.015 197.345 176.015 197.281 176.015C197.313 176.015 197.345 176.046 197.376 176.046C197.313 176.046 197.154 175.888 197.345 176.046C197.376 176.078 197.376 176.11 197.408 176.141C197.345 176.046 197.376 176.046 197.408 176.173C197.313 176.49 197.25 176.776 197.154 177.093C197.091 177.156 197.059 177.156 197.123 177.124C197.186 177.093 197.154 177.093 197.059 177.124C197.091 177.124 197.123 177.124 197.123 177.093C196.996 177.093 196.996 177.124 197.059 177.093C197.123 177.093 197.123 177.093 196.996 177.061C197.028 177.061 197.059 177.061 197.059 177.093C197.154 177.124 197.154 177.124 197.091 177.093C197.028 177.061 197.028 177.061 197.123 177.124C197.154 177.124 197.345 177.251 197.218 177.188C197.123 177.124 197.281 177.283 197.186 177.156C197.25 177.251 197.25 177.346 197.218 177.219C197.25 177.378 197.218 177.156 197.218 177.093C197.123 177.6 197.345 178.107 197.884 178.266C198.518 178.424 199.12 178.139 199.215 177.632Z" fill="#003188"/>
<path d="M95.1127 119.414C101.359 122.489 108.843 121.443 114.487 117.321C116.326 115.989 118.038 114.118 118.451 111.645C113.187 114.562 107.226 117.035 101.55 115.069C99.9959 114.53 98.5373 113.674 97.0787 112.818C95.525 111.899 93.9395 110.313 92.3857 109.394C92.9248 112.628 93.8761 116.465 95.1127 119.414Z" fill="#003188"/>
<path d="M94.8603 119.826C99.2995 121.918 104.341 122.204 109.003 120.65C113.188 119.255 117.944 116.401 118.896 111.74C118.991 111.327 118.579 111.01 118.198 111.201C114.108 113.452 109.542 115.608 104.754 115.228C102.217 115.037 99.9654 113.959 97.8092 112.659C95.9701 111.581 94.448 110.091 92.6406 108.949C92.2601 108.696 91.8796 109.108 91.943 109.488C92.5138 112.881 93.3382 116.274 94.67 119.477C94.892 120.048 95.8115 119.794 95.5896 119.223C94.2895 116.02 93.465 112.628 92.8626 109.235C92.6406 109.425 92.387 109.583 92.165 109.774C94.2895 111.106 96.0969 112.818 98.3166 114.023C100.346 115.133 102.439 115.989 104.785 116.147C109.732 116.528 114.488 114.308 118.706 111.993C118.484 111.803 118.23 111.645 118.008 111.454C117.12 115.925 112.332 118.621 108.305 119.826C104.024 121.126 99.4264 120.84 95.3676 118.938C94.7968 118.747 94.3212 119.572 94.8603 119.826Z" fill="#003188"/>
<path d="M68.2563 46.4512C61.1851 55.3932 55.1287 65.4132 52.4968 76.5114C49.865 87.6096 51.0065 99.9445 57.3483 109.426C57.9825 110.377 58.9972 111.423 60.107 111.074C60.868 110.821 61.2802 109.965 61.4705 109.172C62.0413 106.984 61.8827 104.637 60.9949 102.545C62.1998 107.618 64.039 112.533 66.4806 117.163C66.9245 117.987 67.4635 118.875 68.3514 119.16C69.5563 119.572 70.8881 118.589 71.3638 117.416C71.8394 116.211 71.6491 114.88 71.4906 113.611C72.3784 116.687 73.298 119.794 75.0737 122.458C76.8494 125.122 79.6715 127.278 82.8742 127.436" stroke="#9A4AFF" stroke-width="2.21964" stroke-miterlimit="10" stroke-linecap="round" stroke-linejoin="round"/>
<path d="M90.864 56.25C86.8686 78.1293 88.5175 101.023 95.5886 122.142C94.9861 123.378 93.0519 122.586 92.1006 121.571C90.0712 119.446 88.4541 116.941 87.376 114.214" stroke="#9A4AFF" stroke-width="2.21964" stroke-miterlimit="10" stroke-linecap="round" stroke-linejoin="round"/>
<path d="M79.5449 103.688C80.4328 111.868 83.2866 119.859 87.8527 126.74" stroke="#9A4AFF" stroke-width="2.21964" stroke-miterlimit="10" stroke-linecap="round" stroke-linejoin="round"/>
<path d="M72.8852 52.8887C67.1776 69.1238 66.6068 87.1028 71.268 103.655" stroke="#9A4AFF" stroke-width="2.21964" stroke-miterlimit="10" stroke-linecap="round" stroke-linejoin="round"/>
<path d="M71.935 80.9512C71.6813 86.2466 72.0936 91.5737 73.14 96.774" stroke="#9A4AFF" stroke-width="2.21964" stroke-miterlimit="10" stroke-linecap="round" stroke-linejoin="round"/>
<path d="M60.0097 73.2461C59.0901 79.144 58.8999 85.1687 59.3755 91.0983" stroke="#9A4AFF" stroke-width="2.21964" stroke-miterlimit="10" stroke-linecap="round" stroke-linejoin="round"/>
<path d="M85.9823 57.8047C83.0968 67.6662 82.2089 78.0668 83.3505 88.2772" stroke="#9A4AFF" stroke-width="2.21964" stroke-miterlimit="10" stroke-linecap="round" stroke-linejoin="round"/>
<path d="M86.0454 50.3213C88.7407 54.9825 93.3068 58.5022 98.4754 59.9292C103.644 61.3561 109.383 60.6585 114.076 58.0583C114.647 57.7412 115.25 57.3607 115.472 56.7582C116.011 55.363 114.298 54.063 112.808 53.9996C109.288 53.8727 106.561 57.3607 105.959 60.8487C105.864 61.4195 105.8 62.022 106.054 62.5293C106.308 63.1001 106.878 63.4806 107.449 63.766C110.081 65.066 113.188 64.8124 116.074 64.2733C124.889 62.5927 133.197 58.2169 139.539 51.8433" stroke="#9A4AFF" stroke-width="2.21964" stroke-miterlimit="10" stroke-linecap="round" stroke-linejoin="round"/>
<path d="M91.1182 47.6582C92.7987 50.3218 95.4623 52.3194 98.5064 53.2073" stroke="#9A4AFF" stroke-width="2.21964" stroke-miterlimit="10" stroke-linecap="round" stroke-linejoin="round"/>
<path d="M139.508 46.4518C138.747 36.2098 128.949 27.0141 119.436 23.1139C109.924 19.182 98.7619 20.2284 89.5662 24.8262C80.3706 29.424 73.0775 37.3196 68.1309 46.3567" stroke="#9A4AFF" stroke-width="2.21964" stroke-miterlimit="10" stroke-linecap="round" stroke-linejoin="round"/>
<path d="M141.377 63.0361C145.658 79.081 147.149 89.0693 149.146 105.526C149.622 109.49 149.558 114.468 146.007 116.307C142.487 118.147 137.985 115.039 137.097 111.171C136.906 110.378 136.907 109.331 137.636 108.919C138.555 108.38 139.633 109.3 140.204 110.219C142.329 113.707 142.519 118.717 139.602 121.603C136.685 124.488 130.596 123.442 129.74 119.415" stroke="#9A4AFF" stroke-width="2.21964" stroke-miterlimit="10" stroke-linecap="round" stroke-linejoin="round"/>
<path d="M137.541 87.04C136.875 92.0501 137.351 97.2187 138.904 102.038" stroke="#9A4AFF" stroke-width="2.21964" stroke-miterlimit="10" stroke-linecap="round" stroke-linejoin="round"/>
</g>
</g>
<path d="M99.5597 198.279C45.4318 198.279 1.55245 154.4 1.55245 100.272H-1.0964C-1.0964 155.863 43.9689 200.928 99.5597 200.928V198.279ZM197.567 100.272C197.567 154.4 153.688 198.279 99.5597 198.279V200.928C155.151 200.928 200.216 155.863 200.216 100.272H197.567ZM99.5597 2.26485C153.688 2.26485 197.567 46.1442 197.567 100.272H200.216C200.216 44.6813 155.151 -0.383993 99.5597 -0.383993V2.26485ZM99.5597 -0.383993C43.9689 -0.383993 -1.0964 44.6813 -1.0964 100.272H1.55245C1.55245 46.1442 45.4318 2.26485 99.5597 2.26485V-0.383993Z" fill="#003188" fill-opacity="0.1"/>
<defs>
<clipPath id="clip0_3_14616">
<path d="M0.228027 100.272C0.228027 45.4127 44.7003 0.94043 99.5597 0.94043V0.94043C154.419 0.94043 198.891 45.4127 198.891 100.272V100.272C198.891 155.132 154.419 199.604 99.5597 199.604V199.604C44.7003 199.604 0.228027 155.132 0.228027 100.272V100.272Z" fill="white"/>
</clipPath>
<clipPath id="clip1_3_14616">
<rect width="951.274" height="713.456" fill="white" transform="translate(-355.059 -90.6582)"/>
</clipPath>
</defs>
</svg>
