<svg width="200" height="199" viewBox="0 0 200 199" fill="none" xmlns="http://www.w3.org/2000/svg">
<g clip-path="url(#clip0_3_14614)">
<path d="M0.51709 99.6686C0.51709 44.8092 44.9894 0.336914 99.8488 0.336914V0.336914C154.708 0.336914 199.18 44.8092 199.18 99.6686V99.6686C199.18 154.528 154.708 199 99.8488 199V199C44.9894 199 0.51709 154.528 0.51709 99.6686V99.6686Z" fill="#FBFCFF"/>
<g clip-path="url(#clip1_3_14614)">
<path d="M490.552 -185.42H-263.715V380.281H490.552V-185.42Z" fill="#FBFCFF"/>
<path d="M98.3768 93.3443C100.816 91.6346 99.9356 88.2656 98.4271 86.2291C96.8431 84.092 93.4992 81.7286 90.7587 82.9857C87.8171 84.3434 88.2696 88.517 89.8787 90.7798C91.5884 93.1683 95.6363 95.2551 98.3768 93.3443Z" fill="#EBF2FF"/>
<path d="M127.015 86.43C126.889 84.4438 127.367 77.228 125.204 77.0017C123.495 76.8257 122.137 79.1388 121.508 80.3959C120.654 82.1558 119.899 84.7204 120.628 86.6312C121.86 89.8242 125.405 88.6677 127.015 86.43Z" fill="#EBF2FF"/>
<path d="M110.469 105.01C113.813 105.588 119.998 101.339 114.567 99.4537C112.857 98.8503 110.419 99.4789 109.187 100.811C107.879 102.27 107.854 104.96 110.469 105.01Z" fill="#EBF2FF"/>
<path d="M60.085 148.23C56.1879 144.106 47.6396 149.084 43.8934 151.096C38.3621 154.088 33.1576 157.683 28.5063 161.907C23.8047 166.181 19.6563 171.109 16.2369 176.464C14.7535 178.777 9.02109 186.069 14.0747 187.099C18.7009 188.055 25.3636 185.717 29.7132 184.133C35.0433 182.197 40.0466 179.381 44.4717 175.836C48.6704 172.492 52.3915 168.494 55.3583 164.044C57.4451 160.876 63.63 151.951 60.085 148.23Z" fill="#EBF2FF"/>
<path d="M163.395 153.081C173.275 158.06 184.539 160.322 195.577 159.442C208.047 158.462 195.2 145.237 190.649 141.717C183.307 136.085 175.061 133.596 165.934 133.496C161.383 133.445 156.832 133.697 152.307 134.25C150.346 134.476 146.876 134.426 145.267 135.809C140.616 139.731 160.83 151.774 163.395 153.081Z" fill="#EBF2FF"/>
<path d="M67.4245 178.627C70.0393 179.96 74.7912 177.496 77.3809 176.917C81.2276 176.037 88.0411 173.574 83.9932 179.557C82.3841 181.946 69.4359 192.154 77.2803 193.486C85.1247 194.844 92.5668 198.163 99.5312 202.236C103.403 204.499 113.058 213.072 117.583 208.823C122.536 204.172 114.843 194.467 112.505 190.293C106.093 178.929 99.6066 167.64 93.2456 156.251C90.6811 151.65 87.4126 140.914 80.2722 145.314C74.3638 148.959 72.4781 156.577 69.6873 162.486C68.0279 166.056 61.843 175.811 67.4245 178.627ZM86.4823 175.685C86.4572 175.786 86.4069 175.761 86.3818 175.685C86.4572 175.711 86.4823 175.711 86.4823 175.685Z" fill="#EBF2FF"/>
<path d="M140.013 170.632C143.809 166.508 148.033 161.706 147.505 155.999C147.078 151.247 139.435 148.129 136.015 146.168C133.979 145.012 131.188 142.674 128.875 142.296C126.537 141.919 125.481 144.786 125.204 146.797C124.324 152.932 124.123 159.267 123.57 165.452C122.489 177.873 121.382 190.318 120.301 202.738C120.15 204.523 119.12 207.641 120.955 208.773C122.891 209.954 124.601 207.566 125.807 206.359C129.679 202.487 133.199 198.238 136.367 193.737C138.705 190.394 141.471 185.893 137.046 183.077C135.06 181.82 133.325 181.946 133.853 178.954C134.23 176.766 136.091 175.006 137.448 173.423C138.253 172.543 139.108 171.612 140.013 170.632Z" fill="#EBF2FF"/>
<path d="M180.766 189.815C179.61 187.276 177.724 186.22 174.707 189.01C172.469 191.072 171.187 193.938 170.407 196.83C168.497 203.769 168.421 211.362 168.446 218.502C168.497 227.076 169.125 235.649 168.849 244.248C168.597 252.62 166.812 260.49 164.926 268.611C163.569 274.469 162.312 280.679 163.217 286.713C163.569 289.001 164.197 291.364 165.58 293.275C166.762 294.935 169.879 297.826 172.142 296.619C174.581 295.312 173.55 288.674 173.676 286.311C173.902 281.71 174.229 277.109 174.682 272.508C175.536 263.809 176.869 255.21 178.453 246.611C180.188 237.258 182.048 227.88 182.803 218.402C183.205 213.499 183.305 208.546 182.903 203.643C182.677 201.255 182.551 193.737 180.766 189.815Z" fill="#EBF2FF"/>
<path d="M267.635 257.473C247.999 244.323 228.614 230.747 209.556 216.767C205.006 213.424 200.48 210.08 195.98 206.685C193.641 204.926 188.236 198.514 185.37 201.883C182.101 205.705 189.141 208.747 191.278 211.186C197.086 217.849 248.074 252.847 255.491 257.171C258.533 258.931 261.827 261.118 265.397 261.571C267.736 261.873 270.426 259.333 267.635 257.473Z" fill="#EBF2FF"/>
<path d="M147.613 94.5905C144.319 91.5735 143.288 90.6684 144.118 85.9919C145.803 76.287 139.165 73.7476 132.93 68.2918C128.203 64.1684 127.222 59.2154 124.633 53.7847C121.842 47.9768 122.093 41.3896 115.984 37.6434C109.849 33.8721 101.904 34.6515 95.1158 35.6571C87.0955 36.8388 78.8991 39.3279 72.5632 44.5575C66.0514 49.9128 63.4869 56.6258 62.5818 64.797C62.1544 68.6438 61.5761 72.214 59.3636 75.5076C57.2516 78.6252 54.2094 81.0137 51.5443 83.6537C46.6165 88.5313 41.6634 95.7974 45.7113 102.812C46.4153 104.044 48.2256 105.125 48.6781 106.433C49.4324 108.57 46.8427 111.587 46.0131 113.472C44.8062 116.288 43.7 119.884 44.0268 122.951C44.3285 125.717 49.3067 126.194 53.0277 125.339C58.6345 124.032 63.864 121.97 69.5713 124.51C74.3232 126.622 78.6225 131.147 84.003 129.614C91.7971 127.426 92.8782 116.213 91.2439 109.525C90.2634 105.527 87.5229 101.806 87.0955 97.7082C86.6429 93.3837 89.5343 89.5118 89.484 85.1874C89.4337 80.9383 87.0703 77.2927 86.5423 73.1442C85.9892 68.8952 87.5229 64.4953 89.2326 60.6988C92.2496 53.9607 98.3592 45.3621 105.5 42.4707C108.818 41.113 120.057 53.4578 121.767 57.5309C123.552 61.7799 125.84 66.7329 126.317 71.3591C127.298 81.1394 128.052 95.5711 127.072 99.971C126.091 104.396 122.797 107.941 123.2 112.718C123.325 114.302 124.13 117.47 125.789 118.249C128.48 119.507 133.508 116.288 136.425 116.137C138.662 116.012 141.026 117.118 143.238 116.59C145.652 116.037 149.448 106.885 150.253 104.572C151.51 100.801 150.454 97.2305 147.613 94.5905Z" fill="#EEE1FF"/>
<path d="M99.3643 111.258C105.348 113.898 112.614 114.878 118.271 111.56C122.646 108.97 125.361 104.143 126.468 99.1898C127.473 94.7144 127.348 90.0883 127.071 85.5124C127.046 85.0095 126.996 84.4815 126.97 83.9787C126.794 81.4645 126.618 78.9251 126.367 76.4109C125.764 70.5528 124.733 64.7449 122.571 59.289C119.453 51.4949 113.62 44.3797 105.675 41.6895" stroke="#003188" stroke-width="1.75996" stroke-miterlimit="10" stroke-linecap="round" stroke-linejoin="round"/>
<path d="M92.9795 70.1771C95.9211 68.568 99.2651 67.688 102.634 67.6377" stroke="#003188" stroke-width="1.75996" stroke-miterlimit="10" stroke-linecap="round" stroke-linejoin="round"/>
<path d="M98.5341 75.8838C98.4084 77.1912 98.6347 78.5237 99.1375 79.7054C99.4644 78.4483 99.3387 77.0655 98.8107 75.8838" stroke="#003188" stroke-width="1.75996" stroke-miterlimit="10" stroke-linecap="round" stroke-linejoin="round"/>
<path d="M118.873 63.9668C116.585 64.1177 114.373 64.8971 112.487 66.1793C112.085 66.4559 111.682 66.7827 111.456 67.2353C111.305 67.5621 111.28 67.9393 111.255 68.3164C111.18 70.5038 111.607 72.6912 112.537 74.6522C113.568 76.8396 115.253 79.027 114.825 81.4407C114.549 82.9492 113.493 84.156 112.487 85.2874" stroke="#003188" stroke-width="1.75996" stroke-miterlimit="10" stroke-linecap="round" stroke-linejoin="round"/>
<path d="M118.197 73.0427C118.197 74.1238 118.373 75.2049 118.7 76.2358C119.052 75.1546 118.926 73.9227 118.373 72.917" stroke="#003188" stroke-width="1.75996" stroke-miterlimit="10" stroke-linecap="round" stroke-linejoin="round"/>
<path d="M106.255 91.6729C109.423 92.8797 113.194 92.4272 115.985 90.4912" stroke="#003188" stroke-width="1.75996" stroke-miterlimit="10" stroke-linecap="round" stroke-linejoin="round"/>
<path d="M123.2 107.035C123.778 119.631 124.482 126.671 126.418 139.142" stroke="#003188" stroke-width="1.75996" stroke-miterlimit="10" stroke-linecap="round" stroke-linejoin="round"/>
<path d="M99.5151 111.536C102.105 114.578 105.398 117.142 109.27 118.173C113.117 119.204 117.567 118.525 120.534 115.86C121.137 115.307 121.691 114.653 121.967 113.899C122.52 112.365 121.892 110.605 122.294 109.021C119.83 111.938 116.134 113.673 112.363 114.125C108.566 114.578 104.72 113.799 101.225 112.29" fill="#003188"/>
<path d="M99.5151 111.536C102.105 114.578 105.398 117.142 109.27 118.173C113.117 119.204 117.567 118.525 120.534 115.86C121.137 115.307 121.691 114.653 121.967 113.899C122.52 112.365 121.892 110.605 122.294 109.021C119.83 111.938 116.134 113.673 112.363 114.125C108.566 114.578 104.72 113.799 101.225 112.29" stroke="#003188" stroke-width="1.75996" stroke-miterlimit="10" stroke-linecap="round" stroke-linejoin="round"/>
<path d="M109.498 125.188C109.975 128.029 110.026 130.945 109.674 133.811" stroke="#003188" stroke-width="1.75996" stroke-miterlimit="10" stroke-linecap="round" stroke-linejoin="round"/>
<path d="M83.3992 140.6C70.6018 142.008 57.5781 143.466 45.8367 148.695C34.6484 153.674 25.0189 162.021 18.4819 172.379C10.8638 184.473 7.62049 198.779 5.3074 212.909C3.24574 225.555 1.83776 238.302 1.0835 251.1" stroke="#003188" stroke-width="1.75996" stroke-miterlimit="10" stroke-linecap="round" stroke-linejoin="round"/>
<path d="M83.5249 140.349C98.1074 162.373 110.427 179.193 121.113 203.33C120.937 191.639 123.954 155.535 126.418 144.321" stroke="#003188" stroke-width="1.75996" stroke-miterlimit="10" stroke-linecap="round" stroke-linejoin="round"/>
<path d="M80.7344 145.83C73.594 153.599 68.3644 163.103 65.5485 173.285C65.1462 174.744 64.8948 176.604 66.0765 177.56C66.9565 178.264 68.2136 178.138 69.3198 177.886C75.1528 176.629 80.7344 173.487 86.668 173.964C83.0224 178.062 79.3767 182.161 75.7311 186.234C74.826 187.264 73.8455 188.522 74.1723 189.854C74.5494 191.438 76.4602 192.016 78.0693 192.343C89.2074 194.631 100.044 202.853 110.251 207.831" stroke="#003188" stroke-width="1.75996" stroke-miterlimit="10" stroke-linecap="round" stroke-linejoin="round"/>
<path d="M135.118 144.32C140.272 146.96 144.999 150.43 149.097 154.528C149.751 155.182 150.429 155.986 150.354 156.891C150.304 157.495 149.927 157.998 149.549 158.45C143.918 165.691 136.45 171.776 132.93 180.249C135.445 180.249 137.934 180.877 140.146 182.034C141.353 182.662 142.66 183.819 142.359 185.151C142.233 185.73 141.856 186.182 141.479 186.635C135.746 193.398 129.989 200.186 124.256 206.95" stroke="#003188" stroke-width="1.75996" stroke-miterlimit="10" stroke-linecap="round" stroke-linejoin="round"/>
<path d="M133.106 136.075C153.823 130.896 173.334 131.449 178.965 133.511C187.036 136.478 193.472 142.562 199.683 148.521C215.371 163.556 231.035 178.591 246.724 193.651C250.671 197.422 254.744 201.445 256.429 206.65C257.007 208.485 257.233 210.647 256.127 212.206C254.694 214.192 251.652 214.343 249.464 213.212C246.372 211.603 244.662 208.083 244.36 204.613C244.034 201.143 244.863 197.699 245.693 194.305C250.847 173.185 256.001 152.066 261.18 130.946" stroke="#003188" stroke-width="1.75996" stroke-miterlimit="10" stroke-linecap="round" stroke-linejoin="round"/>
<path d="M178.412 186.661C182.862 200.992 182.812 216.404 180.901 231.289C178.99 246.173 175.244 260.78 172.478 275.514C171.272 281.975 170.392 289.216 174.188 294.597" stroke="#003188" stroke-width="1.75996" stroke-miterlimit="10" stroke-linecap="round" stroke-linejoin="round"/>
<path d="M5.60742 141.203C5.63256 141.882 6.28627 142.51 6.96511 142.41C7.64395 142.309 8.07138 141.404 7.6691 140.851C7.24169 140.323 6.16056 140.65 6.18571 141.328C6.21085 141.706 6.56285 142.032 6.91484 141.957C7.26683 141.882 7.44282 141.354 7.16626 141.102" stroke="#003188" stroke-width="1.75996" stroke-miterlimit="10" stroke-linecap="round" stroke-linejoin="round"/>
<path d="M144.973 30.4014C144.419 30.6276 144.872 31.6836 145.425 31.4322C145.827 31.0048 144.973 30.2757 144.621 30.7282C144.394 31.1053 144.947 31.6333 145.325 31.4071C145.702 31.1808 145.475 30.4516 145.023 30.4768" stroke="#003188" stroke-width="1.75996" stroke-miterlimit="10" stroke-linecap="round" stroke-linejoin="round"/>
<path d="M83.9517 137.558C84.5802 135.043 85.0328 132.504 85.2842 129.939" stroke="#003188" stroke-width="1.75996" stroke-miterlimit="10" stroke-linecap="round" stroke-linejoin="round"/>
<path d="M104.844 41.8887C99.6648 45.7103 94.3849 49.6325 90.6387 54.8872C86.8925 60.1419 84.9063 67.0561 87.0182 73.1405C88.0742 76.2078 90.1358 78.9483 90.5633 82.1666C91.4684 88.9298 85.032 95.4919 87.0433 102.029C88.0239 105.222 90.8398 107.535 92.1221 110.628C94.1083 115.43 91.9461 120.936 89.2559 125.386" stroke="#9A4AFF" stroke-width="1.50853" stroke-miterlimit="10" stroke-linecap="round" stroke-linejoin="round"/>
<path d="M40.6543 122.344C44.2245 124.808 48.725 125.864 53.0243 125.285C55.8402 124.883 58.5304 123.827 61.3212 123.274C64.112 122.721 67.2296 122.796 69.5427 124.431C70.5484 125.135 71.353 126.115 72.3335 126.869C74.5712 128.554 77.7642 128.83 80.2533 127.598" stroke="#9A4AFF" stroke-width="1.50853" stroke-miterlimit="10" stroke-linecap="round" stroke-linejoin="round"/>
<path d="M101.373 31.9072C86.6398 29.7701 71.0014 35.2008 60.7433 46.012C55.3629 51.6942 51.315 59.3123 52.1447 67.1063C52.5218 70.5508 53.8041 74.1462 52.5972 77.3895C51.1893 81.1609 47.0408 82.9459 43.6718 85.1082C39.473 87.7733 35.8777 91.6703 34.4697 96.4473C33.816 98.6598 33.7657 101.325 35.3748 102.984C36.7325 104.367 39.0204 104.719 40.0513 106.353C40.8558 107.636 40.6044 109.345 39.9004 110.678C39.1964 112.01 38.1153 113.091 37.1599 114.273C35.0228 116.938 33.5646 120.534 34.6457 123.777" stroke="#9A4AFF" stroke-width="1.50853" stroke-miterlimit="10" stroke-linecap="round" stroke-linejoin="round"/>
<path d="M52.2458 85.7627C48.8013 89.1318 46.4379 93.5819 45.6082 98.3338C45.2311 100.421 45.3317 102.935 47.0413 104.217C48.3487 105.198 50.4104 105.223 51.1898 106.656C51.6675 107.561 51.4412 108.692 50.9384 109.572C50.4355 110.452 49.6561 111.156 49.0024 111.936C47.695 113.52 46.8151 115.431 46.4882 117.467" stroke="#9A4AFF" stroke-width="1.50853" stroke-miterlimit="10" stroke-linecap="round" stroke-linejoin="round"/>
<path d="M56.1418 107.762C54.0801 111.231 53.4264 115.48 54.3315 119.403" stroke="#9A4AFF" stroke-width="1.50853" stroke-miterlimit="10" stroke-linecap="round" stroke-linejoin="round"/>
<path d="M95.4901 42.1914C88.6011 48.301 83.5476 56.4219 81.0585 65.272C79.8265 69.6216 79.3488 74.6752 81.9887 78.3711C83.3464 80.2567 85.4835 81.7401 85.8355 84.0281C86.1372 85.9138 85.1315 87.7492 84.0504 89.3331C82.1647 92.0736 79.9271 94.613 78.4185 97.5798C76.91 100.547 76.1809 104.142 77.5134 107.209C79.1476 110.955 83.6481 113.671 83.2961 117.744" stroke="#9A4AFF" stroke-width="1.50853" stroke-miterlimit="10" stroke-linecap="round" stroke-linejoin="round"/>
<path d="M77.9642 90.2383C76.1791 92.2999 74.8969 94.789 74.2432 97.429" stroke="#9A4AFF" stroke-width="1.50853" stroke-miterlimit="10" stroke-linecap="round" stroke-linejoin="round"/>
<path d="M101.625 32.4111C102.606 34.1459 103.31 36.0567 103.712 37.9927" stroke="#9A4AFF" stroke-width="1.50853" stroke-miterlimit="10" stroke-linecap="round" stroke-linejoin="round"/>
<path d="M126.191 118.699C129.107 116.31 133.08 115.279 136.776 115.908C138.787 116.26 140.698 117.064 142.734 117.366C146.179 117.844 149.825 116.637 152.314 114.198" stroke="#9A4AFF" stroke-width="1.50853" stroke-miterlimit="10" stroke-linecap="round" stroke-linejoin="round"/>
<path d="M139.188 74.2461C141.702 75.4529 142.205 78.8974 141.576 81.6128C140.922 84.3281 139.489 86.8926 139.389 89.6834C139.364 90.6891 139.514 91.7199 140.093 92.5245C141.752 94.7873 145.498 93.7816 147.811 95.3656C149.496 96.5221 150.024 98.8603 149.596 100.872C149.169 102.883 147.987 104.618 146.831 106.302" stroke="#9A4AFF" stroke-width="1.50853" stroke-miterlimit="10" stroke-linecap="round" stroke-linejoin="round"/>
<path d="M143.361 101.802C143.612 104.291 143.009 106.83 141.702 108.967" stroke="#9A4AFF" stroke-width="1.50853" stroke-miterlimit="10" stroke-linecap="round" stroke-linejoin="round"/>
<path d="M137.302 107.637C136.975 108.114 136.649 108.592 136.322 109.07" stroke="#9A4AFF" stroke-width="1.50853" stroke-miterlimit="10" stroke-linecap="round" stroke-linejoin="round"/>
<path d="M62.5269 49.4824C60.8172 51.4938 59.4344 53.7817 58.4287 56.2205" stroke="#9A4AFF" stroke-width="1.50853" stroke-miterlimit="10" stroke-linecap="round" stroke-linejoin="round"/>
<path d="M97.9551 40.0803C98.6088 39.4015 99.4385 38.8735 100.369 38.6221" stroke="#9A4AFF" stroke-width="1.50853" stroke-miterlimit="10" stroke-linecap="round" stroke-linejoin="round"/>
<path d="M95.1123 22.3789C97.4505 24.1137 99.3362 26.4771 100.518 29.1422" stroke="#9A4AFF" stroke-width="1.50853" stroke-miterlimit="10" stroke-linecap="round" stroke-linejoin="round"/>
<path d="M102.908 28.7137C103.008 26.3503 103.687 24.0121 104.919 21.9756" stroke="#9A4AFF" stroke-width="1.50853" stroke-miterlimit="10" stroke-linecap="round" stroke-linejoin="round"/>
<path d="M101.726 32.1844C107.207 29.8462 113.894 31.7822 118.244 35.8803C122.594 39.9785 124.882 45.8367 125.938 51.7199C126.566 55.2399 126.893 59.0112 129.055 61.8271C131.343 64.7939 135.14 66.051 138.609 67.4841C142.079 68.9172 145.725 71.0795 146.73 74.6748C147.711 78.1947 145.825 81.8404 145.523 85.4608C145.448 86.4414 145.473 87.4471 145.875 88.3522C147.082 91.0173 150.678 91.3944 153.091 93.0286C155.957 94.9646 157.039 98.7862 156.636 102.231C156.234 105.675 154.65 108.818 153.066 111.885" stroke="#9A4AFF" stroke-width="1.75996" stroke-miterlimit="10" stroke-linecap="round" stroke-linejoin="round"/>
</g>
</g>
<path d="M99.8488 197.676C45.7208 197.676 1.84151 153.797 1.84151 99.6686H-0.807333C-0.807333 155.259 44.2579 200.325 99.8488 200.325V197.676ZM197.856 99.6686C197.856 153.797 153.977 197.676 99.8488 197.676V200.325C155.44 200.325 200.505 155.259 200.505 99.6686H197.856ZM99.8488 1.66134C153.977 1.66134 197.856 45.5407 197.856 99.6686H200.505C200.505 44.0778 155.44 -0.987508 99.8488 -0.987508V1.66134ZM99.8488 -0.987508C44.2579 -0.987508 -0.807333 44.0778 -0.807333 99.6686H1.84151C1.84151 45.5407 45.7208 1.66134 99.8488 1.66134V-0.987508Z" fill="#003188" fill-opacity="0.1"/>
<defs>
<clipPath id="clip0_3_14614">
<path d="M0.51709 99.6686C0.51709 44.8092 44.9894 0.336914 99.8488 0.336914V0.336914C154.708 0.336914 199.18 44.8092 199.18 99.6686V99.6686C199.18 154.528 154.708 199 99.8488 199V199C44.9894 199 0.51709 154.528 0.51709 99.6686V99.6686Z" fill="white"/>
</clipPath>
<clipPath id="clip1_3_14614">
<rect width="754.267" height="565.7" fill="white" transform="translate(-263.715 -185.42)"/>
</clipPath>
</defs>
</svg>
