<svg width="199" height="200" viewBox="0 0 199 200" fill="none" xmlns="http://www.w3.org/2000/svg">
<g clip-path="url(#clip0_3_14578)">
<path d="M0.290039 100.293C0.290039 45.4332 44.7623 0.960938 99.6217 0.960938V0.960938C154.481 0.960938 198.953 45.4332 198.953 100.293V100.293C198.953 155.152 154.481 199.624 99.6217 199.624V199.624C44.7623 199.624 0.290039 155.152 0.290039 100.293V100.293Z" fill="#40BAFF"/>
<path d="M160.714 258.619C160.768 257.637 160.768 256.601 160.823 255.62C161.15 237.57 158.151 219.467 151.989 202.508C147.681 190.729 139.829 175.243 126.142 166.3C116.599 160.029 108.038 160.084 96.5321 164.228C87.4256 167.554 80.6639 175.461 76.7378 184.295C72.8116 193.129 71.4484 202.835 70.4123 212.487C68.8855 226.883 68.1221 241.333 68.1221 255.783C98.9314 258.237 129.904 256.874 160.714 258.619Z" fill="#A8E4F4"/>
<path d="M92.333 195.527L92.442 193.237C92.5511 190.347 92.6602 186.366 92.7692 182.386C92.8783 178.405 92.9873 174.424 93.0964 171.48L94.8959 171.589C94.7868 174.479 94.6778 178.46 94.5687 182.44C94.5142 185.548 94.4051 188.602 94.2961 191.22C96.041 189.802 98.1677 188.329 100.403 186.803C102.857 185.112 105.366 183.367 107.492 181.622L107.983 181.186L108.528 181.513C110.382 182.658 112.127 183.913 113.818 185.167C116.381 187.075 119.053 189.038 122.106 190.511C121.997 184.131 121.397 173.77 120.089 169.026L121.834 168.535C123.306 173.879 123.906 185.712 123.906 191.874V193.237L122.652 192.692C118.834 191.11 115.726 188.82 112.727 186.584C111.146 185.439 109.673 184.349 108.147 183.313C106.075 185.003 103.73 186.639 101.439 188.22C98.5494 190.238 95.8229 192.092 93.9689 193.891L92.333 195.527Z" fill="white"/>
<path d="M107.772 182.611L105.976 182.716L109.992 251.47L111.788 251.365L107.772 182.611Z" fill="white"/>
<path d="M93.8031 162.046C94.2393 165.373 94.6756 168.754 96.2024 171.807C97.7292 174.861 100.619 177.533 104.273 178.296C109.453 179.278 114.688 176.006 117.033 171.862C119.378 167.663 119.541 162.81 119.432 158.12C119.268 148.468 118.451 138.817 117.033 129.274C115.997 122.403 115.779 110.57 107.981 106.535C95.0573 99.8279 90.1496 123.712 90.0406 130.419C89.9315 140.834 92.4398 151.686 93.8031 162.046Z" fill="#E04136"/>
<path d="M118.831 144.598C109.561 149.233 101.436 156.103 93.9653 163.574C94.347 166.41 94.8923 169.191 96.201 171.808C97.7279 174.862 100.618 177.534 104.271 178.297C109.452 179.279 114.687 176.007 117.031 171.863C119.376 167.664 119.54 162.811 119.431 158.121C119.431 153.595 119.213 149.069 118.831 144.598Z" fill="#FE673C"/>
<path d="M46.9074 95.7389C40.3093 103.973 40.1458 116.733 46.5257 125.13C51.6515 131.892 59.94 135.491 68.174 137.727C95.2208 145.034 125.267 140.344 148.715 125.076C154.767 121.15 160.984 115.479 160.875 108.226C160.766 102.664 156.785 97.811 151.986 95.0299C147.188 92.3035 141.571 91.3219 136.118 90.3949C135.3 78.2348 129.466 66.1837 119.487 59.2039C109.508 52.2241 95.3299 51.0244 85.0238 57.5135C74.1178 64.3842 71.9911 76.2717 74.0087 87.9411C63.7571 86.905 54.0508 86.796 46.9074 95.7389Z" fill="#FE673C"/>
<path d="M95.9309 101.683C100.511 102.992 105.692 102.01 109.672 99.3927C114.853 96.0119 118.125 89.741 117.634 83.5791C117.088 77.4172 112.563 71.419 106.51 70.1648C85.2431 65.7479 82.1894 84.9424 86.9335 94.376C88.6785 97.975 92.1138 100.592 95.9309 101.683Z" fill="white"/>
<path d="M98.2178 95.0299C100.89 95.7934 103.834 95.2481 106.125 93.7212C109.124 91.7582 110.978 88.1592 110.705 84.6148C110.378 81.0703 107.815 77.635 104.325 76.9261C92.0559 74.3632 90.3655 85.4327 93.0375 90.8857C94.0735 92.9033 96.0366 94.3756 98.2178 95.0299Z" fill="#0000EF"/>
<path d="M128.279 103.563L107.744 109.877L108.273 111.597L128.808 105.283L128.279 103.563Z" fill="#CC332F"/>
<path d="M74.3353 41.8632C75.9712 39.3549 79.7337 39.6821 82.5147 40.7181C84.6959 41.5361 86.768 42.6812 88.6766 44.0444C87.4769 42.2995 86.5499 40.3909 85.8955 38.3733C85.5138 37.0646 85.2412 35.5923 85.5684 34.2836C85.9501 32.9204 87.0952 31.7207 88.513 31.7207C89.9308 31.7207 91.0759 32.8658 92.0029 33.9019C96.2562 38.5915 110.87 52.3875 110.107 59.3673C109.18 67.983 82.951 54.6777 77.6616 50.4789C76.3528 49.4429 75.0441 48.2432 74.2807 46.7164C73.5718 45.1896 73.4083 43.281 74.3353 41.8632Z" fill="#0000EF"/>
<path d="M112.943 45.7354C111.961 41.5912 110.162 36.9561 106.127 35.6474C92.1671 31.0669 95.0572 52.9334 101.11 58.768C111.525 68.8015 115.015 54.5147 112.943 45.7354Z" fill="#0000EF"/>
<path d="M108.745 72.4545C109.509 72.3455 110.327 72.1818 110.981 71.6911C112.072 70.9277 112.344 69.3463 111.908 68.0921C111.417 66.8379 110.327 65.9655 109.072 65.4747C107.218 64.7113 105.146 64.8749 103.183 64.9839C99.0389 65.2566 84.7521 64.4386 86.4971 72.2364C87.5331 76.8714 92.5499 75.2901 95.8762 74.7448C100.13 73.9814 104.437 73.2179 108.745 72.4545Z" fill="#CC332F"/>
</g>
<defs>
<clipPath id="clip0_3_14578">
<path d="M0.290039 100.293C0.290039 45.4332 44.7623 0.960938 99.6217 0.960938V0.960938C154.481 0.960938 198.953 45.4332 198.953 100.293V100.293C198.953 155.152 154.481 199.624 99.6217 199.624V199.624C44.7623 199.624 0.290039 155.152 0.290039 100.293V100.293Z" fill="white"/>
</clipPath>
</defs>
</svg>
