<svg width="200" height="200" viewBox="0 0 200 200" fill="none" xmlns="http://www.w3.org/2000/svg">
<g clip-path="url(#clip0_3_14579)">
<path d="M0.446777 99.8961C0.446777 45.0368 44.9191 0.564453 99.7785 0.564453V0.564453C154.638 0.564453 199.11 45.0368 199.11 99.8961V99.8961C199.11 154.756 154.638 199.228 99.7785 199.228V199.228C44.9191 199.228 0.446777 154.756 0.446777 99.8961V99.8961Z" fill="#5096FF"/>
<path d="M39.3116 78.5255C20.9982 80.0001 13.1495 80.1904 10.8663 76.9083C8.63065 73.6261 35.6013 73.1504 47.2553 73.5786C58.9093 74.0067 39.3116 78.5255 39.3116 78.5255Z" fill="#CC332F"/>
<path d="M30.1302 142.028C35.2675 147.213 44.7334 148.307 51.488 150.353C60.3831 152.969 69.4684 155.157 78.6014 156.632C95.7256 159.391 113.278 159.295 130.497 157.202C146.956 155.205 163.224 151.352 178.968 145.929C178.255 136.511 177.256 125.951 175.924 114.297C169.598 59.2137 159.18 55.7413 83.7862 57.7867C33.2697 59.1662 26.2773 98.3617 27.1335 140.221C28.18 140.506 29.1789 141.077 30.1302 142.028Z" fill="#FE7EB2"/>
<path d="M30.1302 142.028C32.5562 144.454 35.8859 146.024 39.501 147.165C39.2632 145.738 39.168 144.311 39.3108 142.979C41.3086 126.141 36.5043 107.304 71.5138 101.548C91.5397 98.2662 146.337 106.828 164.508 72.4847C153.472 57.4058 131.782 56.4545 83.7862 57.7864C33.2697 59.1658 26.2773 98.3613 27.1335 140.221C28.18 140.506 29.1789 141.077 30.1302 142.028Z" fill="#DD689D"/>
<path d="M180.823 201.249L29.987 202.438C29.987 184.172 27.4184 159.627 27.0854 138.46C32.6984 137.984 55.6734 155.679 101.956 155.679C144.482 155.679 173.878 139.363 178.445 138.65C181.822 178.749 180.68 204.626 180.823 201.249Z" fill="#2C8469"/>
<path d="M167.03 76.5756C156.851 57.5962 135.779 56.407 83.7875 57.8341C61.526 58.4524 47.7314 66.3486 39.312 78.5734C81.7421 74.768 124.6 73.5313 167.03 76.5756Z" fill="#CC332F"/>
<path d="M86.9272 69.8199C88.4494 62.3043 113.613 57.833 116.895 68.6783C116.942 68.6783 99.6753 68.6783 86.9272 69.8199Z" fill="#DD689D"/>
<path d="M60.0027 110.015C60.3357 111.061 61.0967 111.918 62.0956 112.441C63.7129 113.345 65.901 113.107 67.328 111.87C68.7551 110.681 69.3259 108.54 68.7075 106.78C68.0891 105.02 66.3291 103.736 64.474 103.688C61.0967 103.593 59.0038 106.971 60.0027 110.015Z" fill="#03036D"/>
<path d="M137.681 110.015C138.014 111.061 138.775 111.918 139.774 112.441C141.391 113.345 143.579 113.107 145.006 111.87C146.433 110.681 147.004 108.54 146.386 106.78C145.767 105.02 144.007 103.736 142.152 103.688C138.775 103.593 136.682 106.971 137.681 110.015Z" fill="#03036D"/>
<path d="M51.8208 90.7026C52.8673 102.357 54.437 98.9317 66.0434 99.455C82.359 100.264 78.6963 89.4658 78.6963 89.4658L51.8208 90.7026Z" fill="#03036D"/>
<path d="M127.026 89.3701C128.881 98.836 132.829 100.025 143.627 99.4544C154.425 98.836 154.948 91.7485 154.948 89.3701H127.026Z" fill="#03036D"/>
<path d="M178.445 138.698C173.736 147.307 121.697 178.512 121.697 178.512C120.936 175.991 111.803 162.481 110.661 163.29C109.52 164.051 110.233 190.927 110.233 190.927C110.233 190.927 98.9121 191.688 97.7705 190.927C96.6289 190.166 96.1533 162.719 96.1533 162.719C93.5371 165.145 83.4052 176.847 83.4052 176.847C80.3609 170.33 27.0854 138.507 27.0854 138.507C32.6984 138.032 55.6734 155.727 101.956 155.727C144.482 155.727 173.878 139.364 178.445 138.698Z" fill="#3CA184"/>
<path d="M106.496 182L100.542 182.685L100.721 184.244L106.675 183.559L106.496 182Z" fill="white"/>
<path d="M100.663 172.072L100.572 173.639L105.32 173.915L105.412 172.348L100.663 172.072Z" fill="white"/>
<path d="M81.0283 132.181C81.8845 137.747 86.451 142.408 91.9212 143.835C97.3439 145.31 103.385 143.74 107.809 140.268C112.233 136.795 115.087 131.515 116.133 125.998C116.894 122.097 116.751 117.768 114.421 114.534C111.471 110.396 105.716 109.111 100.721 110.11C91.3029 111.965 79.3634 121.241 81.0283 132.181Z" fill="#CC332F"/>
<path d="M113.66 113.63C110.568 110.253 105.335 109.207 100.721 110.11C97.2965 110.776 93.5387 112.489 90.209 114.867C98.01 114.534 105.859 114.106 113.66 113.63Z" fill="white"/>
<path d="M81.1216 132.562C82.1681 137.937 86.5918 142.408 91.8718 143.835C97.2945 145.31 103.336 143.74 107.759 140.268C111.041 137.699 113.42 134.132 114.894 130.231C103.573 128.091 91.4437 127.853 81.1216 132.562Z" fill="#FE673C"/>
<path d="M73.5123 179.845V202.439H45.733C45.0195 188.549 43.7827 179.321 43.7827 179.321C43.7827 179.321 69.9923 181.414 73.5123 179.845Z" fill="#FFD939"/>
<path d="M81.9067 91.5514L79.1812 97.1553L80.5928 97.8419L83.3184 92.238L81.9067 91.5514Z" fill="#03036D"/>
<path d="M94.3946 80.8558C98.6757 84.899 104.955 86.7066 110.71 85.6601C108.189 85.0893 106.524 81.9974 107.476 79.5715C116.323 84.4709 127.406 85.1368 136.825 81.379C134.637 81.8547 132.401 80.4753 131.021 78.7153C129.642 76.9553 128.833 74.8148 127.644 72.8645C124.647 67.9175 119.367 64.7305 113.85 63.0656C108.57 61.4483 92.159 57.5002 88.306 63.1132C85.0714 67.7272 91.0649 77.7164 94.3946 80.8558Z" fill="white"/>
</g>
<defs>
<clipPath id="clip0_3_14579">
<path d="M0.446777 99.8961C0.446777 45.0368 44.9191 0.564453 99.7785 0.564453V0.564453C154.638 0.564453 199.11 45.0368 199.11 99.8961V99.8961C199.11 154.756 154.638 199.228 99.7785 199.228V199.228C44.9191 199.228 0.446777 154.756 0.446777 99.8961V99.8961Z" fill="white"/>
</clipPath>
</defs>
</svg>
