<svg width="199" height="200" viewBox="0 0 199 200" fill="none" xmlns="http://www.w3.org/2000/svg">
<g clip-path="url(#clip0_3_14192)">
<rect x="0.000976562" y="0.772461" width="198.663" height="198.663" rx="99.3317" fill="#F86767"/>
<path d="M189.146 148.936C177.037 187.169 141.27 214.876 99.0288 214.876C59.5651 214.876 25.7515 190.694 11.5962 156.336C11.5962 156.336 11.5962 156.336 11.5962 156.33C12.9201 149.637 16.166 143.312 20.9842 137.569C20.0026 133.685 19.4885 129.542 19.4885 125.133C19.4885 88.8474 52.4563 66.0103 101.697 66.6076C142.625 67.1062 174.284 86.6872 171.537 123.752C171.444 125.05 171.454 126.338 171.371 127.616C179.612 133.758 185.765 141.002 189.146 148.936Z" fill="#D6E8ED" stroke="#871C20" stroke-width="0.957654" stroke-miterlimit="10" stroke-linecap="round" stroke-linejoin="round"/>
<path d="M114.466 154.439C114.204 154.44 112.73 154.497 111.654 154.54C110.494 154.585 109.291 154.631 108.612 154.651C107.281 154.689 105.942 154.709 104.635 154.709C103.775 154.709 102.921 154.701 102.075 154.684C101.678 154.683 101.277 154.673 100.885 154.662C100.571 154.656 100.249 154.646 99.9278 154.634C99.4028 154.619 98.8612 154.597 98.3255 154.569C97.718 154.544 97.0775 154.512 96.4437 154.475C95.8158 154.436 95.2257 154.4 94.6415 154.353C94.2058 154.325 93.77 154.289 93.3397 154.252C92.8866 154.219 92.4341 154.175 91.9864 154.132C90.6319 154.004 89.3678 153.866 88.1348 153.71C87.6608 153.652 87.179 153.592 86.7026 153.522C86.1405 153.448 85.5785 153.364 85.0267 153.28C84.9494 153.27 84.874 153.257 84.8004 153.245C84.2067 153.156 83.6273 153.059 83.0479 152.961C82.4422 152.858 81.8425 152.75 81.2427 152.637C80.7328 152.546 80.1953 152.437 79.6578 152.329C79.2837 152.255 78.9066 152.174 78.5302 152.095L78.4428 152.076C78.1124 152.009 77.7575 151.93 77.4013 151.846C76.7477 151.702 76.1043 151.548 75.4669 151.393L74.4889 151.149C74.1316 151.06 73.7635 150.962 73.3954 150.862C73.0745 150.778 72.7358 150.689 72.4018 150.595C71.9661 150.472 71.5291 150.348 71.0916 150.218C70.6092 150.082 70.0914 149.922 69.5785 149.762L69.2858 149.67C68.9614 149.568 68.6394 149.467 68.321 149.36C67.978 149.252 67.644 149.139 67.3059 149.022C67.2514 149.004 67.0198 148.926 67.0198 148.926C66.6487 148.802 66.283 148.673 65.9173 148.538C65.0913 148.247 64.2803 147.944 63.4393 147.613C63.0054 147.446 62.5439 147.257 62.0884 147.068C62.0884 147.068 61.9041 146.995 61.8335 146.964C61.4869 146.823 61.1451 146.678 60.8034 146.527C59.2316 145.849 57.6922 145.127 56.2581 144.394C56.0546 144.293 55.8224 144.17 55.5962 144.048C55.4118 143.952 55.1832 143.832 54.9599 143.712C54.6355 143.542 54.2908 143.352 53.9454 143.157C53.53 142.926 53.0931 142.675 52.6615 142.424C52.3156 142.223 51.9648 142.019 51.6261 141.81L50.8474 141.325L50.6068 141.172C50.4619 141.081 50.3177 140.99 50.1758 140.896C49.4187 140.406 48.6609 139.891 47.9439 139.38C47.7147 139.22 47.4854 139.056 47.2568 138.885L47.0545 138.737C46.9078 138.629 46.7624 138.522 46.6187 138.412C46.3997 138.249 46.1555 138.063 45.9161 137.871C45.0967 137.233 44.3228 136.595 43.6159 135.974C43.3986 135.787 43.1646 135.576 42.9312 135.366C41.8963 134.427 40.9255 133.467 40.0379 132.507C39.8912 132.349 39.7404 132.186 39.5902 132.019L39.4489 131.858C39.0886 131.456 38.7546 131.066 38.4601 130.703C38.1381 130.313 37.8017 129.887 37.4815 129.46C37.3708 129.32 37.2224 129.127 37.0697 128.905C37.0015 128.814 36.7603 128.479 36.7603 128.479C36.3952 127.963 36.0762 127.487 35.7853 127.022C35.7853 127.022 35.629 126.773 35.5901 126.71L35.5135 126.631L35.3011 126.234C32.0313 120.74 30.833 115.028 31.835 109.709C36.3042 85.8891 57.0907 75.2651 99.2329 75.2651C99.9984 75.2651 100.765 75.2681 101.544 75.2753C137.364 75.5848 164.622 91.0054 166.355 111.941C166.791 117.156 166.078 122.157 164.238 126.805C161.489 133.773 156.33 139.705 148.905 144.432C148.905 144.432 148.441 144.726 148.295 144.815C147.922 145.048 147.503 145.294 147.085 145.54C144.6 146.986 142.489 148.559 140.799 150.221C140.496 150.524 140.185 150.843 139.887 151.168L139.775 151.294C139.681 151.399 139.587 151.503 139.497 151.611C139.285 151.862 139.077 152.119 138.856 152.404L138.717 152.589C138.469 152.92 138.255 153.223 138.065 153.516C137.956 153.68 137.875 153.813 137.793 153.951C137.576 154.311 137.411 154.605 137.276 154.872C136.143 157.088 132.487 161.935 132.487 161.935C132.487 161.935 121.336 154.439 114.466 154.439Z" stroke="#F3F8FA" stroke-width="0.957654" stroke-miterlimit="10" stroke-linecap="round" stroke-linejoin="round"/>
<path d="M160.86 125.465C158.539 131.348 154.073 136.831 146.954 141.364C146.772 141.478 146.585 141.597 146.398 141.712C146.024 141.945 145.635 142.174 145.246 142.402C142.426 144.044 140.105 145.803 138.251 147.626C137.883 147.995 137.529 148.358 137.192 148.727C137.025 148.914 136.86 149.096 136.704 149.283C136.392 149.651 136.096 150.025 135.811 150.399C135.806 150.404 135.811 150.404 135.811 150.404C135.53 150.778 135.266 151.152 135.022 151.526C134.897 151.713 134.783 151.9 134.668 152.092C134.44 152.471 134.227 152.845 134.035 153.224C132.514 156.199 132.046 159.175 132.488 161.932L132.447 161.937C130.469 155.545 123.168 150.805 114.465 150.805C113.909 150.805 109.973 150.976 108.509 151.018C106.333 151.08 104.199 151.091 102.112 151.049C101.727 151.049 101.338 151.039 100.959 151.028C100.658 151.023 100.357 151.012 100.055 151.002C99.5363 150.987 99.0221 150.966 98.5128 150.94C97.8897 150.914 97.272 150.883 96.6591 150.847C96.0672 150.81 95.4806 150.774 94.8988 150.727C94.4733 150.701 94.0471 150.665 93.6269 150.628C93.196 150.597 92.765 150.555 92.3389 150.514C91.067 150.394 89.8203 150.259 88.5897 150.104C88.1222 150.047 87.6602 149.989 87.2035 149.922C86.648 149.849 86.092 149.766 85.5467 149.683C85.4689 149.673 85.3959 149.657 85.3235 149.646C84.7626 149.563 84.2072 149.47 83.6518 149.377C83.07 149.278 82.4936 149.174 81.9172 149.065C81.3977 148.971 80.8835 148.867 80.37 148.764C79.9756 148.686 79.5859 148.603 79.1963 148.519C78.8641 148.452 78.5367 148.379 78.2099 148.302C77.5713 148.162 76.9428 148.011 76.3197 147.86C76.0079 147.783 75.6913 147.705 75.3848 147.627C75.0317 147.538 74.6839 147.445 74.3362 147.352C74.0196 147.269 73.7029 147.185 73.3911 147.097C72.9656 146.978 72.5448 146.859 72.124 146.734C71.6308 146.594 71.1424 146.443 70.6594 146.293C70.2494 146.163 69.8442 146.039 69.4444 145.903C69.1122 145.8 68.7902 145.69 68.4628 145.576C68.364 145.545 68.2653 145.508 68.1665 145.477C67.8235 145.363 67.486 145.244 67.149 145.119C66.3392 144.833 65.5497 144.537 64.771 144.23C64.3401 144.064 63.9091 143.887 63.4836 143.711C63.3956 143.674 63.3124 143.643 63.2292 143.607C62.9072 143.477 62.5906 143.342 62.2739 143.201C60.7579 142.547 59.304 141.867 57.9124 141.156C57.7149 141.057 57.518 140.953 57.3259 140.849C57.108 140.735 56.8895 140.621 56.677 140.506C56.3604 140.34 56.0486 140.169 55.7373 139.992C55.3166 139.759 54.9012 139.52 54.4912 139.28C54.1692 139.094 53.8472 138.906 53.5359 138.714C53.2816 138.553 53.0272 138.398 52.7776 138.242C52.5753 138.112 52.3724 137.988 52.1755 137.858C51.4381 137.38 50.727 136.897 50.0363 136.404C49.834 136.264 49.6311 136.118 49.4288 135.968C49.2265 135.817 49.0236 135.671 48.8267 135.521C48.6034 135.355 48.3856 135.189 48.1725 135.018C47.4249 134.436 46.7031 133.844 46.0178 133.242C45.7945 133.05 45.5814 132.858 45.3689 132.665C44.4185 131.804 43.5308 130.926 42.7103 130.038C42.5702 129.887 42.4349 129.742 42.3003 129.591C42.2637 129.55 42.2278 129.508 42.1913 129.467C41.8795 129.119 41.5736 128.766 41.2875 128.413C40.9655 128.023 40.6591 127.634 40.3634 127.239C40.2443 127.088 40.13 126.938 40.0258 126.782C39.9223 126.647 39.8283 126.512 39.7295 126.377C39.4285 125.951 39.1376 125.52 38.8677 125.089C38.7378 124.882 38.6079 124.679 38.4888 124.472C38.4786 124.461 38.4732 124.451 38.4678 124.44C35.638 119.715 34.563 114.87 35.4093 110.379C39.5943 88.0717 59.617 78.5437 101.516 78.907C136.342 79.208 161.23 94.0589 162.736 112.238C163.108 116.72 162.547 121.201 160.86 125.465Z" fill="#7575C6" stroke="#871C20" stroke-width="0.957654" stroke-miterlimit="10" stroke-linecap="round" stroke-linejoin="round"/>
<path d="M160.859 125.465C158.538 131.348 154.072 136.831 146.953 141.364C146.771 141.478 146.585 141.597 146.398 141.712C146.024 141.945 145.635 142.174 145.245 142.402C142.425 144.044 140.104 145.803 138.251 147.626C137.877 147.99 137.524 148.358 137.191 148.727C137.025 148.914 136.859 149.096 136.703 149.283C136.387 149.651 136.091 150.025 135.81 150.399C135.805 150.404 135.81 150.404 135.81 150.404C135.525 150.778 135.265 151.152 135.021 151.526C134.897 151.713 134.782 151.9 134.668 152.092C134.439 152.466 134.227 152.845 134.035 153.224C132.513 156.199 132.046 159.175 132.487 161.932L132.446 161.937C130.468 155.545 123.167 150.805 114.464 150.805C113.909 150.805 109.973 150.976 108.508 151.018C106.333 151.08 104.198 151.091 102.111 151.049C101.727 151.049 101.337 151.039 100.958 151.028C100.657 151.023 100.356 151.012 100.055 151.002C99.5357 150.987 99.0216 150.966 98.5122 150.94C97.8892 150.914 97.2715 150.883 96.6586 150.847C96.0666 150.81 95.4801 150.774 94.8983 150.727C94.4727 150.701 94.0466 150.665 93.6264 150.628C93.1955 150.597 92.7645 150.555 92.3383 150.514C91.0665 150.394 89.8197 150.259 88.5891 150.104C88.1217 150.047 87.6596 149.989 87.2029 149.922C86.6475 149.849 86.0915 149.766 85.5462 149.683C85.4684 149.673 85.3953 149.657 85.3229 149.646C84.7621 149.563 84.2067 149.47 83.6512 149.377C83.0694 149.278 82.4931 149.174 81.9167 149.065C81.3972 148.971 80.883 148.867 80.3695 148.764C79.975 148.686 79.5854 148.603 79.1957 148.519C78.8635 148.452 78.5362 148.379 78.2094 148.302C77.5707 148.162 76.9422 148.011 76.3192 147.86C76.0073 147.783 75.6907 147.705 75.3843 147.627C75.0311 147.538 74.6834 147.445 74.3356 147.352C74.019 147.269 73.7024 147.185 73.3906 147.097C72.965 146.978 72.5442 146.858 72.1235 146.734C71.6303 146.594 71.1419 146.443 70.6588 146.293C70.2488 146.163 69.8436 146.039 69.4438 145.903C69.1116 145.8 68.7896 145.69 68.4622 145.576C68.3635 145.545 68.2647 145.508 68.166 145.477C67.823 145.363 67.4854 145.244 67.1484 145.119C66.3386 144.833 65.5492 144.537 64.7705 144.23C64.3395 144.064 63.9086 143.887 63.483 143.711C63.395 143.674 63.3118 143.643 63.2286 143.607C62.9066 143.477 62.59 143.342 62.2734 143.201C60.7573 142.547 59.3035 141.867 57.9119 141.156C57.7143 141.057 57.5174 140.953 57.3253 140.849C57.1074 140.735 56.889 140.621 56.6765 140.506C56.3599 140.34 56.048 140.169 55.7368 139.992C55.316 139.759 54.9006 139.52 54.4906 139.28C54.1686 139.094 53.8466 138.906 53.5354 138.714C53.281 138.553 53.0266 138.398 52.777 138.242C52.5747 138.112 52.3718 137.988 52.1749 137.858C51.4375 137.38 50.7265 136.897 50.0358 136.404C49.8334 136.264 49.6306 136.118 49.4283 135.968C49.2259 135.817 49.023 135.671 48.8261 135.521C48.6029 135.355 48.385 135.189 48.1719 135.018C47.4244 134.436 46.7025 133.844 46.0172 133.242C45.7939 133.05 45.5809 132.858 45.3684 132.665C44.4179 131.804 43.5303 130.926 42.7097 130.038C42.5696 129.887 42.4344 129.742 42.2997 129.591C42.2632 129.55 42.2273 129.508 42.1908 129.467C41.8789 129.114 41.5779 128.766 41.287 128.413C40.965 128.023 40.6585 127.634 40.3629 127.239C40.2437 127.088 40.1294 126.938 40.0253 126.782C39.9217 126.647 39.8278 126.512 39.729 126.377C39.4279 125.946 39.137 125.52 38.8671 125.089C38.7372 124.882 38.6073 124.679 38.4882 124.472C38.4781 124.461 38.4727 124.451 38.4673 124.44C50.6492 113.931 73.2367 106.874 99.0958 106.874C125.778 106.875 148.984 114.394 160.859 125.465Z" fill="url(#paint0_linear_3_14192)" stroke="#871C20" stroke-width="0.957654" stroke-miterlimit="10" stroke-linecap="round" stroke-linejoin="round"/>
<path d="M20.9768 137.569C19.994 133.687 19.4883 129.542 19.4883 125.134C19.4883 88.8494 52.4573 66.0117 101.696 66.6096C142.625 67.107 173.569 85.6095 171.539 123.751C169.93 153.98 154.722 176.031 114.036 179.54C93.7065 181.294 75.7104 178.431 61.0948 173.933" stroke="#871C20" stroke-width="0.957654" stroke-miterlimit="10" stroke-linecap="round" stroke-linejoin="round"/>
<path d="M28.3282 130.253C28.3282 130.253 18.7397 138.269 15.042 146.462" stroke="#871C20" stroke-width="0.957654" stroke-miterlimit="10" stroke-linecap="round" stroke-linejoin="round"/>
<path d="M120.071 164.383C120.071 166.44 118.404 168.108 116.347 168.108C114.29 168.108 112.622 166.44 112.622 164.383C112.622 162.326 114.29 160.658 116.347 160.658C118.403 160.658 120.071 162.326 120.071 164.383Z" fill="#871C20" stroke="#871C20" stroke-width="0.957654" stroke-miterlimit="10" stroke-linecap="round" stroke-linejoin="round"/>
<path d="M147.438 159.868C149.571 159.868 151.3 158.139 151.3 156.006C151.3 153.873 149.571 152.144 147.438 152.144C145.304 152.144 143.575 153.873 143.575 156.006C143.575 158.139 145.304 159.868 147.438 159.868Z" fill="#871C20" stroke="#871C20" stroke-width="0.957654" stroke-miterlimit="10" stroke-linecap="round" stroke-linejoin="round"/>
<path d="M118.866 199.394C118.18 199.394 117.496 199.124 116.986 198.588C110.799 192.09 108.307 183.865 109.781 174.805C110.872 168.092 113.763 163.293 113.886 163.093C114.632 161.869 116.229 161.481 117.454 162.227C118.677 162.972 119.065 164.567 118.322 165.791C117.916 166.465 108.613 182.264 120.746 195.008C121.735 196.047 121.695 197.69 120.657 198.678C120.154 199.157 119.509 199.394 118.866 199.394Z" fill="#7575C6" stroke="#871C20" stroke-width="0.957654" stroke-miterlimit="10" stroke-linecap="round" stroke-linejoin="round"/>
<path d="M157.949 185.779C157.746 185.779 157.54 185.755 157.334 185.704C155.941 185.366 155.085 183.962 155.424 182.569C159.672 165.082 146.975 158.608 146.432 158.341C145.15 157.71 144.613 156.159 145.238 154.874C145.864 153.588 147.404 153.048 148.692 153.666C148.871 153.752 153.113 155.825 156.652 160.595C159.902 164.974 163.201 172.552 160.47 183.795C160.181 184.982 159.119 185.779 157.949 185.779Z" fill="#7575C6" stroke="#871C20" stroke-width="0.957654" stroke-miterlimit="10" stroke-linecap="round" stroke-linejoin="round"/>
<path d="M164.228 67.8495C164.942 74.7285 160.31 80.8455 153.883 81.5117C147.457 82.1778 141.669 77.1418 140.955 70.2622C140.242 63.3833 144.874 57.2662 151.3 56.6001C157.727 55.9345 163.515 60.9706 164.228 67.8495Z" fill="#FCD9C4"/>
<path d="M142.093 63.3563C143.804 59.6897 147.184 57.0274 151.3 56.6007C157.726 55.9345 163.514 60.9706 164.228 67.8495C164.941 74.7285 160.309 80.8455 153.883 81.5117C151.889 81.7181 149.957 81.3764 148.219 80.6007" stroke="#871C20" stroke-width="0.957654" stroke-miterlimit="10" stroke-linecap="round" stroke-linejoin="round"/>
<path d="M143.402 117.459C147.133 129.201 134.048 139.621 114.872 143.01C94.1079 146.678 67.4181 138.357 62.6346 125.889C57.1951 111.71 84.8073 100.278 106.802 99.1652C127.854 98.1004 139.798 106.116 143.402 117.459Z" fill="#FABAAF" stroke="#871C20" stroke-width="0.957654" stroke-miterlimit="10" stroke-linecap="round" stroke-linejoin="round"/>
<path d="M45.2587 88.8259C44.6464 119.029 69.4 137.663 100.545 137.663C131.689 137.663 158.045 119.035 158.045 88.8259C158.045 58.6167 131.69 29.9463 100.545 29.9463C69.4 29.9463 45.7674 63.715 45.2587 88.8259Z" fill="url(#paint1_linear_3_14192)"/>
<path d="M81.9372 52.0409C77.5601 53.6036 63.5149 64.1079 69.9252 83.4765C70.4585 85.0883 69.2399 86.7774 67.5927 87.1892C65.6188 87.683 63.7112 86.2148 63.6568 84.1803C63.5431 79.929 62.6297 73.296 58.4304 69.2762C51.8722 62.9982 47.1821 66.596 47.1821 66.596L61.6822 52.7196C61.681 52.7196 86.2143 50.514 81.9372 52.0409Z" fill="#871C20" stroke="#871C20" stroke-width="0.957654" stroke-miterlimit="10" stroke-linecap="round" stroke-linejoin="round"/>
<path d="M131.914 92.4704C131.379 96.1263 127.423 101.215 119.815 102.04C111.694 102.695 106.735 97.8393 105.946 94.2517C105.665 92.9792 105.91 91.8629 106.725 91.2141C109.586 88.5818 115.527 90.4348 119.38 90.0661C123.232 89.7028 127.334 86.8993 130.642 88.9451C131.722 89.5107 132.153 90.8508 131.914 92.4704Z" fill="white" stroke="#871C20" stroke-width="0.957654" stroke-miterlimit="10" stroke-linecap="round" stroke-linejoin="round"/>
<path d="M119.272 50.7021C121.735 53.165 124.841 54.0526 126.21 52.6838C127.579 51.315 126.692 48.2086 124.229 45.7456C121.766 43.2826 118.659 42.395 117.29 43.7638C115.921 45.1327 116.809 48.2391 119.272 50.7021Z" fill="#871C20" stroke="#871C20" stroke-width="0.957654" stroke-miterlimit="10" stroke-linecap="round" stroke-linejoin="round"/>
<path d="M111.009 45.9086C108.707 48.5236 108.02 51.6796 109.473 52.9587C110.926 54.2378 113.97 53.1544 116.271 50.5394C118.572 47.9245 119.26 44.7684 117.807 43.4893C116.354 42.2103 113.31 43.2936 111.009 45.9086Z" fill="#871C20" stroke="#871C20" stroke-width="0.957654" stroke-miterlimit="10" stroke-linecap="round" stroke-linejoin="round"/>
<path d="M45.2587 88.8259C44.6464 119.029 69.4 137.663 100.545 137.663C131.689 137.663 158.045 119.035 158.045 88.8259C158.045 58.6167 131.69 29.9463 100.545 29.9463C69.4 29.9463 45.7674 63.715 45.2587 88.8259Z" stroke="#871C20" stroke-width="0.957654" stroke-miterlimit="10" stroke-linecap="round" stroke-linejoin="round"/>
<path d="M48.2583 49.7272C47.7908 51.3002 47.4353 52.906 47.1821 54.5311C77.6846 52.8875 126.225 42.5334 135.161 31.8885C110.114 5.8014 57.338 16.5978 48.2583 49.7272Z" fill="#9090DD" stroke="#871C20" stroke-width="0.957654" stroke-miterlimit="10" stroke-linecap="round" stroke-linejoin="round"/>
<path d="M40.7125 66.4926C42.1184 70.6476 44.4611 76.9388 49.3541 78.6949C50.3974 75.1941 51.2664 73.4057 52.7292 70.3083C59.5818 53.1052 119.374 39.0265 139.861 49.186C142.43 50.4597 144.953 52.4073 147.343 55.6334C150.163 52.5581 149.441 47.3174 148.208 41.6558C146.791 35.1474 142.745 32.7922 141.596 32.2122C118.611 20.6078 60.8519 36.0099 43.8889 51.1091C38.5248 56.0566 39.3179 62.3687 40.7125 66.4926Z" fill="#9090DD" stroke="#871C20" stroke-width="0.957654" stroke-miterlimit="10" stroke-linecap="round" stroke-linejoin="round"/>
<path d="M50.8127 91.4191C58.0522 90.2404 62.9654 83.4161 61.7867 76.1767C60.608 68.9372 53.7837 64.024 46.5442 65.2027C39.3048 66.3814 34.3916 73.2057 35.5703 80.4451C36.749 87.6846 43.5733 92.5978 50.8127 91.4191Z" fill="#FBCDBC"/>
<path d="M59.8747 71.1405C57.5135 67.4595 53.386 65.0205 48.6881 65.0205C41.3537 65.0205 35.4072 70.9663 35.4072 78.3014C35.4072 85.6364 41.3531 91.5822 48.6881 91.5822C50.9631 91.5822 53.1047 91.01 54.9763 90.0021" stroke="#871C20" stroke-width="0.957654" stroke-miterlimit="10" stroke-linecap="round" stroke-linejoin="round"/>
<path d="M49.2489 86.8943C50.2892 86.8943 51.2857 86.695 52.1931 86.3299C55.1487 85.1568 57.2405 82.2784 57.2405 78.9027C57.2405 77.1867 56.6983 75.5928 55.7574 74.2868C54.3185 72.25 51.9387 70.9219 49.2489 70.9219C47.4815 70.9219 45.8486 71.4947 44.5259 72.4643" stroke="#871C20" stroke-width="0.957654" stroke-miterlimit="10" stroke-linecap="round" stroke-linejoin="round"/>
<path d="M50.7183 81.7026C50.7183 83.418 51.2605 85.0232 52.1906 86.3292C55.1462 85.1561 57.2381 82.2778 57.2381 78.902C57.2381 77.186 56.6958 75.5921 55.7549 74.2861C52.7988 75.4491 50.7183 78.3269 50.7183 81.7026Z" fill="#871C20" stroke="#871C20" stroke-width="0.957654" stroke-miterlimit="10" stroke-linecap="round" stroke-linejoin="round"/>
<path d="M129.198 69.4565C131.366 72.3953 131.625 76.0374 129.896 79.254" stroke="#871C20" stroke-width="9.57654" stroke-miterlimit="10" stroke-linecap="round" stroke-linejoin="round"/>
<path d="M100.933 71.6553C103.1 74.5941 103.36 78.2361 101.63 81.4527" stroke="#871C20" stroke-width="9.57654" stroke-miterlimit="10" stroke-linecap="round" stroke-linejoin="round"/>
<path d="M128.188 88.205C128.188 88.205 131.082 86.188 132.032 85.4967C134.974 83.3569 136.533 80.5552 135.187 77.4667C133.841 74.3783 130.245 72.9657 127.157 74.3119L119.617 77.4045" fill="#FBD5BE"/>
<path d="M128.188 88.205C128.188 88.205 131.082 86.188 132.032 85.4967C134.974 83.3569 136.533 80.5552 135.187 77.4667C133.841 74.3783 130.245 72.9657 127.157 74.3119L119.617 77.4045" stroke="#871C20" stroke-width="0.957654" stroke-miterlimit="10" stroke-linecap="round" stroke-linejoin="round"/>
<path d="M89.6312 94.3181C92.5837 95.7144 95.7919 95.1237 96.7974 92.9989C97.803 90.8735 96.2246 88.0185 93.272 86.6221C90.3195 85.2257 87.1113 85.8165 86.1058 87.9413C85.1003 90.0667 86.6786 92.9217 89.6312 94.3181Z" fill="#FABAAF"/>
<path d="M143.955 85.9386C142.029 87.1147 139.732 86.8627 138.823 85.376C137.915 83.8886 138.738 81.7291 140.664 80.553C142.589 79.3763 144.886 79.6283 145.795 81.1156C146.704 82.6024 145.879 84.7619 143.955 85.9386Z" fill="#FABAAF"/>
<path d="M133.263 63.1516C131.056 58.2101 123.976 58.404 122.043 63.4586" stroke="#871C20" stroke-width="0.957654" stroke-miterlimit="10" stroke-linecap="round" stroke-linejoin="round"/>
<path d="M107.171 64.6003C104.963 59.6588 97.8839 59.8527 95.9507 64.9073" stroke="#871C20" stroke-width="0.957654" stroke-miterlimit="10" stroke-linecap="round" stroke-linejoin="round"/>
<path d="M124.749 88.7266C125.212 89.1503 128.052 93.5023 125.511 100.389" stroke="#871C20" stroke-width="0.957654" stroke-miterlimit="10" stroke-linecap="round" stroke-linejoin="round"/>
<path d="M119.707 90.0273C119.707 90.0273 122.684 95.0287 119.102 102.067" stroke="#871C20" stroke-width="0.957654" stroke-miterlimit="10" stroke-linecap="round" stroke-linejoin="round"/>
<path d="M113.427 89.8286C113.427 89.8286 115.339 95.8876 112.816 100.87" stroke="#871C20" stroke-width="0.957654" stroke-miterlimit="10" stroke-linecap="round" stroke-linejoin="round"/>
</g>
<defs>
<linearGradient id="paint0_linear_3_14192" x1="42.8308" y1="161.073" x2="154.315" y2="111.229" gradientUnits="userSpaceOnUse">
<stop offset="0.1031" stop-color="#D6E8ED"/>
<stop offset="0.1854" stop-color="#DEECF0"/>
<stop offset="0.4424" stop-color="#F0F7F9"/>
<stop offset="0.7094" stop-color="#FBFDFD"/>
<stop offset="1" stop-color="white"/>
</linearGradient>
<linearGradient id="paint1_linear_3_14192" x1="43.5853" y1="133.844" x2="179.62" y2="22.2401" gradientUnits="userSpaceOnUse">
<stop stop-color="#F79292"/>
<stop offset="0.0345" stop-color="#F8A09C"/>
<stop offset="0.1011" stop-color="#F9B6AC"/>
<stop offset="0.1748" stop-color="#FAC5B7"/>
<stop offset="0.2603" stop-color="#FBCEBD"/>
<stop offset="0.385" stop-color="#FBD1BF"/>
<stop offset="0.4315" stop-color="#FBD2C0"/>
<stop offset="0.8047" stop-color="#FCDAC5"/>
</linearGradient>
<clipPath id="clip0_3_14192">
<rect x="0.000976562" y="0.772461" width="198.663" height="198.663" rx="99.3317" fill="white"/>
</clipPath>
</defs>
</svg>
