<svg width="200" height="200" viewBox="0 0 200 200" fill="none" xmlns="http://www.w3.org/2000/svg">
<g clip-path="url(#clip0_3_14229)">
<rect x="0.579102" y="0.772461" width="198.663" height="198.663" rx="99.3317" fill="#849BD6"/>
<path d="M172.361 148.889C178.681 143.793 180.14 135.383 179.33 126.629C177.533 107.231 153.068 85.102 100.3 85.1691C39.1039 85.2469 21.2714 104.555 21.2714 124.035C21.2714 127.953 21.879 131.6 24.3515 135.221C8.54535 145.677 -2.25037 161.504 -6.87012 177.239L199.023 199.772C197.411 179.947 187.903 162.45 172.361 148.889Z" fill="url(#paint0_linear_3_14229)" stroke="#871C20" stroke-width="1.32442" stroke-miterlimit="10" stroke-linecap="round" stroke-linejoin="round"/>
<path d="M163.579 119.252C164.079 105.207 139.056 93.1086 107.927 92.2378C76.7983 91.367 59.0171 135.659 59.0171 135.659C59.0171 135.659 76.5044 147.49 81.2516 162.781C87.296 150.785 113.836 142.196 117.722 140.591C117.722 140.59 162.793 141.26 163.579 119.252Z" fill="#871C20" stroke="#871C20" stroke-width="1.32442" stroke-miterlimit="10" stroke-linecap="round" stroke-linejoin="round"/>
<path d="M165.559 143.477C185.121 157.639 197.188 177.198 199.023 199.773L-6.87012 177.24C-1.65024 159.463 9.83663 144.323 26.2818 134.006" stroke="#871C20" stroke-width="1.32442" stroke-miterlimit="10" stroke-linecap="round" stroke-linejoin="round"/>
<path d="M157.283 106.771C158.441 107.227 159.648 107.945 160.826 108.88" stroke="#65BA64" stroke-width="1.32442"/>
<path d="M163.847 111.861C167.13 115.825 169.484 121.473 168.629 127.503C167.445 135.865 158.417 139.558 146.646 142.138C132.951 145.138 127.692 146.448 110.756 151.028C96.8449 154.79 88.636 161.519 84.3755 166.144" stroke="#65BA64" stroke-width="1.32442" stroke-dasharray="13.61 6.81"/>
<path d="M82.9802 167.746C81.3106 169.776 80.588 171.115 80.588 171.115C80.588 171.115 79.9829 169.705 78.7959 167.386" stroke="#65BA64" stroke-width="1.32442"/>
<path d="M77.0792 164.172C75.5983 161.51 73.6572 158.278 71.2716 154.836C67.1584 148.901 58.0174 138.409 49.8838 132.631" stroke="#65BA64" stroke-width="1.32442" stroke-dasharray="11.67 5.83"/>
<path d="M48.3713 131.607C47.123 130.801 45.9087 130.125 44.7515 129.613" stroke="#65BA64" stroke-width="1.32442"/>
<path d="M112.135 142.698C102.911 146.239 85.931 153.491 81.2508 162.782C76.5028 147.487 59.0171 135.657 59.0171 135.657C59.0171 135.657 59.5353 134.361 60.5518 132.212C66.2211 127.621 73.8961 124.804 82.355 124.804C96.1232 124.804 107.823 132.274 112.135 142.698Z" fill="#FFD3C0" stroke="#871C20" stroke-width="1.32442"/>
<path d="M63.5862 131.029C59.8547 131.655 47.372 133.033 39.6101 126.629C29.287 118.113 38.9429 112.688 38.6184 97.9619C38.6764 100.6 41.4924 101.438 42.8739 102.685C51.4661 110.442 51.4611 124.964 63.5862 131.029Z" fill="#FFD67B" stroke="#871C20" stroke-width="1.32442" stroke-miterlimit="10" stroke-linecap="round" stroke-linejoin="round"/>
<path d="M49.742 77.8576L49.7428 77.8708C45.0593 85.6783 42.5123 94.7887 42.889 103.863C35.9656 101.41 32.1926 92.9146 33.0121 85.9647C33.9673 77.7003 42.639 72.7172 49.742 77.8576Z" fill="#FFD3C0" stroke="#871C20" stroke-width="1.32442" stroke-miterlimit="10" stroke-linecap="round" stroke-linejoin="round"/>
<path d="M39.6089 82.1574C41.9357 80.9116 44.9703 81.7782 46.8833 83.4006" stroke="#871C20" stroke-width="1.32442" stroke-miterlimit="10" stroke-linecap="round" stroke-linejoin="round"/>
<path d="M153.855 135.865C151.811 141.096 146.861 143.149 141.513 142.437C136.77 142.247 129.18 138.778 125.099 141.22C143.541 130.186 147.341 110.187 142.763 92.0595C145.023 92.2747 147.606 91.0082 148.069 87.6061C148.756 82.565 148.557 77.5901 147.581 72.8057C156.951 92.4485 161.76 115.138 153.855 135.865Z" fill="#FFD67B" stroke="#871C20" stroke-width="1.32442" stroke-miterlimit="10" stroke-linecap="round" stroke-linejoin="round"/>
<path d="M144.582 110.917C143.678 131.405 127.789 145.759 101.056 147.425C68.3011 149.467 39.2582 134.083 43.1247 97.1933C46.1618 69.546 74.7031 46.8172 102.437 54.1032C129.742 60.2336 146.366 83.1743 144.582 110.914C144.582 110.915 144.582 110.916 144.582 110.917Z" fill="#FFD3C0" stroke="#871C20" stroke-width="1.32442"/>
<path d="M148.071 87.6063C147.607 91.0084 145.025 92.2749 142.765 92.0597C142.492 90.9836 142.194 89.9158 141.863 88.8562C140.969 88.79 140.066 88.848 139.189 89.0218C137.178 89.4109 135.282 90.3793 133.734 91.7203C133.693 91.7948 133.651 91.861 133.577 91.919L133.535 91.8941C133.179 92.2252 132.832 92.5729 132.559 92.9702V92.9537C132.343 91.5465 131.102 90.7932 129.868 90.3462C128.908 89.924 127.965 89.4688 127.021 89.0052C123.23 87.1262 119.588 84.9492 116.128 82.5238C105.499 74.9912 96.3274 65.2401 89.8129 53.9412C80.244 65.9106 66.263 75.4133 50.6348 76.4232L49.7408 77.8553C47.4314 76.1335 45.7759 76.0176 44.3687 75.8024C44.3687 71.109 48.6399 60.2487 54.6743 54.1481H54.6826C54.7157 54.1067 54.7571 54.0736 54.7985 54.0322C57.1328 51.7145 59.6989 49.7361 62.4388 48.0723C62.4553 48.064 62.4719 48.0558 62.4884 48.0475C73.1335 41.6075 86.4025 39.8692 98.7114 41.2763C109.712 42.4932 120.291 46.4581 129.868 51.8966C134.38 54.5206 139.164 57.2025 141.772 61.9125C143.833 65.4057 145.795 69.0478 147.583 72.8059C148.559 77.5904 148.758 82.5652 148.071 87.6063Z" fill="#FFD67B" stroke="#871C20" stroke-width="1.32442" stroke-miterlimit="10" stroke-linecap="round" stroke-linejoin="round"/>
<path d="M92.9038 52.561C92.9038 52.561 104.712 75.0307 129.701 86.4257" stroke="#EDA53E" stroke-width="1.32442" stroke-linecap="round" stroke-linejoin="round"/>
<path d="M110.054 67.9634C115.592 73.7288 123.045 79.9411 132.494 84.6163" stroke="#EDA53E" stroke-width="1.32442" stroke-linecap="round" stroke-linejoin="round"/>
<path d="M89.8101 53.9367C89.8101 53.9367 92.7627 39.008 107.204 42.7603" stroke="#871C20" stroke-width="1.32442" stroke-miterlimit="10"/>
<path d="M54.6834 54.152C63.2789 44.9059 78.6894 40.6859 93.2564 41.6834C119.876 43.5069 138.113 62.596 139.172 88.8717C139.336 92.907 147.219 93.8176 148.067 87.6094C151.731 60.7716 130.358 35.7359 99.2941 32.5548C84.7958 31.0698 61.1515 34.0241 54.6768 54.147L54.6834 54.152Z" fill="#F4736C" stroke="#871C20" stroke-width="1.32442" stroke-miterlimit="10" stroke-linecap="round" stroke-linejoin="round"/>
<path d="M152.931 100.738C151.067 110.002 140.2 116.786 131.921 110.386C123.568 103.994 126.209 91.7582 134.579 86.665C144.015 80.6629 155.042 90.572 152.931 100.738Z" fill="#FFD3C0"/>
<path d="M137.622 112.808C147.456 114.229 155.926 102.624 152.336 93.5595C150.364 87.8389 144.098 83.7464 138.034 85.0062C134.28 85.714 131.385 88.6261 129.411 91.7352" stroke="#871C20" stroke-width="1.32442"/>
<path d="M149.531 101.552C151.112 94.3996 144.088 88.4645 137.611 92.4651C134.729 94.5411 133.751 98.7553 135.342 101.912C136.267 103.738 137.518 105.702 139.584 106.331" stroke="#871C20" stroke-width="1.32442"/>
<path d="M136.895 104.398C133.153 100.96 133.963 95.1097 137.963 92.2324C139.834 96.1097 139.147 100.817 136.895 104.398Z" fill="#871C20" stroke="#871C20" stroke-width="1.32442" stroke-miterlimit="10" stroke-linecap="round" stroke-linejoin="round"/>
<path d="M70.1966 96.727C69.9772 96.7146 69.7595 96.6782 69.5493 96.6203C69.3382 96.5623 69.1345 96.4828 68.9417 96.386C68.7488 96.2891 68.5667 96.1741 68.3978 96.045C68.229 95.9158 68.0734 95.7718 67.9326 95.617C67.7919 95.4622 67.6661 95.2967 67.556 95.1237C67.4095 94.8919 67.2911 94.6468 67.1761 94.401C67.032 94.0931 66.893 93.7843 66.768 93.4706C66.6182 93.094 66.4882 92.7099 66.3756 92.3217C66.263 91.9335 66.1678 91.5411 66.0917 91.1463C66.0155 90.7506 65.9592 90.3524 65.922 89.9526C65.8847 89.5528 65.8682 89.1513 65.8715 88.7499C65.8748 88.3484 65.8988 87.9469 65.9435 87.5479C65.9882 87.149 66.0536 86.7516 66.1405 86.3584C66.2275 85.9652 66.335 85.5762 66.4633 85.1921C66.5916 84.808 66.7398 84.4298 66.912 84.0614C67.0834 83.6931 67.2787 83.3338 67.4832 82.9779C67.6537 82.6815 67.8308 82.3877 68.0477 82.1187C68.2215 81.9035 68.421 81.7039 68.6503 81.5384C68.8225 81.4142 69.0121 81.3091 69.2124 81.2263C69.4127 81.1436 69.6254 81.0831 69.8431 81.0475C70.0608 81.0119 70.2843 81.0012 70.5062 81.0153C70.728 81.0293 70.9482 81.0674 71.1617 81.1278C71.3753 81.1882 71.5806 81.271 71.7751 81.372C71.9697 81.473 72.1526 81.5922 72.3222 81.7255C72.4919 81.8587 72.6484 82.0061 72.7891 82.1642C72.9307 82.3223 73.0565 82.492 73.1666 82.6691C73.2767 82.8463 73.371 83.0308 73.4489 83.2212C73.5267 83.4116 73.5879 83.607 73.6335 83.8048C73.6782 84.0027 73.7063 84.2038 73.717 84.4049C73.7278 84.6061 73.722 84.8081 73.698 85.0076C73.674 85.2071 73.631 85.404 73.5714 85.5969C73.5109 85.7898 73.4331 85.9777 73.3338 86.1548C73.2014 86.3907 73.0325 86.6085 72.8893 86.8394C72.7105 87.1283 72.5723 87.4387 72.463 87.7566C72.3322 88.1382 72.242 88.5305 72.2031 88.9278C72.1642 89.3243 72.1758 89.7258 72.2263 90.1248C72.2776 90.523 72.3678 90.9186 72.5143 91.2953C72.636 91.609 72.7974 91.9094 72.9307 92.2207C73.0375 92.469 73.126 92.7239 73.1823 92.9847C73.2245 93.18 73.2494 93.3787 73.2568 93.5766C73.2643 93.7752 73.2543 93.9739 73.227 94.1701C73.1997 94.3662 73.1542 94.5599 73.0913 94.7495C73.0275 94.9382 72.9464 95.122 72.8462 95.2967C72.7461 95.4713 72.6277 95.6377 72.4903 95.79C72.3537 95.9431 72.1989 96.0822 72.0284 96.2039C71.8579 96.3256 71.6717 96.4299 71.4738 96.5118C71.276 96.5946 71.0665 96.655 70.8521 96.6914C70.6361 96.7279 70.4159 96.7394 70.1966 96.727Z" fill="#871C20" stroke="#871C20" stroke-width="1.32442" stroke-miterlimit="10" stroke-linecap="round" stroke-linejoin="round"/>
<path d="M97.3156 100.267C97.1021 100.255 96.8902 100.22 96.6857 100.164C96.4812 100.107 96.2834 100.03 96.0972 99.9351C95.9109 99.84 95.7346 99.7274 95.5724 99.6007C95.4101 99.4741 95.2603 99.3334 95.1262 99.1811C94.9913 99.0288 94.8713 98.8665 94.7678 98.6952C94.6287 98.4675 94.5178 98.2258 94.411 97.9833C94.2769 97.6803 94.1478 97.3758 94.0319 97.0662C93.8937 96.6945 93.7745 96.3162 93.6735 95.9329C93.5717 95.5497 93.4872 95.1631 93.4218 94.7732C93.3564 94.3834 93.3101 93.9902 93.2828 93.5953C93.2555 93.2005 93.248 92.804 93.2613 92.4083C93.2737 92.0118 93.3068 91.6161 93.3597 91.2221C93.4127 90.8281 93.4864 90.4358 93.5816 90.0484C93.6759 89.6601 93.7918 89.276 93.9268 88.8978C94.0617 88.5195 94.2165 88.1462 94.3936 87.7828C94.5708 87.4194 94.7703 87.0651 94.9797 86.715C95.1535 86.4228 95.3348 86.1331 95.5541 85.8682C95.7296 85.6563 95.93 85.4609 96.1593 85.2978C96.3306 85.1761 96.5185 85.0727 96.7163 84.9915C96.9142 84.9104 97.1236 84.8509 97.3363 84.8161C97.5491 84.7813 97.7676 84.7706 97.9836 84.7838C98.1997 84.797 98.4141 84.8343 98.621 84.893C98.828 84.9518 99.0275 85.0329 99.2154 85.1314C99.4033 85.23 99.5796 85.3467 99.7435 85.4775C99.9066 85.6083 100.056 85.7531 100.191 85.9087C100.326 86.0644 100.446 86.2307 100.551 86.4046C100.655 86.5792 100.743 86.7613 100.815 86.9484C100.887 87.1355 100.944 87.3283 100.983 87.5237C101.023 87.719 101.046 87.9169 101.053 88.1164C101.06 88.315 101.049 88.5145 101.021 88.7107C100.993 88.9077 100.946 89.1022 100.883 89.2918C100.82 89.4822 100.739 89.6676 100.637 89.8422C100.503 90.0748 100.331 90.2893 100.186 90.5177C100.003 90.8025 99.861 91.1087 99.746 91.4224C99.6086 91.7991 99.5109 92.1865 99.4637 92.578C99.4157 92.9695 99.4182 93.366 99.4587 93.7592C99.4993 94.1524 99.5796 94.5423 99.7145 94.914C99.8271 95.2235 99.9786 95.5199 100.102 95.8261C100.2 96.0712 100.282 96.3228 100.33 96.5802C100.367 96.7731 100.387 96.9685 100.388 97.1646C100.391 97.3608 100.376 97.5562 100.344 97.7507C100.312 97.9444 100.263 98.1356 100.196 98.3219C100.129 98.5081 100.044 98.6886 99.9413 98.8607C99.8387 99.0329 99.7178 99.196 99.5796 99.3466C99.4414 99.4964 99.2866 99.6338 99.116 99.7539C98.9464 99.8731 98.7609 99.9758 98.5656 100.056C98.3702 100.137 98.1641 100.197 97.9539 100.232C97.7444 100.268 97.5292 100.28 97.3156 100.267Z" fill="#871C20" stroke="#871C20" stroke-width="1.32442" stroke-miterlimit="10" stroke-linecap="round" stroke-linejoin="round"/>
<path d="M70.0137 98.0562C69.6677 94.996 67.7597 92.362 64.8791 91.449C62.8826 90.8166 60.7925 91.1278 59.0161 92.1452" fill="#FFD3C0"/>
<path d="M70.0137 98.0562C69.6677 94.996 67.7597 92.362 64.8791 91.449C62.8826 90.8166 60.7925 91.1278 59.0161 92.1452" stroke="#871C20" stroke-width="1.32442"/>
<path d="M59.0381 95.7841C58.6432 97.3991 59.9999 99.1183 62.0685 99.6241C64.137 100.131 66.1353 99.2317 66.5301 97.6176C66.925 96.0035 65.5682 94.2833 63.4997 93.7776C61.4303 93.271 59.4329 94.1691 59.0381 95.7841Z" fill="#FCB7AD"/>
<path d="M78.2094 102.973C77.1863 102.569 76.1557 102.177 75.1325 101.764C74.4149 101.476 73.7005 101.178 72.9754 100.901C72.5607 100.743 72.1427 100.592 71.7354 100.417C71.43 100.285 71.1303 100.14 70.8514 99.9666C70.5724 99.7936 70.3133 99.5933 70.0749 99.3748C69.8357 99.1571 69.6172 98.9212 69.4201 98.672C69.2231 98.4228 69.0468 98.1588 68.8937 97.8856C68.7397 97.6125 68.6073 97.3285 68.4981 97.0388C68.388 96.7483 68.3002 96.4519 68.2348 96.1506C68.1694 95.8493 68.1272 95.5447 68.1073 95.2392C68.0883 94.933 68.0924 94.6259 68.1214 94.3213C68.1504 94.0158 68.2034 93.7128 68.2812 93.4157C68.359 93.1177 68.4616 92.8255 68.5908 92.5432C68.7191 92.2601 68.8739 91.987 69.0543 91.7287C69.2348 91.4705 69.4409 91.2271 69.6718 91.0036C69.9027 90.7801 70.1577 90.5781 70.4333 90.401C70.709 90.2247 71.0062 90.074 71.3174 89.954C71.6287 89.8348 71.9556 89.7454 72.2892 89.6907C72.6228 89.6353 72.9638 89.6146 73.304 89.627C73.7568 89.6436 74.2079 89.7214 74.6384 89.8505C75.1764 90.0119 75.683 90.2545 76.1929 90.4821C77.0091 90.8463 77.836 91.1741 78.663 91.5011C79.696 91.9091 80.7307 92.3173 81.7729 92.7005" fill="#FFD3C0"/>
<path d="M78.2094 102.973C77.1863 102.569 76.1557 102.177 75.1325 101.764C74.4149 101.476 73.7005 101.178 72.9754 100.901C72.5607 100.743 72.1427 100.592 71.7354 100.417C71.43 100.285 71.1303 100.14 70.8514 99.9666C70.5724 99.7936 70.3133 99.5933 70.0749 99.3748C69.8357 99.1571 69.6172 98.9212 69.4201 98.672C69.2231 98.4228 69.0468 98.1588 68.8937 97.8856C68.7397 97.6125 68.6073 97.3285 68.4981 97.0388C68.388 96.7483 68.3002 96.4519 68.2348 96.1506C68.1694 95.8493 68.1272 95.5447 68.1073 95.2392C68.0883 94.933 68.0924 94.6259 68.1214 94.3213C68.1504 94.0158 68.2034 93.7128 68.2812 93.4157C68.359 93.1177 68.4616 92.8255 68.5908 92.5432C68.7191 92.2601 68.8739 91.987 69.0543 91.7287C69.2348 91.4705 69.4409 91.2271 69.6718 91.0036C69.9027 90.7801 70.1577 90.5781 70.4333 90.401C70.709 90.2247 71.0062 90.074 71.3174 89.954C71.6287 89.8348 71.9556 89.7454 72.2892 89.6907C72.6228 89.6353 72.9638 89.6146 73.304 89.627C73.7568 89.6436 74.2079 89.7214 74.6384 89.8505C75.1764 90.0119 75.683 90.2545 76.1929 90.4821C77.0091 90.8463 77.836 91.1741 78.663 91.5011C79.696 91.9091 80.7307 92.3173 81.7729 92.7005" stroke="#871C20" stroke-width="1.32442" stroke-miterlimit="10" stroke-linecap="round" stroke-linejoin="round"/>
<path d="M66.1401 78.0974C66.5317 77.1447 67.2137 76.2441 68.1524 75.6754C69.0903 75.1068 70.2839 74.8716 71.4163 75.0107C72.5495 75.1498 73.6223 75.663 74.4575 76.3873C75.2944 77.1124 75.8928 78.0494 76.2529 79.027" stroke="#871C20" stroke-width="1.32442" stroke-miterlimit="10" stroke-linecap="round" stroke-linejoin="round"/>
<path d="M94.3438 81.2424C94.7982 80.2996 95.5705 79.4097 96.6093 78.8477C97.6474 78.2856 98.9503 78.0522 100.18 78.1855C101.41 78.3188 102.564 78.8204 103.457 79.5323C104.351 80.2458 104.981 81.1704 105.347 82.1364" stroke="#871C20" stroke-width="1.32442" stroke-miterlimit="10" stroke-linecap="round" stroke-linejoin="round"/>
<path d="M93.9739 110.497C93.858 111.016 93.6669 111.528 93.4144 112.012C93.1619 112.496 92.8482 112.953 92.4798 113.39C92.1181 113.82 91.7026 114.216 91.2448 114.577C90.7879 114.939 90.2829 115.26 89.7507 115.539C89.6141 115.615 89.4709 115.682 89.3277 115.744C88.918 115.935 88.4958 116.099 88.0654 116.242C87.4785 116.433 86.8718 116.576 86.2575 116.678C85.6367 116.781 85.0093 116.842 84.381 116.863C83.7535 116.884 83.1186 116.87 82.4912 116.822C81.8563 116.774 81.2355 116.692 80.6147 116.576C79.9938 116.461 79.3871 116.303 78.7928 116.113C78.2125 115.929 77.6603 115.711 77.1215 115.444C77.1074 115.437 77.0875 115.431 77.0735 115.423C76.5205 115.158 75.9957 114.851 75.4974 114.516C75.0066 114.175 74.5422 113.8 74.1192 113.397C73.6962 112.995 73.3072 112.565 72.9661 112.107C72.6251 111.657 72.3246 111.179 72.0721 110.682C71.8197 110.184 71.6152 109.672 71.4786 109.14C71.3421 108.614 71.2601 108.082 71.2676 107.536C71.2742 107.086 71.3354 106.636 71.52 106.213C71.6632 105.878 71.895 105.558 72.2021 105.312C72.4272 105.128 72.707 104.978 72.9934 104.869C73.2864 104.759 73.6002 104.684 73.9214 104.65C74.5554 104.575 75.211 104.65 75.8517 104.759C76.8069 104.923 77.7208 105.169 78.6421 105.387C79.8771 105.68 81.1254 105.94 82.3944 106.096C83.6567 106.253 84.9455 106.315 86.2079 106.294C87.2583 106.287 88.2955 106.219 89.36 106.205C90.2126 106.191 91.0859 106.212 91.864 106.479C92.3482 106.649 92.7985 106.915 93.1536 107.243C93.2215 107.304 93.2902 107.373 93.3581 107.447C93.5493 107.658 93.7058 107.891 93.815 108.137C93.9649 108.471 94.0402 108.819 94.0675 109.174C94.1031 109.617 94.0691 110.061 93.9739 110.497Z" fill="#871C20"/>
<path d="M91.6215 114.262C90.8815 114.787 88.4959 116.098 88.0654 116.241C87.4786 116.432 86.8718 116.576 86.2576 116.677C85.6368 116.78 85.0093 116.841 84.3811 116.862C83.7536 116.883 83.1187 116.869 82.4913 116.821C81.8564 116.773 81.2356 116.691 80.6148 116.576C79.9939 116.46 79.3872 116.302 78.7929 116.112C78.2126 115.928 75.2922 114.591 74.4595 113.706C75.5712 112.171 77.5611 110.54 83.2793 110.54C88.6432 110.54 90.605 112.618 91.6215 114.262Z" fill="url(#paint1_radial_3_14229)"/>
<path d="M89.4503 110.451C87.7649 111.33 84.6269 111.74 82.0956 111.556C79.5717 111.412 76.2557 110.134 75.1308 109.071C73.4902 107.519 75.0282 104.727 75.0282 104.727H75.5538C75.6564 104.747 75.7582 104.761 75.8543 104.781C76.8095 104.966 77.7167 105.238 78.6446 105.484C79.8722 105.818 81.1213 106.111 82.3903 106.289C83.6592 106.46 84.9414 106.521 86.2038 106.5C87.2542 106.48 88.2914 106.405 89.3625 106.385C89.6489 106.378 89.9353 106.378 90.2217 106.398C90.528 107.524 90.903 109.693 89.4503 110.451Z" fill="url(#paint2_linear_3_14229)" stroke="#871C20" stroke-width="1.32442" stroke-miterlimit="10"/>
<path d="M93.9739 110.497C93.858 111.016 93.6669 111.528 93.4144 112.012C93.1619 112.496 92.8482 112.953 92.4798 113.39C92.1181 113.82 91.7026 114.216 91.2448 114.577C90.7879 114.939 90.2829 115.26 89.7507 115.539C89.6141 115.615 89.4709 115.682 89.3277 115.744C88.918 115.935 88.4958 116.099 88.0654 116.242C87.4785 116.433 86.8718 116.576 86.2575 116.678C85.6367 116.781 85.0093 116.842 84.381 116.863C83.7535 116.884 83.1186 116.87 82.4912 116.822C81.8563 116.774 81.2355 116.692 80.6147 116.576C79.9938 116.461 79.3871 116.303 78.7928 116.113C78.2125 115.929 77.6603 115.711 77.1215 115.444C77.1074 115.437 77.0875 115.431 77.0735 115.423C76.5205 115.158 75.9957 114.851 75.4974 114.516C75.0066 114.175 74.5422 113.8 74.1192 113.397C73.6962 112.995 73.3072 112.565 72.9661 112.107C72.6251 111.657 72.3246 111.179 72.0721 110.682C71.8197 110.184 71.6152 109.672 71.4786 109.14C71.3421 108.614 71.2601 108.082 71.2676 107.536C71.2742 107.086 71.3354 106.636 71.52 106.213C71.6632 105.878 71.895 105.558 72.2021 105.312C72.4272 105.128 72.707 104.978 72.9934 104.869C73.2864 104.759 73.6002 104.684 73.9214 104.65C74.5554 104.575 75.211 104.65 75.8517 104.759C76.8069 104.923 77.7208 105.169 78.6421 105.387C79.8771 105.68 81.1254 105.94 82.3944 106.096C83.6567 106.253 84.9455 106.315 86.2079 106.294C87.2583 106.287 88.2955 106.219 89.36 106.205C90.2126 106.191 91.0859 106.212 91.864 106.479C92.3482 106.649 92.7985 106.915 93.1536 107.243C93.2215 107.304 93.2902 107.373 93.3581 107.447C93.5493 107.658 93.7058 107.891 93.815 108.137C93.9649 108.471 94.0402 108.819 94.0675 109.174C94.1031 109.617 94.0691 110.061 93.9739 110.497Z" stroke="#871C20" stroke-width="1.32442" stroke-miterlimit="10" stroke-linecap="round" stroke-linejoin="round"/>
<path d="M110.052 98.0258C108.605 96.3421 106.492 95.1625 104.044 94.8786C100.286 94.4432 96.8151 96.2444 95.1173 99.1755C94.5743 100.113 93.0421 101.828 94.081 102.301C94.4626 102.475 110.052 98.0258 110.052 98.0258Z" fill="#FFD3C0"/>
<path d="M94.9541 99.4413C96.906 96.4564 100.287 94.4441 104.045 94.8795C106.494 95.1626 108.606 96.343 110.053 98.0266" stroke="#871C20" stroke-width="1.32442"/>
<path d="M107.865 101.426C108.101 99.3796 106.49 97.5119 104.266 97.2544C102.041 96.9969 100.046 98.447 99.8093 100.493C99.5724 102.54 101.184 104.407 103.408 104.665C105.632 104.922 107.628 103.472 107.865 101.426Z" fill="#FCB7AD"/>
<rect width="148.17" height="35.5939" transform="translate(36.1738 182.053)" fill="#B4DF8D"/>
</g>
<defs>
<linearGradient id="paint0_linear_3_14229" x1="95.3902" y1="207.552" x2="99.716" y2="87.509" gradientUnits="userSpaceOnUse">
<stop offset="0.0178" stop-color="#C1EA98"/>
<stop offset="0.248" stop-color="#AFDA88"/>
<stop offset="0.4194" stop-color="#A7D381"/>
<stop offset="0.5936" stop-color="#93CB78"/>
<stop offset="0.9493" stop-color="#5FB861"/>
<stop offset="1" stop-color="#57B55E"/>
</linearGradient>
<radialGradient id="paint1_radial_3_14229" cx="0" cy="0" r="1" gradientUnits="userSpaceOnUse" gradientTransform="translate(83.0414 113.69) scale(9.27627 3.17619)">
<stop stop-color="#ED7F9A"/>
<stop offset="0.353" stop-color="#E77592"/>
<stop offset="0.9496" stop-color="#D85B7E"/>
<stop offset="1" stop-color="#D6587C"/>
</radialGradient>
<linearGradient id="paint2_linear_3_14229" x1="83.1305" y1="102.259" x2="81.9668" y2="111.483" gradientUnits="userSpaceOnUse">
<stop offset="0.4773" stop-color="#D2CFFF"/>
<stop offset="0.5675" stop-color="#E2E0FF"/>
<stop offset="0.6956" stop-color="#F2F1FF"/>
<stop offset="0.834" stop-color="#FCFCFF"/>
<stop offset="1" stop-color="white"/>
</linearGradient>
<clipPath id="clip0_3_14229">
<rect x="0.579102" y="0.772461" width="198.663" height="198.663" rx="99.3317" fill="white"/>
</clipPath>
</defs>
</svg>
