<svg width="199" height="200" viewBox="0 0 199 200" fill="none" xmlns="http://www.w3.org/2000/svg">
<g clip-path="url(#clip0_3_13311)">
<rect x="0.290039" y="0.583984" width="198.663" height="198.663" rx="99.3317" fill="#8F5AFF"/>
<path d="M129.032 67.9557C129.54 86.8396 118.972 107.204 103.719 107.204C93.5364 107.204 84.1249 94.1619 77.5327 82.1947C71.468 76.0893 70.0278 71.9921 70.0278 66.8603C70.0278 51.4043 82.4007 38.8691 97.6539 38.8691C112.907 38.8691 128.607 51.7086 129.032 67.9557Z" fill="black"/>
<path d="M167.591 54.8731C145.969 44.3257 130.006 50.4716 124.732 54.8731V59.7006C127.065 59.4775 139.641 62.0332 145.868 68.4225C154.671 77.4689 153.292 93.8783 151.567 100.247L158.302 95.359L157.044 90.4706L160.634 93.6754L175.826 82.6615L177.733 81.2822L174.508 73.5339L181.526 78.5237L183.433 77.1444L191.019 71.6476C187.875 68.6659 178.808 61.1002 167.591 54.8731Z" fill="black"/>
<path d="M136.212 118.685L62.0353 120.105C47.2892 121.89 39.5815 138.887 33.7601 147.062L-4.77851 206.188L-41.3496 181.604L-59.0571 206.959C-44.9398 218.236 -28.997 230.69 -21.0459 235.781C-5.28562 245.903 10.1096 240 15.8498 235.781L54.936 189.758V241.562L145.34 243.367V189.738L197.002 292.028L227.508 278.904C209.374 229.798 188.341 184.119 165.948 136.859C158.666 121.525 143.088 118.36 136.212 118.685Z" fill="#FF85D2"/>
<path d="M145.075 186.107V161.361" stroke="white" stroke-width="1.94721" stroke-linecap="round"/>
<path d="M54.978 186.107V161.361" stroke="white" stroke-width="1.94721" stroke-linecap="round"/>
<path d="M112.458 188.582C112.093 184.038 112.519 175.154 117.184 175.986C123.006 177.02 130.531 188.582 136.981 184.262C140.206 181.665 136.697 170.793 139.192 167.69" stroke="white" stroke-width="1.94721" stroke-linecap="round"/>
<path d="M140.126 135.642C139.761 131.098 140.187 122.214 144.852 123.046C150.024 123.979 156.576 133.248 162.499 132.194" stroke="white" stroke-width="1.94721" stroke-linecap="round"/>
<path d="M170.937 194.647C170.572 190.103 170.998 181.219 175.663 182.051C179.984 182.821 185.278 189.414 190.348 190.955" stroke="white" stroke-width="1.94721" stroke-linecap="round"/>
<path d="M47.7955 162.152C47.4304 157.608 47.8767 148.724 52.5216 149.556C58.343 150.59 65.8681 162.152 72.3182 157.831C75.5433 155.235 72.0343 144.363 74.5292 141.26" stroke="white" stroke-width="1.94721" stroke-linecap="round"/>
<path d="M74.8537 80.186L71.8111 74.8312C75.5433 73.6547 83.9001 59.4563 84.5086 53.7363C86.3544 59.6997 96.5773 71.89 115.441 78.685L111.709 84.6484C117.125 80.1657 124.244 83.1271 124.427 88.6036C124.102 97.9949 116.516 97.1836 113.108 94.9118V122.092C113.108 122.092 111.283 127.061 107.814 128.785C96.1311 135.256 88.3828 126.27 85.5431 122.092V108.218C82.0949 108.218 74.8537 108.644 71.8111 102.579C68.7078 96.3722 71.9126 85.48 74.8537 80.186Z" fill="#FECB4B"/>
<path d="M85.5225 115.257L98.2199 106.88C98.2199 106.88 94.2849 107.549 91.7698 107.813C89.3155 108.056 85.5225 108.178 85.5225 108.178V115.257V115.257Z" fill="black"/>
<path d="M85.9498 73.4321C84.9559 78.6044 88.9111 81.6267 88.9111 81.6267L84.1851 89.9632H89.763" stroke="black" stroke-width="1.94721" stroke-linecap="round"/>
<path d="M95.4814 71.8089C97.5098 71.4641 99.5787 71.5046 100.999 71.89" stroke="black" stroke-width="1.94721" stroke-linecap="round"/>
<path d="M76.9858 72.2557C79.0142 71.9108 81.0831 71.9514 82.503 72.3368" stroke="black" stroke-width="1.94721" stroke-linecap="round"/>
<path d="M90.0854 98.2592C91.911 97.2856 93.5134 96.0078 94.3855 94.811" stroke="black" stroke-width="1.94721" stroke-linecap="round"/>
<path d="M112.357 90.6939L119.092 85.1768" stroke="black" stroke-width="1.94721" stroke-linecap="round"/>
<path d="M117.146 86.8809L120.513 90.0451" stroke="black" stroke-width="1.94721" stroke-linecap="round"/>
<path d="M119.052 79.436L126.415 73.4321" stroke="black" stroke-width="1.29814" stroke-linecap="round"/>
<path d="M80.0469 82.0127C80.8758 82.0127 81.5478 81.3407 81.5478 80.5117C81.5478 79.6828 80.8758 79.0107 80.0469 79.0107C79.2179 79.0107 78.5459 79.6828 78.5459 80.5117C78.5459 81.3407 79.2179 82.0127 80.0469 82.0127Z" fill="black"/>
<path d="M97.4892 82.0127C98.3182 82.0127 98.9902 81.3407 98.9902 80.5117C98.9902 79.6828 98.3182 79.0107 97.4892 79.0107C96.6603 79.0107 95.9883 79.6828 95.9883 80.5117C95.9883 81.3407 96.6603 82.0127 97.4892 82.0127Z" fill="black"/>
</g>
<defs>
<clipPath id="clip0_3_13311">
<rect x="0.290039" y="0.583984" width="198.663" height="198.663" rx="99.3317" fill="white"/>
</clipPath>
</defs>
</svg>
