<svg width="199" height="199" viewBox="0 0 199 199" fill="none" xmlns="http://www.w3.org/2000/svg">
<g clip-path="url(#clip0_3_13351)">
<rect x="0.157715" y="0.187988" width="198.663" height="198.663" rx="99.3317" fill="#C870FF"/>
<path d="M95.9084 36.6094C75.5054 36.6094 58.9575 56.1669 58.9575 80.3011C58.9575 89.6121 61.4262 98.258 65.6308 105.348H126.186C130.391 98.258 132.859 89.6233 132.859 80.3011C132.848 56.1669 116.311 36.6094 95.9084 36.6094Z" fill="black"/>
<path d="M168.763 132.504C159.136 112.18 138.541 107.986 129.445 108.437C129.445 108.437 113.877 108.719 109.459 116.441C106.9 120.916 106.652 122.054 106.652 122.054L36.7856 123.385C16.4728 126.372 6.18116 144.486 -0.616077 159.062L-29.417 223.122C-41.6137 265.957 9.35997 264.943 9.35997 264.943H77.5804H105.107H151.809H165.031C216.636 264.943 214.979 238.092 205.263 205.864C205.274 203.903 175.346 146.391 168.763 132.504Z" fill="#6983FF" stroke="black" stroke-width="1.08215"/>
<path d="M185.997 209.967L139.86 129.415L107.485 136.302L138.079 236.739C140.029 245.407 147.818 263.195 163.317 265.032" stroke="white" stroke-width="1.08215" stroke-linecap="round"/>
<path d="M45.2637 173.039L16.2373 224.091H77.435V263.961" stroke="white" stroke-width="1.08215" stroke-linecap="round"/>
<path d="M130.211 112.563L136.253 129.967L113.066 134.893L108.072 114.096C113.212 102.418 121.813 83.2207 122.332 81.6426C122.862 80.0532 125.206 79.3994 126.255 80.4139C126.773 78.554 130.73 79.1852 130.73 81.6426C133.976 80.4139 134.653 83.1869 134.585 84.224C137.268 82.9502 138.959 85.261 138.35 87.0421C138.034 87.9664 136.772 101.753 136.772 101.753C134.878 107.671 130.211 112.563 130.211 112.563Z" fill="#FF85D2"/>
<path d="M133.671 85.9824L132.036 98.9795" stroke="#FF01A1" stroke-width="1.08215" stroke-linecap="round"/>
<path d="M132.026 98.9795C129.275 99.1486 123.154 101.369 120.618 108.888" stroke="#FF01A1" stroke-width="1.08215" stroke-linecap="round"/>
<path d="M129.669 83.4121L128.035 96.4092" stroke="#FF01A1" stroke-width="1.08215" stroke-linecap="round"/>
<path d="M126.322 81.8906L124.688 94.8877" stroke="#FF01A1" stroke-width="1.08215" stroke-linecap="round"/>
<path d="M118.15 76.4795L119.953 63.6628C119.762 62.344 107.881 51.1054 78.0991 61.3182C81.0412 70.8321 76.6787 81.5183 76.6787 81.5183C70.5804 76.4795 62.577 79.8049 62.3516 85.9821C62.7236 96.5669 71.2567 95.6313 75.0781 93.0725V123.666C75.0781 123.666 77.1296 129.257 81.0411 131.207C94.1847 138.5 102.921 128.378 106.122 123.666V108.042C110.011 108.042 118.161 108.527 121.577 101.696C125.071 94.6844 121.453 82.4426 118.15 76.4795Z" fill="#FF85D2"/>
<path d="M121.609 84.9224C123.368 91.7872 128.925 107.185 112.343 108.065" stroke="#FF01A1" stroke-width="1.08215" stroke-linecap="round"/>
<path d="M106.132 115.945L91.8276 106.51C91.8276 106.51 96.2577 107.265 99.0983 107.547C101.849 107.829 106.132 107.964 106.132 107.964V115.945Z" fill="black"/>
<path d="M105.648 68.8818C106.775 74.6984 102.322 78.1139 102.322 78.1139L107.643 87.5038H101.375" stroke="black" stroke-width="1.08215" stroke-linecap="round"/>
<path d="M94.9283 67.0333C92.64 66.6388 90.3292 66.6839 88.7285 67.1348" stroke="black" stroke-width="1.08215" stroke-linecap="round"/>
<path d="M115.748 67.5519C113.459 67.1574 111.149 67.2024 109.537 67.6533" stroke="black" stroke-width="1.08215" stroke-linecap="round"/>
<path d="M101.005 96.8259C98.9533 95.7438 97.1497 94.2897 96.1577 92.9482" stroke="black" stroke-width="1.08215" stroke-linecap="round"/>
<path d="M75.9364 88.3156L68.3501 82.1045" stroke="black" stroke-width="1.08215" stroke-linecap="round"/>
<path d="M70.5458 83.998L66.7695 87.5714" stroke="black" stroke-width="1.08215" stroke-linecap="round"/>
<path d="M91.5017 77.7085C92.2675 77.7085 92.8882 77.0878 92.8882 76.322C92.8882 75.5563 92.2675 74.9355 91.5017 74.9355C90.736 74.9355 90.1152 75.5563 90.1152 76.322C90.1152 77.0878 90.736 77.7085 91.5017 77.7085Z" fill="black"/>
<path d="M112.312 78.2271C113.078 78.2271 113.699 77.6063 113.699 76.8406C113.699 76.0749 113.078 75.4541 112.312 75.4541C111.547 75.4541 110.926 76.0749 110.926 76.8406C110.926 77.6063 111.547 78.2271 112.312 78.2271Z" fill="black"/>
</g>
<defs>
<clipPath id="clip0_3_13351">
<rect x="0.157715" y="0.187988" width="198.663" height="198.663" rx="99.3317" fill="white"/>
</clipPath>
</defs>
</svg>
