<svg width="200" height="199" viewBox="0 0 200 199" fill="none" xmlns="http://www.w3.org/2000/svg">
<g clip-path="url(#clip0_3_13269)">
<rect x="0.446777" y="0.187988" width="198.663" height="198.663" rx="99.3317" fill="#63E296"/>
<path d="M58.1253 120.403L142.36 139.408C172.682 146.254 182.782 160.87 184.037 167.318C187.315 187.664 195.529 234.164 202.197 257.354C208.865 280.545 199.885 294.717 191.998 296.309L167.55 297.895L158.151 261.2L142.819 217.844L128.968 295.452L84.688 258.828L15.6326 247.059L26.884 193.666C7.41029 203.111 -19.9279 222.587 -31.0598 226.711C-55.8139 235.849 -74.0833 220.059 -77.4262 209.435L-105.355 127.929L-74.7934 114.053L-43.6856 178.383C-27.3921 165.329 -4.37627 147.298 7.53066 138.669C33.8002 114.711 50.6431 118.748 58.1253 120.403Z" fill="#FF85D2"/>
<path d="M48.6383 205.999C49.9529 207.501 51.5061 210.338 47.2047 209.8C41.8416 209.125 45.6414 200.738 49.8796 202.708C54.1177 204.679 57.9653 213.094 46.0595 212.835C34.1538 212.577 40.5421 196.695 48.1254 198.578" stroke="white" stroke-width="1.59353" stroke-linecap="round"/>
<path d="M-4.21426 189.228C-2.89963 190.73 -1.34641 193.566 -5.64787 193.028C-11.0109 192.354 -7.21113 183.966 -2.97296 185.937C1.26521 187.907 5.12146 196.299 -6.79301 196.064C-18.6987 195.806 -12.3104 179.924 -4.72713 181.806" stroke="white" stroke-width="1.59353" stroke-linecap="round"/>
<path d="M122.611 169.781C123.925 171.283 125.479 174.12 121.186 173.558C115.823 172.884 119.623 164.496 123.861 166.467C128.09 168.461 131.946 176.853 120.041 176.594C108.158 176.345 114.523 160.454 122.107 162.337" stroke="white" stroke-width="1.59353" stroke-linecap="round"/>
<path d="M29.674 135.815C30.9886 137.317 32.5418 140.154 28.2491 139.592C22.8861 138.918 26.6858 130.53 30.924 132.501C35.1534 134.494 39.0097 142.886 27.104 142.628C15.1982 142.37 21.5866 126.487 29.1698 128.37" stroke="white" stroke-width="1.59353" stroke-linecap="round"/>
<path d="M31.0254 174.83L27.4096 190.836" stroke="white" stroke-width="2.3903" stroke-linecap="round"/>
<path d="M147.223 197.812L143.607 213.818" stroke="white" stroke-width="2.3903" stroke-linecap="round"/>
<path d="M129.649 75.4885C129.962 94.5447 119.135 114.98 103.725 114.826C93.4662 114.71 83.0748 101.805 76.5504 89.6719C72.3586 83.7177 70.0816 78.9374 70.1483 73.7712C70.305 58.1768 82.911 45.6709 98.297 45.8165C113.692 45.9389 129.366 59.0924 129.649 75.4885Z" fill="black"/>
<path d="M75.1826 87.3943L72.1716 81.9629C75.9619 80.8261 84.5076 66.5695 85.1927 60.8136C86.997 66.8485 97.1759 79.2569 116.135 86.3475L112.299 92.3161C117.793 87.8491 124.947 90.9257 125.094 96.4399C124.673 105.926 117.019 105.018 113.638 102.68L112.945 131.936L125.444 134.808C124.247 137.986 111.508 150.445 95.0381 147.078C75.6517 142.528 70.4888 127.486 69.2316 121.896L85.7706 125.289L85.7055 115.831C82.2273 115.788 74.9166 116.15 71.9184 109.981C68.8248 103.644 72.1795 92.6975 75.1826 87.3943Z" fill="#6983FF"/>
<path d="M85.7929 122.703L98.5556 114.706C98.5556 114.706 94.5784 115.349 92.0287 115.577C89.5573 115.809 85.7203 115.869 85.7203 115.869L85.7929 122.703Z" fill="black"/>
<path d="M86.2065 80.7114C85.1474 85.9397 89.1095 89.0377 89.1095 89.0377L84.2795 97.4287L89.8817 97.4845" stroke="black" stroke-width="2.3903" stroke-linecap="round"/>
<path d="M95.7552 79.0187C97.8243 78.6813 99.9025 78.742 101.346 79.1459" stroke="black" stroke-width="2.3903" stroke-linecap="round"/>
<path d="M77.0164 79.5138C79.0855 79.1764 81.1637 79.2371 82.6068 79.641" stroke="black" stroke-width="2.3903" stroke-linecap="round"/>
<path d="M90.29 105.861C92.1247 104.911 93.7459 103.615 94.6672 102.424" stroke="black" stroke-width="2.3903" stroke-linecap="round"/>
<path d="M112.875 98.167L119.691 92.6555" stroke="black" stroke-width="2.3903" stroke-linecap="round"/>
<path d="M117.724 94.3291L121.109 97.5383" stroke="black" stroke-width="2.3903" stroke-linecap="round"/>
<path d="M98.8257 88.621C99.5031 88.6316 100.061 88.0912 100.071 87.414C100.082 86.7368 99.541 86.1792 98.8636 86.1686C98.1863 86.158 97.6287 86.6984 97.6183 87.3756C97.6078 88.0528 98.1484 88.6104 98.8257 88.621Z" fill="black"/>
<path d="M80.0977 89.0873C80.775 89.0979 81.3326 88.5575 81.3431 87.8803C81.3535 87.2031 80.8129 86.6455 80.1356 86.6349C79.4583 86.6243 78.9007 87.1647 78.8902 87.8419C78.8798 88.5191 79.4204 89.0767 80.0977 89.0873Z" fill="black"/>
<path d="M139.583 60.885C147.721 55.2397 150.466 45.07 145.714 38.1704C140.961 31.2708 130.511 30.254 122.373 35.8993C114.235 41.5446 111.49 51.7143 116.243 58.6139C120.995 65.5135 131.445 66.5303 139.583 60.885Z" fill="black"/>
<path d="M101.994 219.61L131.891 283.34L121.458 342.513C120.491 347.687 117.867 357.828 114.25 360.409C106.602 366.74 100.712 365.729 99.5073 365.273L94.9324 417.385L34.2514 410.585L37.8195 349.052L25.4066 334.782L18.7351 407.097L-44.5327 401.968C-42.8706 354.083 -36.0955 240.769 -29.0521 217.826C-13.0874 180.312 12.5506 189.249 23.3671 198.407L49.5691 232.08C67.7413 192.778 93.325 204.743 101.994 219.61Z" fill="black" stroke="black" stroke-width="1.59353"/>
</g>
<defs>
<clipPath id="clip0_3_13269">
<rect x="0.446777" y="0.187988" width="198.663" height="198.663" rx="99.3317" fill="white"/>
</clipPath>
</defs>
</svg>
