<svg width="200" height="199" viewBox="0 0 200 199" fill="none" xmlns="http://www.w3.org/2000/svg">
<g clip-path="url(#clip0_3_13243)">
<rect x="0.868164" y="0.187988" width="198.663" height="198.663" rx="99.3317" fill="#FF7B7B"/>
<path d="M70.4388 118.275L154.949 135.526C169.099 142.067 178.663 156.66 181.685 163.123L213.582 266.604C224.266 293.861 198.207 310.148 183.822 314.891L51.4677 342.488L48.4449 317.471H3.59702L28.1708 190.719L-14.9571 214.433C-29.1072 225.821 -50.1631 219.176 -58.945 214.433L-135.637 151.474L-110.203 118.275L-33.9022 169.585C-16.3643 159.083 6.67201 143.109 17.252 135.526C34.2166 123.356 52.9531 115.122 70.4388 118.275Z" fill="#FECB4B"/>
<path d="M135.17 77.3088C135.17 97.5308 120.525 113.922 102.466 113.922C102.466 113.922 81.4362 98.1562 72.7324 79.602C65.071 59.0153 84.3809 40.7217 102.466 40.7217C120.525 40.6957 135.17 57.0869 135.17 77.3088Z" fill="black"/>
<path d="M73.6172 83.042L71.8192 75.98C69.7605 67.1199 80.549 41.1388 113.436 61.3608C116.068 69.9082 121.436 88.1757 121.436 88.1757C127.612 83.0681 136.081 83.9801 138.114 90.1041C140.876 100.997 132.042 104.202 122.426 103.785V113.74V130.887C122.426 130.887 118.908 135.291 114.947 137.271C101.605 144.672 89.0443 135.682 85.8129 130.887V115.043C81.8519 115.043 73.5912 115.538 70.1253 108.606C66.6073 101.518 70.2556 89.0878 73.6172 83.042Z" fill="#6983FF"/>
<path d="M85.7354 121.923L98.0614 113.792C98.0614 113.792 94.2307 114.444 91.8072 114.678C89.4358 114.913 85.7354 115.043 85.7354 115.043V121.923Z" fill="black"/>
<path d="M86.5165 77.3096C85.3178 83.5377 90.0867 87.186 90.0867 87.186L84.4058 97.2449H91.129" stroke="black" stroke-width="2.50168" stroke-linecap="round"/>
<path d="M98.3223 77.2309C100.303 76.8921 102.283 76.9443 103.664 77.3091" stroke="black" stroke-width="2.50168" stroke-linecap="round"/>
<path d="M77.1626 76.0322C79.1431 75.6934 81.1236 75.7455 82.5047 76.1104" stroke="black" stroke-width="2.50168" stroke-linecap="round"/>
<path d="M95.2441 103.369C97.0162 102.431 98.5797 101.18 99.4136 100.033" stroke="black" stroke-width="2.50168" stroke-linecap="round"/>
<path d="M125.763 94.5348L132.903 88.7236" stroke="black" stroke-width="2.50168" stroke-linecap="round"/>
<path d="M130.998 90.834L134.803 94.5344" stroke="black" stroke-width="2.50168" stroke-linecap="round"/>
<path d="M101.267 86.4307C101.929 86.4307 102.466 85.894 102.466 85.2319C102.466 84.5699 101.929 84.0332 101.267 84.0332C100.605 84.0332 100.068 84.5699 100.068 85.2319C100.068 85.894 100.605 86.4307 101.267 86.4307Z" fill="black"/>
<path d="M80.1333 85.2314C80.7953 85.2314 81.332 84.6947 81.332 84.0327C81.332 83.3707 80.7953 82.834 80.1333 82.834C79.4713 82.834 78.9346 83.3707 78.9346 84.0327C78.9346 84.6947 79.4713 85.2314 80.1333 85.2314Z" fill="black"/>
<path d="M102.464 40.6963C90.581 40.6963 78.1508 48.6183 73.2256 59.8758L134.908 72.5406C132.823 54.5858 119.09 40.6963 102.464 40.6963Z" fill="#FECB4B"/>
<path d="M134.048 72.3329L52.4565 55.6289" stroke="black" stroke-width="1.66779" stroke-linecap="round"/>
</g>
<defs>
<clipPath id="clip0_3_13243">
<rect x="0.868164" y="0.187988" width="198.663" height="198.663" rx="99.3317" fill="white"/>
</clipPath>
</defs>
</svg>
