<svg width="199" height="200" viewBox="0 0 199 200" fill="none" xmlns="http://www.w3.org/2000/svg">
<g clip-path="url(#clip0_3_13376)">
<rect x="0.000976562" y="0.583984" width="198.663" height="198.663" rx="99.3317" fill="#5749F7"/>
<path d="M226.587 225.929C239.212 270.273 186.452 269.22 186.452 269.22H115.834H87.3424H46.7727L44.8087 254.673C37.7385 267.242 30.2474 268.561 25.3095 269.22C-4.26201 269.22 -11.9355 254.294 -21.7552 241.599L-74.0244 162.816L-47.1603 140.02L8.33534 204.494C8.33534 188.614 18.6321 150.794 28.059 140.02C28.059 140.02 41.0211 121.321 61.2078 121.321C66.5385 121.321 85.7431 121.321 85.7431 121.321L158.073 122.696C179.101 125.782 189.748 144.538 196.791 159.618L226.587 225.929Z" fill="#6983FF"/>
<path d="M129.358 64.4083C129.358 81.9295 116.087 96.1401 99.7161 96.1401C83.3451 96.1401 75.9803 78.5066 75.9803 60.9854C64.8559 38.7366 83.3451 32.6904 99.7161 32.6904C116.073 32.6764 129.358 46.887 129.358 64.4083Z" fill="black"/>
<path d="M149.289 174.081L179.337 226.925H115.986V268.196" stroke="white" stroke-width="1.34671" stroke-linecap="round"/>
<path d="M135.894 127.591L108.693 167.08L96.7689 155.156L83.7226 169.69L62.4839 127.591" stroke="white" stroke-width="1.34671" stroke-linecap="round"/>
<path d="M110.431 226.182L99.2925 171.079L103.866 162.648L102.729 161.47L97.2865 170.434L105.353 223.278L93.7373 239.579L97.2865 245.387L110.431 226.182Z" fill="black"/>
<path d="M103.487 162.269L96.7958 155.578L88.9961 164.219L94.1024 170.84L77.521 226.967L94.1024 245.807L109.014 226.967L98.6615 170.84L103.487 162.269Z" fill="#FF85D2"/>
<path d="M73.8465 74.1297L72.7382 52.1895C72.7382 51.2076 77.8445 58.0393 85.8687 58.8109C89.9509 59.2037 100.416 56.9732 108.805 50.7446C119.087 62.1636 116.787 79.3482 116.787 79.3482C123.1 74.1297 131.376 77.5666 131.615 83.9635C131.236 94.9195 122.398 93.9516 118.442 91.3002V122.976L95.8708 153.754L86.3176 122.976V106.815C82.2915 106.815 73.8605 107.32 70.3113 100.25C66.678 92.9836 70.4236 80.3021 73.8465 74.1297Z" fill="#FECB4B"/>
<path d="M86.29 114.994L101.09 105.23C101.09 105.23 96.5026 106.016 93.5707 106.311C90.723 106.605 86.29 106.731 86.29 106.731V114.994Z" fill="black"/>
<path d="M86.7794 66.2593C85.6151 72.2774 90.2164 75.8125 90.2164 75.8125L84.7173 85.5341H91.2124" stroke="black" stroke-width="1.34671" stroke-linecap="round"/>
<path d="M97.876 64.3524C100.247 63.9456 102.646 63.9877 104.301 64.4506" stroke="black" stroke-width="1.34671" stroke-linecap="round"/>
<path d="M76.3281 64.8851C78.6989 64.4783 81.0977 64.5204 82.7531 64.9833" stroke="black" stroke-width="1.34671" stroke-linecap="round"/>
<path d="M91.5928 95.2001C93.711 94.0778 95.5768 92.5768 96.6149 91.188" stroke="black" stroke-width="1.34671" stroke-linecap="round"/>
<path d="M117.543 86.3765L125.399 79.9375" stroke="black" stroke-width="1.34671" stroke-linecap="round"/>
<path d="M123.112 81.915L127.026 85.6044" stroke="black" stroke-width="1.34671" stroke-linecap="round"/>
<path d="M101.426 75.392C102.216 75.392 102.856 74.7514 102.856 73.9611C102.856 73.1709 102.216 72.5303 101.426 72.5303C100.635 72.5303 99.9946 73.1709 99.9946 73.9611C99.9946 74.7514 100.635 75.392 101.426 75.392Z" fill="black"/>
<path d="M79.8776 75.9252C80.6679 75.9252 81.3085 75.2846 81.3085 74.4944C81.3085 73.7041 80.6679 73.0635 79.8776 73.0635C79.0874 73.0635 78.4468 73.7041 78.4468 74.4944C78.4468 75.2846 79.0874 75.9252 79.8776 75.9252Z" fill="black"/>
<path d="M43.7273 249.805L35.3384 197.424" stroke="white" stroke-width="1.34671" stroke-linecap="round"/>
</g>
<defs>
<clipPath id="clip0_3_13376">
<rect x="0.000976562" y="0.583984" width="198.663" height="198.663" rx="99.3317" fill="white"/>
</clipPath>
</defs>
</svg>
