<svg width="200" height="200" viewBox="0 0 200 200" fill="none" xmlns="http://www.w3.org/2000/svg">
<g clip-path="url(#clip0_3_12531)">
<rect x="0.868164" y="0.395996" width="198.663" height="198.663" rx="99.3317" fill="#FFF738"/>
<path d="M7.81979 210.669C7.90933 207.088 7.9541 203.551 8.04364 200.014C8.53611 172.928 21.6986 149.648 39.6515 134.649C50.9336 133.933 62.2604 133.53 73.5872 133.62C92.2564 133.754 111.463 133.888 130.043 137.022C130.311 137.291 130.625 137.56 130.893 137.873C145.936 153.722 155.069 177.047 157.532 202.7C158.069 208.341 158.337 214.117 158.203 219.937C157.173 274.467 156.099 328.997 155.069 383.572L141.638 383.169L31.4137 379.901C30.6526 378.782 29.8915 377.707 29.1752 376.633C26.1308 371.35 22.594 366.336 19.9526 361.814C15.9232 354.874 12.073 347.711 7.95412 340.817C7.19303 338.802 6.38712 336.832 5.44694 334.952C5.53648 330.743 5.62607 326.58 5.71561 322.371C6.38716 285.122 7.10347 247.873 7.81979 210.669Z" fill="#FE4E4E"/>
<path d="M48.6939 95.2964C50.037 93.4608 51.8726 92.0281 53.5291 90.5059C58.9016 85.7155 59.6626 82.8054 60.9609 75.687C63.3337 62.4797 68.6167 59.704 81.9582 56.1672C93.9119 52.9885 107.701 50.347 118.491 55.5851C120.416 52.0035 127.221 52.1378 128.206 57.3312C129.504 64.1362 144.816 64.181 149.696 68.6581C153.591 72.1949 155.381 76.9406 154.083 82.1339C152.292 89.1628 148.308 92.6101 151.352 100.49C153.367 105.683 155.023 110.876 152.785 116.383C147.636 129.098 132.414 127.934 121.311 127.486C104.388 126.859 89.2557 129.949 72.243 128.023C60.0655 126.636 47.7985 124.352 45.2913 111.682C44.2168 105.952 45.1571 100.042 48.6939 95.2964Z" fill="#23355F"/>
<path d="M118.849 72.822C133.623 63.1516 137.742 64.4051 140.25 70.7177C142.757 77.0303 140.608 80.7463 128.923 87.1036C117.238 93.461 118.849 72.822 118.849 72.822Z" fill="#F7ACA9"/>
<path d="M78.824 64.7633C79.1821 64.629 79.5403 64.5395 79.8984 64.4052C84.5098 62.9725 89.0763 61.5399 93.5085 59.6595C102.239 55.9883 110.7 51.7352 118.983 47.2134C120.998 48.4222 122.744 50.213 124.445 52.8097C127.041 56.7942 131.071 58.7641 130.892 63.9127L129.817 94.7146C129.504 104.161 123.728 112.085 115.67 115.712C114.506 121.487 113.297 127.218 112.133 132.993C110.029 143.29 97.0454 148.573 87.8227 145.708C78.9582 142.932 74.6603 135.142 74.5708 126.77C78.0629 114.279 79.1821 101.475 79.3164 88.402C79.4507 81.5074 80.1671 72.5981 78.824 64.7633Z" fill="#F7ACA9"/>
<path d="M107.748 39.1548H107.793C121 39.6025 131.342 50.7055 130.894 63.9127L130.76 67.4048C125.253 55.1378 113.479 50.4369 107.748 39.1548Z" fill="#23355F"/>
<path d="M79.8991 69.9116C78.2426 69.4191 76.4518 69.1057 74.5266 68.2551L74.7057 61.8977C75.1534 48.6904 86.2564 38.3485 99.4636 38.7962L107.791 39.0648C115.894 39.3335 122.834 43.6314 126.953 49.944C112.805 59.7039 96.7774 67.0463 79.8991 69.9116Z" fill="#23355F"/>
<path d="M87.1063 73.4933C72.3321 63.823 68.2132 65.0765 65.7061 71.3891C63.199 77.7017 65.348 81.4177 77.033 87.775C88.718 94.1324 87.1063 73.4933 87.1063 73.4933Z" fill="#F7ACA9"/>
<path d="M83.3463 81.7315C81.2869 77.5231 77.75 74.434 73.4073 72.7775C72.1985 72.3298 71.5718 74.2549 72.7806 74.7026C76.6756 76.18 79.7199 79.0006 81.5555 82.6717C82.0927 83.8805 83.9283 82.8956 83.3463 81.7315Z" fill="#23355F"/>
<path d="M112.85 77.6567C112.134 76.5822 110.298 77.5224 111.059 78.6417C113.074 81.5517 117.193 89.2075 110.88 90.2819C109.582 90.5058 110.074 92.4757 111.373 92.2518C114.014 91.8041 115.805 89.6104 116.253 87.0137C116.79 83.5216 114.731 80.3877 112.85 77.6567Z" fill="#23355F"/>
<path d="M115.672 115.936C109.807 116.249 103.942 116.16 98.0769 115.712C96.7786 115.622 96.8233 117.637 98.1216 117.771C103.986 118.219 109.851 118.309 115.716 117.995C117.015 117.906 116.97 115.891 115.672 115.936Z" fill="#23355F"/>
<path d="M97.1807 67.673C95.7928 67.9417 94.4049 68.2103 92.9722 68.4789C91.6739 68.7475 91.9873 70.7622 93.2856 70.4936C94.6735 70.2249 96.0614 69.9563 97.4941 69.6877C98.7924 69.4191 98.479 67.4044 97.1807 67.673Z" fill="#23355F"/>
<path d="M124.537 67.494L121.492 67.1358C120.194 67.0015 119.97 69.0162 121.268 69.1505L124.313 69.5086C125.611 69.6877 125.835 67.6731 124.537 67.494Z" fill="#23355F"/>
<path d="M123.327 74.3886C125.7 75.5079 123.954 79.179 121.581 78.0598C119.208 76.9405 120.954 73.2246 123.327 74.3886Z" fill="#23355F"/>
<path d="M97.0924 73.9856C99.4652 75.1049 97.7192 78.7761 95.3464 77.6568C92.9736 76.5376 94.7196 72.8664 97.0924 73.9856Z" fill="#23355F"/>
<path d="M131.25 75.418C132.056 74.5226 132.817 73.6272 133.623 72.687C134.473 71.7021 135.906 73.1347 135.055 74.1196C134.25 75.015 133.488 75.9105 132.683 76.8506C131.832 77.8356 130.399 76.4029 131.25 75.418Z" fill="#23355F"/>
<path d="M76.0938 31.1855C79.5411 26.3951 85.9433 26.3055 90.4203 29.7081C95.0764 33.2449 97.6283 39.1546 99.4639 44.5718C101.031 49.1384 96.1061 51.7798 92.5693 50.3919C87.2416 50.3024 81.6901 49.6308 77.7056 45.7358C73.7658 41.8856 72.8256 35.7521 76.0938 31.1855Z" fill="#23355F"/>
<path d="M96.5965 94.983C97.2233 98.2512 99.5961 100.803 102.775 101.609C104.028 101.922 103.491 103.892 102.237 103.579C98.3873 102.594 95.3877 99.4153 94.6266 95.5202C94.4027 94.2219 96.3727 93.6847 96.5965 94.983Z" fill="#23355F"/>
<path d="M115.94 145.931C120.462 137.872 147.234 129.5 149.249 130.217C218.374 155.109 273.487 209.191 260.548 265.154C259.115 271.467 256.877 277.421 254.056 282.973C237.312 272.9 221.732 261.08 205.167 250.738C205.212 250.022 205.302 249.306 205.302 248.5C205.481 234.263 187.528 216.713 166.262 202.61C148.578 190.925 128.655 181.658 115.045 178.792C117.328 169.704 111.284 154.258 115.94 145.931Z" fill="#FE4E4E"/>
<path d="M40.8608 129.367C41.398 129.188 57.1571 138.187 57.6943 138.008C69.8271 153.364 63.6488 161.646 71.8418 179.375C70.9016 179.644 69.9166 179.913 68.8869 180.136C52.8144 183.405 27.6536 195.806 7.95465 210.67C-8.16264 222.802 -20.6088 236.547 -21.5937 248.232C-39.0541 257.455 -56.7384 266.23 -74.5122 274.825C-75.4523 272.139 -76.303 269.408 -76.9298 266.543C-90.3161 208.789 -31.3089 153.095 40.8608 129.367Z" fill="#FE4E4E"/>
<path d="M138.458 126.635C142.085 127.755 145.711 128.963 149.248 130.262C145.711 133.082 141.995 135.634 138.1 137.873C126.057 144.857 112.402 148.886 98.4786 149.423C94.0911 149.602 89.6141 149.423 85.2266 148.886C84.958 148.841 84.6446 148.841 84.376 148.797C69.8704 146.827 56.126 141.051 44.5753 132.321C43.3217 131.381 42.0681 130.396 40.8593 129.366C91.6288 116.607 132.817 124.845 138.458 126.635Z" fill="#F7ACA9"/>
<path d="M5.40339 208.475C13.9097 202.431 22.998 197.462 32.6236 193.477C33.8324 192.985 34.3697 194.955 33.1609 195.447C23.7144 199.387 14.8051 204.356 6.43301 210.266C5.35853 210.982 4.3289 209.236 5.40339 208.475Z" fill="#23355F"/>
<path d="M109.673 135.007C110.479 131.963 112.941 119.651 113.702 116.607C114.015 115.353 115.985 115.89 115.672 117.144C114.866 120.188 112.404 132.5 111.643 135.544C111.329 136.843 109.359 136.305 109.673 135.007Z" fill="#23355F"/>
</g>
<defs>
<clipPath id="clip0_3_12531">
<rect x="0.868164" y="0.395996" width="198.663" height="198.663" rx="99.3317" fill="white"/>
</clipPath>
</defs>
</svg>
