<svg width="200" height="200" viewBox="0 0 200 200" fill="none" xmlns="http://www.w3.org/2000/svg">
<g clip-path="url(#clip0_3_12948)">
<rect x="0.446777" y="0.791992" width="198.663" height="198.663" rx="99.3317" fill="#8DBBFF"/>
<path d="M138.727 132.893C134.249 136.811 128.776 139.299 122.868 140.605V140.791L125.853 160.008C126.475 163.802 126.289 167.719 125.107 171.451C122.744 178.851 116.96 184.822 109.622 187.185C102.657 189.424 94.8829 188.242 88.6017 184.324C82.3206 180.468 78.216 173.876 77.0966 166.6L74.2981 148.627L71.313 129.473C74.5469 126.363 76.6613 122.134 76.9722 117.346C77.0966 114.983 76.8479 112.619 76.1638 110.505C76.2882 95.1441 76.4125 79.7833 76.5369 64.4224C86.3629 59.696 96.7486 55.0318 107.756 50.4297C115.405 47.2581 122.868 44.273 130.144 41.5366C154.336 64.1737 160.244 113.925 138.727 132.893Z" fill="#FF1EAD"/>
<path d="M137.848 62.6749C143.315 60.8296 147.222 57.7771 146.574 55.8571C145.926 53.937 140.969 53.8765 135.501 55.7218C130.034 57.5671 126.127 60.6195 126.775 62.5396C127.424 64.4596 132.381 64.5202 137.848 62.6749Z" fill="black"/>
<path d="M97.0933 77.6573C102.457 75.5309 106.2 72.2801 105.454 70.3963C104.707 68.5126 99.7531 68.7092 94.3891 70.8355C89.0251 72.9618 85.2821 76.2126 86.0289 78.0964C86.7756 79.9802 91.7293 79.7836 97.0933 77.6573Z" fill="black"/>
<path d="M119.385 118.9C112.358 118.9 106.014 112.992 105.952 112.93C105.828 112.806 105.828 112.557 105.952 112.433C106.077 112.308 106.325 112.246 106.45 112.433C106.574 112.557 118.39 123.565 127.345 114.796C127.47 114.672 127.719 114.672 127.843 114.796C127.967 114.92 127.967 115.169 127.843 115.293C125.169 117.968 122.246 118.9 119.385 118.9Z" fill="black"/>
<path d="M130.642 97.8186L122.495 82.9553L119.759 77.9179L115.405 69.9576C115.281 69.7711 115.094 69.7089 114.908 69.8333C114.721 69.9576 114.659 70.1442 114.783 70.3308L129.833 97.8186L116.089 102.607C115.903 102.669 115.778 102.918 115.841 103.105C115.903 103.229 116.027 103.354 116.214 103.354C116.276 103.354 116.276 103.354 116.338 103.354L130.455 98.4405C130.58 98.4405 130.642 98.3161 130.704 98.1918C130.704 98.0052 130.704 97.8808 130.642 97.8186Z" fill="black"/>
<path d="M114.971 141.849C109.374 141.849 102.222 140.854 94.9457 137.309C94.7592 137.247 94.697 136.998 94.7592 136.811C94.8213 136.625 95.0701 136.563 95.2567 136.625C106.575 142.16 117.396 141.413 122.807 140.418C122.993 140.356 123.18 140.543 123.242 140.729C123.304 140.916 123.118 141.103 122.931 141.165C120.941 141.538 118.205 141.849 114.971 141.849Z" fill="black"/>
<path d="M130.082 41.4745C122.806 44.2108 115.343 47.1959 107.694 50.3676C96.686 54.9696 86.3003 59.6339 76.4743 64.3603C76.3499 79.7211 76.2255 95.082 76.1012 110.443C73.8623 103.415 67.519 98.1293 59.6831 97.6318C58.5637 97.5696 57.5065 97.5696 56.4492 97.6939C56.0761 96.5123 55.7651 95.3307 55.4542 94.1491C55.392 93.776 55.2676 93.465 55.2054 93.0919C55.2054 93.0297 55.2054 93.0297 55.1432 92.9675C55.0189 92.2834 54.8323 91.6615 54.7079 90.9774C54.6457 90.6043 54.5835 90.2934 54.5213 89.9202C54.4592 89.5471 54.397 89.2361 54.3348 88.863C54.1482 87.7436 53.9616 86.6242 53.8373 85.5048C53.7751 84.8829 53.7129 84.261 53.6507 83.6391C53.5885 83.2659 53.5885 82.8928 53.5885 82.5197C53.5885 82.2087 53.5263 81.8978 53.5263 81.649C53.5263 81.4624 53.5263 81.3381 53.5263 81.1515C53.5263 80.8405 53.5263 80.5296 53.4641 80.2186C53.4019 79.0992 53.4019 78.042 53.4641 76.9848C53.4641 76.6738 53.4641 76.3629 53.4641 75.9897C53.4641 75.3678 53.5263 74.7459 53.5263 74.1862V73.9375C53.5263 73.7509 53.5263 73.6265 53.5885 73.44C53.5885 73.129 53.6507 72.8181 53.6507 72.5071C53.6507 72.2584 53.7129 72.0718 53.7129 71.823C53.7129 71.7608 53.7129 71.6986 53.7129 71.6986C54.397 65.6662 56.7602 54.9074 64.907 44.9571C76.7853 31.7729 97.8675 26.238 114.597 32.0838C119.199 33.7008 123.428 36.1883 127.283 39.2978C128.341 39.9197 129.211 40.666 130.082 41.4745Z" fill="black"/>
<path d="M114.659 79.9697C118.204 88.1166 114.472 97.756 106.325 101.363C98.1785 104.908 88.5391 101.176 84.9321 93.0296C94.8203 88.6141 104.771 84.323 114.659 79.9697Z" fill="#D5E0EA"/>
<path d="M140.405 87.3708C133.937 89.7962 126.847 87.8062 122.494 82.8932L119.758 77.8558C129.833 74.0622 139.845 70.2687 149.92 66.4751C153.029 74.8085 148.738 84.2614 140.405 87.3708Z" fill="#D5E0EA"/>
<path d="M113.167 81.7736C113.042 81.7736 112.856 81.7114 112.794 81.5248C112.109 79.7835 112.172 77.8556 112.98 76.1143C113.726 74.5596 115.095 73.378 116.649 72.8805C119.634 72.0098 122.93 73.6889 124.236 76.674C124.299 76.8606 124.236 77.1094 124.05 77.1715C123.863 77.2337 123.615 77.1715 123.552 76.985C122.433 74.3108 119.448 72.8183 116.898 73.6267C115.53 74.0621 114.348 75.0571 113.664 76.4875C112.918 77.98 112.856 79.7213 113.478 81.2761C113.54 81.4626 113.478 81.7114 113.291 81.7736C113.291 81.7736 113.229 81.7736 113.167 81.7736Z" fill="black"/>
<path d="M105.268 102.109C105.144 102.109 105.082 102.047 105.019 101.985C104.149 101.052 99.982 96.2014 102.159 92.7187C103.838 90.0446 102.594 86.8107 102.034 85.5047C101.972 85.3182 102.034 85.0694 102.221 85.0072C102.407 84.945 102.656 85.0072 102.718 85.1938C103.402 86.562 104.708 90.1068 102.843 93.0919C100.915 96.1392 104.771 100.617 105.579 101.487C105.703 101.612 105.703 101.861 105.579 101.985C105.455 102.109 105.33 102.109 105.268 102.109Z" fill="white"/>
<path d="M138.976 88.2416C138.851 88.2416 138.727 88.1794 138.665 88.1172C137.359 86.4381 134.622 82.2092 136.737 79.2241C138.851 76.239 137.11 72.2588 136.737 71.5125C136.675 71.326 136.737 71.0772 136.924 71.015C137.11 70.9528 137.359 71.015 137.421 71.2016C137.794 72.0101 139.722 76.3633 137.359 79.6594C135.555 82.2092 138.105 86.1271 139.287 87.6819C139.411 87.8684 139.411 88.055 139.225 88.1794C139.162 88.2416 139.038 88.2416 138.976 88.2416Z" fill="white"/>
<path d="M89.7834 94.3363L71.6862 103.105C71.4996 102.918 71.313 102.732 71.1265 102.545L89.4724 93.6522C89.659 93.59 89.9078 93.6522 89.97 93.8388C90.0943 94.0254 89.97 94.2119 89.7834 94.3363Z" fill="black"/>
<path d="M108.503 92.2221C110.289 92.2221 111.737 90.7743 111.737 88.9883C111.737 87.2022 110.289 85.7544 108.503 85.7544C106.717 85.7544 105.269 87.2022 105.269 88.9883C105.269 90.7743 106.717 92.2221 108.503 92.2221Z" fill="black"/>
<path d="M143.267 78.416C145.053 78.416 146.5 76.9681 146.5 75.1821C146.5 73.3961 145.053 71.9482 143.267 71.9482C141.481 71.9482 140.033 73.3961 140.033 75.1821C140.033 76.9681 141.481 78.416 143.267 78.416Z" fill="black"/>
<path d="M76.164 110.443C75.2933 107.644 73.7386 105.157 71.6863 103.104C71.4998 102.918 71.3132 102.731 71.1266 102.545C68.1415 99.7461 64.1614 97.9426 59.7459 97.6317C58.6265 97.5695 57.5693 97.5695 56.512 97.6939C47.7433 98.6267 40.7159 105.779 40.094 114.858C39.4099 125.057 47.1214 133.826 57.3205 134.51C62.6688 134.883 67.7062 132.893 71.3132 129.473C74.5471 126.363 76.6615 122.134 76.9724 117.346C77.0968 114.858 76.8481 112.557 76.164 110.443Z" fill="#FF1EAD"/>
<path d="M69.1365 124.062C69.0743 124.062 68.9499 124.062 68.8877 124C68.0793 123.44 66.7111 122.134 66.2136 120.02C65.4051 116.786 67.2708 114.236 68.0793 113.241L49.9821 103.602C49.7955 103.477 49.7333 103.291 49.8577 103.104C49.9821 102.918 50.1686 102.855 50.3552 102.98L68.8877 112.868C69.0121 112.93 69.0743 113.054 69.0743 113.117C69.0743 113.241 69.0743 113.365 68.9499 113.428C68.8255 113.552 66.0892 116.288 66.9598 119.833C67.3952 121.699 68.639 122.88 69.3852 123.378C69.5718 123.502 69.5718 123.751 69.4474 123.876C69.3852 124 69.2609 124.062 69.1365 124.062Z" fill="black"/>
<path d="M397.871 167.595C396.255 170.332 393.021 171.513 390.098 170.643C386.366 184.573 382.137 196.514 378.095 206.402C377.784 207.21 377.411 208.019 377.1 208.827C377.038 208.951 376.976 209.076 376.914 209.2C376.105 211.066 375.359 212.807 374.613 214.549C374.488 214.86 374.302 215.233 374.177 215.544C373.866 216.228 373.555 216.85 373.307 217.471C373.12 217.907 372.871 218.404 372.685 218.84C372.436 219.399 372.187 219.959 371.938 220.519C371.69 221.016 371.503 221.452 371.254 221.949C369.326 226.116 367.461 229.972 365.471 233.703C364.724 235.071 363.978 236.439 363.232 237.807C362.859 238.429 362.486 239.051 362.112 239.673C361.739 240.295 361.366 240.917 360.993 241.539C360.682 242.036 360.371 242.472 360.122 242.969C359.625 243.716 359.189 244.4 358.692 245.146C358.194 245.892 357.697 246.576 357.137 247.323C356.018 248.815 354.898 250.37 353.655 251.862C353.095 252.546 352.535 253.168 351.975 253.852C351.602 254.288 351.229 254.785 350.794 255.221C343.207 263.865 331.266 277.485 311.117 284.574C285.308 293.654 261.8 286.502 248.927 282.646C236.862 278.977 227.472 274.126 221.377 270.519C221.191 282.584 221.253 295.022 221.564 307.957C221.626 311.129 221.75 314.301 221.875 317.472C221.937 319.089 221.999 320.706 222.061 322.323C222.683 338.617 223.74 354.289 225.109 369.214C225.171 370.023 225.233 370.831 225.295 371.64C225.046 371.702 224.86 371.702 224.611 371.764C220.88 372.386 217.148 373.008 213.417 373.63C209.437 374.252 205.519 374.936 201.539 375.62C197.932 376.242 194.325 376.801 190.718 377.423C182.073 378.854 173.429 380.346 164.785 381.777C159.374 382.709 153.901 383.642 148.491 384.575C133.938 387.063 119.386 389.612 104.896 392.162C101.911 392.66 98.9257 393.219 95.8784 393.779C94.5724 394.028 93.2664 394.277 91.8982 394.463C85.928 395.521 79.8956 396.578 73.9254 397.697C68.2039 398.754 62.4203 399.749 56.6988 400.807C53.3406 401.428 49.9824 402.05 46.5619 402.672C42.5818 403.419 38.6016 404.103 34.6215 404.849V370.645C-17.7422 382.772 -38.4514 373.132 -47.7177 362.622C-48.3396 361.938 -48.8993 361.192 -49.459 360.446C-49.5833 360.321 -49.7077 360.135 -49.8321 359.948C-50.0187 359.699 -50.2052 359.388 -50.3918 359.14C-50.7028 358.642 -51.0137 358.145 -51.3247 357.647C-51.5112 357.274 -51.76 356.963 -51.9466 356.59C-52.2575 356.03 -52.5685 355.47 -52.8794 354.911C-53.0038 354.6 -53.1903 354.351 -53.3147 354.04C-53.3147 353.978 -53.3769 353.978 -53.3769 353.916C-53.5013 353.605 -53.6257 353.356 -53.7501 353.045C-53.8744 352.734 -54.061 352.423 -54.1854 352.112C-54.4341 351.49 -54.6829 350.868 -54.9317 350.246C-55.056 349.873 -55.1804 349.5 -55.3048 349.127C-55.6779 348.132 -55.9889 347.075 -56.2376 346.018C-56.362 345.644 -56.4242 345.333 -56.5486 344.96C-56.6108 344.649 -56.673 344.338 -56.7974 344.027C-56.7974 343.903 -56.8595 343.841 -56.8595 343.716C-56.9217 343.406 -56.9839 343.095 -57.1083 342.784C-57.1705 342.411 -57.2327 342.037 -57.3571 341.664C-57.4192 341.229 -57.5436 340.856 -57.6058 340.42C-57.7302 339.861 -57.7924 339.301 -57.9168 338.741C-58.1033 337.622 -58.2277 336.44 -58.3521 335.259C-58.4143 334.637 -58.4765 334.077 -58.5387 333.455C-58.6009 333.082 -58.6009 332.647 -58.663 332.211C-58.7252 331.403 -58.7874 330.532 -58.7874 329.724C-58.7874 329.288 -58.8496 328.915 -58.8496 328.48C-58.8496 328.045 -58.8496 327.609 -58.8496 327.174C-58.8496 326.739 -58.8496 326.241 -58.8496 325.806C-58.8496 325.246 -58.8496 324.624 -58.8496 324.065C-58.8496 323.567 -58.8496 323.07 -58.7874 322.572C-58.7874 322.385 -58.7874 322.199 -58.7874 322.012C-58.7874 321.701 -58.7874 321.453 -58.7252 321.142C-58.7252 320.769 -58.7252 320.395 -58.663 319.96C-58.663 319.898 -58.663 319.836 -58.663 319.836C-58.663 319.338 -58.6009 318.778 -58.5387 318.219C-58.5387 318.094 -58.5387 317.97 -58.5387 317.846C-58.4765 317.348 -58.4765 316.851 -58.4143 316.291C-58.2899 314.487 -58.0411 312.622 -57.7924 310.756C-57.7302 310.321 -57.668 309.823 -57.6058 309.388C-57.4814 308.517 -57.3571 307.709 -57.2327 306.838C-57.2327 306.776 -57.2327 306.651 -57.1705 306.589C-57.1083 306.216 -57.0461 305.781 -56.9839 305.408C-56.8595 304.661 -56.7352 303.915 -56.6108 303.169C-56.5486 302.92 -56.4864 302.609 -56.4864 302.36C-56.4242 302.049 -56.362 301.676 -56.2998 301.365C-56.2376 300.93 -56.1133 300.432 -56.0511 299.997C-55.8645 299.064 -55.6779 298.131 -55.4292 297.261C-55.1182 295.893 -54.8073 294.587 -54.4963 293.218C-54.4963 293.156 -54.4963 293.156 -54.4963 293.094C-54.372 292.597 -54.2476 292.161 -54.1232 291.726C-53.8744 290.793 -53.6257 289.86 -53.3769 288.927C-53.066 287.87 -52.755 286.813 -52.4441 285.756C-52.1953 284.947 -51.9466 284.077 -51.6978 283.268C-51.5734 282.833 -51.449 282.46 -51.3247 282.024C-51.1381 281.465 -51.0137 280.967 -50.8271 280.407C-50.7028 279.91 -50.5162 279.475 -50.3296 278.977C-50.2052 278.604 -50.0809 278.169 -49.9565 277.795C-49.0858 275.308 -48.2152 272.82 -47.2201 270.333C-46.847 269.4 -46.4739 268.405 -46.1007 267.41C-45.4788 265.979 -44.9191 264.487 -44.2972 263.057C-44.1107 262.559 -43.8619 262.061 -43.6753 261.626C-43.0534 260.134 -42.3693 258.703 -41.6853 257.273C-41.4365 256.775 -41.2499 256.278 -41.0012 255.842C-40.0683 253.852 -39.1355 251.925 -38.1404 249.934C-37.8917 249.437 -37.6429 248.939 -37.3942 248.442C-37.021 247.758 -36.6479 247.012 -36.2748 246.327C-36.1504 246.017 -35.9638 245.706 -35.7772 245.395C-35.5907 244.959 -35.3419 244.586 -35.0931 244.151C-34.8444 243.716 -34.6578 243.28 -34.4091 242.907C-33.8494 241.912 -33.2896 240.855 -32.6677 239.86C-32.419 239.424 -32.1702 238.927 -31.9215 238.492C-30.3045 235.693 -28.6254 232.957 -26.8841 230.22C-26.6353 229.847 -26.3866 229.412 -26.1378 229.039C-25.4537 227.982 -24.7697 226.986 -24.1478 225.929C-23.8368 225.494 -23.5881 225.059 -23.2771 224.623C-20.8517 221.016 -18.3019 217.534 -15.69 214.051C-14.7571 212.807 -13.8243 211.626 -12.8292 210.382C-12.4561 209.884 -12.083 209.449 -11.7098 209.014C-11.3989 208.641 -11.1501 208.267 -10.8392 207.956C-10.6526 207.708 -10.466 207.521 -10.2795 207.272C-8.10282 204.66 -5.92618 202.111 -3.62517 199.561C-3.25203 199.126 -2.81669 198.69 -2.44356 198.255C-1.19976 196.887 0.10622 195.519 1.4122 194.15C1.78534 193.777 2.09629 193.404 2.46943 193.093C2.90475 192.658 3.27789 192.222 3.71322 191.849C8.43964 187.123 13.4148 182.645 18.6387 178.416C19.0741 178.043 19.5716 177.67 20.0069 177.297C20.5666 176.862 21.1263 176.426 21.686 175.991C22.0592 175.68 22.4945 175.369 22.9298 175.058C23.2408 174.809 23.5517 174.561 23.8627 174.374C24.0493 174.25 24.2358 174.063 24.4224 173.939C25.0443 173.503 25.6662 173.006 26.2881 172.571C26.6612 172.322 27.0344 172.011 27.4075 171.762C27.905 171.389 28.4025 171.078 28.9001 170.705C28.9001 170.705 28.9001 170.705 28.9622 170.705C29.3354 170.456 29.7085 170.207 30.0817 169.959C30.206 169.896 30.3304 169.772 30.4548 169.71C30.9523 169.399 31.4498 169.026 32.0095 168.715C32.5071 168.342 33.0668 168.031 33.5643 167.72C33.9374 167.471 34.3105 167.222 34.6837 166.973C34.9946 166.725 35.3678 166.538 35.7409 166.289C36.3628 165.916 36.9847 165.543 37.6066 165.17C37.9797 164.921 38.4151 164.672 38.7882 164.424C42.5818 162.185 46.4997 160.07 50.4799 158.08C50.7908 157.956 51.1018 157.769 51.3505 157.645C51.9102 157.396 52.4077 157.147 52.9674 156.899C56.4501 155.282 63.7263 152.048 73.8632 148.938L76.6617 166.911C77.7811 174.187 81.9479 180.78 88.1668 184.635C94.448 188.491 102.284 189.735 109.187 187.496C116.463 185.133 122.247 179.163 124.672 171.762C125.854 168.093 126.04 164.175 125.418 160.319L122.433 141.103C132.695 140.978 143.702 141.787 155.083 144.088C227.72 158.329 251.539 218.653 292.025 210.755C292.771 210.631 293.579 210.444 294.326 210.257C294.574 210.195 294.823 210.133 295.072 210.071C295.321 210.009 295.569 209.947 295.88 209.822C296.129 209.76 296.378 209.698 296.627 209.573H296.689C296.689 209.573 296.689 209.573 296.751 209.573L297.124 209.449C297.249 209.387 297.373 209.387 297.497 209.325C297.746 209.262 297.995 209.138 298.244 209.076C298.555 208.951 298.865 208.827 299.239 208.703C299.487 208.641 299.674 208.516 299.923 208.392C300.171 208.267 300.482 208.143 300.731 208.019C302.037 207.459 303.343 206.775 304.711 206.029C304.774 206.029 304.836 205.966 304.836 205.966C305.084 205.842 305.333 205.655 305.644 205.531C306.204 205.22 306.764 204.847 307.385 204.474C307.696 204.287 307.945 204.101 308.194 203.914C308.505 203.728 308.754 203.541 309.065 203.354C309.624 202.981 310.184 202.546 310.744 202.111C311.055 201.924 311.303 201.675 311.614 201.427C312.734 200.494 313.915 199.499 315.035 198.441C315.284 198.193 315.532 197.944 315.781 197.757C316.092 197.446 316.403 197.135 316.776 196.825C317.025 196.638 317.211 196.389 317.398 196.14C317.585 195.954 317.771 195.767 317.958 195.581C318.269 195.27 318.58 194.897 318.891 194.586C320.507 192.844 322.124 190.916 323.741 188.802C323.99 188.491 324.239 188.118 324.488 187.807C324.799 187.372 325.172 186.936 325.483 186.501C325.794 186.128 326.042 185.693 326.353 185.257C326.353 185.195 326.416 185.133 326.478 185.133C326.726 184.76 326.975 184.387 327.224 184.013C327.286 183.951 327.348 183.827 327.411 183.765C327.659 183.392 327.908 183.081 328.095 182.707C328.343 182.334 328.592 181.961 328.841 181.588C328.903 181.526 328.965 181.401 328.965 181.339C329.276 180.904 329.525 180.406 329.836 179.971C330.396 179.038 331.018 178.105 331.577 177.11C331.888 176.551 332.261 175.991 332.572 175.369C332.821 174.934 333.07 174.498 333.319 174.063C333.567 173.69 333.754 173.255 334.003 172.881C334.376 172.197 334.749 171.575 335.06 170.891C335.309 170.394 335.557 169.896 335.806 169.399C335.868 169.274 335.931 169.15 335.993 169.026C336.241 168.528 336.49 168.031 336.739 167.533C337.61 165.792 338.48 163.988 339.351 162.123C339.662 161.501 339.911 160.879 340.222 160.257C340.781 158.951 341.341 157.645 341.963 156.339C342.398 155.282 342.896 154.225 343.331 153.105C344.264 150.742 345.259 148.317 346.192 145.767L343.455 144.212C340.284 142.346 339.164 138.242 341.03 135.07C342.274 132.956 344.513 131.712 346.876 131.712C347.995 131.712 349.177 132.023 350.234 132.583L350.732 132.894L354.587 135.132L354.898 135.319L393.456 157.583H393.518L395.57 158.764C398.556 160.319 399.675 164.424 397.871 167.595Z" fill="#290060"/>
<path d="M30.4524 169.647C30.4524 172.197 28.3379 174.311 25.7881 174.311C25.2284 174.311 24.7309 174.187 24.2334 174C24.42 173.876 24.6065 173.69 24.7931 173.565C25.415 173.13 26.0369 172.632 26.6588 172.197C27.0319 171.948 27.4051 171.637 27.7782 171.388C28.2757 171.015 28.7732 170.704 29.2708 170.331C29.2708 170.331 29.2708 170.331 29.3329 170.331C29.7061 170.082 30.0792 169.834 30.4524 169.585C30.4524 169.585 30.4524 169.647 30.4524 169.647Z" fill="#D5E0EA"/>
<path d="M186.302 174.311C188.878 174.311 190.966 172.223 190.966 169.647C190.966 167.071 188.878 164.983 186.302 164.983C183.726 164.983 181.638 167.071 181.638 169.647C181.638 172.223 183.726 174.311 186.302 174.311Z" fill="#D5E0EA"/>
<path d="M102.473 188.615C97.684 188.615 92.7088 187.247 88.4799 184.572C82.1988 180.717 77.9699 174.124 76.7883 166.6L73.9897 148.627C73.9275 148.44 74.1141 148.254 74.3007 148.191C74.4873 148.191 74.6738 148.316 74.736 148.502L77.5346 166.475C78.654 173.814 82.8207 180.157 88.9153 183.95C95.2586 187.868 102.97 188.926 109.624 186.749C116.776 184.448 122.498 178.664 124.861 171.264C125.98 167.843 126.229 163.925 125.607 160.007C125.545 159.821 125.732 159.634 125.918 159.572C126.105 159.51 126.291 159.697 126.353 159.883C126.975 163.925 126.727 167.906 125.545 171.45C123.057 179.1 117.212 185.008 109.811 187.433C107.386 188.242 104.96 188.615 102.473 188.615Z" fill="#D5E0EA"/>
</g>
<defs>
<clipPath id="clip0_3_12948">
<rect x="0.446777" y="0.791992" width="198.663" height="198.663" rx="99.3317" fill="white"/>
</clipPath>
</defs>
</svg>
