<svg width="199" height="199" viewBox="0 0 199 199" fill="none" xmlns="http://www.w3.org/2000/svg">
<g clip-path="url(#clip0_3_12716)">
<rect x="0.000976562" y="0.187988" width="198.663" height="198.663" rx="99.3317" fill="#ACC3FF"/>
<g clip-path="url(#clip1_3_12716)">
<path d="M193.368 222.029C193.368 269.939 154.528 308.779 106.618 308.779C58.7073 308.779 19.8682 269.939 19.8682 222.029C19.8682 192.525 34.4459 165.52 56.952 149.848C70.9926 140.071 88.2114 135.279 106.618 135.279C154.528 135.279 193.368 174.118 193.368 222.029Z" fill="white"/>
<path d="M97.4146 194.087C96.7688 194.279 96.0269 194.148 95.4549 193.704C94.6013 192.903 94.4828 191.62 95.2591 190.686L109.627 174.014C110.428 173.16 111.711 173.042 112.645 173.818C113.499 174.618 113.617 175.901 112.841 176.836L98.4726 193.508C98.1171 193.789 97.7375 193.99 97.4146 194.087Z" fill="#1F0D60"/>
<path d="M133.384 141.362C130.575 146.681 127.789 152.081 124.979 157.4C124.809 157.714 124.534 157.972 124.235 158.149C123.638 158.503 122.782 158.582 122.154 158.242C121.106 157.675 120.721 156.383 121.312 155.416L128.907 141.377C129.496 141.29 132.828 141.264 133.384 141.362Z" fill="#1F0D60"/>
<path d="M68.761 183.464C68.4776 183.987 68.0414 184.293 67.5571 184.437C66.992 184.606 66.4355 184.508 65.9116 184.224L52.8892 176.503C53.1503 175.019 53.3306 173.559 53.5676 171.994L67.976 180.533C69.0478 181.181 69.3518 182.497 68.761 183.464Z" fill="#1F0D60"/>
<path d="M127.56 89.6604C120.403 85.9919 111.595 88.8793 107.951 96.117C107.951 96.117 100.385 91.0763 105.29 66.2374C109.803 43.6244 80.5659 51.9825 72.3113 44.3345C68.9982 47.0792 66.1283 50.1313 63.7908 53.2006C62.0115 55.4883 57.96 60.4744 54.9442 68.0522C54.0443 70.3416 53.1032 73.0828 52.3389 76.1228C47.9579 92.9838 46.9571 118.242 63.5005 128.342C66.8205 130.341 70.6421 131.664 74.8603 132.253L75.3072 147.324C75.6235 159.006 85.5046 168.279 97.1871 167.963C108.87 167.647 118.142 157.765 117.826 146.083L116.992 118.208C116.946 117.167 116.843 116.231 116.716 115.214C119.577 112.428 122.124 109.472 124.276 106.37C125.425 104.622 126.607 102.688 127.684 100.697C129.044 98.1827 130.251 95.4501 131.249 92.6042C130.251 91.3195 129.003 90.3732 127.56 89.6604Z" fill="#FF0F97"/>
<path d="M64.46 100.286C64.3792 100.31 64.2985 100.334 64.1937 100.277L53.5845 96.2307C53.4798 96.174 53.3509 96.0366 53.3269 95.9559C53.3028 95.8752 53.3355 95.6897 53.3921 95.5849L67.2041 78.8147C67.3174 78.6052 67.5837 78.6138 67.7932 78.7271C68.0027 78.8405 67.9942 79.1067 67.8808 79.3162L54.457 95.6192L64.5424 99.3821C64.7519 99.4955 64.9048 99.7136 64.7914 99.9231C64.6781 100.133 64.6214 100.237 64.46 100.286Z" fill="black"/>
<path d="M66.2145 69.5856C66.353 68.5247 63.1001 67.2252 58.9489 66.683C54.7977 66.1408 51.3201 66.5612 51.1816 67.6221C51.043 68.683 54.2959 69.9825 58.4471 70.5247C62.5984 71.0669 66.0759 70.6465 66.2145 69.5856Z" fill="black"/>
<path d="M92.0181 72.9467C92.1567 71.8858 88.4925 70.5325 83.8339 69.9241C79.1753 69.3156 75.2864 69.6823 75.1479 70.7432C75.0093 71.8041 78.6735 73.1573 83.3321 73.7658C87.9907 74.3743 91.8796 74.0075 92.0181 72.9467Z" fill="black"/>
<path d="M81.8662 130.693C79.4445 131.415 76.9507 131.894 74.4088 132.212C74.1666 132.284 73.933 132.09 73.9416 131.824C73.9502 131.557 74.0635 131.348 74.3297 131.356C76.9764 131.095 79.527 130.511 82.0294 129.766C87.2523 128.122 92.106 125.534 96.4856 121.944C96.7037 121.791 96.8892 121.824 97.1228 122.018C97.3564 122.212 97.243 122.421 97.0489 122.655C92.5886 126.269 87.6783 128.962 82.2698 130.573C82.1084 130.621 82.0277 130.645 81.8662 130.693Z" fill="black"/>
<path d="M134.213 96.6437C132.895 93.6965 130.576 91.2233 127.562 89.6604C120.405 85.992 111.598 88.8793 107.953 96.117C104.285 103.274 107.172 112.081 114.386 115.645C121.543 119.314 130.35 116.426 133.914 109.213C136.044 105.151 135.98 100.512 134.213 96.6437Z" fill="#FF0F97"/>
<path d="M115.22 108.717C115.059 108.765 114.849 108.652 114.72 108.514C114.568 108.296 114.681 108.086 114.899 107.934C116.256 107.178 117.154 105.768 117.149 104.275C117.224 102.759 116.421 101.24 115.059 100.504C114.954 100.447 114.825 100.31 114.858 100.124C114.81 99.9626 114.947 99.8338 115.028 99.8097L125.497 92.4723C125.716 92.3194 125.925 92.4328 126.054 92.5702C126.207 92.7883 126.093 92.9978 125.956 93.1266L116.003 100.134C117.276 101.161 117.999 102.704 117.948 104.301C117.968 106.14 116.9 107.865 115.22 108.717C115.22 108.717 115.301 108.693 115.22 108.717Z" fill="black"/>
<path d="M126.69 34.8158C120.342 13.505 98.1004 25.5796 98.1004 25.5796C86.2235 13.7376 69.8541 26.348 70.033 38.1594C68.774 38.3586 57.3783 40.5229 51.6455 51.3709C45.3373 63.5328 51.9139 75.284 52.3966 76.0191C53.1849 73.0598 54.0453 70.3426 55.0019 67.9484C58.0177 60.3706 62.0692 55.3846 63.8485 53.0968C66.186 50.0275 69.0559 46.9754 72.3689 44.2307C80.6235 51.8787 109.861 43.5206 105.348 66.1336C100.443 90.9725 108.009 96.0132 108.009 96.0132C111.677 88.8562 120.404 85.993 127.617 89.5566C129.06 90.2694 130.309 91.2157 131.42 92.2909C132.66 93.5034 133.625 94.9736 134.349 96.5159C154.053 82.1209 140.859 63.201 140.859 63.201C148.35 39.9645 126.69 34.8158 126.69 34.8158Z" fill="black"/>
<path d="M60.5557 79.2127C61.7594 78.8541 62.4445 77.5876 62.0859 76.3839C61.7274 75.1802 60.4609 74.4951 59.2571 74.8537C58.0534 75.2122 57.3683 76.4787 57.7269 77.6825C58.0855 78.8862 59.352 79.5713 60.5557 79.2127Z" fill="black"/>
<path d="M80.4614 82.5994C81.6652 82.2408 82.3503 80.9743 81.9917 79.7706C81.6331 78.5669 80.3666 77.8818 79.1629 78.2404C77.9592 78.599 77.2741 79.8655 77.6327 81.0692C77.9913 82.2729 79.2577 82.958 80.4614 82.5994Z" fill="black"/>
<path d="M74.1661 111.631C69.5649 113.002 64.8348 110.104 64.8348 110.104C64.6252 109.991 64.5531 109.749 64.6664 109.539C64.7798 109.33 65.0219 109.257 65.2315 109.371C65.2315 109.371 67.2702 110.609 69.8671 111.066C73.2867 111.629 76.0966 110.441 78.1833 107.71C78.2966 107.5 78.5628 107.509 78.7724 107.622C78.9819 107.735 78.9733 108.002 78.86 108.211C77.4929 110.112 75.7805 111.15 74.1661 111.631Z" fill="black"/>
<path d="M282.479 251.54C202.679 169.233 180.554 154.555 153.939 146.049C150.641 145.01 145.497 143.378 139.288 141.712C130.642 194.999 122.019 248.366 113.373 301.652C110.278 320.766 107.184 339.881 104.089 358.995C101.003 377.843 97.9978 396.667 94.9119 415.515C104.437 412.678 113.987 409.921 123.512 407.084C127.306 405.953 131.1 404.823 134.813 403.717C149.182 399.437 163.55 395.156 177.895 390.795C176.57 337.667 175.244 284.539 173.838 231.435C214.546 265.712 255.23 299.909 295.937 334.186C310.771 327.043 325.581 319.819 340.416 312.675C327.075 298.281 307.109 276.984 282.479 251.54Z" fill="#892BFF"/>
<path d="M56.4895 149.943C56.2473 150.015 56.1099 150.143 55.8677 150.216C55.6496 150.368 55.3267 150.465 55.0278 150.642C54.1073 151.092 53.106 151.566 51.9673 152.169C51.5877 152.369 51.2081 152.57 50.8286 152.771C50.449 152.972 49.9887 153.197 49.6332 153.479C4.74461 178.628 -1.16615 223.102 -18.556 225.206C-18.556 225.206 -18.556 225.206 -18.6367 225.23C-18.7982 225.278 -19.0644 225.27 -19.2258 225.318C-29.0775 225.879 -44.3174 213.369 -66.0197 146.713C-66.0197 146.713 -66.0197 146.713 -66.1004 146.737C-79.4782 147.558 -92.8319 148.46 -106.129 149.257C-106.129 149.257 -106.21 149.281 -106.29 149.305C-101.645 192.041 -89.5567 223.77 -80.2284 243.578C-66.9066 271.776 -54.734 297.592 -32.5951 301.104C-20.6102 302.982 -9.67653 297.792 1.12479 290.092C6.33567 286.342 11.507 282.165 16.711 277.803C17.6969 276.982 18.6827 276.161 19.6445 275.259C19.9193 275.001 20.2748 274.72 20.5496 274.462C19.7528 277.687 18.8992 281.018 18.0697 284.429C16.3867 291.17 14.6144 298.202 13.0773 304.548C9.28022 319.829 5.45907 335.029 1.66196 350.31C3.07547 349.449 4.51303 348.669 5.92653 347.809C14.1808 343.065 22.9195 338.177 32.2472 333.201C35.3571 306.172 38.6936 278.724 42.4423 250.89C42.9249 247.495 43.3267 244.123 43.8093 240.728C47.819 211.409 52.0538 182.551 56.4569 154.259L57.2726 149.621C57.0305 149.693 56.8124 149.846 56.4895 149.943Z" fill="#892BFF"/>
</g>
</g>
<defs>
<clipPath id="clip0_3_12716">
<rect x="0.000976562" y="0.187988" width="198.663" height="198.663" rx="99.3317" fill="white"/>
</clipPath>
<clipPath id="clip1_3_12716">
<rect width="745.844" height="757.721" fill="white" transform="translate(-338.59 140.113) rotate(-16.5886)"/>
</clipPath>
</defs>
</svg>
