<svg width="200" height="200" viewBox="0 0 200 200" fill="none" xmlns="http://www.w3.org/2000/svg">
<g clip-path="url(#clip0_3_14596)">
<path d="M0.481934 100.084C0.481934 45.2243 44.9542 0.751953 99.8136 0.751953V0.751953C154.673 0.751953 199.145 45.2243 199.145 100.084V100.084C199.145 154.943 154.673 199.415 99.8136 199.415V199.415C44.9542 199.415 0.481934 154.943 0.481934 100.084V100.084Z" fill="#F8F8F8"/>
<path d="M90.6031 46.8628C89.0687 50.9981 94.2706 52.9067 97.1897 53.5429C97.3581 53.5804 97.489 53.5804 97.62 53.5242C97.6575 53.5429 97.7136 53.5616 97.751 53.5804C100.951 47.6674 107.107 46.0582 116.519 48.2475C127.465 50.7923 127.765 57.6783 127.765 57.6783C128.476 56.7614 129.898 55.7509 131.676 54.9838C131.807 54.8153 131.919 54.6469 132.031 54.4411C132.031 54.4224 132.05 54.4037 132.05 54.4037C132.63 54.3476 133.135 53.8049 132.78 53.1687C129.542 47.1435 124.247 39.2097 117.698 36.3655C115.658 35.486 113.525 35.7293 112.402 37.8437C111.841 38.8916 111.804 39.9768 112.047 41.0434C109.034 38.6857 105.797 36.6836 102.298 35.1118C99.0234 33.6148 94.2145 31.2197 90.547 32.6418C87.8712 33.671 86.8233 36.5526 87.3285 39.2845C87.815 41.9416 89.6862 43.8315 91.8194 45.3284C91.2954 45.6278 90.865 46.1518 90.6031 46.8628Z" fill="#201000"/>
<path d="M94.7947 86.7381C97.1711 91.2664 102.205 92.5013 107.444 92.5013L107.743 109.81C107.743 109.81 108.997 115.423 119.55 113.234C125.875 111.924 126.511 108.519 126.511 108.519C126.511 108.519 126.062 101.333 125.594 85.447C129.842 82.4156 131.32 73.9392 131.32 73.9392C140.021 72.8539 147.955 67.3526 144.624 58.82C142.267 52.7761 135.98 53.1316 131.676 54.9841C129.917 55.7512 128.476 56.7617 127.765 57.6786C127.765 57.6786 127.466 50.7926 116.519 48.2478C107.107 46.0585 100.951 47.6864 97.7512 53.5807C96.5723 55.7325 95.8052 58.4645 95.4122 61.7578C94.2146 71.7873 92.3996 82.135 94.7947 86.7381Z" fill="#F8F8F8"/>
<path d="M115.06 114.618C107.987 114.618 106.92 110.202 106.864 109.977C106.845 109.921 106.845 109.865 106.845 109.79L106.565 93.3609C100.221 93.2112 96.1234 91.1529 94.009 87.1299C91.8197 82.9384 92.8676 74.6678 93.9903 65.9106C94.1774 64.4885 94.3645 63.0477 94.5329 61.6256C94.9633 58.1452 95.7492 55.3571 96.9842 53.1117C100.334 46.8994 106.808 45.0095 116.744 47.3298C124.921 49.2384 127.485 53.4672 128.308 55.8624C129.131 55.2262 130.16 54.6087 131.32 54.1034C132.948 53.4111 137.121 51.9516 140.901 53.5421C143.015 54.4216 144.55 56.0682 145.467 58.4446C146.72 61.6817 146.552 64.7879 144.961 67.4637C142.772 71.1499 137.982 73.8257 132.088 74.6865C131.657 76.7261 130.085 82.9384 126.512 85.82C126.961 101.201 127.41 108.33 127.41 108.405C127.41 108.48 127.41 108.555 127.391 108.63C127.354 108.798 126.568 112.653 119.719 114.056C117.923 114.468 116.388 114.618 115.06 114.618ZM108.623 109.659C108.81 110.239 110.401 114.168 119.345 112.335C124.416 111.287 125.426 108.91 125.576 108.405C125.52 107.301 125.089 99.9475 124.659 85.4458C124.659 85.1464 124.79 84.8657 125.033 84.6786C128.944 81.8905 130.385 73.8445 130.404 73.7509C130.478 73.3579 130.778 73.0586 131.171 73.0211C136.728 72.3288 141.406 69.8588 143.371 66.5655C144.681 64.3575 144.812 61.8502 143.745 59.1182C142.997 57.2283 141.799 55.9185 140.152 55.2262C137.982 54.3093 134.913 54.5151 131.994 55.7875C130.422 56.4611 129.075 57.3967 128.439 58.2013C128.214 58.5007 127.821 58.6317 127.447 58.5194C127.092 58.4072 126.83 58.0704 126.811 57.6961C126.792 57.4529 126.343 51.4464 116.257 49.1074C107.089 46.9742 101.438 48.5273 98.4811 53.9912C97.3771 56.0121 96.6287 58.6504 96.2357 61.8501C96.0673 63.2722 95.8802 64.7131 95.6931 66.1352C94.6639 74.2374 93.5786 82.6016 95.5059 86.2878C97.3584 89.8431 101.213 91.5646 107.276 91.5646C107.294 91.5646 107.332 91.5646 107.351 91.5646C107.837 91.5646 108.249 91.9575 108.249 92.444L108.623 109.659Z" fill="#201000"/>
<path d="M104.468 75.3225C104.188 75.3225 103.907 75.1916 103.739 74.9483C100.445 70.3078 102.448 65.162 107.032 57.8644C107.294 57.4527 107.855 57.3217 108.267 57.5837C108.679 57.8457 108.81 58.407 108.548 58.8187C103.683 66.5841 102.803 70.5323 105.198 73.9192C105.479 74.3308 105.385 74.8922 104.992 75.1729C104.843 75.2664 104.656 75.3225 104.468 75.3225Z" fill="#201000"/>
<path d="M120.484 61.7959C121.095 61.6884 121.503 61.1062 121.395 60.4956C121.288 59.885 120.706 59.4771 120.095 59.5846C119.484 59.6921 119.076 60.2743 119.184 60.8849C119.291 61.4956 119.874 61.9034 120.484 61.7959Z" fill="#201000"/>
<path d="M101.94 61.4024C102.551 61.2948 102.959 60.7127 102.851 60.102C102.744 59.4914 102.162 59.0835 101.551 59.1911C100.94 59.2986 100.532 59.8808 100.64 60.4914C100.748 61.102 101.33 61.5099 101.94 61.4024Z" fill="#201000"/>
<path d="M112.758 80.0386C115.078 80.2258 116.912 78.3733 116.613 76.053C116.463 74.9116 118.241 74.5935 118.39 75.7349C118.839 79.2153 116.126 82.1157 112.608 81.8163C111.448 81.7227 111.617 79.9264 112.758 80.0386Z" fill="#201000"/>
<path d="M118.915 54.835C119.102 54.3485 119.607 54.1614 120.075 54.3111C120.562 54.442 121.048 54.5917 121.516 54.7227C121.984 54.8537 122.208 55.4525 122.04 55.8829C121.853 56.3694 121.348 56.5565 120.88 56.4068C120.393 56.2758 119.907 56.1261 119.439 55.9951C118.971 55.8454 118.747 55.2654 118.915 54.835Z" fill="#201000"/>
<path d="M102.355 53.356L103.459 53.1689C104.6 52.9631 104.918 54.7407 103.777 54.9465L102.673 55.1336C101.531 55.3208 101.213 53.5431 102.355 53.356Z" fill="#201000"/>
<path d="M130.647 67.1836C130.553 67.1836 130.478 67.1649 130.385 67.1462C129.917 66.9965 129.636 66.51 129.786 66.0234C130.46 63.7593 134.146 59.5117 137.963 59.5117C138.001 59.5117 138.038 59.5117 138.075 59.5117C138.562 59.5304 138.974 59.9421 138.955 60.4286C138.936 60.9338 138.487 61.3455 138.038 61.3081C138.019 61.3081 137.982 61.3081 137.963 61.3081C135.025 61.3081 131.975 65.013 131.526 66.5287C131.395 66.9216 131.04 67.1836 130.647 67.1836Z" fill="#201000"/>
<path d="M75.9519 175.208C75.7086 175.208 75.4467 175.096 75.2783 174.909C72.9206 172.214 61.6935 171.952 57.5582 172.064H57.5394C57.0529 172.064 56.66 171.671 56.6413 171.185C56.6226 170.698 57.0155 170.268 57.5207 170.268C59.1299 170.231 73.3135 169.912 76.6442 173.711C76.9623 174.085 76.9249 174.647 76.5507 174.983C76.3823 175.133 76.1764 175.208 75.9519 175.208Z" fill="#201000"/>
<path d="M55.63 214.034C51.3637 214.034 47.2845 212.78 43.9351 209.88C39.2571 205.838 35.0844 197.025 30.8181 182.149C28.8534 175.263 27.1506 168.115 25.4852 161.192C24.9426 158.89 24.3999 156.663 23.876 154.511C23.0527 150.919 22.9404 150.563 22.4913 149.048C22.3229 148.449 22.0984 147.682 21.7616 146.484C21.4996 145.586 21.2002 144.444 20.7885 142.948C18.7115 135.351 15.886 128.296 14.0148 123.637C13.3412 121.972 12.8173 120.643 12.5179 119.782C12.2372 119.053 11.4513 117.294 10.5344 115.254C7.57797 108.667 4.92088 102.586 4.67763 100.509C4.49051 98.8437 5.14542 98.0204 5.70678 97.6274C6.54881 97.0473 7.65281 97.0661 8.51356 97.2158C8.49484 97.0286 8.49484 96.8789 8.49484 96.7292C8.47613 95.3071 9.2059 94.1844 10.4783 93.6231C11.2268 93.2863 12.1062 93.174 12.8921 93.2676C12.967 91.8642 13.7529 90.6666 15.1001 90.0865C17.7759 88.9264 19.4974 91.1905 23.6702 98.0578C22.0984 93.9038 21.1815 90.4795 22.1358 88.496C22.51 87.7101 23.1649 87.1675 24.0444 86.9242C27.4312 85.9512 30.4064 92.9495 34.2049 102.942C35.3838 106.01 36.4878 108.929 37.2175 110.127C38.0596 110.071 40.305 109.472 41.409 104.981C43.5047 96.5795 44.5339 94.8393 47.2845 95.12C49.9603 95.4194 49.6796 99.5547 49.1931 106.422C48.7441 112.709 48.1453 121.298 49.7545 129.438C50.1662 131.496 50.7836 134.752 51.5321 138.681C54.2453 152.958 58.7923 176.835 61.0752 183.927C61.2249 184.394 60.9629 184.9 60.4951 185.049C60.0273 185.199 59.5221 184.937 59.3724 184.469C57.0708 177.265 52.5051 153.314 49.7919 138.999C49.0434 135.07 48.426 131.814 48.0143 129.756C46.3489 121.391 46.9664 112.653 47.4155 106.272C47.6962 102.362 48.0704 96.9912 47.1161 96.8789C46.1244 96.7667 45.3385 96.6918 43.1679 105.393C41.3903 112.559 36.8059 111.905 36.6001 111.867C36.3755 111.83 36.1884 111.717 36.0387 111.549C35.1405 110.445 33.9991 107.414 32.5209 103.559C30.5936 98.5256 26.6266 88.0469 24.5309 88.627C24.1567 88.7393 23.9134 88.9264 23.745 89.2445C22.7533 91.2841 25.1297 96.9912 27.4125 102.511C28.1049 104.195 28.8159 105.935 29.4708 107.62C29.6392 108.05 29.4521 108.536 29.0218 108.742C28.6101 108.948 28.1049 108.798 27.8616 108.405C26.2711 105.823 24.9051 103.559 23.7263 101.594C18.8799 93.5482 17.2707 91.0408 15.8112 91.677C14.8382 92.1074 14.4452 93.1179 14.8195 94.2967C14.9317 94.6897 14.782 95.1013 14.4452 95.3259C14.1084 95.5504 13.6593 95.4943 13.3599 95.2323C13.1541 95.0265 12.1062 94.8206 11.2081 95.2323C10.5906 95.513 10.2912 95.9808 10.2912 96.6544C10.3099 97.0473 10.3286 97.6087 10.4596 98.2262C10.5344 98.563 10.4035 98.9185 10.1228 99.1244C9.8421 99.3302 9.46786 99.3676 9.16847 99.2179C8.79423 99.0495 7.316 98.6566 6.71722 99.0682C6.39912 99.2928 6.39912 99.8354 6.45525 100.266C6.67979 102.231 10.1041 109.884 12.1624 114.468C13.1167 116.62 13.8839 118.304 14.1833 119.109C14.4826 119.969 15.0066 121.279 15.6615 122.926C17.5514 127.623 20.3956 134.733 22.4913 142.442C22.903 143.939 23.2211 145.081 23.4643 145.979C23.8011 147.176 24.0257 147.925 24.1941 148.524C24.6432 150.039 24.7555 150.451 25.5975 154.081C26.1214 156.214 26.6641 158.46 27.2067 160.761C28.8533 167.666 30.5561 174.795 32.5209 181.644C36.6749 196.183 40.6605 204.715 45.0765 208.514C53.5343 215.812 67.2314 211.527 75.5956 203.162C75.9511 202.807 76.5125 202.807 76.868 203.162C77.2235 203.518 77.2235 204.079 76.868 204.435C71.1983 210.142 63.1148 214.034 55.63 214.034Z" fill="#201000"/>
<path d="M37.0305 110.465C38.0971 110.053 38.9391 111.644 37.8538 112.055C32.3525 114.189 29.5083 119.652 30.9491 125.397C31.2298 126.52 29.4709 126.894 29.1902 125.771C27.5623 119.334 30.7994 112.879 37.0305 110.465Z" fill="#201000"/>
<path d="M22.6407 111.661C22.3226 111.661 22.0045 111.493 21.8548 111.193L13.1725 95.0074C12.9292 94.577 13.0976 94.0344 13.5467 93.7911C13.9771 93.5479 14.5384 93.7163 14.763 94.1654L23.4453 110.332C23.6886 110.763 23.5201 111.305 23.0711 111.549C22.9401 111.624 22.7904 111.661 22.6407 111.661Z" fill="#201000"/>
<path d="M17.5513 114.955C17.2332 114.955 16.9151 114.786 16.7654 114.487L8.08313 98.3199C7.83987 97.8895 8.00828 97.3469 8.45736 97.1036C8.88774 96.8604 9.44909 97.0288 9.67364 97.4779L18.3559 113.645C18.5992 114.075 18.4308 114.618 17.9817 114.861C17.8507 114.917 17.701 114.955 17.5513 114.955Z" fill="#201000"/>
<path d="M11.5105 123.144C10.1633 120.898 8.81602 118.653 7.46877 116.408C6.86999 115.416 5.3169 116.314 5.91568 117.306C7.26294 119.551 8.61019 121.797 9.95744 124.042C10.5562 125.052 12.1093 124.136 11.5105 123.144Z" fill="#201000"/>
<path d="M56.228 100.397C55.8164 103.091 55.4047 105.804 54.993 108.499C54.8246 109.622 56.5461 110.127 56.7332 108.985C57.1449 106.291 57.5566 103.578 57.9682 100.883C58.1179 99.7418 56.3964 99.2553 56.228 100.397Z" fill="#201000"/>
<path d="M57.5378 174.757C57.07 174.757 56.677 174.402 56.6396 173.915C56.6209 173.71 55.311 153.407 57.0887 135.126C58.8289 117.2 66.5569 109.154 107.723 108.873C108.209 108.873 108.621 109.266 108.621 109.771C108.621 110.276 108.228 110.669 107.723 110.669C67.6983 110.931 60.5316 118.154 58.8663 135.294C57.0887 153.426 58.3985 173.579 58.4172 173.784C58.4546 174.271 58.0804 174.701 57.5752 174.739C57.5752 174.757 57.5565 174.757 57.5378 174.757Z" fill="#201000"/>
<path d="M176.582 216.991C176.096 216.991 175.703 216.598 175.684 216.111C175.684 215.812 175.067 186.752 173.832 160.2C173.158 145.867 172.428 135.856 171.661 130.411C169.996 118.828 160.49 112.186 142.564 110.109C137.924 109.566 132.666 109.341 126.509 109.397C126.023 109.397 125.611 109.005 125.611 108.499C125.611 107.994 126.004 107.601 126.509 107.601C132.741 107.545 138.073 107.77 142.789 108.331C161.632 110.52 171.661 117.668 173.458 130.168C174.243 135.669 174.973 145.755 175.647 160.125C176.882 186.696 177.499 215.793 177.499 216.074C177.499 216.56 177.106 216.972 176.582 216.991C176.601 216.991 176.601 216.991 176.582 216.991Z" fill="#201000"/>
<path d="M154.129 216.99C153.661 216.99 153.249 216.616 153.231 216.13L149.638 147.401C149.619 146.914 149.993 146.484 150.48 146.465C150.966 146.428 151.397 146.821 151.416 147.307L155.008 216.036C155.027 216.523 154.653 216.953 154.166 216.972C154.166 216.99 154.147 216.99 154.129 216.99Z" fill="#201000"/>
<path d="M76.3994 216.991C75.9129 216.991 75.5012 216.598 75.5012 216.112L74.603 146.036C74.603 145.531 74.996 145.138 75.4825 145.119C75.9877 145.119 76.3807 145.512 76.3994 145.999L77.2975 216.075C77.3163 216.58 76.9233 216.973 76.3994 216.991C76.4181 216.991 76.4181 216.991 76.3994 216.991Z" fill="#201000"/>
<path d="M164.102 177.678C160.378 177.678 156.299 177.041 151.696 176.087C151.209 175.994 150.891 175.507 151.004 175.021C151.097 174.534 151.584 174.216 152.07 174.328C161.276 176.274 168.218 176.798 174.375 173.524C174.805 173.28 175.348 173.449 175.591 173.898C175.815 174.328 175.666 174.871 175.217 175.114C171.755 176.948 168.125 177.678 164.102 177.678Z" fill="#201000"/>
<path d="M106.057 105.132L102.016 110.072L112.345 123.544L116.835 113.215L106.057 105.132Z" fill="#F8F8F8"/>
<path d="M112.345 124.442C112.064 124.442 111.802 124.311 111.634 124.086L101.305 110.614C101.043 110.277 101.062 109.828 101.324 109.491L105.366 104.551C105.665 104.177 106.208 104.121 106.6 104.401L117.379 112.485C117.715 112.728 117.828 113.177 117.659 113.57L113.168 123.899C113.037 124.199 112.775 124.386 112.457 124.442C112.42 124.442 112.382 124.442 112.345 124.442ZM103.158 110.09L112.12 121.785L115.713 113.495L106.208 106.366L103.158 110.09Z" fill="#201000"/>
<path d="M116.835 113.215L123.123 123.095L131.206 108.724L127.164 103.335L116.835 113.215Z" fill="#F8F8F8"/>
<path d="M123.123 123.993C122.823 123.993 122.524 123.843 122.356 123.581L116.068 113.701C115.844 113.346 115.9 112.859 116.199 112.579L126.528 102.699C126.715 102.53 126.977 102.437 127.221 102.455C127.483 102.474 127.707 102.605 127.857 102.811L131.899 108.2C132.104 108.481 132.142 108.874 131.955 109.173L123.871 123.544C123.722 123.824 123.422 123.993 123.104 123.993C123.141 123.993 123.141 123.993 123.123 123.993ZM117.996 113.346L123.085 121.336L130.14 108.78L127.052 104.663L117.996 113.346Z" fill="#201000"/>
<path d="M116.836 146.896C116.331 146.896 115.938 146.503 115.938 145.998V113.215C115.938 112.709 116.331 112.316 116.836 112.316C117.341 112.316 117.734 112.709 117.734 113.215V146.016C117.734 146.503 117.341 146.896 116.836 146.896Z" fill="#201000"/>
<path d="M75.4261 112.541C75.0519 112.934 74.6215 113.271 74.1725 113.589C73.7608 113.87 73.293 114.075 72.8252 114.188V146.017C72.8252 148.505 74.8274 150.507 77.316 150.507C79.8047 150.507 81.8069 148.505 81.8069 146.017V112.541H75.4261Z" fill="#201000"/>
<path d="M151.023 110.071H144.68V146.017C144.68 148.505 146.682 150.508 149.171 150.508C151.659 150.508 153.661 148.505 153.661 146.017V111.082C152.707 110.988 151.809 110.633 151.023 110.071Z" fill="#201000"/>
<path d="M75.9497 150.208V171.764C75.9497 172.924 77.746 172.924 77.746 171.764V150.208C77.746 149.048 75.9497 149.048 75.9497 150.208Z" fill="#201000"/>
<path d="M148.515 150.115L149.563 171.652C149.619 172.812 151.415 172.718 151.359 171.558L150.311 150.021C150.255 148.861 148.459 148.954 148.515 150.115Z" fill="#201000"/>
</g>
<path d="M99.8136 198.415C45.5065 198.415 1.48193 154.391 1.48193 100.084H-0.518066C-0.518066 155.495 44.4019 200.415 99.8136 200.415V198.415ZM198.145 100.084C198.145 154.391 154.121 198.415 99.8136 198.415V200.415C155.225 200.415 200.145 155.495 200.145 100.084H198.145ZM99.8136 1.75195C154.121 1.75195 198.145 45.7765 198.145 100.084H200.145C200.145 44.672 155.225 -0.248047 99.8136 -0.248047V1.75195ZM99.8136 -0.248047C44.4019 -0.248047 -0.518066 44.672 -0.518066 100.084H1.48193C1.48193 45.7765 45.5065 1.75195 99.8136 1.75195V-0.248047Z" fill="black" fill-opacity="0.1"/>
<defs>
<clipPath id="clip0_3_14596">
<path d="M0.481934 100.084C0.481934 45.2243 44.9542 0.751953 99.8136 0.751953V0.751953C154.673 0.751953 199.145 45.2243 199.145 100.084V100.084C199.145 154.943 154.673 199.415 99.8136 199.415V199.415C44.9542 199.415 0.481934 154.943 0.481934 100.084V100.084Z" fill="white"/>
</clipPath>
</defs>
</svg>
