<svg width="200" height="199" viewBox="0 0 200 199" fill="none" xmlns="http://www.w3.org/2000/svg">
<g clip-path="url(#clip0_3_14606)">
<path d="M0.770996 99.4801C0.770996 44.6207 45.2433 0.148438 100.103 0.148438V0.148438C154.962 0.148438 199.434 44.6207 199.434 99.4801V99.4801C199.434 154.34 154.962 198.812 100.103 198.812V198.812C45.2433 198.812 0.770996 154.34 0.770996 99.4801V99.4801Z" fill="#F8F8F8"/>
<path d="M69.7229 171.852L66.5885 146.211C72.1724 145.631 107.006 141.799 116.092 140.798L117.212 159.934C117.581 159.604 118.028 159.354 118.516 159.183L117.383 140.008C117.37 139.824 117.291 139.653 117.146 139.534C117.001 139.416 116.817 139.363 116.632 139.376C99.4331 141.272 66.7202 144.868 65.7984 144.934C65.614 144.934 65.4428 145.026 65.3111 145.157C65.1794 145.302 65.1267 145.5 65.1531 145.684L68.3269 171.654C68.8142 171.681 69.2751 171.747 69.7229 171.852Z" fill="#000200"/>
<path d="M120.03 184.519C119.609 184.861 119.187 185.19 118.74 185.506L119.964 206.301L74.5956 211.7L72.6861 196.095C72.6597 196.108 72.6334 196.121 72.6071 196.121C72.1988 196.239 71.7774 196.292 71.356 196.332L73.3314 212.517C73.3709 212.859 73.6606 213.109 74.003 213.109C74.0294 213.109 74.0557 213.109 74.082 213.109L120.741 207.565C121.097 207.526 121.36 207.21 121.334 206.854L120.03 184.519Z" fill="#000200"/>
<path d="M102.278 162.447C102.475 162.46 102.686 162.46 102.884 162.46L101.593 164.422C101.461 163.948 101.448 163.434 101.58 162.947C101.659 162.631 101.948 162.42 102.278 162.447Z" fill="#000200"/>
<path d="M117.291 140.415L106.782 156.495L105.913 157.812C105.399 157.798 104.859 157.785 104.319 157.785L105.189 156.455L116.159 139.677C116.356 139.361 116.778 139.282 117.094 139.48C117.41 139.677 117.502 140.099 117.291 140.415Z" fill="#000200"/>
<path d="M121.215 207.276C121.083 207.461 120.872 207.566 120.662 207.566C120.53 207.566 120.398 207.527 120.28 207.448L99.4457 192.869L97.9971 191.855C98.5634 191.723 99.1428 191.578 99.7486 191.434L101.184 192.434L121.07 206.355C121.36 206.552 121.426 206.974 121.215 207.276Z" fill="#000200"/>
<path d="M91.5442 193.093L90.1351 194.739L74.5161 212.886C74.3844 213.044 74.2 213.124 74.0025 213.124C73.8444 213.124 73.6864 213.071 73.5679 212.965C73.2913 212.728 73.2518 212.294 73.502 212.017L88.0279 195.134L89.4239 193.514C90.0956 193.396 90.7804 193.264 91.4652 193.132C91.4783 193.106 91.5047 193.106 91.5442 193.093Z" fill="#000200"/>
<path d="M93.1385 163.04C92.9409 163.382 92.7565 163.738 92.559 164.08C92.5327 164.133 92.5063 164.172 92.48 164.225L91.3474 163.474L65.4563 146.17C65.1402 145.959 65.0612 145.537 65.2719 145.235C65.4826 144.919 65.904 144.84 66.2069 145.05L92.0059 162.289L93.1385 163.04Z" fill="#000200"/>
<path d="M107.52 193.976C111.589 191.724 115.54 189.261 119.478 186.825L119.386 185.258C118.622 185.469 100.948 191.803 93.7448 193.37C85.8431 195.095 79.9168 195.807 72.0415 196.439L73.9906 212.44L76.4664 212.15C85.8167 204.459 96.9976 199.81 107.52 193.976Z" fill="#000200"/>
<path d="M74.4118 171.956C74.0825 171.956 73.7928 171.706 73.7401 171.364L72.3573 160.71C72.331 160.512 72.3968 160.328 72.5154 160.183C72.6471 160.038 72.8314 159.959 73.0158 159.959H83.367C83.6962 159.959 83.986 160.209 84.0386 160.538L85.3161 169.164C85.3687 169.533 85.1185 169.876 84.7498 169.928C84.3942 169.981 84.0386 169.731 83.986 169.362L82.7875 161.302H73.7796L75.0571 171.206C75.1097 171.574 74.8464 171.917 74.4776 171.956C74.4776 171.956 74.4381 171.956 74.4118 171.956Z" fill="#000200"/>
<path d="M55.6589 171.955C55.2902 171.955 54.9873 171.652 54.9873 171.284V148.184C54.9873 147.816 55.2902 147.513 55.6589 147.513C56.0277 147.513 56.3306 147.816 56.3306 148.184V171.284C56.3306 171.652 56.0277 171.955 55.6589 171.955Z" fill="#000200"/>
<path d="M55.6589 206.92C55.2902 206.92 54.9873 206.617 54.9873 206.248V198.86C54.9873 198.491 55.2902 198.188 55.6589 198.188C56.0277 198.188 56.3306 198.491 56.3306 198.86V206.248C56.3306 206.617 56.0277 206.92 55.6589 206.92Z" fill="#000200"/>
<path d="M59.0034 145.695C57.3441 146.34 56.9227 146.617 54.9868 147.802C54.8682 147.921 54.9868 148.961 54.9868 149.119V155.638C54.9868 155.915 55.158 156.178 55.4214 156.27C55.5004 156.297 55.5794 156.31 55.6584 156.31C55.8559 156.31 56.0403 156.231 56.172 156.073C56.3696 155.836 60.136 150.318 60.136 147.012C60.1228 145.985 59.3854 145.55 59.0034 145.695Z" fill="#000200"/>
<path d="M109.969 101.551C109.929 101.525 109.89 101.485 109.837 101.459C109.508 101.288 109.099 101.433 108.928 101.762L100.46 118.672L83.2478 101.657C82.9844 101.393 82.5498 101.393 82.2996 101.657C82.0362 101.92 82.0362 102.355 82.2996 102.605L100.171 120.291C100.302 120.423 100.473 120.489 100.645 120.489C100.684 120.489 100.724 120.489 100.75 120.476C100.961 120.436 101.145 120.305 101.25 120.107L109.969 102.71V101.551V101.551Z" fill="#000200"/>
<path d="M91.4406 125.638C91.4142 125.638 91.3879 125.638 91.3616 125.638C91.1377 125.612 90.9401 125.48 90.8479 125.283L79.3378 103.171C79.1666 102.842 79.2983 102.434 79.6276 102.263C79.9568 102.091 80.3651 102.223 80.5363 102.552L91.5986 123.782L97.6039 116.841C97.8541 116.565 98.2755 116.525 98.5521 116.775C98.8286 117.026 98.8681 117.447 98.6179 117.724L91.9674 125.415C91.8225 125.559 91.6249 125.638 91.4406 125.638Z" fill="#000200"/>
<path d="M108.612 120.488C108.468 120.488 108.31 120.436 108.191 120.344L102.489 115.853C102.225 115.655 102.159 115.3 102.304 115.01L108.942 102.538C109.034 102.367 109.179 102.249 109.363 102.196C109.547 102.143 109.745 102.183 109.903 102.288L113.34 104.514C113.59 104.672 113.709 104.988 113.617 105.278L109.245 120.014C109.179 120.225 109.021 120.396 108.797 120.462C108.744 120.475 108.678 120.488 108.612 120.488ZM103.766 115.142L108.244 118.658L112.181 105.357L109.785 103.803L103.766 115.142Z" fill="#000200"/>
<path d="M104.32 142.087C103.964 142.087 103.661 141.797 103.648 141.442L103.042 123.518L100.158 120.265C99.9079 119.988 99.9343 119.554 100.211 119.317C100.487 119.067 100.909 119.093 101.159 119.37L104.214 122.794C104.32 122.912 104.386 123.057 104.386 123.215L105.005 141.376C105.018 141.744 104.728 142.061 104.359 142.074C104.346 142.087 104.333 142.087 104.32 142.087Z" fill="#000200"/>
<path d="M130.54 208.83C130.185 208.83 129.882 208.54 129.869 208.185C129.75 205.261 126.998 136.661 126.998 136.082C126.998 135.713 127.3 135.41 127.669 135.41C128.038 135.41 128.341 135.713 128.341 136.082C128.354 137.017 131.185 207.421 131.212 208.132C131.225 208.501 130.935 208.817 130.566 208.83C130.553 208.83 130.54 208.83 130.54 208.83Z" fill="#000200"/>
<path d="M85.9349 69.9313C86.5012 62.2535 90.2018 50.2561 90.2018 50.2561C93.6391 53.4431 117.963 54.7205 120.794 53.2719C119.662 47.0164 115.197 41.3799 101.514 41.3799C85.316 41.3799 79.9165 48.1226 79.9165 58.9084C79.9165 69.6942 79.9165 69.6942 79.9165 69.6942L80.0482 69.9181C82.4055 69.6547 83.5513 69.9444 85.9349 69.9313Z" fill="#000200"/>
<path d="M110.495 78.8208C110.127 78.8208 109.824 78.5179 109.824 78.1492C109.824 77.7804 110.127 77.4775 110.495 77.4775C111.76 77.4775 112.8 77.1351 113.274 76.5688C113.551 76.2528 113.643 75.8577 113.564 75.3836C113.393 74.3168 111.022 73.7242 109.889 73.6057C109.547 73.5662 109.284 73.2765 109.284 72.9341V66.7576C109.284 66.3888 109.587 66.0859 109.955 66.0859C110.324 66.0859 110.627 66.3888 110.627 66.7576V72.3546C111.878 72.5785 114.565 73.2633 114.881 75.1729C115.026 76.042 114.828 76.8322 114.301 77.4512C113.551 78.3335 112.194 78.8208 110.495 78.8208Z" fill="#000200"/>
<path d="M114.328 65.6133V66.9566C114.328 68.695 117.028 68.695 117.028 66.9566V65.6133C117.028 63.875 114.328 63.875 114.328 65.6133Z" fill="#000200"/>
<path d="M98.0898 65.6133V66.9566C98.0898 68.695 100.79 68.695 100.79 66.9566V65.6133C100.79 63.875 98.0898 63.875 98.0898 65.6133Z" fill="#000200"/>
<path d="M98.5907 59.094C97.5108 59.331 96.4573 59.6208 95.4432 60.0554C94.6531 60.3978 95.3379 61.5567 96.128 61.2143C97.0367 60.8192 97.9981 60.5953 98.9595 60.3846C99.8023 60.2134 99.4467 58.9096 98.5907 59.094Z" fill="#000200"/>
<path d="M117.37 58.857C116.685 58.3961 115.908 58.0537 115.263 57.5401C114.591 57.0133 113.63 57.9615 114.314 58.4883C115.065 59.0809 115.908 59.4892 116.698 60.0159C117.409 60.5164 118.081 59.3443 117.37 58.857Z" fill="#000200"/>
<path d="M102.067 84.9184C101.053 84.7604 99.7225 84.2995 99.6435 83.1011C99.5908 82.245 98.2343 82.2319 98.3002 83.1011C98.4187 84.9316 100.025 85.9588 101.711 86.2222C102.554 86.3539 102.923 85.0501 102.067 84.9184Z" fill="#000200"/>
<path d="M121.901 63.2814C121.861 61.1875 121.822 59.0014 121.782 56.7362C121.611 46.0953 114.789 40.709 101.501 40.709C86.3171 40.709 79.2451 46.4904 79.2451 58.9223V69.7081C79.2451 70.0769 79.548 70.3798 79.9168 70.3798C80.2855 70.3798 80.5884 70.0769 80.5884 69.7081V58.9223C80.5884 47.2674 87.0414 42.0654 101.501 42.0654C114.091 42.0654 120.281 46.8723 120.439 56.7625C120.479 59.0277 120.518 61.2138 120.558 63.3078C120.94 83.0883 121.177 95.033 114.658 98.7995C109.061 102.026 98.9598 101.42 98.8544 101.407C98.6306 101.394 98.4067 101.499 98.275 101.684C98.1433 101.868 98.1038 102.105 98.1828 102.329C99.3944 105.542 103.832 107.386 106.466 108.216C107.336 106.464 108.284 104.752 109.285 103.08V102.144C109.285 102.118 109.285 102.105 109.285 102.079C111.431 101.657 113.565 100.986 115.329 99.9715C122.546 95.7968 122.296 83.5624 121.901 63.2814Z" fill="#000200"/>
<path d="M81.549 80.1118L81.6148 82.7984C82.0626 82.7984 82.5103 82.7984 82.9581 82.7852L82.8659 79.4007C82.8659 79.2163 82.7869 79.0451 82.6552 78.9266C82.5235 78.808 82.3523 78.729 82.1679 78.7422C79.8369 78.8344 78.0195 78.3208 76.9001 77.2409C75.8861 76.2663 75.7412 75.1469 75.7412 74.5675C75.7412 73.6193 76.0836 72.8028 76.7816 72.1443C78.2039 70.7879 81.0617 70.1821 85.052 70.3928C85.4076 70.4059 85.7368 70.1294 85.7632 69.7475C85.7764 69.3787 85.4998 69.0627 85.1179 69.0363C80.6929 68.8124 77.5718 69.5236 75.8598 71.1566C74.6613 72.3023 74.3979 73.6325 74.3979 74.5543C74.3979 75.9239 74.9642 77.2277 75.9783 78.2023C76.8738 79.0978 78.5595 80.0855 81.549 80.1118Z" fill="#000200"/>
<path d="M81.7073 78.8467C79.1919 79.0047 76.4131 78.4121 75.4913 77.003C73.7398 74.2901 74.6748 71.3138 81.3254 68.8511C83.7749 67.9424 85.2103 63.7018 85.803 61.2787C86.9487 56.6167 87.6994 51.8757 88.3578 47.1215C88.4105 46.7396 88.2657 46.4367 87.8837 46.2918C87.357 46.0943 87.1199 46.0021 86.896 45.9494C86.8038 45.8704 86.6853 45.8177 86.5405 45.8046C79.6397 45.2646 73.8583 52.8766 70.6186 58.0522C65.4693 66.2831 66.9706 75.8177 67.4843 85.0232C63.6519 84.7598 59.7933 87.4859 56.9882 89.7774C53.1296 92.9117 50.6405 96.9679 50.6932 102.078C50.7854 112.363 61.2683 116.182 70.0655 115.708C79.6923 115.194 88.8056 109.4 91.4 99.7335C93.7968 90.8573 92.7301 78.1619 81.7073 78.8467Z" fill="#000200"/>
<path d="M175.961 94.5857C175.895 94.5857 175.816 94.5725 175.75 94.5462C175.394 94.4277 175.21 94.0458 175.329 93.6902C178.397 84.6428 181.005 74.1335 179.859 72.9088C179.569 72.6059 179.332 72.4742 179.161 72.5137C177.581 72.8561 174.854 81.1792 173.682 84.735C173.564 85.0905 173.182 85.2749 172.826 85.1695C172.471 85.051 172.286 84.6691 172.392 84.3135C175.526 74.7789 177.106 71.5918 178.858 71.1968C179.53 71.0519 180.201 71.3153 180.833 71.9869C183.072 74.3838 178.16 89.5418 176.593 94.1248C176.514 94.4145 176.25 94.5857 175.961 94.5857Z" fill="#000200"/>
<path d="M150.136 155.955C145.289 155.955 139.271 151.016 137.506 140.152C134.701 122.965 126.141 111.047 112.734 105.713C112.392 105.582 112.221 105.187 112.353 104.831C112.497 104.489 112.879 104.318 113.235 104.449C127.102 109.98 135.952 122.241 138.836 139.928C140.482 150.002 145.842 154.598 150.136 154.598C150.136 154.598 150.136 154.598 150.149 154.598C153.876 154.598 156.615 151.359 157.484 145.946C158.261 141.1 158.946 134.357 159.67 127.232C161.119 112.93 162.62 98.1411 165.241 93.94C169.139 87.7109 172.3 82.983 174.973 82.904C175.513 82.8908 176.264 83.062 176.909 83.9576C178.713 86.4993 175.987 91.3061 173.38 94.8882C172.932 95.5072 173.037 96.35 173.63 96.8505C176.132 98.9707 180.202 103.343 179.187 108.835C179.122 109.203 178.766 109.454 178.397 109.375C178.029 109.309 177.791 108.953 177.857 108.584C178.753 103.751 175.052 99.8004 172.761 97.8645C171.628 96.9031 171.417 95.2833 172.287 94.0849C175.5 89.6599 176.817 86.1569 175.816 84.7346C175.5 84.3 175.223 84.2473 175.026 84.2473C172.866 84.3131 168.836 90.753 166.426 94.6116C163.95 98.5757 162.396 113.865 161.027 127.364C160.302 134.515 159.618 141.271 158.827 146.157C157.84 152.188 154.521 155.942 150.136 155.955Z" fill="#000200"/>
<path d="M183.678 88.4883C182.678 87.0133 180.966 86.1441 178.292 85.7754C178.226 85.7622 178.174 85.7754 178.108 85.7754C178.081 85.9729 178.055 86.1705 178.029 86.368C178.002 86.6051 177.976 86.8289 177.963 87.066C178.016 87.0792 178.055 87.0923 178.108 87.1055C180.373 87.4216 181.782 88.0932 182.559 89.2389C183.52 90.6612 183.586 93.0054 182.743 96.4031C182.691 96.6007 182.638 96.785 182.559 96.9563C182.427 97.2723 182.032 97.9966 181.387 97.7859C180.399 97.4567 179.438 95.3101 180.36 91.5568C180.452 91.2012 180.228 90.8325 179.872 90.7403C179.517 90.6481 179.148 90.872 179.056 91.2275C177.989 95.5866 179.201 98.4576 180.966 99.0502C181.189 99.1292 181.413 99.1687 181.637 99.1687C182.533 99.1687 183.336 98.5629 183.797 97.483C183.902 97.2591 183.981 96.9958 184.047 96.7192C185.009 92.8869 184.89 90.2662 183.678 88.4883Z" fill="#000200"/>
<path d="M185.509 98.9309C184.692 98.9309 183.849 98.6543 183.151 98.1275C182.848 97.9036 182.796 97.4822 183.02 97.1793C183.243 96.8764 183.665 96.8238 183.968 97.0476C184.613 97.5349 185.456 97.7061 186.114 97.4822C186.602 97.311 186.918 96.9554 187.049 96.4023C187.919 92.8729 187.826 90.4761 186.747 89.0669C185.667 87.6446 183.546 86.9993 179.675 86.894C179.306 86.8808 179.003 86.5779 179.016 86.196C179.029 85.8273 178.977 85.4717 179.319 85.4717C184.126 85.4717 186.457 86.4594 187.813 88.2373C189.17 90.0151 189.341 92.7149 188.353 96.7184C188.103 97.7061 187.471 98.4173 186.562 98.7465C186.233 98.8782 185.877 98.9309 185.509 98.9309Z" fill="#000200"/>
<path d="M189.841 99.1694C188.919 99.1694 188.063 98.4978 187.55 97.3916C187.392 97.0492 187.537 96.6541 187.879 96.496C188.221 96.338 188.261 96.1405 188.419 96.4829C188.709 97.115 189.512 97.8393 189.894 97.813C190.302 97.7735 190.671 97.2862 190.855 96.5224C191.645 93.3222 191.58 91.1229 190.671 89.806C189.907 88.7129 188.485 88.0808 186.18 87.8174C185.811 87.7779 184.652 87.1194 184.692 86.7507C184.731 86.3819 185.969 86.4346 186.338 86.4741C189.051 86.7902 190.789 87.6067 191.777 89.0421C192.949 90.7278 193.068 93.2037 192.172 96.8516C191.843 98.2081 191.04 99.0641 190.026 99.1563C189.973 99.1694 189.907 99.1694 189.841 99.1694Z" fill="#000200"/>
<path d="M152.927 187.732C136.729 187.732 128.616 173.97 128.511 173.799C128.327 173.47 128.432 173.062 128.761 172.877C129.091 172.693 129.499 172.798 129.683 173.127C130.131 173.904 140.904 192.092 163.094 184.611C184.481 177.394 186.641 150.95 186.404 131.683C186.272 120.437 187.194 113.43 188.103 106.648C188.472 103.896 188.814 101.288 189.091 98.4304C189.13 98.0616 189.459 97.7719 189.828 97.8246C190.197 97.8641 190.473 98.1933 190.434 98.5621C190.157 101.446 189.815 104.054 189.446 106.832C188.551 113.562 187.629 120.516 187.76 131.67C187.905 143.009 188.314 177.539 163.529 185.889C159.683 187.192 156.141 187.732 152.927 187.732Z" fill="#000200"/>
<path d="M177.568 125.125C172.208 125.125 166.611 123.15 160.843 119.199C160.54 118.988 160.461 118.567 160.672 118.264C160.882 117.961 161.304 117.882 161.607 118.093C170.746 124.348 179.03 125.468 186.945 121.517C187.274 121.346 187.682 121.491 187.853 121.82C188.024 122.149 187.88 122.557 187.55 122.729C184.324 124.322 180.992 125.125 177.568 125.125Z" fill="#000200"/>
<path d="M177.225 133.014C171.865 133.014 166.268 131.039 160.5 127.088C160.197 126.877 160.118 126.456 160.329 126.153C160.539 125.85 160.961 125.771 161.264 125.982C170.403 132.237 178.687 133.356 186.602 129.406C186.931 129.234 187.339 129.379 187.511 129.709C187.682 130.038 187.537 130.446 187.208 130.617C183.981 132.211 180.649 133.014 177.225 133.014Z" fill="#000200"/>
<path d="M128.59 159.643C130.526 170.481 136.229 181.28 136.229 181.28L129.196 174.761L128.59 159.643Z" fill="#000200"/>
<path d="M120.386 164.291C118.714 167.991 116.804 170.968 108.771 172.904C108.415 172.996 108.046 172.772 107.954 172.403C107.862 172.035 108.086 171.679 108.455 171.587C115.909 169.796 117.594 167.201 119.161 163.738C120.149 161.538 120.083 160.406 119.846 159.84C119.688 159.458 119.399 159.194 118.964 159.023C118.187 158.72 116.896 160.551 115.777 162.171L115.145 163.066C114.17 164.436 110.654 165.568 104.688 166.438C103.766 166.569 102.831 166.24 102.212 165.542C101.923 165.213 101.712 164.844 101.607 164.436C101.475 163.962 101.462 163.448 101.593 162.961C101.672 162.645 101.962 162.434 102.291 162.46C102.489 162.473 102.7 162.473 102.897 162.473C106.242 162.46 109.956 160.735 110.114 159.023C110.14 158.76 110.061 158.641 109.996 158.549C109.521 158.022 107.888 157.877 105.926 157.838C105.413 157.825 104.873 157.812 104.333 157.812C104.24 157.812 104.161 157.812 104.069 157.812C103.003 157.798 101.844 157.785 100.645 157.746C96.6417 157.588 94.8112 160.116 93.1518 163.066C92.9543 163.409 92.7699 163.764 92.5724 164.107C92.546 164.159 92.5197 164.199 92.4933 164.251C92.1509 164.87 91.8217 165.476 91.4661 166.069C88.3977 171.179 70.553 172.522 65.1536 172.798C63.3757 172.891 61.69 172.943 60.1228 172.943C50.1404 172.943 44.4644 171.02 42.8182 167.109C40.6452 161.907 45.0175 152.899 57.4099 146.473C57.7392 146.301 58.1474 146.433 58.3186 146.762C58.4898 147.092 58.3581 147.5 58.0289 147.671C46.769 153.505 42.0939 161.881 44.0693 166.596C45.6891 170.481 52.7611 172.127 65.0877 171.468C78.6259 170.757 88.5293 168.36 90.3072 165.384C90.676 164.778 91.0184 164.133 91.3608 163.501C91.3608 163.488 91.3739 163.474 91.3739 163.474C91.5847 163.092 91.7954 162.711 92.0061 162.315C93.7313 159.247 95.9174 156.205 100.672 156.402C101.87 156.442 103.016 156.455 104.069 156.468C104.464 156.468 104.833 156.481 105.189 156.481C105.755 156.495 106.282 156.508 106.769 156.521C108.837 156.613 110.246 156.85 110.97 157.653C111.339 158.062 111.484 158.562 111.431 159.155C111.168 161.868 106.677 163.83 102.831 163.83C102.858 164.133 102.989 164.409 103.2 164.646C103.529 165.015 103.99 165.186 104.478 165.107C109.745 164.344 113.327 163.29 114.039 162.289L114.658 161.407C116.212 159.194 117.673 157.1 119.438 157.772C120.215 158.075 120.781 158.615 121.084 159.339C121.571 160.511 121.348 162.184 120.386 164.291Z" fill="#000200"/>
<path d="M109.547 178.962C109.27 178.962 109.02 178.79 108.915 178.527C108.783 178.171 108.967 177.79 109.31 177.658C109.376 177.631 116.158 175.09 119.042 171.797C121.781 168.676 122.124 165.66 120.109 162.579C119.898 162.263 119.99 161.854 120.306 161.644C120.622 161.433 121.031 161.525 121.241 161.841C123.612 165.45 123.217 169.098 120.069 172.693C116.961 176.236 110.087 178.817 109.797 178.922C109.705 178.948 109.613 178.962 109.547 178.962Z" fill="#000200"/>
<path d="M110.785 184.69C110.535 184.69 110.285 184.545 110.179 184.308C110.021 183.966 110.166 183.571 110.495 183.413C110.535 183.386 114.986 181.266 118.489 178.751C121.729 176.42 122.809 172.759 121.452 168.729C121.334 168.373 121.518 167.991 121.874 167.873C122.229 167.754 122.611 167.939 122.73 168.294C124.271 172.864 122.98 177.184 119.279 179.844C115.671 182.438 111.272 184.532 111.088 184.624C110.97 184.677 110.877 184.69 110.785 184.69Z" fill="#000200"/>
<path d="M85.4347 197.03C85.2635 197.03 85.0791 196.965 84.9474 196.833C78.4944 190.209 76.8877 181.293 80.1933 170.323C80.2986 169.967 80.6805 169.77 81.0361 169.875C81.3917 169.98 81.5892 170.362 81.4839 170.718C78.2969 181.319 79.7455 189.55 85.922 195.898C86.1854 196.161 86.1722 196.596 85.9088 196.846C85.7771 196.965 85.6059 197.03 85.4347 197.03Z" fill="#000200"/>
<path d="M77.9274 198.294C77.7562 198.294 77.5718 198.228 77.4401 198.097C70.9871 191.472 69.3804 182.557 72.6859 171.586C72.7913 171.231 73.1732 171.033 73.5288 171.139C73.8843 171.244 74.0819 171.626 73.9765 171.981C70.7895 182.583 72.2382 190.814 78.4146 197.162C78.678 197.425 78.6648 197.859 78.4015 198.11C78.2698 198.228 78.0986 198.294 77.9274 198.294Z" fill="#000200"/>
<path d="M120.202 184.862C117.963 187.509 108.362 190.578 101.172 192.435C100.579 192.593 99.9996 192.737 99.4333 192.869C96.9706 193.475 94.9425 193.883 93.8363 194.041C93.4807 194.094 92.7432 194.239 91.6897 194.436C91.1629 194.542 90.6361 194.634 90.1094 194.739C89.3982 194.871 88.7002 195.003 88.0022 195.121C73.4763 197.742 61.637 198.809 51.997 198.809C31.6765 198.809 21.1014 194.068 15.6098 189.129C10.0523 184.125 7.60274 177.184 8.3534 168.492C12.4096 120.951 75.5571 103.304 82.0892 101.618V101.434C82.5369 101.697 82.9979 101.934 83.4588 102.184C83.4456 102.487 83.2349 102.737 82.932 102.803C65.0479 106.82 13.2129 127.549 9.70985 168.611C9.01187 176.855 11.3034 183.413 16.5316 188.128C24.5123 195.305 43.6212 202.009 89.4245 193.501C90.0962 193.383 90.781 193.251 91.4658 193.119C91.4921 193.119 91.5185 193.106 91.558 193.106C92.5984 192.909 93.3227 192.764 93.6783 192.724C94.7582 192.566 96.2595 192.276 98.011 191.868C98.5773 191.737 99.1568 191.592 99.7626 191.447C107.111 189.616 117.212 186.363 119.187 184.006C121.729 180.99 120.399 178.751 120.333 178.659C120.136 178.343 120.228 177.935 120.544 177.737C120.86 177.54 121.268 177.632 121.466 177.935C121.532 178.053 123.402 181.056 120.202 184.862Z" fill="#000200"/>
</g>
<path d="M100.103 197.812C45.7956 197.812 1.771 153.787 1.771 99.4801H-0.229004C-0.229004 154.892 44.691 199.812 100.103 199.812V197.812ZM198.434 99.4801C198.434 153.787 154.41 197.812 100.103 197.812V199.812C155.514 199.812 200.434 154.892 200.434 99.4801H198.434ZM100.103 1.14844C154.41 1.14844 198.434 45.173 198.434 99.4801H200.434C200.434 44.0685 155.514 -0.851562 100.103 -0.851562V1.14844ZM100.103 -0.851562C44.691 -0.851562 -0.229004 44.0685 -0.229004 99.4801H1.771C1.771 45.173 45.7956 1.14844 100.103 1.14844V-0.851562Z" fill="black" fill-opacity="0.1"/>
<defs>
<clipPath id="clip0_3_14606">
<path d="M0.770996 99.4801C0.770996 44.6207 45.2433 0.148438 100.103 0.148438V0.148438C154.962 0.148438 199.434 44.6207 199.434 99.4801V99.4801C199.434 154.34 154.962 198.812 100.103 198.812V198.812C45.2433 198.812 0.770996 154.34 0.770996 99.4801V99.4801Z" fill="white"/>
</clipPath>
</defs>
</svg>
