<svg width="200" height="199" viewBox="0 0 200 199" fill="none" xmlns="http://www.w3.org/2000/svg">
<path d="M0.903809 99.4801C0.903809 44.6207 45.3761 0.148438 100.235 0.148438V0.148438C155.095 0.148438 199.567 44.6207 199.567 99.4801V99.4801C199.567 154.34 155.095 198.812 100.235 198.812V198.812C45.3761 198.812 0.903809 154.34 0.903809 99.4801V99.4801Z" fill="#F8F8F8"/>
<path d="M139.944 89.1924C139.633 89.1924 139.343 89.0366 139.165 88.7694C138.876 88.3465 138.987 87.7677 139.41 87.4561C142.304 85.4972 143.973 82.0468 143.973 77.9955C143.973 74.1667 142.215 70.6719 139.299 68.6462C138.876 68.3568 138.764 67.778 139.054 67.3328C139.343 66.9099 139.922 66.7986 140.367 67.088C143.817 69.4476 145.865 73.5212 145.865 77.9732C145.865 82.6479 143.907 86.6547 140.478 88.9698C140.3 89.1479 140.122 89.1924 139.944 89.1924Z" fill="#000200"/>
<path d="M91.5739 113.434C81.1339 121.292 63.3034 116.061 58.5397 104.174C54.1099 93.1107 61.2777 84.3847 72.252 80.7563C70.0037 72.1638 69.4695 60.6775 75.1459 51.306C78.9301 45.0509 85.163 40.7101 92.1081 39.3968C93.3102 39.1742 94.5345 39.0406 95.7588 38.9961H95.7811C96.2485 39.7752 96.716 40.5766 97.1835 41.3779C91.4403 47.9669 90.127 56.7597 89.615 65.3299C89.3256 70.0936 89.2588 74.8573 88.591 79.5987C88.0568 83.4052 90.2828 83.6278 92.7092 85.9429C101.546 94.3795 99.0756 107.802 91.5739 113.434Z" fill="#000200"/>
<path d="M90.6609 77.2616C91.44 66.5767 96.5821 49.8816 96.5821 49.8816C101.368 54.3113 135.226 56.0922 139.144 54.0665C137.563 45.3627 131.353 37.5049 112.32 37.5049C89.7927 37.5049 82.291 46.8987 82.291 61.9021C82.291 76.9055 82.291 76.9277 82.291 76.9277L82.4691 77.2394C85.7636 76.8609 87.3441 77.2616 90.6609 77.2616Z" fill="#000200"/>
<path d="M124.852 89.6381C124.34 89.6381 123.917 89.2151 123.917 88.7032C123.917 88.1912 124.34 87.7682 124.852 87.7682C126.611 87.7682 128.058 87.3008 128.725 86.5217C129.104 86.0765 129.237 85.5422 129.126 84.8744C128.881 83.383 125.587 82.5593 124.029 82.3813C123.561 82.3367 123.183 81.936 123.183 81.4463V72.8539C123.183 72.3419 123.606 71.9189 124.118 71.9189C124.63 71.9189 125.052 72.3419 125.052 72.8539V80.645C126.789 80.9566 130.529 81.9138 130.974 84.5628C131.174 85.7648 130.885 86.8778 130.15 87.746C129.104 88.948 127.212 89.6381 124.852 89.6381Z" fill="#000200"/>
<path d="M130.173 71.2514V73.1213C130.173 75.5476 133.935 75.5476 133.935 73.1213V71.2514C133.935 68.8251 130.173 68.8251 130.173 71.2514Z" fill="#000200"/>
<path d="M107.579 71.2514V73.1213C107.579 75.5476 111.341 75.5476 111.341 73.1213V71.2514C111.341 68.8251 107.579 68.8251 107.579 71.2514Z" fill="#000200"/>
<path d="M108.291 62.1683C106.777 62.5022 105.33 62.9029 103.906 63.5039C102.793 63.9714 103.75 65.5964 104.863 65.1289C106.109 64.5947 107.467 64.2608 108.803 63.9714C109.96 63.7265 109.471 61.9234 108.291 62.1683Z" fill="#000200"/>
<path d="M134.401 61.4555C133.333 61.0103 132.198 60.7432 131.174 60.2312C130.105 59.697 129.059 61.2329 130.127 61.7894C131.307 62.3905 132.576 62.7244 133.778 63.2364C134.891 63.6816 135.492 61.923 134.401 61.4555Z" fill="#000200"/>
<path d="M113.121 98.1189C111.719 97.8963 109.849 97.2507 109.76 95.5812C109.693 94.3792 107.801 94.3792 107.89 95.5812C108.046 98.1411 110.294 99.5658 112.632 99.922C113.811 100.122 114.301 98.297 113.121 98.1189Z" fill="#000200"/>
<path d="M140.768 70.6275C140.746 68.9357 140.702 67.1994 140.679 65.4186C140.635 63.3039 140.59 61.1224 140.568 58.8741C140.323 44.0933 130.818 36.5693 112.32 36.5693C91.195 36.5693 81.356 44.6275 81.356 61.9015V76.9271C81.356 77.4391 81.7789 77.862 82.2909 77.862C82.8029 77.862 83.2258 77.4391 83.2258 76.9271V61.9015C83.2258 45.6738 92.1967 38.4392 112.32 38.4392C129.839 38.4392 138.453 45.1395 138.676 58.8963C138.698 61.1446 138.743 63.3261 138.787 65.4408C138.832 67.2217 138.854 68.958 138.876 70.6497C139.032 78.285 139.143 85.0744 138.988 90.9511C138.632 104.129 137.051 113.656 130.618 117.396C122.827 121.893 108.758 121.025 108.625 121.025C108.313 121.002 108.001 121.136 107.801 121.403C107.601 121.67 107.556 122.004 107.668 122.293C110.027 128.593 117.93 131.131 118.263 131.242C118.352 131.264 118.441 131.287 118.553 131.287C118.909 131.287 119.265 131.064 119.421 130.73L123.072 122.427C123.138 122.271 123.161 122.115 123.138 121.96C126.121 121.359 129.104 120.446 131.553 119.021C138.743 114.836 140.479 104.797 140.858 90.9956C141.036 85.0966 140.924 78.285 140.768 70.6275Z" fill="#000200"/>
<path d="M84.6947 91.4188C80.443 91.4188 78.0612 90.0164 76.7923 88.7921C75.3899 87.4342 74.6108 85.6311 74.6108 83.7168C74.6108 82.4479 74.967 80.5781 76.6365 78.9976C79.0406 76.727 83.3814 75.7253 89.5252 76.037C90.0372 76.0592 90.4379 76.5045 90.4156 77.0164C90.3933 77.5284 89.9036 77.9514 89.4362 77.9068C83.8934 77.6175 79.9088 78.4634 77.9276 80.3555C76.9704 81.2681 76.4807 82.4034 76.4807 83.7168C76.4807 84.5181 76.681 86.0763 78.1057 87.4342C79.6639 88.9256 82.2016 89.6602 85.4516 89.5267C85.9636 89.5267 86.4088 89.9051 86.431 90.4171C86.4533 90.9291 86.0526 91.3743 85.5406 91.3965C85.229 91.4188 84.9618 91.4188 84.6947 91.4188Z" fill="#000200"/>
<path d="M41.421 185.289C40.9758 185.289 40.5751 184.955 40.4861 184.51C38.082 170.33 33.4074 123.272 74.2326 113.322C74.7446 113.188 75.2343 113.5 75.3679 114.012C75.5014 114.524 75.1898 115.014 74.6778 115.147C35.433 124.719 39.9964 170.419 42.3337 184.198C42.4227 184.71 42.0666 185.2 41.5546 185.289C41.5101 185.289 41.4656 185.289 41.421 185.289Z" fill="#000200"/>
<path d="M111.942 133.157C109.471 133.157 106.756 132.689 104.218 131.732C99.4989 129.951 91.3072 125.076 89.6599 112.366C89.5931 111.854 89.9493 111.386 90.4613 111.32C90.9732 111.253 91.4407 111.609 91.5075 112.121C93.0435 123.852 100.545 128.349 104.864 129.974C110.451 132.066 115.905 131.465 117.953 129.662C118.331 129.328 118.932 129.35 119.288 129.751C119.622 130.129 119.6 130.731 119.199 131.064C117.619 132.445 114.97 133.157 111.942 133.157Z" fill="#000200"/>
<path d="M159.267 166.569C158.866 166.569 158.488 166.301 158.376 165.901C151.988 144.264 140.746 131.397 120.823 122.872C120.356 122.671 120.133 122.115 120.334 121.647C120.534 121.18 121.09 120.957 121.558 121.158C142.059 129.928 153.59 143.173 160.157 165.389C160.313 165.878 160.023 166.413 159.534 166.546C159.445 166.546 159.356 166.569 159.267 166.569Z" fill="#000200"/>
<path d="M90.5717 187.827C90.1711 187.827 89.7926 187.56 89.6591 187.137L81.3783 157.397C81.2447 156.907 81.5341 156.373 82.0238 156.24C82.5135 156.106 83.0478 156.395 83.1813 156.885L91.4622 186.625C91.5957 187.115 91.3063 187.649 90.8166 187.782C90.7498 187.827 90.6608 187.827 90.5717 187.827Z" fill="#000200"/>
<path d="M109.693 188.384C109.448 188.384 109.203 188.295 109.025 188.095C108.669 187.717 108.669 187.138 109.047 186.759C126.366 170.176 142.126 162.696 151.208 166.77C161.492 171.4 161.826 179.926 161.826 180.304C161.849 180.816 161.426 181.239 160.914 181.261C160.424 181.239 159.957 180.861 159.957 180.349C159.957 180.037 159.6 172.602 150.429 168.484C142.059 164.722 127.078 172.068 110.338 188.117C110.16 188.295 109.916 188.384 109.693 188.384Z" fill="#000200"/>
<path d="M157.664 183.887C157.174 183.887 156.751 183.509 156.729 182.997C156.551 180.014 156.462 178.634 149.873 174.048C149.45 173.759 149.339 173.158 149.65 172.735C149.94 172.312 150.541 172.201 150.964 172.512C157.709 177.209 158.376 178.99 158.621 182.908C158.644 183.42 158.265 183.865 157.731 183.909C157.709 183.887 157.686 183.887 157.664 183.887Z" fill="#000200"/>
<path d="M151.609 186.314C151.119 186.314 150.696 185.914 150.674 185.424C150.674 185.402 150.385 181.684 145.754 177.611C145.376 177.277 145.331 176.676 145.665 176.297C145.999 175.896 146.6 175.874 147.001 176.208C152.277 180.838 152.544 185.157 152.566 185.335C152.588 185.847 152.188 186.292 151.676 186.314C151.653 186.314 151.631 186.314 151.609 186.314Z" fill="#000200"/>
<path d="M145.778 189.141C145.288 189.141 144.887 188.762 144.843 188.273C144.82 188.139 144.487 184.845 139.745 181.951C139.3 181.684 139.166 181.105 139.433 180.66C139.701 180.214 140.279 180.081 140.725 180.348C146.356 183.776 146.713 187.961 146.713 188.139C146.757 188.651 146.356 189.096 145.844 189.141C145.822 189.141 145.8 189.141 145.778 189.141Z" fill="#000200"/>
<path d="M84.2495 70.8948C84.2717 71.4068 83.8488 71.852 83.3368 71.8742H83.3146C82.8026 71.8742 82.4019 71.4736 82.3796 70.9616C82.0235 59.8537 83.1365 47.388 92.1073 39.3743C93.3094 39.1517 94.5337 39.0182 95.758 38.9736C85.1622 46.3863 83.8933 59.4308 84.2495 70.8948Z" fill="#F8F8F8"/>
<path d="M104.573 107.267C104.484 107.267 104.395 107.245 104.283 107.223C103.705 107.045 89.8143 102.548 84.5609 89.0362C84.3828 88.5465 84.6054 88.0122 85.0952 87.8119C85.5849 87.6338 86.1191 87.8564 86.3195 88.3461C91.2612 101.012 104.729 105.397 104.862 105.42C105.352 105.576 105.641 106.11 105.486 106.599C105.352 107.022 104.974 107.267 104.573 107.267Z" fill="#F8F8F8"/>
<path d="M85.4304 93.5104C91.4913 93.5104 96.4046 88.1186 96.4046 81.4676C96.4046 74.8165 91.4913 69.4248 85.4304 69.4248C79.3694 69.4248 74.4561 74.8165 74.4561 81.4676C74.4561 88.1186 79.3694 93.5104 85.4304 93.5104Z" fill="#F8F8F8"/>
<path d="M85.4297 94.4456C78.7517 94.4456 73.5205 88.747 73.5205 81.4679C73.5205 74.3224 78.863 68.4902 85.4297 68.4902C91.9965 68.4902 97.3389 74.3001 97.3389 81.4679C97.3612 88.9696 92.3304 94.4456 85.4297 94.4456ZM85.4297 70.3601C79.8869 70.3601 75.3904 75.3464 75.3904 81.4457C75.3904 87.7676 79.7088 92.5313 85.4297 92.5313C91.2396 92.5313 95.4691 87.8566 95.4691 81.4457C95.4691 75.3464 90.9725 70.3601 85.4297 70.3601Z" fill="#000200"/>
<path d="M106.822 104.018C115.415 105.51 113.812 112.232 106.021 108.982C96.2931 104.931 96.449 102.215 106.822 104.018Z" fill="#000200"/>
<path d="M86.9435 74.6794C85.9418 74.0116 85.0068 75.6366 85.9863 76.3044C89.7928 78.8643 89.815 84.1177 86.0308 86.6999C85.0514 87.39 85.9863 89.015 86.988 88.3249C91.952 84.8968 91.952 78.0629 86.9435 74.6794Z" fill="#000200"/>
<path d="M144.909 166.569C144.531 166.569 144.175 166.346 144.041 165.968L141.503 159.357C141.325 158.867 141.548 158.333 142.038 158.132C142.527 157.954 143.062 158.177 143.262 158.666L145.8 165.278C145.978 165.767 145.755 166.302 145.265 166.502C145.154 166.547 145.02 166.569 144.909 166.569Z" fill="#000200"/>
<path d="M100.235 197.812C45.9284 197.812 1.90381 153.787 1.90381 99.4801H-0.0961914C-0.0961914 154.892 44.8238 199.812 100.235 199.812V197.812ZM198.567 99.4801C198.567 153.787 154.543 197.812 100.235 197.812V199.812C155.647 199.812 200.567 154.892 200.567 99.4801H198.567ZM100.235 1.14844C154.543 1.14844 198.567 45.173 198.567 99.4801H200.567C200.567 44.0685 155.647 -0.851562 100.235 -0.851562V1.14844ZM100.235 -0.851562C44.8238 -0.851562 -0.0961914 44.0685 -0.0961914 99.4801H1.90381C1.90381 45.173 45.9284 1.14844 100.235 1.14844V-0.851562Z" fill="black" fill-opacity="0.1"/>
</svg>
