<svg width="200" height="199" viewBox="0 0 200 199" fill="none" xmlns="http://www.w3.org/2000/svg">
<g clip-path="url(#clip0_3_14605)">
<path d="M0.614746 99.4801C0.614746 44.6207 45.087 0.148438 99.9464 0.148438V0.148438C154.806 0.148438 199.278 44.6207 199.278 99.4801V99.4801C199.278 154.34 154.806 198.812 99.9464 198.812V198.812C45.087 198.812 0.614746 154.34 0.614746 99.4801V99.4801Z" fill="#F8F8F8"/>
<path d="M178.912 90.6319C167.476 87.1576 154.448 95.7275 148.657 80.296C145.472 71.755 146.196 59.3345 136.555 54.7022C132.618 52.8203 128.072 53.5151 125.177 56.1787C124.771 56.2945 124.453 56.5551 124.366 57.0183C123.382 58.2054 122.658 59.682 122.368 61.4191C122.079 63.1562 124.771 63.909 125.061 62.1718C125.177 61.477 125.379 60.869 125.611 60.29C125.727 60.3189 125.814 60.3189 125.93 60.3479C131.373 70.568 124.714 84.1177 124.395 95.4959C125.177 94.4536 126.567 93.8167 127.811 94.2799C130.012 95.0906 132.444 95.2643 134.21 96.9725C136.381 99.057 136.237 102.068 135.831 104.79C135.629 106.237 135.426 107.627 135.165 109.046C143.533 107.337 152.681 108.148 160.122 112.086C163.336 113.794 165.739 116.081 167.592 118.745C176.364 117.963 183.921 114.46 186.527 106.15C188.64 99.4624 185.774 92.6875 178.912 90.6319Z" fill="#201000"/>
<path d="M73.2659 60.8979C69.1257 53.9493 62.5535 25.8367 104.592 42.8027C146.631 59.7687 137.279 70.4232 137.279 70.4232L73.2659 60.8979Z" fill="#201000"/>
<path d="M153.378 72.3338C149.903 61.7952 139.162 61.8531 131.634 64.6325C128.565 65.7906 126.018 67.383 124.744 68.8885C124.744 68.8885 124.86 57.1339 106.417 51.8067C90.5511 47.2322 79.8967 49.4326 73.9036 59.2474C73.5272 59.8844 73.1508 60.5503 72.8034 61.2451C64.7836 62.6638 58.2404 69.5834 57.6903 77.8058C57.285 84.0016 60.5855 89.9947 65.5943 93.4979C64.2046 102.763 63.6834 110.782 65.8838 115.531C69.5318 123.492 77.9859 126.04 86.9321 126.475C99.3816 126.446 111.744 126.301 118.519 116.023C122.717 111.564 126.191 104.76 129.318 96.9143C144.258 95.872 158.27 87.1863 153.378 72.3338Z" fill="#F8F8F8"/>
<path d="M154.679 71.87C153.318 67.7878 150.887 64.8636 147.412 63.1843C147.181 63.0685 146.978 62.9817 146.746 62.8948C145.675 62.4605 144.604 62.1421 143.533 61.9394C142.288 61.7078 141.072 61.6209 139.856 61.6499C139.19 61.6499 138.524 61.6788 137.916 61.7657C137.279 61.8236 136.671 61.9104 136.063 62.0263C135.831 62.0552 135.629 62.1131 135.426 62.1421C133.602 62.4895 132.125 62.9817 131.141 63.3291C129.867 63.8213 128.651 64.3714 127.58 64.9504C126.885 65.3268 126.248 65.7322 125.698 66.1375C125.64 65.8769 125.553 65.5874 125.437 65.2979C125.293 64.8636 125.119 64.4293 124.916 63.9371C124.801 63.6476 124.627 63.3291 124.482 62.9817C124.019 62.0842 123.44 61.0998 122.658 60.1154C119.966 56.6411 115.217 52.8774 106.763 50.4164C90.0868 45.6103 78.9402 48.216 72.6865 58.4651C72.5707 58.6678 72.4549 58.8415 72.3391 59.0442C72.1075 59.4206 71.9048 59.7969 71.7021 60.2023C71.4416 60.7234 71.181 61.2156 70.9494 61.7657C70.7178 62.2868 70.4861 62.8369 70.2835 63.387C69.2412 66.0796 68.4016 69.1775 67.7936 72.7096C67.3882 75.1127 66.925 77.5736 66.4907 79.9767C65.7959 83.8563 65.101 87.678 64.522 91.3259C64.4351 91.8471 64.3483 92.3682 64.2904 92.8604C64.2904 92.8894 64.2904 92.8894 64.2904 92.9183C64.2035 93.4395 64.1456 93.9606 64.0587 94.4817C64.0298 94.6554 64.0008 94.8581 63.9719 95.0318C63.9429 95.3503 63.885 95.6688 63.8561 95.9873C63.3349 99.78 63.0454 103.341 63.0454 106.526C63.0454 110.319 63.5086 113.59 64.6378 116.08C67.7936 122.971 74.4236 126.792 84.9044 127.69C85.4544 127.748 86.0335 127.777 86.5836 127.806C86.7573 127.603 86.96 127.429 87.1916 127.256C90.4632 124.882 94.4586 125.75 97.9908 124.708C97.9618 124.708 97.9329 124.708 97.9039 124.708C94.7771 124.968 91.5634 124.997 88.3786 125.026C87.9443 125.026 87.51 125.026 87.0468 125.026C76.5661 124.505 70.0808 121.176 67.1856 114.893C65.3326 110.84 65.5932 104.007 66.6644 95.9873C66.7223 95.4951 66.8092 95.0318 66.8671 94.5396C66.8961 94.4238 66.896 94.308 66.925 94.1633C66.9829 93.7869 67.0408 93.4395 67.0987 93.0631C67.7067 89.0387 68.4884 84.7827 69.2701 80.4399C69.7044 78.0079 70.1387 75.5759 70.573 73.1729C71.2678 69.1485 72.3101 65.6453 73.613 62.7501C73.8446 62.2579 74.0762 61.7657 74.3078 61.3025C74.3657 61.2156 74.3947 61.0998 74.4526 61.0129C74.6553 60.6366 74.8869 60.2602 75.0895 59.8838C80.6484 50.7638 90.4921 48.5924 106.011 53.08C117.707 56.4674 121.5 62.3737 122.745 65.9059C122.948 66.5139 123.092 67.035 123.179 67.4982C123.237 67.8167 123.266 68.0773 123.295 68.3089C123.324 68.5984 123.324 68.7721 123.324 68.83C123.324 69.0327 123.353 69.2354 123.44 69.4091C123.585 69.7565 123.874 70.0171 124.222 70.1329C124.772 70.3356 125.38 70.1908 125.756 69.7276C126.017 69.4091 126.335 69.1196 126.711 68.8011C127.088 68.5116 127.493 68.1931 127.956 67.9036C129.114 67.1508 130.533 66.456 132.068 65.8769C133.892 65.211 135.716 64.7478 137.511 64.5451C140.145 64.2266 142.635 64.4003 144.749 65.0952C144.98 65.182 145.212 65.24 145.444 65.3268C145.704 65.4426 145.936 65.5295 146.196 65.6453C148.976 66.9771 150.944 69.3512 152.045 72.6807C153.029 75.6917 153.232 78.5001 152.653 81.0768C152.363 82.4086 151.842 83.6536 151.118 84.8696C151.002 85.0723 150.858 85.2749 150.742 85.4776C148.107 89.4151 143.098 92.513 136.903 94.1922C136.324 94.337 135.716 94.5107 135.108 94.6265C134.789 94.6844 134.471 94.7713 134.152 94.8292C134.065 94.8581 133.978 94.8581 133.863 94.8871C133.197 95.0029 132.502 95.1187 131.807 95.2055C131.344 95.2634 130.852 95.3214 130.359 95.3793C130.301 95.3793 130.244 95.3793 130.215 95.3793C131.141 95.9873 131.517 96.9716 131.546 98.0429C131.662 98.0139 131.807 98.0139 131.923 97.985C132.154 97.956 132.386 97.9271 132.647 97.8981C133.081 97.8402 133.515 97.7823 133.921 97.6954C133.949 97.6954 133.978 97.6954 134.007 97.6665C134.355 97.6086 134.673 97.5507 134.992 97.4928C135.6 97.377 136.208 97.2322 136.787 97.0874C136.961 97.0585 137.163 97.0006 137.337 96.9427C138.263 96.7111 139.19 96.4215 140.058 96.132C140.522 95.9873 140.956 95.8135 141.39 95.6398C144.256 94.5396 146.775 93.092 148.889 91.4128C150.51 90.1099 151.9 88.6334 152.971 87.0121L153 86.9831C154.158 85.2749 154.94 83.393 155.345 81.4532C156.04 78.5001 155.808 75.2574 154.679 71.87Z" fill="#201000"/>
<path d="M82.1839 96.6259C81.7207 96.6259 81.2864 96.3943 80.9969 95.989C75.8434 87.8245 79.6941 79.2835 88.1481 67.2684C88.5824 66.6314 89.4509 66.4867 90.0879 66.9209C90.7248 67.3552 90.8696 68.2238 90.4353 68.8607C81.3733 81.7445 79.5203 88.4325 83.371 94.4835C83.7763 95.1204 83.6026 95.989 82.9367 96.3943C82.7051 96.568 82.4445 96.6259 82.1839 96.6259Z" fill="#201000"/>
<path d="M105.385 77.4751C106.432 77.3468 107.178 76.3936 107.049 75.346C106.921 74.2985 105.968 73.5534 104.92 73.6817C103.873 73.81 103.127 74.7632 103.256 75.8108C103.384 76.8583 104.337 77.6035 105.385 77.4751Z" fill="#201000"/>
<path d="M77.3868 74.9536C78.4344 74.8253 79.1795 73.8721 79.0512 72.8246C78.9228 71.777 77.9696 71.0319 76.9221 71.1602C75.8746 71.2885 75.1294 72.2418 75.2577 73.2893C75.3861 74.3368 76.3393 75.082 77.3868 74.9536Z" fill="#201000"/>
<path d="M97.1237 105.687C101.061 106.237 104.362 103.226 104.043 99.2309C103.899 97.2621 106.939 96.8858 107.083 98.8545C107.547 104.848 102.654 109.538 96.6605 108.727C94.7207 108.467 95.155 105.427 97.1237 105.687Z" fill="#201000"/>
<path d="M103.29 65.4724C103.637 64.6617 104.535 64.4011 105.317 64.6617C106.127 64.9512 106.938 65.2118 107.749 65.5013C108.53 65.7619 108.849 66.8042 108.559 67.528C108.212 68.3387 107.314 68.5992 106.533 68.3387C105.722 68.0491 104.911 67.7886 104.101 67.499C103.319 67.2095 103 66.1962 103.29 65.4724Z" fill="#201000"/>
<path d="M78.7949 61.2452L80.7058 61.0136C82.6746 60.7819 83.0509 63.8219 81.0822 64.0536L79.1713 64.2852C77.2026 64.5457 76.8262 61.5057 78.7949 61.2452Z" fill="#201000"/>
<path d="M179.899 254.415C150.454 254.415 127.843 221.612 112.643 199.493C111.716 198.161 110.819 196.829 109.95 195.584C97.3849 177.489 79.724 145.989 82.5035 133.337C84.3275 124.97 89.0756 124.535 92.8684 124.217C94.6634 124.072 96.3716 123.898 97.6455 122.972C105.607 117.153 108.242 108.727 110.182 102.59C111.398 98.7389 112.266 95.9595 114.148 94.8593C116.783 93.2959 118.52 94.0487 119.331 94.6277C121.126 95.9305 121.647 98.7968 120.807 102.474C119.707 107.28 113.772 120.337 113.54 120.887C113.222 121.582 112.411 121.901 111.687 121.582C110.992 121.264 110.674 120.453 110.992 119.729C111.05 119.585 117.044 106.382 118.086 101.837C118.723 99.0864 118.346 97.3492 117.68 96.857C117.072 96.4227 116.001 96.9728 115.567 97.2334C114.611 97.8124 113.743 100.534 112.845 103.429C110.906 109.567 107.981 118.861 99.2958 125.23C97.3849 126.62 95.2135 126.823 93.1289 126.996C89.5099 127.315 86.6436 127.575 85.225 133.945C82.9377 144.368 97.4428 172.683 112.237 193.992C113.106 195.237 114.004 196.569 114.93 197.9C130.622 220.715 154.334 255.139 184.589 251.317C193.072 250.246 198.457 247.293 201.584 242.053C208.069 231.196 204.827 209.829 191.335 174.883C188.99 168.774 186.876 163.187 184.965 158.062C168.55 114.431 165.596 106.556 133.749 111.623C132.967 111.738 132.272 111.217 132.157 110.465C132.041 109.712 132.562 108.988 133.315 108.872C167.391 103.458 171.271 113.736 187.571 157.078C189.482 162.202 191.596 167.761 193.941 173.87C207.751 209.684 210.965 231.803 203.987 243.471C200.426 249.435 194.201 252.881 184.937 254.068C183.257 254.328 181.549 254.415 179.899 254.415Z" fill="#201000"/>
<path d="M118.491 120.569C118.201 120.569 117.912 120.483 117.651 120.309C117.043 119.846 116.899 118.977 117.362 118.369C118.057 117.414 123.152 106.991 124.166 99.8975C124.513 97.4365 124.166 95.6704 123.21 95.1782C122.313 94.715 120.749 95.2651 119.417 96.539C118.867 97.0601 117.97 97.0312 117.449 96.4811C116.927 95.931 116.956 95.0335 117.507 94.5123C119.765 92.3699 122.486 91.675 124.484 92.6884C125.7 93.3253 127.64 95.1493 126.916 100.274C125.816 107.917 120.46 118.861 119.62 119.99C119.331 120.367 118.925 120.569 118.491 120.569Z" fill="#201000"/>
<path d="M123.384 119.439C123.095 119.439 122.805 119.352 122.545 119.178C121.937 118.715 121.792 117.847 122.255 117.239C122.95 116.283 128.046 105.86 129.059 98.7671C129.406 96.393 129.059 94.6269 128.19 94.0769C127.496 93.6426 126.309 93.9031 125.15 94.7138C124.514 95.1481 123.645 95.0033 123.211 94.3664C122.776 93.7294 122.921 92.8609 123.558 92.4266C125.701 90.95 127.959 90.6605 129.638 91.7028C130.999 92.5424 132.475 94.5111 131.809 99.1435C130.709 106.787 125.353 117.731 124.514 118.86C124.224 119.265 123.79 119.439 123.384 119.439Z" fill="#201000"/>
<path d="M127.96 119.121C127.67 119.121 127.381 119.034 127.149 118.86C126.541 118.397 126.396 117.528 126.86 116.92C127.555 115.965 133.056 104.268 134.069 97.0879C134.416 94.6269 134.069 92.8609 133.113 92.3687C132.216 91.9054 130.652 92.4555 129.321 93.7294C128.771 94.2506 127.873 94.2216 127.352 93.6715C126.831 93.1214 126.86 92.2239 127.41 91.7028C129.668 89.5603 132.39 88.8655 134.387 89.8788C135.603 90.5157 137.543 92.3397 136.819 97.4643C135.748 105.021 130.045 117.297 129.089 118.57C128.8 118.918 128.365 119.121 127.96 119.121Z" fill="#201000"/>
<path d="M170.403 209.162C169.969 209.162 169.564 208.959 169.274 208.583C164.989 202.764 159.604 196.018 153.901 188.895C134.329 164.431 114.091 139.127 121.503 130.73C122.169 129.978 122.864 129.225 123.588 128.414C129.146 122.334 135.458 115.473 132.244 107.192C131.955 106.468 132.331 105.658 133.026 105.397C133.75 105.108 134.532 105.484 134.821 106.179C138.672 116.081 131.115 124.303 125.614 130.296C124.89 131.078 124.196 131.831 123.559 132.554C117.71 139.184 139.859 166.892 156.043 187.129C161.776 194.281 167.161 201.026 171.475 206.904C171.938 207.512 171.793 208.38 171.185 208.844C170.982 209.075 170.693 209.162 170.403 209.162Z" fill="#201000"/>
<path d="M30.6202 213.389C30.4176 213.389 30.2149 213.331 30.0122 213.244C29.3174 212.896 29.0568 212.057 29.3753 211.391C47.6152 174.795 66.4342 133.625 65.4208 129.427C64.7549 127.661 63.6258 126.011 62.4098 124.274C59.6883 120.365 56.5614 115.906 57.2273 107.887C57.5458 104.123 58.4723 92.7445 65.2761 92.7735C66.0288 92.7735 66.6658 93.4104 66.6658 94.1921C66.6658 94.9449 66.0288 95.5819 65.2761 95.5819H65.2471C62.5256 95.5819 60.7016 99.9247 60.0357 108.147C59.4567 115.154 62.1203 119.004 64.726 122.71C66.0288 124.592 67.2738 126.387 68.0844 128.501C70.4296 134.783 38.3794 199.694 31.9231 212.636C31.6335 213.099 31.1414 213.389 30.6202 213.389Z" fill="#201000"/>
<path d="M32.4741 254.183C24.2516 254.183 18.3743 251.693 14.5237 246.626C6.88027 236.493 7.86466 215.908 17.5347 183.655C33.6901 129.775 39.1331 111.622 57.5467 110.319C58.3284 110.232 58.9654 110.84 59.0233 111.622C59.0812 112.374 58.5022 113.04 57.7204 113.098C41.8836 114.198 36.8459 128.819 20.1694 184.466C10.7888 215.792 9.63074 235.595 16.6951 244.947C20.0535 249.376 25.3518 251.548 32.9084 251.403C54.6515 251.143 62.3528 236.898 69.533 219.758C76.5973 202.879 91.7393 166.139 91.8841 165.791C92.1736 165.068 92.9843 164.749 93.7081 165.039C94.4319 165.328 94.7504 166.139 94.4609 166.863C94.3161 167.239 79.1451 203.979 72.1097 220.859C64.8427 238.259 56.3597 253.922 32.9663 254.212C32.8215 254.183 32.6478 254.183 32.4741 254.183Z" fill="#201000"/>
<path d="M54.0144 161.246C53.8407 161.101 53.667 160.985 53.4643 160.841C47.5291 156.845 34.0663 155.513 29.2602 156.44C29.0865 156.469 28.9128 156.527 28.7391 156.556C27.581 156.845 26.8572 157.279 26.4808 157.916C26.0755 158.582 26.3071 159.422 26.973 159.827C27.1757 159.972 27.4073 160.03 27.6389 160.03C28.0732 160.03 28.5075 159.827 28.797 159.451C30.6789 158.206 46.6605 159.132 52.2773 163.417C52.2773 163.417 52.3062 163.417 52.3062 163.446C52.5668 163.649 52.8563 163.736 53.1458 163.736C53.5512 163.736 53.9854 163.562 54.246 163.186C54.7382 162.607 54.6224 161.738 54.0144 161.246Z" fill="#201000"/>
<path d="M161.139 196.192C160.559 196.192 160.009 195.815 159.807 195.236L146.373 154.008C146.141 153.284 146.547 152.503 147.27 152.242C147.994 152.01 148.776 152.416 149.036 153.139L162.47 194.368C162.702 195.091 162.297 195.873 161.573 196.134C161.428 196.163 161.283 196.192 161.139 196.192Z" fill="#201000"/>
<path d="M183.431 152.879C183.402 152.792 183.402 152.705 183.373 152.647C172.024 150.737 155.637 158.004 150.396 163.244C149.846 163.794 149.846 164.663 150.396 165.213C150.657 165.473 151.033 165.618 151.381 165.618C151.728 165.618 152.105 165.473 152.365 165.213C157.374 160.204 174.224 152.879 184.473 155.745C184.068 154.819 183.692 153.863 183.431 152.879Z" fill="#201000"/>
<path d="M136.585 96.537C146.307 96.537 154.188 88.6559 154.188 78.934C154.188 69.2122 146.307 61.3311 136.585 61.3311C126.864 61.3311 118.982 69.2122 118.982 78.934C118.982 88.6559 126.864 96.537 136.585 96.537Z" fill="#F8F8F8"/>
<path d="M139.365 90.9779C146.017 90.9779 151.41 85.5856 151.41 78.9338C151.41 72.282 146.017 66.8896 139.365 66.8896C132.714 66.8896 127.321 72.282 127.321 78.9338C127.321 85.5856 132.714 90.9779 139.365 90.9779Z" fill="#853EF3"/>
<path d="M136.587 62.7214C136.558 62.7214 136.529 62.7214 136.529 62.7214C135.776 62.6925 135.168 62.0266 135.197 61.2738C135.515 54.4121 130.651 47.7821 121.85 43.0629C110.472 36.9829 93.0424 35.1589 81.78 43.4682C81.172 43.9314 80.3034 43.7867 79.8402 43.1787C79.377 42.5707 79.5217 41.7021 80.1297 41.2389C92.8977 31.8294 111.369 34.3193 123.153 40.6309C132.939 45.8712 138.324 53.4567 137.947 61.4186C137.918 62.1424 137.31 62.7214 136.587 62.7214Z" fill="#201000"/>
<path d="M149.036 212.927C148.139 209.944 146.518 207.831 144.723 206.47C146.315 202.243 147.154 196.974 146.778 192.834C146.257 186.956 144.201 181.34 141.393 177.663C141.625 176.563 141.827 175.26 141.943 173.783C142.059 172.48 142.117 171.062 142.175 169.469C142.377 160.87 141.451 148.218 140.148 132.092C139.656 126.07 139.193 120.25 138.874 115.068C138.845 114.605 138.816 114.141 138.787 113.678C138.758 113.215 138.729 112.752 138.7 112.288C138.671 111.825 138.643 111.391 138.614 110.928C138.585 110.088 138.527 109.249 138.498 108.467C138.498 108.38 138.498 108.264 138.498 108.177C138.44 106.643 138.411 105.253 138.411 103.95C138.411 103.169 137.803 102.561 137.021 102.561C136.268 102.561 135.631 103.197 135.631 103.95C135.631 105.34 135.66 106.874 135.718 108.525C135.718 108.641 135.718 108.756 135.747 108.901C135.747 109.22 135.776 109.538 135.776 109.857C135.805 110.349 135.834 110.841 135.834 111.333C135.863 111.565 135.863 111.825 135.863 112.057C135.863 112.144 135.863 112.231 135.892 112.288C135.921 112.752 135.95 113.215 135.979 113.678C136.008 114.141 136.037 114.605 136.066 115.068C136.384 120.308 136.876 126.215 137.369 132.323C138.208 142.573 139.251 155.833 139.366 165.763C139.395 167.414 139.395 168.948 139.337 170.396C139.279 172.191 139.193 173.812 139.019 175.173C138.932 175.115 138.874 175.057 138.787 174.999C137.079 173.696 135.226 173.175 133.518 173.494C131.694 173.812 130.391 175.086 130.073 176.881C129.667 179.11 130.768 181.6 132.707 182.787C134.647 183.974 137.05 183.685 139.251 181.977C139.598 181.716 139.916 181.34 140.206 180.876C142.146 184.09 143.564 188.52 143.97 193.065C144.346 197.148 143.507 201.577 142.262 205.052C141.451 204.733 140.669 204.53 139.916 204.415C137.34 204.067 135.081 204.878 134.01 206.528C133.46 207.368 132.794 209.192 134.444 211.768C136.182 214.49 138.295 214.114 139.106 213.824C140.756 213.245 142.262 211.508 143.506 209.105C144.665 210.147 145.707 211.653 146.344 213.737C147.039 216.024 148.863 224.102 143.159 231.717C142.899 232.064 142.638 232.411 142.348 232.73C141.769 233.396 141.132 234.062 140.409 234.757C134.068 240.663 121.271 246.453 95.301 246.222C81.925 246.106 71.2996 245.99 62.8455 245.874C62.3823 245.874 61.919 245.845 61.4558 245.845C59.7476 245.816 58.1263 245.787 56.5918 245.787C55.0574 245.758 53.5808 245.729 52.22 245.729C51.7278 245.729 51.2357 245.7 50.7724 245.7C50.4539 245.7 50.1355 245.7 49.8459 245.672C49.7301 245.672 49.6143 245.672 49.4985 245.672C49.5275 246.598 49.5564 247.524 49.5854 248.451C49.6722 248.451 49.7591 248.451 49.8459 248.451C50.1644 248.451 50.4539 248.451 50.7724 248.48C50.9172 248.48 51.0909 248.48 51.2357 248.48C51.8147 248.48 52.4227 248.509 53.0307 248.509C53.4939 248.509 53.9282 248.538 54.4204 248.538C56.5629 248.567 58.908 248.596 61.4558 248.625C61.919 248.625 62.3823 248.625 62.8455 248.654C71.2996 248.769 81.9251 248.885 95.272 249.001C95.7932 249.001 96.2854 249.001 96.8065 249.001C118.521 249.001 133.808 244.861 142.406 236.696C143.101 236.059 143.738 235.365 144.346 234.67C144.694 234.235 145.041 233.801 145.388 233.367C151.903 224.71 149.818 215.532 149.036 212.927ZM137.571 179.805C136.674 180.5 135.342 181.166 134.184 180.442C133.228 179.863 132.62 178.502 132.823 177.402C132.939 176.736 133.344 176.36 134.039 176.244C134.213 176.215 134.387 176.186 134.531 176.186C135.342 176.186 136.211 176.534 137.137 177.228C137.571 177.547 138.006 177.952 138.411 178.387C138.179 179.081 137.919 179.545 137.571 179.805ZM138.237 211.189C138.035 211.276 137.571 211.421 136.819 210.263C136.471 209.713 135.95 208.728 136.384 208.034C136.732 207.455 137.658 207.136 138.787 207.136C139.048 207.136 139.308 207.165 139.569 207.194C140.09 207.281 140.64 207.397 141.19 207.628C140.235 209.568 139.164 210.9 138.237 211.189Z" fill="#201000"/>
<path d="M140.987 97.0293H134.038V113.706H140.987V97.0293Z" fill="#F8F8F8"/>
<path d="M139.599 96.248V112.317H135.43V96.248H132.65V113.706C132.65 113.967 132.737 114.227 132.853 114.43C133.085 114.806 133.49 115.067 133.982 115.096C134.011 115.096 134.04 115.096 134.04 115.096H140.989C141.741 115.096 142.378 114.488 142.378 113.706V96.248H139.599Z" fill="#201000"/>
<path d="M146.749 62.8955C145.62 62.1717 144.375 61.5637 143.101 61.1005C141.48 60.5214 139.772 60.1451 137.977 60.0003C137.514 59.9713 137.05 59.9424 136.587 59.9424C136.124 59.9424 135.661 59.9713 135.197 60.0003C134.966 60.0003 134.705 60.0292 134.474 60.0582C131.752 60.3477 129.175 61.2452 126.917 62.577C126.222 62.9824 125.556 63.4456 124.919 63.9378C124.543 64.2563 124.167 64.5748 123.79 64.8932C123.414 65.2407 123.066 65.5881 122.719 65.9355C122.111 66.5725 121.561 67.2673 121.04 67.9911C118.839 71.089 117.565 74.8528 117.565 78.9351C117.565 84.1175 119.65 88.8078 123.008 92.2242C123.124 92.34 123.24 92.4558 123.356 92.5716C123.501 92.7163 123.674 92.8611 123.819 93.0059C124.051 93.2085 124.253 93.4112 124.485 93.5849C124.832 93.8744 125.18 94.135 125.556 94.3956C125.875 94.6272 126.222 94.8299 126.541 95.0615C127.091 95.4089 127.641 95.7274 128.22 95.9879C128.509 96.1327 128.828 96.2775 129.117 96.3933C129.465 96.538 129.812 96.6828 130.16 96.7986C130.739 97.0013 131.318 97.175 131.897 97.3198C132.128 97.3777 132.36 97.4356 132.563 97.4645C132.997 97.5514 133.402 97.6382 133.837 97.6961C133.866 97.6961 133.895 97.6961 133.923 97.6961C134.242 97.754 134.56 97.783 134.879 97.783C135.4 97.8409 135.95 97.8409 136.471 97.8409C136.529 97.8409 136.558 97.8409 136.616 97.8409C138.093 97.8409 139.511 97.6672 140.901 97.3198C141.364 97.204 141.827 97.0881 142.291 96.9434C147.184 95.3799 151.208 91.8767 153.495 87.3602C154.422 85.5362 155.059 83.5385 155.348 81.425C155.464 80.5853 155.522 79.7168 155.522 78.8482C155.58 72.2181 152.048 66.2829 146.749 62.8955ZM139.598 94.8878C138.73 95.0615 137.832 95.1483 136.934 95.1773C136.819 95.1773 136.703 95.1773 136.558 95.1773C136.066 95.1773 135.603 95.1483 135.11 95.1194C134.792 95.0904 134.445 95.0615 134.126 95.0036C134.039 95.0036 133.923 94.9746 133.837 94.9457C133.055 94.8299 132.302 94.6272 131.578 94.3956C130.826 94.164 130.131 93.8744 129.436 93.527C128.596 93.1217 127.786 92.6295 127.033 92.0794C126.888 91.9925 126.772 91.8767 126.656 91.7899C126.425 91.6162 126.222 91.4424 125.991 91.2687C125.585 90.9213 125.209 90.5739 124.861 90.1975C122.024 87.2733 120.287 83.3069 120.287 78.9351C120.287 75.3739 121.445 72.1023 123.385 69.4098C123.616 69.0913 123.877 68.7439 124.138 68.4544C124.282 68.2806 124.427 68.1359 124.572 67.9622C125.469 66.9778 126.483 66.1092 127.612 65.3854C130.16 63.7062 133.229 62.7218 136.5 62.7218H136.529C137.629 62.7218 138.672 62.8376 139.714 63.0403C141.48 63.3877 143.13 64.0247 144.665 64.9222C144.925 65.0669 145.186 65.2406 145.417 65.3854C149.847 68.2806 152.742 73.2894 152.742 78.964C152.742 79.7168 152.685 80.4406 152.598 81.1644C152.395 82.641 151.99 84.0596 151.411 85.3914C150.571 87.3023 149.384 89.0394 147.907 90.487C145.736 92.6874 142.841 94.2798 139.598 94.8878Z" fill="#201000"/>
<path d="M64.4677 94.8013C64.5545 94.8592 64.6703 94.9171 64.7572 94.975C64.9599 94.0196 65.1915 93.0642 65.481 92.1087C65.1336 91.8771 64.8151 91.6165 64.4966 91.356C60.9645 88.3739 58.7062 83.9152 58.7062 78.9644C58.7062 71.6395 63.5702 65.4437 70.2581 63.417C70.8082 63.2433 71.3583 63.1275 71.9374 63.0117C71.9953 63.0117 72.0242 62.9828 72.0821 62.9828C72.3137 61.9984 72.5743 61.043 72.8638 60.0586C72.8349 60.0586 72.8349 60.0586 72.8059 60.0586C72.4296 60.0875 72.0532 60.1455 71.7057 60.2034C62.7595 61.7378 55.9268 69.5549 55.9268 78.9355C55.9268 84.7259 58.5325 89.9373 62.6437 93.4116C63.078 93.788 63.5412 94.1354 64.0044 94.4539C64.1782 94.5986 64.3229 94.6855 64.4677 94.8013Z" fill="#201000"/>
</g>
<path d="M99.9464 197.812C45.6393 197.812 1.61475 153.787 1.61475 99.4801H-0.385254C-0.385254 154.892 44.5348 199.812 99.9464 199.812V197.812ZM198.278 99.4801C198.278 153.787 154.254 197.812 99.9464 197.812V199.812C155.358 199.812 200.278 154.892 200.278 99.4801H198.278ZM99.9464 1.14844C154.254 1.14844 198.278 45.173 198.278 99.4801H200.278C200.278 44.0685 155.358 -0.851562 99.9464 -0.851562V1.14844ZM99.9464 -0.851562C44.5348 -0.851562 -0.385254 44.0685 -0.385254 99.4801H1.61475C1.61475 45.173 45.6393 1.14844 99.9464 1.14844V-0.851562Z" fill="black" fill-opacity="0.1"/>
<defs>
<clipPath id="clip0_3_14605">
<path d="M0.614746 99.4801C0.614746 44.6207 45.087 0.148438 99.9464 0.148438V0.148438C154.806 0.148438 199.278 44.6207 199.278 99.4801V99.4801C199.278 154.34 154.806 198.812 99.9464 198.812V198.812C45.087 198.812 0.614746 154.34 0.614746 99.4801V99.4801Z" fill="white"/>
</clipPath>
</defs>
</svg>
