<svg width="200" height="200" viewBox="0 0 200 200" fill="none" xmlns="http://www.w3.org/2000/svg">
<g clip-path="url(#clip0_3_14600)">
<path d="M0.770996 100.084C0.770996 45.2243 45.2433 0.751953 100.103 0.751953V0.751953C154.962 0.751953 199.434 45.2243 199.434 100.084V100.084C199.434 154.943 154.962 199.415 100.103 199.415V199.415C45.2433 199.415 0.770996 154.943 0.770996 100.084V100.084Z" fill="#F8F8F8"/>
<path d="M70.2126 135.479C70.0753 135.479 69.9551 135.445 69.835 135.376C69.4745 135.17 69.3543 134.707 69.5775 134.346C82.0065 113.402 101.44 108.836 110.779 106.638C111.173 106.553 111.585 106.793 111.688 107.205C111.791 107.617 111.534 108.012 111.122 108.115C101.989 110.261 82.9678 114.741 70.865 135.136C70.7105 135.342 70.4701 135.479 70.2126 135.479Z" fill="#000200"/>
<path d="M78.0403 146.294C77.9544 146.294 77.8858 146.277 77.8 146.26C77.4051 146.123 77.1991 145.711 77.3193 145.316L78.8128 140.801C78.9501 140.406 79.3621 140.2 79.757 140.32C80.1518 140.458 80.3578 140.87 80.2377 141.264L78.7442 145.779C78.6411 146.088 78.3493 146.294 78.0403 146.294Z" fill="#000200"/>
<path d="M4.49634 198.963C4.17017 198.963 3.86116 198.74 3.77532 198.397C3.67232 198.002 3.91266 197.59 4.30751 197.487C4.41051 197.452 14.728 194.74 17.8524 191.427C18.1442 191.118 18.6077 191.118 18.9167 191.392C19.2257 191.684 19.2257 192.148 18.9511 192.457C15.5176 196.096 5.13153 198.826 4.68519 198.946C4.61652 198.963 4.54784 198.963 4.49634 198.963Z" fill="#000200"/>
<path d="M-7.50361 211.702C-17.7352 211.702 -23.2287 210.225 -25.2888 206.912C-25.8896 205.968 -26.1986 204.869 -26.1815 203.616C-26.1299 199.101 -17.9241 195.564 -7.50361 195.564C2.96834 195.564 11.1571 199.101 11.1571 203.633C11.1571 205.23 10.3845 206.637 8.891 207.839C5.85242 210.294 -0.121744 211.702 -7.50361 211.702ZM-7.50361 197.075C-17.7352 197.075 -24.6364 200.474 -24.6707 203.633C-24.6879 204.594 -24.4647 205.401 -24.0184 206.105C-21.7352 209.779 -13.4949 210.191 -7.50361 210.191C-0.568089 210.191 5.21723 208.869 7.94681 206.637C9.09701 205.727 9.64635 204.749 9.64635 203.616C9.64635 200.457 2.76233 197.075 -7.50361 197.075Z" fill="#000200"/>
<path d="M122.52 36.8365C111.43 36.27 105.611 39.3085 102.624 43.669C101.508 45.317 102.984 47.5316 104.924 47.0853C107.121 46.5702 109.885 46.2097 112.838 46.0552C119.344 50.862 127.43 52.7847 135.31 51.4114C138.125 54.8105 138.28 61.9177 138.383 69.0077C138.4 70.1579 139.104 69.5742 140.254 69.5914C141.713 69.5914 142.898 69.557 144.735 69.8832L147.087 69.8317C147.087 69.8317 147.087 69.8317 147.705 57.8147C148.357 45.7977 140.546 37.7635 122.52 36.8365Z" fill="#000200"/>
<path d="M139.173 70.1075C143.619 70.1075 146.761 70.9487 148.272 72.5281C148.993 73.3006 149.336 74.2277 149.285 75.2749C149.25 75.9272 149.027 77.1632 147.843 78.1761C146.538 79.3091 144.478 79.7898 141.886 79.5495C141.456 79.5151 141.113 79.807 141.062 80.219L138.418 107.292C138.383 107.635 138.589 107.961 138.933 108.081C138.984 108.098 139.551 108.287 140.529 108.682C140.873 108.27 141.216 107.875 141.577 107.48C140.89 107.189 140.34 106.983 139.98 106.845L142.504 81.0773C145.851 81.2147 147.774 80.219 148.838 79.292C150.023 78.2619 150.727 76.8542 150.795 75.3264C150.847 74.2963 150.641 72.8028 149.37 71.4637C147.551 69.541 144.117 68.5625 139.173 68.5625C138.761 68.5625 138.418 68.9058 138.418 69.3179C138.435 69.7814 138.761 70.1075 139.173 70.1075Z" fill="#000200"/>
<path d="M111.981 76.1148C110.075 76.1148 108.582 75.5654 107.74 74.5697C107.157 73.883 106.934 72.9904 107.088 72.029C107.449 69.9003 110.436 69.1449 111.826 68.8874V62.6557C111.826 62.2437 112.17 61.9004 112.582 61.9004C112.994 61.9004 113.337 62.2437 113.337 62.6557V69.5398C113.337 69.9174 113.045 70.2436 112.667 70.2951C111.414 70.4325 108.77 71.102 108.582 72.2865C108.496 72.8187 108.599 73.2479 108.891 73.6084C109.423 74.2436 110.59 74.6212 111.981 74.6212C112.393 74.6212 112.736 74.9646 112.736 75.3766C112.736 75.7714 112.393 76.1148 111.981 76.1148Z" fill="#000200"/>
<path d="M105.526 65.3163L105.68 66.8099C105.886 68.7326 102.899 69.0588 102.693 67.1189L102.538 65.6253C102.332 63.7026 105.32 63.3936 105.526 65.3163Z" fill="#000200"/>
<path d="M125.8 65.7978L125.955 67.2913C126.161 69.214 123.173 69.5402 122.967 67.6003L122.813 66.1068C122.607 64.1841 125.594 63.8751 125.8 65.7978Z" fill="#000200"/>
<path d="M122.487 58.8457C123.723 58.9831 124.907 59.1891 126.092 59.5496C127.019 59.8414 126.384 61.1976 125.474 60.923C124.427 60.5968 123.328 60.4595 122.246 60.3393C121.285 60.2191 121.525 58.7256 122.487 58.8457Z" fill="#000200"/>
<path d="M100.77 59.4119C101.542 58.9141 102.401 58.5364 103.139 57.987C103.894 57.4034 104.959 58.4849 104.186 59.0686C103.345 59.7209 102.401 60.1501 101.508 60.7338C100.701 61.2488 99.963 59.9441 100.77 59.4119Z" fill="#000200"/>
<path d="M121.371 82.9137C122.487 82.7421 123.98 82.227 124.066 80.888C124.118 79.9267 125.628 79.9267 125.577 80.888C125.457 82.9309 123.654 84.0639 121.766 84.3558C120.822 84.5103 120.41 83.0682 121.371 82.9137Z" fill="#000200"/>
<path d="M142.606 42.6048C138.211 38.7422 131.465 36.5448 122.555 36.0984C107.757 35.3259 99.843 40.9396 99.0533 52.7849C98.8816 55.3085 98.7099 57.729 98.5383 60.0637C96.9245 82.6213 95.9632 96.2349 103.757 101.282C105.663 102.518 107.997 103.376 110.366 103.977C110.366 103.994 110.366 104.029 110.366 104.046L110.023 110.672C110.006 110.896 110.109 111.119 110.263 111.273C110.401 111.393 110.59 111.462 110.761 111.462C110.796 111.462 110.847 111.462 110.881 111.445C111.276 111.376 120.547 109.866 122.727 104.87C122.83 104.63 122.813 104.372 122.658 104.149C122.521 103.943 122.263 103.788 122.023 103.806C121.903 103.788 110.624 103.909 104.581 99.9945C97.5254 95.428 98.4868 82.1407 100.049 60.1324C100.221 57.7977 100.392 55.3771 100.564 52.8536C101.302 41.8494 108.495 36.8366 122.504 37.5748C131.07 38.0212 137.508 40.0812 141.645 43.7206C145.508 47.1026 147.31 51.8407 147.001 57.7634C146.469 68.0808 145.937 69.8833 145.851 70.1237C145.679 70.4155 145.731 70.8104 145.988 71.0507C146.297 71.3254 146.761 71.3082 147.053 71.0164C147.585 70.4327 148.083 66.0036 148.495 57.8492C148.804 51.4459 146.829 46.3129 142.606 42.6048Z" fill="#000200"/>
<path d="M115.036 134.622C114.985 134.622 114.933 134.622 114.882 134.605C114.624 134.553 114.418 134.364 114.315 134.124C112.804 129.918 110.143 111.601 110.023 110.828C109.955 110.416 110.246 110.038 110.658 109.97C111.07 109.901 111.448 110.193 111.517 110.605C111.534 110.777 113.869 126.673 115.362 132.39L138.624 106.897C138.898 106.588 139.379 106.571 139.688 106.845C139.997 107.12 140.014 107.601 139.74 107.91L115.585 134.381C115.431 134.536 115.242 134.622 115.036 134.622Z" fill="#000200"/>
<path d="M135.121 41.7808C131.516 35.9268 124.426 32.6822 117.611 34.1243C114.899 34.6908 113.92 34.0213 111.465 33.0256C109.336 32.1672 107.087 31.6179 104.804 31.4462C101.577 31.2059 97.5769 31.4977 95.5511 34.3818C90.5898 41.4203 100.255 47.0168 105.8 48.3902C114.521 50.5532 123.791 48.682 131.139 43.5834C131.19 43.549 131.224 43.4975 131.259 43.446C132.478 43.3774 133.697 43.3087 134.915 43.24C135.808 43.2057 135.877 41.9353 135.121 41.7808Z" fill="#000200"/>
<path d="M196.632 172.594C186.847 125.882 145.336 108.904 139.98 106.896C139.482 107.17 138.985 107.428 138.487 107.702C138.573 107.891 138.727 108.063 138.95 108.132C139.414 108.286 184.941 124.063 195.173 172.92C200.185 196.834 197.834 215.306 188.392 226.344C181.834 234.018 171.877 237.932 160.375 237.349C146.092 236.628 132.495 224.508 122.573 215.649C116.41 210.156 111.552 205.813 108.238 205.658C100.204 205.28 99.0024 204.285 97.629 201.521C97.4402 201.143 96.9938 201.006 96.6161 201.177C96.2384 201.366 96.1011 201.813 96.2728 202.19C97.9895 205.624 99.8607 206.757 108.152 207.152C110.934 207.289 115.86 211.684 121.56 216.765C131.654 225.778 145.474 238.104 160.289 238.859C161.062 238.894 161.817 238.911 162.572 238.911C173.594 238.911 183.104 234.842 189.525 227.323C199.276 215.89 201.73 196.971 196.632 172.594Z" fill="#000200"/>
<path d="M98.315 196.937C95.019 196.937 92.3924 196.267 90.4525 194.945C88.5813 193.675 87.4483 191.821 87.0706 189.452C87.0019 189.04 87.2766 188.662 87.6886 188.594C88.1006 188.525 88.4783 188.8 88.5469 189.212C88.856 191.151 89.783 192.662 91.2937 193.692C94.1263 195.632 99.0532 195.924 105.525 194.55C105.92 194.465 106.332 194.722 106.418 195.134C106.504 195.546 106.246 195.941 105.834 196.027C103.036 196.645 100.53 196.937 98.315 196.937Z" fill="#000200"/>
<path d="M103.07 202.929C95.9117 202.929 91.328 200.217 90.5383 195.324C90.4697 194.912 90.7443 194.534 91.1564 194.466C91.5684 194.397 91.946 194.672 92.0147 195.084C92.8044 200.011 98.4867 202.277 107.208 201.144C107.62 201.092 107.997 201.384 108.049 201.796C108.1 202.208 107.808 202.586 107.396 202.637C105.869 202.826 104.427 202.929 103.07 202.929Z" fill="#000200"/>
<path d="M138.623 194.293C139.069 204.027 134.434 213.228 126.246 218.584C125.439 219.117 126.194 220.421 127.001 219.889C135.31 214.464 140.237 205.28 140.151 195.409C139.602 195.083 139.104 194.705 138.623 194.293Z" fill="#000200"/>
<path d="M165.937 184.903C161.748 171.324 154.263 161.762 154.194 161.676C154.006 161.436 153.679 161.333 153.388 161.419C153.096 161.504 152.873 161.762 152.855 162.071C152.1 169.796 157.525 186.568 157.765 187.272C157.885 187.667 158.315 187.89 158.709 187.753C159.104 187.616 159.327 187.204 159.19 186.809C159.19 186.774 159.036 186.362 158.812 185.624L161.061 176.388C162.297 179.101 163.499 182.105 164.495 185.367C167.156 194.002 164.752 200.834 161.387 203.512C159.018 205.401 156.117 205.504 153.199 203.839C142.761 197.83 122.59 182.895 118.367 176.577C113.766 169.693 105.8 168.749 105.457 168.715C105.182 168.68 104.89 168.818 104.736 169.058C104.581 169.298 104.581 169.607 104.719 169.848L110.659 179.993C108.667 180.766 103.174 182.723 96.8734 183.564C92.2726 184.182 89.8692 182.895 87.9293 181.847C86.556 181.109 85.2513 180.423 83.6204 180.714C81.9723 181.006 81.5432 181.968 81.4402 182.5C80.9595 184.8 84.2041 187.89 87.3971 190.019C92.7361 193.573 104.135 191.169 104.616 191.066C105.028 190.98 105.285 190.586 105.199 190.174C105.114 189.761 104.719 189.504 104.307 189.59C104.187 189.607 93.0451 191.976 88.2383 188.766C84.4959 186.277 82.7105 183.839 82.9337 182.809C83.0024 182.517 83.3286 182.311 83.9122 182.191C85.0281 181.985 85.9551 182.483 87.2427 183.169C89.2512 184.251 92.0151 185.727 97.0966 185.041C105.199 183.942 111.792 181.161 112.066 181.041C112.272 180.955 112.41 180.783 112.478 180.577C112.547 180.371 112.53 180.148 112.41 179.959L106.882 170.517C109.337 171.135 114.092 172.869 117.113 177.401C121.8 184.44 142.847 199.598 152.443 205.143C154.04 206.07 155.671 206.517 157.233 206.517C159.053 206.517 160.787 205.899 162.315 204.697C166.211 201.572 168.821 194.259 165.937 184.903Z" fill="#000200"/>
<path d="M152.838 205.228C152.718 205.228 152.581 205.194 152.461 205.125C152.1 204.919 151.98 204.456 152.186 204.095C155.293 198.636 160.563 175.271 160.615 175.031C160.701 174.619 161.113 174.379 161.508 174.465C161.92 174.55 162.16 174.962 162.074 175.357C161.851 176.336 156.701 199.185 153.491 204.833C153.353 205.091 153.096 205.228 152.838 205.228Z" fill="#000200"/>
<path d="M64.2545 117.093C64.0829 116.887 63.8082 116.801 63.5507 116.852L18.6243 125.591L-12.534 131.651C-12.7744 131.702 -12.9632 131.857 -13.0662 132.08L-23.727 154.878C-23.7957 155.032 -23.8128 155.187 -23.7785 155.358L-19.6927 175.118L-28.448 192.525C-28.5681 192.766 -28.551 193.04 -28.4136 193.263C-28.2763 193.487 -28.0359 193.607 -27.7784 193.607H-27.7613L50.9843 192.079C51.3277 192.079 51.6195 191.839 51.7054 191.512L56.4435 173.161C56.4607 173.075 56.4778 172.989 56.4607 172.903L55.1388 157.264L54.4006 148.492L64.4262 117.848C64.4949 117.574 64.4262 117.299 64.2545 117.093ZM52.9071 148.148C52.8727 148.251 52.8556 148.354 52.8727 148.44L53.4221 155.015L54.9328 172.886L50.3663 190.568L-26.5596 192.062L-18.2335 175.53C-18.1648 175.375 -18.1305 175.204 -18.1649 175.032L-22.2506 155.273L-11.8645 133.058L20.7187 126.724L62.5893 118.569L52.9071 148.148Z" fill="#000200"/>
<path d="M105.387 170.19C105.112 170.19 104.854 170.035 104.717 169.778L97.6271 155.804L73.4386 144.731C73.2669 144.645 73.1124 144.508 73.0438 144.319L62.9838 117.882C62.8293 117.487 63.0353 117.058 63.413 116.903C63.8078 116.749 64.237 116.955 64.3915 117.332L74.3485 143.495L98.5026 154.551C98.6571 154.619 98.7773 154.74 98.8631 154.894L106.056 169.108C106.245 169.486 106.09 169.932 105.73 170.121C105.627 170.156 105.507 170.19 105.387 170.19Z" fill="#000200"/>
<path d="M76.3061 263.099C76.0657 263.099 75.8426 262.979 75.6881 262.79C75.5507 262.584 75.4992 262.326 75.5851 262.103L79.1386 251.94L43.6714 223.271C43.4997 223.134 43.3967 222.928 43.3967 222.687L43.1048 196.679L37.7487 192.13C37.4397 191.855 37.3882 191.392 37.6629 191.066C37.9375 190.757 38.4011 190.705 38.7272 190.98L44.3409 195.752C44.5126 195.89 44.5984 196.096 44.5984 196.319L44.8902 222.327L80.4949 251.116C80.7352 251.322 80.8382 251.648 80.7352 251.957L77.3704 261.605L136.837 260.747L141.902 243.048L115.876 215.237C115.739 215.1 115.67 214.911 115.67 214.722V211.254C115.67 210.842 116.014 210.499 116.426 210.499C116.838 210.499 117.181 210.842 117.181 211.254V214.43L143.309 242.327C143.481 242.515 143.55 242.79 143.481 243.048L138.159 261.691C138.073 262.017 137.782 262.223 137.455 262.241L76.3061 263.099Z" fill="#000200"/>
<path d="M90.5373 193.417C90.3828 193.314 90.2283 193.211 90.0566 193.125L43.8084 195.58C43.3964 195.597 43.0702 195.958 43.1045 196.37C43.1217 196.764 43.465 197.073 43.8599 197.073C43.877 197.073 43.8942 197.073 43.8942 197.073L90.5202 194.601C90.8292 194.584 91.0867 194.378 91.1897 194.104C91.0352 194.001 90.8807 193.898 90.7262 193.777C90.606 193.674 90.5545 193.554 90.5373 193.417Z" fill="#000200"/>
<path d="M54.5202 159.822C54.1425 159.822 53.7991 159.53 53.7648 159.135C53.7305 158.723 54.0395 158.363 54.4515 158.328L98.1075 154.483C98.5367 154.449 98.88 154.758 98.9144 155.17C98.9487 155.582 98.6397 155.942 98.2277 155.977L54.5717 159.822C54.5717 159.822 54.5545 159.822 54.5202 159.822Z" fill="#000200"/>
<path d="M-18.9032 175.959C-19.3152 175.959 -19.6414 175.633 -19.6585 175.238C-19.6757 174.826 -19.3495 174.483 -18.9375 174.466L55.6537 172.217C56.0657 172.217 56.409 172.526 56.4262 172.938C56.4434 173.35 56.1172 173.693 55.7052 173.71L-18.886 175.959C-18.886 175.959 -18.886 175.959 -18.9032 175.959Z" fill="#000200"/>
<path d="M54.5214 147.273C54.1437 147.273 53.8176 146.999 53.7832 146.621C53.7317 146.209 54.0236 145.831 54.4356 145.78L73.6627 143.308C74.0919 143.256 74.4524 143.548 74.5039 143.96C74.5554 144.372 74.2636 144.75 73.8516 144.801L54.6244 147.273C54.5901 147.256 54.5558 147.273 54.5214 147.273Z" fill="#000200"/>
<path d="M64.1339 184.696C64.0309 184.696 63.9107 184.679 63.8077 184.627C63.43 184.438 63.2755 183.992 63.4644 183.614L73.078 163.872C73.2668 163.495 73.7131 163.34 74.0908 163.529C74.4685 163.718 74.623 164.164 74.4342 164.542L64.8206 184.284C64.6833 184.541 64.4257 184.696 64.1339 184.696Z" fill="#000200"/>
<path d="M79.5329 172.611C79.138 172.611 78.8118 172.302 78.7775 171.907C78.7432 171.495 79.0522 171.135 79.4814 171.1L94.1249 170.036C94.5369 170.001 94.8974 170.31 94.9318 170.74C94.9661 171.152 94.6571 171.512 94.2279 171.547L79.5844 172.611C79.5672 172.611 79.55 172.611 79.5329 172.611Z" fill="#000200"/>
<path d="M15.2934 168.354C15.1561 168.354 15.0188 168.32 14.8814 168.234C14.5381 168.011 14.4351 167.547 14.6583 167.204L21.3534 156.732C21.5766 156.389 22.0401 156.286 22.3835 156.509C22.7268 156.732 22.8298 157.196 22.6066 157.539L15.9115 168.011C15.7741 168.234 15.5338 168.354 15.2934 168.354Z" fill="#000200"/>
<path d="M-15.3838 164.955C-15.7786 164.955 -16.1048 164.646 -16.1391 164.251C-16.1735 163.839 -15.8473 163.479 -15.4353 163.462L13.6458 161.625C14.0579 161.608 14.4184 161.917 14.4355 162.329C14.4699 162.741 14.1437 163.101 13.7317 163.118L-15.3494 164.955C-15.3666 164.955 -15.3666 164.955 -15.3838 164.955Z" fill="#000200"/>
<path d="M18.6415 138.843C18.2639 138.843 17.9377 138.568 17.9034 138.173C17.8519 137.761 18.1437 137.383 18.5557 137.332L27.6371 136.268C28.0491 136.216 28.4268 136.508 28.4783 136.92C28.5298 137.332 28.238 137.71 27.826 137.761L18.7445 138.825C18.693 138.843 18.6587 138.843 18.6415 138.843Z" fill="#000200"/>
<path d="M33.234 136.714C32.8564 136.714 32.5302 136.422 32.4959 136.044C32.4443 135.632 32.7534 135.254 33.1654 135.22L44.0837 133.984C44.5128 133.933 44.8733 134.242 44.9077 134.654C44.9592 135.066 44.6502 135.443 44.2382 135.478L33.3199 136.714C33.2855 136.714 33.2684 136.714 33.234 136.714Z" fill="#000200"/>
<path d="M36.2036 183.427H18.6416C18.2296 183.427 17.8862 183.083 17.8862 182.671C17.8862 182.259 18.2296 181.916 18.6416 181.916H36.2036C36.6156 181.916 36.9589 182.259 36.9589 182.671C36.9589 183.083 36.6156 183.427 36.2036 183.427Z" fill="#000200"/>
<path d="M44.3747 189.16H37.0615C36.6495 189.16 36.3062 188.817 36.3062 188.405C36.3062 187.993 36.6495 187.649 37.0615 187.649H43.8769L47.2244 178.963H40.4606C40.0486 178.963 39.7053 178.62 39.7053 178.208C39.7053 177.795 40.0486 177.452 40.4606 177.452H48.3231C48.5635 177.452 48.8038 177.572 48.9412 177.778C49.0785 177.984 49.1128 178.242 49.027 178.482L45.0957 188.679C44.9756 188.971 44.6837 189.16 44.3747 189.16Z" fill="#000200"/>
<path d="M-23.0404 155.943C-23.4181 155.943 -23.7614 155.651 -23.7957 155.256C-23.8301 154.844 -23.5211 154.484 -23.109 154.432L53.5593 147.617C53.9885 147.583 54.3319 147.892 54.3834 148.304C54.4177 148.716 54.1087 149.076 53.6967 149.128L-22.9717 155.943C-23.006 155.943 -23.0232 155.943 -23.0404 155.943Z" fill="#000200"/>
</g>
<path d="M100.103 198.415C45.7956 198.415 1.771 154.391 1.771 100.084H-0.229004C-0.229004 155.495 44.691 200.415 100.103 200.415V198.415ZM198.434 100.084C198.434 154.391 154.41 198.415 100.103 198.415V200.415C155.514 200.415 200.434 155.495 200.434 100.084H198.434ZM100.103 1.75195C154.41 1.75195 198.434 45.7765 198.434 100.084H200.434C200.434 44.672 155.514 -0.248047 100.103 -0.248047V1.75195ZM100.103 -0.248047C44.691 -0.248047 -0.229004 44.672 -0.229004 100.084H1.771C1.771 45.7765 45.7956 1.75195 100.103 1.75195V-0.248047Z" fill="black" fill-opacity="0.1"/>
<defs>
<clipPath id="clip0_3_14600">
<path d="M0.770996 100.084C0.770996 45.2243 45.2433 0.751953 100.103 0.751953V0.751953C154.962 0.751953 199.434 45.2243 199.434 100.084V100.084C199.434 154.943 154.962 199.415 100.103 199.415V199.415C45.2433 199.415 0.770996 154.943 0.770996 100.084V100.084Z" fill="white"/>
</clipPath>
</defs>
</svg>
