<svg width="200" height="200" viewBox="0 0 200 200" fill="none" xmlns="http://www.w3.org/2000/svg">
<g clip-path="url(#clip0_3_14602)">
<path d="M0.903809 99.8766C0.903809 45.0172 45.3761 0.544922 100.235 0.544922V0.544922C155.095 0.544922 199.567 45.0172 199.567 99.8766V99.8766C199.567 154.736 155.095 199.208 100.235 199.208V199.208C45.3761 199.208 0.903809 154.736 0.903809 99.8766V99.8766Z" fill="#F8F8F8"/>
<path d="M125.783 43.9393C125.645 42.6269 125.3 41.3835 124.713 40.2783H108.031C106.304 41.5907 104.715 43.0068 103.334 44.1811C99.1204 47.773 95.4249 51.8484 92.2129 56.3382C92.1093 54.7495 91.6603 53.2644 90.4515 52.021C88.0339 49.5689 84.9946 50.0524 82.5079 52.1247C74.5643 58.7213 70.4198 71.8455 68.3476 81.516C68.1403 82.5521 69.0383 83.0702 69.8672 82.932C69.8672 82.932 69.8672 82.9666 69.9018 82.9666C70.1435 83.1738 70.3507 83.381 70.5925 83.5537C73.3555 83.8991 75.7386 84.728 77.0855 85.7296C77.0855 85.7296 74.737 76.0591 88.8973 68.15C101.089 61.3116 110.276 61.1044 117.08 68.0119C117.114 67.9773 117.183 67.9428 117.253 67.8737C117.46 67.8737 117.632 67.8392 117.874 67.701C121.673 65.6288 128.132 60.8972 124.333 55.7856C123.676 54.8877 122.882 54.3696 122.019 54.0933C124.367 51.1576 126.198 47.8075 125.783 43.9393Z" fill="#201000"/>
<path d="M112.244 167.376C111.657 167.376 111.139 167.065 110.828 166.581L88.7244 130.662C88.4827 130.283 88.4136 129.868 88.5172 129.419C88.8281 128.038 89.277 125.827 89.4843 124.411C83.7165 121.648 79.2957 114.292 77.7761 111.529C69.2454 112.634 61.509 110.803 56.95 106.555C53.5999 103.412 52.0457 99.0607 52.4947 93.9492C52.8401 90.1846 54.3597 87.2144 56.9846 85.0731C61.7162 81.274 68.1747 81.6194 70.765 81.9302C72.4228 82.1374 73.977 82.5173 75.2894 83.0008C75.6002 79.1672 77.8106 72.4324 88.0337 66.6992C101.054 59.4118 110.932 59.4463 118.219 66.8373C120.844 69.4967 123.089 73.0541 125.092 77.7512C125.887 79.6507 126.75 81.5848 127.545 83.4844C132.656 95.2271 137.457 106.348 136.075 113.152C134.763 119.645 129.617 124.377 120.81 127.14L120.464 133.184C120.464 133.287 120.43 133.356 120.43 133.46C119.29 138.33 118.392 143.338 117.494 148.173C116.423 154.01 115.318 160.054 113.799 166.098C113.626 166.754 113.108 167.238 112.452 167.341C112.417 167.376 112.314 167.376 112.244 167.376ZM91.9019 129.488L111.554 161.435C112.59 156.773 113.453 152.145 114.282 147.62C115.18 142.785 116.078 137.777 117.218 132.873L117.632 125.827C117.667 125.136 118.15 124.515 118.841 124.342C127.165 121.959 131.793 118.091 132.898 112.53C134.072 106.763 129.237 95.607 124.574 84.8659C123.745 82.9663 122.916 81.0322 122.088 79.1327C120.292 74.8845 118.185 71.569 115.905 69.2204C109.723 62.9346 101.4 63.0728 89.6915 69.6349C76.9127 76.7841 78.605 85.0731 78.6741 85.4185C78.8122 86.1092 78.5359 86.8 77.9488 87.1799C77.3617 87.5598 76.6364 87.5598 76.0492 87.1453C74.9095 86.3164 72.6991 85.5912 70.316 85.2803C65.8261 84.7277 61.6126 85.6257 59.0223 87.6979C57.0882 89.2521 55.983 91.4625 55.7412 94.2946C55.3613 98.4045 56.501 101.72 59.1259 104.172C63.0977 107.868 70.4542 109.387 78.3632 108.144C79.0885 108.006 79.7793 108.386 80.1246 109.042C80.1937 109.146 85.3743 119.61 91.7638 121.855C92.4545 122.097 92.9035 122.753 92.8689 123.479C92.9035 124.687 92.2127 127.969 91.9019 129.488Z" fill="#201000"/>
<path d="M114.006 98.5428C113.764 98.5428 113.522 98.5082 113.315 98.3701C112.486 97.9902 112.141 96.9886 112.521 96.1597C114.628 91.7044 112.797 87.3872 105.268 79.0291C104.646 78.3384 104.715 77.3022 105.372 76.6806C106.062 76.0589 107.098 76.128 107.72 76.7842C115.042 84.9005 118.668 90.91 115.526 97.5757C115.249 98.1974 114.628 98.5428 114.006 98.5428Z" fill="#201000"/>
<path d="M92.9033 90.1152C94.0478 90.1152 94.9755 89.1874 94.9755 88.0429C94.9755 86.8985 94.0478 85.9707 92.9033 85.9707C91.7588 85.9707 90.8311 86.8985 90.8311 88.0429C90.8311 89.1874 91.7588 90.1152 92.9033 90.1152Z" fill="#201000"/>
<path d="M115.836 82.3798C116.981 82.3798 117.909 81.4521 117.909 80.3076C117.909 79.1631 116.981 78.2354 115.836 78.2354C114.692 78.2354 113.764 79.1631 113.764 80.3076C113.764 81.4521 114.692 82.3798 115.836 82.3798Z" fill="#201000"/>
<path d="M92.6271 79.8586C91.9363 79.2024 90.9347 79.306 90.2785 79.8932C89.5878 80.5148 88.897 81.1365 88.2063 81.7582C87.5501 82.3453 87.6537 83.5196 88.2408 84.1067C88.9316 84.7629 89.9332 84.6593 90.5894 84.0722C91.2801 83.4505 91.9709 82.8288 92.6616 82.2072C93.3524 81.62 93.2488 80.4458 92.6271 79.8586Z" fill="#201000"/>
<path d="M114.178 72.5703H112.106C109.965 72.5703 109.965 75.8859 112.106 75.8859H114.178C116.32 75.8859 116.32 72.5703 114.178 72.5703Z" fill="#201000"/>
<path d="M73.9078 99.8909C73.2861 99.8909 72.699 99.5455 72.4227 98.9583C71.5593 97.2315 67.173 93.6396 63.9265 94.2613C63.0285 94.434 62.1651 93.8468 61.9579 92.9488C61.7852 92.0509 62.3723 91.1874 63.2703 90.9802C68.2782 89.9786 73.9769 94.6066 75.3929 97.4387C75.8074 98.2676 75.462 99.2692 74.6676 99.6491C74.4259 99.8563 74.1496 99.8909 73.9078 99.8909Z" fill="#201000"/>
<path d="M79.3304 76.1623C84.3038 88.6993 86.4451 102.825 96.1847 107.937C104.266 112.185 115.526 94.6743 132.104 101.305C132.104 101.305 140.945 116.502 127.13 123.686C113.315 130.87 98.9477 130.041 89.2772 123.133C84.891 120.025 80.6083 116.433 78.5015 110.976C75.9458 104.345 76.0148 95.2269 76.0148 84.175C76.0148 64.0051 79.3304 76.1623 79.3304 76.1623Z" fill="#201000"/>
<path d="M103.023 114.879C100.709 116.191 98.0838 115.121 97.4621 112.496C96.9786 110.424 93.7321 111.183 94.2501 113.256C95.3553 117.918 100.432 120.163 104.611 117.78C106.442 116.744 104.888 113.808 103.023 114.879Z" fill="#F8F8F8"/>
<path d="M144.295 237.038H15.5395C15.1596 237.038 14.7797 236.9 14.4688 236.658C14.2616 236.485 14.0544 236.278 13.8472 236.105C-1.52198 221.634 7.97582 199.634 20.0294 171.797C23.5522 163.646 27.2132 155.219 30.4942 146.343C42.5132 113.946 59.2293 119.092 76.947 124.549C81.2988 125.896 85.8232 127.278 90.4166 128.141C91.3146 128.314 91.9017 129.177 91.729 130.075C91.5564 130.973 90.6929 131.561 89.795 131.388C85.0288 130.49 80.4353 129.074 75.98 127.692C58.435 122.304 44.5509 118.022 33.6371 147.482C30.3215 156.427 26.6606 164.889 23.1032 173.074C11.5677 199.703 2.44983 220.771 16.0576 233.584C16.0921 233.619 16.1266 233.653 16.1612 233.688H142.879C144.157 223.983 136.766 216.212 131.067 213.932C115.974 207.888 95.1483 208.026 66.344 208.199C61.4052 208.234 56.2591 208.268 50.8713 208.268C50.3187 208.268 49.8352 207.992 49.5243 207.577C49.2135 207.128 49.1444 206.576 49.3171 206.058L64.2373 164.613C64.5481 163.749 65.5151 163.3 66.344 163.611C67.2075 163.922 67.6565 164.855 67.3456 165.718L53.2198 204.953C57.7442 204.953 62.096 204.918 66.3095 204.883C95.4936 204.711 116.561 204.573 132.276 210.858C139.494 213.725 148.474 223.361 145.884 235.691C145.746 236.485 145.089 237.038 144.295 237.038Z" fill="#201000"/>
<path d="M193.511 186.717C192.993 186.717 192.475 186.475 192.164 185.991C191.991 185.715 173.237 158.707 160.113 140.678C147.472 123.306 142.982 124.204 121.086 131.871C120.222 132.182 119.29 131.733 118.979 130.87C118.668 130.006 119.117 129.074 119.98 128.763C142.43 120.888 148.888 119.645 162.772 138.744C175.897 156.807 194.65 183.816 194.858 184.092C195.376 184.852 195.203 185.888 194.443 186.406C194.167 186.613 193.821 186.717 193.511 186.717Z" fill="#201000"/>
</g>
<path d="M100.235 198.208C45.9284 198.208 1.90381 154.184 1.90381 99.8766H-0.0961914C-0.0961914 155.288 44.8238 200.208 100.235 200.208V198.208ZM198.567 99.8766C198.567 154.184 154.543 198.208 100.235 198.208V200.208C155.647 200.208 200.567 155.288 200.567 99.8766H198.567ZM100.235 1.54492C154.543 1.54492 198.567 45.5695 198.567 99.8766H200.567C200.567 44.4649 155.647 -0.455078 100.235 -0.455078V1.54492ZM100.235 -0.455078C44.8238 -0.455078 -0.0961914 44.4649 -0.0961914 99.8766H1.90381C1.90381 45.5695 45.9284 1.54492 100.235 1.54492V-0.455078Z" fill="black" fill-opacity="0.1"/>
<defs>
<clipPath id="clip0_3_14602">
<path d="M0.903809 99.8766C0.903809 45.0172 45.3761 0.544922 100.235 0.544922V0.544922C155.095 0.544922 199.567 45.0172 199.567 99.8766V99.8766C199.567 154.736 155.095 199.208 100.235 199.208V199.208C45.3761 199.208 0.903809 154.736 0.903809 99.8766V99.8766Z" fill="white"/>
</clipPath>
</defs>
</svg>
