<svg width="199" height="199" viewBox="0 0 199 199" fill="none" xmlns="http://www.w3.org/2000/svg">
<g clip-path="url(#clip0_3_14607)">
<path d="M0.325684 99.4801C0.325684 44.6207 44.798 0.148438 99.6574 0.148438V0.148438C154.517 0.148438 198.989 44.6207 198.989 99.4801V99.4801C198.989 154.34 154.517 198.812 99.6574 198.812V198.812C44.798 198.812 0.325684 154.34 0.325684 99.4801V99.4801Z" fill="#F8F8F8"/>
<path d="M174.998 187.522C166.116 194.939 161.463 197.928 148.717 203.06C136.62 207.91 123.282 210.589 109.296 210.871C108.534 210.899 107.773 210.899 107.012 210.899C63.8117 210.899 26.787 184.562 11.0522 147.058C11.0522 147.058 11.0522 106.875 54.1678 109.807L129.26 126.557C157.487 138.09 174.265 186.225 174.998 187.522Z" fill="#F8F8F8"/>
<path d="M107.012 212.055C64.5165 212.055 26.4203 186.733 9.98059 147.509C9.92419 147.368 9.896 147.198 9.896 147.057C9.896 146.352 10.037 129.433 22.1059 118.154C29.8323 110.935 40.6324 107.72 54.2523 108.651L129.514 125.429C146.574 132.366 162.845 153.769 175.506 185.689C175.788 186.394 175.957 186.817 176.042 186.986C176.267 187.466 176.183 188.086 175.76 188.425C166.905 195.813 162.083 198.943 149.168 204.131C136.789 209.094 123.395 211.745 109.324 212.027C108.534 212.055 107.773 212.055 107.012 212.055ZM12.2365 146.86C28.366 185.069 65.5317 209.743 107.012 209.743C107.745 209.771 108.506 209.743 109.268 209.714C123.057 209.433 136.169 206.838 148.294 201.988C160.702 196.997 165.27 194.121 173.617 187.184C173.532 186.986 173.447 186.789 173.363 186.535C160.927 155.207 145.108 134.283 128.837 127.629L53.9139 110.935C41.14 110.089 30.9321 113.078 23.7133 119.846C13.0824 129.8 12.2929 144.83 12.2365 146.86Z" fill="#000200"/>
<path d="M121.394 58.7389C118.771 46.106 110.594 33.7551 83.1 39C55.6064 44.2449 45.3139 58.2314 48.8105 76.5604C52.3072 94.8894 53.4069 95.7918 53.4069 95.7918C49.1207 98.3015 48.5004 101.544 48.9515 103.969C49.5719 107.269 52.6737 110.878 59.385 110.399L64.6863 130.194L109.917 140.43C115.077 138.907 120.858 136.567 124.834 133.155C136.282 123.229 129.74 98.95 121.394 58.7389Z" fill="#F8F8F8"/>
<path d="M109.917 141.587C109.409 141.587 108.958 141.248 108.789 140.741C108.591 140.121 108.958 139.472 109.578 139.303C115.951 137.413 120.829 135.045 124.044 132.253C133.914 123.737 129.627 103.519 122.55 70.0472C121.788 66.4942 121.027 62.8002 120.209 58.9652C116.741 42.2153 104.644 36.0398 83.269 40.1286C57.8622 44.9787 46.3008 57.4989 49.9102 76.3355C52.9274 92.0985 54.1118 94.7491 54.3092 95.0875C54.4784 95.3131 54.563 95.5951 54.5348 95.877C54.5066 96.2436 54.281 96.6102 53.9708 96.8076C50.0794 99.0917 49.7128 101.855 50.0794 103.773C50.6434 106.705 53.3786 109.694 59.3003 109.243C59.9207 109.187 60.5129 109.666 60.541 110.315C60.5974 110.963 60.1181 111.527 59.4695 111.555C51.9969 112.091 48.5003 107.918 47.7953 104.196C47.4005 102.165 47.4851 98.3867 51.9405 95.3413C50.9254 92.6906 49.4872 86.4869 47.6543 76.7867C43.8193 56.7657 56.3395 42.9203 82.8743 37.8445C105.461 33.5302 118.799 40.467 122.55 58.4858C123.339 62.3208 124.129 66.0148 124.862 69.5678C132.109 103.885 136.48 124.611 125.595 134.03C122.127 137.047 116.966 139.557 110.255 141.559C110.142 141.587 110.029 141.587 109.917 141.587Z" fill="#000200"/>
<path d="M115.105 45.2612C109.607 39.1985 100.019 35.7583 83.0999 38.9729C55.6064 44.2178 45.3139 58.2043 48.8105 76.5333C52.3072 94.8623 52.3072 94.8623 52.3072 94.8623L55.9166 94.4394C58.68 93.5652 60.5129 93.3678 62.7406 93.0576C64.4889 92.8039 65.7015 93.537 65.4759 91.7605C65.2503 89.984 65.0529 88.2075 64.8555 86.4592C68.4367 85.0493 71.6231 82.5114 73.4278 79.0994C75.2325 75.6028 74.1046 70.5834 69.5083 70.5834C68.5495 70.5834 68.1547 71.5422 68.4931 72.3317C69.2827 74.1929 69.3109 76.0539 68.7469 77.6613C68.1547 79.0994 66.9986 80.2555 65.4195 80.9605C65.1657 81.0733 64.9965 81.2707 64.9119 81.5245C64.7427 81.6372 64.5735 81.7218 64.4043 81.8064C63.8122 74.5594 63.9814 68.0738 66.4628 64.0414C78.8702 64.4926 90.8827 59.8398 99.8781 51.0419C104.474 50.6471 108.789 50.6189 112.257 50.9291C115.359 51.2675 117.164 47.5735 115.105 45.2612Z" fill="#000200"/>
<path d="M107.463 97.1184C106.899 97.1184 106.391 96.6955 106.307 96.1033C106.222 95.4547 106.673 94.8626 107.293 94.778C109.465 94.4678 111.157 93.65 111.833 92.5785C112.228 91.9581 112.285 91.2813 112.031 90.4636C111.467 88.6871 107.293 88.2077 105.32 88.2923C104.699 88.2641 104.22 87.8693 104.135 87.2772L102.669 76.7027C102.584 76.0542 103.035 75.462 103.656 75.3774C104.276 75.2928 104.868 75.744 104.981 76.3643L106.307 85.9518C108.506 86.0364 113.272 86.5722 114.258 89.7586C114.71 91.225 114.569 92.6067 113.807 93.791C112.736 95.4829 110.536 96.6673 107.604 97.062C107.547 97.0902 107.519 97.1184 107.463 97.1184Z" fill="#000200"/>
<path d="M115.245 79.128L115.33 81.4684C115.414 84.4575 120.095 84.3165 119.983 81.3275L119.898 78.987C119.813 75.9979 115.132 76.1389 115.245 79.128Z" fill="#000200"/>
<path d="M84.1988 84.1749L84.2834 86.5154C84.368 89.5044 89.0489 89.3635 88.9361 86.3744L88.8515 84.0339C88.7669 81.0167 84.086 81.1859 84.1988 84.1749Z" fill="#000200"/>
<path d="M94.6328 109.553C92.8563 109.525 90.4594 109.046 90.0646 107.015C89.7826 105.549 87.4422 105.859 87.7524 107.326C88.3727 110.456 91.39 111.809 94.3508 111.866C95.8171 111.866 96.1273 109.553 94.6328 109.553Z" fill="#000200"/>
<path d="M49.3745 79.4938C62.6278 71.6264 78.842 68.0452 93.336 63.8719C102.472 61.2212 111.721 58.9653 121.027 57.1606C118.038 45.0916 109.437 33.9532 83.1 39.0008C55.6064 44.2457 45.3139 58.2322 48.8105 76.5612C48.9797 77.6045 49.1771 78.5633 49.3745 79.4938Z" fill="#F8F8F8"/>
<path d="M49.3744 80.6785C49.2052 80.6785 49.036 80.6503 48.895 80.5657C48.5567 80.4247 48.3029 80.0863 48.2183 79.7197L47.6543 76.7589C43.8193 56.7379 56.3395 42.8925 82.8743 37.8167C104.785 33.6152 118.01 40.0444 122.155 56.8507C122.239 57.1609 122.183 57.4993 122.014 57.7531C121.845 58.0351 121.563 58.2043 121.252 58.2607C112.398 59.9808 103.121 62.2366 93.6743 64.9437C91.1646 65.6769 88.5986 66.3818 86.0043 67.0868C73.6252 70.4988 60.823 74.0236 49.9948 80.4529C49.7692 80.6221 49.5718 80.6785 49.3744 80.6785ZM94.9714 38.9165C91.4466 38.9165 87.5552 39.3395 83.2972 40.129C57.8904 44.9792 46.329 57.4993 49.9384 76.3359L50.1922 77.6612C60.964 71.5985 73.3432 68.1865 85.3275 64.8873C87.9218 64.1823 90.4879 63.4774 92.9975 62.7442C102.077 60.1218 111.016 57.9223 119.561 56.2304C116.289 44.6408 108.168 38.9165 94.9714 38.9165Z" fill="#000200"/>
<path d="M91.644 210.928C91.4748 210.928 91.2774 210.899 91.1082 210.787C90.5443 210.505 90.3187 209.8 90.6007 209.208C90.6571 209.123 95.056 200.522 102.726 180.36C108.225 165.979 114.428 149.652 111.242 143.364C110.622 142.151 109.635 141.362 108.281 140.995C89.6137 135.891 86.0889 122.948 84.0022 115.222C83.3255 112.712 82.6205 110.118 81.7746 110.118C81.4644 110.09 81.1824 110.203 80.9568 110.626C79.2085 113.84 82.6487 126.219 88.655 134.961C89.0216 135.497 88.8806 136.23 88.3448 136.596C87.809 136.963 87.0759 136.822 86.7093 136.286C81.0414 128.052 76.2759 114.291 78.8701 109.526C79.4905 108.37 80.5056 107.777 81.8027 107.806C84.3688 107.862 85.1584 110.71 86.2299 114.63C88.2038 121.877 91.503 134.03 108.873 138.768C110.904 139.332 112.398 140.516 113.3 142.349C116.966 149.568 110.819 165.641 104.897 181.235C97.1709 201.538 92.7156 210.223 92.6592 210.307C92.49 210.702 92.067 210.928 91.644 210.928Z" fill="#000200"/>
<path d="M80.5901 134.82C80.2235 134.82 79.8287 134.623 79.6032 134.284C73.8225 125.571 69.3953 111.387 70.1567 106.763C70.7488 103.266 72.5253 102.702 73.5405 102.674C76.4167 102.505 79.6032 106.847 80.4491 110.682C80.5901 111.302 80.1953 111.923 79.575 112.064C78.9546 112.205 78.3342 111.81 78.1932 111.19C77.4319 107.806 74.7812 104.901 73.6251 105.014C73.1457 105.014 72.6945 105.832 72.4971 107.157C71.8768 110.795 75.881 124.387 81.5771 133.015C81.9436 133.551 81.7744 134.284 81.2387 134.623C81.0413 134.764 80.8157 134.82 80.5901 134.82Z" fill="#000200"/>
<path d="M73.0323 134.058C72.6657 134.058 72.2992 133.889 72.0736 133.551C66.5185 125.458 63.5576 112.458 63.5576 108.933C63.5576 106.057 64.0652 102.363 66.4339 101.094C67.9002 100.305 69.7331 100.615 71.848 102.025C72.3838 102.391 72.5248 103.096 72.1864 103.632C71.8198 104.168 71.1148 104.309 70.5791 103.97C69.6485 103.35 68.3796 102.73 67.5618 103.153C66.5467 103.688 65.9263 105.916 65.8981 108.933C65.8981 111.866 68.6615 124.442 73.9911 132.225C74.3576 132.761 74.2167 133.494 73.6809 133.833C73.4835 134.002 73.2579 134.058 73.0323 134.058Z" fill="#000200"/>
<path d="M51.6579 196.123C51.4887 196.123 51.2913 196.094 51.1221 196.01C50.5582 195.728 50.3326 195.023 50.6146 194.431L52.6167 190.511C58.6229 178.837 72.6658 151.456 70.2689 146.606C65.306 136.511 61.5274 123.06 59.8919 117.308L59.4971 115.898C57.072 107.382 57.1566 102.165 59.8073 100.36C61.4428 99.2325 63.7269 99.6837 66.2083 101.601C66.7159 101.996 66.8287 102.729 66.4339 103.237C66.0391 103.744 65.306 103.857 64.7984 103.462C63.2193 102.25 61.8376 101.827 61.1326 102.306C60.7096 102.588 58.7075 104.59 61.753 115.277L62.1477 116.687C63.7551 122.384 67.5055 135.693 72.3556 145.591C75.0345 151.061 65.1086 171.308 54.7033 191.611L52.7012 195.53C52.5039 195.897 52.0809 196.123 51.6579 196.123Z" fill="#000200"/>
<path d="M124.607 65.2259C105.235 65.2541 48.8381 87.6719 48.8381 87.6719L45.3696 76.8155C45.3696 76.8155 101.175 56.428 121.985 55.1309L124.607 65.2259Z" fill="#F8F8F8"/>
<path d="M48.8095 88.8276C48.6403 88.8276 48.4711 88.7993 48.3019 88.7147C48.02 88.5738 47.7944 88.32 47.6816 88.0098L44.2132 77.1534C44.0158 76.5612 44.326 75.9126 44.9181 75.7152C47.2022 74.8693 101.118 55.2431 121.872 53.9742C122.379 53.946 122.943 54.3126 123.084 54.8483L125.707 64.9434C125.791 65.2818 125.735 65.6766 125.509 65.9585C125.284 66.2405 124.945 66.4097 124.579 66.4097C105.658 66.4379 49.7965 88.5456 49.2325 88.7711C49.1197 88.7993 48.9505 88.8276 48.8095 88.8276ZM46.8074 77.5199L49.5427 86.1205C57.6921 82.9341 103.994 65.0562 123.084 64.0975L121.082 56.3429C101.597 58.0348 54.4492 74.7847 46.8074 77.5199Z" fill="#000200"/>
<path d="M86.1449 69.1446C84.3684 69.8495 82.6765 70.6673 81.041 71.7106C79.8002 72.5284 81.2948 74.3049 82.5355 73.4871C83.9736 72.5566 85.5527 71.8798 87.1036 71.2312C88.5136 70.6955 87.5266 68.5806 86.1449 69.1446Z" fill="#000200"/>
<path d="M120.18 60.7142C118.883 60.0938 117.473 59.7273 116.233 59.0223C114.935 58.2891 113.554 60.1502 114.851 60.9116C116.289 61.7294 117.84 62.2087 119.306 62.9137C120.688 63.5341 121.534 61.3628 120.18 60.7142Z" fill="#000200"/>
<path d="M95.3375 190.539C86.314 190.539 72.0174 186.197 60.9353 176.524C60.456 176.101 60.3996 175.368 60.8226 174.889C61.2455 174.41 61.9787 174.353 62.4581 174.776C75.6268 186.281 94.0122 190.032 100.357 187.494C100.949 187.268 101.626 187.55 101.88 188.142C102.133 188.734 101.823 189.411 101.231 189.665C99.7647 190.229 97.7344 190.539 95.3375 190.539Z" fill="#000200"/>
<path d="M53.4064 96.9499C52.9271 96.9499 52.4759 96.6679 52.3067 96.1886C52.0811 95.5964 52.3913 94.9196 52.9835 94.694C53.3219 94.5812 61.1892 91.6768 64.5167 91.0846C65.1652 90.9718 65.7574 91.3948 65.8702 92.0152C65.983 92.6637 65.56 93.2559 64.9396 93.3687C61.8096 93.9327 53.8858 96.8371 53.8012 96.8935C53.6602 96.9217 53.5192 96.9499 53.4064 96.9499Z" fill="#000200"/>
<path d="M134.196 207.853C134.139 207.853 134.111 207.853 134.055 207.853C133.406 207.769 132.955 207.177 133.039 206.556L134.985 190.963C135.07 190.314 135.634 189.891 136.282 189.947C136.931 190.032 137.382 190.624 137.297 191.245L135.352 206.838C135.295 207.43 134.788 207.853 134.196 207.853Z" fill="#000200"/>
<path d="M45.1721 191.216C45.2003 191.188 45.2003 191.188 45.2285 191.188C45.6797 190.737 45.6515 190.004 45.2003 189.552C45.1439 189.496 39.5888 183.828 42.9726 167.388C43.1136 166.768 42.6906 166.148 42.0703 166.007C41.4499 165.866 40.8295 166.289 40.6885 166.909C38.1225 179.373 40.4065 186.169 42.1266 189.214C43.1418 189.891 44.157 190.568 45.1721 191.216Z" fill="#000200"/>
</g>
<path d="M99.6574 197.812C45.3503 197.812 1.32568 153.787 1.32568 99.4801H-0.674316C-0.674316 154.892 44.2457 199.812 99.6574 199.812V197.812ZM197.989 99.4801C197.989 153.787 153.964 197.812 99.6574 197.812V199.812C155.069 199.812 199.989 154.892 199.989 99.4801H197.989ZM99.6574 1.14844C153.964 1.14844 197.989 45.173 197.989 99.4801H199.989C199.989 44.0685 155.069 -0.851562 99.6574 -0.851562V1.14844ZM99.6574 -0.851562C44.2457 -0.851562 -0.674316 44.0685 -0.674316 99.4801H1.32568C1.32568 45.173 45.3503 1.14844 99.6574 1.14844V-0.851562Z" fill="black" fill-opacity="0.1"/>
<defs>
<clipPath id="clip0_3_14607">
<path d="M0.325684 99.4801C0.325684 44.6207 44.798 0.148438 99.6574 0.148438V0.148438C154.517 0.148438 198.989 44.6207 198.989 99.4801V99.4801C198.989 154.34 154.517 198.812 99.6574 198.812V198.812C44.798 198.812 0.325684 154.34 0.325684 99.4801V99.4801Z" fill="white"/>
</clipPath>
</defs>
</svg>
