<svg width="199" height="200" viewBox="0 0 199 200" fill="none" xmlns="http://www.w3.org/2000/svg">
<g clip-path="url(#clip0_3_14593)">
<path d="M0.192871 99.8766C0.192871 45.0172 44.6652 0.544922 99.5246 0.544922V0.544922C154.384 0.544922 198.856 45.0172 198.856 99.8766V99.8766C198.856 154.736 154.384 199.208 99.5246 199.208V199.208C44.6652 199.208 0.192871 154.736 0.192871 99.8766V99.8766Z" fill="#F8F8F8"/>
<path d="M185.61 187.153L209.704 297.481L30.5604 337.829C32.2205 317.733 33.9873 297.613 35.6707 277.624C34.7763 279.17 21.2156 302.731 -2.83234 309.044L-43.1821 124.273L-5.10395 122.196L-3.43258 122.156C-4.03879 155.798 -4.53823 189.415 -5.12111 223.163C-0.743703 208.843 10.6101 179.28 39.2661 157.138C48.382 150.154 57.4907 145.189 65.4915 141.818C66.2604 135.594 67.0527 129.477 67.9285 123.228C76.1247 124.856 84.451 126.567 92.7773 128.277C98.8886 129.59 104.87 130.82 110.768 132.181L112.773 141.366C123.648 142.951 136.745 146.501 149.91 153.957C165.5 162.771 177.073 174.732 185.61 187.153Z" fill="black"/>
<path d="M210.68 298.09L29.7087 338.806L34.6341 280.889C30.0827 287.739 17.2829 304.513 -2.64936 309.67L-3.5035 309.862L-44.2446 123.503L-2.62902 121.199L-4.18745 217.576C2.16981 199.002 14.7333 174.998 38.8838 156.343C46.835 150.184 55.47 145.104 64.789 141.102L67.236 122.064L68.0534 122.216C76.3577 123.821 84.7921 125.509 93.013 127.245C99.1252 128.559 105.237 129.873 111.006 131.152L111.48 131.27L113.488 140.454C126.71 142.521 139.155 146.669 150.288 153.016C164.474 161.029 176.574 172.313 186.282 186.488L186.412 186.57L210.787 298.066L210.68 298.09ZM31.4938 336.724L208.728 296.848L184.821 187.489C175.266 173.503 163.343 162.516 149.417 154.668C138.284 148.321 125.839 144.174 112.64 142.213L112.06 142.12L110.052 132.935C104.39 131.632 98.5145 130.377 92.5324 129.146C84.6552 127.445 76.5644 125.791 68.497 124.245L66.1835 142.357L65.7798 142.56C56.4609 146.561 47.719 151.666 39.7678 157.824C13.6921 177.921 1.36866 204.56 -4.36137 223.441L-6.06337 228.979L-4.3541 123.044L-5.12482 123.105L-42.2229 125.065L-2.25219 307.9C21.3002 301.369 34.3707 278.147 34.9313 277.124L36.78 273.795L31.4938 336.724Z" fill="black"/>
<path d="M-11.5591 105.594C-11.6633 105.618 -11.8716 105.667 -11.9987 105.583C-12.3571 105.44 -12.6801 104.946 -12.4364 104.547C-9.29522 95.6021 -3.55865 78.7525 -0.82827 66.8276C-0.245108 64.4111 1.07324 58.7446 -1.20233 56.7737C-1.98794 56.1612 -3.04022 55.8393 -3.95491 56.1688C-6.22394 56.8174 -7.21532 60.9255 -7.8568 63.5836L-7.89218 63.9338C-9.4084 70.2168 -11.5851 76.9972 -14.1785 83.8758C-15.1365 88.6597 -15.2531 89.143 -16.1783 88.9052C-16.4096 88.8458 -16.6638 88.6777 -16.7097 88.4606C-16.9056 88.051 -16.9514 87.8339 -15.7517 83.6767L-15.6121 83.302C-15.2268 81.5018 -14.8874 79.4846 -14.4668 77.3343C-13.917 74.242 -13.5068 71.5243 -13.4714 71.1741C-12.98 68.3234 -12.6052 65.956 -12.1845 63.8057C-10.933 56.7874 -10.4645 53.8282 -12.0003 52.2528C-12.9589 51.3391 -14.3696 50.8738 -15.4114 51.1193C-17.8888 51.817 -18.6738 56.902 -19.9482 63.8117L-20.0419 64.4036C-21.1539 71.0471 -22.4284 77.9568 -23.784 84.9996C-23.9007 85.4829 -24.2715 85.7981 -24.7341 85.6792C-25.1967 85.5603 -25.4968 85.1752 -25.3802 84.6919C-24.0245 77.6491 -22.75 70.7394 -21.6381 64.0959L-21.5444 63.5041C-20.1408 55.6523 -19.2746 50.4342 -15.8825 49.407C-14.2386 48.9057 -12.2382 49.5739 -10.8524 50.9567C-8.73932 53.1937 -9.26613 56.3947 -10.6113 64.0048C-10.9508 66.022 -11.4068 68.5225 -11.817 71.2401C-11.8753 71.4818 -12.0044 72.4238 -12.1689 73.7161C-11.0628 70.1508 -10.0381 66.7186 -9.22163 63.3355L-9.18624 62.9853C-8.34688 59.7107 -7.32012 55.2524 -4.11346 54.3829C-2.67787 53.9307 -1.05883 54.3469 0.0268681 55.3446C3.08804 57.928 1.65308 64.0778 0.976212 67.0862C-1.85835 79.0356 -7.57199 95.9938 -10.6902 105.047C-11.0611 105.363 -11.2465 105.52 -11.5591 105.594Z" fill="black"/>
<path d="M112.925 127.923L112.819 127.947C112.374 127.938 111.988 127.689 111.979 127.127L111.96 126.001C111.951 125.439 111.882 125.116 111.859 125.008C111.896 124.661 111.335 116.319 111.244 115.889C111.257 115.434 111.423 115.169 111.845 115.07C114.675 114.297 117.306 113.118 119.846 111.509C120.834 110.94 125.68 107.663 128.867 102.852C135.408 92.9668 132.298 80.4754 130.778 74.3911C129.28 68.4144 126.97 63.3052 123.778 58.7406C122.997 57.6802 122.193 56.5121 121.306 55.4763C117.003 50.3803 111.752 47.0866 105.814 45.7611C104.302 45.4359 90.8306 42.592 81.378 50.7846C74.7272 56.5161 71.9761 65.9694 72.2932 81.4847L72.2794 81.9398C72.3024 82.0474 72.3253 82.155 72.2427 82.2872C72.2289 82.7423 71.8752 83.1637 71.4297 83.1547C70.9842 83.1457 70.5754 82.7892 70.5891 82.3342C70.5662 82.2265 70.5432 82.1189 70.6259 81.9867L70.6397 81.5316C70.3133 65.4536 73.3125 55.6036 80.317 49.4507C90.4172 40.655 104.592 43.6739 106.231 44.0821C112.533 45.5489 118.041 49.0085 122.519 54.4026C123.405 55.4384 124.315 56.5818 125.119 57.7499C128.463 62.505 130.925 67.8048 132.362 74.0214C133.929 80.3209 137.153 93.3504 130.176 103.79C126.741 108.997 121.578 112.348 120.591 112.917C118.133 114.394 115.63 115.656 112.801 116.429C112.92 118.548 113.315 124.556 113.278 124.903C113.301 125.011 113.265 125.358 113.38 125.896L113.398 127.022C113.513 127.56 113.242 127.849 112.925 127.923Z" fill="black"/>
<path d="M74.9152 122.23C74.3927 122.237 74.0306 121.973 74.05 121.504C73.8662 119.34 73.803 117.264 73.6192 115.1L73.5584 114.766C73.4361 113.517 73.4142 112.245 73.2717 110.884C73.0263 107.805 72.7809 104.727 72.5557 101.76C72.4747 101.314 72.8157 100.885 73.2175 100.791C73.6193 100.696 74.0017 101.071 74.0827 101.516C74.3281 104.595 74.5735 107.674 74.8189 110.752C74.9412 112.001 74.9631 113.274 75.1056 114.634L75.1664 114.969C75.3503 117.132 75.5139 119.185 75.5973 121.372C75.5576 121.73 75.317 122.135 74.9152 122.23Z" fill="black"/>
<path d="M80.9636 102.845C79.8777 103.067 78.7486 103.073 77.7063 102.948C75.1441 102.57 72.4957 101.194 70.4991 99.12C68.0686 96.5705 66.8545 93.3203 67.204 89.9753C67.3785 88.585 67.7703 87.1503 68.4225 85.8879C70.5967 81.4917 75.3757 78.8191 80.2179 79.2941C81.955 79.5025 83.5615 80.1891 83.6701 80.1668C84.2997 80.4893 84.799 80.7256 85.3199 81.0703C86.644 82.0406 87.7941 83.2722 88.5532 84.8098C88.7484 85.2213 88.6179 85.6995 88.2051 85.897C87.7924 86.0944 87.3148 85.9666 87.1196 85.5551C86.4038 84.2344 85.4055 83.1974 84.342 82.3995C83.9512 82.141 83.4303 81.7962 82.931 81.56C82.931 81.56 81.4547 80.9595 79.9564 80.8151C75.7004 80.4457 71.6166 82.6371 69.7902 86.5105C69.2249 87.6423 68.8768 88.7295 68.7892 89.989C68.396 93.6816 70.1534 96.2561 71.6074 97.877C73.3218 99.6702 75.7097 100.874 77.9245 101.21C78.8582 101.357 79.7485 101.288 80.6173 101.11C80.943 101.043 81.2688 100.976 81.5946 100.91C82.0289 100.82 82.5282 101.057 82.6148 101.491C82.7014 101.924 82.4623 102.425 82.0279 102.514C81.8107 102.558 81.398 102.756 80.9636 102.845Z" fill="black"/>
<path d="M78.3632 102.67C79.4735 102.749 80.4569 102.744 81.2903 102.547C80.6673 106.342 79.9402 110.16 79.3173 113.955C77.686 113.999 76.0548 114.043 74.4008 113.978C74.1494 112.784 73.5908 109.611 73.4436 108.392C72.7707 104.676 72.2349 101.612 71.8363 99.1991C73.6934 101.267 76.1197 102.403 78.3632 102.67Z" fill="black"/>
<path d="M126.591 60.0515C120.34 60.7071 113.979 61.3857 107.619 62.0642C101.804 62.628 96.0987 63.1689 90.3932 63.7098C89.6889 67.259 88.8523 70.7262 88.1479 74.2754C87.4835 77.487 86.7331 80.8264 86.0687 84.0381C85.7351 83.5596 85.1371 82.9173 84.3438 82.4258C82.1822 80.9052 80.0559 80.5841 79.2457 80.535C76.3322 80.2696 74.2643 81.2528 73.328 81.669C70.2376 83.1963 68.7108 85.6017 68.1311 86.6013C64.0653 73.3028 67.6069 59.283 77.2257 50.5689C78.2651 49.5824 92.4611 37.2731 108.761 42.8438C121.302 46.9005 125.958 58.2098 126.591 60.0515Z" fill="black"/>
</g>
<path d="M99.5246 198.208C45.2175 198.208 1.19287 154.184 1.19287 99.8766H-0.807129C-0.807129 155.288 44.1129 200.208 99.5246 200.208V198.208ZM197.856 99.8766C197.856 154.184 153.832 198.208 99.5246 198.208V200.208C154.936 200.208 199.856 155.288 199.856 99.8766H197.856ZM99.5246 1.54492C153.832 1.54492 197.856 45.5695 197.856 99.8766H199.856C199.856 44.4649 154.936 -0.455078 99.5246 -0.455078V1.54492ZM99.5246 -0.455078C44.1129 -0.455078 -0.807129 44.4649 -0.807129 99.8766H1.19287C1.19287 45.5695 45.2175 1.54492 99.5246 1.54492V-0.455078Z" fill="black" fill-opacity="0.1"/>
<defs>
<clipPath id="clip0_3_14593">
<path d="M0.192871 99.8766C0.192871 45.0172 44.6652 0.544922 99.5246 0.544922V0.544922C154.384 0.544922 198.856 45.0172 198.856 99.8766V99.8766C198.856 154.736 154.384 199.208 99.5246 199.208V199.208C44.6652 199.208 0.192871 154.736 0.192871 99.8766V99.8766Z" fill="white"/>
</clipPath>
</defs>
</svg>
