<svg width="200" height="200" viewBox="0 0 200 200" fill="none" xmlns="http://www.w3.org/2000/svg">
<g clip-path="url(#clip0_3_14598)">
<path d="M0.481934 99.8766C0.481934 45.0172 44.9542 0.544922 99.8136 0.544922V0.544922C154.673 0.544922 199.145 45.0172 199.145 99.8766V99.8766C199.145 154.736 154.673 199.208 99.8136 199.208V199.208C44.9542 199.208 0.481934 154.736 0.481934 99.8766V99.8766Z" fill="#F8F8F8"/>
<path d="M43.5416 75.3164C37.9399 88.1785 54.0923 96.309 64.3711 90.7618C71.1964 87.0908 74.1876 79.8031 75.6016 72.5699C76.5262 67.784 76.8525 62.6174 79.1911 58.2394C82.3182 52.393 88.2462 50.3536 94.2014 48.8308V48.858C93.7119 50.4623 96.2408 51.1421 96.7303 49.5378C100.401 37.3827 86.0164 32.1073 76.8253 36.8116C69.4561 40.5914 65.5132 48.2869 61.2983 55.0035C57.9537 60.306 54.2011 63.9227 49.6055 68.0287C47.2398 70.177 44.8196 72.3796 43.5416 75.3164Z" fill="#201000"/>
<path d="M140.565 60.2786C153.427 55.0032 155.385 38.7421 142.604 37.3008C129.823 35.8596 101.108 36.893 92.3249 50.0542C83.5417 63.2154 72.6102 78.0082 86.4785 89.1572C100.374 100.333 140.565 60.2786 140.565 60.2786Z" fill="#201000"/>
<path d="M112.039 123.936L114.895 111.727C122.264 113.63 127.838 113.549 132.815 108.002C137.845 102.4 139.015 87.1448 140.918 72.624C141.543 67.8109 141.435 63.7048 140.564 60.2513C138.199 50.7883 130.095 46.3015 116.064 46.0024C99.7484 45.6489 96.8388 55.2479 96.8388 55.2479C96.1862 53.6979 94.5274 51.7672 92.2976 50.0541C86.8863 45.8936 78.1847 43.12 72.6918 50.7883C64.9419 61.6109 74.133 72.2161 85.9889 76.866C85.9889 76.866 85.01 89.3202 89.9319 95.1122C89.9319 95.1122 88.5178 109.144 86.8047 124.154C86.5328 126.71 105.731 145.935 112.039 123.936Z" fill="#F8F8F8"/>
<path d="M101.951 135.683C101.135 135.683 100.32 135.602 99.5854 135.438C92.9776 134.133 85.2549 126.71 85.554 123.99C87.0496 110.802 88.3549 98.2117 88.6268 95.4924C84.5479 90.1627 84.5751 80.754 84.6839 77.7085C76.6893 74.3638 70.9244 68.8709 69.1569 62.8885C67.8789 58.5649 68.749 54.1053 71.6858 49.9992C73.834 47.008 76.5805 45.2405 79.8708 44.751C85.7716 43.8809 91.1285 47.4159 93.1408 48.9931C94.6092 50.1352 95.86 51.3588 96.7574 52.5553C98.7697 49.4825 103.909 44.4519 116.091 44.6967C130.911 45.023 139.341 49.9992 141.843 59.9517C142.767 63.5411 142.876 67.756 142.223 72.8138C141.951 74.8804 141.707 76.9743 141.435 79.0409C139.858 91.7671 138.389 103.786 133.794 108.898C128.627 114.636 122.862 114.935 115.874 113.331L113.318 124.262C113.318 124.289 113.318 124.317 113.29 124.317C110.707 133.345 106.057 135.683 101.951 135.683ZM88.1373 124.181C88.6268 125.676 95.3162 132.909 101.679 133.073C105.894 133.127 108.94 130 110.789 123.637L113.644 111.455C113.726 111.101 113.943 110.829 114.242 110.639C114.541 110.448 114.895 110.394 115.248 110.503C122.074 112.27 127.24 112.325 131.863 107.185C135.915 102.698 137.41 90.5162 138.852 78.769C139.096 76.7023 139.368 74.6085 139.64 72.5147C140.238 67.8648 140.13 63.8674 139.314 60.6315C137.111 51.8483 129.715 47.6335 116.037 47.3615C100.999 47.0352 98.1986 55.329 98.0898 55.6825C97.9267 56.1991 97.4644 56.5798 96.9205 56.607C96.3767 56.6342 95.86 56.3351 95.6425 55.8184C95.0714 54.4588 93.4671 52.6641 91.5092 51.1413C87.8382 48.3133 83.5962 46.9265 80.2243 47.4159C77.6682 47.7966 75.4928 49.2106 73.7797 51.6036C71.3051 55.0842 70.5709 58.6465 71.6314 62.2087C73.2086 67.5384 78.919 72.705 86.5058 75.669C87.0496 75.8866 87.3759 76.4032 87.3216 76.9743C87.3216 77.0831 86.4514 88.9662 90.9382 94.296C91.1557 94.5679 91.2645 94.9214 91.2373 95.2749C91.2373 95.3837 89.8233 109.388 88.1373 124.181Z" fill="#201000"/>
<path d="M126.886 88.395C126.505 88.395 126.152 88.2318 125.88 87.9327C125.418 87.3888 125.472 86.5459 126.043 86.0836C130.639 82.1951 130.829 76.2943 126.75 63.6225C126.533 62.9427 126.913 62.2085 127.593 61.9909C128.273 61.7734 129.007 62.1541 129.225 62.8339C133.059 74.7715 134.038 82.7389 127.729 88.0958C127.484 88.2862 127.185 88.395 126.886 88.395Z" fill="#201000"/>
<path d="M112.413 68.7057C112.784 67.8845 112.418 66.918 111.597 66.5471C110.776 66.1763 109.81 66.5414 109.439 67.3626C109.068 68.1839 109.433 69.1503 110.254 69.5212C111.075 69.892 112.042 69.527 112.413 68.7057Z" fill="#201000"/>
<path d="M137.597 71.4538C137.968 70.6325 137.602 69.6661 136.781 69.2952C135.96 68.9243 134.994 69.2894 134.623 70.1107C134.252 70.9319 134.617 71.8983 135.438 72.2692C136.259 72.6401 137.226 72.275 137.597 71.4538Z" fill="#201000"/>
<path d="M109.945 92.1483C106.628 91.6044 104.697 88.3141 105.948 85.1598C106.574 83.6098 104.181 82.5221 103.555 84.0721C101.679 88.8036 104.453 93.8886 109.51 94.7316C111.196 95.0035 111.604 92.4202 109.945 92.1483Z" fill="#201000"/>
<path d="M115.003 60.3052C114.921 59.571 114.269 59.1087 113.561 59.1359C112.827 59.1631 112.093 59.1903 111.386 59.1903C110.679 59.2175 110.162 59.9517 110.217 60.6315C110.298 61.3657 110.951 61.828 111.658 61.8008C112.392 61.7736 113.126 61.7464 113.833 61.7464C114.54 61.7192 115.057 60.9578 115.003 60.3052Z" fill="#201000"/>
<path d="M137.763 60.7953L136.267 60.1155C134.744 59.4357 133.656 61.8015 135.179 62.5085L136.675 63.1883C138.225 63.8681 139.285 61.4751 137.763 60.7953Z" fill="#201000"/>
<path d="M89.6874 67.6476C88.9804 67.6476 88.4094 67.1038 88.3822 66.3967C88.3006 64.0582 85.2822 57.6679 81.0674 56.689C80.3604 56.5258 79.9253 55.8188 80.0884 55.1118C80.2516 54.4048 80.9586 53.9697 81.6656 54.1329C87.1313 55.3837 90.8567 62.8073 90.9927 66.288C91.0199 66.995 90.4488 67.6204 89.7418 67.6476C89.7146 67.6476 89.7146 67.6476 89.6874 67.6476Z" fill="#201000"/>
<path d="M95.7515 54.8684C97.4918 57.9411 101.543 56.2824 103.828 54.9227C107.607 52.6658 110.463 49.2395 112.23 45.2422C112.883 43.7194 110.653 42.387 109.973 43.9097C109.837 44.2089 109.701 44.508 109.538 44.8071C109.429 44.7799 109.348 44.7255 109.239 44.7255C105.459 44.5896 101.761 45.5957 98.7154 47.9071C96.7304 49.4298 94.2287 52.2307 95.7515 54.8684Z" fill="#201000"/>
<path d="M38.1826 230.151C37.7204 230.151 37.2581 229.906 37.0405 229.471C36.7142 228.846 36.9318 228.03 37.5844 227.704C92.9213 198.118 114.675 201.218 127.429 207.228L128.652 207.799C140.155 213.21 146.464 216.174 147.769 220.008C148.204 221.259 148.068 222.592 147.388 223.897C145.865 226.834 140.889 224.359 135.124 221.504C133.302 220.607 130.882 219.41 129.93 219.193C129.604 219.41 129.169 219.465 128.788 219.301C128.109 219.057 127.782 218.295 128.027 217.615C128.19 217.18 128.516 216.854 128.952 216.664C130.121 216.201 131.807 216.936 136.266 219.165C138.741 220.389 143.826 222.891 145.104 222.592C145.43 221.939 145.485 221.395 145.294 220.851C144.343 218.078 137.653 214.923 127.538 210.165L126.314 209.594C114.104 203.856 93.1389 200.974 38.8081 230.015C38.5905 230.097 38.373 230.151 38.1826 230.151Z" fill="#201000"/>
<path d="M212.405 228.383C209.441 228.383 207.021 224.603 204.682 220.932C203.486 219.056 201.691 216.255 200.848 216.065C200.141 215.902 199.706 215.222 199.869 214.515C200.033 213.808 200.712 213.373 201.419 213.536C203.323 213.971 204.9 216.418 206.885 219.546C208.571 222.183 210.882 225.8 212.405 225.8C212.867 225.8 212.949 225.664 212.976 225.61C213.33 224.984 213.058 222.754 210.91 219.111C206.695 212.013 196.09 201.544 184.016 201.789C165.607 202.142 155.029 208.777 150.732 222.7C150.515 223.38 149.781 223.788 149.101 223.57C148.421 223.353 148.013 222.618 148.231 221.939C152.881 206.792 164.247 199.559 183.962 199.178C196.307 198.961 207.728 208.641 213.139 217.778C214.526 220.117 216.647 224.413 215.233 226.888C214.689 227.867 213.683 228.383 212.405 228.383Z" fill="#201000"/>
<path d="M21.5415 238.418C20.8617 238.418 20.2907 237.901 20.2363 237.221C20.2091 236.786 16.4565 192.408 17.9521 163.91C19.5565 133.454 36.5246 126.928 86.7222 122.822C87.4564 122.768 88.0818 123.312 88.1362 124.019C88.1906 124.726 87.6468 125.378 86.9397 125.433C35.0019 129.675 21.9766 137.261 20.5626 164.046C19.067 192.354 22.7924 236.542 22.8468 236.977C22.9012 237.684 22.3845 238.336 21.6503 238.391C21.6231 238.418 21.5687 238.418 21.5415 238.418Z" fill="#201000"/>
<path d="M169.061 202.714C168.408 202.714 167.837 202.224 167.755 201.572C167.755 201.463 166.368 189.906 161.773 159.831C157.259 130.191 148.911 124.372 112.065 125.242C111.358 125.242 110.732 124.698 110.732 123.964C110.705 123.257 111.276 122.659 112.01 122.631C149.89 121.761 159.679 128.614 164.356 159.423C168.952 189.552 170.339 201.136 170.339 201.245C170.42 201.952 169.903 202.605 169.196 202.686C169.169 202.714 169.115 202.714 169.061 202.714Z" fill="#201000"/>
<path d="M53.1939 222.646C52.4869 222.646 51.9158 222.102 51.8886 221.395L49.6044 165.242C49.5773 164.535 50.1483 163.91 50.8553 163.882C51.5623 163.828 52.1877 164.426 52.2149 165.133L54.4991 221.286C54.5263 221.993 53.9553 222.618 53.2483 222.646C53.2211 222.646 53.1939 222.646 53.1939 222.646Z" fill="#201000"/>
<path d="M147.743 210.572C147.09 210.572 146.519 210.082 146.437 209.403L140.346 155.425C140.265 154.718 140.781 154.066 141.488 153.984C142.195 153.902 142.848 154.419 142.93 155.126L149.021 209.103C149.102 209.81 148.586 210.463 147.879 210.545C147.824 210.545 147.797 210.572 147.743 210.572Z" fill="#201000"/>
<path d="M50.9097 174.65C50.7466 174.65 50.5562 174.623 50.3931 174.542L19.7198 161.489C19.0672 161.217 18.7409 160.429 19.04 159.776C19.3119 159.123 20.0733 158.797 20.7531 159.096L51.4264 172.149C52.079 172.421 52.4053 173.209 52.1062 173.862C51.8887 174.351 51.3992 174.65 50.9097 174.65Z" fill="#201000"/>
<path d="M161.664 149.769C161.257 149.171 160.441 149.035 159.843 149.443L142.766 161.217C142.874 162.223 142.956 163.202 143.01 164.208L161.311 151.591C161.909 151.156 162.072 150.34 161.664 149.769Z" fill="#201000"/>
</g>
<path d="M99.8136 198.208C45.5065 198.208 1.48193 154.184 1.48193 99.8766H-0.518066C-0.518066 155.288 44.4019 200.208 99.8136 200.208V198.208ZM198.145 99.8766C198.145 154.184 154.121 198.208 99.8136 198.208V200.208C155.225 200.208 200.145 155.288 200.145 99.8766H198.145ZM99.8136 1.54492C154.121 1.54492 198.145 45.5695 198.145 99.8766H200.145C200.145 44.4649 155.225 -0.455078 99.8136 -0.455078V1.54492ZM99.8136 -0.455078C44.4019 -0.455078 -0.518066 44.4649 -0.518066 99.8766H1.48193C1.48193 45.5695 45.5065 1.54492 99.8136 1.54492V-0.455078Z" fill="black" fill-opacity="0.1"/>
<defs>
<clipPath id="clip0_3_14598">
<path d="M0.481934 99.8766C0.481934 45.0172 44.9542 0.544922 99.8136 0.544922V0.544922C154.673 0.544922 199.145 45.0172 199.145 99.8766V99.8766C199.145 154.736 154.673 199.208 99.8136 199.208V199.208C44.9542 199.208 0.481934 154.736 0.481934 99.8766V99.8766Z" fill="white"/>
</clipPath>
</defs>
</svg>
