<svg width="200" height="199" viewBox="0 0 200 199" fill="none" xmlns="http://www.w3.org/2000/svg">
<g clip-path="url(#clip0_3_14604)">
<path d="M0.481934 99.4801C0.481934 44.6207 44.9542 0.148438 99.8136 0.148438V0.148438C154.673 0.148438 199.145 44.6207 199.145 99.4801V99.4801C199.145 154.34 154.673 198.812 99.8136 198.812V198.812C44.9542 198.812 0.481934 154.34 0.481934 99.4801V99.4801Z" fill="#F8F8F8"/>
<path d="M153.218 90.9332C152.134 83.9538 146.6 78.6006 144.635 71.8921C142.286 63.8737 146.013 55.0195 142.715 47.4075C140.931 43.2515 137.249 40.6314 132.641 41.2638C128.124 41.8962 125.052 45.1488 122.635 48.7854C122.228 49.3952 121.844 50.0051 121.483 50.6375C121.144 50.7956 120.941 51.0893 120.986 51.4958C120.738 51.925 120.489 52.3542 120.263 52.7607C119.586 53.9353 121.415 54.9969 122.07 53.8223C122.093 53.7771 122.116 53.732 122.138 53.7094C122.161 53.732 122.161 53.7546 122.183 53.7772C121.235 54.9065 120.851 56.4424 121.189 58.0461C121.461 59.3788 123.493 58.8141 123.222 57.4815C123.968 57.0975 124.645 56.8038 125.3 56.6006C128.688 55.4712 130.721 56.5554 131.376 59.8531C131.376 59.8983 131.399 59.9209 131.399 59.9661C131.534 60.35 131.647 60.7566 131.738 61.1406C131.851 61.5698 131.941 61.9763 132.031 62.4055C132.189 63.2638 132.302 64.1221 132.348 65.003C132.37 65.2741 132.393 65.5451 132.393 65.8162C132.415 66.539 132.415 67.2392 132.393 67.962C132.37 68.7977 132.302 69.656 132.235 70.4917C131.986 73.5184 131.444 76.4999 131.038 79.5041C130.97 79.9106 130.925 80.3172 130.879 80.7238C130.834 81.1303 130.789 81.5369 130.744 81.9435C130.699 82.3501 130.676 82.734 130.654 83.1406C130.315 88.7874 131.105 95.1119 135.194 99.4035C142.625 107.196 154.935 101.888 153.218 90.9332Z" fill="#201000"/>
<path d="M75.6535 60.8244C66.8896 32.9291 90.9225 36.0913 105.13 38.1919C119.337 40.2925 125.662 49.2371 125.662 61.3439C125.662 73.4507 75.6535 60.8244 75.6535 60.8244Z" fill="#201000"/>
<path d="M139.236 69.0234C138.332 62.0439 128.123 58.5655 121.573 60.6887C119.224 61.4567 116.671 49.0563 102.464 46.5039C90.2441 44.2903 82.4289 46.7749 78.7246 54.5676C77.3468 57.391 76.5336 60.9597 76.24 65.2287C75.3365 78.1712 73.665 91.5655 77.0305 97.3253C80.3735 102.995 85.1845 104.056 91.9155 103.695L92.0962 117.586C90.086 133.194 110.934 135.724 114.977 120.929C115.022 106.202 116.491 93.6661 116.491 93.6661C121.753 89.5101 122.295 83.0275 122.295 83.0275C133.363 81.0624 140.275 76.9967 139.236 69.0234Z" fill="#F8F8F8"/>
<path d="M140.321 68.8882C139.959 66.0196 138.197 63.5124 135.284 61.6602C134.087 60.8923 132.754 60.305 131.376 59.8532C129.479 59.2434 127.491 58.9498 125.549 58.9723C124.103 58.9949 122.68 59.1982 121.393 59.6048C121.031 59.3337 120.308 58.2947 119.721 57.4364C117.259 53.8676 112.696 47.227 102.645 45.42C89.7704 43.0935 81.6164 45.9169 77.7313 54.0709C76.7827 56.0134 76.1051 58.2495 75.6533 60.8245C75.4274 62.1571 75.2467 63.6027 75.1338 65.1161C74.9983 66.9682 74.8628 68.8204 74.7272 70.65C73.8463 81.9436 73.0106 92.6048 76.0825 97.8225C79.5383 103.695 84.4849 104.96 90.832 104.779L90.9901 117.496C90.8997 118.309 90.8546 119.1 90.8546 119.868C90.8546 120.636 90.9223 121.381 91.0578 122.081C91.9839 127.525 96.0045 130.732 100.296 131.59C101.109 131.749 101.967 131.839 102.826 131.839C108.089 131.839 113.645 128.699 115.791 121.901C115.859 121.675 115.926 121.449 115.994 121.2C116.017 121.11 116.039 121.02 116.039 120.907C116.039 120.5 116.039 120.071 116.039 119.664C116.152 107.219 117.236 96.4446 117.485 94.1859C121.686 90.6623 122.906 85.8512 123.222 83.9087C126.091 83.3666 128.598 82.7116 130.744 81.8984C137.226 79.4364 140.434 75.7095 140.434 70.6048C140.434 70.0627 140.388 69.4754 140.321 68.8882ZM131.037 79.4816C128.666 80.498 125.684 81.3112 122.093 81.9436C121.618 82.0339 121.234 82.4405 121.189 82.9149C121.189 82.9826 120.602 88.9908 115.791 92.7855C115.565 92.9662 115.43 93.2147 115.384 93.5083C115.362 93.6438 113.916 106.202 113.871 120.749C111.883 127.773 105.785 130.461 100.725 129.445C96.6369 128.632 92.2098 125.063 93.1584 117.699C93.1584 117.654 93.1584 117.586 93.1584 117.541L92.9778 103.65C92.9778 103.356 92.8422 103.085 92.6389 102.882C92.4357 102.701 92.1646 102.588 91.8936 102.588H91.8258C85.5691 102.927 81.0517 102.046 77.9346 96.7383C75.2016 92.1079 76.0147 81.7629 76.873 70.8307C77.0085 68.9785 77.1667 67.1263 77.2796 65.2742C77.3699 63.8738 77.5281 62.5637 77.7539 61.344C78.1605 58.9046 78.8155 56.7814 79.6739 55.0196C83.1297 47.7691 90.3125 45.3974 102.239 47.5658C111.386 49.2146 115.475 55.1325 117.914 58.6787C119.337 60.7341 120.354 62.2249 121.889 61.728C123.041 61.3666 124.306 61.1859 125.616 61.1633C127.74 61.1407 129.998 61.5925 131.986 62.4056C132.731 62.7218 133.432 63.0832 134.087 63.4898C134.922 64.0093 135.826 64.7321 136.594 65.6582C137.362 66.5843 137.949 67.7588 138.13 69.1366C138.762 73.7896 136.481 77.1551 131.037 79.4816Z" fill="#201000"/>
<path d="M93.8589 83.8862C93.5879 83.8862 93.3168 83.7733 93.0909 83.57C87.8959 78.4653 89.2737 71.531 93.3846 61.2763C93.6104 60.7117 94.2429 60.4406 94.785 60.6665C95.3497 60.8924 95.6207 61.5248 95.3948 62.0669C90.9903 73.0217 90.787 78.2394 94.6043 82.0115C95.0334 82.4406 95.0334 83.1182 94.6269 83.5474C94.4236 83.7733 94.13 83.8862 93.8589 83.8862Z" fill="#201000"/>
<path d="M107.461 67.3356C108.239 67.1582 108.726 66.3833 108.549 65.6049C108.371 64.8265 107.597 64.3393 106.818 64.5167C106.04 64.6941 105.553 65.4689 105.73 66.2473C105.907 67.0258 106.682 67.513 107.461 67.3356Z" fill="#201000"/>
<path d="M85.1481 65.3034C85.9265 65.126 86.4137 64.3511 86.2363 63.5727C86.0589 62.7943 85.2841 62.3071 84.5056 62.4845C83.7272 62.6619 83.24 63.4367 83.4174 64.2151C83.5948 64.9935 84.3696 65.4808 85.1481 65.3034Z" fill="#201000"/>
<path d="M106.011 58.7456C106.101 58.0905 106.689 57.7291 107.321 57.7743C107.976 57.8195 108.608 57.8646 109.264 57.9098C109.896 57.955 110.325 58.6326 110.235 59.2199C110.144 59.8749 109.557 60.2363 108.925 60.1911C108.27 60.146 107.637 60.1008 106.982 60.0556C106.372 60.0104 105.943 59.3328 106.011 58.7456Z" fill="#201000"/>
<path d="M123.877 75.3258C123.787 75.3258 123.696 75.3258 123.629 75.3032C123.041 75.1677 122.68 74.5804 122.838 73.9931C123.493 71.2827 127.017 65.9521 132.189 65.7939C132.799 65.8165 133.296 66.2457 133.296 66.8555C133.318 67.4428 132.844 67.9623 132.234 67.9623C128.462 68.0527 125.458 72.2765 124.916 74.49C124.826 75.0096 124.374 75.3258 123.877 75.3258Z" fill="#201000"/>
<path d="M105.829 85.9871C105.242 87.523 103.751 88.5394 102.125 88.5846C100.77 88.6298 100.77 90.7304 102.125 90.6852C104.745 90.5949 106.936 88.9686 107.862 86.5518C108.359 85.2643 106.326 84.7222 105.829 85.9871Z" fill="#201000"/>
<path d="M88.2341 54.5906C88.076 54.0033 87.5113 53.7549 86.9466 53.8452C85.9528 54.0259 84.9589 54.2066 83.9651 54.3647C83.4004 54.4551 83.0842 55.1553 83.2197 55.6522C83.3778 56.2395 83.9425 56.4879 84.5072 56.3976C85.501 56.2169 86.4949 56.0362 87.4887 55.8781C88.076 55.7877 88.3922 55.1101 88.2341 54.5906Z" fill="#201000"/>
<path d="M195.614 187.674C195.388 187.674 195.162 187.607 194.959 187.471L152.269 155.872L153.895 183.722C153.94 184.309 153.466 184.828 152.879 184.874C152.269 184.896 151.772 184.444 151.727 183.857L149.965 153.681C149.942 153.251 150.168 152.867 150.53 152.664C150.891 152.461 151.343 152.506 151.682 152.754L196.224 185.732C196.698 186.093 196.811 186.771 196.45 187.245C196.269 187.516 195.953 187.674 195.614 187.674Z" fill="#201000"/>
<path d="M189.312 142.952C189.086 142.952 188.838 142.884 188.634 142.726C166.273 125.04 157.012 117.744 143.098 118.919C128.597 120.161 115.226 121.968 115.09 121.991C114.503 122.059 113.961 121.652 113.87 121.065C113.78 120.477 114.209 119.935 114.797 119.845C114.932 119.822 128.349 118.015 142.895 116.773C157.667 115.486 167.786 123.504 189.967 141.032C190.441 141.393 190.509 142.094 190.148 142.545C189.944 142.816 189.628 142.952 189.312 142.952Z" fill="#201000"/>
<path d="M35.6726 206.965C35.0627 206.965 34.5884 206.49 34.5884 205.881C34.5884 205.813 34.611 197.659 35.9888 154.63C36.4631 139.835 40.0319 129.807 46.8984 123.956C56.8594 115.486 71.767 117.406 86.1551 119.281C87.8492 119.507 89.5433 119.71 91.1921 119.913C91.7794 119.981 92.2085 120.523 92.1408 121.11C92.073 121.698 91.5309 122.127 90.9437 122.059C89.2722 121.856 87.5782 121.63 85.8841 121.427C71.9478 119.62 57.5371 117.745 48.2989 125.605C41.9292 131.026 38.5863 140.535 38.1346 154.698C36.7568 197.681 36.7342 205.79 36.7342 205.881C36.7568 206.49 36.2598 206.965 35.6726 206.965Z" fill="#201000"/>
<path d="M63.7256 177.51C63.1835 177.51 62.7092 177.104 62.6414 176.539L58.779 141.461C58.7113 140.874 59.1404 140.332 59.7277 140.264C60.3149 140.196 60.857 140.625 60.9248 141.213L64.7872 176.291C64.855 176.878 64.4258 177.42 63.8386 177.488C63.816 177.488 63.7708 177.51 63.7256 177.51Z" fill="#201000"/>
</g>
<path d="M99.8136 197.812C45.5065 197.812 1.48193 153.787 1.48193 99.4801H-0.518066C-0.518066 154.892 44.4019 199.812 99.8136 199.812V197.812ZM198.145 99.4801C198.145 153.787 154.121 197.812 99.8136 197.812V199.812C155.225 199.812 200.145 154.892 200.145 99.4801H198.145ZM99.8136 1.14844C154.121 1.14844 198.145 45.173 198.145 99.4801H200.145C200.145 44.0685 155.225 -0.851562 99.8136 -0.851562V1.14844ZM99.8136 -0.851562C44.4019 -0.851562 -0.518066 44.0685 -0.518066 99.4801H1.48193C1.48193 45.173 45.5065 1.14844 99.8136 1.14844V-0.851562Z" fill="black" fill-opacity="0.1"/>
<defs>
<clipPath id="clip0_3_14604">
<path d="M0.481934 99.4801C0.481934 44.6207 44.9542 0.148438 99.8136 0.148438V0.148438C154.673 0.148438 199.145 44.6207 199.145 99.4801V99.4801C199.145 154.34 154.673 198.812 99.8136 198.812V198.812C44.9542 198.812 0.481934 154.34 0.481934 99.4801V99.4801Z" fill="white"/>
</clipPath>
</defs>
</svg>
