<svg width="200" height="200" viewBox="0 0 200 200" fill="none" xmlns="http://www.w3.org/2000/svg">
<g clip-path="url(#clip0_3_14601)">
<path d="M0.614746 99.8766C0.614746 45.0172 45.087 0.544922 99.9464 0.544922V0.544922C154.806 0.544922 199.278 45.0172 199.278 99.8766V99.8766C199.278 154.736 154.806 199.208 99.9464 199.208V199.208C45.087 199.208 0.614746 154.736 0.614746 99.8766V99.8766Z" fill="#F8F8F8"/>
<path d="M29.9571 165.488C29.1588 165.488 28.4035 165.078 27.6915 164.258C26.9794 163.439 26.2457 161.928 26.9147 159.317C28.7703 152.11 40.2066 140.998 54.2538 135.97C66.5748 131.568 82.3482 134.201 104.207 137.869C121.793 140.825 143.694 144.493 170.127 145.27C170.645 145.292 171.055 145.723 171.033 146.241C171.012 146.759 170.537 147.169 170.062 147.147C143.478 146.349 121.534 142.681 103.883 139.703C82.3266 136.078 66.7474 133.467 54.8796 137.718C40.1635 142.983 30.2592 153.901 28.7488 159.749C28.4898 160.741 28.3388 162.101 29.1156 162.964C29.3098 163.201 29.6982 163.59 30.0003 163.546C30.6908 163.503 31.7697 161.863 32.7407 160.396C34.92 157.095 37.8762 152.585 43.4217 152.757C43.9396 152.779 44.3496 153.211 44.328 153.728C44.3064 154.246 43.8101 154.656 43.357 154.635C38.8904 154.505 36.3442 158.346 34.2943 161.432C32.8701 163.59 31.7265 165.316 30.1082 165.424C30.065 165.488 30.0003 165.488 29.9571 165.488Z" fill="#000200"/>
<path d="M34.0132 174.854C33.0206 174.854 32.1143 174.53 31.4023 173.883C30.3665 172.934 29.9566 171.488 30.3234 169.934C30.9923 167.064 36.4515 158.476 44.9963 151.615C45.4063 151.291 45.9889 151.356 46.3126 151.766C46.6362 152.176 46.5715 152.758 46.1615 153.082C37.5088 160.052 32.6322 168.273 32.1359 170.366C31.9417 171.251 32.1143 172.006 32.6538 172.502C33.1932 172.998 34.0348 173.128 34.8979 172.826C35.3942 172.653 35.9336 172.934 36.0847 173.43C36.2573 173.926 35.9768 174.466 35.4805 174.617C35.0058 174.768 34.4879 174.854 34.0132 174.854Z" fill="#000200"/>
<path d="M38.5231 178.91C37.811 178.91 37.1637 178.759 36.6027 178.457C35.9122 178.09 34.7686 177.119 34.7686 174.832C34.7686 170.322 44.3923 160.181 50.8656 154.484C51.254 154.139 51.8582 154.182 52.2035 154.57C52.5487 154.959 52.5056 155.563 52.1172 155.908C43.5939 163.417 36.6674 171.919 36.6674 174.832C36.6674 175.825 36.9479 176.494 37.5305 176.817C38.3721 177.27 39.8178 177.011 41.134 176.191C41.5656 175.911 42.1482 176.04 42.4287 176.472C42.7092 176.904 42.5797 177.486 42.1482 177.767C40.9398 178.522 39.6667 178.91 38.5231 178.91Z" fill="#000200"/>
<path d="M43.9612 180.939C43.357 180.939 42.5154 180.745 41.7818 179.817C40.9834 178.802 40.7029 177.594 40.8971 176.213C41.8681 169.589 54.3833 160.612 55.8074 159.62C56.239 159.318 56.8216 159.426 57.1237 159.857C57.4257 160.289 57.3179 160.871 56.8863 161.173C52.3118 164.388 43.4433 171.747 42.7528 176.494C42.6233 177.357 42.796 178.069 43.2491 178.651C43.5296 179.018 43.767 179.061 43.9396 179.061C45.3853 179.061 47.8668 175.976 49.183 174.314C49.8519 173.473 50.3914 172.825 50.8013 172.415C55.5916 167.97 62.2592 167.431 68.2147 167.409C68.7325 167.409 69.1641 167.841 69.1641 168.359C69.1641 168.877 68.7325 169.308 68.2147 169.308C68.0852 169.33 67.9773 169.308 67.8479 169.308C62.1297 169.308 56.3037 169.891 52.096 173.796C51.7723 174.099 51.2329 174.767 50.6503 175.48C48.7299 177.918 46.3131 180.939 43.9612 180.939Z" fill="#000200"/>
<path d="M81.6363 134.59C80.6005 133.943 79.6511 135.583 80.6868 136.208C92.0799 143.307 95.4677 157.592 88.5412 169.115C87.9154 170.15 89.5553 171.1 90.1595 170.064C97.6039 157.678 93.8925 142.229 81.6363 134.59Z" fill="#000200"/>
<path d="M92.5979 137.027C92.4468 137.049 92.2958 137.092 92.1232 137.092C91.4542 137.114 90.8285 137.222 90.1812 137.329C99.7833 146.112 101.294 159.943 93.6983 170.602C92.9863 171.595 94.6262 172.545 95.3167 171.552C103.085 160.634 101.833 146.392 92.5979 137.027Z" fill="#000200"/>
<path d="M158.691 190.95C148.139 190.95 136.509 188.663 124.813 183.139C124.339 182.923 124.144 182.362 124.36 181.888C124.576 181.413 125.137 181.219 125.612 181.435C151.16 193.497 176.32 189.742 189.914 180.701C197.898 175.393 202.127 168.186 201.782 160.418C201.609 156.598 199.991 152.499 196.991 148.248C196.689 147.816 196.797 147.234 197.207 146.932C197.639 146.629 198.221 146.737 198.523 147.147C201.76 151.7 203.486 156.124 203.659 160.331C204.026 168.79 199.516 176.58 190.971 182.276C183.181 187.455 171.788 190.95 158.691 190.95Z" fill="#000200"/>
<path d="M188.316 136.316C169.997 120.564 141.212 108.243 130.401 105.352C130.423 105.999 130.401 106.646 130.38 107.294C141.385 110.358 169.263 122.42 187.108 137.762C187.281 137.913 187.497 137.999 187.712 137.999C187.971 137.999 188.23 137.891 188.424 137.675C188.748 137.244 188.705 136.661 188.316 136.316Z" fill="#000200"/>
<path d="M118.966 136.941L111.672 140.092L127.813 142.53C124.641 140.998 121.62 139.229 118.966 136.941Z" fill="#000200"/>
<path d="M127.64 228.022C125.827 228.022 123.95 226.382 121.037 223.836C118.426 221.549 114.822 218.398 109.687 215.011C98.8979 207.911 74.6876 205.473 43.2702 208.3C23.8933 210.048 -10.9766 210.393 -26.9226 192.915C-34.1943 184.953 -36.6326 174.164 -34.1943 160.85C-28.0662 127.383 42.3208 106.129 45.3201 105.244C45.8164 105.093 46.3342 105.373 46.4853 105.87C46.6363 106.366 46.3558 106.884 45.8595 107.035C20.8939 114.436 -27.5915 135.302 -32.3386 161.174C-34.669 173.883 -32.3602 184.133 -25.52 191.62C-10.1134 208.473 24.0875 208.106 43.0976 206.401C74.9249 203.531 99.5884 206.077 110.723 213.414C115.988 216.866 119.634 220.06 122.288 222.412C124.878 224.678 126.733 226.317 127.855 226.123C128.201 226.058 128.481 225.562 128.589 224.85C128.956 222.218 126.863 215.809 116.203 210.393C115.729 210.156 115.556 209.595 115.793 209.12C116.031 208.645 116.592 208.473 117.066 208.71C128.632 214.622 130.919 221.808 130.445 225.131C130.229 226.706 129.387 227.763 128.201 227.979C128.028 228.001 127.834 228.022 127.64 228.022Z" fill="#000200"/>
<path d="M140.025 225.086C137.911 225.086 135.818 222.734 135.127 219.584C134.178 215.182 129.711 212.01 129.668 211.989C129.237 211.686 126.755 209.14 127.057 208.709C127.359 208.277 130.315 210.154 130.747 210.435C130.963 210.586 135.861 214.038 136.961 219.174C137.522 221.828 139.119 223.187 140.047 223.187C140.651 223.166 141.126 222.367 141.299 221.051C141.86 216.736 138.796 206.486 129.129 202.365C128.783 202.214 128.546 201.869 128.546 201.48C128.546 201.092 128.805 200.746 129.15 200.617C129.237 200.574 138.299 197.272 144.341 206.853C148.872 214.017 150.232 215.29 150.469 215.484C150.793 215.635 151.03 215.959 151.03 216.326C151.03 216.844 150.62 217.275 150.102 217.297C149.628 217.297 148.721 217.34 142.723 207.846C139.357 202.516 135.041 201.761 132.365 201.89C140.457 206.68 143.866 215.851 143.154 221.289C142.723 224.59 140.889 225.022 140.112 225.043C140.09 225.065 140.069 225.086 140.025 225.086Z" fill="#000200"/>
<path d="M151.311 208.299C150.944 208.299 150.599 208.083 150.448 207.738C145.463 196.755 134.955 187.584 119.181 180.464C102.178 172.782 84.5703 168.941 68.2574 169.286C67.6532 169.286 67.308 168.876 67.2864 168.358C67.2648 167.841 67.6964 167.409 68.2143 167.387C84.8076 166.999 102.696 170.948 119.958 178.737C136.141 186.052 146.973 195.547 152.152 206.94C152.368 207.414 152.152 207.975 151.677 208.191C151.57 208.277 151.44 208.299 151.311 208.299Z" fill="#000200"/>
<path d="M103.581 172.997C103.192 172.825 102.804 172.652 102.415 172.501C85.4121 174.443 76.5436 193.194 85.9299 207.543C86.4694 207.694 87.0304 207.802 87.5699 207.91C87.8504 207.63 87.9583 207.198 87.6778 206.788C78.7877 193.561 86.8578 175.975 102.761 174.335C103.516 174.27 103.775 173.515 103.581 172.997Z" fill="#000200"/>
<path d="M94.6048 170.776C78.6371 173.301 69.7686 192.268 78.4645 206.509C79.0903 207.545 80.7302 206.596 80.0828 205.56C71.7969 191.944 80.8812 173.344 96.8489 172.416C97.3451 172.395 97.6472 172.049 97.7335 171.661C96.6762 171.381 95.6405 171.122 94.6048 170.776Z" fill="#000200"/>
<path d="M7.40737 164.583C6.97581 164.583 6.60898 164.302 6.50109 163.87C6.37163 163.374 6.67372 162.856 7.19159 162.727C12.845 161.324 27.8632 162.641 28.4889 162.705C29.0068 162.748 29.3952 163.202 29.3521 163.719C29.3089 164.237 28.8558 164.626 28.3379 164.583C28.1869 164.561 12.996 163.223 7.6663 164.561C7.55841 164.561 7.4721 164.583 7.40737 164.583Z" fill="#000200"/>
<path d="M79.5848 95.0382C87.8059 93.873 93.6319 68.5406 93.6319 68.5406C98.4438 72.9856 126.473 76.438 130.401 74.4097C130.401 63.1892 121.705 54.4502 102.587 54.4502C79.9732 54.4502 72.4209 63.8797 72.4209 78.9627C72.4209 94.0456 72.4209 94.0456 72.4209 94.0456L72.6151 94.3692C75.8949 93.9808 76.2618 95.0597 79.5848 95.0382Z" fill="#000200"/>
<path d="M115.167 110.704C114.649 110.704 114.218 110.273 114.218 109.755C114.218 109.237 114.649 108.805 115.167 108.805C116.936 108.805 118.382 108.331 119.051 107.532C119.439 107.079 119.569 106.54 119.439 105.871C119.181 104.382 115.879 103.54 114.304 103.368C113.829 103.325 113.462 102.915 113.462 102.44V93.8088C113.462 93.2909 113.894 92.8594 114.412 92.8594C114.93 92.8594 115.361 93.2909 115.361 93.8088V101.62C117.109 101.922 120.864 102.893 121.295 105.547C121.489 106.756 121.209 107.856 120.475 108.741C119.439 110.014 117.562 110.704 115.167 110.704Z" fill="#000200"/>
<path d="M121.812 91.9961V93.8734C121.812 96.2901 125.589 96.3117 125.589 93.8734V91.9961C125.589 89.5794 121.812 89.5794 121.812 91.9961Z" fill="#000200"/>
<path d="M96.5879 91.9961V93.8734C96.5879 96.2901 100.364 96.3117 100.364 93.8734V91.9961C100.364 89.5794 96.5879 89.5794 96.5879 91.9961Z" fill="#000200"/>
<path d="M98.5304 83.1278C97.02 83.4515 95.5527 83.8614 94.1285 84.4872C93.0065 84.9619 93.9775 86.6018 95.078 86.1055C96.3511 85.5661 97.6889 85.2424 99.0267 84.9403C100.235 84.6814 99.7172 82.8688 98.5304 83.1278Z" fill="#000200"/>
<path d="M125.784 82.7826C124.727 82.3295 123.561 82.0706 122.547 81.5311C121.49 80.9701 120.411 82.5453 121.49 83.0847C122.677 83.6889 123.95 84.0342 125.158 84.552C126.28 85.0267 126.906 83.2574 125.784 82.7826Z" fill="#000200"/>
<path d="M103.385 115.343C101.982 115.127 100.105 114.48 99.9973 112.797C99.9326 111.589 98.0337 111.589 98.12 112.797C98.2711 115.365 100.537 116.789 102.889 117.156C104.076 117.328 104.593 115.516 103.385 115.343Z" fill="#000200"/>
<path d="M107.485 140.114C107.01 140.114 106.579 139.748 106.536 139.251C106.493 138.733 106.881 138.28 107.399 138.237C113.139 137.762 117.843 136.554 120.993 134.742C130.12 129.477 129.797 112.775 129.257 85.1125C129.192 82.1779 129.149 79.1354 129.085 75.9634C128.869 62.132 120.194 55.3997 102.609 55.3997C82.3901 55.3997 73.3705 62.6715 73.3705 78.9843V94.0673C73.3705 94.5851 72.939 95.0167 72.4211 95.0167C71.9032 95.0167 71.4717 94.5851 71.4717 94.0673V78.9843C71.4717 61.6142 81.3544 53.5225 102.587 53.5225C121.166 53.5225 130.725 61.0747 130.962 75.9419C131.005 79.1138 131.07 82.1563 131.134 85.0909C131.695 113.444 132.019 130.577 121.942 136.403C118.511 138.388 113.678 139.64 107.571 140.158C107.528 140.114 107.507 140.114 107.485 140.114Z" fill="#000200"/>
<path d="M79.6938 93.1603C73.5009 92.8582 69.1422 93.8508 66.7471 96.138C65.064 97.7348 64.7188 99.6121 64.7188 100.885C64.7188 102.806 65.4956 104.618 66.9197 105.978C68.1928 107.207 70.5879 108.61 74.8603 108.61H74.9467C75.6372 111.091 77.4065 119.874 69.3796 123.499C70.1348 123.844 70.9116 124.125 71.71 124.405C80.4706 119.075 76.5866 107.466 76.5434 107.359C76.414 106.97 76.0687 106.69 75.6156 106.733C72.3573 106.862 69.8111 106.129 68.2359 104.64C66.8334 103.28 66.6176 101.727 66.6176 100.907C66.6176 99.5689 67.1139 98.4469 68.0633 97.519C70.0485 95.6202 74.0404 94.7786 79.6291 95.0591C80.1038 95.0807 80.6001 94.6923 80.6216 94.1745C80.6001 93.635 80.2117 93.1819 79.6938 93.1603Z" fill="#000200"/>
<path d="M81.6135 61.7434C70.803 61.1608 62.1502 68.4757 60.5966 78.9625C48.8798 75.4238 37.2062 80.7535 29.0282 89.3415C23.2669 95.4049 17.8724 105.935 25.2089 112.473C24.9068 113.077 25.4031 114.048 26.2878 113.876C39.7308 111.027 56.4968 108.481 65.1927 121.924C69.5946 128.743 75.658 122.291 76.4995 116.184C76.5643 115.688 76.5858 115.213 76.5858 114.739C76.7153 114.588 76.8232 114.415 76.8448 114.178C77.0174 112.257 77.0821 110.013 75.5501 108.589C74.7517 107.855 73.7591 107.51 72.7881 107.618C72.2271 107.251 71.6229 106.906 71.0403 106.582C70.7814 106.539 70.5224 106.474 70.2635 106.388C68.3215 105.762 66.7247 104.317 66.1206 102.331C64.7827 98.0374 68.451 94.6712 72.5292 94.7575C73.0686 94.3907 73.5649 94.0239 73.9533 93.6571C81.8508 85.8675 81.6566 73.9133 81.074 63.6207C81.2682 63.6207 81.4408 63.6207 81.6351 63.6207C82.8218 63.6854 82.8218 61.8081 81.6135 61.7434Z" fill="#000200"/>
<path d="M150.684 114.889C150.77 114.846 150.835 114.781 150.9 114.717C151.094 114.652 151.267 114.544 151.396 114.328C155.172 108.049 157.158 99.979 153.468 93.1819C150.619 87.9169 145.009 84.8529 139.162 85.5002C139.097 78.4658 137.802 69.6621 128.567 66.2096C128.545 66.1017 129.279 67.9574 128.567 68.3242C128.718 68.4321 128.891 68.54 129.063 68.6695C130.984 81.1199 131.286 93.6782 130.013 106.237C129.905 107.38 143.218 109.991 148.828 114.22C149.476 114.415 150.08 114.652 150.684 114.889Z" fill="#000200"/>
<path d="M76.003 135.453C76.7367 135.475 77.4488 135.475 78.1824 135.497C78.3335 135.065 78.1608 134.59 77.7509 134.375C73.4569 131.936 73.3705 123.564 73.3705 123.478C73.3705 122.96 72.939 122.528 72.4211 122.528C71.9032 122.528 71.4717 122.96 71.4717 123.478C71.4717 123.845 71.558 132.044 76.003 135.453Z" fill="#000200"/>
<path d="M86.1448 132.411L84.2676 135.691L93.8913 136.791C91.2804 135.367 88.691 133.922 86.1448 132.411Z" fill="#000200"/>
<path d="M93.8911 137.72C93.8479 137.72 93.8264 137.72 93.7832 137.72L84.1595 136.619C83.8358 136.576 83.5769 136.382 83.4258 136.102C83.2748 135.821 83.2964 135.476 83.4474 135.217L85.3247 131.937C85.4541 131.721 85.6699 131.549 85.9073 131.484C86.1446 131.419 86.4036 131.462 86.6194 131.592C89.1224 133.081 91.6902 134.505 94.3227 135.95C94.7111 136.166 94.9053 136.641 94.7758 137.073C94.6463 137.461 94.2795 137.72 93.8911 137.72ZM85.7778 134.915L89.2519 135.303C88.324 134.785 87.3962 134.246 86.4683 133.706L85.7778 134.915Z" fill="#000200"/>
<path d="M97.9915 100.475C96.6752 100.475 95.3374 100.173 94.0859 99.5473C90.8061 97.9074 88.9072 94.5844 88.9072 90.4199C88.9072 89.902 89.3172 89.4704 89.8351 89.4704C90.3098 89.492 90.7845 89.8804 90.7845 90.3983C90.8061 93.8292 92.3165 96.548 94.9274 97.8426C97.15 98.9431 99.7824 98.7705 101.595 97.4111C103.688 95.8575 104.465 93.0092 103.818 89.4057C103.731 88.8878 104.076 88.4131 104.573 88.3052C105.091 88.2189 105.565 88.5642 105.673 89.0605C106.731 94.9296 104.271 97.7563 102.717 98.9215C101.401 99.9573 99.7177 100.475 97.9915 100.475Z" fill="#000200"/>
<path d="M124.747 99.3972C123.582 99.3972 122.417 99.1167 121.338 98.5772C118.295 97.0236 116.526 93.6359 116.526 89.2556C116.526 88.7377 116.957 88.3062 117.475 88.3062C117.993 88.3062 118.425 88.7377 118.425 89.2556C118.425 92.9022 119.806 95.6858 122.201 96.8941C124.078 97.8436 126.279 97.6709 127.962 96.4626C130.034 94.9521 130.897 92.1254 130.357 88.7161C130.271 88.1983 130.616 87.7236 131.134 87.6372C131.652 87.5509 132.127 87.8962 132.213 88.414C132.882 92.557 131.738 96.0526 129.063 97.973C127.79 98.9225 126.279 99.3972 124.747 99.3972Z" fill="#000200"/>
<path d="M105.004 93.8939C104.68 93.8939 104.357 93.7212 104.184 93.3976C103.925 92.9444 104.098 92.3618 104.551 92.1245C104.831 91.9734 111.671 88.3052 117.886 91.2614C118.361 91.4772 118.555 92.0382 118.339 92.5129C118.123 92.9876 117.562 93.1818 117.088 92.966C111.736 90.4198 105.543 93.7644 105.479 93.786C105.328 93.8507 105.155 93.8939 105.004 93.8939Z" fill="#000200"/>
</g>
<path d="M99.9464 198.208C45.6393 198.208 1.61475 154.184 1.61475 99.8766H-0.385254C-0.385254 155.288 44.5348 200.208 99.9464 200.208V198.208ZM198.278 99.8766C198.278 154.184 154.254 198.208 99.9464 198.208V200.208C155.358 200.208 200.278 155.288 200.278 99.8766H198.278ZM99.9464 1.54492C154.254 1.54492 198.278 45.5695 198.278 99.8766H200.278C200.278 44.4649 155.358 -0.455078 99.9464 -0.455078V1.54492ZM99.9464 -0.455078C44.5348 -0.455078 -0.385254 44.4649 -0.385254 99.8766H1.61475C1.61475 45.5695 45.6393 1.54492 99.9464 1.54492V-0.455078Z" fill="black" fill-opacity="0.1"/>
<defs>
<clipPath id="clip0_3_14601">
<path d="M0.614746 99.8766C0.614746 45.0172 45.087 0.544922 99.9464 0.544922V0.544922C154.806 0.544922 199.278 45.0172 199.278 99.8766V99.8766C199.278 154.736 154.806 199.208 99.9464 199.208V199.208C45.087 199.208 0.614746 154.736 0.614746 99.8766V99.8766Z" fill="white"/>
</clipPath>
</defs>
</svg>
