<svg width="199" height="199" viewBox="0 0 199 199" fill="none" xmlns="http://www.w3.org/2000/svg">
<g clip-path="url(#clip0_3_14603)">
<path d="M0.192871 99.4801C0.192871 44.6207 44.6652 0.148438 99.5246 0.148438V0.148438C154.384 0.148438 198.856 44.6207 198.856 99.4801V99.4801C198.856 154.34 154.384 198.812 99.5246 198.812V198.812C44.6652 198.812 0.192871 154.34 0.192871 99.4801V99.4801Z" fill="#F8F8F8"/>
<path d="M107.074 82.349C106.765 82.349 106.49 82.143 106.405 81.834C106.302 81.4563 106.525 81.0786 106.885 80.9756C108.241 80.598 109.254 79.9284 109.615 79.1731C109.821 78.7439 109.804 78.2804 109.563 77.7825C109.048 76.6838 106.319 76.7182 105.083 76.9242C104.739 76.9757 104.396 76.7697 104.31 76.4263L102.508 69.8513C102.405 69.4736 102.628 69.096 102.988 68.993C103.349 68.89 103.744 69.1131 103.847 69.4736L105.495 75.465C106.868 75.3276 109.941 75.259 110.834 77.1989C111.229 78.0744 111.246 78.9499 110.868 79.7568C110.336 80.907 109.048 81.8168 107.246 82.3147C107.194 82.349 107.126 82.349 107.074 82.349Z" fill="#000200"/>
<path d="M107.504 67.1904L107.899 68.6325C108.397 70.4865 111.281 69.6968 110.766 67.8428L110.371 66.4007C109.873 64.5467 106.989 65.3364 107.504 67.1904Z" fill="#000200"/>
<path d="M90.1994 71.9124L90.5943 73.3545C91.0921 75.2085 93.9762 74.4188 93.4612 72.5648L93.0663 71.1228C92.5685 69.2859 89.7016 70.0756 90.1994 71.9124Z" fill="#000200"/>
<path d="M88.8429 64.8387C87.7614 65.4053 86.7313 66.0233 85.77 66.7786C85.0318 67.3795 86.0961 68.4095 86.8343 67.8258C87.6755 67.1563 88.6541 66.6241 89.5982 66.1091C90.4566 65.6628 89.7012 64.3924 88.8429 64.8387Z" fill="#000200"/>
<path d="M108.757 59.1047C107.899 58.8128 106.972 58.6755 106.13 58.315C105.255 57.9373 104.517 59.242 105.392 59.6025C106.354 60.0145 107.384 60.2034 108.379 60.5295C109.289 60.8557 109.667 59.4137 108.757 59.1047Z" fill="#000200"/>
<path d="M100.07 91.3274C98.9541 91.4476 97.3919 91.3617 96.9627 90.0914C96.6537 89.1815 95.2117 89.5763 95.5207 90.4862C96.173 92.4089 98.1987 93.0269 100.07 92.8038C101.014 92.7008 101.014 91.2072 100.07 91.3274Z" fill="#000200"/>
<path d="M114.834 62.5044C114.182 60.2898 113.495 57.9722 112.808 55.5688C112.362 54.0238 111.813 52.6333 111.177 51.3801C112.431 49.6805 112.431 47.2084 111.109 45.2514C108.104 40.8394 101.444 40.2558 96.654 40.9596C93.2721 41.4575 90.0447 42.642 86.9031 43.9467C85.8387 44.393 84.6198 44.805 83.504 45.3887C76.7401 47.6548 72.1908 50.7105 69.6329 54.6933C66.972 58.8306 66.5257 63.9292 68.2596 70.2811L71.4012 81.7659C71.5042 82.1435 71.8818 82.3496 72.2595 82.2465C72.5685 82.1607 72.7574 81.886 72.7745 81.5942C74.2681 81.0277 75.3496 80.8217 76.6715 80.5298C76.9805 80.959 78.1307 80.7187 78.268 80.2037C78.3023 79.7058 77.856 75.62 77.6672 73.1995C78.0792 70.9506 78.989 68.8047 80.3281 66.4185C81.6499 64.0666 82.9375 61.4228 82.4568 58.6246C82.4396 58.5559 82.4225 58.4872 82.4053 58.4186C90.9889 58.1096 106.559 54.556 110.216 52.5646C110.714 53.5946 111.143 54.7276 111.504 55.9637C112.207 58.3671 112.877 60.6846 113.546 62.8992C119.727 83.8774 123.469 96.5296 117.598 102.469C112.568 107.551 101.615 109.851 101.495 109.868C101.272 109.92 101.066 110.074 100.98 110.298C100.894 110.521 100.929 110.761 101.066 110.95C104.139 115.19 108.791 116.461 108.98 116.512C109.032 116.529 109.1 116.529 109.152 116.529C109.306 116.529 109.461 116.478 109.581 116.392C109.753 116.255 109.856 116.049 109.856 115.843V108.735C112.946 107.499 116.293 105.748 118.576 103.431C124.98 96.9244 121.169 83.9633 114.834 62.5044Z" fill="#000200"/>
<path d="M108.517 115.019L108.431 120.306C105.083 129.473 99.0232 130.538 94.5254 129.799C86.3367 128.46 78.9033 120.615 78.7831 115.362L78.0106 91.2592C78.0106 91.036 77.8904 90.8472 77.7188 90.7099C77.5471 90.5897 77.3068 90.5554 77.1008 90.6069C74.6287 91.3965 72.5343 91.3622 71.0064 90.5382C69.6331 89.7828 69.1352 88.6326 68.9635 87.9974C68.6889 86.9674 68.8262 85.9889 69.3584 85.079C70.4914 83.2078 73.3583 81.7314 77.6844 80.7701C78.0621 80.6843 78.3025 80.3237 78.2166 79.9461C78.1308 79.5684 77.7531 79.328 77.3926 79.4139C72.6373 80.4611 69.5301 82.1263 68.1739 84.358C67.2297 85.9202 67.3498 87.3966 67.6245 88.358C68.0193 89.8 68.9807 91.0189 70.3369 91.7399C71.5214 92.3922 73.5472 92.9416 76.6372 92.1519L77.3926 115.362C77.5471 121.834 86.0792 129.799 94.3022 131.138C98.4223 131.808 105.907 131.327 109.77 120.632C109.804 120.563 109.804 120.478 109.804 120.392V117.525C109.375 116.787 108.997 115.74 108.517 115.019Z" fill="#000200"/>
<path d="M33.3072 226.879C30.0283 226.879 26.3374 226.759 22.2001 226.501C1.34201 225.196 -14.9668 216.75 -22.5718 203.343C-29.1811 191.686 -28.5803 177.609 -20.8551 162.605C-1.30173 124.683 49.513 116.305 78.0619 114.674C78.4396 114.64 78.7658 114.949 78.8001 115.327C78.8173 115.705 78.5254 116.031 78.1477 116.065C49.8906 117.662 -0.391868 125.919 -19.6191 163.24C-27.1211 177.798 -27.7219 191.429 -21.3701 202.656C-14.0054 215.652 1.90853 223.823 22.2859 225.111C53.9078 227.102 57.7189 221.214 61.736 214.999C62.4398 213.901 63.178 212.767 64.0535 211.686C69.856 204.562 71.5041 203.154 75.607 204.63C76.9804 205.128 77.7014 205.025 77.8216 204.853C77.9761 204.63 77.8902 203.429 75.6413 200.819C74.6456 199.652 73.4954 199.085 72.1392 199.068C72.1221 199.068 72.1049 199.068 72.0877 199.068C69.444 199.068 66.0106 201.248 62.4226 205.231C62.1651 205.523 61.7188 205.54 61.4441 205.283C61.1523 205.025 61.1351 204.579 61.3926 204.304C64.1222 201.283 68.208 197.678 72.0877 197.678C72.1221 197.678 72.1392 197.678 72.1564 197.678C73.9075 197.695 75.4353 198.45 76.6885 199.909C78.9889 202.57 79.7443 204.493 78.9718 205.643C78.5598 206.261 77.5469 206.81 75.1435 205.952C71.9332 204.802 70.9032 205.489 65.1351 212.579C64.2939 213.609 63.59 214.707 62.9033 215.772C59.3497 221.231 55.6931 226.879 33.3072 226.879Z" fill="#000200"/>
<path d="M58.0105 202.107C57.8217 202.107 57.6329 202.038 57.4955 201.884C57.238 201.592 57.2552 201.163 57.547 200.905C68.0705 191.292 71.0576 189.884 75.2463 192.528C77.5811 194.004 78.8686 195.618 79.0746 197.352C79.2463 198.794 78.6454 200.236 77.3064 201.626C77.0317 201.901 76.6025 201.901 76.3279 201.643C76.0532 201.369 76.0532 200.939 76.3107 200.665C77.3579 199.6 77.8214 198.536 77.7012 197.523C77.5467 196.253 76.448 194.931 74.5082 193.712C71.4352 191.772 69.3923 191.995 58.474 201.935C58.3539 202.038 58.1822 202.107 58.0105 202.107Z" fill="#000200"/>
<path d="M54.2513 198.605C54.0624 198.605 53.8736 198.537 53.7362 198.382C53.4787 198.09 53.4959 197.661 53.7877 197.404C61.2554 190.588 66.3541 186.794 70.251 187.481C72.1566 187.824 73.7016 189.215 74.972 191.738C75.1436 192.082 75.0063 192.494 74.663 192.665C74.3196 192.837 73.9076 192.7 73.736 192.356C72.6716 190.245 71.4355 189.095 69.9935 188.837C66.6803 188.219 61.6846 192.047 54.7148 198.416C54.5774 198.537 54.4229 198.605 54.2513 198.605Z" fill="#000200"/>
<path d="M68.5685 186.879C63.5042 183.995 60.4484 182.948 51.882 192.527C50.1825 194.433 48.895 195.686 48.071 196.441L47.6761 188.853C47.2126 189.008 46.7662 189.162 46.3027 189.334L46.7491 197.935C46.7663 198.192 46.9208 198.415 47.1439 198.535C47.2298 198.587 47.3328 198.604 47.4358 198.604C47.5903 198.604 47.7276 198.553 47.8478 198.467C47.9164 198.415 49.6847 197.059 52.8949 193.471C61.118 184.27 63.5042 185.626 67.8646 188.098C68.1908 188.287 68.62 188.167 68.8088 187.84C69.0148 187.497 68.8947 187.068 68.5685 186.879Z" fill="#000200"/>
<path d="M45.7538 176.15C45.9769 176.459 46.4061 176.545 46.7151 176.322C56.0025 169.747 53.8223 162.314 53.7365 161.987C53.6506 161.713 53.3931 161.507 53.1013 161.507C29.136 160.7 14.7499 168.253 11.574 183.481C10.8702 186.88 11.574 189.833 13.6856 192.27C19.3164 198.794 33.9428 199.858 38.8526 199.858C39.3333 199.858 39.7281 199.841 40.0028 199.824C41.7882 199.721 42.4405 198.33 43.7452 195.583C44.5521 193.867 45.6679 191.532 47.522 188.442C47.7108 188.116 47.6078 187.687 47.2816 187.498C46.9555 187.292 46.5263 187.412 46.3374 187.738C44.4491 190.88 43.3332 193.266 42.5092 195C41.2903 197.575 40.8611 198.399 39.9341 198.45C39.7453 198.468 21.1533 198.777 14.7499 191.36C12.9474 189.266 12.3294 186.708 12.9474 183.755C16.2091 168.168 31.299 163.567 45.7194 162.914C45.7194 162.914 46.3031 174.931 45.9426 175.189C45.5993 175.395 45.5306 175.841 45.7538 176.15Z" fill="#000200"/>
<path d="M30.1999 165.524C30.1655 165.524 30.114 165.524 30.0797 165.507C29.702 165.438 29.4445 165.078 29.5132 164.7C30.1999 160.648 32.7921 139.928 16.3803 129.936C16.0542 129.73 15.9512 129.318 16.14 128.975C16.346 128.649 16.758 128.546 17.1014 128.735C30.4231 136.838 32.9466 152.734 30.8866 164.923C30.8179 165.284 30.5261 165.524 30.1999 165.524Z" fill="#000200"/>
<path d="M195.932 94.9848C198.112 93.2852 200.807 91.1565 200.309 88.0664C200.258 87.7403 200.086 86.7274 199.193 86.384C197.683 85.8175 195.142 87.4484 186.833 94.3153C175.64 103.586 169.323 125.628 168.207 142.16C168.018 145.044 167.863 147.705 167.709 150.126C166.936 163.19 166.541 169.73 162.799 170.074C159.194 170.434 154.645 160.563 150.267 151.053C149.134 148.563 147.967 146.023 146.765 143.533C140.018 129.542 130.8 116.409 109.169 115.122C108.98 115.105 108.791 115.173 108.654 115.311C108.602 115.362 108.551 115.431 108.517 115.482C108.963 116.152 109.392 116.821 109.821 117.508V116.564C130.216 118.057 139.04 130.692 145.512 144.134C146.713 146.623 147.881 149.164 149.014 151.636C154.095 162.692 158.13 171.464 162.61 171.464C162.713 171.464 162.816 171.464 162.919 171.447C167.863 171.018 168.241 164.494 169.099 150.211C169.237 147.791 169.408 145.147 169.597 142.263C170.696 126.006 176.825 104.41 187.709 95.3968C191.142 92.547 197.528 87.2424 198.696 87.6888C198.764 87.7059 198.867 87.8776 198.936 88.2896C199.296 90.5728 197.15 92.2552 195.073 93.8861C193.391 95.208 191.794 96.4612 191.674 98.0405C191.588 99.1736 192.258 100.118 192.979 101.113C194.558 103.311 196.515 106.023 192.018 112.736C191.812 113.062 191.897 113.491 192.206 113.697C192.533 113.92 192.962 113.817 193.168 113.508C198.198 106.006 195.726 102.573 194.095 100.307C193.477 99.4654 192.996 98.7787 193.048 98.1607C193.133 97.1822 194.49 96.1178 195.932 94.9848Z" fill="#000200"/>
<path d="M192.979 100.615C192.653 100.615 192.361 100.391 192.292 100.048C192.224 99.6704 192.464 99.3099 192.842 99.2412C197.082 98.4 200.962 97.3185 204.378 96.34C210.816 94.5203 215.485 93.2156 217.768 95.0353C218.798 95.8593 219.262 97.2327 219.159 99.2241C219.142 99.6017 218.781 99.9107 218.421 99.8764C218.043 99.8592 217.751 99.5331 217.768 99.1382C217.854 97.6275 217.562 96.6318 216.91 96.0996C215.176 94.7091 210.575 96.0138 204.773 97.6618C201.322 98.6404 197.408 99.7391 193.116 100.58C193.082 100.615 193.031 100.615 192.979 100.615Z" fill="#000200"/>
<path d="M165.769 212.408C163.881 212.408 161.941 212.254 160.001 211.945C147.503 209.97 136.568 201.953 130.748 190.52C130.577 190.177 130.714 189.765 131.057 189.593C131.401 189.421 131.813 189.559 131.984 189.902C137.615 200.94 148.173 208.683 160.224 210.588C170.25 212.168 179.949 209.421 186.164 203.207C199.983 189.387 198.335 151.053 197.717 136.615C197.271 126.006 201.906 123.191 206.833 120.186C207.468 119.809 208.103 119.414 208.756 119.002C210.781 117.697 213.614 116.478 216.343 115.276C220.069 113.663 224.292 111.826 224.79 110.332C224.858 110.126 224.841 109.955 224.721 109.731C223.76 108.066 223.468 108.101 218.318 110.195C215.914 111.174 212.618 112.513 207.914 114.109C207.554 114.229 207.159 114.04 207.039 113.68C206.919 113.319 207.108 112.925 207.468 112.804C212.138 111.225 215.399 109.886 217.786 108.907C222.798 106.865 224.309 106.247 225.906 109.045C226.215 109.594 226.283 110.178 226.094 110.761C225.408 112.839 221.459 114.555 216.893 116.53C214.215 117.697 211.434 118.899 209.494 120.135C208.841 120.547 208.189 120.959 207.537 121.336C202.575 124.358 198.679 126.727 199.091 136.512C199.709 151.104 201.374 189.885 187.125 204.134C181.838 209.507 174.112 212.408 165.769 212.408Z" fill="#000200"/>
<path d="M135.864 195.687C135.538 195.687 135.264 195.464 135.195 195.138C133.324 186.469 137.993 179.31 140.946 175.808C145.821 170.04 152.757 166.211 157.838 166.4C158.216 166.417 158.525 166.744 158.508 167.121C158.491 167.499 158.164 167.808 157.787 167.791C153.1 167.533 146.628 171.259 142.01 176.718C139.229 180.014 134.8 186.76 136.551 194.863C136.637 195.241 136.397 195.602 136.019 195.687C135.95 195.687 135.899 195.687 135.864 195.687Z" fill="#000200"/>
<path d="M143.692 203.704C139.04 198.88 137.358 191.79 135.229 182.794C133.752 176.58 132.087 169.541 129.083 161.97C128.963 161.661 128.654 161.49 128.328 161.541C128.002 161.593 127.761 161.867 127.744 162.194L127.126 176.271C127.126 176.357 127.126 176.425 127.16 176.494C127.16 176.494 127.366 177.163 127.727 178.245C127.795 178.468 128.019 178.657 128.259 178.708C128.482 178.76 128.705 178.811 128.929 178.846L129.22 178.88C129.564 178.88 129.941 178.777 130.302 178.674C130.405 178.64 130.542 178.605 130.68 178.571C130.92 181.73 131.126 187.395 130.971 190.21C130.971 190.331 130.989 190.451 131.04 190.554C133.546 195.549 138.319 202.142 142.851 204.751C142.954 204.82 143.074 204.837 143.194 204.837C143.4 204.837 143.606 204.751 143.744 204.562C143.95 204.339 143.933 203.944 143.692 203.704Z" fill="#000200"/>
<path d="M47.1426 192.752C46.8679 192.752 46.5932 192.581 46.4902 192.306C46.3529 191.946 46.5417 191.551 46.9022 191.413C54.3356 188.667 59.8806 179.345 60.6188 178.04C60.6188 174.624 60.4471 125.337 56.3098 117.972C56.121 117.629 56.2412 117.217 56.5674 117.028C56.8935 116.839 57.3227 116.96 57.5115 117.286C61.9578 125.2 61.9922 176.049 61.9922 178.212C61.9922 178.332 61.9578 178.435 61.9063 178.538C61.666 178.984 55.7948 189.594 47.3658 192.701C47.2971 192.735 47.2284 192.752 47.1426 192.752Z" fill="#000200"/>
<path d="M121.167 178.898H68.224C68.0352 178.898 67.8635 178.829 67.7262 178.692C67.5889 178.555 67.5202 178.383 67.5202 178.194C67.7605 159.328 67.2627 122.247 63.7091 116.976C63.5031 116.65 63.5717 116.221 63.8979 116.015C64.2069 115.792 64.6533 115.878 64.8593 116.204C69.2884 122.796 68.9794 170.812 68.9107 177.508H120.498C120.704 171.499 122.112 127.071 118.867 117.835C118.747 117.474 118.936 117.079 119.296 116.959C119.657 116.839 120.052 117.028 120.189 117.388C123.725 127.5 121.94 176.169 121.871 178.229C121.854 178.606 121.545 178.898 121.167 178.898Z" fill="#000200"/>
<path d="M131.348 206.555C130.97 206.555 130.661 206.263 130.661 205.885L129.837 178.899H127.708C127.519 178.899 127.331 178.813 127.21 178.676C127.09 178.538 127.004 178.349 127.022 178.161C127.056 177.68 129.528 129.56 124.859 120.256C124.687 119.912 124.824 119.5 125.168 119.329C125.511 119.157 125.923 119.294 126.095 119.638C130.644 128.754 128.738 171.156 128.429 177.508H130.507C130.884 177.508 131.193 177.8 131.193 178.178L132.034 205.834C132.052 206.212 131.743 206.538 131.365 206.555H131.348Z" fill="#000200"/>
<path d="M68.1045 178.898H61.2033C60.8256 178.898 60.5166 178.589 60.5166 178.211C60.5166 177.833 60.8256 177.524 61.2033 177.524H68.1045C68.4821 177.524 68.7912 177.833 68.7912 178.211C68.8083 178.589 68.4993 178.898 68.1045 178.898Z" fill="#000200"/>
<path d="M127.983 178.898H121.082C120.705 178.898 120.396 178.589 120.396 178.211C120.396 177.833 120.705 177.524 121.082 177.524H127.983C128.361 177.524 128.67 177.833 128.67 178.211C128.67 178.589 128.361 178.898 127.983 178.898Z" fill="#000200"/>
<path d="M82.1129 209.764C81.9927 209.764 81.8897 209.73 81.7867 209.679C81.4434 209.49 81.3232 209.078 81.512 208.734L88.3102 196.391C88.499 196.048 88.9111 195.928 89.2544 196.117C89.5977 196.305 89.7179 196.717 89.5291 197.061L82.7309 209.404C82.5935 209.644 82.3532 209.764 82.1129 209.764Z" fill="#000200"/>
<path d="M47.6751 188.872L46.3189 162.194C46.3017 161.817 45.9584 161.473 45.5979 161.542C45.2202 161.559 44.9284 161.885 44.9455 162.263L46.3361 189.353C46.7653 189.181 47.2116 189.009 47.6751 188.872Z" fill="#000200"/>
</g>
<path d="M99.5246 197.812C45.2175 197.812 1.19287 153.787 1.19287 99.4801H-0.807129C-0.807129 154.892 44.1129 199.812 99.5246 199.812V197.812ZM197.856 99.4801C197.856 153.787 153.832 197.812 99.5246 197.812V199.812C154.936 199.812 199.856 154.892 199.856 99.4801H197.856ZM99.5246 1.14844C153.832 1.14844 197.856 45.173 197.856 99.4801H199.856C199.856 44.0685 154.936 -0.851562 99.5246 -0.851562V1.14844ZM99.5246 -0.851562C44.1129 -0.851562 -0.807129 44.0685 -0.807129 99.4801H1.19287C1.19287 45.173 45.2175 1.14844 99.5246 1.14844V-0.851562Z" fill="black" fill-opacity="0.1"/>
<defs>
<clipPath id="clip0_3_14603">
<path d="M0.192871 99.4801C0.192871 44.6207 44.6652 0.148438 99.5246 0.148438V0.148438C154.384 0.148438 198.856 44.6207 198.856 99.4801V99.4801C198.856 154.34 154.384 198.812 99.5246 198.812V198.812C44.6652 198.812 0.192871 154.34 0.192871 99.4801V99.4801Z" fill="white"/>
</clipPath>
</defs>
</svg>
