<svg width="200" height="200" viewBox="0 0 200 200" fill="none" xmlns="http://www.w3.org/2000/svg">
<g clip-path="url(#clip0_3_14594)">
<path d="M0.770996 99.8766C0.770996 45.0172 45.2433 0.544922 100.103 0.544922V0.544922C154.962 0.544922 199.434 45.0172 199.434 99.8766V99.8766C199.434 154.736 154.962 199.208 100.103 199.208V199.208C45.2433 199.208 0.770996 154.736 0.770996 99.8766V99.8766Z" fill="#F8F8F8"/>
<path d="M53.9279 153.133C55.3278 153.382 56.663 152.45 56.9102 151.052C57.1573 149.653 56.2228 148.318 54.8229 148.069C53.4229 147.821 52.0877 148.753 51.8406 150.151C51.5935 151.55 52.528 152.885 53.9279 153.133Z" fill="black"/>
<path d="M114.172 182.479C115.571 182.728 116.907 181.796 117.154 180.397C117.401 178.999 116.466 177.664 115.066 177.415C113.667 177.166 112.331 178.098 112.084 179.497C111.837 180.895 112.772 182.231 114.172 182.479Z" fill="black"/>
<path d="M94.6437 131.447C96.0436 131.696 97.3788 130.763 97.626 129.365C97.8731 127.967 96.9386 126.631 95.5387 126.383C94.1388 126.134 92.8036 127.066 92.5564 128.465C92.3093 129.863 93.2438 131.198 94.6437 131.447Z" fill="black"/>
<path d="M168.439 192.548C169.839 192.796 171.174 191.864 171.421 190.466C171.668 189.067 170.734 187.732 169.334 187.483C167.934 187.235 166.598 188.167 166.351 189.565C166.104 190.964 167.039 192.299 168.439 192.548Z" fill="black"/>
<path d="M22.6521 361.394C22.5711 361.382 22.5711 361.382 22.6521 361.394C6.08911 356.953 -10.3249 351.546 -26.2784 345.304C-27.6058 344.77 -28.9332 344.237 -30.3416 343.691C-36.1247 341.401 -41.8831 338.951 -47.467 336.445C-90.306 317.419 -111.719 307.866 -118.017 290.094C-129.438 257.694 -91.7126 219.011 -61.3653 187.844L-58.9058 185.339C-44.4295 170.513 -17.6064 142.84 26.697 131.941C37.0377 129.412 47.7156 127.923 58.5561 127.531C57.4084 125.295 57.2078 123.369 57.861 121.822C58.2654 120.814 59.0003 120.35 59.6541 119.874C60.2022 119.546 60.6817 119.126 61.105 118.532C61.9764 117.183 61.608 115.808 61.2271 114.514C60.9025 113.393 60.6464 112.366 61.1879 111.543C62.5447 109.198 67.0566 111.127 74.6159 114.266C84.0448 118.187 96.8889 123.622 109.343 122.983L109.679 122.952C112.358 122.788 119.548 122.41 123.525 126.729C124.947 128.265 126.643 131.245 125.536 133.051C125.087 133.806 124.296 134.096 123.505 134.387C122.808 134.609 122.017 134.899 121.406 135.629C120.809 136.279 120.442 137.046 120.293 138.011C120.498 138.29 120.636 138.476 120.717 138.489C136.669 142.589 149.981 149.825 160.205 159.882C176.052 175.416 181.983 195.027 190.93 224.658C193.564 233.383 195.919 242.312 197.774 251.247C197.887 251.593 197.582 251.958 197.233 252.069C196.884 252.181 196.516 251.877 196.404 251.53C194.536 242.676 192.169 233.827 189.534 225.102C180.644 195.645 174.688 176.195 159.14 160.871C149.066 150.92 135.891 143.869 120.182 139.807L120.101 139.794C120.02 139.782 119.247 139.416 118.829 138.363C118.76 138.27 118.785 138.109 118.797 138.029C119.008 136.661 119.425 135.572 120.235 134.625C121.137 133.611 122.103 133.265 122.881 133.055C123.579 132.833 123.94 132.641 124.152 132.344C124.718 131.361 123.652 129.137 122.311 127.613C118.838 123.784 112.147 124.156 109.63 124.345L109.294 124.376C96.5035 125.045 83.4974 119.586 73.9999 115.572C68.3912 113.227 63.0941 111.012 62.3161 112.293C62.092 112.67 62.3043 113.444 62.5166 114.218C62.8851 115.593 63.4344 117.407 62.2331 119.282C61.6792 120.185 61.0253 120.661 60.3838 121.057C59.8234 121.465 59.3563 121.805 59.095 122.424C58.479 123.73 58.935 125.612 60.2448 127.873C60.3819 128.059 60.4257 128.313 60.2265 128.529C60.1082 128.758 59.9214 128.894 59.6784 128.857C48.6073 129.131 37.593 130.651 26.9844 133.303C-16.9015 144.184 -43.6064 171.628 -57.9893 186.386L-60.4488 188.891C-90.5035 219.774 -127.936 258.172 -116.796 289.705C-110.736 306.864 -89.4032 316.405 -47.0378 335.275C-41.4539 337.781 -35.6831 340.151 -29.9934 342.509C-28.666 343.042 -27.2576 343.588 -25.9302 344.122C-10.2073 350.246 5.97608 355.535 22.2026 360.007L26.4584 350.694L26.4708 350.614C28.4867 346.146 30.5836 341.69 32.668 337.315L34.1489 334.166C37.1478 327.625 40.2278 321.096 43.2268 314.556L43.2392 314.475C43.3823 314.085 43.8121 313.987 44.2047 314.129C44.5973 314.272 44.6972 314.699 44.5542 315.089L43.931 314.829L44.5418 315.17C41.5428 321.71 38.4628 328.239 35.4639 334.78L33.983 337.929C31.8861 342.385 29.8702 346.853 27.7734 351.308L27.761 351.389L23.2687 361.16C23.2563 361.24 22.9761 361.444 22.6521 361.394Z" fill="black"/>
<path d="M194.493 325.79C193.209 325.589 191.857 325.294 190.598 324.931C184.223 323.101 177.743 319.261 171.317 313.436C171.033 313.143 171.014 312.724 171.224 312.425C171.514 312.138 171.927 312.12 172.223 312.332C178.513 317.97 184.834 321.785 190.98 323.495C194.369 324.442 197.843 324.82 201.162 324.592C209.628 324.009 219.796 319.787 251.118 275.187C258.025 265.387 264.728 255.306 271.006 245.325C271.869 243.965 272.733 242.605 273.596 241.245C282.291 227.24 290.634 212.848 298.23 198.504C297.471 197.555 296.792 196.617 296.032 195.668C294.174 193.3 292.316 190.932 290.513 188.739C286.5 183.79 282.314 178.898 278.024 174.155C273.678 169.238 269.146 164.457 264.603 159.758L192.546 259.03C192.336 259.33 191.911 259.429 191.614 259.217C191.318 259.004 191.219 258.573 191.429 258.274L263.893 158.484C263.997 158.334 264.183 158.197 264.423 158.235C264.596 158.179 264.824 158.298 264.972 158.404C269.744 163.222 274.479 168.284 279.042 173.401C283.252 178.131 287.518 183.036 291.531 187.985C293.333 190.178 295.192 192.546 297.05 194.914C297.877 195.957 298.692 197.081 299.52 198.125C299.656 198.312 299.687 198.649 299.569 198.88C291.856 213.454 283.488 228.009 274.608 242.152C273.745 243.512 272.882 244.871 272.018 246.231C265.648 256.281 258.945 266.362 252.038 276.162C220.401 321.211 209.888 325.545 201.089 326.159C199.022 326.251 196.739 326.142 194.493 325.79Z" fill="black"/>
<path d="M68.0973 103.028C65.2826 102.589 62.6036 101.258 60.5431 99.1119C57.969 96.5537 56.6008 93.1056 56.5812 89.4534C56.5605 82.5666 61.7302 76.7392 68.516 75.9742C69.1036 75.9001 69.5985 75.8945 70.1738 75.9014C71.8192 75.9095 73.4834 76.3353 73.5638 76.3478C74.8382 76.6297 76.0755 77.1547 77.2078 77.8291C77.5047 78.0414 77.6843 78.4841 77.474 78.783C77.2638 79.0819 76.8247 79.2621 76.5277 79.0499C75.4635 78.469 74.3747 78.0502 73.2735 77.7124C73.2735 77.7124 71.6897 77.2992 70.2051 77.3162C69.7102 77.3218 69.2154 77.3275 68.7082 77.4141C62.5905 78.1175 58.0021 83.3723 57.973 89.5049C57.9256 96.2981 63.4265 101.801 70.0888 101.847C71.8147 101.867 73.7074 101.333 73.7074 101.333C74.0538 101.222 74.4312 101.446 74.5427 101.796C74.6541 102.145 74.4315 102.525 74.0852 102.636C74.0047 102.624 72.0192 103.226 70.0397 103.249C69.4768 103.161 68.7407 103.129 68.0973 103.028Z" fill="black"/>
<path d="M124.856 46.6733C112.986 52.9356 101.024 59.2662 89.155 65.5285C88.6608 73.059 88.0858 80.5769 87.5915 88.1074C85.8592 88.0868 84.1953 88.1595 82.4631 88.1389C82.4815 87.4802 82.1381 81.6389 76.9899 78.0291C71.6802 74.3942 66.0247 76.2457 65.4101 76.4811C65.2416 73.809 65.2589 69.9255 66.1143 65.4277C66.8458 61.7376 69.4936 51.4817 78.0901 43.3888C91.7018 30.6165 112.042 30.5465 117.861 35.1699C120.587 37.3292 122.302 40.1584 122.302 40.1584C123.973 42.7328 124.594 45.1444 124.856 46.6733Z" fill="black"/>
<path d="M128.719 74.0177C124.524 73.2768 121.524 69.4789 121.886 65.131C122.211 60.5314 126.252 57.0782 130.833 57.4789C133.092 57.6326 135.117 58.6438 136.526 60.3634C137.935 62.083 138.707 64.18 138.472 66.4262C138.316 68.6863 137.304 70.7135 135.584 72.1255C133.865 73.5376 131.769 74.3112 129.524 74.0782C129.194 74.1015 128.956 74.0596 128.719 74.0177ZM131.4 58.8862C131.163 58.8443 130.925 58.8024 130.688 58.7604C126.819 58.4856 123.459 61.3236 123.181 65.1962C122.902 69.0687 125.735 72.4286 129.605 72.7035C131.453 72.8666 133.27 72.2887 134.71 71.0724C136.15 69.8561 137.013 68.211 137.112 66.2678C137.277 64.4177 136.701 62.6003 135.487 61.1603C134.389 59.986 132.983 59.1658 131.4 58.8862Z" fill="black"/>
<path d="M107.198 84.693C105.22 84.3435 103.446 83.295 102.088 81.7479C100.6 80.0143 99.8565 77.7588 100.026 75.4195C100.38 70.6615 104.606 67.0778 109.36 67.4272C111.698 67.5949 113.788 68.6993 115.276 70.4329C116.765 72.1664 117.508 74.4219 117.338 76.7613C117.169 79.1006 116.063 81.1931 114.329 82.6843C112.596 84.1756 110.341 84.9212 108.004 84.7535C107.753 84.7908 107.515 84.7489 107.198 84.693ZM109.992 68.9278C109.755 68.8858 109.517 68.8439 109.28 68.8019C105.252 68.4991 101.692 71.5469 101.386 75.5779C101.207 77.5072 101.848 79.4178 103.127 80.951C104.421 82.4049 106.208 83.3742 108.149 83.472C110.077 83.649 111.987 83.0059 113.52 81.7244C114.974 80.4288 115.944 78.6393 116.044 76.6961C116.143 74.7528 115.581 72.8561 114.302 71.323C113.218 70.0694 111.654 69.2213 109.992 68.9278Z" fill="black"/>
<path d="M114.412 70.732L114.332 70.7181C113.949 70.5699 113.766 70.2128 113.916 69.8323C114.094 69.294 115.184 66.3934 118.184 65.2082C119.504 64.7062 121.072 64.654 122.476 65.0613C122.874 65.1306 123.042 65.5666 122.986 65.8821C122.916 66.2766 122.556 66.4578 122.158 66.3884C121.456 66.1848 120.183 65.963 118.69 66.5162C116.237 67.3902 115.404 69.7663 115.24 70.2257C115.105 70.5274 114.73 70.7874 114.412 70.732Z" fill="black"/>
<path d="M88.3093 80.8127C88.0674 80.7727 87.8532 80.5771 87.7335 80.3171C87.6276 79.9793 87.8582 79.617 88.2085 79.5148C91.4144 78.7637 94.5534 77.9214 97.7592 77.1703L100.198 76.5325C100.548 76.4303 100.923 76.6525 101.029 76.9903C101.135 77.3281 100.905 77.6904 100.554 77.7926L98.1159 78.4304C94.9101 79.1815 91.771 80.0238 88.5652 80.7749C88.5652 80.7749 88.4706 80.8393 88.3093 80.8127Z" fill="black"/>
<path d="M115.771 80.4606C115.69 80.4471 115.61 80.4337 115.61 80.4337C114.379 79.9058 113.917 78.7835 113.521 77.7526C113.178 76.8914 112.901 76.1216 112.125 75.8307C111.201 75.4348 110.125 75.8974 108.954 76.4244C107.689 77.0161 106.168 77.6453 104.804 76.9344C103.667 76.342 103.314 75.0771 102.946 73.8902C102.658 72.7167 102.465 71.4788 102.527 70.2032L102.541 70.1252C102.611 69.735 102.988 69.4768 103.31 69.5307C103.632 69.5846 103.911 69.8727 103.842 70.2629C103.808 71.3823 103.948 72.4507 104.183 73.4546C104.551 74.6415 104.747 75.3978 105.349 75.7397C106.097 76.1867 107.093 75.7107 108.264 75.1836C109.61 74.6055 111.05 73.9628 112.603 74.5446C113.914 75.0859 114.376 76.2082 114.786 77.161C115.129 78.0223 115.42 78.714 116.182 79.0829C116.49 79.2149 116.609 79.4759 116.553 79.7881C116.47 80.2563 116.173 80.528 115.771 80.4606Z" fill="black"/>
<path d="M137.49 68.3669C137.409 68.3539 137.328 68.3408 137.328 68.3408C136.249 67.8485 135.657 66.957 135.119 66.2334C134.58 65.5098 134.109 64.8766 133.327 64.5913C132.139 64.2406 130.963 64.7675 129.8 65.2169C128.529 65.8081 127.191 66.3088 125.964 65.7129C124.817 65.1301 124.456 63.8778 124.094 62.6254C123.961 61.9671 123.814 61.3862 123.761 60.7409C123.749 60.3409 123.965 60.0574 124.384 60.0453C124.803 60.0332 125.099 60.2402 125.112 60.6402C125.178 61.2081 125.244 61.776 125.472 62.37C125.848 63.5449 126.048 64.2937 126.655 64.6303C127.262 64.9669 128.06 64.6975 129.249 64.0933C130.52 63.5021 132.143 62.8083 133.87 63.4052C135.124 63.8462 135.798 64.7508 136.403 65.5648C136.874 66.198 137.345 66.8311 138.114 67.1939C138.506 67.3366 138.599 67.7497 138.45 68.1236C138.098 68.2261 137.814 68.4192 137.49 68.3669Z" fill="black"/>
<path d="M115.061 114.265C114.833 114.222 114.632 114.017 114.519 113.745C114.419 113.392 114.636 113.015 115.041 112.924C115.523 112.848 115.941 112.676 116.436 112.519C121.76 111.015 126.19 108.256 129.713 104.325C141.822 90.7313 136.858 68.4944 131.963 57.5483C130.759 54.8154 128.851 50.6134 125.637 46.7505C125.372 46.45 125.437 46.0446 125.717 45.7631C125.997 45.4815 126.376 45.553 126.641 45.8534C129.981 49.9071 131.951 54.2045 133.143 57.0185C138.138 68.3176 143.314 91.1793 130.722 105.35C127.097 109.429 122.413 112.307 116.911 113.945C116.417 114.102 115.922 114.26 115.441 114.336C115.213 114.293 115.137 114.279 115.061 114.265Z" fill="black"/>
<path d="M114.211 121.232C113.835 121.163 113.659 120.795 113.72 120.388L114.658 114.188C114.72 113.78 115.07 113.509 115.371 113.565C115.672 113.62 115.923 114.001 115.861 114.409L114.923 120.609C114.849 121.098 114.586 121.301 114.211 121.232Z" fill="black"/>
<path d="M70.568 112.251C70.1919 112.182 69.9408 111.8 70.0785 111.407C70.7909 108.27 71.428 105.12 72.103 102.228C72.1654 101.821 72.5038 101.632 72.88 101.702C73.2561 101.772 73.4319 102.14 73.3695 102.547C72.7698 105.453 72.0574 108.589 71.345 111.725C71.2198 112.037 70.9442 112.321 70.568 112.251Z" fill="black"/>
<path d="M115.314 114.122C114.948 115.731 114.568 117.416 114.283 119.038C111.747 118.778 105.597 117.762 100.18 113.053C97.5121 110.705 95.8694 108.209 94.8599 106.373C97.7164 109.07 104.171 114.507 112.616 114.312C113.52 114.382 114.45 114.298 115.314 114.122Z" fill="black"/>
</g>
<path d="M100.103 198.208C45.7956 198.208 1.771 154.184 1.771 99.8766H-0.229004C-0.229004 155.288 44.691 200.208 100.103 200.208V198.208ZM198.434 99.8766C198.434 154.184 154.41 198.208 100.103 198.208V200.208C155.514 200.208 200.434 155.288 200.434 99.8766H198.434ZM100.103 1.54492C154.41 1.54492 198.434 45.5695 198.434 99.8766H200.434C200.434 44.4649 155.514 -0.455078 100.103 -0.455078V1.54492ZM100.103 -0.455078C44.691 -0.455078 -0.229004 44.4649 -0.229004 99.8766H1.771C1.771 45.5695 45.7956 1.54492 100.103 1.54492V-0.455078Z" fill="black" fill-opacity="0.1"/>
<defs>
<clipPath id="clip0_3_14594">
<path d="M0.770996 99.8766C0.770996 45.0172 45.2433 0.544922 100.103 0.544922V0.544922C154.962 0.544922 199.434 45.0172 199.434 99.8766V99.8766C199.434 154.736 154.962 199.208 100.103 199.208V199.208C45.2433 199.208 0.770996 154.736 0.770996 99.8766V99.8766Z" fill="white"/>
</clipPath>
</defs>
</svg>
