<svg width="199" height="200" viewBox="0 0 199 200" fill="none" xmlns="http://www.w3.org/2000/svg">
<g clip-path="url(#clip0_3_14597)">
<path d="M0.192871 100.084C0.192871 45.2243 44.6652 0.751953 99.5246 0.751953V0.751953C154.384 0.751953 198.856 45.2243 198.856 100.084V100.084C198.856 154.943 154.384 199.415 99.5246 199.415V199.415C44.6652 199.415 0.192871 154.943 0.192871 100.084V100.084Z" fill="#F8F8F8"/>
<path d="M86.7217 106.735C86.4127 106.735 86.138 106.546 86.035 106.237C83.6488 98.7005 83.3569 87.4904 84.8676 84.3145C85.9663 81.9797 87.3053 81.9282 87.992 82.1171C90.0693 82.6493 91.4255 86.3059 91.2538 89.2414C91.2366 89.6363 90.8761 89.9453 90.4813 89.9281C90.0864 89.911 89.7774 89.5676 89.7946 89.1556C89.9491 86.5805 88.6959 83.7995 87.6144 83.5248C86.9792 83.3703 86.3783 84.469 86.1551 84.9497C84.9191 87.5591 84.9706 98.1855 87.3912 105.808C87.5114 106.185 87.3053 106.597 86.9277 106.718C86.8762 106.718 86.7903 106.735 86.7217 106.735Z" fill="#000200"/>
<path d="M81.3834 104.606C81.0744 104.606 80.7997 104.417 80.6967 104.108C78.3448 97.0867 78.877 87.0439 79.6152 84.486C80.1989 82.4259 81.3148 79.8852 83.2375 79.4732C84.422 79.2157 85.6237 79.7994 86.8254 81.2242C87.0829 81.5332 88.0443 82.7006 87.3061 82.9924C86.3447 83.353 85.9842 82.4774 85.7267 82.1684C85.1602 81.4989 84.319 80.7264 83.5293 80.8981C82.6023 81.1041 81.6581 82.5976 81.0057 84.898C80.3877 87.0439 79.7869 96.8463 82.0701 103.662C82.1903 104.039 82.0014 104.451 81.6066 104.572C81.5379 104.589 81.4521 104.606 81.3834 104.606Z" fill="#000200"/>
<path d="M64.8164 165.652C64.7993 165.652 64.7993 165.652 64.7821 165.652C64.3872 165.635 64.0782 165.292 64.0954 164.897C64.2842 161.052 65.6233 158.168 68.0782 156.313C72.1125 153.275 77.8291 154.047 79.4428 154.356C84.6788 147.816 79.4772 125.447 77.4858 116.932C77.1081 115.284 76.7991 114.014 76.6789 113.275C75.9236 109.121 74.1725 105.413 72.6447 102.151C70.8078 98.2714 69.2284 94.9238 69.7091 91.7822C70.4473 86.9754 74.224 81.9798 77.7948 81.1043C79.3227 80.7266 80.6617 81.173 81.5544 82.3747C81.7947 82.7008 81.7261 83.1472 81.3999 83.3875C81.0737 83.6279 80.6274 83.5592 80.387 83.233C79.8377 82.4948 79.0995 82.2545 78.1381 82.4948C75.4772 83.1643 71.8206 87.4561 71.1339 92.0054C70.7219 94.7007 72.2155 97.8594 73.9493 101.533C75.5287 104.881 77.3141 108.658 78.1038 113.018C78.2411 113.739 78.5158 114.975 78.9107 116.606C81.1595 126.288 86.447 148.966 80.2497 155.644C80.078 155.833 79.8033 155.919 79.563 155.85C79.4943 155.833 73.0395 154.391 68.9537 157.481C66.8765 159.06 65.7263 161.584 65.5546 164.966C65.5203 165.343 65.1941 165.652 64.8164 165.652Z" fill="#000200"/>
<path d="M79.9586 97.4481C79.7526 97.4481 79.5637 97.3623 79.4264 97.2078L78.8599 96.5898C76.1132 93.5512 74.7741 91.5941 79.3749 86.8217C79.6496 86.5298 80.1131 86.5298 80.4049 86.8045C80.6968 87.0792 80.6968 87.5427 80.4221 87.8345C76.5252 91.8688 77.4522 92.8817 79.9414 95.6284L80.5079 96.2636C80.7654 96.5554 80.7483 97.0189 80.4564 97.2764C80.3019 97.3794 80.1303 97.4481 79.9586 97.4481Z" fill="#000200"/>
<path d="M47.856 228.312C38.1223 228.312 29.4185 225.84 22.0367 220.879C8.52613 211.832 0.57775 194.991 0.200073 174.682C-0.108936 157.103 9.53899 136.88 26.7061 119.181C40.457 105.001 56.1134 95.7477 66.5854 95.6275C66.5854 95.6275 66.5854 95.6275 66.6025 95.6275C66.9974 95.6275 70.0016 96.0224 70.0188 96.4172C70.0188 96.812 67.0145 97.0696 66.6197 97.0696C56.6628 97.1897 41.0578 106.494 27.7705 120.194C10.878 137.618 1.35027 157.464 1.65928 174.665C2.01979 194.493 9.74499 210.905 22.8435 219.677C36.3884 228.759 54.5684 229.239 75.4093 221.102C101.417 210.939 112.919 181.686 114.997 157.687C116.971 134.889 111.46 120.623 105.503 117.018C93.0227 109.447 93.1601 99.3356 93.2287 93.2928C93.2631 91.0782 93.2803 89.1727 92.5592 88.9495C92.2159 88.8465 91.9584 88.9152 91.6837 89.1898C89.7095 91.1984 89.6237 101.035 92.2159 108.709C92.3361 109.087 92.1472 109.499 91.7695 109.619C91.3919 109.739 90.9799 109.55 90.8597 109.172C88.4735 102.082 87.9069 90.9924 90.6708 88.177C91.3232 87.5075 92.1472 87.3015 93.0056 87.5761C94.7566 88.1255 94.7223 90.3057 94.6879 93.3271C94.6193 99.0609 94.4991 108.657 106.259 115.799C112.799 119.765 118.482 134.305 116.439 157.841C114.31 182.27 102.568 212.072 75.9414 222.475C65.8987 226.355 56.4739 228.312 47.856 228.312Z" fill="#000200"/>
<path d="M36.5768 171.49C36.4223 171.49 36.2506 171.438 36.1133 171.318C35.8043 171.06 35.7699 170.614 36.0103 170.305C49.7783 153.722 60.8511 156.468 66.2244 159.576C66.5678 159.782 66.6879 160.211 66.4819 160.571C66.2759 160.915 65.8467 161.035 65.4862 160.829C60.5078 157.945 50.1903 155.455 37.109 171.232C36.9888 171.404 36.7828 171.49 36.5768 171.49Z" fill="#000200"/>
<path d="M105.469 156.107C99.7524 156.107 91.8727 154.562 82.0875 149.017C81.7441 148.828 81.624 148.382 81.8128 148.038C82.0016 147.695 82.448 147.558 82.7913 147.764C103.598 159.575 115.495 152.553 115.615 152.485C115.958 152.279 116.405 152.382 116.611 152.725C116.817 153.068 116.714 153.515 116.37 153.721C116.113 153.875 112.336 156.107 105.469 156.107Z" fill="#000200"/>
<path d="M101.761 161.395C95.3582 161.395 87.9591 159.54 80.5773 153.652C80.2682 153.412 80.2167 152.948 80.4571 152.639C80.6974 152.33 81.1609 152.279 81.4699 152.519C94.9976 163.283 108.543 159.987 115.427 157.068C115.787 156.914 116.216 157.086 116.371 157.446C116.525 157.807 116.354 158.236 115.993 158.39C112.577 159.867 107.581 161.395 101.761 161.395Z" fill="#000200"/>
<path d="M51.2209 159.9C51.0663 159.9 50.9118 159.849 50.7745 159.746L16.1656 132.845C15.8566 132.605 15.7879 132.141 16.0454 131.832C16.2858 131.523 16.7493 131.454 17.0583 131.712L51.6672 158.613C51.9762 158.853 52.0449 159.317 51.7874 159.626C51.65 159.815 51.444 159.9 51.2209 159.9Z" fill="#000200"/>
<path d="M67.168 79.079C68.3525 82.9244 69.3139 83.9716 69.3139 83.9716L69.537 84.2463C72.1808 83.4909 73.7086 83.5081 76.1464 83.1648C76.4725 82.8557 76.8159 82.5467 77.1592 82.2549C77.1936 81.8944 77.2794 81.5167 77.4167 81.1562C77.4854 79.8172 77.3824 78.4953 77.1936 77.1562C73.8803 77.9116 70.5327 78.5296 67.168 79.079Z" fill="#000200"/>
<path d="M111.305 92.5545C110.962 92.5545 110.653 92.297 110.584 91.9537C110.516 91.5589 110.79 91.1812 111.185 91.1297C112.868 90.855 114.19 90.1683 114.705 89.2928C115.014 88.7778 115.065 88.2113 114.842 87.5589C114.327 86.0139 110.773 85.8594 109.554 85.9109C109.211 85.9624 108.868 85.6705 108.799 85.31L107.512 77.3101C107.443 76.9153 107.718 76.5376 108.112 76.4861C108.507 76.4175 108.885 76.6921 108.936 77.087L110.138 84.4688C111.717 84.4688 115.426 84.7435 116.215 87.1126C116.576 88.1598 116.473 89.1726 115.958 90.0482C115.202 91.3014 113.554 92.2112 111.426 92.5545C111.374 92.5545 111.34 92.5545 111.305 92.5545Z" fill="#000200"/>
<path d="M91.838 78.7519L91.2886 80.4343C90.5676 82.5974 93.9324 83.7132 94.6534 81.5502L95.2027 79.8678C95.9238 77.7047 92.559 76.5889 91.838 78.7519Z" fill="#000200"/>
<path d="M114.293 75.7988L113.743 77.4812C113.022 79.6442 116.387 80.7601 117.108 78.597L117.657 76.9147C118.378 74.7516 115.014 73.6357 114.293 75.7988Z" fill="#000200"/>
<path d="M69.9846 95.6108C66.6026 95.1816 65.0747 93.0528 64.7829 91.1816C64.5769 89.9113 64.8687 88.7439 65.6413 87.7139C67.1348 85.7568 70.4137 84.4006 75.1519 83.7654C75.6497 83.3878 76.1647 83.0101 76.6626 82.6324C76.5424 82.3577 76.2506 82.1689 75.9244 82.2204C70.1906 82.8556 66.3451 84.4006 64.4911 86.8555C63.2035 88.5379 63.1692 90.2718 63.3409 91.4391C63.7185 93.8082 65.6241 96.5378 69.7957 97.07C69.83 97.07 69.8644 97.07 69.8815 97.07C70.2421 97.07 71.3408 97.8253 71.3751 97.4648C71.4266 97.0528 70.3794 95.6623 69.9846 95.6108Z" fill="#000200"/>
<path d="M118.928 97.2244C117.863 97.9454 116.782 98.6664 115.717 99.3874C114.773 100.023 115.855 101.43 116.799 100.795C117.863 100.074 118.945 99.3531 120.009 98.6321C120.953 97.9969 119.872 96.5892 118.928 97.2244Z" fill="#000200"/>
<path d="M120.215 56.4351C117.09 44.0747 107.202 39.3709 90.0864 42.0318C78.7045 43.8001 71.2197 47.3708 67.2026 52.933C64.0438 57.3278 63.0653 62.9071 64.2498 70.0143C64.7133 69.8769 65.194 69.7739 65.6575 69.6709C64.576 63.0272 65.4687 57.8256 68.3699 53.7913C72.1467 48.5553 79.3226 45.1906 90.3095 43.4739C93.2794 43.0104 96.009 42.7872 98.5154 42.7872C109.726 42.7872 116.404 47.4223 118.807 56.8127C119.27 56.6411 119.734 56.5209 120.215 56.4351Z" fill="#000200"/>
<path d="M66.5849 80.0391C66.2759 80.0391 65.9841 79.8331 65.8811 79.5069L63.2889 70.271C63.2374 70.0821 63.2545 69.8761 63.3575 69.7045C63.4605 69.5328 63.615 69.4126 63.821 69.3611L121.073 55.7819C121.262 55.7304 121.485 55.7819 121.657 55.8849C121.829 56.0051 121.932 56.1768 121.966 56.3828L123.219 65.3612C123.271 65.7217 123.03 66.0822 122.67 66.168L66.7566 80.0047C66.7051 80.0391 66.6364 80.0391 66.5849 80.0391ZM64.8854 70.6143L67.0828 78.4425L121.674 64.932L120.627 57.3956L64.8854 70.6143Z" fill="#000200"/>
<path d="M94.1384 69.4992C92.9024 69.7224 91.4603 70.1859 90.0183 70.8383C88.9883 71.3189 89.9153 72.8125 90.9453 72.349C92.1298 71.8168 93.383 71.4906 94.6362 71.1988C95.7521 70.9413 95.2542 69.2932 94.1384 69.4992Z" fill="#000200"/>
<path d="M114.739 64.8468C113.675 64.658 112.559 64.658 111.512 64.3833C110.413 64.1086 109.761 65.7567 110.877 66.0313C112.079 66.3403 113.315 66.3919 114.551 66.5979C115.666 66.8039 115.855 65.0357 114.739 64.8468Z" fill="#000200"/>
<path d="M122.19 66.8735L122.121 66.4959C122.052 66.101 121.675 65.8607 121.28 65.9122C120.885 65.9809 120.627 66.3585 120.696 66.7534L120.765 67.131C125.417 92.7272 128.232 108.195 120.507 114.495C118.361 116.246 116.851 117.105 115.203 117.671C115.151 117.688 115.1 117.705 115.048 117.723C113.898 118.1 112.662 118.341 111.082 118.65L110.155 118.838C109.932 118.873 109.314 118.89 109.211 119.079C109.108 119.268 109.537 119.628 109.623 119.834L111.271 123.628C111.374 123.868 111.597 124.04 111.872 124.057C111.889 124.057 111.924 124.057 111.941 124.057C112.181 124.057 112.404 123.937 112.542 123.748L112.782 123.405L115.803 118.993C117.52 118.392 119.168 117.448 121.417 115.628C129.829 108.761 126.945 92.9848 122.19 66.8735Z" fill="#000200"/>
<path d="M164.301 247.351C163.957 247.351 163.665 247.111 163.597 246.768C163.511 246.373 163.768 245.995 164.163 245.909C167.082 245.326 171.064 242.287 175.27 239.077C179.253 236.055 183.751 232.622 188.146 230.648C188.918 230.304 189.828 229.91 190.841 229.48C205.193 223.317 243.304 206.94 240.214 165.79C236.883 121.499 166.652 100.504 125.675 95.0961C125.28 95.0446 125.005 94.684 125.056 94.2892C125.108 93.8944 125.469 93.6025 125.863 93.6712C138.361 95.3192 170.464 100.693 198.635 114.89C225.673 128.503 240.145 145.602 241.656 165.704C244.832 207.867 206.034 224.553 191.425 230.819C190.429 231.249 189.519 231.643 188.764 231.987C184.523 233.892 180.266 237.12 176.163 240.244C171.614 243.712 167.7 246.699 164.455 247.351C164.404 247.334 164.352 247.351 164.301 247.351Z" fill="#000200"/>
<path d="M220.196 214.15C220.162 214.15 220.128 214.15 220.093 214.15C219.699 214.081 219.424 213.72 219.493 213.326C220.969 203.661 209.793 193.515 192.849 189.103L190.789 192.983C190.6 193.343 190.171 193.463 189.811 193.274C189.45 193.086 189.33 192.656 189.519 192.296L191.854 187.918C192.008 187.626 192.351 187.472 192.678 187.558C210.961 192.159 222.583 202.837 220.952 213.549C220.849 213.892 220.54 214.15 220.196 214.15Z" fill="#000200"/>
<path d="M191.733 188.348L192.454 188.262L191.716 188.245C190.943 181.79 190.154 175.112 193.965 171.575C196.523 169.206 200.78 168.64 206.977 169.859C207.372 169.927 207.63 170.322 207.544 170.7C207.475 171.095 207.08 171.352 206.703 171.266C200.986 170.151 197.141 170.597 194.943 172.623C191.664 175.661 192.42 181.962 193.141 188.056L192.437 188.245L191.733 188.348Z" fill="#000200"/>
<path d="M194.325 171.902C193.656 171.902 192.935 171.215 192.42 170.477C191.184 168.708 190.634 165.893 193.141 163.799C193.45 163.541 193.913 163.593 194.154 163.902C194.411 164.211 194.36 164.657 194.068 164.915C193.072 165.739 192.677 166.751 192.883 167.919C193.106 169.223 194.325 170.494 195.063 170.786C195.441 170.94 195.132 171.575 194.789 171.764C194.651 171.867 194.497 171.902 194.325 171.902Z" fill="#000200"/>
<path d="M193.605 165.086C193.382 165.086 193.141 164.983 193.004 164.777C189.21 159.249 167.236 149.137 167.013 149.051C166.652 148.88 166.498 148.451 166.652 148.09C166.824 147.73 167.253 147.575 167.614 147.73C168.541 148.159 190.189 158.099 194.206 163.97C194.429 164.296 194.343 164.742 194.017 164.983C193.897 165.051 193.759 165.086 193.605 165.086Z" fill="#000200"/>
<path d="M171.459 151.078C171.373 151.078 171.304 151.061 171.219 151.044C170.841 150.906 170.635 150.494 170.772 150.117L184.403 110.135C184.54 109.757 184.952 109.551 185.313 109.688C185.69 109.826 185.896 110.238 185.759 110.615L172.128 150.597C172.043 150.889 171.768 151.078 171.459 151.078Z" fill="#000200"/>
<path d="M156.833 226.322C156.249 226.322 155.734 226.15 155.322 225.807C153.794 224.571 154.017 221.532 155.94 217.481C158.979 211.112 162.12 204.52 171.167 202.305C179.287 200.314 180.043 199.713 189.279 192.382L189.656 192.074C189.811 191.953 190.017 191.885 190.223 191.919C190.463 191.953 214.995 196.211 216.66 216.09C216.695 216.485 216.403 216.846 216.008 216.88C215.596 216.914 215.252 216.623 215.235 216.228C213.759 198.666 193.107 193.962 190.309 193.413L190.188 193.516C180.712 201.035 179.94 201.653 171.511 203.713C163.7 205.618 160.798 210.648 157.245 218.116C155.477 221.807 155.459 224.09 156.215 224.691C156.798 225.155 158.137 224.725 159.614 223.592C161.039 222.494 162.069 220.657 163.064 218.871C164.918 215.558 167.013 211.799 171.94 213.773C173.056 214.219 174.12 214.597 175.081 214.957C178.292 216.125 180.609 216.966 181.313 218.786C181.742 219.884 181.519 221.155 180.644 222.837C180.455 223.198 180.026 223.318 179.665 223.146C179.305 222.957 179.167 222.528 179.356 222.167C180.008 220.914 180.214 219.97 179.957 219.318C179.493 218.116 177.433 217.361 174.584 216.331C173.605 215.97 172.541 215.592 171.408 215.129C167.854 213.704 166.395 215.901 164.335 219.592C163.27 221.498 162.155 223.472 160.489 224.76C159.133 225.773 157.88 226.322 156.833 226.322Z" fill="#000200"/>
</g>
<path d="M99.5246 198.415C45.2175 198.415 1.19287 154.391 1.19287 100.084H-0.807129C-0.807129 155.495 44.1129 200.415 99.5246 200.415V198.415ZM197.856 100.084C197.856 154.391 153.832 198.415 99.5246 198.415V200.415C154.936 200.415 199.856 155.495 199.856 100.084H197.856ZM99.5246 1.75195C153.832 1.75195 197.856 45.7765 197.856 100.084H199.856C199.856 44.672 154.936 -0.248047 99.5246 -0.248047V1.75195ZM99.5246 -0.248047C44.1129 -0.248047 -0.807129 44.672 -0.807129 100.084H1.19287C1.19287 45.7765 45.2175 1.75195 99.5246 1.75195V-0.248047Z" fill="black" fill-opacity="0.1"/>
<defs>
<clipPath id="clip0_3_14597">
<path d="M0.192871 100.084C0.192871 45.2243 44.6652 0.751953 99.5246 0.751953V0.751953C154.384 0.751953 198.856 45.2243 198.856 100.084V100.084C198.856 154.943 154.384 199.415 99.5246 199.415V199.415C44.6652 199.415 0.192871 154.943 0.192871 100.084V100.084Z" fill="white"/>
</clipPath>
</defs>
</svg>
