<svg width="199" height="200" viewBox="0 0 199 200" fill="none" xmlns="http://www.w3.org/2000/svg">
<g clip-path="url(#clip0_3_14599)">
<path d="M0.325684 99.8766C0.325684 45.0172 44.798 0.544922 99.6574 0.544922V0.544922C154.517 0.544922 198.989 45.0172 198.989 99.8766V99.8766C198.989 154.736 154.517 199.208 99.6574 199.208V199.208C44.798 199.208 0.325684 154.736 0.325684 99.8766V99.8766Z" fill="#F8F8F8"/>
<path d="M91.3952 117.606C76.4709 117.088 57.9789 117.742 47.521 127.519C42.5917 132.149 39.9499 138.385 39.7048 146.12C39.2963 159.001 39.6776 178.201 40.195 194.678C41.121 195.713 42.047 196.775 42.9185 197.864C42.3465 180.761 41.8836 159.9 42.3465 146.201C42.5644 139.202 44.9338 133.565 49.3457 129.425C59.0955 120.302 76.9066 119.73 91.3407 120.22C91.3679 120.22 91.368 120.22 91.3952 120.22C92.1033 120.22 92.6752 119.675 92.7024 118.967C92.6752 118.232 92.1033 117.633 91.3952 117.606Z" fill="#201000"/>
<path d="M66.2856 210.229C65.5775 210.229 64.9783 209.657 64.9783 208.949L64.3247 164.149C64.3247 163.795 64.4609 163.441 64.7332 163.196C65.0056 162.951 65.3596 162.815 65.7136 162.842L135.133 167.308C134.099 156.387 131.293 119.049 141.016 118.042C141.724 117.96 142.378 118.477 142.459 119.213C142.541 119.921 142.024 120.574 141.288 120.656C135.651 121.228 135.896 149.034 137.884 168.588C137.911 168.969 137.802 169.351 137.53 169.623C137.258 169.895 136.876 170.059 136.495 170.032L66.9664 165.538L67.5928 208.922C67.5928 209.63 67.0209 210.229 66.2856 210.229Z" fill="#201000"/>
<path d="M65.632 165.428C64.9512 165.428 64.352 164.884 64.3248 164.203L62.0371 121.69C62.0099 120.982 62.5546 120.356 63.2626 120.301C63.998 120.247 64.5971 120.819 64.6516 121.527L66.9392 164.039C66.9665 164.747 66.4218 165.374 65.7137 165.428C65.6865 165.428 65.6592 165.428 65.632 165.428Z" fill="#201000"/>
<path d="M159.971 70.11C158.691 67.1415 156.295 64.9355 153.925 62.8385C149.323 58.7261 145.564 55.104 142.215 49.7933C137.966 43.0665 134.044 35.3592 126.664 31.5737C117.459 26.835 103.052 32.1456 106.728 44.3193C107.219 45.9261 109.751 45.2452 109.261 43.6384V43.6112C109.588 43.6929 109.915 43.7746 110.214 43.8563C111.277 44.1559 112.339 44.4555 113.401 44.8095C116.696 42.6852 120.291 41.6776 123.26 42.1133C125.82 42.4946 127.998 43.9108 129.714 46.3074C132.192 49.7933 132.928 53.361 131.866 56.9287C131.13 59.3797 129.551 61.8036 127.29 63.9823C127.454 65.0172 127.617 66.0521 127.808 67.0597C127.835 67.1687 127.835 67.2776 127.862 67.3593C129.278 74.5764 132.247 81.8751 139.11 85.5789C149.404 91.1347 165.581 83.0189 159.971 70.11Z" fill="#201000"/>
<path d="M111.14 44.8098C108.934 46.5255 107.273 48.4591 106.592 50.0115C106.592 50.0115 103.705 40.4251 87.3649 40.7519C73.2848 41.0514 65.1963 45.5451 62.8269 55.0498C49.9452 49.7664 47.9843 33.4804 60.7844 32.0369C73.5572 30.5935 102.344 31.6284 111.14 44.8098Z" fill="#201000"/>
<path d="M116.968 83.9726C116.723 84.1632 116.478 84.3538 116.233 84.5172C117.976 78.5802 117.458 71.6627 117.458 71.6627C119.555 70.8457 121.571 69.8381 123.395 68.667C124.213 74.141 122.715 79.37 116.968 83.9726Z" fill="#201000"/>
<path d="M134.37 57.6908C133.363 61.0679 131.075 64.3087 127.834 67.0866C125.329 69.2109 122.306 71.0628 118.82 72.5334C118.929 75.5836 118.956 85.0066 114.871 90.3445C115.17 92.8773 116.45 103.934 117.921 118.913C118.003 119.621 117.458 120.275 116.75 120.357C116.015 120.438 115.388 119.894 115.307 119.185C113.618 102.191 112.202 90.2628 112.175 90.1267C112.12 89.7726 112.229 89.3913 112.474 89.119C116.995 83.7811 116.124 71.907 116.124 71.7709C116.069 71.199 116.423 70.6543 116.941 70.4636C121.053 68.8568 124.621 66.5964 127.262 64.0364C129.523 61.8576 131.102 59.4338 131.838 56.9827C132.9 53.4151 132.164 49.8202 129.686 46.3614C127.97 43.9648 125.792 42.5487 123.232 42.1674C120.263 41.7316 116.695 42.7121 113.373 44.8635C112.883 45.1904 112.392 45.5444 111.902 45.8985C109.941 47.4236 108.362 49.221 107.763 50.5827C107.545 51.0729 107.027 51.3997 106.483 51.3725C105.938 51.3453 105.475 50.964 105.312 50.4465C105.203 50.0925 102.425 41.7861 87.3371 42.1401C73.6384 42.4397 66.2307 46.661 64.0247 55.4304C63.2077 58.6713 63.0987 62.6747 63.6979 67.3317C63.9702 69.4015 64.2153 71.4985 64.4877 73.5955C65.9311 85.3879 67.429 97.5616 71.4869 102.055C76.1167 107.202 81.2911 107.148 88.1269 105.378C88.4809 105.296 88.835 105.351 89.1346 105.514C89.4341 105.705 89.652 106.004 89.7337 106.331L94.6359 127.574C94.7993 128.282 94.3635 128.99 93.6554 129.153C93.5465 129.18 93.4648 129.18 93.3558 129.18C92.7567 129.18 92.212 128.772 92.0758 128.173L87.4733 108.21C80.4741 109.817 74.7005 109.545 69.526 103.771C64.9234 98.6509 63.4528 86.6134 61.8732 73.8679C61.6281 71.7981 61.3558 69.7011 61.0834 67.6313C60.4298 62.5657 60.566 58.3444 61.4647 54.7495C63.9702 44.7819 72.3856 39.798 87.2554 39.4712C99.5107 39.2261 104.631 44.2644 106.646 47.3419C107.545 46.1708 108.743 44.9725 110.159 43.8559C110.187 43.8287 110.241 43.8014 110.268 43.7742C112.311 42.1946 117.649 38.6542 123.558 39.5257C126.854 40.0159 129.604 41.7861 131.756 44.7818C134.779 48.8942 135.65 53.3606 134.37 57.6908Z" fill="#201000"/>
<path d="M76.4983 83.2098C76.1987 83.2098 75.8992 83.1008 75.654 82.9102C69.3357 77.5451 70.3162 69.5655 74.1562 57.6097C74.374 56.9289 75.1094 56.5476 75.7902 56.7655C76.4711 56.9833 76.8523 57.7187 76.6345 58.3995C72.5494 71.1178 72.74 77.0004 77.3426 80.8949C77.8872 81.3579 77.9689 82.1749 77.4787 82.7468C77.2609 83.0464 76.8796 83.2098 76.4983 83.2098Z" fill="#201000"/>
<path d="M93.164 64.3099C93.9865 63.9384 94.3522 62.9705 93.9807 62.148C93.6093 61.3255 92.6414 60.9599 91.8189 61.3313C90.9964 61.7028 90.6307 62.6707 91.0022 63.4932C91.3736 64.3157 92.3415 64.6813 93.164 64.3099Z" fill="#201000"/>
<path d="M67.9443 67.0589C68.7668 66.6874 69.1324 65.7196 68.761 64.8971C68.3895 64.0746 67.4216 63.7089 66.5991 64.0804C65.7766 64.4518 65.411 65.4197 65.7824 66.2422C66.1539 67.0647 67.1218 67.4303 67.9443 67.0589Z" fill="#201000"/>
<path d="M93.4921 86.9674C96.8147 86.4227 98.7483 83.1274 97.4956 79.9682C96.8692 78.4159 99.2658 77.3265 99.8922 78.8789C101.771 83.6176 98.9934 88.7104 93.9279 89.5547C92.2394 89.827 91.8309 87.2398 93.4921 86.9674Z" fill="#201000"/>
<path d="M88.4266 55.0765C88.5083 54.3412 89.1619 53.8782 89.87 53.9054C90.6053 53.9327 91.3406 53.9599 92.0487 53.9599C92.7568 53.9871 93.2742 54.7225 93.2198 55.4033C93.1381 56.1386 92.4845 56.6016 91.7764 56.5744C91.0411 56.5471 90.3057 56.5199 89.5976 56.5199C88.8896 56.4927 88.3449 55.7301 88.4266 55.0765Z" fill="#201000"/>
<path d="M65.6318 55.5661L67.1297 54.8852C68.6548 54.2044 69.7442 56.5737 68.219 57.2818L66.7212 57.9627C65.1688 58.6435 64.0795 56.2469 65.6318 55.5661Z" fill="#201000"/>
<path d="M113.754 62.429C113.727 62.429 113.727 62.429 113.7 62.429C112.992 62.4018 112.42 61.8026 112.447 61.0673C112.583 57.6086 116.342 50.1737 121.789 48.8937C122.497 48.7303 123.205 49.166 123.368 49.8741C123.532 50.5822 123.096 51.2903 122.388 51.4537C118.166 52.4341 115.171 58.8341 115.062 61.1763C115.034 61.8843 114.463 62.429 113.754 62.429Z" fill="#201000"/>
<path d="M104.739 42.686C101.689 40.3711 97.9847 39.3362 94.1992 39.4996C94.0902 39.4996 93.9813 39.5541 93.8996 39.5813C93.7634 39.2818 93.6 38.9822 93.4639 38.6826C92.783 37.1303 90.5498 38.492 91.2034 40.0171C92.9736 44.0477 95.8332 47.452 99.6188 49.7124C101.934 51.1014 105.964 52.7626 107.707 49.658C109.205 46.989 106.727 44.1839 104.739 42.686Z" fill="#201000"/>
<path d="M34.0134 201.514L28.9751 200.724C28.3488 200.425 27.7496 200.043 27.2049 199.553C24.073 196.911 5.227 186.808 5.25423 190.185C5.28147 195.713 24.5088 202.74 21.3768 209.357L9.58446 204.265C7.2151 204.047 4.87295 203.502 2.88486 202.277L-8.28112 176.486C-9.09815 174.607 -7.7092 172.482 -5.66664 172.482H21.3496C22.4934 172.482 23.5283 173.163 23.9913 174.198L28.2671 184.139C26.8509 184.084 25.6253 184.465 24.8628 185.391C23.0381 187.625 28.7028 188.659 31.8075 192.336L33.6322 196.557C33.7684 198.055 33.9862 201.378 34.0134 201.514Z" fill="#201000"/>
<path d="M137.203 271.069C122.469 271.069 99.7559 264.016 62.8537 249.582C14.5949 230.681 10.8638 227.794 6.37016 221.476C5.96164 220.877 6.09783 220.06 6.66974 219.651C7.26889 219.243 8.08592 219.379 8.49443 219.951C12.5523 225.67 16.3923 228.584 63.8069 247.158C135.324 275.154 150.357 273.466 159.235 254.184C163.838 244.135 168.195 219.76 170.619 190.538C171.845 175.478 172.444 160.417 172.362 146.964C172.253 131.032 164.982 123.215 148.069 120.9C141.125 119.947 133.145 119.975 125.41 120.029C122.769 120.056 120.127 120.056 117.513 120.029C116.777 120.029 116.205 119.43 116.205 118.722C116.205 117.986 116.75 117.442 117.513 117.415C120.127 117.442 122.742 117.415 125.383 117.415C133.199 117.387 141.288 117.333 148.423 118.313C159.753 119.866 174.84 124.55 174.977 146.964C175.058 160.472 174.459 175.614 173.234 190.756C170.81 220.251 166.343 244.979 161.632 255.274C156.811 265.704 150.03 271.069 137.203 271.069Z" fill="#201000"/>
<path d="M134.726 232.451C134.589 232.451 134.453 232.423 134.344 232.396C131.131 231.388 55.7739 207.504 48.5296 203.827C43.1373 201.077 40.4139 196.638 38.2079 193.043C37.3364 191.627 36.5194 190.265 35.6479 189.284C33.7687 187.106 30.4189 185.417 27.9951 185.417C27.9679 185.417 27.9406 185.417 27.9406 185.417C26.9874 185.417 26.3066 185.69 25.8981 186.207C26.1976 186.588 27.2325 187.215 27.9951 187.678C30.5279 189.23 34.0138 191.381 34.8853 195.548C35.7568 199.633 34.5041 201.349 33.3058 202.085C31.2632 203.31 28.3491 202.193 26.3883 200.532C22.5755 197.319 8.25037 190.101 6.12611 191.136C5.77207 191.49 5.52695 191.872 5.55418 192.09C5.66312 192.934 8.1959 194.35 10.4291 195.63C13.9695 197.618 18.3815 200.096 21.9491 204.127C22.8206 205.053 24.7542 207.45 23.6376 209.138C22.6845 210.609 20.3696 210.527 15.7398 208.839C12.0087 207.504 9.42144 206.823 7.54229 206.333C3.89292 205.38 2.39504 204.999 1.0061 201.54C0.73376 200.859 1.06056 200.096 1.74141 199.851C2.39503 199.579 3.18482 199.906 3.42993 200.587C4.32865 202.82 4.6827 202.902 8.1959 203.8C10.1295 204.29 12.7712 204.971 16.6112 206.36C19.3074 207.341 20.6147 207.531 21.2138 207.531C20.9687 207.068 20.5057 206.388 20.0155 205.87C16.7474 202.139 12.5261 199.797 9.17634 197.89C5.74484 195.957 3.26653 194.568 2.99419 192.416C2.85802 191.327 3.32099 190.265 4.38312 189.203C8.11419 185.581 26.47 197.155 28.104 198.517C29.6836 199.851 31.3177 200.233 31.9985 199.824C32.6249 199.443 32.7611 197.999 32.3798 196.093C31.7262 193.016 28.9211 191.273 26.6606 189.911C24.9176 188.849 23.5287 187.977 23.3108 186.588C23.2291 186.098 23.2564 185.336 23.9372 184.546C24.8632 183.429 26.2521 182.83 27.9679 182.803C27.9951 182.803 28.0223 182.803 28.0768 182.803C31.2904 182.803 35.3211 184.791 37.7177 187.569C38.6981 188.713 39.5968 190.156 40.5228 191.681C42.6471 195.14 45.0437 199.061 49.7824 201.485C56.836 205.08 134.426 229.645 135.189 229.891C135.869 230.108 136.251 230.844 136.033 231.525C135.788 232.097 135.27 232.451 134.726 232.451Z" fill="#201000"/>
<path d="M127.754 229.837C127.699 229.837 127.617 229.837 127.563 229.81C126.855 229.701 126.365 229.047 126.446 228.312L135.27 168.479C135.379 167.77 136.033 167.28 136.741 167.389C137.449 167.498 137.939 168.152 137.857 168.887L129.034 228.72C128.952 229.374 128.38 229.837 127.754 229.837Z" fill="#201000"/>
</g>
<path d="M99.6574 198.208C45.3503 198.208 1.32568 154.184 1.32568 99.8766H-0.674316C-0.674316 155.288 44.2457 200.208 99.6574 200.208V198.208ZM197.989 99.8766C197.989 154.184 153.964 198.208 99.6574 198.208V200.208C155.069 200.208 199.989 155.288 199.989 99.8766H197.989ZM99.6574 1.54492C153.964 1.54492 197.989 45.5695 197.989 99.8766H199.989C199.989 44.4649 155.069 -0.455078 99.6574 -0.455078V1.54492ZM99.6574 -0.455078C44.2457 -0.455078 -0.674316 44.4649 -0.674316 99.8766H1.32568C1.32568 45.5695 45.3503 1.54492 99.6574 1.54492V-0.455078Z" fill="black" fill-opacity="0.1"/>
<defs>
<clipPath id="clip0_3_14599">
<path d="M0.325684 99.8766C0.325684 45.0172 44.798 0.544922 99.6574 0.544922V0.544922C154.517 0.544922 198.989 45.0172 198.989 99.8766V99.8766C198.989 154.736 154.517 199.208 99.6574 199.208V199.208C44.798 199.208 0.325684 154.736 0.325684 99.8766V99.8766Z" fill="white"/>
</clipPath>
</defs>
</svg>
