<svg width="199" height="199" viewBox="0 0 199 199" fill="none" xmlns="http://www.w3.org/2000/svg">
<g clip-path="url(#clip0_3_12144)">
<rect x="0.157715" width="198.663" height="198.663" rx="99.3317" fill="#438DD2"/>
<path d="M120.945 69.6628C121.09 69.3015 120.656 68.9402 120.295 69.0848C120.006 69.0848 119.789 69.3738 119.789 69.6628C118.85 71.1079 117.911 72.6252 116.971 74.0703C115.165 66.9894 108.373 62.0038 100.931 63.1599C93.85 64.2437 89.0812 70.2408 88.7922 76.9604C86.3356 72.9142 80.9165 71.3246 76.22 70.8911C69.3559 70.2408 62.1305 71.1801 56.4947 75.2986C51.5092 78.9836 48.1855 85.1251 49.3415 91.4112C50.2808 96.9025 54.7606 101.238 60.2519 101.816C58.6623 107.09 62.9976 111.57 67.6218 113.521C73.4021 115.978 80.1218 117.061 86.4078 116.483C97.4627 115.544 112.275 115.255 112.347 103.405C118.489 104.85 121.307 93.7956 123.98 88.0153C126.726 81.8737 124.991 74.7206 120.945 69.6628Z" fill="#642421"/>
<path d="M172.031 173.637C168.057 181.44 164.083 189.243 160.181 197.119C159.892 197.697 160.759 198.203 161.048 197.625C165.022 189.822 168.996 182.018 172.898 174.142C173.187 173.564 172.32 173.059 172.031 173.637Z" fill="white"/>
<path d="M189.875 219.951L145.005 219.373L123.112 219.084L39.4419 218L61.2626 130.934L81.566 123.275L105.121 114.388C118.199 115.906 128.314 117.423 136.262 119.157C169.716 126.166 164.441 135.703 170.872 158.246C177.953 182.957 187.346 212.437 189.369 218.795C189.73 219.518 189.875 219.951 189.875 219.951Z" fill="#D24A43"/>
<path d="M151.724 208.029C151.651 208.39 151.579 208.68 151.507 209.041C151.218 208.969 150.929 208.896 150.64 208.824C150.712 208.535 150.784 208.174 150.929 207.812C152.374 201.599 150.929 194.012 150.351 188.232C149.339 177.683 148.255 167.133 147.244 156.584C147.172 155.934 148.183 155.934 148.255 156.584L151.724 192.133C152.157 197.119 152.88 202.971 151.724 208.029Z" fill="white"/>
<path d="M179.183 216.772C175.642 216.194 172.102 215.761 168.489 215.399C142.983 210.125 100.065 202.032 70.2959 200.009L95.1513 139.027L105.195 114.316C95.2236 113.666 86.4808 113.232 78.6774 113.088C14.8048 111.859 17.2615 128.189 5.55635 180.067C-14.8915 270.818 -8.46093 271.324 85.2525 261.353C154.689 253.983 160.108 251.671 172.969 248.925C173.33 236.208 174.486 228.261 179.183 216.772Z" fill="#D24A43"/>
<path d="M67.1183 200.588C66.7571 200.588 66.4681 200.588 66.1068 200.588C66.1068 200.226 66.0345 199.937 66.0345 199.576C65.1675 188.232 64.3004 176.961 63.4334 165.617C63.3611 164.966 64.3727 164.966 64.445 165.617C65.312 176.888 66.179 188.232 67.0461 199.504C67.1183 199.865 67.1183 200.226 67.1183 200.588Z" fill="white"/>
<path d="M170.224 214.099C164.01 212.22 157.724 210.486 151.437 208.969C151.148 208.897 150.859 208.824 150.57 208.752C123.258 202.322 95.1516 199.504 67.1171 200.515C66.7558 200.515 66.4668 200.515 66.1055 200.515C64.2992 200.587 62.5651 200.66 60.7587 200.732C60.1084 200.804 60.1084 199.793 60.7587 199.72C62.4928 199.648 64.2991 199.576 66.0332 199.504C66.3945 199.504 66.6835 199.504 67.0448 199.431C95.2239 198.42 123.403 201.238 150.787 207.668C151.076 207.741 151.365 207.813 151.654 207.885C157.94 209.402 164.226 211.137 170.44 213.015C171.091 213.376 170.874 214.316 170.224 214.099Z" fill="white"/>
<path d="M124.272 96.4701C123.332 97.2648 113.434 138.377 113.434 138.377L82.5811 115.328L102.017 86.3545L124.272 96.4701Z" fill="#FFA79B"/>
<path d="M120.513 109.764C122.391 102.539 123.909 96.7585 124.27 96.4695L113.793 91.7007C114.226 98.348 116.611 104.562 120.513 109.764Z" fill="black"/>
<path d="M83.157 56.9468C84.7466 47.337 100.859 39.6058 112.492 39.9671C117.55 40.1116 119.356 36.2821 121.235 40.0393C125.859 49.3601 141.032 80.5738 138.793 87.5825C134.385 101.6 117.333 102.395 106.784 95.2414C96.1627 88.0883 80.8449 70.6751 83.157 56.9468Z" fill="#FFA79B"/>
<path d="M118.271 32.308C112.924 31.8745 106.349 37.2213 103.893 40.9785C94.1384 43.2906 84.3842 49.5767 83.1558 56.9466C81.6385 66.1229 87.9969 76.961 95.5113 85.2702C98.4737 82.38 98.2569 78.7673 99.9187 74.3598C109.167 65.9061 110.901 54.1287 109.601 49.2877C113.213 50.0102 121.667 44.7357 122.679 40.4004C123.618 34.1143 119.861 32.4525 118.271 32.308Z" fill="#642421"/>
<path d="M86.7693 84.1142C86.2635 78.6229 92.5496 72.5535 99.9917 74.4321C102.665 79.8512 105.483 85.1257 108.445 90.4003C106.206 93.0737 100.281 95.9638 95.512 94.88C90.093 93.5795 87.275 90.039 86.7693 84.1142Z" fill="#FFA79B"/>
<path d="M96.5268 82.0906C98.3332 82.8854 100.14 83.608 101.946 84.4028C102.524 84.6918 102.09 85.4866 101.512 85.2698C101.368 85.1976 101.296 85.1976 101.151 85.1253C101.079 85.1253 101.079 85.0531 101.007 85.0531C99.3447 84.3305 97.7551 83.6802 96.0933 82.9577C95.5152 82.7409 95.9488 81.8739 96.5268 82.0906Z" fill="#952C28"/>
<path d="M113.072 64.7495C113.216 65.6888 113.361 66.5559 113.505 67.4952C113.65 68.4345 115.095 68.001 114.95 67.0617C114.806 66.1224 114.661 65.2553 114.517 64.316C114.3 63.3767 112.927 63.8102 113.072 64.7495Z" fill="black"/>
<path d="M125.715 57.3081C125.86 58.2474 126.004 59.1144 126.149 60.0538C126.293 60.9931 127.738 60.5595 127.594 59.6202C127.449 58.6809 127.305 57.8139 127.16 56.8746C127.016 55.9353 125.571 56.3688 125.715 57.3081Z" fill="black"/>
<path d="M127.881 66.484C127.231 66.5562 127.303 67.4955 127.953 67.4955C129.326 67.4233 129.471 69.0851 128.893 69.9522C128.315 70.8915 127.231 71.325 126.219 71.7585C125.641 72.0476 125.93 72.9869 126.508 72.6978C128.098 71.9753 130.049 71.036 130.193 69.0851C130.41 67.6401 129.326 66.4117 127.881 66.484Z" fill="#952C28"/>
<path d="M113.506 59.8367C112.566 60.3425 111.699 60.9205 110.76 61.4263C109.676 62.0766 110.76 63.7384 111.844 63.0881C112.783 62.5823 113.65 62.0043 114.589 61.4985C115.673 60.8482 114.589 59.2587 113.506 59.8367Z" fill="#642421"/>
<path d="M124.486 51.9611C123.908 52.1779 123.257 52.3947 122.679 52.6114C121.451 53.0449 122.101 54.9235 123.33 54.49C123.908 54.2732 124.558 54.0565 125.136 53.8397C126.292 53.3339 125.642 51.4553 124.486 51.9611Z" fill="#642421"/>
<path d="M129.037 83.0308C127.953 83.6088 126.652 83.4643 125.713 82.6695C125.207 82.236 124.557 83.0308 125.063 83.3921C126.363 84.4759 128.098 84.6204 129.615 83.8256C130.193 83.6088 129.615 82.7418 129.037 83.0308Z" fill="#952C28"/>
<path d="M136.336 119.085C130.628 141.556 114.588 144.591 105.195 142.929C102.088 142.351 98.6198 141.122 95.1517 139.027C89.9494 135.848 84.8916 130.79 81.6402 123.203C80.3396 120.241 79.328 116.845 78.6777 113.088C86.4812 113.232 95.2239 113.666 105.195 114.316C118.201 115.906 128.388 117.423 136.336 119.085Z" fill="#FFA79B"/>
</g>
<defs>
<clipPath id="clip0_3_12144">
<rect x="0.157715" width="198.663" height="198.663" rx="99.3317" fill="white"/>
</clipPath>
</defs>
</svg>
