<svg width="200" height="199" viewBox="0 0 200 199" fill="none" xmlns="http://www.w3.org/2000/svg">
<g clip-path="url(#clip0_3_12237)">
<rect x="0.868164" width="198.663" height="198.663" rx="99.3317" fill="#719CCF"/>
<path d="M215.547 237.615C203.823 238.889 192.014 240.079 180.206 240.928C177.827 241.098 175.533 241.268 173.154 241.438C173.069 260.808 172.984 280.093 172.899 299.463C150.811 299.208 128.722 298.189 106.634 297.254C85.3098 296.32 63.901 295.385 42.577 295.47C32.8071 295.47 23.1221 295.555 13.3522 295.385C13.2672 284.936 13.1823 274.486 13.1823 264.121C9.6141 264.716 5.96102 264.036 2.9026 261.573C2.64773 257.75 2.56276 253.927 2.56276 250.189C2.39285 239.314 2.39289 228.355 2.39289 217.396C2.22297 193.353 2.73268 169.311 5.28136 145.438C6.81056 147.137 8.33979 148.751 9.869 150.45C17.8549 137.792 27.7098 126.238 42.3222 121.31C51.7523 118.167 61.947 118.592 71.632 119.611C73.8408 119.866 76.1346 120.121 78.3435 120.376C87.2638 121.395 96.2692 122.67 105.105 123.944C113.515 125.133 121.926 126.493 130.337 127.937C144.014 130.231 157.607 132.78 171.115 135.668C176.043 136.687 193.034 141.445 199.151 152.319L199.236 152.404C202.804 158.776 205.013 165.827 206.542 173.134C209.346 186.302 210.96 199.81 212.744 213.233C213.763 221.304 214.698 229.459 215.547 237.615Z" fill="#BCD7FD"/>
<path d="M130.336 127.852C125.409 139.066 116.658 148.157 103.32 149.261C87.2634 150.62 72.8208 135.413 78.343 120.291C87.2633 121.31 96.2687 122.585 105.104 123.859C113.515 125.134 121.925 126.493 130.336 127.852Z" fill="#952C28"/>
<path d="M147.412 186.811C147.412 186.132 146.223 186.132 146.308 186.811C147.158 202.698 147.922 218.585 148.772 234.557C148.602 234.642 148.517 234.897 148.517 235.151C148.602 235.576 148.772 236.001 148.857 236.426C149.027 237.02 149.961 236.935 149.961 236.256C149.112 219.774 148.262 203.293 147.412 186.811Z" fill="white"/>
<path d="M24.3965 146.288C23.6319 151.725 22.8673 157.162 22.1027 162.599C22.0177 163.279 23.0372 163.619 23.2071 162.854C23.9717 157.417 24.7363 151.98 25.5009 146.542C25.5859 145.863 24.4815 145.608 24.3965 146.288Z" fill="white"/>
<path d="M9.7844 150.451C-10.69 127.513 -33.798 107.039 -59.1148 89.3677C-62.1733 85.7146 -66.3361 83.4207 -71.4335 85.9694C-71.8582 86.2243 -75.9361 90.727 -76.5308 92.4261C-81.2034 99.7323 -102.018 118.423 -101.508 120.547C-100.743 123.86 -89.9539 126.154 -90.7185 121.991C-90.1238 120.971 -89.784 120.292 -89.1893 119.357C-88.5946 119.102 -88.0848 118.847 -87.5751 118.593C-86.8954 124.794 -81.883 129.467 -75.5113 129.467C-72.4529 137.962 -65.4016 144.164 -56.7361 146.373C-33.6281 194.543 0.014507 257.496 1.96849 260.724C4.09239 264.207 8.67998 271.853 13.3526 270.494C14.372 238.211 17.8552 199.046 21.4234 166.932C17.8552 160.901 10.0393 149.941 9.7844 150.451Z" fill="#952C28"/>
<path d="M124.646 135.499L82.4232 131.591L81.9135 119.782L81.3188 104.575L80.2144 78.4082H111.903C111.903 81.5516 124.646 135.499 124.646 135.499Z" fill="#952C28"/>
<path d="M119.718 54.96C113.006 40.7723 74.6914 39.5829 71.6329 54.6201C69.3391 66.0042 70.0188 73.7352 67.2152 82.5706C64.9214 89.8769 63.0524 97.353 67.555 104.234C76.6453 117.997 95.6755 113.919 105.191 103.13C114.706 92.2556 126.345 68.9777 119.718 54.96Z" fill="#952C28"/>
<path d="M119.717 54.9604C115.47 45.8701 98.2236 42.1321 85.5652 44.5109C85.2254 44.3409 84.8856 44.0861 84.4608 44.0011C82.4218 43.2365 79.7033 43.4914 78.259 44.9356C75.5404 43.9162 72.2271 44.7657 70.6979 47.5693C68.574 51.3923 71.3775 55.4702 71.3775 55.725C75.6253 57.9339 81.9121 58.6135 85.99 59.2932C92.3617 60.4826 100.008 61.0773 105.02 60.6525C105.7 65.0702 105.275 76.5392 101.537 80.872C96.2696 86.9888 72.9068 83.1658 68.2342 78.4083C67.9794 79.7676 67.5545 81.1269 67.1298 82.4862C64.8359 89.7924 62.9669 97.2685 67.4696 104.15C76.5599 117.913 95.59 113.835 105.105 103.045C114.705 92.2561 126.344 68.9782 119.717 54.9604Z" fill="black"/>
<path d="M82.5093 81.1269C81.3199 81.2118 79.9606 81.2968 78.7712 80.872C77.4119 80.3622 76.1376 78.7481 77.3269 77.3888C77.7517 76.8791 76.9871 76.0295 76.5624 76.6242C75.4579 77.8985 75.6278 79.6826 76.8172 80.872C78.3464 82.4012 80.5553 82.4012 82.5942 82.2313C83.1889 82.1463 83.1889 81.0419 82.5093 81.1269Z" fill="black"/>
<path d="M93.1285 90.2173C93.0436 89.5376 91.9392 89.5376 92.0241 90.2173C92.279 93.0208 90.1551 95.3146 87.3515 95.2297C86.6719 95.2297 86.6719 96.3341 87.3515 96.3341C90.7498 96.4191 93.4683 93.6155 93.1285 90.2173Z" fill="white"/>
<path d="M79.1099 69.6582C78.6851 74.1609 74.4373 77.5592 69.9347 76.3698C65.347 75.1804 63.393 70.168 65.1771 66.0051C65.432 65.3255 64.4975 64.8158 64.2426 65.4104C62.1187 70.2529 64.3275 76.0299 69.5948 77.3892C74.947 78.8335 79.7046 74.8406 80.2143 69.5733C80.2993 68.9786 79.1948 68.9786 79.1099 69.6582Z" fill="#BCD7FD"/>
<path d="M101.114 71.7821C101.369 76.3698 97.7154 80.2777 93.0428 79.768C88.3703 79.2583 85.6517 74.5857 86.8411 70.168C87.011 69.4883 85.9915 69.0636 85.8216 69.7432C84.4623 74.8406 87.4358 80.1928 92.873 80.7875C98.3101 81.3822 102.473 76.7945 102.218 71.5273C102.218 70.9326 101.114 71.0175 101.114 71.7821Z" fill="#BCD7FD"/>
<path d="M86.2446 71.3569C83.8659 71.187 81.5721 71.102 79.2783 70.9321C78.5986 70.9321 78.5986 72.0366 79.2783 72.0366C81.5721 72.2065 83.8659 72.2914 86.2446 72.4613C86.2446 72.0366 86.2446 71.6967 86.2446 71.3569Z" fill="#BCD7FD"/>
<path d="M92.5316 70.677C92.4466 71.6964 92.2767 72.7159 92.1917 73.7354C92.1068 74.7548 93.7209 74.7548 93.8059 73.7354C93.8908 72.7159 94.0608 71.6964 94.1457 70.677C94.2307 69.5725 92.6165 69.5725 92.5316 70.677Z" fill="black"/>
<path d="M72.1429 66.5993C72.0579 67.6188 71.888 68.6382 71.803 69.6577C71.7181 70.6772 73.3323 70.6772 73.4172 69.6577C73.5022 68.6382 73.6721 67.6188 73.7571 66.5993C73.927 65.4949 72.3128 65.4949 72.1429 66.5993Z" fill="black"/>
<path d="M129.063 76.5392C127.619 71.187 119.888 67.6188 113.686 71.8666C113.006 77.8135 112.157 83.7604 111.222 89.7073C114.196 91.4914 120.652 92.1711 124.56 89.5374C129.063 86.564 130.507 82.2312 129.063 76.5392Z" fill="#952C28"/>
<path d="M120.144 78.3234C118.53 79.8526 116.916 81.2969 115.387 82.8261C114.877 83.3358 115.642 84.0155 116.151 83.5907C116.236 83.5058 116.406 83.4208 116.491 83.3358C116.576 83.3358 116.576 83.2509 116.576 83.2509C118.02 81.8916 119.465 80.5323 120.909 79.173C121.504 78.6633 120.654 77.8987 120.144 78.3234Z" fill="black"/>
<path d="M76.05 62.7767C74.9456 62.3519 73.8412 61.9271 72.7367 61.5024C72.142 61.2475 71.5473 61.7572 71.3774 62.267C71.2075 62.8617 71.6323 63.4563 72.142 63.6263C73.2465 64.051 74.3509 64.4758 75.4553 64.9006C76.05 65.1555 76.6447 64.6457 76.8146 64.136C76.9845 63.4563 76.6447 62.9466 76.05 62.7767Z" fill="black"/>
<path d="M93.892 61.8422C92.7876 61.7573 91.6832 61.7573 90.5788 61.6723C89.1345 61.5874 89.1345 63.7962 90.5788 63.8812C91.6832 63.9661 92.7876 63.9661 93.892 64.0511C95.3363 64.136 95.3363 61.8422 93.892 61.8422Z" fill="black"/>
</g>
<defs>
<clipPath id="clip0_3_12237">
<rect x="0.868164" width="198.663" height="198.663" rx="99.3317" fill="white"/>
</clipPath>
</defs>
</svg>
