<svg width="200" height="199" viewBox="0 0 200 199" fill="none" xmlns="http://www.w3.org/2000/svg">
<g clip-path="url(#clip0_3_12085)">
<rect x="0.579102" width="198.663" height="198.663" rx="99.3317" fill="#D7D372"/>
<path d="M39.6011 233.972C57.2866 240.856 75.3206 246.775 93.3996 252.465C116.738 259.764 140.305 266.712 163.492 274.379C179.915 219.477 193.523 153.344 193.415 137.243C193.175 102.328 139.539 98.4352 139.539 98.4352C139.539 98.4352 66.6292 104.694 66.0884 107.451C65.6076 109.902 21.2008 204.337 13.7545 223.623C22.3906 227.103 30.935 230.645 39.6011 233.972Z" fill="#697CCC"/>
<path d="M21.6807 228.255C18.8832 234.667 17.3569 238.718 17.666 238.778C17.975 238.838 22.1072 241.063 28.7624 244.728C12.7375 248.648 -11.2975 253.305 -47.1285 257.961C-134.052 269.368 -150.48 269.258 -136.521 375.591C-131.953 410.386 -132.918 433.436 -132.269 447.552C-114.156 448.068 -86.467 449.259 -68.4445 450.231C-58.6603 357.286 -71.0466 338.834 -71.0466 338.834C-71.0466 338.834 -70.6253 336.308 10.029 349.608C122.683 368.257 135.062 374.614 152.334 334.498C160.542 315.385 168.95 289.197 176.367 262.342C124.749 251.127 73.5255 238.329 21.6807 228.255Z" fill="black"/>
<path d="M86.3121 262.823C86.3121 262.823 100.98 258.085 16.3718 235.029C-91.8662 205.65 -112.601 204.155 -150.711 306.736C-162.57 338.565 -170.053 357.655 -175.2 370.64C-159.511 380.163 -135.695 396.873 -119.761 405.969C-71.4219 331.919 -79.3752 314.97 -75.4817 301.425C-75.4817 301.425 -75.4817 301.425 -51.5793 316.887C-39.9944 313.526 -28.0195 311.031 -16.4799 307.897C1.60061 302.952 19.7282 298.175 37.8559 293.397C56.4153 288.466 74.9899 283.458 93.5325 278.208L86.3121 262.823Z" fill="black"/>
<path d="M8.91525 169.083C-1.12362 191.847 -3.19733 197.385 -3.19733 197.385C-3.19733 197.385 -69.0092 190.96 -94.7648 203.411C-101.38 206.081 -112.633 217.4 -113.089 222.146C-113.22 223.213 -113.698 225.618 -110.937 225.195C-110.543 228.93 -109.183 230.662 -107.969 230.264C-106.085 234.665 -100.764 234.014 -99.9765 231.277C-98.9755 234.813 -95.1385 237.55 -84.8613 225.427C-84.3471 225.289 -71.9429 225.327 -70.4264 225.452C-64.1006 228.727 -70.5476 230.962 -75.0684 233.709C-76.9169 234.847 -77.9502 238.006 -76.2587 238.475C-68.96 240.529 -54.7605 231.938 -49.1664 228.688L37.8195 239.19L56.852 178.507C40.7524 175.837 24.7311 173.181 8.91525 169.083Z" fill="#952C28"/>
<path d="M136.938 98.5796L109.443 107.23L71.5798 119.164L54.2194 175.034C38.5641 170.973 22.9844 166.532 7.17817 163.232C10.7107 155.15 15.2527 144.815 21.1722 131.588C40.3988 88.5581 53.6595 89.3115 105.572 95.1862C114.755 96.255 125.128 97.3965 136.938 98.5796Z" fill="#697CCC"/>
<path d="M6.42122 200.289L-1.08144 197.228C-1.68569 196.97 -2.09571 197.822 -1.49147 198.08C1.00463 199.125 3.50071 200.17 6.0112 201.14C6.61544 201.398 7.02547 200.547 6.42122 200.289Z" fill="white"/>
<path d="M68.6462 116.125C66.7213 124.459 64.7838 132.873 62.8589 141.208C62.6851 141.831 63.6238 142.014 63.7255 141.377C65.6503 133.042 67.5879 124.628 69.5127 116.293C69.6866 115.67 68.82 115.501 68.6462 116.125Z" fill="white"/>
<path d="M55.836 177.863L32.7413 173.256C31.437 172.996 30.3598 171.986 30.14 170.669L21.0617 126.79C20.5621 124.463 22.6395 122.412 24.9413 122.872L48.036 127.479C49.3404 127.739 50.4176 128.749 50.6374 130.065L59.7156 173.945C60.2152 176.271 58.1378 178.322 55.836 177.863Z" fill="black"/>
<path d="M45.5755 128.966C43.1824 128.594 40.7761 128.299 38.383 127.928C37.7448 127.829 37.5875 128.741 38.2257 128.84C40.6188 129.211 43.0251 129.506 45.4182 129.877C46.0564 129.976 46.2137 129.065 45.5755 128.966Z" fill="white"/>
<path d="M42.5808 134.593C40.9215 134.104 38.9449 134.823 38.2301 136.429C38.215 136.506 38.2 136.582 38.185 136.659C38.0931 136.72 38.0781 136.796 38.063 136.873C37.7021 138.708 38.937 140.544 40.7648 140.987C42.5159 141.415 44.107 140.222 44.6065 138.493C44.9992 136.903 44.2249 135.159 42.5808 134.593ZM41.0839 140.176C39.7017 139.901 38.7755 138.525 39.0462 137.148C39.0613 137.072 39.0613 137.072 39.0763 136.995L39.1681 136.934C40.2938 134.456 44.3635 135.266 43.7919 138.172C43.3977 139.365 42.3892 140.436 41.0839 140.176Z" fill="white"/>
<path d="M53.1271 157.691C51.733 149.418 50.3534 141.066 48.8854 132.778C48.7648 132.182 47.8354 132.23 47.9561 132.825L52.1978 157.739C52.304 158.413 53.2334 158.365 53.1271 157.691Z" fill="white"/>
<path d="M42.6399 146.08C43.3182 146.215 43.9758 145.777 44.1087 145.101C44.2416 144.425 43.7994 143.767 43.1212 143.632C42.4429 143.497 41.7853 143.935 41.6524 144.611C41.5195 145.287 41.9616 145.945 42.6399 146.08Z" fill="white"/>
<path d="M185.301 191.351C176.394 187.651 167.566 183.966 158.782 180.056C153.271 177.617 147.822 175.269 142.099 173.493L133.68 195.094C133.68 195.094 82.5224 175.276 75.032 173.013C74.877 166.038 73.4734 157.189 70.9406 151.173C68.5043 145.487 64.329 142.441 62.3877 141.608C58.5053 139.944 58.4363 148.048 62.3923 150.975C62.7782 152.296 59.7687 162.97 53.2122 160.492C51.7511 159.282 50.2751 158.146 48.7991 157.011C47.2266 155.545 37.517 150.993 31.3476 142.89C29.9163 141.529 28.2669 138.41 26.2659 137.878C23.655 137.155 21.5483 138.789 21.8516 141.343C21.9216 142.215 27.4478 149.885 28.0164 150.694C27.9325 153.566 27.2284 155.073 27.9072 157.776C27.4776 160.349 27.4834 162.769 27.8946 165.188C25.5697 175.679 32.4087 183.673 41.0386 189.584C43.6702 192.653 47.0231 196.17 51.0973 200.134C107.713 255.316 145.121 272.165 166.652 271.442C181.588 270.887 198.191 232.948 204.571 201.208C204.675 200.681 204.78 200.155 204.884 199.628C198.246 196.744 191.813 194.055 185.301 191.351Z" fill="#952C28"/>
<path d="M140.164 170.783L161.829 113.668L150.134 102.855L140.52 93.9764C145.178 94.5137 150.447 95.1739 155.93 95.957C182.277 99.6573 213.687 107.09 210.983 132.651C209.556 146.016 206.914 171.669 201.993 196.386C181.146 188.522 160.526 179.906 140.164 170.783Z" fill="#697CCC"/>
<path d="M141.698 200.932C139.786 198.824 137.874 196.716 135.962 194.608C135.574 194.137 134.944 194.883 135.333 195.353C137.244 197.462 139.156 199.57 141.068 201.678C141.472 202.072 142.102 201.327 141.698 200.932Z" fill="white"/>
<path d="M35.4315 162.287C32.8967 160.002 30.4398 157.731 27.905 155.446C27.4202 155.04 26.8032 155.707 27.273 156.188C29.8078 158.473 32.2647 160.744 34.7995 163.029C35.2065 163.42 35.9163 162.693 35.4315 162.287Z" fill="#D24A43"/>
<path d="M32.0192 167.156C29.6651 165.67 27.9102 163.589 26.894 161.021C26.6904 160.428 25.7349 160.795 25.9536 161.312C27.0942 164.062 29.0508 166.34 31.6216 167.948C32.1946 168.297 32.5921 167.505 32.0192 167.156Z" fill="#D24A43"/>
<path d="M30.0253 174.292C28.7372 172.696 27.4491 171.099 26.1459 169.58C25.758 169.108 24.9275 169.658 25.3154 170.129C26.6035 171.725 27.8916 173.321 29.1948 174.841C29.5827 175.312 30.4132 174.763 30.0253 174.292Z" fill="#D24A43"/>
<path d="M47.3569 200.665C37.5103 194.474 29.9337 185.328 25.8068 174.564C25.6032 173.971 24.6631 174.262 24.8667 174.855C29.1029 185.877 36.8039 195.205 46.8672 201.517C47.455 201.79 47.8675 200.922 47.3569 200.665Z" fill="#D24A43"/>
<path d="M149.285 132.666C146.109 144.437 142.993 156.302 139.817 168.073C139.642 168.695 140.507 168.869 140.682 168.246C143.858 156.476 146.974 144.611 150.15 132.84C150.397 132.232 149.46 132.044 149.285 132.666Z" fill="white"/>
<path d="M137.136 94.9047C125.118 93.8132 114.483 92.7402 105.216 91.76C105.044 95.9696 106.52 100.091 109.274 103.519C109.609 103.888 109.866 104.243 110.201 104.612C114.369 109.143 120.437 111.472 126.784 111.539C134.843 111.607 141.753 108.384 147.207 103.432C149.392 101.437 151.384 99.175 153.091 96.7075C147.362 95.981 142.013 95.4002 137.136 94.9047Z" fill="#952C28"/>
<path d="M146.95 100.172L110.906 103.905L108.436 94.1897L105.221 81.7235L99.724 60.1321L126.257 54.91C126.943 57.5695 146.95 100.172 146.95 100.172Z" fill="#952C28"/>
<path d="M107.343 95.5252L107.465 96.0376C112.411 92.4811 115.828 87.1065 117.83 80.8269C120.427 72.4366 119.285 64.7543 118.004 56.6362L99.156 60.542L104.367 82.7312L107.343 95.5252Z" fill="black"/>
<path d="M126.202 33.807C118.354 22.9592 86.705 28.2079 86.6482 41.5056C86.6098 51.4599 86.761 78.9941 91.5832 84.031C101.302 94.122 116.236 87.5027 122.243 76.8764C128.341 66.1915 134.065 44.5788 126.202 33.807Z" fill="#952C28"/>
<path d="M128.277 37.544C129.169 36.4247 129.585 34.9012 129.507 33.0468C129.215 28.8505 125.697 26.8271 122.331 27.0565C120.863 24.5342 117.496 22.925 114.505 22.9246C113.125 22.9481 111.758 23.2808 110.591 23.8077C109.898 23.2825 109.095 22.8881 108.26 22.6404C106.341 22.1706 104.662 22.8222 103.195 23.977L103.179 24.0503C100.3 23.5368 97.366 24.0079 95.4873 26.3039C95.2521 26.6387 95.0168 26.9735 94.8429 27.3975C89.951 24.633 83.5603 23.17 81.4218 28.8598C80.9774 30.1475 80.9068 31.2055 81.178 32.1803C80.2402 33.1371 79.4862 34.3614 79.1322 35.9741C78.5399 38.3039 81.1264 40.5193 83.5667 39.7173C84.0954 39.5192 84.6241 39.3211 85.1366 39.1964C85.5948 40.0563 86.2399 40.8013 87.2267 41.4632C91.2352 44.1998 95.2485 42.4946 97.3364 39.2456C100.925 40.211 104.774 39.6211 107.937 37.7413C108.45 39.4552 109.911 40.9037 112.232 41.3795C113.393 41.6174 114.525 41.6195 115.472 41.3541C116.934 44.6412 119.525 48.3128 124.145 48.2639C126.33 48.2523 126.824 56.32 128.852 56.6591C130.068 50.0142 130.294 43.0897 128.277 37.544Z" fill="black"/>
<path d="M99.9257 62.8903C98.8977 63.1413 97.7761 63.4497 96.6726 63.304C95.4137 63.1271 94.0358 62.0109 94.7277 60.7007C95.0108 60.1473 94.2202 59.6832 93.9371 60.2365C93.2612 61.4737 93.6728 62.9295 94.9752 63.6492C96.5404 64.6505 98.5028 64.2061 100.138 63.7722C100.746 63.5893 100.533 62.7074 99.9257 62.8903Z" fill="black"/>
<path d="M94.4185 54.3424C94.8677 58.1425 91.9322 61.6132 87.8072 61.359C83.6822 61.1047 81.1218 57.3987 81.9506 53.6371C82.0806 53.0471 81.1749 52.7785 81.0449 53.3685C80.0862 57.7202 82.9938 62.0399 87.7659 62.2765C92.5379 62.5132 95.9108 58.5173 95.3449 54.1522C95.2444 53.5134 94.318 53.7036 94.4185 54.3424Z" fill="#BCD7FD"/>
<path d="M113.815 50.9284C114.841 54.6369 112.474 58.47 108.387 58.8332C104.301 59.1964 101.2 55.8175 101.48 52.0016C101.534 51.393 100.6 51.27 100.562 51.8045C100.304 56.2455 103.783 60.093 108.514 59.7131C113.245 59.3332 115.912 54.8668 114.787 50.5169C114.579 50.0071 113.7 50.361 113.815 50.9284Z" fill="#BCD7FD"/>
<path d="M100.908 53.6551C98.8931 53.9436 96.8778 54.2322 94.8625 54.5207C94.2688 54.6321 94.4854 55.5094 95.0792 55.398C97.0945 55.1094 99.1098 54.8209 101.125 54.5324C101.032 54.2106 101.001 53.9769 100.908 53.6551Z" fill="#BCD7FD"/>
<path d="M106.342 51.2873C106.383 52.1845 106.498 53.0993 106.555 53.9197C106.67 54.8344 107.941 54.5782 107.9 53.681C107.858 52.7838 107.744 51.869 107.686 51.0486C107.588 50.0571 106.228 50.3726 106.342 51.2873Z" fill="black"/>
<path d="M87.8458 52.6265C87.8875 53.5234 88.0017 54.4379 88.0594 55.258C88.1737 56.1725 89.4463 55.9163 89.4046 55.0194C89.3629 54.1225 89.2487 53.2081 89.191 52.3879C89.0768 51.4735 87.7316 51.7121 87.8458 52.6265Z" fill="black"/>
<path d="M90.8207 46.8348C89.7599 46.8534 88.6991 46.8719 87.6541 46.8177C87.1706 46.7982 86.7163 47.3926 86.7929 47.7878C86.8379 48.3287 87.3519 48.5822 87.8354 48.6016C88.8962 48.583 89.9569 48.5644 91.0019 48.6187C91.4854 48.6381 91.9398 48.0438 91.8631 47.6486C91.8181 47.1077 91.3042 46.8542 90.8207 46.8348Z" fill="black"/>
<path d="M105.295 43.5085C104.381 43.6265 103.373 43.802 102.459 43.92C101.204 44.121 101.621 45.8962 102.876 45.6952C103.79 45.5772 104.798 45.4018 105.712 45.2838C106.874 45.1403 106.457 43.365 105.295 43.5085Z" fill="black"/>
<path d="M112.229 73.9587C111.354 75.8131 109.662 77.0859 107.627 77.4109C107.054 77.517 107.082 78.4716 107.655 78.3655C110.006 78.0337 111.971 76.5864 113.061 74.465C113.342 73.8971 112.493 73.466 112.229 73.9587Z" fill="black"/>
<path d="M129.793 46.1081C124.798 47.4644 119.802 48.8208 114.806 50.1772C114.199 50.3598 114.411 51.2431 115.018 51.0605C120.014 49.7041 125.009 48.3477 130.005 46.9913C130.69 46.8244 130.401 45.9254 129.793 46.1081Z" fill="#BCD7FD"/>
<path d="M139.174 49.1543C137.123 44.8819 130.048 43.1754 125.676 47.7917C126.138 52.8863 126.435 58.0219 126.732 63.1575C129.486 64.1871 134.923 63.6954 137.749 60.7825C140.94 57.6365 141.384 53.7799 139.174 49.1543Z" fill="#952C28"/>
<path d="M132.048 52.2816C131.048 53.8162 129.977 55.3331 128.962 56.9446C128.634 57.4305 129.364 57.9318 129.764 57.4635C129.852 57.4042 129.884 57.2503 129.972 57.1909C129.988 57.114 129.988 57.114 130.004 57.037C130.972 55.6564 131.867 54.2581 132.85 52.8005C133.106 52.2971 132.376 51.7958 132.048 52.2816Z" fill="black"/>
</g>
<defs>
<clipPath id="clip0_3_12085">
<rect x="0.579102" width="198.663" height="198.663" rx="99.3317" fill="white"/>
</clipPath>
</defs>
</svg>
