<svg width="199" height="199" viewBox="0 0 199 199" fill="none" xmlns="http://www.w3.org/2000/svg">
<g clip-path="url(#clip0_3_12043)">
<rect x="0.000488281" width="198.663" height="198.663" rx="99.3317" fill="#5599FE"/>
<path d="M45.1254 123.976L108.947 116.863L185.826 146.679C185.826 146.679 188.165 350.52 183.488 349.351C178.713 348.182 6.44252 338.633 6.44252 335.027C6.44252 331.422 -4.86035 238.466 -4.86035 238.466L45.1254 123.976Z" fill="#FECA55"/>
<path d="M-12.1682 146.68C-37.7944 194.327 -44.9074 208.65 -44.9074 208.65L-124.027 138.397C-124.222 127.387 -125.976 116.084 -130.166 105.95C-135.428 93.3808 -143.612 91.7244 -152.382 81.8831C-157.449 76.1343 -163.49 83.9293 -158.423 89.6782L-153.259 95.9142C-153.161 99.0322 -151.407 107.217 -151.018 110.335C-159.495 102.248 -170.798 90.4577 -181.711 85.3909C-184.731 84.0267 -187.557 85.0986 -189.213 87.1448C-191.747 87.4371 -193.793 89.5807 -194.378 92.0167C-196.814 93.868 -198.178 97.6681 -196.034 100.884C-197.691 102.637 -198.567 105.171 -197.398 107.899C-197.301 108.094 -197.203 108.191 -197.203 108.386C-197.885 109.068 -197.008 111.504 -197.691 112.674C-200.711 118.033 -191.942 139.469 -175.67 150.187C-170.895 161.295 -160.956 168.506 -160.177 168.701C-142.93 191.891 -83.2006 274.519 -54.0666 301.606C-21.0351 332.397 6.15022 293.811 28.1713 223.558C50.1923 153.208 54.3821 129.433 54.3821 129.433L110.994 117.545C39.1818 113.258 13.5555 98.9348 -12.1682 146.68Z" fill="#FFA79B"/>
<path d="M111.287 117.449L109.923 117.741L71.5324 125.828L54.6756 129.336C54.6756 129.336 50.4858 153.208 28.4647 223.461C27.0032 228.041 25.5416 232.523 24.08 236.81C4.88468 220.441 -14.8953 204.753 -34.8701 189.26C-29.8033 179.614 -22.4954 165.778 -12.0695 146.485C7.71041 109.751 27.3929 109.848 68.4144 113.648C80.2044 114.72 93.6509 116.182 109.436 117.156C110.02 117.351 110.605 117.351 111.287 117.449Z" fill="#FECA55"/>
<path d="M26.7072 155.547C24.9533 174.839 23.1994 194.132 21.3481 213.425C21.2507 214.204 22.5174 214.204 22.5174 213.425C24.2713 194.132 26.0252 174.839 27.8765 155.547C27.8765 154.767 26.7072 154.767 26.7072 155.547Z" fill="white"/>
<path d="M108.848 116.864C152.402 121.054 207.747 114.525 214.373 154.377C220.902 194.327 225.676 212.743 228.697 241.39C231.717 270.037 242.435 304.53 206.676 308.135C170.916 311.74 88.6779 318.269 88.6779 318.269L72.6006 274.714C72.6006 274.714 139.346 250.841 160.782 244.313L156.592 158.47L108.848 116.864Z" fill="#FFA79B"/>
<path d="M227.038 227.943C204.627 228.431 182.216 229.405 160.195 233.108L156.59 158.567L127.164 132.844L109.917 117.741L109.43 117.351L108.845 116.864C118.589 117.838 128.917 118.228 139.148 118.715C174.713 120.469 209.207 123.392 214.273 154.475C219.827 187.701 224.115 206.117 227.038 227.943Z" fill="#FECA55"/>
<path d="M159.029 171.722C159.029 170.942 157.859 170.942 157.859 171.722C157.957 190.235 158.054 208.651 158.152 227.164C158.152 227.944 159.321 227.944 159.321 227.164C159.224 208.651 159.126 190.138 159.029 171.722Z" fill="white"/>
<path d="M104.371 126.802C112.75 124.756 120.935 122.418 129.217 120.079L111.094 77.3037L79.3291 91.4323C79.9137 91.9194 84.9805 112.674 88.9755 129.628C94.1397 128.654 99.304 127.972 104.371 126.802Z" fill="#FFA79B"/>
<path d="M101.443 84.6116C101.346 83.3449 101.249 82.0782 100.956 80.8115L79.4224 91.5297C79.8121 91.822 82.1506 100.981 84.7815 111.992C92.9663 104.294 99.3972 94.9401 101.443 84.6116Z" fill="black"/>
<path d="M135.548 56.1594C135.353 45.1488 118.886 33.846 105.83 32.287C100.178 31.6049 98.8141 27.0253 96.0858 30.8254C89.3625 40.3744 67.4389 69.3135 68.4133 80.6163C69.8749 97.0834 89.7523 100.786 102.712 94.6474C115.768 88.5088 135.841 71.7495 135.548 56.1594Z" fill="#FFA79B"/>
<path d="M136.233 58.5954C137.987 55.7697 137.11 52.2619 134.771 50.3132C134.674 50.2157 134.674 50.2157 134.576 50.1183C135.356 44.6617 131.361 40.277 126.489 39.7899C125.904 38.4257 124.833 37.3539 123.371 36.6718C123.176 36.0872 122.981 35.6 122.591 35.2102C121.714 34.3333 120.643 33.9436 119.473 33.9436C118.694 31.5076 117.33 29.3639 114.991 28.1947C113.53 27.4152 111.873 27.6101 110.607 28.2921C107.781 25.369 104.273 22.933 100.765 22.7382C99.3037 22.6407 96.3806 23.3228 95.1139 26.928C93.6523 26.8306 92.2882 27.61 91.6061 29.1691C90.6317 31.5076 91.801 33.9436 93.6523 35.4051C94.7242 36.2821 96.2831 36.8667 97.7447 36.7692C102.227 41.7386 114.407 50.3132 117.33 50.2158C115.089 55.38 112.555 67.2674 118.694 68.3392C119.863 73.5035 114.114 81.9806 116.94 85.5858C123.176 80.519 129.022 74.3804 132.433 67.7546C132.53 67.7546 132.725 67.7546 132.92 67.7546C137.305 66.7802 138.669 61.7134 136.233 58.5954Z" fill="#952C28"/>
<path d="M130.579 81.0065C132.041 75.1602 126.292 67.6575 118.009 68.437C114.209 73.7961 110.312 79.0577 106.317 84.222C108.266 87.5349 114.209 91.5299 119.471 91.1401C125.415 90.5555 129.02 87.2426 130.579 81.0065Z" fill="#FFA79B"/>
<path d="M121.617 77.1083C119.279 77.4006 116.94 77.5955 114.602 77.8878C113.822 77.9852 114.017 79.0571 114.797 79.0571C114.991 79.0571 115.089 79.0571 115.284 79.0571C115.381 79.0571 115.381 79.0571 115.479 79.0571C117.622 78.8622 119.668 78.5699 121.812 78.375C122.592 78.1801 122.397 77.0109 121.617 77.1083Z" fill="#952C28"/>
<path d="M102.615 56.9392C101.933 57.7187 101.154 58.5956 100.472 59.3751C99.6922 60.2521 98.523 58.8879 99.3025 58.1084C99.9845 57.3289 100.764 56.452 101.446 55.6725C102.128 54.7955 103.297 56.0622 102.615 56.9392Z" fill="black"/>
<path d="M91.6036 47.8772C90.9216 48.6567 90.142 49.5336 89.46 50.3131C88.6805 51.1901 87.5113 49.8259 88.2908 49.0464C88.9728 48.2669 89.7523 47.39 90.4344 46.6105C91.1164 45.7335 92.2857 47.0002 91.6036 47.8772Z" fill="black"/>
<path d="M84.8826 56.4522C85.5647 56.7445 85.1749 57.8164 84.4928 57.5241C82.9338 56.9395 82.1543 58.7908 82.5441 60.0575C82.9338 61.3242 84.0056 62.2011 84.98 63.078C85.5647 63.5652 84.8826 64.5396 84.298 64.0524C82.7389 62.6883 80.8876 60.9344 81.3748 58.5959C81.5697 56.9394 83.3236 55.8676 84.8826 56.4522Z" fill="#952C28"/>
<path d="M104.856 50.7023C105.732 51.6767 106.512 52.5536 107.389 53.528C108.461 54.6973 106.609 56.1588 105.538 54.9896C104.661 54.0152 103.881 53.1383 103.004 52.1639C102.03 50.9946 103.881 49.5331 104.856 50.7023Z" fill="#952C28"/>
<path d="M93.9422 41.0566C94.5269 41.5438 95.1115 42.031 95.7935 42.5181C96.9628 43.4925 95.5987 45.3438 94.4294 44.4669C93.8448 43.9797 93.2602 43.4925 92.5781 43.0053C91.4088 42.031 92.773 40.0822 93.9422 41.0566Z" fill="#952C28"/>
<path d="M77.7682 74.9656C78.7425 76.0374 80.399 76.3297 81.6657 75.7451C82.3477 75.4527 82.8349 76.5246 82.1529 76.8169C80.3015 77.5964 78.2553 77.2066 76.7938 75.7451C76.3066 75.1604 77.1835 74.4784 77.7682 74.9656Z" fill="#952C28"/>
<path d="M139.252 118.714C136.329 124.268 132.139 129.043 127.17 132.843C121.713 137.033 115.185 139.956 107.877 141.125C93.8462 143.366 78.0612 137.422 71.4354 125.827C69.4866 122.319 68.3174 118.324 68.3174 113.842C80.1074 114.914 93.5539 116.376 109.339 117.35L108.754 116.863C118.595 117.74 128.924 118.13 139.252 118.714Z" fill="#FFA79B"/>
</g>
<defs>
<clipPath id="clip0_3_12043">
<rect x="0.000488281" width="198.663" height="198.663" rx="99.3317" fill="white"/>
</clipPath>
</defs>
</svg>
