<svg width="200" height="199" viewBox="0 0 200 199" fill="none" xmlns="http://www.w3.org/2000/svg">
<g clip-path="url(#clip0_3_12191)">
<rect x="0.446777" width="198.663" height="198.663" rx="99.3317" fill="#B18FFA"/>
<path d="M83.5663 76.405C83.5549 75.912 82.9615 75.8602 82.6705 76.0808C82.4446 76.2065 82.345 76.5556 82.4063 76.8741C82.0997 78.7482 81.8583 80.5275 81.5518 82.4016C76.7134 76.3104 67.9197 74.358 61.0088 78.7311C54.5496 82.8528 52.4698 90.6776 55.0876 97.3579C50.8613 94.451 44.9463 95.3327 40.0839 96.9213C33.112 99.2428 26.3811 103.251 22.6283 109.745C19.316 115.494 18.7331 122.868 22.5646 128.491C25.9368 133.46 32.1118 135.664 37.7782 133.922C38.4933 139.81 44.699 142.174 50.0933 142.052C56.8199 141.923 63.964 140.064 69.8526 136.877C80.2591 131.176 87.6305 118.792 82.6512 107.198C89.3396 106.004 94.3749 99.678 94.5021 92.9688C94.5528 85.8616 89.6991 79.6907 83.5663 76.405Z" fill="#D24A43"/>
<path d="M169.223 138.063C173.633 157.371 175.828 177.419 179.05 196.911C182.43 217.517 185.793 238.044 189.173 258.65L189.822 262.038C178.826 264.567 167.24 267.391 156.228 269.842C124.614 276.959 93.4835 285.939 61.954 293.448C47.0238 257.997 33.2418 221.798 21.8641 184.982C16.2005 166.691 15.525 147.619 29.2238 132.578C35.8505 125.353 44.1857 121.116 53.2052 118.534C55.1239 117.943 57.1207 117.334 59.0732 116.9C61.7118 116.23 64.4453 115.622 67.1345 115.188C70.3536 114.554 73.6846 114.059 76.8593 113.599L98.424 110.361L106.665 109.103C107.228 109.059 107.775 108.938 108.322 108.816C116.155 107.566 124.05 106.22 131.936 106.354C140.057 106.437 148.757 108.444 155.186 113.585C162.884 119.676 167.048 128.36 169.223 138.063Z" fill="#FECA55"/>
<path d="M26.9817 173.303C26.6268 212.094 40.082 251.532 73.1723 249.891C106.263 248.25 26.9817 173.303 26.9817 173.303Z" fill="black"/>
<path d="M159.446 167.542C155.275 157.165 151.103 146.789 147.007 136.395C146.738 135.78 145.891 136.225 146.086 136.857C149.704 145.923 153.322 154.988 157.029 164.118C160.244 172.261 166.826 183.528 161.208 192.067C160.852 192.655 161.656 193.233 162.012 192.645C167.2 184.711 162.481 175.134 159.446 167.542Z" fill="black"/>
<path d="M100.183 107.454L105.887 159.718C105.887 159.718 76.5025 131.237 61.1746 114.207C63.7923 113.533 66.5044 112.919 69.1725 112.481C72.3663 111.842 75.6711 111.343 78.821 110.879L100.183 107.454Z" fill="#FFA79B"/>
<path d="M104.388 101.482C103.531 102.422 97.0015 146.83 97.0015 146.83L68.787 120.503L80.3621 93.0576L104.388 101.482Z" fill="#FFA79B"/>
<path d="M101.649 122.567C103.259 112.111 104.892 102.15 105.286 101.726L90.9007 96.556C89.7657 105.819 95.0239 115.351 101.649 122.567Z" fill="black"/>
<path d="M87.5574 48.6789C94.9215 41.4984 113.201 44.9561 122.745 52.6079C126.886 55.9583 130.822 53.7525 130.041 58.1303C128.102 68.9482 121.26 105.011 115.062 109.622C102.572 118.782 87.8083 108.847 83.4549 96.0702C79.0403 83.3895 77.0976 58.9468 87.5574 48.6789Z" fill="#FFA79B"/>
<path d="M134.032 49.5612C129.801 45.8782 120.61 46.3323 116.095 47.9007C106.262 43.8531 93.8516 42.9725 87.9675 48.2582C80.6967 54.8679 79.1181 67.6559 80.1143 79.1948C84.5071 78.6101 86.6837 75.5257 90.9823 72.9631C104.437 71.7114 113.523 63.0504 115.575 58.2339C118.194 61.0501 128.839 61.8947 132.541 58.8957C137.5 54.3598 135.372 50.7234 134.032 49.5612Z" fill="#D24A43"/>
<path d="M72.456 72.824C75.4899 67.8734 84.5648 66.6638 89.6525 72.8361C88.5337 79.0832 87.5879 85.3736 86.7202 91.6466C83.143 92.5294 76.3218 91.2631 73.1161 87.3803C69.3856 82.958 69.1767 78.1581 72.456 72.824Z" fill="#FFA79B"/>
<path d="M82.0611 77.3302C83.0586 79.1055 84.0724 80.9607 85.0699 82.7361C85.4277 83.322 84.4882 83.792 84.1303 83.2061C84.0218 83.064 84.0056 82.9842 83.8972 82.8421C83.8809 82.7622 83.8809 82.7622 83.8647 82.6824C82.9757 81.0491 82.0866 79.4158 81.1053 77.7203C80.8397 77.1966 81.7792 76.7266 82.0611 77.3302Z" fill="#952C28"/>
<path d="M107.958 74.1056C107.482 74.9488 107.102 75.8528 106.626 76.6959C106.167 77.6173 107.589 78.1206 108.065 77.2774C108.54 76.4343 108.921 75.5303 109.396 74.6871C109.855 73.7657 108.417 73.1842 107.958 74.1056Z" fill="black"/>
<path d="M123.735 76.5675C123.259 77.4107 122.879 78.3147 122.403 79.1579C121.944 80.0793 123.366 80.5825 123.842 79.7394C124.317 78.8962 124.698 77.9922 125.173 77.149C125.632 76.2276 124.193 75.6461 123.735 76.5675Z" fill="black"/>
<path d="M119.081 85.6981C118.503 85.3374 117.936 86.1807 118.514 86.5414C119.768 87.323 118.84 88.8055 117.757 89.1944C116.675 89.5833 115.442 89.28 114.305 89.0369C113.601 88.8636 113.323 89.8873 113.931 90.0005C115.772 90.4169 118.012 90.7494 119.435 89.2431C120.464 88.2221 120.431 86.5398 119.081 85.6981Z" fill="#952C28"/>
<path d="M111.693 70.1958C110.588 70.1059 109.467 69.9393 108.363 69.8494C107.002 69.733 106.86 71.7698 108.221 71.8863C109.326 71.9761 110.447 72.1428 111.551 72.2326C112.912 72.3491 113.053 70.3122 111.693 70.1958Z" fill="#952C28"/>
<path d="M126.363 71.0848C125.741 70.8947 125.04 70.7217 124.418 70.5315C123.096 70.1684 122.452 72.171 123.775 72.5342C124.397 72.7243 125.098 72.8974 125.719 73.0875C126.946 73.3903 127.685 71.448 126.363 71.0848Z" fill="#952C28"/>
<path d="M108.844 100.329C107.594 100.199 106.566 99.1944 106.298 97.9355C106.164 97.3061 105.153 97.5345 105.287 98.164C105.655 99.8949 107.062 101.144 108.812 101.325C109.406 101.439 109.439 100.442 108.844 100.329Z" fill="#952C28"/>
<path d="M200.057 198.509C201.208 196.801 229.165 141.56 229.991 140.89C230.818 140.221 274.366 139.995 274.366 139.995L242.718 200.737L200.057 198.509Z" fill="#2252B2"/>
<path d="M157.165 219.204C151.079 211.39 145.719 203.168 140.203 194.98C124.54 203.073 112.528 209.613 112.528 209.613C112.528 209.613 86.471 177.583 53.171 141.792C53.171 141.792 23.9416 181.201 24.2655 182.697C24.5894 184.194 88.9331 299.114 112.334 297.066C127.98 295.663 151.947 267.655 174.686 240.744C168.753 233.64 162.821 226.535 157.165 219.204Z" fill="#FECA55"/>
<path d="M204.202 171.737C200.583 172.919 195.295 171.766 190.456 173.779C186.346 178.736 160.69 190.42 146.175 197.602C149.428 214.278 163.374 245.062 180.301 242.095C198.169 221.637 215.122 202.271 226.628 196.793C228.276 196.033 204.202 171.737 204.202 171.737Z" fill="#FFA79B"/>
<path d="M249.553 175.264C251.049 173.008 249.261 170.547 247.57 170.414C248.08 168.203 246.342 164.841 244.397 165.814C244.397 165.814 245.059 163.166 242.199 161.496C238.551 160.395 230.318 167.134 224.063 171.922C219.911 172.303 204.085 175.121 203.967 176.846C202.419 176.603 200.7 176.719 199.049 177.144C189.962 177.746 186.575 188.008 190.295 195.085C192.572 199.387 196.868 202.295 201.548 203.18C200.716 205.055 204.22 212.663 206.528 211.452C232.207 198.318 237.561 206.026 250.231 181.357C252.895 177.238 251.368 175.208 249.553 175.264Z" fill="#FFA79B"/>
<path d="M140.661 198.142C130.851 202.008 120.976 205.966 111.166 209.833C110.858 209.969 110.468 210.12 110.159 210.256C103.695 212.793 97.3121 215.315 90.864 217.929C90.2467 218.201 89.7152 217.264 90.3325 216.992C96.7154 214.469 103.098 211.947 109.481 209.425C109.79 209.289 110.18 209.138 110.488 209.002C120.364 205.044 130.255 201.162 140.227 197.266C140.844 196.994 141.294 197.946 140.661 198.142Z" fill="white"/>
<path d="M111.092 208.692C110.805 208.841 110.442 209.008 110.155 209.157C109.936 208.873 109.718 208.588 109.499 208.304C98.4201 193.703 87.3242 179.022 76.245 164.42C75.8248 163.931 76.6199 163.164 76.9641 163.671C88.1525 178.414 99.2484 193.095 110.437 207.839C110.655 208.123 110.874 208.408 111.092 208.692Z" fill="white"/>
<path d="M203.882 165.741C199.001 166.06 194.828 168.474 192.13 172.275C191.748 172.829 192.622 173.376 193.005 172.822C195.574 169.206 199.459 167.007 204.099 166.736C204.776 166.763 204.543 165.691 203.882 165.741Z" fill="#952C28"/>
</g>
<defs>
<clipPath id="clip0_3_12191">
<rect x="0.446777" width="198.663" height="198.663" rx="99.3317" fill="white"/>
</clipPath>
</defs>
</svg>
