<svg width="199" height="200" viewBox="0 0 199 200" fill="none" xmlns="http://www.w3.org/2000/svg">
<g clip-path="url(#clip0_3_13912)">
<rect x="0.290039" y="0.375977" width="198.663" height="198.663" rx="99.3317" fill="#6CFFB0"/>
<path d="M79.7868 60.8334C79.7868 60.8334 29.6645 90.3873 47.4196 98.3697C67.5886 107.441 102.018 94.8913 102.018 94.8913L79.7868 60.8334Z" fill="#D6261D"/>
<path d="M108.135 242.887C108.135 242.887 248.005 307.575 271.354 311.981C294.71 316.415 309.022 322.434 315.755 310.867C323.26 309.94 323.809 307.59 326.378 301.495C332.816 300.501 330.382 290.297 319.426 288.285C308.499 286.264 274.301 272.979 274.301 272.979C274.301 272.979 308.265 268.582 308.55 262.141C308.872 255.722 263.147 252.707 263.147 252.707L130.097 188.217L108.135 242.887Z" fill="#F8934F"/>
<path d="M152.081 195.777C150.576 196.572 148.979 197.617 147.306 198.971C131.464 211.847 132.755 236.374 138.328 254.351C147.706 258.738 158.603 263.831 170.108 269.109C170.028 267.594 170.051 266.115 170.292 264.64C170.888 260.923 173.501 257.904 174.025 254.271C175.206 246.071 168.052 236.434 166.421 228.427C164.608 219.476 169.165 212.66 169.478 204.473L152.081 195.777Z" fill="#F77C2D"/>
<path d="M167.753 195.75L166.758 198.936L147.876 259.513L140.904 291.66L138.902 323.711L-42.8553 371.005C-42.8553 371.005 -37.5852 200.281 54.9713 145.455C56.0946 145.729 57.2258 146.033 58.357 146.336C75.1068 150.789 93.0339 157.861 109.428 165.269L109.503 165.312C141.586 179.872 167.753 195.75 167.753 195.75Z" fill="#0064C8"/>
<path d="M64.0195 147.34C64.0195 147.34 92.4035 178.319 103.206 175.738C114.008 173.157 113.15 164.107 113.15 164.107L64.0195 147.34Z" fill="#0055A8"/>
<path d="M171.457 197.149L170.473 200.351C166.348 198.405 159.238 194.75 155.243 194.604C148.577 194.406 146.109 195.597 141.175 190.131C138.391 187.04 135.855 183.092 131.947 181.246C126.993 178.919 122.098 176.575 117.652 172.468C114.665 169.683 113.946 169.24 113.403 166.6L113.477 166.644C145.422 181.225 171.457 197.149 171.457 197.149Z" fill="#0F70D1"/>
<path d="M56.2674 143.743C54.6355 149.241 50.054 154.991 46.5878 158.055C37.0616 166.503 26.81 172.791 19.7106 183.896C11.8286 196.325 12.3386 213.309 6.4691 226.82C3.82977 232.908 -0.215687 238.068 -2.7807 244.199C-7.41183 255.373 -7.24543 267.707 -6.99681 279.638C-6.61035 298.66 -0.799706 313.582 -9.66423 331.112C-15.0972 341.865 -14.9638 352.522 -14.5116 363.315L-43.1171 371.004C-43.1171 371.004 -38.2866 198.435 52.9172 142.829C54.0339 143.134 55.1507 143.438 56.2674 143.743Z" fill="#0F70D1"/>
<path d="M118.766 176.9C118.766 176.9 134.898 194.302 136.773 243.182" stroke="#1A1B16" stroke-width="2.50361" stroke-miterlimit="10" stroke-linecap="round" stroke-linejoin="round"/>
<path d="M62.8269 70.3336C62.8269 70.3336 62.5989 94.2165 75.7838 110.833C79.6242 115.658 87.8037 99.0266 87.8037 99.0266L91.8587 66.2706L62.8269 70.3336Z" fill="#1A1B16"/>
<path d="M136.803 74.3885C136.752 77.1904 136.699 79.866 136.586 82.4311C136.589 82.6837 136.563 82.9441 136.537 83.2046L136.531 83.3013C134.322 132.181 120.001 137.283 120.001 137.283C120.001 137.283 119.497 139.446 118.742 142.69C117.014 150.155 114.084 163.36 113.306 169.272C105.294 172.907 86.8723 161.617 73.8973 152.418C73.3889 152.047 72.8884 151.706 72.38 151.335C65.0544 146.073 60.7616 143.927 60.7616 143.927L68.7579 103.098L68.9307 102.197L69.0141 101.794C66.8704 100.372 63.1539 97.0581 62.3814 94.1281C60.8909 88.4754 63.6052 82.8374 67.8708 81.8852C71.037 81.1957 78.1818 83.4965 78.5666 90.5859C79.0845 99.8577 84.9912 97.1035 85.2234 85.2862C85.2925 82.1943 85.4885 73.7136 85.5755 72.4862C87.2396 72.9278 133.804 75.952 136.803 74.3885Z" fill="#F8934F"/>
<path d="M137.504 78.5888L137.325 83.794L137.319 83.8912C135.13 132.964 120.894 138.094 120.894 138.094C120.894 138.094 120.394 140.267 119.644 143.526L109.224 139.824C110.466 140.251 112.852 139.286 114.009 138.909C117.277 137.833 120.284 136 122.625 133.424C129.337 125.939 131.459 113.746 133.572 104.165C135.344 96.0448 136.564 87.8519 137.451 79.5898C137.432 79.2767 137.501 78.9397 137.504 78.5888Z" fill="#F9AF79"/>
<path d="M139.328 74.1649C139.293 75.3796 139.25 76.5653 139.207 77.7509C136.12 78.8747 132.449 79.2441 129.838 79.3552C126.302 79.506 122.909 78.3544 119.367 78.9706C116.499 79.4536 113.7 80.8163 110.679 80.4707C107.461 80.1112 104.905 77.7348 101.529 78.0014C98.0547 78.261 94.9322 80.3522 91.4199 80.5902C90.5343 80.6515 88.3379 80.1356 86.6103 79.32C86.697 77.196 86.7609 74.9848 86.8489 73.4789C87.5593 72.8728 88.3003 72.3828 89.1247 71.9654C98.7636 72.862 136.583 75.4838 139.328 74.1649Z" fill="#F77C2D"/>
<path d="M70.18 121.673C70.393 124.475 71.2449 126.747 72.3172 129.28C73.2102 131.348 75.0378 134.669 74.8329 137.039C74.6388 139.086 73.1112 141.114 72.4883 143.053C71.6279 145.766 71.9626 148.437 72.4722 151.19C72.5025 151.31 72.5329 151.43 72.5419 151.588C72.0449 151.211 71.5554 150.864 71.0584 150.487C63.8962 145.133 59.6976 142.948 59.6976 142.948L67.5958 101.525C68.5447 101.489 69.5101 101.64 70.1972 102.158C71.7621 101.502 72.4672 108.7 72.208 110.121C71.4686 113.925 69.8885 117.703 70.18 121.673Z" fill="#F77C2D"/>
<path d="M73.8617 93.2877C73.8617 93.2877 70.1919 94.8692 68.5693 91.8095C66.9466 88.7499 69.2711 86.0969 69.2711 86.0969C70.1724 86.7887 70.9867 87.5058 71.7166 88.375C72.8928 89.7505 73.7472 91.4428 73.8617 93.2877Z" fill="#F77C2D"/>
<path d="M69.2745 86.0613C69.2745 86.0613 66.9618 88.7252 68.5724 91.8012C70.1829 94.8771 73.8319 93.2908 73.8319 93.2908C73.7273 91.4666 72.8716 89.7356 71.7035 88.3524C70.5355 86.9693 69.0761 85.8958 67.6035 84.8902" stroke="#BF3028" stroke-width="2.50361" stroke-miterlimit="10" stroke-linecap="round" stroke-linejoin="round"/>
<path d="M67.1172 99.374C67.1172 99.374 69.5024 101.606 73.1143 101.363" stroke="#BF3028" stroke-width="2.50361" stroke-miterlimit="10" stroke-linecap="round" stroke-linejoin="round"/>
<path d="M86.8335 133.415C86.8335 133.415 105.559 144.635 119.525 137.878C118.42 142.834 117.188 147.792 117.188 147.792C117.188 147.792 97.5144 149.543 86.8335 133.415Z" fill="#BF3028"/>
<path d="M114.037 108.448C113.127 106.08 118.161 101.343 120.08 104.245C121.969 107.156 115.136 111.387 114.037 108.448Z" fill="#F77C2D"/>
<path d="M105.23 95.9739C105.208 97.282 104.747 98.2402 103.776 98.234C102.805 98.2279 102.044 97.1454 102.065 95.8372C102.087 94.5291 102.888 93.4412 103.859 93.4473C104.83 93.4535 105.251 94.6657 105.23 95.9739Z" fill="#1A1B16"/>
<path d="M128.284 96.7913C128.275 98.0316 127.835 98.9515 126.893 98.937C125.95 98.9225 125.241 97.9204 125.25 96.6801C125.258 95.4398 126.046 94.4197 126.96 94.4425C127.873 94.4653 128.321 95.5426 128.284 96.7913Z" fill="#1A1B16"/>
<path d="M97.2748 88.1844C97.2748 88.1844 102.871 86.0767 108.229 87.4069" stroke="#1A1B16" stroke-width="2.50361" stroke-miterlimit="10" stroke-linecap="round" stroke-linejoin="round"/>
<path d="M123.879 88.4487C123.879 88.4487 128.325 87.4367 132.845 88.5516" stroke="#1A1B16" stroke-width="2.50361" stroke-miterlimit="10" stroke-linecap="round" stroke-linejoin="round"/>
<path d="M111.954 121.236C112.011 120.258 110.919 119.357 109.514 119.222C108.11 119.088 106.925 119.771 106.868 120.749C106.811 121.727 107.904 122.629 109.308 122.764C110.713 122.898 111.898 122.214 111.954 121.236Z" fill="#F77C2D"/>
<path d="M105.076 113.199C108.944 116.161 113.584 117.259 118.442 116.113" stroke="#BF3028" stroke-width="2.50361" stroke-miterlimit="10" stroke-linecap="round" stroke-linejoin="round"/>
<path d="M116.3 90.311L120.155 104.668C120.423 105.624 120.14 106.677 119.468 107.39L116.2 109.252" stroke="#BF3028" stroke-width="2.50361" stroke-miterlimit="10" stroke-linecap="round" stroke-linejoin="round"/>
<path d="M109.402 33.4894C109.402 33.4894 108.737 27.9382 110.875 27.605C113.013 27.2718 113.16 34.0327 113.16 34.0327L109.402 33.4894Z" fill="#BF3028"/>
<path d="M139.526 73.7695C115.491 77.2341 82.4247 74.4529 69.7341 73.1347C66.4016 72.8007 64.4911 72.5578 64.4911 72.5578C64.4911 72.5578 60.4222 31.5586 108.346 32.8847C113.083 33.0322 117.103 33.8726 120.519 35.2503C142.212 44.0137 139.526 73.7695 139.526 73.7695Z" fill="#F52A21"/>
<path d="M111.751 74.6646C112.247 74.5264 112.532 74.0073 112.387 73.5052C112.243 73.0031 111.724 72.7081 111.228 72.8464C110.732 72.9846 110.447 73.5037 110.592 74.0058C110.736 74.5079 111.255 74.8029 111.751 74.6646Z" fill="#FF8A74"/>
<path d="M118.195 74.7867C118.691 74.6485 118.976 74.1294 118.831 73.6273C118.687 73.1252 118.167 72.8302 117.672 72.9685C117.176 73.1067 116.891 73.6258 117.036 74.1279C117.18 74.63 117.699 74.9249 118.195 74.7867Z" fill="#FF8A74"/>
<path d="M124.638 74.9097C125.134 74.7715 125.419 74.2524 125.274 73.7503C125.13 73.2482 124.611 72.9533 124.115 73.0915C123.619 73.2297 123.334 73.7488 123.479 74.2509C123.624 74.753 124.143 75.048 124.638 74.9097Z" fill="#FF8A74"/>
<path d="M121.508 34.9233C121.465 34.9966 121.413 35.0408 121.331 35.0927C118.563 37.9121 114.254 38.1976 110.462 38.0406C103.908 37.7449 99.4749 39.6492 95.421 44.6313C93.7494 46.6742 91.9462 49.6219 89.2673 50.5826C87.5512 51.2052 85.5971 50.8614 83.8378 51.215C80.4987 51.8765 76.4627 53.3686 75.1402 56.661C74.3386 58.6074 74.6591 61.0156 74.3494 63.1171C73.8751 66.3496 72.4184 70.423 69.3525 72.2911C65.9847 71.9329 64.055 71.6763 64.055 71.6763C64.055 71.6763 60.6664 30.7734 109.159 32.4588C113.981 32.6342 118.044 33.5315 121.508 34.9233Z" fill="#F65852"/>
<path d="M103.217 69.886C111.416 70.9288 123.502 71.249 131.661 69.9317C131.661 69.9317 133.263 54.4378 119.004 54.3925C102.301 54.3083 103.217 69.886 103.217 69.886Z" fill="#1A1B16"/>
</g>
<defs>
<clipPath id="clip0_3_13912">
<rect x="0.290039" y="0.375977" width="198.663" height="198.663" rx="99.3317" fill="white"/>
</clipPath>
</defs>
</svg>
