<svg width="200" height="200" viewBox="0 0 200 200" fill="none" xmlns="http://www.w3.org/2000/svg">
<g clip-path="url(#clip0_3_13805)">
<rect x="0.868164" y="0.980469" width="198.663" height="198.663" rx="99.3317" fill="#E773FA"/>
<path d="M121.602 38.5695C109.329 35.3367 85.3523 37.6416 74.3069 60.7203C64.818 80.5362 68.7991 87.6604 60.6273 90.055C52.4554 92.4497 45.7803 95.6526 42.5774 100.442C39.3745 105.231 42.9665 116.995 36.2016 120.408C29.4067 123.79 20.6362 131.782 20.2471 139.355C35.0043 139.954 196.166 148.036 196.166 148.036C196.166 148.036 199.159 133.967 187.785 128.579C176.41 123.191 175.512 130.675 169.825 123.491C164.137 116.307 172.818 106.429 163.838 101.34C154.858 96.2513 154.558 104.034 148.272 97.7479C141.986 91.4619 154.828 47.3699 121.602 38.5695Z" fill="#0064C8"/>
<path d="M73.2882 76.7637C73.1385 79.787 73.348 82.8402 72.8392 85.8335C71.6718 92.808 66.4334 98.9444 59.7583 101.219C55.1784 102.776 49.6408 102.866 46.5875 106.637C43.5044 110.409 44.552 115.917 43.8636 120.736C42.756 128.399 36.7394 134.805 29.5554 137.618C27.9091 138.277 26.1729 138.756 24.6164 139.564C22.6408 139.474 21.174 139.414 20.2461 139.384C20.6352 131.811 29.4356 123.819 36.2006 120.437C42.9955 117.054 39.4035 105.26 42.5765 100.471C45.7793 95.6816 52.4245 92.4788 60.6263 90.0841C68.7981 87.6894 64.817 80.5653 74.3059 60.7493C74.6651 60.0309 75.0243 59.3125 75.3835 58.624C75.4135 58.6839 75.4434 58.7438 75.4733 58.8036C77.8979 63.1739 73.4977 72.0342 73.2882 76.7637Z" fill="#0F70D1"/>
<path d="M143.153 109.483C143.901 112.626 142.315 116.128 143.722 119.031C145.518 122.743 150.966 123.012 153.6 126.215C155.635 128.67 155.635 132.442 157.94 134.627C159.587 136.183 161.981 136.542 164.136 137.231C166.292 137.919 168.597 139.356 168.806 141.601C169.105 144.714 165.424 146.6 162.34 147.139C158.269 147.857 154.079 147.857 149.918 147.857C143.153 147.827 136.418 147.708 129.653 147.558C126.48 147.468 122.918 147.199 120.942 144.714C119.536 142.918 119.386 140.464 119.296 138.189C119.057 130.645 118.967 123.072 119.027 115.499C119.057 112.506 119.117 109.483 119.955 106.609C121.302 102.059 127.558 94.0967 133.215 95.1744C135.999 95.7132 136.268 98.5868 137.406 100.712C139.052 103.765 142.315 106.01 143.153 109.483Z" fill="#0055A8"/>
<path d="M81.3124 91.2225C84.7548 93.4077 87.0297 97.2691 87.0297 101.639C87.0297 108.464 81.492 114.002 74.6672 114.002C67.8424 114.002 62.3047 108.464 62.3047 101.639C62.3047 94.8145 67.8424 89.2769 74.6672 89.2769" stroke="#F9BD64" stroke-width="1.91574" stroke-miterlimit="10" stroke-linecap="round" stroke-linejoin="round"/>
<path d="M-2.44189 181.262L8.96275 153.783C13.5126 141.779 25.2166 133.997 38.0581 134.446L179.733 139.475C198.352 140.133 213.019 155.609 212.66 174.227L211.223 253.371L141.418 248.612L136.03 287.226L-2.44189 181.262Z" fill="#FACC73"/>
<path d="M159.049 138.757C153.451 146.54 147.883 154.292 142.286 162.075C140.699 164.29 139.023 166.565 136.598 167.852C132.737 169.888 128.067 168.78 123.697 169.199C116.693 169.828 110.736 174.288 104.51 177.491C98.2537 180.724 90.2016 182.639 84.5442 178.479C79.5154 174.797 77.8391 167.254 72.1218 164.769C65.8956 162.045 57.4544 166.595 52.3657 162.105C47.0376 157.435 49.7914 146.36 48.1451 139.954C47.8158 138.697 47.0375 136.841 46.2593 134.806L159.049 138.757Z" fill="#FBD488"/>
<path d="M212.66 174.258L211.193 253.402L178.865 251.187C179.344 246.727 180.721 242.357 182.846 238.435C185.45 233.646 189.042 229.455 191.646 224.666C194.251 219.877 195.837 214.099 193.981 208.981C193.053 206.377 191.287 204.132 190.21 201.587C185.779 191.081 193.382 180.364 195.807 170.367C197.962 161.446 191.856 151.928 194.849 143.666C205.715 149.563 212.899 161.117 212.66 174.258Z" fill="#F9BD64"/>
<path d="M150.819 138.457C150.819 138.457 148.963 141.6 145.131 145.701C137.708 153.663 122.951 165.218 100.231 164.649C76.7931 164.05 63.2931 150.49 57.067 141.929C54.1634 137.918 52.8164 134.985 52.8164 134.985L76.9128 135.853L80.0559 124.748L82.5104 116.007C82.5104 116.007 71.0459 110.769 74.1889 87.72C74.6678 84.128 75.8353 79.8774 77.2721 75.597C78.1102 73.1424 79.0082 70.6879 79.9361 68.3231C79.9361 68.2932 79.9661 68.2633 79.9661 68.2333C81.9417 63.2045 86.1922 59.373 91.4306 57.9961C92.1789 57.7865 92.9572 57.6069 93.7654 57.4573C93.8253 57.4573 93.9151 57.4273 94.0049 57.4273C97.0581 56.8586 100.53 56.6491 104.272 57.0382C120.706 58.8641 129.566 64.6712 125.196 77.5426C122.591 85.2056 123.729 86.7322 125.974 85.3852C128.877 81.9428 132.05 80.8652 135.463 83.0504C139.234 85.4451 139.444 90.2643 137.588 94.455C136.211 97.598 131.362 99.0947 129.476 98.8553C129.446 98.9151 122.202 137.439 122.202 137.439L150.819 138.457Z" fill="#F8934F"/>
<path d="M94.0065 57.4272C93.7072 57.9062 93.2582 58.3552 92.8392 58.7443C90.3248 60.9594 87.5409 62.8153 84.8768 64.8507C83.5298 65.8685 81.8236 67.9938 79.9678 68.353C79.9678 68.323 79.9977 68.2931 79.9977 68.2632C81.9733 63.2343 86.2238 59.4029 91.4622 58.0259C92.2105 57.8164 92.9888 57.6368 93.797 57.4871C93.8569 57.4572 93.9167 57.4272 94.0065 57.4272Z" fill="#F77C2D"/>
<path d="M129.537 98.8856C129.507 98.8856 129.507 98.8856 129.477 98.8856C129.447 98.9455 122.922 133.638 122.263 137.171C119.988 137.171 117.743 137.171 115.469 137.171C115.109 137.171 114.75 137.171 114.451 137.021C113.972 136.781 113.672 136.273 113.583 135.734C113.134 133.728 114.66 131.842 116.157 130.525C117.684 129.178 119.42 127.831 119.779 125.796C120.108 123.76 118.881 121.755 118.941 119.689C119.09 115.229 124.778 113.014 125.676 108.644C126.035 106.878 125.526 105.022 125.676 103.226C125.825 101.55 127.681 96.9399 129.537 98.8856Z" fill="#F77C2D"/>
<path d="M125.767 97.9575C125.767 97.9575 126.605 98.7058 129.478 98.8854" stroke="#BF3028" stroke-width="1.91574" stroke-miterlimit="10" stroke-linecap="round" stroke-linejoin="round"/>
<path d="M117.714 137.291L124.868 137.56" stroke="#BF3028" stroke-width="1.91574" stroke-miterlimit="10" stroke-linecap="round" stroke-linejoin="round"/>
<path d="M125.197 77.5432C124.778 78.8004 124.449 79.878 124.21 80.8359C123.94 80.5365 123.761 80.1474 123.611 79.7882C122.563 76.9745 123.012 73.8314 122.593 70.868C122.234 68.2339 121.127 65.7195 119.51 63.6241C118.043 61.7383 116.187 60.1518 114.062 59.0742C113.883 58.9844 113.703 58.8647 113.523 58.7749C123.821 61.5886 128.64 67.3658 125.197 77.5432Z" fill="#F77C2D"/>
<path d="M105.5 119.24L88.4681 121.934L80.0868 124.748L82.5413 116.007C82.5413 116.007 71.0768 110.769 74.2198 87.7202C74.6988 84.1282 75.8662 79.8777 77.303 75.5972C63.9227 121.934 105.5 119.24 105.5 119.24Z" fill="#F9AF79"/>
<path d="M112.027 117.504C112.027 117.504 96.5212 123.731 82.4824 116.008C80.8959 121.605 79.1299 127.861 79.1299 127.861C79.1299 127.861 100.951 126.634 112.027 117.504Z" fill="#BF3028"/>
<path d="M126.933 91.6419C126.933 91.6419 129.657 93.9468 131.902 91.8215C134.147 89.6962 132.859 86.8525 132.859 86.8525C131.902 87.1818 130.974 87.571 130.106 88.0798C128.729 88.9479 127.531 90.1452 126.933 91.6419Z" fill="#F77C2D"/>
<path d="M132.86 86.8819C132.86 86.8819 134.147 89.7256 131.902 91.8509C129.657 93.9762 126.933 91.6713 126.933 91.6713C127.532 90.1746 128.729 88.9773 130.136 88.1391C131.513 87.301 133.069 86.7921 134.626 86.373" stroke="#BF3028" stroke-width="1.91574" stroke-miterlimit="10" stroke-linecap="round" stroke-linejoin="round"/>
<path d="M96.5477 91.132C98.2839 89.1564 92.2673 83.918 90.9801 87.061C90.4413 88.4978 94.4823 93.4967 96.5477 91.132Z" fill="#F77C2D"/>
<path d="M96.5473 76.9141C96.5473 76.9141 91.1293 85.7444 91.0096 87.5404C90.8899 89.3364 94.1227 91.2821 94.1227 91.2821" stroke="#BF3028" stroke-width="1.91574" stroke-miterlimit="10" stroke-linecap="round" stroke-linejoin="round"/>
<path d="M84.7229 81.6138C84.5433 82.7214 84.8127 83.5894 85.6508 83.7092C86.489 83.8289 87.2972 83.0506 87.4768 81.9431C87.6564 80.8356 87.1176 79.8478 86.2794 79.6981C85.4413 79.5484 84.9025 80.5063 84.7229 81.6138Z" fill="#1A1B16"/>
<path d="M101.817 84.9662C101.638 86.0737 101.907 86.9418 102.745 87.0615C103.583 87.1813 104.391 86.403 104.571 85.2955C104.751 84.1879 104.212 83.2001 103.374 83.0505C102.506 82.9307 101.967 83.8587 101.817 84.9662Z" fill="#1A1B16"/>
<path d="M84.3647 73.7108C84.3647 73.7108 88.8248 72.1542 91.7284 74.8183" stroke="#1A1B16" stroke-width="1.91574" stroke-miterlimit="10" stroke-linecap="round" stroke-linejoin="round"/>
<path d="M102.803 75.6569C102.803 75.6569 107.383 74.4595 110.915 76.6147" stroke="#1A1B16" stroke-width="1.91574" stroke-miterlimit="10" stroke-linecap="round" stroke-linejoin="round"/>
<path d="M90.7694 96.9396L102.833 93.0782C103.461 92.8686 104.09 93.3775 104.03 94.0061C103.91 95.8021 102.952 99.0349 98.0132 100.352C93.3736 101.609 91.1884 99.6635 90.2605 98.3464C89.9312 97.8376 90.2006 97.1192 90.7694 96.9396Z" fill="#1A1B16"/>
<path d="M93.3428 97.359L100.497 95.1738C100.497 95.1738 100.796 97.2093 97.5933 98.1372C93.8816 99.1849 93.3428 97.359 93.3428 97.359Z" fill="#EDE3EB"/>
<path d="M100.138 104.364C101.41 103.848 102.239 102.933 101.991 102.32C101.742 101.708 100.51 101.629 99.2381 102.144C97.9664 102.66 97.1369 103.574 97.3854 104.187C97.6338 104.8 98.8661 104.879 100.138 104.364Z" fill="#F77C2D"/>
<path d="M99.0913 52.0103L112.023 73.263C112.023 73.2331 120.015 57.0091 99.0913 52.0103Z" fill="#0064C8"/>
<path d="M87.0293 68.952L108.372 56.1704C108.372 56.1704 92.2078 48.0585 87.0293 68.952Z" fill="#0064C8"/>
<path d="M113.521 38.5996C113.521 38.5996 106.427 44.1074 104.601 55.8113" stroke="#0055A8" stroke-width="1.91574" stroke-miterlimit="10" stroke-linecap="round" stroke-linejoin="round"/>
<path d="M135.671 97.6286C139.113 99.3947 141.687 102.717 142.286 106.818C143.304 113.583 138.634 119.869 131.869 120.857C125.104 121.875 118.818 117.205 117.83 110.44C116.842 103.675 121.482 97.3892 128.247 96.4014" stroke="#FBD488" stroke-width="1.91574" stroke-miterlimit="10" stroke-linecap="round" stroke-linejoin="round"/>
</g>
<defs>
<clipPath id="clip0_3_13805">
<rect x="0.868164" y="0.980469" width="198.663" height="198.663" rx="99.3317" fill="white"/>
</clipPath>
</defs>
</svg>
