<svg width="199" height="200" viewBox="0 0 199 200" fill="none" xmlns="http://www.w3.org/2000/svg">
<g clip-path="url(#clip0_3_14591)">
<path d="M0.290039 99.6881C0.290039 44.8287 44.7623 0.356445 99.6217 0.356445V0.356445C154.481 0.356445 198.953 44.8287 198.953 99.6881V99.6881C198.953 154.548 154.481 199.02 99.6217 199.02V199.02C44.7623 199.02 0.290039 154.548 0.290039 99.6881V99.6881Z" fill="#FE9E69"/>
<path d="M191.505 321.999H7.81982C8.47506 283.121 8.69348 252.981 9.56713 229.174C11.7513 175.881 18.0852 156.006 43.421 147.924C48.8813 146.177 55.4337 145.085 62.8597 144.211C68.1016 143.556 73.7803 143.119 80.1143 142.901C87.7587 142.464 96.2768 142.246 105.669 142.027C112.439 141.809 118.773 141.809 124.452 142.027C183.642 143.993 190.849 165.834 191.286 229.61C191.505 254.073 190.849 284.432 191.505 321.999Z" fill="#788BF1"/>
<path d="M93.2144 87.862L87.0989 143.12C85.1332 161.249 113.09 166.709 115.056 148.362C117.021 130.016 119.206 111.451 121.171 93.1039C123.137 74.9757 95.1802 69.7338 93.2144 87.862Z" fill="#A9CDFF"/>
<path d="M101.946 136.786C107.188 141.81 111.775 142.465 115.924 140.718C117.672 124.774 119.419 109.048 121.166 93.1038C123.132 74.9756 95.1752 69.5153 93.2094 87.8619L90.3701 114.508C92.1174 122.808 95.8304 130.889 101.946 136.786Z" fill="#788BF1"/>
<path d="M107.409 123.681C88.6256 123.681 79.0154 128.049 76.8313 83.2743C76.6129 77.3772 76.3945 72.1353 76.6129 67.5486C77.2682 37.6261 86.6599 36.3157 113.961 37.4077C123.353 37.8445 126.193 45.9258 126.848 68.4223C126.848 71.6984 127.066 75.193 127.066 78.9061C128.158 109.484 129.25 123.681 107.409 123.681Z" fill="#A9CDFF"/>
<path d="M78.1401 67.9852C61.3224 62.9617 49.7465 85.4582 78.1401 93.5395V67.9852Z" fill="#A9CDFF"/>
<path d="M125.104 68.6405C141.922 63.617 153.498 86.1135 125.104 94.1947V68.6405Z" fill="#A9CDFF"/>
<path d="M68.3114 74.5379C67.001 74.1011 66.3457 76.2852 67.6562 76.722C72.2429 78.0325 75.0823 82.6192 74.427 87.2058C74.2086 88.5163 76.3927 89.1716 76.6111 87.8611C77.4848 81.9639 73.9902 76.2852 68.3114 74.5379Z" fill="#EF1B3A"/>
<path d="M132.962 74.9756C129.031 77.1597 126.847 81.528 127.502 86.1147C127.72 87.4251 129.904 87.4251 129.686 86.1147C129.249 82.4017 130.778 78.6887 134.054 76.9414C135.365 76.2861 134.273 74.3204 132.962 74.9756Z" fill="#EF1B3A"/>
<path d="M114.183 58.1568C102.389 54.8806 106.538 81.7453 106.975 87.424C107.194 88.7345 109.159 88.7345 108.941 87.424C108.504 83.711 105.665 58.1568 113.528 60.3409C115.057 60.5593 115.493 58.5936 114.183 58.1568Z" fill="#2D264F"/>
<path d="M122.261 76.2852C121.388 77.1588 120.296 78.0324 118.985 78.6877C113.525 81.3086 108.064 77.1588 102.604 78.6877C96.707 80.435 92.5572 83.0559 86.4417 79.5613C85.568 79.1245 84.9128 78.4693 84.0391 77.814C78.7972 84.148 78.3604 94.4134 78.5788 102.713C82.5102 126.52 91.902 123.462 107.191 123.462C124.009 123.462 127.285 115.163 127.285 97.4711C127.066 90.2635 125.756 82.6191 122.261 76.2852Z" fill="#E4E9FF"/>
<path d="M91.463 85.0213C86.4395 79.3426 81.8529 73.2271 77.2662 67.1115C76.3926 66.0195 74.6453 67.1115 75.3005 68.2036C79.8872 74.5375 84.6923 80.6531 89.7157 86.5502C90.8078 87.6423 92.3367 85.895 91.463 85.0213Z" fill="#E4E9FF"/>
<path d="M127.284 67.3313C124.226 71.9179 120.95 76.2862 117.892 80.8728C117.019 81.9649 118.984 83.0569 119.858 81.9649C122.916 77.3782 126.192 73.01 129.25 68.4233C129.905 67.3313 127.939 66.2392 127.284 67.3313Z" fill="#E4E9FF"/>
<path d="M92.3355 64.9282C92.5539 63.6177 90.3698 62.9624 90.1513 64.2729C89.7145 67.1123 89.7145 69.7332 90.1513 72.5726C90.3698 73.8831 92.5539 73.4462 92.3355 71.9173C92.1171 69.7332 92.1171 67.3307 92.3355 64.9282Z" fill="#2D264F"/>
<path d="M117.454 64.4926C117.673 63.1821 115.488 62.5269 115.27 63.8374C114.833 66.6767 114.833 69.2977 115.27 72.137C115.488 73.4475 117.673 73.0107 117.454 71.4818C117.236 69.2977 117.236 66.8951 117.454 64.4926Z" fill="#2D264F"/>
<path d="M93.4336 58.375H89.0654C87.7549 58.375 87.7549 60.5591 89.0654 60.5591H93.4336C94.9625 60.5591 94.9625 58.375 93.4336 58.375Z" fill="#2D264F"/>
<path d="M128.372 39.592C129.028 34.3501 123.13 32.8212 118.981 33.2581C116.797 33.4765 114.612 34.1317 112.647 35.0053C85.3452 35.6606 75.0798 32.3844 76.6087 67.112C83.8163 72.5723 81.6321 53.352 83.8162 49.2021C85.1267 46.5812 87.9661 45.0523 91.2422 44.1787C91.4607 44.8339 91.8975 45.0523 92.5527 45.2707C93.208 45.4892 93.6448 45.926 94.3 46.1444C96.2657 47.018 98.4499 47.4549 100.634 47.8917C104.784 48.7653 109.152 49.4206 113.52 49.2021C115.268 48.9837 117.452 48.7653 119.636 48.1101C119.854 48.9837 120.073 49.8574 120.073 51.1679C120.073 55.0993 120.291 58.3755 121.165 62.0885C122.257 66.4567 124.441 68.4224 127.062 68.6409C126.843 58.3755 127.28 50.2942 126.188 44.8339C127.062 42.8682 127.936 41.3393 128.372 39.592Z" fill="#2D264F"/>
</g>
<defs>
<clipPath id="clip0_3_14591">
<path d="M0.290039 99.6881C0.290039 44.8287 44.7623 0.356445 99.6217 0.356445V0.356445C154.481 0.356445 198.953 44.8287 198.953 99.6881V99.6881C198.953 154.548 154.481 199.02 99.6217 199.02V199.02C44.7623 199.02 0.290039 154.548 0.290039 99.6881V99.6881Z" fill="white"/>
</clipPath>
</defs>
</svg>
