<svg width="199" height="200" viewBox="0 0 199 200" fill="none" xmlns="http://www.w3.org/2000/svg">
<g clip-path="url(#clip0_3_14590)">
<path d="M0.000976562 100.084C0.000976562 45.2243 44.4733 0.751953 99.3327 0.751953V0.751953C154.192 0.751953 198.664 45.2243 198.664 100.084V100.084C198.664 154.943 154.192 199.415 99.3327 199.415V199.415C44.4733 199.415 0.000976562 154.943 0.000976562 100.084V100.084Z" fill="#FFCB11"/>
<path d="M82.9293 76.5406C41.0145 69.5194 45.2698 89.9448 30.3762 99.3065C15.4826 108.455 4.20605 105.689 4.20605 105.689L10.3762 111.221C14.8443 112.711 19.3124 111.86 23.3549 109.732C27.3975 107.604 30.8017 113.775 26.9719 115.689C24.4188 116.966 21.44 118.03 18.6741 118.455L55.4825 151.647C55.4825 151.647 81.0144 135.264 81.0144 111.86C81.0144 88.4555 79.525 85.6895 93.7803 82.7108C107.823 79.9449 82.9293 76.5406 82.9293 76.5406Z" fill="#FF6B57"/>
<path d="M93.5655 86.5413L83.3528 139.733C79.9486 157.179 106.757 164.626 109.948 147.179C113.353 129.52 116.757 111.648 120.161 93.9881C123.565 76.5413 96.9698 69.0945 93.5655 86.5413Z" fill="#E4E9FF"/>
<path d="M112.075 33.1378C82.5002 29.7336 77.6066 38.8824 80.1598 72.0739C82.9257 107.606 131.011 115.265 131.223 101.861C131.862 68.0313 136.968 36.1165 112.075 33.1378Z" fill="#E4E9FF"/>
<path d="M99.7392 77.8183C99.3137 92.4991 101.654 107.18 109.739 119.095C111.229 120.584 112.931 121.861 114.633 122.925C116.548 113.137 118.463 103.563 120.165 93.7757C122.718 81.0098 108.463 73.563 99.7392 77.8183Z" fill="#788BF1"/>
<path d="M87.825 92.0729C93.7825 79.0942 91.8676 63.3495 90.1655 48.2432C89.9527 46.7538 91.4421 45.0517 92.7187 44.839C104.208 42.4985 115.697 42.9241 127.399 43.1368C125.485 37.3922 119.102 33.5624 111.655 32.7113C82.0804 29.3071 76.7613 39.307 79.5272 72.7112C79.9527 80.5835 83.7825 86.7538 87.825 92.0729Z" fill="#FF6B57"/>
<path d="M108.459 57.179C108.459 59.5194 108.459 61.8598 108.459 64.2002C108.459 65.4768 110.587 65.6896 110.587 64.413C110.587 62.0726 110.587 59.7322 110.587 57.3917C110.587 56.1151 108.459 55.9024 108.459 57.179Z" fill="#2D264F"/>
<path d="M127.394 58.2434C127.394 60.5838 127.394 62.9243 127.394 65.2647C127.394 66.5413 129.522 66.9668 129.522 65.4775C129.522 63.137 129.522 60.7966 129.522 58.4562C129.522 57.1796 127.394 56.9668 127.394 58.2434Z" fill="#2D264F"/>
<path d="M125.909 53.5632C126.973 54.4143 128.249 52.9249 127.398 52.0739C124.845 49.7334 121.653 51.4356 121.015 55.0526C120.377 58.0313 121.866 61.8611 122.504 64.627L125.696 79.3078C125.909 80.5844 127.824 80.1589 127.611 78.6695C126.76 74.8398 125.909 70.7972 125.058 66.9674C124.632 65.0526 124.207 63.1377 123.781 61.01C123.568 60.3717 123.568 59.7334 123.355 59.0951C122.079 56.3292 123.143 52.7122 125.909 53.5632Z" fill="#788BF1"/>
<path d="M115.696 73.3505C109.526 72.9249 105.271 71.0101 101.015 66.542C100.377 66.7548 99.7388 67.1803 99.3132 67.6058C99.1005 67.6058 98.6749 85.6909 98.6749 94.627C96.1218 90.1589 93.7813 85.4781 91.4409 81.2228C90.8026 79.9462 88.2494 79.5207 88.8877 80.7973C92.7175 87.8185 96.9728 98.0313 102.717 103.989C116.334 110.584 131.015 109.733 131.228 102.287C131.441 92.0739 132.079 82.0739 132.079 72.925C126.547 73.3505 121.015 73.776 115.696 73.3505Z" fill="#2D264F"/>
<path d="M93.5679 58.03C77.1849 53.1364 65.9084 75.0512 93.5679 82.9235V58.03Z" fill="#E4E9FF"/>
<path d="M92.9319 70.7963C90.5914 68.2432 87.8255 66.1155 85.0595 64.2006C83.7829 63.5623 82.7191 65.2644 83.9957 66.1155C86.7617 67.8176 89.3148 69.9453 91.4425 72.2857C92.2936 73.3495 93.7829 71.8602 92.9319 70.7963Z" fill="#EF1B3A"/>
<path d="M91.6525 74.839C89.3121 74.6263 88.2483 72.0731 89.9504 70.371C90.8015 69.3072 89.3121 67.8178 88.4611 68.8816C85.6951 72.0731 87.61 76.7539 91.8653 76.9667C93.1419 77.1795 93.1419 75.0518 91.6525 74.839Z" fill="#EF1B3A"/>
<path d="M103.35 71.8609C102.074 68.2439 100.372 65.0524 98.2439 61.8609C96.3291 59.3078 93.9886 56.5418 91.0099 55.6907C89.7333 55.2652 89.095 57.3928 90.3716 57.8184C93.3504 58.6694 95.9035 62.2864 97.6057 64.6269C99.3078 66.9673 100.372 69.7333 101.435 72.4992C101.648 73.7758 103.776 73.1375 103.35 71.8609Z" fill="#2D264F"/>
<path d="M110.162 50.5838C109.099 50.7966 108.035 51.2221 106.971 51.4349C105.694 51.8604 106.12 53.7753 107.397 53.5625C108.46 53.3498 109.524 52.9242 110.588 52.7115C111.865 52.2859 111.439 50.3711 110.162 50.5838Z" fill="#788BF1"/>
<path d="M107.611 34.8386C107.398 34.2003 106.334 34.2004 105.696 34.6259C105.483 33.9876 104.207 33.5621 103.781 34.4131C99.5259 41.4344 91.8664 44.2003 84.6323 46.9663C83.5685 47.3918 83.5685 48.6684 84.6323 49.0939C89.9515 51.0088 95.0578 48.8812 99.5259 46.1152C103.143 43.7748 106.973 41.0088 107.611 36.5408C107.611 36.328 107.824 36.328 107.824 36.1152C108.037 35.6897 107.824 35.2642 107.611 34.8386Z" fill="#FF6B57"/>
<path d="M182.934 296.327H18.4668C20.3817 176.54 17.6157 141.86 50.3816 130.796C55.2752 129.094 61.0199 128.03 67.8284 127.179C72.5092 126.541 77.6156 126.328 83.3603 125.902C90.1687 125.477 97.8283 125.264 106.126 125.051C112.296 124.838 117.828 124.838 122.935 125.051C195.913 128.03 180.594 166.54 182.934 296.327Z" fill="#4EDDBB"/>
<path d="M106.123 125.477C97.8255 125.689 90.1659 125.902 83.3574 126.328C91.4425 140.583 115.485 139.519 122.932 125.689C117.825 125.264 112.081 125.264 106.123 125.477Z" fill="#E4E9FF"/>
<path d="M155.272 296.327H153.145C154.421 253.987 153.996 211.647 152.293 169.519C152.293 168.242 154.421 168.242 154.421 169.519C156.123 211.859 156.336 254.2 155.272 296.327Z" fill="#FFF9EF"/>
<path d="M71.446 219.092C74.8502 194.624 75.2757 189.092 94.4246 171.858C94.6374 171.646 94.8501 171.646 94.8501 171.433C94.2119 159.305 82.7225 151.859 71.6587 152.284C69.5311 138.667 55.4885 126.752 40.8077 136.539C15.9142 153.135 6.5525 182.922 -0.68153 210.582C-8.34109 239.518 -16.2134 275.901 0.169535 303.56C9.53121 319.305 33.3609 327.39 47.829 314.624C55.063 308.241 56.3396 302.284 59.5311 292.709C62.5098 275.262 68.8928 236.752 71.446 219.092Z" fill="#4EDDBB"/>
<path d="M35.0638 188.454C28.8936 214.837 22.9361 241.22 16.766 267.603C16.5532 268.88 18.4681 269.518 18.8936 268.029C25.0638 241.646 31.0212 215.263 37.1914 188.88C37.4042 187.603 35.2765 187.178 35.0638 188.454Z" fill="#FFF9EF"/>
</g>
<defs>
<clipPath id="clip0_3_14590">
<path d="M0.000976562 100.084C0.000976562 45.2243 44.4733 0.751953 99.3327 0.751953V0.751953C154.192 0.751953 198.664 45.2243 198.664 100.084V100.084C198.664 154.943 154.192 199.415 99.3327 199.415V199.415C44.4733 199.415 0.000976562 154.943 0.000976562 100.084V100.084Z" fill="white"/>
</clipPath>
</defs>
</svg>
