<svg width="200" height="200" viewBox="0 0 200 200" fill="none" xmlns="http://www.w3.org/2000/svg">
<g clip-path="url(#clip0_3_13964)">
<rect x="0.868164" y="0.375977" width="198.663" height="198.663" rx="99.3317" fill="#FF9797"/>
<path d="M110.164 49.973C121.175 48.9232 137.679 61.6676 136.996 88.1573C136.214 118.578 160.36 106.615 160.36 130.053C144.247 144.848 41.1932 158.373 25.2993 141.918C25.5435 119.603 39.3132 118.041 49.8359 108.006C60.3585 97.9719 47.2724 39.8898 110.164 49.973Z" fill="#0064C8"/>
<path d="M103.254 40.1089C103.254 40.1089 109.87 45.2848 110.139 50.0212C112.141 46.0904 116.584 41.1099 116.584 41.1099" stroke="#0064C8" stroke-width="2.03851" stroke-miterlimit="10" stroke-linecap="round" stroke-linejoin="round"/>
<path d="M110.236 50.3867C110.578 52.3887 111.921 61.5442 109.724 68.1361" stroke="#0055A8" stroke-width="2.03851" stroke-miterlimit="10" stroke-linecap="round" stroke-linejoin="round"/>
<path d="M80.5984 78.1216C81.0135 77.3892 81.6238 76.7788 82.4295 76.6079C80.8426 76.8521 72.6393 78.3413 71.3697 82.3209C70.3443 83.9567 70.3199 86.2028 69.4898 88.0095C67.7808 91.8181 62.8246 93.3563 61.14 97.1649C59.431 101.022 61.7504 105.515 61.1644 109.69C60.3099 115.696 53.7669 119.651 52.8391 125.657C52.5217 127.659 52.8879 129.709 52.7414 131.711C52.5705 133.884 51.8137 136.033 50.5441 137.815C49.3722 139.475 47.8097 140.794 46.2472 142.112C43.8302 144.163 41.4131 146.189 38.9961 148.24H40.0703C51.4231 148.264 62.6293 148.24 73.9821 148.216C75.6178 148.216 77.3513 148.167 78.6697 147.263C78.8406 147.141 79.0115 147.019 79.158 146.873C75.2516 146.116 72.3707 145.481 72.3707 145.481L72.5416 108.689C72.3707 108.713 72.1754 108.713 72.0045 108.713C67.5855 108.713 63.9966 104.563 63.9966 99.4111C63.9966 96.7011 64.9975 94.2596 66.5845 92.575C69.5631 89.3767 74.8854 90.4509 76.5456 94.4793C76.57 94.5282 76.5944 94.6014 76.6188 94.6502C76.9362 95.4559 78.1081 95.3827 78.3034 94.5282C78.9382 91.6717 79.0603 88.5954 79.2312 85.8122C79.3044 84.4938 79.3777 83.2242 79.5242 82.0768C79.6951 80.734 79.9392 79.5377 80.3787 78.5611C80.4275 78.4634 80.4763 78.3658 80.5252 78.2681C80.5496 78.2193 80.574 78.1704 80.5984 78.1216Z" fill="#0055A8"/>
<path d="M82.4805 76.6081C82.5534 76.5838 82.6264 76.5838 82.7237 76.5838C82.6994 76.5595 82.6264 76.5838 82.4805 76.6081Z" fill="#0055A8"/>
<path d="M131.625 84.4943C132.138 88.2542 131.039 92.307 132.602 95.7494C133.554 97.8735 135.434 99.4604 136.288 101.633C137.851 105.588 135.702 110.496 137.875 114.158C139.633 117.137 143.515 118.015 145.908 120.481C147.641 122.288 148.447 124.852 148.373 127.366C148.3 129.881 147.397 132.298 146.054 134.422C141.904 141.063 134.067 144.408 126.425 145.75C124.13 146.141 121.688 146.385 119.589 145.384C116.024 143.699 114.779 139.232 114.559 135.252C114.095 127 116.244 118.846 119.027 111.057C120.809 106.052 122.909 101.072 123.495 95.7738C123.861 92.5023 123.666 89.2063 124.008 85.9348C124.252 83.7375 124.96 78.879 127.133 77.6094C129.403 76.3887 131.381 82.6388 131.625 84.4943Z" fill="#0055A8"/>
<path d="M223.449 174.927L213.391 227.394L211.12 228.956L199.621 236.818L178.307 214.039L177.697 213.38L179.991 249.806L106.089 296.438L30.5747 251.003L25.3988 223.902L21.3216 228.346L11.8244 238.673L0.91108 231.959L-16.1791 221.412L-23.1372 189.161C-23.1372 189.161 -16.2279 180.03 4.76855 155.322C35.5308 119.091 93.6374 162.158 138.218 133.373C182.799 104.589 223.449 174.927 223.449 174.927Z" fill="#5FAEF2"/>
<path d="M162.095 126.464C159.971 128.515 156.699 129.882 154.306 131.786C148.74 136.181 146.933 144.702 140.463 147.656C136.191 149.633 131.113 148.51 126.547 149.682C119.15 151.587 114.633 158.862 108.456 163.403C98.5926 170.654 83.6753 169.971 74.5443 161.792C70.5891 158.276 67.2932 153.369 62.0929 152.368C57.8692 151.562 53.2548 153.589 49.3485 151.782C46.9559 150.683 45.3934 148.339 43.489 146.508C41.1208 144.213 38.0934 142.626 34.8707 141.918C33.0885 141.528 30.4273 141.918 28.4741 141.332C60.3106 134.545 103.353 155.835 138.168 133.373C146.372 128.075 154.429 126.122 162.095 126.464Z" fill="#4598E0"/>
<path d="M25.497 224.294C25.3994 224.464 25.2773 224.635 25.1308 224.855C24.7402 225.368 11.3855 238.869 11.3855 238.869L0.472168 232.155C1.05812 231.667 1.66847 231.203 2.32766 230.812C4.15875 229.714 6.20959 229.054 8.11392 228.029C9.99384 227.028 11.7761 225.539 12.4353 223.512C13.1189 221.364 12.4353 218.971 13.07 216.823C13.9978 213.6 17.5135 211.793 18.9051 208.766C20.4676 205.397 19.1737 201.442 20.663 198.072C21.1757 196.925 21.7616 196.388 22.3964 196.241C22.4697 197.071 23.3241 212.575 25.497 224.294Z" fill="#4598E0"/>
<path d="M22.4209 196.192C22.4209 196.192 23.1045 211.769 25.3995 223.903" stroke="#1A1B16" stroke-width="1.95316" stroke-miterlimit="10" stroke-linecap="round" stroke-linejoin="round"/>
<path d="M176.062 196.192L177.697 213.38" stroke="#1A1B16" stroke-width="1.95316" stroke-miterlimit="10" stroke-linecap="round" stroke-linejoin="round"/>
<path d="M74.6685 152.392C74.6685 152.392 85.1911 158.178 96.9345 157.666" stroke="#0064C8" stroke-width="1.95316" stroke-miterlimit="10" stroke-linecap="round" stroke-linejoin="round"/>
<path d="M82.9199 151.392C82.9199 151.392 89.2677 153.735 97.2756 153.98" stroke="#0064C8" stroke-width="1.95316" stroke-miterlimit="10" stroke-linecap="round" stroke-linejoin="round"/>
<path d="M127.917 104.172C128.357 129.905 117.102 133.372 117.102 133.372L116.931 145.067C116.931 145.067 107.409 149.217 96.398 149.168C88.8051 149.144 72.3986 145.482 72.3986 145.482L72.5695 108.689C72.3986 108.713 72.2033 108.713 72.0324 108.713C67.6133 108.713 64.0244 104.563 64.0244 99.4115C64.0244 96.7015 65.0254 94.2601 66.6123 92.5755C69.5909 89.3772 74.9133 90.4514 76.5735 94.4798C76.5979 94.5286 76.6223 94.6019 76.6467 94.6507C76.9641 95.4564 78.136 95.3831 78.3313 94.5286C78.9661 91.6721 79.0882 88.5959 79.2591 85.8126C79.3323 84.4943 79.4055 83.2247 79.552 82.0772C79.7229 80.6612 79.9915 79.416 80.4554 78.4395C81.0169 77.2431 82.2132 76.5107 83.5316 76.4619C90.4409 76.1933 101.427 73.2148 106.457 69.8211C106.847 69.5526 107.263 69.3817 107.702 69.2596C109.02 68.8934 110.461 69.1864 111.559 70.0897C112.316 70.7001 113.366 71.3593 114.562 72.0429C118.542 74.2402 124.206 76.4863 126.867 77.2187C128.357 77.6094 127.917 79.6846 127.893 81.1983C127.893 81.5157 127.893 81.8087 127.868 82.1505C127.868 82.2237 127.868 82.2725 127.868 82.3458C127.82 87.424 127.746 94.0647 127.917 104.172Z" fill="#F8934F"/>
<path d="M127.916 104.172C128.356 129.905 117.101 133.372 117.101 133.372L117.052 136.302L109.728 134.935C113.292 133.47 118.419 130.223 121.837 124.046C123.937 120.262 124.962 115.965 124.962 111.643V76.5596C125.695 76.8037 126.354 77.0234 126.867 77.1699C128.356 77.5606 127.916 79.6358 127.892 81.1495C127.892 81.4669 127.892 81.7598 127.868 82.1017C127.868 82.1749 127.868 82.2237 127.868 82.297C127.819 87.424 127.745 94.0648 127.916 104.172Z" fill="#F9AF79"/>
<path d="M80.9675 147.216C80.2839 147.264 72.3979 145.482 72.3979 145.482L72.52 109.153C73.3745 109.031 74.0093 109.178 74.0826 110.862C74.1802 113.06 73.7408 114.72 74.6197 116.844C75.1812 118.236 76.0357 119.359 76.4263 120.848C77.3541 124.266 75.6207 128.172 76.231 131.737C76.9635 136.009 80.7477 138.133 81.3092 142.479C81.4557 143.773 81.1872 145.922 80.9675 147.216Z" fill="#F77C2D"/>
<path d="M75.3046 102.781C75.3046 102.781 71.5936 104.099 70.1043 101.047C68.5906 97.9957 71.032 95.5542 71.032 95.5542C71.8865 96.2622 72.6922 97.0191 73.3758 97.898C74.4745 99.2896 75.2802 100.999 75.3046 102.781Z" fill="#F77C2D"/>
<path d="M71.0322 95.5552C71.0322 95.5552 68.6152 97.9967 70.1045 101.048C71.5938 104.1 75.3048 102.782 75.3048 102.782C75.2804 101 74.4747 99.2906 73.376 97.899C72.2774 96.5074 70.8614 95.3843 69.4209 94.3101" stroke="#BF3028" stroke-width="1.95316" stroke-miterlimit="10" stroke-linecap="round" stroke-linejoin="round"/>
<path d="M95.5444 133.689C95.5444 133.689 109.412 136.839 117.102 133.348C117.078 135.618 117.029 139.183 117.029 139.183C117.029 139.183 106.555 140.745 95.5444 133.689Z" fill="#BF3028"/>
<path d="M72.5688 108.689C72.5688 108.689 74.1558 108.934 75.7427 108.519" stroke="#BF3028" stroke-width="1.95316" stroke-miterlimit="10" stroke-linecap="round" stroke-linejoin="round"/>
<path d="M107.704 69.2354C105.775 71.8721 103.089 73.9473 100.062 75.1192C98.0843 75.9005 95.9603 76.3155 94.1047 77.341C91.9074 78.5861 90.2473 80.6369 87.9767 81.7356C85.9747 82.7121 83.6553 82.8586 81.6778 83.8596C80.75 84.3235 79.9199 85.0071 79.2607 85.8128C79.334 84.4944 79.4072 83.2249 79.5537 82.0774C79.7246 80.6613 79.9932 79.4162 80.457 78.4396C81.0186 77.2433 82.2149 76.5109 83.5333 76.462C90.4426 76.1935 101.429 73.2149 106.458 69.8213C106.849 69.5283 107.264 69.3574 107.704 69.2354Z" fill="#F77C2D"/>
<path d="M118.857 97.8492C118.882 98.9722 119.297 99.7779 120.127 99.7535C120.957 99.7291 121.616 98.8257 121.592 97.7027C121.567 96.5796 120.859 95.7007 120.029 95.7251C119.199 95.7251 118.833 96.7505 118.857 97.8492Z" fill="#1A1B16"/>
<path d="M104.794 116.795C104.794 116.795 107.187 113.133 111.581 112.376C115.976 111.619 115.39 113.988 115.39 113.988C115.39 113.988 115.292 116.722 111.386 117.284C107.48 117.821 104.794 116.795 104.794 116.795Z" fill="#F77C2D"/>
<path d="M112.285 123.36C113.243 123.206 113.942 122.596 113.846 121.996C113.75 121.397 112.895 121.037 111.936 121.191C110.978 121.345 110.279 121.955 110.375 122.554C110.471 123.153 111.326 123.514 112.285 123.36Z" fill="#F77C2D"/>
<path d="M94.8336 98.0449C94.858 99.2413 95.2975 100.096 96.1764 100.071C97.0553 100.047 97.7878 99.0704 97.7389 97.874C97.7145 96.6777 96.9577 95.7256 96.0787 95.75C95.1998 95.7744 94.8092 96.8486 94.8336 98.0449Z" fill="#1A1B16"/>
<path d="M108.798 108.616C110.556 109.422 114.608 104.905 112.777 102.855C111.801 101.78 104.55 106.688 108.798 108.616Z" fill="#F77C2D"/>
<path d="M109.63 108.933L111.705 107.078C112.999 105.906 113.463 104.075 112.877 102.439L107.994 91.2329" stroke="#BF3028" stroke-width="1.95316" stroke-miterlimit="10" stroke-linecap="round" stroke-linejoin="round"/>
<path d="M104.794 117.259C104.794 117.259 112.143 112.791 115.439 114.207" stroke="#BF3028" stroke-width="1.95316" stroke-miterlimit="10" stroke-linecap="round" stroke-linejoin="round"/>
<path d="M92.0259 86.4731C92.0259 86.4731 96.2496 84.6176 100.522 85.1791" stroke="#1A1B16" stroke-width="1.95316" stroke-miterlimit="10" stroke-linecap="round" stroke-linejoin="round"/>
<path d="M115.855 84.8366C115.855 84.8366 119.297 84.0797 122.911 84.861" stroke="#1A1B16" stroke-width="1.95316" stroke-miterlimit="10" stroke-linecap="round" stroke-linejoin="round"/>
<path d="M74.8882 91.77L87.8279 96.067" stroke="#C9CEEF" stroke-width="1.95316" stroke-miterlimit="10" stroke-linecap="round" stroke-linejoin="round"/>
<path d="M105.04 95.5547C107.627 92.9668 111.851 92.9668 114.439 95.5547" stroke="#C9CEEF" stroke-width="1.95316" stroke-miterlimit="10" stroke-linecap="round" stroke-linejoin="round"/>
<path d="M105.455 98.2644C105.455 103.196 101.451 107.2 96.5197 107.2C96.422 107.2 96.2999 107.2 96.2023 107.2C91.417 107.029 87.584 103.098 87.584 98.2644C87.584 95.7497 88.6094 93.5036 90.2696 91.8678C91.8809 90.3053 94.0782 89.3287 96.5197 89.3287C101.451 89.3043 105.455 93.3083 105.455 98.2644Z" stroke="#EDE3EB" stroke-width="1.95316" stroke-miterlimit="10" stroke-linecap="round" stroke-linejoin="round"/>
<path d="M132.068 98.2644C132.068 103.196 128.064 107.2 123.132 107.2C123.01 107.2 122.888 107.2 122.766 107.2C122.424 107.2 122.107 107.151 121.79 107.102C117.932 106.517 114.88 103.465 114.294 99.6072C114.221 99.1678 114.197 98.7283 114.197 98.2644C114.197 95.7741 115.222 93.5036 116.858 91.8922C118.469 90.3053 120.691 89.3287 123.132 89.3287C128.064 89.3043 132.068 93.3083 132.068 98.2644Z" stroke="#EDE3EB" stroke-width="1.95316" stroke-miterlimit="10" stroke-linecap="round" stroke-linejoin="round"/>
</g>
<defs>
<clipPath id="clip0_3_13964">
<rect x="0.868164" y="0.375977" width="198.663" height="198.663" rx="99.3317" fill="white"/>
</clipPath>
</defs>
</svg>
