<svg width="199" height="200" viewBox="0 0 199 200" fill="none" xmlns="http://www.w3.org/2000/svg">
<g clip-path="url(#clip0_3_14587)">
<path d="M0.157715 99.6881C0.157715 44.8287 44.63 0.356445 99.4894 0.356445V0.356445C154.349 0.356445 198.821 44.8287 198.821 99.6881V99.6881C198.821 154.548 154.349 199.02 99.4894 199.02V199.02C44.63 199.02 0.157715 154.548 0.157715 99.6881V99.6881Z" fill="#5FA6E8"/>
<path d="M109.101 84.9862C108.877 83.9811 108.468 83.1249 107.947 82.3432C108.915 80.0353 109.547 77.4668 109.696 74.6749C110.329 63.768 93.3546 63.5075 92.7218 74.4143C92.0518 86.438 68.4885 75.7917 62.9792 74.4143C53.1518 71.9203 43.2872 72.1436 34.3533 77.3551C19.0539 86.289 7.51414 110.857 15.2941 127.981C25.531 150.539 56.3159 132.113 71.6898 126.231C89.9672 119.27 114.833 109.443 109.101 84.9862Z" fill="#FE4E4E"/>
<path d="M224.609 212.333C199.817 212.63 179.492 195.73 172.345 171.683C168.176 157.612 149.191 152.028 136.758 157.277C122.017 163.494 118.146 178.756 122.352 192.864C135.343 236.492 178.189 265.676 222.598 266.532C223.492 248.478 224.125 230.424 224.609 212.333Z" fill="white"/>
<path d="M161.364 290.283C154.664 258.157 157.083 225.102 167.544 191.786C192.782 111.454 65.2869 75.4206 40.1229 155.454C22.8133 210.51 22.7761 268.953 35.4697 323.301C77.4966 312.394 118.742 298.435 161.364 290.283Z" fill="white"/>
<path d="M149.043 160.479C148.335 159.771 147.256 160.851 147.963 161.558C155.222 168.966 155.669 181.213 148.894 189.067C148.261 189.812 149.34 190.929 149.973 190.147C157.269 181.66 156.897 168.519 149.043 160.479Z" fill="#23355F"/>
<path d="M150.455 192.865C150.343 191.897 148.817 191.86 148.929 192.865L150.939 211.403C151.051 212.371 152.577 212.408 152.465 211.403L150.455 192.865Z" fill="#23355F"/>
<path d="M136.944 42.3641C128.755 33.9141 114.423 36.4826 108.207 45.826C105.675 49.6602 107.276 55.1694 111.073 57.4774C115.13 59.9342 120.193 58.4452 122.724 54.6111C122.166 55.43 122.575 55.095 122.724 54.6111C122.762 54.6111 122.762 54.5739 122.799 54.5739C122.91 54.4994 123.022 54.4622 123.134 54.3877C123.283 54.3505 123.506 54.3133 123.692 54.2388C123.953 54.2388 124.325 54.2016 124.399 54.2016C124.399 54.2016 124.399 54.2016 124.437 54.2016C124.511 54.2016 124.623 54.2388 124.734 54.276C124.772 54.3133 124.809 54.3133 124.883 54.3877C124.958 54.6111 124.995 54.8344 125.032 55.0578C124.883 54.7227 124.809 55.2811 124.995 55.5045C124.958 55.6161 124.846 55.9139 124.772 56.2117C124.772 56.0628 124.586 56.3234 124.474 56.5095C124.288 56.6584 124.139 56.8073 124.437 56.6584C124.437 56.6957 124.437 56.6957 124.474 56.6584C121.049 59.3386 119.449 63.8056 121.719 67.8631C123.804 71.5856 129.499 73.7074 133.296 71.0645C142.714 64.5873 145.245 50.963 136.944 42.3641Z" fill="#FE4E4E"/>
<path d="M138.471 59.8237C138.247 54.7239 136.275 50.0708 133.185 46.46C132.813 46.0133 129.872 45.641 128.83 45.9016C127.08 46.3855 125.33 46.9811 123.618 47.6139C122.874 47.9117 122.129 48.1723 121.385 48.5073C121.31 48.5446 120.938 48.6935 120.863 48.7307C120.454 48.9168 120.082 49.1029 119.672 49.2891C112.972 52.3787 106.644 56.2501 100.278 60.0098C99.5336 60.4565 98.7519 60.6799 97.9701 60.7915C97.1884 61.536 96.4439 62.2805 95.6994 63.0623C94.2104 64.6257 92.7587 66.1891 91.3813 67.827C92.4981 74.0808 92.5353 80.8185 92.9076 86.1417C93.7265 98.1653 93.6521 110.04 91.3813 121.766C92.0514 129.509 96.6301 136.321 104.968 138.219C113.679 140.192 125.219 134.348 126.373 124.707C127.043 119.309 127.676 113.949 128.346 108.551C135.493 104.605 140.22 96.8997 139.811 88.189L138.471 59.8237Z" fill="#F2DAE9"/>
<path d="M127.452 107.99C123.059 108.809 118.667 109.368 114.237 109.628C113.232 109.703 113.492 111.229 114.46 111.154C118.89 110.894 123.32 110.335 127.675 109.517C128.68 109.33 128.457 107.804 127.452 107.99Z" fill="#23355F"/>
<path d="M122.837 62.0947L120.641 62.802C119.71 63.0998 120.157 64.5888 121.125 64.2538L123.321 63.5465C124.251 63.2487 123.805 61.7969 122.837 62.0947Z" fill="#23355F"/>
<path d="M124.548 69.3889C122.575 69.7239 123.096 72.7391 125.032 72.4413C127.005 72.1063 126.521 69.0539 124.548 69.3889Z" fill="#23355F"/>
<path d="M137.989 58.9302L135.681 58.5952C134.713 58.4463 134.49 59.9725 135.458 60.1214L137.766 60.4564C138.771 60.6053 138.994 59.0791 137.989 58.9302Z" fill="#23355F"/>
<path d="M137.429 67.8254C135.456 68.1605 135.977 71.1757 137.913 70.8779C139.886 70.5429 139.365 67.4904 137.429 67.8254Z" fill="#23355F"/>
<path d="M101.768 73.8193C104.076 67.8261 111.781 53.1967 135.121 46.5335C130.84 41.2475 122.688 38.4557 115.392 38.7907L107.724 39.1629C70.2755 44.4489 89.1112 86.8107 93.1687 95.0374C98.1196 89.7143 99.7948 78.9563 101.768 73.8193Z" fill="#FE4E4E"/>
<path d="M103.442 72.1071C89.1104 64.2899 85.3507 65.7416 83.4895 71.772C81.6282 77.8025 83.9362 81.0783 95.1781 86.0664C106.42 91.0545 103.442 72.1071 103.442 72.1071Z" fill="#F2DAE9"/>
<path d="M102.028 78.4354C100.204 75.383 97.3746 73.2611 93.9499 72.2561C92.982 71.9955 92.647 73.4845 93.6149 73.7451C96.6301 74.6012 99.1241 76.5369 100.725 79.2543C101.246 80.1105 102.549 79.2916 102.028 78.4354Z" fill="#23355F"/>
<path d="M136.311 73.6333C135.752 72.8144 134.375 73.5217 134.933 74.3406C136.683 76.9091 139.549 81.86 135.38 83.7957C134.487 84.2052 135.157 85.5825 136.087 85.173C141.076 82.8279 138.581 77.0208 136.311 73.6333Z" fill="#23355F"/>
<path d="M126.743 95.336C121.83 95.8943 117.772 92.693 117.028 87.8538C116.879 86.8859 115.353 87.1837 115.501 88.1888C116.358 93.9214 121.346 97.5322 127.041 96.8622C128.046 96.7133 127.711 95.2243 126.743 95.336Z" fill="#23355F"/>
<path d="M305.921 172.451L184.252 239.744L193.711 256.846L315.38 189.553L305.921 172.451Z" fill="#23355F"/>
<path d="M302.782 181.735L99.1624 294.34C98.3062 294.824 99.0507 296.164 99.9069 295.68L303.527 183.075C304.42 182.591 303.676 181.251 302.782 181.735Z" fill="#F7ACA9"/>
<path d="M301.035 188.136L97.4153 300.741C96.5591 301.225 97.3036 302.565 98.1598 302.081L301.78 189.476C302.673 188.992 301.929 187.652 301.035 188.136Z" fill="#F7ACA9"/>
<path d="M295.562 196.587L103.109 303.05C102.253 303.534 102.997 304.874 103.854 304.39L296.306 197.927C297.199 197.48 296.455 196.103 295.562 196.587Z" fill="#F7ACA9"/>
<path d="M279.22 189.327L94.1751 291.658C93.3189 292.142 94.0634 293.482 94.9196 292.999L279.964 190.667C280.82 190.184 280.076 188.843 279.22 189.327Z" fill="#F7ACA9"/>
<path d="M72.2482 175.816C77.6458 155.044 81.8895 134.012 86.617 113.092C84.3091 113.203 81.8522 113.576 79.321 114.32C23.4464 130.587 -45.9779 169.264 -31.8324 239.172C-31.4974 240.736 -31.1252 242.262 -30.7157 243.788C-12.9967 236.79 5.13184 230.983 23.037 224.469C21.1758 198.895 48.201 184.452 72.2482 175.816Z" fill="white"/>
<path d="M54.7168 174.178C47.5696 181.772 40.3852 189.328 33.2381 196.922C32.568 197.63 33.6475 198.746 34.3176 198.002C41.4648 190.408 48.6491 182.851 55.7963 175.257C56.5036 174.55 55.4241 173.471 54.7168 174.178Z" fill="#23355F"/>
</g>
<defs>
<clipPath id="clip0_3_14587">
<path d="M0.157715 99.6881C0.157715 44.8287 44.63 0.356445 99.4894 0.356445V0.356445C154.349 0.356445 198.821 44.8287 198.821 99.6881V99.6881C198.821 154.548 154.349 199.02 99.4894 199.02V199.02C44.63 199.02 0.157715 154.548 0.157715 99.6881V99.6881Z" fill="white"/>
</clipPath>
</defs>
</svg>
