<svg width="199" height="200" viewBox="0 0 199 200" fill="none" xmlns="http://www.w3.org/2000/svg">
<g clip-path="url(#clip0_3_14054)">
<rect x="0.157715" y="0.375977" width="198.663" height="198.663" rx="99.3317" fill="#98C1FF"/>
<path d="M322.478 108.424L316.506 233.094C315.089 254.987 294.943 271.143 272.75 268.164L264.558 266.6L259.298 265.595L228.697 259.762L223.437 258.756L205.699 255.355C205.699 255.355 215.777 282.054 224.014 299.147C208.007 302.387 191.223 313.035 173.138 322.225C172.805 322.393 172.492 322.557 172.158 322.726C171.845 322.889 171.548 323.027 171.235 323.191C170.881 323.365 170.526 323.538 170.172 323.712C169.583 324.009 169.01 324.279 168.42 324.576C167.988 324.791 167.534 325.01 167.076 325.21C166.445 325.517 165.809 325.803 165.178 326.11C148.283 333.967 130.256 339.545 110.664 336.079C66.5418 328.278 42.3021 343.316 42.3021 343.316L30.535 350.087C0.567144 367.333 -37.9745 354.997 -51.6981 323.797L-73.4664 282.804L-74.0274 281.728L-77.1758 275.782L-77.4407 275.262L-96.2009 239.923L-66.4939 219.294L-60.1687 214.901L-59.4334 214.395L-17.1878 266.614L-14.821 229.011C-12.6035 193.872 13.0478 164.334 48.1124 156.521L151.842 133.42C174.75 128.312 198.73 133.973 216.734 148.711L241.064 168.656L245.762 172.509L259.098 183.43L275.874 105.417L290.459 106.342L295.861 106.684L322.478 108.424Z" fill="#EDE3EB"/>
<path d="M19.8994 162.533L16.9045 181.131L16.0529 186.402L11.1212 217.005L10.2696 222.277L5.33789 252.88L4.4863 258.151L-0.445383 288.754L-1.29698 294.025L-6.22867 324.628L-7.08027 329.9L-11.2969 356.09C-12.9811 355.669 -14.6275 355.149 -16.2703 354.561L-12.1507 328.974L-11.2991 323.703L-6.36741 293.1L-5.51582 287.829L-0.584133 257.226L0.267462 251.954L5.19916 221.351L6.05075 216.08L10.9824 185.477L11.834 180.206L13.9918 166.853C15.8642 165.314 17.8484 163.877 19.8994 162.533Z" fill="#C9CEEF"/>
<path d="M54.2654 151.181L59.6932 149.811L59.2261 152.735L58.3746 158.006L53.4433 188.605L52.5917 193.875L47.6604 224.474L46.8088 229.744L41.8775 260.343L41.026 265.614L36.0946 296.212L35.2431 301.483L30.3118 332.081L29.4602 337.352L26.7996 353.814C24.9678 354.698 23.1034 355.458 21.2065 356.095L24.3881 336.427L25.2396 331.157L30.171 300.558L31.0225 295.287L35.9538 264.689L36.8054 259.418L41.7367 228.82L42.5883 223.549L47.5196 192.95L48.3711 187.68L53.3024 157.081L54.154 151.811L54.2654 151.181Z" fill="#C9CEEF"/>
<path d="M93.6695 143.057L99.1175 141.682L96.1264 160.209L95.2748 165.48L90.3436 196.077L89.492 201.348L84.5608 231.945L83.7093 237.216L78.778 267.813L77.9265 273.084L72.9952 303.681L72.1437 308.952L67.6705 336.672C65.7336 337.076 63.9176 337.534 62.2315 338.001L67.0712 308.027L67.9227 302.757L72.854 272.159L73.7055 266.889L78.6368 236.291L79.4883 231.021L84.4196 200.423L85.2711 195.153L90.2024 164.555L91.0539 159.285L93.6695 143.057Z" fill="#C9CEEF"/>
<path d="M138.113 133.536L137.54 137.111L132.608 167.713L131.756 172.985L126.825 203.587L125.973 208.858L121.042 239.46L120.19 244.732L115.258 275.334L114.407 280.605L109.475 311.207L108.624 316.479L105.395 336.538C103.641 336.337 101.917 336.171 100.249 336.056L103.553 315.554L104.404 310.282L109.336 279.68L110.188 274.409L115.119 243.807L115.971 238.535L120.903 207.933L121.754 202.662L126.686 172.06L127.537 166.788L132.469 136.186L132.667 134.911L138.113 133.536Z" fill="#C9CEEF"/>
<path d="M170.928 130.226C172.656 130.324 174.359 130.496 176.06 130.735L174.675 139.326L173.823 144.597L168.891 175.201L168.04 180.472L163.108 211.075L162.256 216.347L157.325 246.95L156.473 252.222L151.541 282.825L150.69 288.096L145.758 318.7L144.906 323.971L142.7 337.626C140.925 338.073 139.113 338.464 137.305 338.787L139.842 323.067L140.693 317.795L145.625 287.192L146.476 281.92L151.408 251.317L152.26 246.046L157.191 215.442L158.043 210.171L162.975 179.568L163.826 174.296L168.758 143.693L169.61 138.421L170.928 130.226Z" fill="#C9CEEF"/>
<path d="M211.15 145.688L210.968 146.781L210.117 152.053L205.185 182.658L204.328 187.91L199.396 218.515L198.544 223.787L193.612 254.392L192.761 259.664L187.829 290.269L186.977 295.541L182.804 321.41C180.908 322.534 178.987 323.643 177.06 324.731L181.888 294.621L182.739 289.349L187.671 258.744L188.523 253.472L193.455 222.867L194.307 217.595L199.238 186.99L200.09 181.718L205.022 151.113L205.874 145.841L206.425 142.427C208.052 143.441 209.615 144.538 211.15 145.688Z" fill="#C9CEEF"/>
<path d="M221.134 294.151C221.838 295.592 222.542 297.032 223.25 298.407C222.205 298.628 221.166 298.87 220.117 299.158L220.098 299.249L219.911 299.21L214.846 298.313L184.236 292.926L178.943 292.001L148.332 286.613L143.06 285.683L112.45 280.295L107.177 279.365L76.5668 273.977L71.2942 273.047L40.684 267.659L35.4114 266.729L4.80121 261.341L-0.471425 260.411L-17.1219 257.486L-16.8767 252.243L0.450629 255.299L5.72326 256.229L36.3334 261.617L41.6061 262.547L72.2052 267.894L77.4778 268.824L108.088 274.212L113.361 275.142L143.971 280.53L149.243 281.46L179.854 286.848L185.126 287.778L215.736 293.166L221.009 294.096L221.134 294.151Z" fill="#C9CEEF"/>
<path d="M205.43 253.731C205.43 253.731 207.287 258.334 207.746 259.448L191.651 256.602L186.379 255.672L155.776 250.289L150.504 249.36L119.901 243.977L114.629 243.048L84.026 237.665L78.7545 236.735L48.151 231.353L42.8795 230.423L12.276 225.04L7.00458 224.111L-13.712 220.451C-13.4349 218.718 -13.0793 217.03 -12.703 215.337L7.91433 218.957L13.1858 219.887L43.7893 225.27L49.0608 226.199L79.6643 231.582L84.9357 232.511L115.539 237.894L120.811 238.824L151.414 244.206L156.686 245.136L187.289 250.519L192.561 251.448L205.43 253.731Z" fill="#C9CEEF"/>
<path d="M315.951 237.82C315.564 239.558 315.067 241.216 314.45 242.839L306.875 241.498L301.601 240.567L270.983 235.173L265.709 234.242L235.092 228.849L229.818 227.918L199.201 222.524L193.927 221.593L163.309 216.2L158.036 215.268L127.418 209.875L122.144 208.944L91.5267 203.55L86.2529 202.619L55.6354 197.226L50.3615 196.295L19.7441 190.901L14.4702 189.97L1.80876 187.736C3.00772 186.138 4.24392 184.595 5.56425 183.117L15.3937 184.859L20.6675 185.79L51.285 191.184L56.5589 192.115L87.1763 197.508L92.4502 198.439L123.068 203.833L128.341 204.764L158.959 210.157L164.233 211.089L194.85 216.482L200.124 217.413L230.742 222.807L236.015 223.738L266.633 229.131L271.907 230.062L302.524 235.456L307.798 236.387L315.951 237.82Z" fill="#C9CEEF"/>
<path d="M318.916 201.735L318.761 206.995L314.371 206.227L309.096 205.294L278.469 199.893L273.193 198.961L242.567 193.56L237.291 192.627L206.659 187.206L201.383 186.273L170.757 180.872L165.481 179.94L134.854 174.539L129.579 173.606L98.952 168.205L93.6765 167.273L63.0497 161.872L57.7743 160.939L44.5724 158.601C46.0868 158.153 47.6177 157.767 49.1541 157.4L57.2514 155.549L58.6885 155.79L63.964 156.722L94.5908 162.123L99.8663 163.056L130.493 168.457L135.769 169.389L166.395 174.79L171.671 175.723L202.298 181.124L207.573 182.056L238.2 187.457L243.475 188.39L274.102 193.791L279.378 194.723L310.004 200.124L315.28 201.057L318.916 201.735Z" fill="#C9CEEF"/>
<path d="M225.733 153.047L214.136 150.994L208.861 150.062L178.236 144.662L172.961 143.73L142.337 138.331L137.062 137.399L134.135 136.887L137.275 136.158L142.956 134.852L147.156 133.877L173.881 138.6L179.156 139.532L209.78 144.932L215.055 145.864L217.17 146.236C217.559 146.526 217.927 146.821 218.321 147.131L225.733 153.047Z" fill="#C9CEEF"/>
<path d="M187.604 200.962L206.918 261.269" stroke="#1A1B16" stroke-width="2.06851" stroke-miterlimit="10" stroke-linecap="round" stroke-linejoin="round"/>
<path d="M95.1544 162.076C95.1544 162.076 99.5296 253.859 131.019 338.92" stroke="#1A1B16" stroke-width="2.06851" stroke-miterlimit="10" stroke-linecap="round" stroke-linejoin="round"/>
<path d="M68.9801 78.1626L70.9062 60.582C71.8949 53.5782 77.3323 47.859 84.1033 45.673L120.636 43.6983C128.24 44.8972 137.873 51.1384 137.747 65.91L136.832 93.6534L99.9238 98.5984L68.9801 78.1626Z" fill="#FACC73"/>
<path d="M87.6344 66.501C90.6327 66.768 104.6 66.7772 107.615 66.697C109.091 66.6648 110.611 66.793 112.058 66.4897C113.506 66.1864 114.962 65.345 115.435 63.9821C115.933 62.5485 115.155 60.9034 113.942 59.9471C112.73 58.9909 111.149 58.5567 109.612 58.2829C106.277 57.6729 102.875 57.5515 99.508 57.8066C96.5103 58.0324 81.1001 57.3612 78.4656 58.8447C72.1679 62.3514 85.2297 66.2976 87.6344 66.501Z" fill="#F9BD64"/>
<path d="M137.757 70.7512L137.1 91.825C136.09 90.5811 135.081 89.3372 134.091 88.0877C132.86 86.5736 131.572 84.9208 131.356 82.9456C131.176 81.3583 131.691 79.6428 131.033 78.1897C130.391 76.7983 128.906 76.1082 127.657 75.263C125.648 73.8788 122.342 70.4014 124.484 67.7874C126.401 65.4579 131.346 67.9225 133.639 68.5858C134.817 68.9194 136.032 69.3093 137.018 70.051C137.293 70.2838 137.542 70.5016 137.757 70.7512Z" fill="#F9BD64"/>
<path d="M137.532 98.1096C136.389 101.59 133.839 104.176 130.901 105.299L129.063 156.711L71.7275 156.28C71.7275 156.28 75.1594 134.311 75.2565 127.005C64.0238 121.246 66.2232 91.1225 68.4167 74.1762C68.6559 72.3335 68.8902 70.646 69.1146 69.1811C69.1146 69.1811 90.7049 80.7908 116.269 64.2882C118.715 64.9624 118.494 65.0408 120.472 65.7683C120.295 67.5073 120.092 69.9345 119.952 72.6977C119.683 78.3534 119.724 85.4257 121.025 90.8792C121.388 92.4144 123.53 92.5723 124.099 91.0854C124.632 89.7177 125.222 88.3135 126.137 87.1565C128.367 84.3444 132.558 84.2 135.116 86.7155C137.869 89.4011 138.957 93.831 137.532 98.1096Z" fill="#F8934F"/>
<path d="M82.8448 129.492L74.7101 130.268L74.9749 126.959C74.9749 126.959 74.9293 126.948 74.8331 126.906C74.8437 126.77 74.839 126.661 74.8496 126.525C63.8103 120.653 66.1249 90.2249 68.3692 73.1117C68.614 71.2509 68.9543 69.6098 69.1776 68.1097C69.1776 68.1097 69.2635 68.1986 70.7628 68.8798L69.1885 93.3909C68.7358 98.2574 68.8938 111.536 70.7811 116.002C73.8611 123.293 79.128 127.47 82.8448 129.492Z" fill="#F9AF79"/>
<path d="M130.797 106.01L129.305 147.613C124.326 150.818 119.13 153.683 113.402 154.945C111.596 155.34 109.563 155.528 108.047 154.462C106.64 153.479 106.056 151.583 106.28 149.854C106.483 148.13 107.387 146.58 108.394 145.179C109.802 143.28 111.503 141.593 113.432 140.199C115.046 139.04 116.872 138.024 117.884 136.293C119.399 133.685 118.534 130.319 119.477 127.439C120.856 123.238 125.887 120.768 126.472 116.373C127.088 111.75 122.981 105.846 130.38 105.918C130.524 105.969 130.663 106 130.797 106.01Z" fill="#F77C2D"/>
<path d="M125.856 98.2208C125.856 98.2208 129.304 100.257 131.407 97.5199C133.511 94.783 131.561 91.8901 131.561 91.8901C130.565 92.4173 129.611 93.0201 128.737 93.7539C127.348 94.9298 126.233 96.4674 125.856 98.2208Z" fill="#F77C2D"/>
<path d="M131.604 91.9223C131.604 91.9223 133.558 94.8078 131.443 97.5331C129.328 100.258 125.87 98.2253 125.87 98.2253C126.25 96.4781 127.392 94.9415 128.788 93.7711C130.184 92.6007 131.828 91.7764 133.463 90.9979" stroke="#BF3028" stroke-width="2.06851" stroke-miterlimit="10" stroke-linecap="round" stroke-linejoin="round"/>
<path d="M74.5626 126.917C74.5626 126.917 81.4586 131.291 92.588 130.65C105.295 129.93 111.516 123.917 111.516 123.917C111.516 123.917 102.67 137.361 73.5691 136.586C74.2273 131.205 74.5626 126.917 74.5626 126.917Z" fill="#BF3028"/>
<path d="M127.145 106.414C127.145 106.414 129.384 106.855 131.486 105.842" stroke="#BF3028" stroke-width="2.06851" stroke-miterlimit="10" stroke-linecap="round" stroke-linejoin="round"/>
<path d="M84.6403 94.4648C85.0894 92.3893 92.5206 94.3947 90.4331 97.3913C89.4547 98.8067 84.0238 97.3021 84.6403 94.4648Z" fill="#F77C2D"/>
<path d="M96.4185 89.2034C96.4551 90.159 96.7918 90.8557 97.522 90.8282C98.232 90.8064 98.7965 89.9908 98.7599 89.0351C98.7233 88.0794 98.1265 87.3015 97.4018 87.3494C96.6863 87.3508 96.3765 88.2272 96.4185 89.2034Z" fill="#1A1B16"/>
<path d="M76.497 87.2171C76.5282 88.1523 76.8742 88.8025 77.564 88.7862C78.2484 88.7496 78.7834 87.9861 78.7522 87.0509C78.721 86.1156 78.1405 85.399 77.4507 85.4153C76.7664 85.4519 76.4659 86.2819 76.497 87.2171Z" fill="#1A1B16"/>
<path d="M105.837 80.4065C102.633 79.0629 99.1294 78.6206 95.7446 79.1509" stroke="#1A1B16" stroke-width="2.06851" stroke-miterlimit="10" stroke-linecap="round" stroke-linejoin="round"/>
<path d="M81.6069 78.0076C78.9949 77.2848 76.2488 77.1185 73.5835 77.5659" stroke="#1A1B16" stroke-width="2.06851" stroke-miterlimit="10" stroke-linecap="round" stroke-linejoin="round"/>
<path d="M89.3824 97.73L87.2587 97.3044C85.6735 96.9942 84.5967 95.4068 84.8372 93.738L86.3666 82.9673" stroke="#BF3028" stroke-width="2.06851" stroke-miterlimit="10" stroke-linecap="round" stroke-linejoin="round"/>
<path d="M86.3895 103.978C88.9237 104.502 92.6339 103.89 96.5384 100.393" stroke="#BF3028" stroke-width="2.06851" stroke-miterlimit="10" stroke-linecap="round" stroke-linejoin="round"/>
<path d="M93.9011 108.582C95.1408 108.05 95.933 107.151 95.6704 106.575C95.4079 105.999 94.19 105.964 92.9503 106.496C91.7105 107.029 90.9184 107.927 91.181 108.503C91.4435 109.079 92.6613 109.115 93.9011 108.582Z" fill="#F77C2D"/>
<path d="M131.787 131.578L95.4031 153.547L57.9333 135.186C52.0273 150.963 52.4905 168.114 59.227 183.3L95.6108 161.331L133.081 179.692C139.007 163.91 138.544 146.759 131.787 131.578Z" fill="#0064C8"/>
<path d="M71.3208 151.894L89.3073 155.813" stroke="#173F80" stroke-width="2.06851" stroke-miterlimit="10" stroke-linecap="round" stroke-linejoin="round"/>
<path d="M75.0718 159.834L85.3622 158.42" stroke="#173F80" stroke-width="2.06851" stroke-miterlimit="10" stroke-linecap="round" stroke-linejoin="round"/>
<path d="M98.8321 154.875L115.663 148.783" stroke="#173F80" stroke-width="2.06851" stroke-miterlimit="10" stroke-linecap="round" stroke-linejoin="round"/>
<path d="M101.936 157.989L107.734 158.859" stroke="#173F80" stroke-width="2.06851" stroke-miterlimit="10" stroke-linecap="round" stroke-linejoin="round"/>
<path d="M58.0435 142.594C59.2592 146.044 61.1056 149.407 60.9471 153.083C60.7464 157.35 57.851 161.184 58.1142 165.455C58.3712 169.617 61.5482 172.834 63.202 176.608C63.6331 177.58 63.9513 178.606 64.1515 179.664L59.1672 182.964C57.7309 179.642 56.5846 176.218 55.7137 172.717C52.5724 160.088 53.1029 146.662 57.3638 134.026L57.8703 134.287C57.8949 137.176 56.8693 139.31 58.0435 142.594Z" fill="#0F70D1"/>
<path d="M135.019 142.076C138.267 154.609 137.81 167.958 133.58 180.545L122.737 175.176C122.811 172.67 122.282 170.135 122.706 167.664C123.666 162.005 129.179 158.309 130.98 152.857C132.616 147.918 130.923 142.536 130.595 137.327C130.494 135.869 130.596 134.043 130.968 132.275L131.495 131.928C132.946 135.226 134.124 138.623 135.019 142.076Z" fill="#0F70D1"/>
<path d="M139.744 65.1914L139.042 65.1196L71.4602 58.3293C71.4843 58.1068 71.5085 57.8843 71.5384 57.6818C71.9605 54.0908 73.0894 50.7431 74.7326 47.7332C78.3679 41.1667 84.6268 36.3188 91.9958 34.3502C95.2415 33.4832 98.7354 33.1763 102.291 33.5443L114.168 34.7353C126.046 35.9262 135.542 44.1482 138.71 54.7519C139.72 58.0469 140.093 61.5766 139.744 65.1914Z" fill="#0055A8"/>
<path d="M139.738 65.5935L139.033 65.5173C123.368 59.3663 106.263 57.5013 93.8491 57.0752C84.3048 56.7462 76.2286 57.2243 71.2238 57.6606C71.6341 54.0745 72.755 50.7359 74.3937 47.7382C79.4745 47.4118 86.17 47.1845 93.7955 47.4286C103.738 47.7623 113.229 48.8182 122.007 50.5999C127.883 51.7958 133.455 53.3085 138.676 55.1285C139.687 58.4533 140.075 61.9831 139.738 65.5935Z" fill="#173F80"/>
<path d="M118.597 52.2853C118.661 52.8128 118.718 53.4727 118.31 53.8693C117.803 54.3803 116.931 54.2949 116.594 55.0205C116.347 55.5251 116.649 55.8992 117.027 56.2307C117.346 56.5128 117.746 56.7726 118.072 57.0749L112.504 56.1537C111.661 56.0168 110.843 55.7419 110.106 55.292C109.815 55.1109 109.64 54.8762 109.683 54.4936C109.855 52.9633 113.266 54.0239 113.286 52.3396C113.3 51.5508 112.39 50.8 111.374 50.2094C111.244 50.1363 111.319 49.9412 111.457 49.9683C113.516 50.4009 115.519 50.7179 117.514 50.9283C117.805 50.9567 118.07 51.1232 118.225 51.3635C118.424 51.6791 118.557 51.9913 118.597 52.2853Z" fill="#0064C8"/>
<path d="M151.457 74.5997C151.196 79.0205 137.823 81.55 137.741 81.5709L137.532 74.3892C132.191 70.1868 119.203 66.1407 103.769 64.3011C89.6131 62.6114 77.0851 63.1918 70.4298 65.4774L69.281 73.6777C69.2077 73.6531 67.429 72.9162 66.5998 72.5649C59.8867 69.5581 55.973 66.2474 56.3005 63.196C56.6812 59.4162 63.4129 56.7861 73.7459 55.7052C82.279 54.8027 93.2589 54.9645 105.155 56.3868C117.576 57.87 128.736 60.4769 137.009 63.5402C146.239 66.9434 151.671 70.9276 151.457 74.5997Z" fill="#0F70D1"/>
<path d="M151.149 75.9107C149.52 78.9229 140.729 81.1336 137.7 81.8085L137.509 74.6129C132.166 70.3828 119.155 66.2808 103.686 64.3802C89.4973 62.6346 76.9354 63.1692 70.2571 65.4342L69.0841 73.6451C69.0107 73.6202 67.2294 72.8753 66.3989 72.5203C62.4697 70.754 59.5019 68.8761 57.7741 67.0117C59.1836 63.7728 65.6032 61.5296 75.0249 60.5917C83.5824 59.7194 94.5902 59.9225 106.514 61.3918C118.963 62.9241 130.145 65.5775 138.431 68.6773C144.445 70.9386 148.868 73.4264 151.149 75.9107Z" fill="#0055A8"/>
<path d="M137.485 75.5552L137.653 80.6107C137.653 80.6107 138.752 80.3855 139.392 79.3373C140.759 77.1717 137.485 75.5552 137.485 75.5552Z" fill="#1A1B16"/>
<path d="M70.1007 64.3724C70.1007 64.3724 68.1775 64.9123 67.1966 67.129C66.2015 69.3716 69.3208 70.1944 69.3208 70.1944C69.6836 67.2249 70.1007 64.3724 70.1007 64.3724Z" fill="#1A1B16"/>
</g>
<defs>
<clipPath id="clip0_3_14054">
<rect x="0.157715" y="0.375977" width="198.663" height="198.663" rx="99.3317" fill="white"/>
</clipPath>
</defs>
</svg>
