<svg width="200" height="200" viewBox="0 0 200 200" fill="none" xmlns="http://www.w3.org/2000/svg">
<g clip-path="url(#clip0_3_14589)">
<path d="M0.579102 100.084C0.579102 45.2243 45.0514 0.751953 99.9108 0.751953V0.751953C154.77 0.751953 199.242 45.2243 199.242 100.084V100.084C199.242 154.943 154.77 199.415 99.9108 199.415V199.415C45.0514 199.415 0.579102 154.943 0.579102 100.084V100.084Z" fill="#FAC02D"/>
<path d="M105.807 27.7266C77.4134 14.9172 71.8627 26.2322 75.919 39.0415C79.7618 51.8508 105.807 27.7266 105.807 27.7266Z" fill="#788BF1"/>
<path d="M114.991 85.5831L125.238 138.955C128.654 156.461 101.754 163.934 98.5519 146.427C95.1361 128.708 91.7203 110.775 88.3045 93.0552C84.8887 75.3356 111.788 67.8635 114.991 85.5831Z" fill="#FF6B57"/>
<path d="M119.896 110.134H91.7158C94.0642 122.089 96.4126 134.258 98.7609 146.213C102.177 163.719 128.863 156.247 125.447 138.741L119.896 110.134Z" fill="#788BF1"/>
<path d="M92.3546 113.551C95.13 111.843 97.9053 110.348 100.254 108.213C108.366 100.314 108.793 87.7184 106.018 77.4709C105.804 76.8304 105.804 76.4035 106.018 75.9765C97.2648 74.2686 86.1634 81.3137 88.2983 93.0556C89.5793 99.6738 90.8602 106.719 92.3546 113.551Z" fill="#2D264F"/>
<path d="M124.595 49.2899C123.314 39.0424 117.764 31.5703 106.662 30.5029C99.1901 29.8624 91.9315 31.5703 84.4594 31.1433C76.3468 37.548 74.8523 50.5708 75.0658 66.5825C75.0658 75.7625 75.7063 85.7965 75.9198 96.044C76.1333 103.516 90.864 104.584 104.527 97.7519C110.078 94.9765 115.415 91.1337 119.472 86.01C121.179 83.8751 122.46 81.5267 123.314 79.1783C124.382 69.1444 125.876 59.3239 124.595 49.2899Z" fill="#FF6B57"/>
<path d="M119.464 85.797C113.487 72.7742 115.408 56.976 117.116 41.8183C117.329 40.3239 115.835 38.616 114.554 38.4025C103.026 36.0541 91.4973 36.4811 79.7554 36.6946C82.7442 31.1439 87.6545 27.728 95.1266 26.6606C124.802 23.2448 129.712 32.4248 127.15 65.7291C126.509 74.0551 123.521 80.6733 119.464 85.797Z" fill="#788BF1"/>
<path d="M100.042 52.4915C100.042 54.8398 100.042 57.1882 100.042 59.5366C100.042 60.8175 97.9067 61.031 97.9067 59.7501C97.9067 57.4017 97.9067 55.0533 97.9067 52.7049C97.9067 51.424 100.042 51.2105 100.042 52.4915Z" fill="#2D264F"/>
<path d="M79.7579 52.0657C79.7579 54.4141 79.7579 56.7624 79.7579 59.1108C79.7579 60.3917 77.623 60.6052 77.623 59.3243C77.623 56.9759 77.623 54.6275 77.623 52.2792C77.623 50.9982 79.7579 50.7847 79.7579 52.0657Z" fill="#2D264F"/>
<path d="M82.7471 47.5817C81.8932 48.4357 80.6122 46.9412 81.4662 46.0873C83.8146 43.7389 86.5899 45.4468 87.2304 49.0761C87.6574 52.065 86.5899 55.9078 85.9495 58.6831L83.1741 73.4139C82.9606 74.6948 81.2527 74.2678 81.4662 72.7734C82.1067 68.9306 82.9606 64.8743 83.6011 61.0315C84.0281 59.1101 84.455 57.1887 84.6685 55.0538C84.882 54.4133 84.882 53.7729 85.0955 53.1324C86.163 50.5705 85.309 46.9412 82.7471 47.5817Z" fill="#2D264F"/>
<path d="M91.5012 67.2223C97.6923 66.7953 101.962 64.8739 106.232 60.3906C106.872 60.6041 107.513 61.0311 107.94 61.4581C108.153 61.4581 108.58 79.6046 108.58 88.5712C111.142 84.0879 113.491 79.3911 115.839 75.1214C116.479 73.8404 119.041 73.4134 118.401 74.6944C114.558 81.7395 110.288 91.987 104.524 97.9647C90.8607 104.583 76.13 103.729 75.9165 96.2568C75.703 86.0093 75.0625 75.9753 75.0625 66.7953C80.3997 67.2223 85.9505 67.6492 91.5012 67.2223Z" fill="#E4E9FF"/>
<path d="M113.492 51.8517C129.93 46.9415 141.245 68.9308 113.492 76.8299V51.8517Z" fill="#FF6B57"/>
<path d="M114.346 64.661C116.695 62.0992 119.47 59.9643 122.245 58.0429C123.526 57.4024 124.594 59.1103 123.313 59.9643C120.537 61.6722 117.976 63.8071 115.841 66.1554C114.987 67.2229 113.492 65.7285 114.346 64.661Z" fill="#2D264F"/>
<path d="M115.414 68.717C117.762 68.5035 118.829 65.9416 117.121 64.2337C116.267 63.1663 117.762 61.6719 118.616 62.7393C121.391 65.9416 119.47 70.6384 115.2 70.8519C114.133 71.0654 114.133 68.9305 115.414 68.717Z" fill="#2D264F"/>
<path d="M119.254 38.8289C118.828 35.8401 117.12 32.8512 113.917 31.7838C111.569 30.9298 108.58 31.7838 107.726 34.5591C107.299 36.0536 107.726 36.9075 108.367 37.548C108.793 42.8852 108.794 48.4359 109.647 53.7731C109.861 55.908 110.715 58.4699 113.063 58.6834C115.839 59.1103 117.12 55.908 117.76 53.7731C119.041 49.2899 120.108 43.5257 119.254 38.8289Z" fill="#788BF1"/>
<path d="M103.885 65.7286C105.166 62.0993 106.874 58.8969 109.009 55.6946C110.93 53.1327 113.279 50.3574 116.268 49.5034C117.549 49.0764 118.189 51.2113 116.908 51.6383C113.919 52.4923 111.357 56.1216 109.649 58.4699C107.942 60.8183 106.874 63.5937 105.807 66.369C105.38 67.65 103.458 67.0095 103.885 65.7286Z" fill="#E4E9FF"/>
<path d="M100.894 44.3787C98.759 44.1652 96.6241 43.9517 94.4892 43.7382C91.7139 43.5247 91.7139 47.7945 94.4892 48.008C96.6241 48.2215 98.759 48.435 100.894 48.6485C103.669 48.862 103.669 44.5922 100.894 44.3787Z" fill="#2D264F"/>
<path d="M84.4591 44.1666L77.6274 43.9531C74.852 43.9531 74.6385 48.2229 77.4139 48.2229L84.2456 48.4364C87.0209 48.6499 87.2344 44.3801 84.4591 44.1666Z" fill="#2D264F"/>
<path d="M197.621 289.677H33.021C33.2345 277.508 33.4479 266.193 33.4479 255.732C33.6614 233.529 33.8749 214.742 34.5154 198.944C34.5154 198.09 34.5154 197.236 34.5154 196.595C36.2233 153.471 40.9201 133.403 56.2913 123.582C58.8531 121.874 61.6285 120.593 64.8308 119.526C69.3141 118.031 74.4378 116.964 80.4155 116.11C81.056 116.11 82.5504 116.11 83.1909 116.324C93.0114 116.537 94.0788 115.256 97.7081 114.616C104.54 113.548 112.225 113.975 120.551 113.762C126.743 113.548 132.293 113.548 137.417 113.762C138.484 113.762 139.552 113.762 140.406 113.975C146.384 114.189 151.507 114.829 156.204 115.683C174.564 119.099 184.812 126.785 190.576 140.875C195.913 154.111 197.194 173.112 197.407 199.371C197.621 223.282 196.98 252.743 197.621 289.677Z" fill="#788BF1"/>
<path d="M224.517 376.781C214.697 302.487 204.876 228.192 195.056 154.112C193.135 140.449 184.595 128.493 169.437 128.493C157.055 128.493 141.897 140.235 143.819 154.112C153.853 229.473 163.887 304.622 173.707 379.983C190.786 379.343 207.652 377.848 224.517 376.781Z" fill="#788BF1"/>
<path d="M151.935 158.594C151.935 157.313 149.8 157.313 149.8 158.594C153.002 198.516 155.991 238.225 159.193 278.147C159.193 279.428 161.328 279.428 161.328 278.147C158.126 238.225 154.924 198.516 151.935 158.594Z" fill="#2D264F"/>
</g>
<defs>
<clipPath id="clip0_3_14589">
<path d="M0.579102 100.084C0.579102 45.2243 45.0514 0.751953 99.9108 0.751953V0.751953C154.77 0.751953 199.242 45.2243 199.242 100.084V100.084C199.242 154.943 154.77 199.415 99.9108 199.415V199.415C45.0514 199.415 0.579102 154.943 0.579102 100.084V100.084Z" fill="white"/>
</clipPath>
</defs>
</svg>
