<svg width="200" height="200" viewBox="0 0 200 200" fill="none" xmlns="http://www.w3.org/2000/svg">
<g clip-path="url(#clip0_3_14015)">
<rect x="0.579102" y="0.375977" width="198.663" height="198.663" rx="99.3317" fill="#7AC7FF"/>
<path d="M73.9641 48.5437C74.7646 47.8965 74.3983 46.1472 73.1458 44.6366C71.8934 43.126 70.2291 42.4261 69.4285 43.0733C68.628 43.7205 68.9943 45.4697 70.2468 46.9803C71.4992 48.4909 73.1635 49.1909 73.9641 48.5437Z" fill="#D6261D"/>
<path d="M118.09 55.6734L82.5583 91.2329C82.5583 91.2329 71.7089 95.5623 64.5852 89.4823C62.2884 87.4846 60.5078 84.9626 59.3951 82.1312C55.6036 72.7109 57.9409 58.7238 73.4102 46.2537C80.211 40.772 86.2334 38.2744 91.4757 37.6869C109.257 35.6942 118.09 55.6734 118.09 55.6734Z" fill="#F52A21"/>
<path d="M91.0854 37.7052C88.1263 43.0505 81.8609 42.4453 77.9508 46.2651C76.354 47.8257 75.5572 50.1291 73.8005 51.5011C72.5693 52.4628 71.0104 52.8561 69.6434 53.6192C68.1286 54.4761 66.9041 55.775 66.1291 57.3469C65.4626 58.7006 65.1638 60.2031 64.8678 61.6844C64.024 65.9145 63.1782 70.1476 62.6413 74.429C62.4141 76.247 62.2245 78.128 61.3552 79.7338C60.8128 80.7371 60.0315 81.5808 59.234 82.4109C55.4736 72.9398 57.7972 58.8739 73.1535 46.3275C79.9046 40.8123 85.8824 38.2982 91.0854 37.7052Z" fill="#F65852"/>
<path d="M267.756 134.642L227.514 210.503C221.165 222.468 205.715 226.365 194.304 218.877L156.168 193.846L141.007 257.584L79.003 249.461L75.0436 251.18C70.5353 252.74 65.6746 253.034 61.0038 252.027C56.3329 251.02 52.0354 248.752 48.5904 245.477L1.72678 239.338L16.5108 185.43L12.6323 175.463L8.26609 164.238C3.64942 147.958 16.7685 128.318 33.8606 127.472L61.636 126.097L78.4117 125.266L133.801 124.276C147.439 124.035 160.65 129.012 170.667 138.165L202.274 167.049L222.532 114.043C223.112 115.076 224.338 116.087 226.407 116.915C227.904 117.508 229.349 118.221 230.729 119.047C238.098 123.497 239.169 129.134 243.432 131.229C250.617 134.76 254.487 132.058 258.678 133.522C259.048 133.651 259.408 133.807 259.754 133.989C263.835 136.124 266.192 136.934 267.756 134.642Z" fill="#0064C8"/>
<path d="M23.2048 244.749C23.6162 242.763 24.1666 240.792 23.9659 238.787C23.4571 233.696 18.3719 230.116 17.3893 225.088C16.7154 221.644 18.0884 218.138 18.107 214.625C18.1233 210.616 16.3811 206.842 15.0067 203.077C14.4282 201.532 13.9435 199.953 13.5554 198.348L16.25 188.358C16.4288 188.245 16.6228 188.14 16.8147 188.039L43.6119 242.026C44.845 244.273 46.4049 246.322 48.2398 248.104L23.2048 244.749Z" fill="#0055A8"/>
<path d="M60.3103 126.899C57.2656 128.762 53.8657 129.966 50.3282 130.435C45.8495 131.022 40.9344 130.481 37.1715 132.993C34.5488 134.749 32.971 137.727 30.4631 139.647C28.0374 141.503 24.9121 142.233 22.425 144.007C18.1457 147.057 16.4825 152.616 15.8507 157.844C15.2189 163.072 15.3124 168.495 13.3709 173.384C12.9102 174.538 12.3118 175.632 11.5887 176.642L7.26021 165.321C2.6868 148.903 15.7332 129.108 32.7118 128.264L60.3103 126.899Z" fill="#0F70D1"/>
<path d="M77.4185 126.314C77.4185 126.314 66.4089 135.417 74.479 140.491C82.5491 145.565 97.4982 138.906 102.98 132.654C102.98 132.654 116.843 142.458 125.272 137.499C132.021 133.525 118.035 127.867 118.035 127.867" stroke="#173F80" stroke-width="1.3211" stroke-linecap="round" stroke-linejoin="round"/>
<path d="M97.4815 178.602C97.4815 178.602 105.733 152.743 103.106 133.027" stroke="#173F80" stroke-width="1.3211" stroke-linecap="round" stroke-linejoin="round"/>
<path d="M106.07 162.804C106.577 162.871 107.042 162.516 107.109 162.01C107.176 161.504 106.819 161.039 106.313 160.972C105.806 160.904 105.341 161.26 105.274 161.766C105.208 162.272 105.564 162.737 106.07 162.804Z" fill="#1A1B16"/>
<path d="M104.234 172.897C104.74 172.965 105.205 172.609 105.272 172.103C105.339 171.597 104.982 171.132 104.476 171.065C103.969 170.998 103.504 171.353 103.437 171.859C103.371 172.365 103.727 172.83 104.234 172.897Z" fill="#1A1B16"/>
<path d="M81.6925 116.795C81.6925 116.795 77.5264 122.341 73.7557 119.852C69.9849 117.364 75.0283 110.121 75.0283 110.121C75.0283 110.121 71.1531 117.026 66.8768 113.479C62.6006 109.932 74.175 101.611 74.2748 95.8365C74.3746 90.0616 66.2799 68.203 72.1464 58.2368C77.6378 48.9083 85.6559 50.1533 85.6559 50.1533C85.6559 50.1533 90.5941 37.4494 103.513 42.6554C109.683 35.5641 123.921 33.1904 126.431 46.5676C134.186 43.6508 143.291 62.8777 123.602 69.4586C103.912 76.0395 81.6925 116.795 81.6925 116.795Z" fill="#FACC73"/>
<path d="M116.692 36.9694C115.684 37.8846 114.738 38.8668 113.861 39.9095C111.48 42.6872 109.238 45.7375 106.049 47.5182C103.802 48.766 101.231 49.2982 98.6748 49.0444C97.4475 48.9212 96.2013 48.6172 94.9953 48.881C91.8042 49.5829 90.7038 53.6107 88.1497 55.6562C85.5427 57.7424 81.6965 57.5368 78.9568 59.4469C75.7304 61.7023 74.997 66.1092 74.5384 70.0351C74.3118 71.9836 74.0633 82.7729 72.1639 86.4397C70.2069 77.4523 67.6665 65.0408 71.6973 58.2133C77.1993 48.8916 85.2273 50.1326 85.2273 50.1326C85.2273 50.1326 90.1768 37.4389 103.11 42.6355C106.362 38.9125 111.854 36.4809 116.692 36.9694Z" fill="#F9BD64"/>
<path d="M83.8972 54.1584C83.8972 54.1584 84.1119 52.7693 84.9485 50.139" stroke="#BF3028" stroke-width="1.3211" stroke-linecap="round" stroke-linejoin="round"/>
<path d="M102.989 42.281C102.247 43.2452 101.571 44.2605 100.967 45.3194" stroke="#BF3028" stroke-width="1.3211" stroke-linecap="round" stroke-linejoin="round"/>
<path d="M126.351 45.825C126.351 45.825 125.801 48.2411 124.561 49.7332" stroke="#BF3028" stroke-width="1.3211" stroke-linecap="round" stroke-linejoin="round"/>
<path d="M80.3419 83.9671L79.7241 77.3989" stroke="#BF3028" stroke-width="1.3211" stroke-linecap="round" stroke-linejoin="round"/>
<path d="M117.073 118.221L117.129 120.296L117.317 127.392C114.994 129.221 111.061 132.07 102.411 132.228C88.8882 132.477 77.1351 125.714 77.1351 125.714L76.6112 100.038C73.9902 99.3217 71.6677 97.1978 70.6385 94.213C69.2524 90.2172 70.6279 86.0069 73.7269 84.0757L73.7411 84.0677C73.9885 83.9362 77.4224 82.2326 80.8861 83.8525C81.4798 90.449 82.5227 98.0541 83.1403 102.319C83.2647 103.168 83.691 103.944 84.3405 104.504C84.9901 105.063 85.8191 105.37 86.6751 105.366C87.531 105.362 88.3561 105.048 88.9984 104.483C89.6408 103.917 90.0571 103.138 90.1707 102.288C90.2028 102.04 90.2093 101.79 90.19 101.541C90.19 101.541 88.7745 82.8707 88.2428 75.665C98.2638 76.5266 112.043 73.255 119.215 71.2271C121.872 70.4751 123.622 69.8911 123.94 69.7493C124.062 70.5329 124.197 71.4072 124.341 72.3534C124.336 72.3858 128.026 98.7193 127.104 105.734C125.8 115.603 117.073 118.221 117.073 118.221Z" fill="#F8934F"/>
<path d="M114.777 72.0704C107.7 77.5005 93.6814 79.9511 88.2119 80.7283C88.0507 78.6523 87.9075 76.7898 87.7973 75.3767C96.1721 76.0672 107.138 73.9592 114.777 72.0704Z" fill="#F77C2D"/>
<path d="M117.284 117.997L117.34 120.087L104.303 119.848C104.893 119.808 121.237 117.264 123.973 106.748C126.749 96.0805 122.471 75.937 121.197 70.1171C123.82 69.3569 123.72 69.3118 124.033 69.1752C124.154 69.9644 124.288 70.8449 124.43 71.7979C124.426 71.8305 124.439 71.8638 124.443 71.8943C125.869 81.4596 128.081 98.3409 127.174 105.407C125.897 115.351 117.284 117.997 117.284 117.997Z" fill="#F9AF79"/>
<path d="M86.1106 130.142C80.6983 128.325 77.1708 126.24 77.1708 126.24L76.6514 100.418C76.5508 100.389 76.4519 100.361 76.352 100.327C77.5087 100.298 78.949 100.632 79.3679 101.472C79.9092 102.561 79.1228 104.294 79.7743 105.626C80.078 106.248 80.5045 106.803 80.7753 107.44C82.0762 110.498 79.449 114.234 80.8224 117.26C81.5063 118.768 83.0146 119.671 84.1986 120.815C85.8893 122.446 86.9991 124.766 86.9271 127.132C86.8887 128.187 86.6091 129.217 86.1106 130.142V130.142Z" fill="#F77C2D"/>
<path d="M79.977 94.1991C79.977 94.1991 77.0057 95.6226 75.4876 93.204C73.9696 90.7855 75.7752 88.5353 75.7752 88.5353C76.5557 89.0425 77.2814 89.6294 77.9406 90.2867C78.9899 91.3595 79.7978 92.7159 79.977 94.1991Z" fill="#F77C2D"/>
<path d="M75.7677 88.5398C75.7677 88.5398 73.9564 90.7863 75.4801 93.2056C77.0039 95.6249 79.9721 94.2016 79.9721 94.2016C79.793 92.7177 78.983 91.3619 77.9378 90.2905C76.8927 89.219 75.6163 88.4029 74.3257 87.644" stroke="#BF3028" stroke-width="1.3211" stroke-linecap="round" stroke-linejoin="round"/>
<path d="M100.33 119.639C100.33 119.639 108.717 121.483 117.608 118.293L117.66 123.938C117.66 123.938 109.254 126.181 100.33 119.639Z" fill="#BF3028"/>
<path d="M76.3174 100.413C76.3174 100.413 77.318 100.932 80.8116 100.942" stroke="#BF3028" stroke-width="1.3211" stroke-linecap="round" stroke-linejoin="round"/>
<path d="M104.873 88.9028C104.967 89.7589 104.744 90.4123 104.107 90.4836C103.47 90.5548 102.87 89.918 102.782 89.0644C102.694 88.2108 103.125 87.4599 103.763 87.3805C104.401 87.3011 104.777 88.0481 104.873 88.9028Z" fill="#1A1B16"/>
<path d="M116.159 93.4865C117.742 94.356 114.288 98.609 112.524 97.3629C110.759 96.1169 114.6 92.6331 116.159 93.4865Z" fill="#F77C2D"/>
<path d="M122.62 86.7481C122.708 87.5473 122.498 88.1595 121.903 88.2264C121.308 88.2934 120.753 87.6974 120.664 86.9047C120.575 86.112 120.985 85.403 121.579 85.3358C122.173 85.2687 122.529 85.9536 122.62 86.7481Z" fill="#1A1B16"/>
<path d="M114.745 83.2334C115.35 84.9777 116.735 90.4482 116.902 92.5768C117.022 94.1789 115.503 96.1001 114.46 97.0987" stroke="#BF3028" stroke-width="1.3211" stroke-linecap="round" stroke-linejoin="round"/>
<path d="M100.096 84.8713L106.035 84.2236" stroke="#1A1B16" stroke-width="1.3211" stroke-linecap="round" stroke-linejoin="round"/>
<path d="M118.847 82.4571L123.278 81.9735" stroke="#1A1B16" stroke-width="1.3211" stroke-linecap="round" stroke-linejoin="round"/>
<path d="M110.148 104.934L117.927 103.261" stroke="#BF3028" stroke-width="1.3211" stroke-linecap="round" stroke-linejoin="round"/>
<path d="M115.083 108.776C116.036 108.57 116.725 107.999 116.622 107.502C116.52 107.005 115.665 106.769 114.713 106.976C113.761 107.182 113.072 107.752 113.174 108.249C113.276 108.746 114.131 108.982 115.083 108.776Z" fill="#F77C2D"/>
</g>
<defs>
<clipPath id="clip0_3_14015">
<rect x="0.579102" y="0.375977" width="198.663" height="198.663" rx="99.3317" fill="white"/>
</clipPath>
</defs>
</svg>
