<svg width="199" height="200" viewBox="0 0 199 200" fill="none" xmlns="http://www.w3.org/2000/svg">
<g clip-path="url(#clip0_3_14592)">
<path d="M0.290039 100.084C0.290039 45.2243 44.7623 0.751953 99.6217 0.751953V0.751953C154.481 0.751953 198.953 45.2243 198.953 100.084V100.084C198.953 154.943 154.481 199.415 99.6217 199.415V199.415C44.7623 199.415 0.290039 154.943 0.290039 100.084V100.084Z" fill="#E67171"/>
<path d="M100.697 26.4465C69.6293 25.7183 60.6487 33.728 66.7167 56.3006C71.3283 73.7762 100.697 26.4465 100.697 26.4465Z" fill="#FFC741"/>
<path d="M126.666 40.2822C139.53 93.1945 150.452 82.2722 150.937 106.544L105.307 110.913L126.666 40.2822Z" fill="#FFC741"/>
<path d="M117.204 91.2531L128.854 151.932C132.737 171.835 102.155 180.33 98.5144 160.427C94.6309 140.282 90.7475 119.894 86.864 99.7482C82.9805 79.8455 113.563 71.3504 117.204 91.2531Z" fill="#788BF1"/>
<path d="M91.4743 123.291C94.6296 121.349 97.785 119.65 100.455 117.223C109.678 108.242 110.163 93.9222 107.008 82.2718C106.765 81.5436 106.765 81.0582 107.008 80.5728C97.0568 78.631 84.4355 86.6407 86.8627 99.9901C88.319 107.514 89.7753 115.281 91.4743 123.291Z" fill="#2D264F"/>
<path d="M71.8128 69.6509C71.8128 80.0877 72.541 91.4954 72.7837 103.146C73.0264 111.641 89.7739 112.854 105.308 105.088C111.618 101.932 117.686 97.5633 122.298 91.7381C126.91 85.6702 129.094 77.9032 129.822 68.68C132.977 30.8162 126.667 22.3211 92.6865 26.2046C72.7837 28.6318 71.5701 45.622 71.8128 69.6509Z" fill="#788BF1"/>
<path d="M122.064 91.738C115.268 76.9322 117.452 58.9712 119.394 41.7383C119.637 40.0393 117.938 38.0976 116.481 37.8549C103.375 35.185 86.3846 36.3986 73.0352 36.6413C76.4332 30.3306 85.6565 25.719 94.3943 24.7482C128.132 20.8647 133.714 31.3015 130.802 69.1653C130.316 78.3886 126.918 85.9128 122.064 91.738Z" fill="#FFC741"/>
<path d="M100.217 53.8739C100.217 56.5438 100.217 59.2137 100.217 61.8836C100.217 63.3399 97.7896 63.5826 97.7896 62.1263C97.7896 59.4564 97.7896 56.7865 97.7896 54.1166C97.7896 52.6603 100.217 52.4176 100.217 53.8739Z" fill="#2D264F"/>
<path d="M77.1581 53.3889C77.1581 56.0588 77.1581 58.7286 77.1581 61.3985C77.1581 62.8548 74.731 63.0975 74.731 61.6412C74.731 58.9714 74.731 56.3015 74.731 53.6316C74.731 51.9326 77.1581 51.6899 77.1581 53.3889Z" fill="#2D264F"/>
<path d="M80.5558 48.2914C79.5849 49.2622 78.1286 47.5632 79.0995 46.5924C81.7693 43.9225 84.9247 45.8642 85.6528 49.9904C86.1383 53.3884 84.9247 57.7573 84.1965 60.9126L81.0412 77.6601C80.7985 79.1164 78.8568 78.631 79.0995 76.9319C79.8276 72.563 80.7985 67.9514 81.5266 63.5825C82.0121 61.3981 82.4975 59.2136 82.7402 56.7865C82.9829 56.0583 82.983 55.3302 83.2257 54.602C84.4393 51.6894 83.4684 47.3205 80.5558 48.2914Z" fill="#2D264F"/>
<path d="M90.5071 70.6224C97.5459 70.137 102.4 67.9525 107.255 62.8555C107.983 63.0982 108.711 63.5836 109.196 64.0691C109.439 64.0691 109.924 84.7 109.924 94.8941C112.837 89.797 115.507 84.4572 118.177 79.6029C118.905 78.1466 121.818 77.6612 121.089 79.1175C116.72 87.1271 111.866 98.7776 105.313 105.574C89.7789 113.098 73.0314 112.127 72.7887 103.632C72.546 91.9815 71.8179 80.5738 71.8179 70.137C77.8858 70.6224 84.1964 70.8651 90.5071 70.6224Z" fill="#E4E9FF"/>
<path d="M115.508 53.1458C134.197 47.5633 147.061 72.5631 115.508 81.5436V53.1458Z" fill="#788BF1"/>
<path d="M116.474 67.7084C119.144 64.7958 122.3 62.3686 125.455 60.1842C126.911 59.456 128.125 61.3978 126.668 62.3687C123.513 64.3104 120.601 66.7375 118.173 69.4074C117.203 70.621 115.261 68.922 116.474 67.7084Z" fill="#2D264F"/>
<path d="M117.685 72.321C120.355 72.0783 121.568 69.1657 119.626 67.2239C118.656 66.0104 120.355 64.3113 121.325 65.5249C124.481 69.1657 122.296 74.5054 117.442 74.7481C116.228 74.9909 116.228 72.5637 117.685 72.321Z" fill="#2D264F"/>
<path d="M104.58 68.9224C106.036 64.7962 107.978 61.1555 110.405 57.5147C112.589 54.6021 115.259 51.4468 118.657 50.4759C120.113 49.9905 120.842 52.4177 119.385 52.9031C115.987 53.874 113.075 58.0002 111.133 60.6701C109.191 63.34 107.978 66.4953 106.764 69.6506C106.279 71.1069 103.851 70.3787 104.58 68.9224Z" fill="#E4E9FF"/>
<path d="M99.002 45.6223C100.216 45.865 101.429 46.1077 102.643 46.3504C104.099 46.5931 103.856 49.0203 102.157 48.7776C100.944 48.5349 99.7301 48.2922 98.5165 48.0494C97.0602 47.564 97.5457 45.3796 99.002 45.6223Z" fill="#2D264F"/>
<path d="M91.4746 31.7862C104.339 49.5045 119.387 54.3589 125.455 53.1453C131.523 51.9317 116.96 31.3008 116.96 31.3008L91.4746 31.7862Z" fill="#FFC741"/>
<path d="M82.4944 57.0294C82.2517 55.5731 79.8245 55.5731 80.0673 57.2721C80.5527 61.8837 76.6692 66.7381 71.8149 65.5245C67.9314 64.5536 65.747 60.1847 66.7178 56.3013C67.2033 54.845 64.7761 54.3595 64.2907 55.8158C62.8344 61.1556 66.4752 67.2235 72.0576 67.9517C78.1256 68.6798 83.2226 62.8546 82.4944 57.0294Z" fill="#F8F8F6"/>
<path d="M107.248 57.7569C107.006 56.3006 104.578 56.3007 104.821 57.9997C105.307 62.6113 101.423 67.4656 96.5688 66.252C92.6854 65.2812 90.5009 60.9123 91.4718 57.0288C91.9572 55.5725 89.53 55.0871 89.0446 56.5434C87.5883 61.8831 91.2291 67.951 96.8115 68.6792C102.879 69.6501 107.976 63.5821 107.248 57.7569Z" fill="#F8F8F6"/>
<path d="M89.2933 59.6983C86.8661 59.4556 84.439 59.2129 82.0118 58.9702C80.5555 58.7274 79.8273 61.1546 81.5263 61.3973C83.9535 61.64 86.3807 61.8828 88.8078 62.1255C90.2641 62.1255 90.7496 59.6983 89.2933 59.6983Z" fill="#F8F8F6"/>
<path d="M202.151 337.854H21.812C23.7537 191.253 28.1227 162.855 57.4914 137.855C64.0447 132.273 74.967 128.632 87.5883 126.69C100.21 124.748 114.287 124.506 127.637 125.477C145.84 126.933 162.345 131.059 169.869 136.884C199.966 160.913 199.723 178.874 202.151 337.854Z" fill="#E4E9FF"/>
<path d="M127.637 125.719L95.1132 231.543L87.3462 126.932C99.9675 124.991 114.288 124.748 127.637 125.719Z" fill="#788BF1"/>
<path d="M88.0762 136.398L95.1149 231.542L125.212 133.242C114.532 138.582 98.0276 141.495 88.0762 136.398Z" fill="#FF6B57"/>
<path d="M73.0246 155.573C76.1799 155.331 79.3352 155.088 82.4905 154.845C83.9468 154.845 83.9468 152.418 82.4905 152.418C77.6362 152.661 72.7819 153.146 67.9275 153.389C69.8693 146.107 72.0538 139.069 74.7236 132.03C75.2091 130.573 73.0246 129.845 72.2965 131.302C69.3839 138.826 66.9567 146.593 65.015 154.36C64.7723 155.088 65.2577 156.059 66.2286 155.816C67.6849 155.816 69.1411 155.573 70.5974 155.573V155.816C78.1216 183.971 90.5002 244.408 90.9856 245.136C91.7138 246.349 93.4128 245.378 93.1701 244.165C87.5876 214.553 80.7915 184.942 73.0246 155.573Z" fill="#788BF1"/>
<path d="M140.985 156.059C139.044 148.049 137.345 140.039 135.888 131.787C135.646 130.331 133.218 130.816 133.461 132.515C134.675 140.039 136.374 147.564 138.315 155.088C132.49 154.845 126.665 154.117 120.84 152.903C119.384 152.661 118.655 154.845 120.112 155.331C126.665 156.787 133.218 157.515 139.772 157.758C140.743 157.515 141.228 156.787 140.985 156.059Z" fill="#788BF1"/>
<path d="M131.284 156.058C119.148 188.097 106.769 220.378 94.6336 252.417C94.1482 253.873 96.3327 254.601 97.0608 253.145C109.197 221.107 121.575 188.825 133.711 156.787C134.196 155.33 131.769 154.602 131.284 156.058Z" fill="#788BF1"/>
<path d="M55.3098 196.834C52.1545 243.679 50.4555 290.766 50.4555 337.853H48.0283C48.0283 290.766 49.4846 243.679 52.8827 196.834C52.8827 195.378 55.5525 195.378 55.3098 196.834Z" fill="#2D264F"/>
<path d="M266.959 270.378C240.017 224.019 212.348 183.243 175.698 144.165C170.601 138.826 160.649 133.971 155.309 133.729C149.97 152.175 146.086 170.864 142.931 189.796C163.805 213.097 182.736 237.611 199.727 263.582C171.571 266.495 150.455 259.456 113.077 264.067C116.232 281.543 115.261 300.96 112.834 318.679C159.193 320.62 205.552 317.708 251.911 309.941C269.872 307.028 274.726 283.727 266.959 270.378Z" fill="#E4E9FF"/>
</g>
<defs>
<clipPath id="clip0_3_14592">
<path d="M0.290039 100.084C0.290039 45.2243 44.7623 0.751953 99.6217 0.751953V0.751953C154.481 0.751953 198.953 45.2243 198.953 100.084V100.084C198.953 154.943 154.481 199.415 99.6217 199.415V199.415C44.7623 199.415 0.290039 154.943 0.290039 100.084V100.084Z" fill="white"/>
</clipPath>
</defs>
</svg>
