<svg width="200" height="200" viewBox="0 0 200 200" fill="none" xmlns="http://www.w3.org/2000/svg">
<g clip-path="url(#clip0_3_13503)">
<rect x="0.446777" y="0.980469" width="198.663" height="198.663" rx="99.3317" fill="#EFFC5E"/>
<path d="M42.1543 122.49C42.1543 122.49 42.8597 113.029 52.6524 110.996C62.4866 108.963 62.4036 111.701 70.2461 110.332C78.0885 108.963 80.0387 98.9624 80.0387 98.9624V112.407C80.0387 112.407 75.3499 116.266 63.7314 115.436C52.113 114.606 48.5029 115.021 42.1543 122.49Z" fill="#0064C8"/>
<path d="M75.2655 98.0078C75.2655 98.0078 58.8336 69.4181 82.6515 52.4884C106.345 35.6416 126.553 47.7995 132.362 61.6172C138.171 75.4348 132.362 89.294 132.362 89.294L89.498 105.062L75.2655 98.0078Z" fill="#0064C8"/>
<path d="M99.2078 44.937C95.4733 46.6798 91.5313 50.5388 89.2491 53.8583C86.5519 57.7588 88.4192 62.0742 86.5934 66.1822C85.0996 69.5432 81.4066 70.9955 79.8714 74.3151C78.0456 78.2571 79.7054 82.1575 80.5767 86.058C81.5726 90.4979 82.278 95.8092 77.2572 98.0084C76.9252 98.1744 76.5518 98.2989 76.2198 98.4234L75.3484 98.0084C75.3484 98.0084 58.9167 69.4187 82.7345 52.489C88.4192 48.3811 93.9795 45.9744 99.2078 44.937Z" fill="#0055A8"/>
<path d="M115.225 45.8496L91.6977 47.3019C91.6977 47.3019 91.4903 44.6048 90.6604 41.7002C66.0956 35.642 35.5972 56.0158 6.96607 77.5099C1.65478 81.4934 -3.61504 85.5183 -8.71886 89.4188C-41.4995 114.315 -104.156 123.735 -133.202 98.1327C-167.726 67.7172 -117.849 42.945 -109.55 49.9991C-115.526 50.331 -122.04 61.2856 -100.629 65.269C-95.2763 66.2649 -88.1392 66.8458 -78.8445 66.7213C-32.3707 66.0159 -27.3914 32.5714 32.6511 21.3679C92.6521 10.1644 115.225 45.8496 115.225 45.8496Z" fill="#0064C8"/>
<path d="M6.96607 77.5098C1.65478 81.4933 -3.61504 85.5183 -8.71886 89.4188C-41.4995 114.315 -104.156 123.735 -133.202 98.1326C-167.726 67.7171 -117.849 42.945 -109.55 49.999C-115.526 50.331 -122.04 61.2855 -100.629 65.269C-89.9235 71.2857 -72.5788 69.1695 -62.1637 67.7172C-50.3793 66.0989 -34.9433 58.6299 -26.6444 68.713C-17.3497 79.9995 -7.68148 74.8127 5.30629 77.0949C5.88721 77.2609 6.42664 77.3854 6.96607 77.5098Z" fill="#0055A8"/>
<path d="M-109.551 49.9989C-127.725 52.945 -129.011 66.9287 -125.07 76.4309C-115.069 100.498 -79.5916 94.7714 -59.3423 88.9622C-34.1552 81.7007 -12.993 67.2606 9.37252 54.6463C30.2442 42.8619 53.3152 32.4468 78.3363 34.3555C83.8551 34.7705 89.3323 35.7663 94.6436 37.2601" stroke="#173F80" stroke-width="3.31956" stroke-miterlimit="10" stroke-linecap="round" stroke-linejoin="round"/>
<path d="M97.9229 65.144L95.6821 71.7002" stroke="#173F80" stroke-width="3.31956" stroke-miterlimit="10" stroke-linecap="round" stroke-linejoin="round"/>
<path d="M60.6597 114.149L63.7718 111.701" stroke="#173F80" stroke-width="3.31956" stroke-miterlimit="10" stroke-linecap="round" stroke-linejoin="round"/>
<path d="M116.843 46.4721C107.964 43.692 98.2955 44.4803 89.7891 48.2978C89.7891 48.2978 89.7891 48.2563 89.7476 48.2563C88.2953 45.0198 90.0381 41.2438 93.4821 40.2894C99.6233 38.5881 106.096 38.2147 112.404 39.252C115.765 39.7915 117.881 43.194 116.843 46.4721V46.4721Z" fill="#F52A21"/>
<path d="M116.886 46.4312V46.4727C114.438 45.7258 111.948 45.2278 109.417 44.9789C109.375 44.8129 109.334 44.6469 109.292 44.4809C108.919 42.8211 108.297 41.7008 106.969 40.6219C106.429 40.1655 105.309 39.4186 104.687 38.6302C107.259 38.5887 109.873 38.7547 112.446 39.1696C115.807 39.7506 117.882 43.1531 116.886 46.4312Z" fill="#F65852"/>
<path d="M174.272 180.001V241.288C174.272 241.288 168.588 240.334 161.741 239.38C155.143 238.467 147.425 237.554 142.737 237.554C139.417 252.077 123.649 275.314 123.649 275.314C123.649 275.314 98.8354 343.572 69.0424 444.445C41.739 407.1 -11.2909 420.462 -59.8394 425.441C-108.388 430.42 -143.7 394.942 -143.7 394.942L-40.254 252.119L-7.76383 154.648C-1.12472 144.44 10.2862 138.341 22.4441 138.465L50.4529 138.756L121.408 139.503L134.313 139.627C135.765 139.627 137.218 139.752 138.629 139.918C138.67 139.918 138.67 139.918 138.712 139.918C158.795 142.324 174.272 159.337 174.272 180.001Z" fill="#5FAEF2"/>
<path d="M127.509 159.461C125.309 164.482 121.284 165.685 117.135 168.549C110.745 172.988 102.612 174.482 94.9354 172.781C91.0764 171.91 86.9685 170.831 82.985 170.706C81.0348 170.665 79.043 170.831 77.0928 170.748C70.9931 170.374 66.9266 166.681 63.0677 162.283C61.7398 160.748 60.163 159.212 59.0842 157.511C57.5489 155.146 57.2584 152.2 55.7646 149.834C55.3082 149.088 54.6028 147.635 53.9804 146.764C53.7314 146.39 53.7729 145.893 54.1049 145.644C59.6651 154.191 72.2794 167.594 96.6782 167.013C111.741 166.681 121.699 161.494 128.131 155.685C128.338 156.598 128.172 157.843 127.509 159.461Z" fill="#4598E0"/>
<path d="M-54.5693 271.912C-46.2704 264.526 -37.9715 257.14 -29.4651 249.961C-21.9961 243.696 -13.6558 239.629 -7.80506 232.077C5.2242 215.189 25.764 188.964 50.2457 199.836C61.2002 204.691 66.3456 211.039 78.7524 213.114C85.3915 214.234 96.5535 215.189 101.325 220.542C116.761 237.72 87.3417 259.795 80.7026 273.406C72.9847 289.173 88.96 305.979 80.0802 321.373C71.6983 335.896 51.4905 327.888 38.5443 336.27C27.0088 343.739 25.598 356.643 16.6767 365.731C6.09559 376.561 -5.2739 376.353 -19.4235 376.934C-28.4693 377.308 -36.5192 378.221 -44.4031 382.951C-53.9884 388.719 -59.5901 396.644 -71.6235 396.063C-81.5822 395.565 -92.7857 391.291 -99.8812 384.362C-106.147 378.221 -110.213 361.913 -118.263 360.336C-118.346 360.295 -118.471 360.212 -118.554 360.17L-54.5693 271.912Z" fill="#4598E0"/>
<path d="M153.814 238.384C149.623 237.928 145.598 237.554 142.735 237.554C142.694 237.72 142.652 237.886 142.611 238.052C142.362 236.351 142.901 235.604 143.606 233.695C146.221 226.475 147.382 218.508 147.714 210.832C147.88 206.765 146.801 202.989 146.47 198.591C147.756 198.923 149.25 203.985 149.748 205.479C151.241 209.919 151.241 214.815 152.071 219.38C152.818 223.446 155.847 233.156 153.814 238.384Z" fill="#4598E0"/>
<path d="M146.763 197.72C146.763 197.72 150.082 215.438 142.738 237.554" stroke="#1A1B16" stroke-width="2.65565" stroke-miterlimit="10" stroke-linecap="round" stroke-linejoin="round"/>
<path d="M174.274 180.002V241.289C174.274 241.289 168.589 240.335 161.742 239.38C162.282 234.401 165.145 229.836 165.145 224.401C165.186 217.056 162.946 211.703 164.73 204.11C166.307 197.346 170.664 190.707 167.759 183.944C166.39 180.79 163.485 178.217 162.531 174.939C161.742 172.159 161.825 168.508 161.452 165.603C160.373 157.47 157.219 154.441 150.041 150.167C146.14 147.843 139.999 144.565 138.671 139.876C138.713 139.876 138.713 139.876 138.754 139.876C158.796 142.325 174.274 159.337 174.274 180.002Z" fill="#71B6F2"/>
<path d="M138.752 139.918C136.761 145.644 127.383 166.308 96.677 167.014C60.9918 167.843 50.4937 138.756 50.4937 138.756L74.8094 138.216L79.5398 102.697C76.5522 101.245 74.4775 97.8838 74.4775 93.9418C74.4775 88.7135 78.1705 84.3566 82.7764 84.4396C83.7307 84.4396 87.0088 85.56 87.0088 90.1244C87.0088 94.6887 91.1582 95.6431 92.1126 90.1244C92.6105 87.2612 93.1915 81.7425 94.6438 77.0121C95.9716 72.6552 98.0463 68.9207 101.532 68.5472C107.632 67.8418 127.258 65.5181 134.81 71.8253C134.852 71.8668 134.852 71.9498 134.893 72.0328C135.433 74.8959 134.935 99.5436 133.773 107.262C131.283 123.859 122.694 125.81 122.694 125.81L121.449 139.503L134.354 139.627C135.806 139.627 137.3 139.752 138.752 139.918Z" fill="#F8934F"/>
<path d="M86.9258 133.362C86.7183 135.437 85.432 137.221 85.1415 139.337C84.8511 141.495 85.4735 143.694 84.3532 145.644C82.5274 148.715 78.8759 149.254 75.5978 149.213C72.1123 149.13 70.079 147.221 66.884 146.225C64.8507 145.603 62.6101 145.976 60.5768 146.35C58.2531 146.765 56.7178 147.387 55.224 147.263C51.863 142.491 50.4937 138.798 50.4937 138.798L74.8094 138.258L79.4153 103.818C80.0377 103.611 80.8261 103.569 81.7805 103.777C85.017 103.445 84.1457 110.499 83.6892 112.075C82.9423 114.524 82.4029 116.349 82.4029 118.964C82.4029 122.657 83.6062 124.15 85.266 127.345C86.1789 129.13 87.1333 131.246 86.9258 133.362Z" fill="#F77C2D"/>
<path d="M104.604 123.735C104.604 123.735 114.687 128.839 122.695 125.81C122.239 130.914 122.073 132.74 122.073 132.74C122.073 132.74 112.238 133.113 104.604 123.735Z" fill="#BF3028"/>
<path d="M84.3112 96.0588C84.3112 96.0588 81.4481 97.5111 79.9128 95.1874C78.3775 92.8637 80.0788 90.623 80.0788 90.623C80.8672 91.121 81.5726 91.6604 82.2365 92.2828C83.2739 93.3202 84.1038 94.6065 84.3112 96.0588Z" fill="#F77C2D"/>
<path d="M80.0798 90.6229C80.0798 90.6229 78.3785 92.8636 79.9138 95.1873C81.4491 97.5109 84.3122 96.0586 84.3122 96.0586C84.1047 94.6063 83.2748 93.32 82.2375 92.2826C81.2001 91.2453 79.9138 90.4984 78.6689 89.793" stroke="#BF3028" stroke-width="2.65565" stroke-miterlimit="10" stroke-linecap="round" stroke-linejoin="round"/>
<path d="M79.5405 102.656C79.5405 102.656 82.1132 104.15 84.3124 103.735" stroke="#BF3028" stroke-width="2.65565" stroke-miterlimit="10" stroke-linecap="round" stroke-linejoin="round"/>
<path d="M74.6849 138.258L73.855 142.034" stroke="#BF3028" stroke-width="2.65565" stroke-miterlimit="10" stroke-linecap="round" stroke-linejoin="round"/>
<path d="M121.45 139.503L120.952 144.815" stroke="#BF3028" stroke-width="2.65565" stroke-miterlimit="10" stroke-linecap="round" stroke-linejoin="round"/>
<path d="M134.894 72.0333C132.736 73.4856 129.624 71.7428 127.342 71.1619C124.355 70.3735 121.865 71.4523 118.919 71.4108C115.89 71.4108 113.027 70.332 110.039 70.2905C106.678 70.249 103.939 70.7884 100.869 72.2822C99.0429 73.1951 96.1383 74.8964 94.6445 76.9711C95.9724 72.6142 98.0471 68.8797 101.533 68.5062C107.632 67.8008 127.259 65.4771 134.811 71.7843C134.853 71.8673 134.853 71.9088 134.894 72.0333Z" fill="#F77C2D"/>
<path d="M114.978 100.249C113.733 98.589 119.002 94.9374 120.164 97.5101C121.368 100.083 116.637 102.531 114.978 100.249Z" fill="#F77C2D"/>
<path d="M109.749 93.4022C109.583 94.4396 109.085 95.145 108.297 95.0205C107.508 94.896 107.01 93.9416 107.176 92.9043C107.342 91.8669 108.131 91.12 108.878 91.2445C109.708 91.369 109.915 92.3649 109.749 93.4022Z" fill="#1A1B16"/>
<path d="M126.513 94.6061C126.347 95.6019 125.891 96.2658 125.144 96.1414C124.397 96.0169 123.94 95.104 124.106 94.1496C124.272 93.1538 124.978 92.4484 125.725 92.5728C126.472 92.6558 126.679 93.6102 126.513 94.6061Z" fill="#1A1B16"/>
<path d="M118.048 101.162L118.919 100.706C119.915 100.166 120.455 99.0872 120.33 97.9669L118.836 87.4688" stroke="#BF3028" stroke-width="2.65565" stroke-miterlimit="10" stroke-linecap="round" stroke-linejoin="round"/>
<path d="M106.014 101.867C104.396 102.779 104.23 105.311 105.143 106.929C106.387 109.211 108.836 110.954 111.325 111.618C113.649 112.24 116.471 111.95 118.213 110.166C119.251 109.087 119.79 106.97 118.255 106.058C117.425 105.56 116.346 105.726 115.433 105.684C114.23 105.601 113.027 105.394 112.072 104.647C110.786 103.651 109.209 101.493 107.466 101.493C106.885 101.493 106.387 101.659 106.014 101.867Z" fill="#1A1B16"/>
<path d="M116.431 106.722L115.227 107.926C114.107 109.004 113.443 109.585 112.074 108.838L110.497 108.216C109.46 107.635 108.796 106.556 108.671 105.394L108.464 102.78C109.833 103.942 110.082 104.025 111.7 104.896C113.568 105.809 114.439 106.224 116.431 106.722C116.431 106.722 116.472 106.722 116.431 106.722Z" fill="#F3EDF3"/>
<path d="M107.466 101.494V102.739C108.213 102.739 109.251 103.735 110.039 104.482C110.454 104.897 110.869 105.312 111.284 105.602C112.612 106.598 114.147 106.805 115.35 106.888C115.599 106.888 115.848 106.888 116.097 106.888C116.678 106.888 117.3 106.888 117.632 107.096C117.84 107.22 117.923 107.386 117.964 107.594C118.047 108.092 117.757 108.797 117.342 109.254C116.471 110.125 115.143 110.623 113.608 110.623C112.944 110.623 112.28 110.54 111.657 110.374C109.417 109.752 107.259 108.175 106.221 106.266C105.599 105.187 105.641 103.403 106.636 102.863C106.844 102.739 107.134 102.656 107.466 102.656V101.494ZM107.466 101.494C106.885 101.494 106.387 101.619 106.014 101.868C104.396 102.78 104.23 105.312 105.143 106.93C106.387 109.212 108.836 110.955 111.325 111.619C112.031 111.826 112.819 111.909 113.608 111.909C115.309 111.909 117.01 111.37 118.213 110.166C119.251 109.088 119.79 106.971 118.255 106.059C117.425 105.561 116.346 105.727 115.433 105.685C114.23 105.602 113.027 105.395 112.072 104.648C110.786 103.693 109.209 101.494 107.466 101.494Z" fill="#1A1B16"/>
<path d="M104.604 83.2781C104.604 83.2781 108.836 81.2448 113.069 82.0332" stroke="#1A1B16" stroke-width="2.65565" stroke-miterlimit="10" stroke-linecap="round" stroke-linejoin="round"/>
<path d="M124.189 82.3643C124.189 82.3643 127.757 82.4472 130.953 84.2315" stroke="#1A1B16" stroke-width="2.65565" stroke-miterlimit="10" stroke-linecap="round" stroke-linejoin="round"/>
<path d="M109.428 114.352C109.625 113.718 108.986 112.955 108.002 112.649C107.017 112.343 106.059 112.609 105.862 113.244C105.664 113.879 106.303 114.641 107.287 114.947C108.272 115.253 109.23 114.987 109.428 114.352Z" fill="#F77C2D"/>
</g>
<defs>
<clipPath id="clip0_3_13503">
<rect x="0.446777" y="0.980469" width="198.663" height="198.663" rx="99.3317" fill="white"/>
</clipPath>
</defs>
</svg>
