<svg width="200" height="200" viewBox="0 0 200 200" fill="none" xmlns="http://www.w3.org/2000/svg">
<g clip-path="url(#clip0_3_14137)">
<rect x="0.446777" y="0.375977" width="198.663" height="198.663" rx="99.3317" fill="#FF7070"/>
<path d="M325.787 269.599L293.819 285.911L258.354 305.331L249.636 310.108C237.878 316.556 223.05 313.54 214.819 303.03L201.667 286.243L176.364 253.929C176.364 253.929 180.823 299.223 171.865 345.802C123.637 360.668 84.5788 359.241 45.7842 351.666C37.0694 349.977 28.4062 347.924 19.6129 345.712C2.24162 326.059 7.64499 211.489 7.64499 211.489L-6.23206 217.697L-10.2473 219.5L-71.6531 247.134L-49.0828 313.19L-116.221 334.049L-143.034 240.557L-143.848 237.749C-148.392 221.91 -140.647 205.173 -125.531 198.143L-106.651 189.288L-17.3135 147.393C2.04943 138.323 23.7621 135.219 44.9798 138.499L46.466 138.705L148.849 154.55L169.414 157.708C186.347 159.364 201.515 168.68 210.406 182.925L249.516 245.542C249.516 245.542 282.591 225.772 309.437 208.76C305.944 258.519 325.787 269.599 325.787 269.599Z" fill="#5FAEF2"/>
<path d="M45.3648 354.511C36.7815 352.782 28.2496 350.683 19.5899 348.422C2.51084 328.435 8.04746 212.093 8.04746 212.093L-5.63685 218.375C-2.01772 206.052 4.58335 191.437 15.372 204.791C18.5779 208.784 19.4897 214.184 19.71 219.319C20.0769 228.544 18.5926 237.755 18.4841 247.027C18.3856 256.259 19.8487 265.983 25.363 273.353C28.6067 277.698 33.1423 281.1 35.6017 285.881C40.0403 294.505 36.8854 305.157 39.1815 314.588C41.197 322.793 47.2787 329.585 48.8088 337.877C49.8769 343.659 48.4494 349.643 45.3648 354.511Z" fill="#4598E0"/>
<path d="M309.023 218.872C304.423 220.317 299.635 221.335 295.214 223.246C285.619 227.341 278.304 235.171 270.352 241.83C262.389 248.528 252.696 254.493 242.25 253.613C238.862 253.344 235.287 252.143 233.314 249.368C230.633 245.53 231.96 240.224 230.225 235.868C228.48 231.383 223.798 228.68 221.229 224.575C215.822 215.919 217.97 201.978 215.296 192.162C214.517 189.227 213.659 186.104 213.161 182.904L249.514 241.516C249.514 241.516 282.545 221.719 309.367 204.642C309.053 209.826 308.941 214.556 309.023 218.872Z" fill="#71B6F2"/>
<path d="M-71.8586 249.464L-49.7464 316.596L-74.2125 324.372C-78.1467 321.595 -81.8529 318.75 -83.4623 314.276C-86.1247 306.797 -81.3627 298.952 -80.3019 291.079C-78.9931 281.223 -83.6241 271.694 -85.7205 261.973C-87.817 252.251 -86.0792 239.862 -77.0528 235.99C-72.1328 233.861 -66.339 234.948 -61.3022 233.191C-55.9382 231.306 -52.1024 226.463 -46.9922 223.914C-38.26 219.539 -27.052 222.38 -18.8394 217.058C-14.5594 214.293 -11.7937 209.682 -8.01472 206.231C-5.49881 203.944 -0.0577109 200.586 3.48564 202.408C7.51259 204.483 6.23521 208.374 6.00502 212.623C6.00322 212.964 5.95179 213.335 5.94999 213.676L-71.8586 249.464Z" fill="#4598E0"/>
<path d="M78.8684 93.3939C78.8684 93.3939 40.3093 88.0265 25.6576 117.085C18.6467 119.058 10.8558 125.705 8.56462 140.198C5.18501 161.386 145.372 165.725 145.372 165.725C145.372 165.725 164.688 113.157 78.8684 93.3939Z" fill="#5FAEF2"/>
<path d="M70.4972 99.8869C70.4972 99.8869 48.0515 100.001 48.1172 116.632C48.1497 128.094 58.8962 136.833 70.8188 142.51C86.7656 150.163 124.099 152.862 127.547 149.616C133.738 143.87 136.096 132.756 123.916 122.944C97.1589 101.502 70.4972 99.8869 70.4972 99.8869Z" fill="#1A1B16"/>
<path d="M171.831 188.113C171.831 188.113 176.424 209.458 176.081 252.135" stroke="#1A1B16" stroke-width="3.32807" stroke-miterlimit="10" stroke-linecap="round" stroke-linejoin="round"/>
<path d="M127.869 149.437C126.543 138.6 125.35 128.912 125.35 128.912Z" fill="#0F70D1"/>
<path d="M103.283 163.577C103.462 169.495 99.3027 174.896 94.0562 177.738C88.8199 180.54 82.6545 181.161 76.7025 181.118C70.7404 181.115 64.7512 180.555 58.8358 181.198C48.3458 182.403 38.425 187.683 31.5615 195.646" stroke="white" stroke-width="2.66246" stroke-miterlimit="10" stroke-linecap="round" stroke-linejoin="round"/>
<path d="M25.4991 203.24C25.0941 202.837 25.0979 202.157 25.5372 201.761L28.8529 198.537C29.2524 198.13 29.9278 198.135 30.3226 198.578C30.7275 198.981 30.7237 199.661 30.2845 200.058L26.9688 203.282C26.5296 203.678 25.904 203.643 25.4991 203.24Z" fill="white"/>
<path d="M112.708 166.052C112.488 179.332 102.501 190.182 92.2598 198.358C82.0185 206.534 70.3698 213.957 64.3255 225.668" stroke="white" stroke-width="2.66246" stroke-miterlimit="10" stroke-linecap="round" stroke-linejoin="round"/>
<path d="M9.51571 137.092C9.51571 137.092 22.475 134.726 27.3978 137.266C30.8699 144.62 44.2681 156.741 57.0377 159.621C69.8072 162.502 75.2657 168.466 75.2657 168.466" stroke="#1A1B16" stroke-width="3.32807" stroke-miterlimit="10" stroke-linecap="round" stroke-linejoin="round"/>
<path d="M25.2024 117.832L30.6599 117.098" stroke="#1A1B16" stroke-width="3.32807" stroke-miterlimit="10" stroke-linecap="round" stroke-linejoin="round"/>
<path d="M148.081 151.101C148.081 151.101 147.282 156.095 133.744 164.93" stroke="#1A1B16" stroke-width="3.32807" stroke-miterlimit="10" stroke-linecap="round" stroke-linejoin="round"/>
<path d="M62.1046 89.9139C62.1046 89.9139 45.1237 35.4716 82.4626 38.46C93.8488 25.0446 115.952 23.1255 126.197 30.4916C132.946 35.338 132.708 42.9781 131.552 48.2604C131.552 48.2604 145.11 48.0326 142.439 57.9085C139.66 68.1759 122.27 80.1922 77.7406 74.8887C82.0508 88.9171 85.2281 101.834 62.1046 89.9139Z" fill="#1A1B16"/>
<path d="M132.188 42.2418C132.188 42.2418 132.365 48.0338 125.033 55.1797" stroke="#0064C8" stroke-width="2.66246" stroke-miterlimit="10" stroke-linecap="round" stroke-linejoin="round"/>
<path d="M83.1468 36.7816C81.566 38.4157 79.926 40.419 78.6191 42.6938" stroke="#0064C8" stroke-width="2.66246" stroke-miterlimit="10" stroke-linecap="round" stroke-linejoin="round"/>
<path d="M72.4863 66.3521L76.8261 70.1551" stroke="#0064C8" stroke-width="2.66246" stroke-miterlimit="10" stroke-linecap="round" stroke-linejoin="round"/>
<path d="M126.889 149.62C122.653 153.746 112.209 154.443 103.069 153.694C81.7026 151.993 70.7009 142.273 70.7009 142.273L67.5977 104.501C67.2794 104.419 66.9611 104.336 66.6428 104.254C61.194 102.507 58.8162 96.7137 59.9648 90.8982C60.1908 89.6832 60.8758 88.3322 61.67 87.0518C64.9374 81.7415 72.8765 81.7132 75.4144 87.3776C76.5557 89.8798 77.4258 92.7787 78.7426 92.4399C80.2889 92.033 80.0767 89.0493 79.6922 86.573C79.0472 82.6286 77.6238 70.1212 77.6238 70.1212C77.6238 70.1212 97.5882 83.7695 128.664 71.8927C128.704 71.903 128.714 71.8632 128.754 71.8734C130.085 81.2585 131.999 95.166 133.278 106.745C135.229 124.652 124.454 129.296 124.454 129.296L124.968 133.588L126.889 149.62Z" fill="#F8934F"/>
<path d="M73.4714 96.2903C73.4714 96.2903 70.7513 99.0536 68.0725 97.0272C65.3938 95.0008 66.4709 91.821 66.4709 91.821C67.5528 92.0952 68.5844 92.3988 69.5752 92.8605C71.1868 93.5638 72.6358 94.7311 73.4714 96.2903Z" fill="#F77C2D"/>
<path d="M124.628 128.796L125.092 133.143L112.795 131.804C112.795 131.804 134.206 127.901 131.131 102.98C128.779 83.8148 128.901 74.213 129.107 70.7871C129.146 70.798 129.156 70.7578 129.194 70.7687C130.409 80.2766 132.152 94.3652 133.301 106.091C135.05 124.226 124.628 128.796 124.628 128.796Z" fill="#F9AF79"/>
<path d="M91.0414 152.468C77.5873 148.752 70.7372 142.614 70.7372 142.614L67.9056 105.236C69.7366 104.861 72.4908 105.588 73.0258 106.878C73.4395 107.838 72.4359 110.135 72.5789 111.316C72.7614 112.972 73.3678 114.62 74.4941 115.907C75.2926 116.848 76.3119 117.597 77.0604 118.567C80.8141 123.375 76.9166 131.201 80.4993 136.173C81.7541 137.918 83.7817 138.991 85.439 140.341C89.0064 143.197 91.1176 147.842 91.0414 152.468Z" fill="#F77C2D"/>
<path d="M66.5037 91.8242C66.5037 91.8242 65.3946 94.9276 68.0515 96.9509C70.7083 98.9742 73.4553 96.3014 73.4553 96.3014C72.676 94.7717 71.2395 93.6074 69.6465 92.8574C68.0535 92.1074 66.3252 91.6945 64.565 91.3973" stroke="#BF3028" stroke-width="2.66246" stroke-miterlimit="10" stroke-linecap="round" stroke-linejoin="round"/>
<path d="M67.4713 105.141C67.4713 105.141 69.6984 105.817 72.5665 105.212" stroke="#BF3028" stroke-width="2.66246" stroke-miterlimit="10" stroke-linecap="round" stroke-linejoin="round"/>
<path d="M108.636 131.913C108.636 131.913 117.507 133.323 125.181 129.251C125.615 132.673 126.303 138.601 126.303 138.601C126.303 138.601 111.503 134.275 108.636 131.913Z" fill="#BF3028"/>
<path d="M122.066 73.3884C116.066 76.3775 109.511 78.1886 102.804 78.587C94.2205 79.1092 85.4853 77.3851 77.7781 73.6623C77.5864 73.5736 77.3544 73.4751 77.1224 73.3766C76.8392 71.3066 76.657 69.8448 76.657 69.8448C76.657 69.8448 94.2719 81.4141 122.066 73.3884Z" fill="#F77C2D"/>
<path d="M117.231 101.36C117.231 101.36 113.633 103.005 112.821 100.357C112.017 97.8363 115.272 95.8885 117.566 96.6867C119.861 97.4849 120.143 98.4821 120.143 98.4821L117.231 101.36Z" fill="#F77C2D"/>
<path d="M116.414 101.518L118.055 100.494C119.205 99.7565 119.704 98.3191 119.258 96.9945L115.704 86.0181" stroke="#BF3028" stroke-width="2.66246" stroke-miterlimit="10" stroke-linecap="round" stroke-linejoin="round"/>
<path d="M110.528 119.016C110.096 119.974 108.528 120.219 107.02 119.615C105.512 119.01 104.585 117.692 104.978 116.723C105.411 115.765 106.735 116.569 108.283 117.184C109.831 117.8 110.961 118.058 110.528 119.016Z" fill="#F77C2D"/>
<path d="M118.139 109.982C117.98 106.948 114.684 106.823 112.538 106.712C111.739 106.667 110.89 106.649 110.294 106.492C109.619 106.313 108.761 105.878 107.982 105.464C106.197 104.534 103.969 103.363 102.219 104.853C101.156 105.735 100.792 107.01 101.245 108.418C102.085 111.009 105.759 113.852 109.048 114.598C109.366 114.683 109.695 114.728 109.984 114.763C112.856 115.025 115.343 114.395 116.849 113.007C117.771 112.17 118.21 111.081 118.139 109.982Z" fill="#1A1B16"/>
<path d="M110.242 113.038C109.705 112.978 109.15 112.829 108.607 112.643C107.332 112.178 106.499 110.915 106.536 109.593L106.588 108.067C106.618 107.367 107.389 106.907 108.058 107.252C108.727 107.597 109.436 107.953 110.12 108.094C112.271 108.627 116.047 107.803 116.163 110.082C116.243 111.893 113.895 113.389 110.242 113.038Z" fill="white"/>
<path d="M104.228 91.8799C104.382 93.1917 104.079 94.1631 103.111 94.3126C102.143 94.462 101.224 93.484 101.031 92.1612C100.838 90.8383 101.517 89.7196 102.475 89.6095C103.482 89.4711 104.073 90.5681 104.228 91.8799Z" fill="#1A1B16"/>
<path d="M125.695 88.2087C125.852 89.3523 125.57 90.2451 124.702 90.3381C123.834 90.4311 123.04 89.6153 122.894 88.4324C122.737 87.2888 123.306 86.2659 124.175 86.1729C125.004 86.0688 125.538 87.0651 125.695 88.2087Z" fill="#1A1B16"/>
<path d="M96.8691 83.8357C99.4032 82.7284 102.252 82.3605 105.023 82.7531" stroke="#1A1B16" stroke-width="2.66246" stroke-miterlimit="10" stroke-linecap="round" stroke-linejoin="round"/>
<path d="M120.654 78.7101C122.824 77.9974 125.161 77.7786 127.474 78.1275" stroke="#1A1B16" stroke-width="2.66246" stroke-miterlimit="10" stroke-linecap="round" stroke-linejoin="round"/>
</g>
<defs>
<clipPath id="clip0_3_14137">
<rect x="0.446777" y="0.375977" width="198.663" height="198.663" rx="99.3317" fill="white"/>
</clipPath>
</defs>
</svg>
