<svg width="199" height="200" viewBox="0 0 199 200" fill="none" xmlns="http://www.w3.org/2000/svg">
<g clip-path="url(#clip0_3_13556)">
<rect x="0.157715" y="0.980469" width="198.663" height="198.663" rx="99.3317" fill="#80C2FE"/>
<path d="M-25.502 221.53C-25.502 221.53 -17.7413 153.698 30.9848 144.921C69.2154 138.047 79.6184 137.918 79.6184 137.918L98.7245 157.375L133.26 136.329C133.26 136.329 183.981 140.135 204.88 154.788C225.778 169.441 235.109 218.001 236.144 258.412C216.983 301.262 209.148 322.105 209.148 322.105C209.148 322.105 160.219 350.025 116.666 336.795C73.1142 323.564 20.4154 326.89 -5.30569 335.353C-3.08835 310.87 -25.502 221.53 -25.502 221.53Z" fill="#F52A21"/>
<path d="M37.2488 196.955C33.2946 207.487 23.76 216.08 23.9078 227.406C24.0372 238.308 33.3315 247.307 33.4793 258.209C33.6272 269.573 23.8894 278.756 22.8546 290.065C21.8753 300.763 28.786 310.372 30.9294 320.886C31.5022 323.713 31.7425 325.949 31.6501 328.739C16.9232 330.051 4.06266 332.305 -5.28712 335.391C-3.06978 310.889 -25.4834 221.549 -25.4834 221.549C-25.4834 221.549 -17.7227 153.717 31.0033 144.94C33.6272 144.478 36.1032 144.034 38.4684 143.628C38.9303 146.196 39.189 148.913 39.3368 151.795C40.0575 165.857 42.2378 183.669 37.2488 196.955Z" fill="#D6261D"/>
<path d="M235.812 249.524C234.001 254.07 231.71 258.393 228.716 262.274C222.175 270.7 211.643 276.668 201.073 275.301C205.36 287.995 209.666 300.763 212.474 313.827C210.238 319.389 209.204 322.142 209.204 322.142C209.204 322.142 185.071 335.908 155.618 339.53C155.507 339.215 155.415 338.901 155.341 338.587C152.994 329.755 158.334 320.849 159.313 311.776C160.478 301.04 155.488 290.36 156.523 279.588C157.761 266.69 167.536 254.642 164.506 242.059C162.898 235.389 157.891 229.975 155.969 223.396C153.881 216.246 155.636 208.614 155.71 201.168C155.803 191.411 152.976 181.914 151.534 172.268C150.167 163.029 151.405 149.3 156.819 139.341C172.95 142.02 193.423 146.787 204.917 154.825C224.281 168.388 233.705 211.146 235.812 249.524Z" fill="#D6261D"/>
<path d="M74.0755 138.362L50.0913 157.394L81.1156 153.2L72.3386 168.61L98.725 157.394" stroke="#BF3028" stroke-width="2.06952" stroke-miterlimit="10" stroke-linecap="round" stroke-linejoin="round"/>
<path d="M133.277 136.348L147.413 157.394L116.389 153.2L125.166 168.61L98.7793 157.394" stroke="#BF3028" stroke-width="2.06952" stroke-miterlimit="10" stroke-linecap="round" stroke-linejoin="round"/>
<path d="M46.894 205.472C49.0559 212.439 48.6493 220.107 45.7853 225.78C45.5636 226.205 38.8746 214.674 38.3942 213.51C36.454 208.835 35.216 203.828 34.754 198.857C34.3475 194.275 34.5507 188.251 39.2996 192.889C42.7179 196.197 45.4157 200.687 46.894 205.472Z" stroke="#F65852" stroke-width="3.2521" stroke-miterlimit="10" stroke-linecap="round" stroke-linejoin="round"/>
<path d="M126.182 189.581C126.182 189.581 125.48 178.144 114.874 172.748C111.437 181.71 120.085 191.466 120.085 191.466C120.085 191.466 108.203 193.887 105.58 206.526C110.439 205.694 120.547 202.313 123.355 195.956C120.362 204.013 127.845 215.229 127.845 215.229C127.845 215.229 133.093 204.752 127.845 194.256C137.583 194.071 141.501 182.098 141.316 178.901C134.848 179.363 131.042 182.283 126.182 189.581Z" stroke="#F65852" stroke-width="3.2521" stroke-miterlimit="10" stroke-linecap="round" stroke-linejoin="round"/>
<path d="M81.1518 187.419C82.2641 187.419 83.1659 186.518 83.1659 185.405C83.1659 184.293 82.2641 183.391 81.1518 183.391C80.0394 183.391 79.1377 184.293 79.1377 185.405C79.1377 186.518 80.0394 187.419 81.1518 187.419Z" fill="#F65852"/>
<path d="M98.7241 157.394C98.7241 157.394 90.1134 254.292 94.7328 331.049" stroke="#BF3028" stroke-width="2.06952" stroke-miterlimit="10" stroke-linecap="round" stroke-linejoin="round"/>
<path d="M136.067 80.8043C133.979 80.1021 127.216 79.8989 126.015 89.2487C125.719 91.8171 123.262 93.2768 121.987 89.2487C120.693 85.2205 121.987 66.0775 121.987 66.0775C121.987 66.0775 108.35 45.5116 93.0875 54.4549C84.9019 59.2591 75.6999 74.1153 69.2511 73.0436C69.2327 74.5218 69.2142 76.3696 69.2142 78.4761C69.2142 78.4761 67.7914 119.349 79.6172 127.295C79.6172 130.935 79.6172 137.938 79.6172 137.938L98.7233 157.395L133.258 136.349V101.666C137.268 100.853 140.686 97.5452 141.666 93.0366C142.793 87.8813 140.354 82.8368 136.067 80.8043Z" fill="#F8934F"/>
<path d="M105.339 130.009L98.6315 133.52L79.6362 129.436V127.274C67.8104 119.31 69.2332 78.4559 69.2332 78.4559C69.2147 76.331 69.2332 74.4832 69.2702 73.0234L72.0049 76.9223C72.0049 76.9223 69.9908 113.859 80.9666 124.484C85.0872 128.475 93.4207 131.912 105.339 130.009Z" fill="#F9AF79"/>
<path d="M110.014 128.124C98.6686 143.221 79.4517 134.758 79.4517 134.758C79.4517 134.758 79.5256 130.36 79.5995 127.256C79.7473 127.348 79.8951 127.441 80.0429 127.533C89.171 132.966 100.442 132.744 108.684 128.605C109.109 128.457 109.571 128.291 110.014 128.124Z" fill="#BF3028"/>
<path d="M121.728 88.0645C121.488 88.12 121.248 88.1569 121.008 88.1569C118.18 88.2493 116.148 85.3298 115.538 82.5766C114.928 79.8049 115.132 76.8485 114.023 74.2431C111.196 74.7974 108.609 76.1833 105.948 77.292C103.287 78.4191 100.405 79.3245 97.5592 78.8626C94.7136 78.4191 91.9604 76.2572 91.7017 73.3747C91.5723 71.9149 91.8865 70.0302 90.593 69.328C89.78 68.8845 88.7822 69.2171 87.9137 69.5867C85.0497 70.8062 82.278 72.2105 79.6172 73.7996L80.3932 69.2541C80.4117 68.053 80.5226 66.852 80.7443 65.6879C84.8095 61.5673 89.0594 56.7816 93.0875 54.4349C108.332 45.4916 121.987 66.0574 121.987 66.0574C121.987 66.0574 120.897 82.3734 121.728 88.0645Z" fill="#F77C2D"/>
<path d="M133.278 102.33V136.366L118.108 145.605C118.81 144.644 119.401 143.61 119.808 142.483C120.843 139.581 120.436 136.366 121.323 133.41C122.58 129.197 126.257 126 127.347 121.732C128.178 118.517 127.402 115.135 126.977 111.846C126.645 109.352 126.146 104.381 128.345 102.46C129.638 101.295 131.578 101.554 133.278 102.33Z" fill="#F77C2D"/>
<path d="M128.566 93.8848C128.566 93.8848 132.114 95.7326 134.054 92.8685C135.994 90.0044 133.888 87.1958 133.888 87.1958C132.927 87.7871 132.003 88.4523 131.19 89.2284C129.878 90.4849 128.843 92.1109 128.566 93.8848Z" fill="#F77C2D"/>
<path d="M133.888 87.215C133.888 87.215 135.994 90.0236 134.054 92.8877C132.114 95.7518 128.566 93.904 128.566 93.904C128.844 92.1116 129.878 90.5041 131.19 89.2476C132.502 87.9911 134.073 87.0487 135.68 86.1987" stroke="#BF3028" stroke-width="2.06952" stroke-miterlimit="10" stroke-linecap="round" stroke-linejoin="round"/>
<path d="M128.362 102.514C128.362 102.514 130.561 102.643 133.277 101.664" stroke="#BF3028" stroke-width="2.06952" stroke-miterlimit="10" stroke-linecap="round" stroke-linejoin="round"/>
<path d="M127.181 44.9379C116.52 35.6989 86.5486 27.6426 69.1794 42.9607C61.2524 49.9638 71.637 52.4399 71.637 52.4399C71.637 52.4399 49.3342 65.1156 61.0492 76.8306C70.1588 85.9402 97.432 60.4407 97.432 60.4407C97.432 60.4407 91.7039 70.4188 99.9635 73.7448C108.223 77.0708 120.289 67.0928 120.289 67.0928C120.289 67.0928 113.582 87.4184 122.081 91.2987C130.581 95.1791 124.982 79.6577 137.178 81.0066C142.481 72.2666 139.026 55.193 127.181 44.9379Z" fill="#1A1B16"/>
<path d="M123.69 46.0828C123.69 46.0828 126.905 31.393 130.896 33.4625C134.887 35.532 126 48.023 126 48.023L123.69 46.0828Z" fill="#1A1B16"/>
<path d="M126.794 46.3411C126.794 46.3411 135.608 39.3196 136.957 42.4054C138.306 45.4912 127.238 48.5585 127.238 48.5585L126.794 46.3411Z" fill="#1A1B16"/>
<path d="M51.0346 152.792C49.5564 152.441 48.8542 150.094 48.4847 148.856C47.8195 146.584 47.5608 144.052 47.9488 141.706C48.4847 138.416 51.3672 135.663 54.8225 136.513C60.292 137.862 59.5713 143.757 57.2801 147.508C56.3008 149.171 53.4921 153.384 51.0346 152.792Z" fill="#F3EDF3"/>
<path d="M51.6253 150.501C49.5558 150.002 49.4634 144.625 49.6667 143.147C50.0362 140.375 52.2351 138.564 55.0067 139.673C57.4088 140.652 57.2795 143.276 56.4295 145.309C55.8752 146.639 53.547 150.963 51.6253 150.501Z" fill="#FACC73"/>
<path d="M52.3292 151.813C51.7009 153.199 49.2619 153.44 47.9869 153.55C45.6217 153.772 43.1087 153.532 40.8729 152.7C37.7502 151.536 35.6068 148.173 37.1035 144.94C39.4871 139.821 45.1228 141.688 48.3565 144.644C49.7792 145.956 53.3639 149.522 52.3292 151.813Z" fill="#F3EDF3"/>
<path d="M50.1856 150.78C49.2986 152.72 44.014 151.759 42.5912 151.279C39.9489 150.373 38.5815 147.879 40.2076 145.366C41.6303 143.185 44.1803 143.832 46.0096 145.07C47.2106 145.883 50.9986 148.987 50.1856 150.78Z" fill="#FACC73"/>
<path d="M52.5314 150.945C53.5292 152.109 52.7162 154.401 52.2912 155.62C51.4966 157.856 50.2216 160.036 48.5402 161.736C46.1935 164.083 42.2207 164.619 39.9295 161.921C36.2709 157.634 40.3175 153.274 44.3642 151.574C46.138 150.816 50.8684 149.042 52.5314 150.945Z" fill="#F3EDF3"/>
<path d="M50.7012 152.46C52.087 154.068 49.0197 158.484 47.9849 159.574C46.0632 161.607 43.2177 161.792 41.6286 159.26C40.2427 157.061 41.9057 155.01 43.7905 153.865C44.9915 153.107 49.4077 150.964 50.7012 152.46Z" fill="#FACC73"/>
<path d="M50.9255 150.465C52.3298 149.873 54.27 151.333 55.3048 152.109C57.1895 153.55 58.8895 155.417 59.9797 157.542C61.5133 160.498 60.8112 164.434 57.5406 165.801C52.3483 167.963 49.4288 162.808 49.0408 158.429C48.856 156.507 48.5973 151.444 50.9255 150.465Z" fill="#F3EDF3"/>
<path d="M51.8137 152.663C53.7723 151.832 57.0429 156.1 57.7635 157.412C59.1124 159.87 58.4287 162.623 55.5277 163.38C53.0147 164.027 51.5734 161.828 51.0376 159.685C50.705 158.28 50.0028 153.421 51.8137 152.663Z" fill="#FACC73"/>
<path d="M51.314 151.277C51.3324 149.744 53.4759 148.561 54.603 147.951C56.691 146.806 59.0931 146.03 61.4768 145.882C64.8028 145.697 68.1103 147.914 68.0364 151.481C67.9071 157.116 61.9942 157.671 57.8366 156.248C55.9889 155.62 51.2585 153.809 51.314 151.277Z" fill="#F3EDF3"/>
<path d="M53.6804 151.37C53.7173 149.245 58.9466 147.989 60.4433 147.878C63.2334 147.638 65.4877 149.393 64.9888 152.331C64.5638 154.899 61.9585 155.324 59.7781 154.936C58.3553 154.659 53.6434 153.329 53.6804 151.37Z" fill="#FACC73"/>
<path d="M53.5665 184.74C52.1437 184.186 51.7926 181.765 51.6078 180.49C51.2752 178.143 51.3676 175.612 52.0883 173.339C53.0676 170.161 56.3381 167.833 59.6272 169.163C64.8564 171.27 63.3043 176.998 60.5141 180.398C59.2761 181.876 55.9132 185.664 53.5665 184.74Z" fill="#F3EDF3"/>
<path d="M54.4714 182.541C52.4943 181.765 53.1595 176.425 53.566 174.984C54.3236 172.286 56.7442 170.808 59.3311 172.304C61.5854 173.598 61.068 176.185 59.9409 178.088C59.2018 179.307 56.3008 183.262 54.4714 182.541Z" fill="#F9BD64"/>
<path d="M54.9704 183.945C54.1389 185.22 51.7183 185.109 50.4249 185.054C48.0597 184.943 45.6021 184.333 43.4957 183.206C40.5577 181.617 38.9132 177.977 40.8533 175.002C43.9207 170.271 49.2423 172.895 52.0324 176.295C53.2704 177.773 56.3378 181.82 54.9704 183.945Z" fill="#F3EDF3"/>
<path d="M52.9924 182.614C51.8468 184.407 46.7469 182.725 45.398 182.042C42.9035 180.785 41.9057 178.106 43.8828 175.87C45.6012 173.911 48.0218 174.909 49.6664 176.387C50.7381 177.348 54.0641 180.97 52.9924 182.614Z" fill="#F9BD64"/>
<path d="M55.2848 183.114C56.0978 184.407 54.9891 186.569 54.3978 187.715C53.2892 189.821 51.737 191.798 49.8153 193.24C47.1545 195.235 43.1633 195.217 41.2601 192.205C38.2482 187.438 42.8677 183.705 47.1176 182.578C48.9838 182.079 53.9359 180.989 55.2848 183.114Z" fill="#F3EDF3"/>
<path d="M53.2708 184.352C54.4165 186.144 50.7578 190.08 49.5753 191.004C47.3764 192.741 44.5493 192.537 43.3298 189.803C42.2765 187.437 44.1982 185.645 46.2308 184.758C47.5427 184.204 52.2176 182.689 53.2708 184.352Z" fill="#F9BD64"/>
<path d="M53.7704 182.394C55.2487 182.006 56.9671 183.724 57.8725 184.648C59.5355 186.33 60.9583 188.436 61.7344 190.691C62.8246 193.832 61.5865 197.638 58.1497 198.525C52.6987 199.948 50.5368 194.405 50.7585 190.025C50.8694 188.085 51.3314 183.059 53.7704 182.394Z" fill="#F3EDF3"/>
<path d="M54.345 184.704C56.396 184.15 59.0384 188.843 59.5558 190.247C60.5536 192.871 59.4818 195.513 56.5069 195.828C53.92 196.105 52.8113 193.74 52.5896 191.541C52.4603 190.118 52.4418 185.203 54.345 184.704Z" fill="#F9BD64"/>
<path d="M54.0468 183.262C54.287 181.765 56.5598 180.878 57.7793 180.434C59.9967 179.603 62.4912 179.16 64.8748 179.344C68.2008 179.621 71.1573 182.301 70.5845 185.812C69.6606 191.373 63.7292 191.096 59.8119 189.101C58.0565 188.232 53.6403 185.756 54.0468 183.262Z" fill="#F3EDF3"/>
<path d="M56.3736 183.686C56.7062 181.58 62.0648 181.081 63.5615 181.173C66.3516 181.34 68.3288 183.372 67.4234 186.236C66.6288 188.712 64.005 188.768 61.8985 188.084C60.5496 187.622 56.0595 185.627 56.3736 183.686Z" fill="#F9BD64"/>
<path d="M57.1502 214.748C55.9122 213.861 56.1524 211.422 56.3002 210.147C56.5404 207.782 57.2795 205.361 58.5175 203.329C60.2545 200.483 63.987 199.042 66.8511 201.148C71.3966 204.474 68.4956 209.648 64.9478 212.254C63.3957 213.399 59.2012 216.226 57.1502 214.748Z" fill="#F3EDF3"/>
<path d="M58.7019 214.323C57.5933 215.358 55.2466 214.655 54.0271 214.267C51.7543 213.565 49.5185 212.383 47.7631 210.775C45.3055 208.521 44.6218 204.585 47.2272 202.164C51.3663 198.339 55.8748 202.201 57.7596 206.174C58.5726 207.929 60.5497 212.604 58.7019 214.323Z" fill="#F3EDF3"/>
<path d="M142.907 214.028C141.54 214.711 139.507 213.4 138.417 212.697C136.421 211.404 134.61 209.649 133.372 207.616C131.636 204.77 132.061 200.798 135.239 199.209C140.283 196.677 143.535 201.629 144.237 205.971C144.552 207.856 145.161 212.882 142.907 214.028Z" fill="#F3EDF3"/>
<path d="M146.454 182.115C146.934 180.674 149.318 180.175 150.575 179.917C152.903 179.436 155.434 179.399 157.744 179.972C160.978 180.767 163.472 183.889 162.345 187.252C160.553 192.592 154.732 191.373 151.184 188.786C149.632 187.659 145.659 184.499 146.454 182.115Z" fill="#F3EDF3"/>
<path d="M148.689 182.892C149.354 180.878 154.713 181.229 156.172 181.543C158.907 182.153 160.533 184.481 159.184 187.142C158.02 189.452 155.415 189.101 153.438 188.084C152.181 187.438 148.061 184.758 148.689 182.892Z" fill="#F9BD64"/>
<path d="M147.323 183.465C145.992 182.725 145.955 180.286 145.955 178.993C145.937 176.609 146.38 174.133 147.396 171.971C148.801 168.96 152.348 167.093 155.434 168.867C160.331 171.657 158.021 177.127 154.788 180.102C153.365 181.414 149.521 184.703 147.323 183.465Z" fill="#F3EDF3"/>
<path d="M148.525 181.431C146.677 180.397 148.063 175.204 148.655 173.819C149.763 171.25 152.387 170.105 154.734 171.952C156.785 173.541 155.916 176.036 154.549 177.773C153.662 178.863 150.244 182.392 148.525 181.431Z" fill="#F9BD64"/>
<path d="M148.173 183.743C146.935 184.63 144.717 183.651 143.535 183.115C141.373 182.135 139.303 180.694 137.751 178.865C135.608 176.315 135.405 172.324 138.287 170.254C142.87 166.984 146.861 171.363 148.228 175.539C148.838 177.387 150.205 182.265 148.173 183.743Z" fill="#F3EDF3"/>
<path d="M146.805 181.803C145.087 183.041 140.948 179.623 139.95 178.495C138.084 176.407 138.139 173.562 140.782 172.194C143.091 170.993 144.995 172.823 145.992 174.8C146.639 176.075 148.413 180.639 146.805 181.803Z" fill="#F9BD64"/>
<path d="M148.781 182.19C149.262 183.632 147.636 185.461 146.767 186.422C145.178 188.196 143.164 189.711 140.965 190.635C137.898 191.91 134.018 190.893 132.927 187.512C131.191 182.153 136.586 179.677 140.984 179.64C142.942 179.622 148.005 179.788 148.781 182.19Z" fill="#F3EDF3"/>
<path d="M146.526 182.891C147.191 184.906 142.664 187.807 141.297 188.416C138.747 189.562 136.049 188.638 135.55 185.7C135.107 183.15 137.435 181.875 139.616 181.543C141.001 181.321 145.898 181.025 146.526 182.891Z" fill="#F9BD64"/>
<path d="M147.931 182.504C149.446 182.652 150.444 184.887 150.979 186.051C151.94 188.213 152.532 190.689 152.476 193.073C152.384 196.399 149.889 199.522 146.36 199.134C140.761 198.542 140.687 192.593 142.443 188.564C143.219 186.809 145.418 182.245 147.931 182.504Z" fill="#F3EDF3"/>
<path d="M147.653 184.851C149.76 185.072 150.573 190.376 150.573 191.872C150.573 194.662 148.651 196.769 145.75 196.03C143.237 195.383 143.015 192.759 143.588 190.634C143.976 189.248 145.695 184.666 147.653 184.851Z" fill="#F9BD64"/>
<path d="M151.407 151.813C150.649 150.483 151.887 148.376 152.552 147.267C153.772 145.216 155.435 143.332 157.412 142.001C160.184 140.153 164.175 140.394 165.893 143.498C168.646 148.413 163.824 151.905 159.518 152.792C157.652 153.199 152.663 154.012 151.407 151.813Z" fill="#F3EDF3"/>
<path d="M153.494 150.686C152.441 148.838 156.321 145.106 157.541 144.237C159.814 142.63 162.641 142.981 163.712 145.771C164.636 148.192 162.622 149.892 160.553 150.649C159.204 151.148 154.474 152.405 153.494 150.686Z" fill="#F9BD64"/>
<path d="M153.013 152.09C151.572 152.57 149.743 150.944 148.782 150.094C147.008 148.505 145.474 146.509 144.551 144.31C143.276 141.243 144.273 137.363 147.655 136.273C153.013 134.536 155.508 139.913 155.545 144.31C155.563 146.232 155.397 151.295 153.013 152.09Z" fill="#F3EDF3"/>
<path d="M152.292 149.817C150.278 150.482 147.359 145.974 146.749 144.606C145.603 142.056 146.509 139.359 149.447 138.841C151.997 138.398 153.272 140.708 153.623 142.888C153.863 144.311 154.177 149.207 152.292 149.817Z" fill="#F9BD64"/>
<path d="M153.771 151.648C153.604 153.163 151.369 154.142 150.186 154.659C148.006 155.602 145.548 156.156 143.165 156.082C139.838 155.971 136.753 153.421 137.159 149.892C137.824 144.293 143.756 144.293 147.765 146.086C149.521 146.88 154.048 149.135 153.771 151.648Z" fill="#F3EDF3"/>
<path d="M151.424 151.352C151.184 153.458 145.862 154.216 144.366 154.216C141.576 154.197 139.488 152.239 140.264 149.356C140.929 146.843 143.553 146.658 145.678 147.25C147.063 147.619 151.646 149.375 151.424 151.352Z" fill="#F9BD64"/>
<path d="M153.049 150.132C154.435 150.76 154.694 153.181 154.823 154.456C155.063 156.821 154.841 159.334 154.028 161.588C152.901 164.729 149.557 166.891 146.305 165.432C141.168 163.103 142.979 157.449 145.917 154.179C147.21 152.737 150.739 149.116 153.049 150.132Z" fill="#F3EDF3"/>
<path d="M152.033 152.294C153.973 153.162 153.068 158.465 152.606 159.888C151.737 162.549 149.243 163.935 146.73 162.308C144.549 160.904 145.159 158.354 146.379 156.506C147.173 155.305 150.24 151.48 152.033 152.294Z" fill="#F9BD64"/>
<path d="M152.699 150.982C153.826 149.965 156.154 150.723 157.374 151.111C159.628 151.85 161.845 153.07 163.564 154.733C165.966 157.042 166.594 160.978 163.933 163.343C159.72 167.094 155.286 163.14 153.493 159.13C152.699 157.375 150.832 152.663 152.699 150.982Z" fill="#F3EDF3"/>
<path d="M154.249 152.774C155.82 151.351 160.31 154.326 161.419 155.342C163.488 157.227 163.747 160.054 161.252 161.699C159.091 163.121 157.003 161.514 155.802 159.666C155.025 158.447 152.79 154.086 154.249 152.774Z" fill="#F9BD64"/>
<path d="M91.9819 100.372C93.5525 98.5977 88.12 93.8674 86.9744 96.6945C86.457 97.9695 90.1157 102.478 91.9819 100.372Z" fill="#F77C2D"/>
<path d="M78.1238 90.5784C78.1793 91.7425 78.6412 92.5556 79.5097 92.5186C80.3781 92.4632 81.0433 91.4838 80.9694 90.3382C80.8955 89.1926 80.1564 88.2687 79.2879 88.3241C78.401 88.3611 78.0499 89.4143 78.1238 90.5784Z" fill="#1A1B16"/>
<path d="M98.6341 90.5784C98.6895 91.7425 99.1515 92.5556 100.02 92.5186C100.888 92.4632 101.554 91.4838 101.48 90.3382C101.406 89.1926 100.667 88.2687 99.7982 88.3241C98.9112 88.3611 98.5602 89.4143 98.6341 90.5784Z" fill="#1A1B16"/>
<path d="M97.5615 81.8197C100.943 81.0067 104.472 81.0067 107.854 81.8197" stroke="#1A1B16" stroke-width="2.06952" stroke-miterlimit="10" stroke-linecap="round" stroke-linejoin="round"/>
<path d="M75.3325 81.8207C78.0303 81.1739 80.8204 81.0446 83.5552 81.4326" stroke="#1A1B16" stroke-width="2.06952" stroke-miterlimit="10" stroke-linecap="round" stroke-linejoin="round"/>
<path d="M97.007 118.88C98.4635 118.289 99.4143 117.243 99.1306 116.543C98.8469 115.843 97.4361 115.755 95.9796 116.345C94.523 116.935 93.5723 117.981 93.856 118.681C94.1397 119.381 95.5505 119.47 97.007 118.88Z" fill="#F77C2D"/>
<path d="M91.0218 84.8135L87.123 95.7708C86.698 96.9904 87.0491 98.3393 88.0284 99.1892L89.5436 100.483" stroke="#BF3028" stroke-width="2.06952" stroke-miterlimit="10" stroke-linecap="round" stroke-linejoin="round"/>
<path d="M102.216 106.655C101.421 109.021 98.0954 111.57 95.1205 112.199C94.8248 112.254 94.5476 112.31 94.2705 112.328C91.7021 112.531 89.4847 111.922 88.1913 110.61C87.3968 109.815 87.0087 108.817 87.0826 107.801C87.175 106.692 87.6739 106.009 88.3945 105.602C89.4663 104.974 90.9999 104.937 92.164 104.9C92.8847 104.882 93.6422 104.863 94.1596 104.752C94.7694 104.604 95.527 104.235 96.2661 103.847C97.5965 103.163 99.1856 102.35 100.59 102.867C100.886 102.978 101.163 103.145 101.44 103.385C102.345 104.198 102.641 105.38 102.216 106.655Z" fill="#1A1B16"/>
<path d="M98.7803 103.717C98.6325 104.327 98.3923 105.897 97.9673 106.488C96.8032 108.115 94.9184 108.318 92.6826 108.521C91.1859 108.65 90.5761 106.803 90.3359 106.193C91.1859 105.565 92.387 105.528 93.3109 105.491C93.8837 105.472 94.475 105.454 94.8815 105.343C95.3619 105.195 95.9532 104.825 96.5445 104.437C97.5977 103.735 98.7803 103.717 98.7803 103.717Z" fill="#EDE3EB"/>
<path d="M99.612 103.975C99.7783 103.975 99.9076 103.993 100.055 104.03L100.129 104.049C100.277 104.104 100.425 104.196 100.554 104.326C101.238 104.917 101.164 105.693 100.979 106.229C100.351 108.132 97.4131 110.368 94.8447 110.904C94.623 110.959 94.3828 110.996 94.161 111.015C93.8654 111.033 93.5882 111.052 93.3111 111.052C91.5187 111.052 89.9666 110.553 89.0981 109.684C88.5622 109.167 88.322 108.539 88.359 107.873C88.4144 107.153 88.7286 106.876 89.0427 106.691C89.8372 106.229 91.1861 106.192 92.1839 106.173H92.2024C92.9785 106.155 93.7915 106.137 94.4382 105.989C95.2143 105.804 96.0458 105.379 96.8403 104.972C97.7642 104.51 98.799 103.975 99.612 103.975ZM99.612 102.681C98.4664 102.681 97.2838 103.291 96.249 103.827C95.5099 104.196 94.7708 104.584 94.1426 104.732C93.6252 104.843 92.8676 104.862 92.1469 104.88C90.9828 104.917 89.4492 104.954 88.3775 105.582C87.6568 106.007 87.1579 106.672 87.0655 107.781C86.9916 108.816 87.3797 109.814 88.1742 110.59C89.3014 111.717 91.1492 112.345 93.2926 112.345C93.6067 112.345 93.9208 112.327 94.2534 112.308C94.5306 112.29 94.8262 112.234 95.1034 112.179C98.0599 111.551 101.404 109.019 102.199 106.635C102.624 105.379 102.328 104.178 101.404 103.365C101.127 103.125 100.85 102.958 100.554 102.847C100.259 102.737 99.9446 102.681 99.612 102.681Z" fill="#1A1B16"/>
</g>
<defs>
<clipPath id="clip0_3_13556">
<rect x="0.157715" y="0.980469" width="198.663" height="198.663" rx="99.3317" fill="white"/>
</clipPath>
</defs>
</svg>
