<svg width="200" height="200" viewBox="0 0 200 200" fill="none" xmlns="http://www.w3.org/2000/svg">
<g clip-path="url(#clip0_3_14584)">
<path d="M0.446777 99.6881C0.446777 44.8287 44.9191 0.356445 99.7785 0.356445V0.356445C154.638 0.356445 199.11 44.8287 199.11 99.6881V99.6881C199.11 154.548 154.638 199.02 99.7785 199.02V199.02C44.9191 199.02 0.446777 154.548 0.446777 99.6881V99.6881Z" fill="#6B42DF"/>
<path d="M197.618 268.06C198.782 231.819 194.251 212.642 184.638 190.799C172.968 164.261 140.26 150.321 116.426 145.115C91.6757 139.758 53.8766 134.238 32.0346 148.358C9.59172 162.867 -3.20394 178.74 -11.3804 204.504C-23.7439 243.444 -33.1839 276.54 -42.0244 312.76C-39.1127 313.803 -36.2658 314.921 -33.3321 315.879C-31.7376 316.392 -30.1745 316.851 -28.5468 317.235C-28.2916 317.303 -28.0253 317.328 -27.77 317.395C-27.2799 317.434 -26.7898 317.472 -26.2997 317.51C-23.5182 317.652 -20.6924 317.624 -17.933 317.851C-8.62101 318.579 4.70083 322.603 4.9012 334.109C4.98504 337.644 3.59857 341.065 2.82049 344.419C2.57531 345.54 2.3616 346.716 2.15897 347.849C2.13683 347.934 2.1351 348.116 2.1019 348.244C2.04312 348.822 1.98436 349.399 1.92559 349.977C1.65556 352.598 1.51316 355.252 1.41331 357.918C0.975533 369.256 1.80644 380.609 2.32846 391.926C2.38281 392.945 2.40567 393.909 2.46002 394.927L131.493 429.038C133.435 418.737 136.165 408.554 137.596 398.118C137.631 397.807 137.826 396.353 137.631 397.807C137.42 399.851 137.793 396.481 137.94 395.562C138.099 394.6 138.257 393.638 138.404 392.719C138.71 390.838 139.058 388.967 139.364 387.086C139.996 383.42 140.585 379.743 141.12 376.097C141.201 375.434 141.271 374.814 141.395 374.162C141.51 373.189 141.404 374.302 141.327 374.601C141.463 373.724 141.514 372.825 141.608 371.937C141.806 370.119 141.908 368.321 142.022 366.48C142.228 362.701 142.222 358.867 141.98 355.061C141.784 352.135 143.388 349.456 145.569 347.705C148.018 345.797 150.472 345.625 153.453 346.048C157.531 346.624 161.576 347.328 165.632 347.99C167.602 348.283 169.603 348.629 171.584 348.879C172.021 348.949 175.3 349.451 172.851 349.077C173.809 349.239 174.843 349.284 175.812 349.403C179.765 349.764 183.761 349.953 187.75 349.822C189.446 349.768 190.436 347.702 192.08 347.498C195.169 322.945 196.546 302.547 197.618 268.06Z" fill="#F2DAE9"/>
<path d="M30.5629 114.01C29.0088 112.933 70.143 129.571 90.4527 137.733C96.596 140.217 102.71 142.287 108.775 143.667C119.153 141.37 127.872 134.536 130.055 123.04C130.501 120.806 128.584 119.364 126.839 119.367C128.264 108.307 124.081 98.3335 116.336 89.3401C106.059 77.3919 93.7715 65.0615 77.9665 61.0845C76.9774 60.8299 76.1896 61.0337 75.5616 61.5043C74.291 61.4483 73.0694 62.0823 72.7457 63.6701C71.2504 70.963 69.6085 79.1666 62.6742 83.3887C57.5466 86.4951 51.3691 87.299 46.2624 90.5011C37.7585 95.8097 32.4633 104.292 30.574 113.968C30.531 113.957 30.5629 114.01 30.5629 114.01Z" fill="#FE4E4E"/>
<path d="M132.163 128.627C140.914 122.878 146.243 112.379 145.018 101.032L140.935 63.9759C140.072 55.9991 136.109 49.121 130.415 44.4946C113.585 60.0915 98.7149 77.8771 84.4415 95.9622C84.6977 98.1517 84.9337 100.244 85.2022 102.206C87.1678 117.026 88.0828 131.746 86.5375 146.448C86.3321 148.513 86.4841 150.582 87.0152 152.569C89.378 160.997 95.4543 167.847 104.926 169.391C116.162 171.228 130.319 162.699 131.018 149.935C131.368 142.839 131.771 135.711 132.163 128.627Z" fill="#97B1FE"/>
<path d="M132.326 127.831C126.687 129.284 120.974 130.316 115.153 131.052C113.864 131.221 114.332 133.133 115.579 132.952C121.388 132.259 127.069 131.174 132.751 129.731C134.031 129.424 133.605 127.524 132.326 127.831Z" fill="#23355F"/>
<path d="M120.358 67.7192L117.556 68.8038C116.339 69.2577 117.087 71.1283 118.304 70.6743L121.105 69.5897C122.323 69.1357 121.575 67.2652 120.358 67.7192Z" fill="#23355F"/>
<path d="M123.622 77.0671C121.103 77.6337 122.01 81.5122 124.529 80.9455C127.004 80.3677 126.097 76.4892 123.622 77.0671Z" fill="#23355F"/>
<path d="M139.884 61.6267L136.851 61.4045C135.54 61.3002 135.392 63.2796 136.702 63.3839L139.736 63.6061C141.047 63.7104 141.195 61.731 139.884 61.6267Z" fill="#23355F"/>
<path d="M140.33 73.3247C137.812 73.8913 138.719 77.7697 141.237 77.2031C143.702 76.6678 142.806 72.7468 140.33 73.3247Z" fill="#23355F"/>
<path d="M93.8607 85.5406C96.3183 77.5339 124.172 59.3144 132.394 48.0365C126.474 41.5017 117.752 37.7928 108.403 38.8215L98.5881 39.9087C50.9974 49.7763 78.7521 103.411 84.626 113.83C90.5225 106.514 91.7954 92.3687 93.8607 85.5406Z" fill="#FE4E4E"/>
<path d="M96.118 83.943C76.7464 75.0568 72.0055 77.2237 70.1283 85.1019C68.2511 92.9801 71.5038 97.0289 86.5848 102.503C101.655 108.019 96.118 83.943 96.118 83.943Z" fill="#97B1FE"/>
<path d="M94.9429 91.8873C92.2577 88.1831 88.3322 85.6914 83.7628 84.7835C82.493 84.5137 82.1742 86.4461 83.444 86.7158C87.4815 87.5368 90.908 89.8155 93.2901 93.0871C94.0916 94.09 95.7335 92.9323 94.9429 91.8873Z" fill="#23355F"/>
<path d="M139.814 81.1702C139.042 80.1342 137.346 81.1496 138.118 82.1856C140.537 85.4138 144.629 91.6231 139.49 94.5175C138.388 95.1408 139.386 96.8818 140.488 96.2585C146.676 92.7726 143.005 85.4344 139.814 81.1702Z" fill="#23355F"/>
<path d="M129.617 111.002C123.225 112.139 117.595 108.41 116.181 102.329C115.903 101.096 113.959 101.641 114.238 102.874C115.909 110.093 122.763 114.262 130.187 112.889C131.457 112.623 130.887 110.736 129.617 111.002Z" fill="#23355F"/>
<path d="M89.135 58.6219C89.5396 53.7406 85.8464 49.833 81.501 48.249C75.6144 46.0827 69.3364 47.1692 64.1164 50.1629C55.9022 53.0576 42.6794 61.9929 48.4421 71.4709C55.0943 82.4496 73.0134 72.8776 80.692 68.5289C84.5527 66.3601 88.7414 63.4607 89.135 58.6219Z" fill="#FE4E4E"/>
</g>
<defs>
<clipPath id="clip0_3_14584">
<path d="M0.446777 99.6881C0.446777 44.8287 44.9191 0.356445 99.7785 0.356445V0.356445C154.638 0.356445 199.11 44.8287 199.11 99.6881V99.6881C199.11 154.548 154.638 199.02 99.7785 199.02V199.02C44.9191 199.02 0.446777 154.548 0.446777 99.6881V99.6881Z" fill="white"/>
</clipPath>
</defs>
</svg>
