<svg width="200" height="200" viewBox="0 0 200 200" fill="none" xmlns="http://www.w3.org/2000/svg">
<g clip-path="url(#clip0_3_14585)">
<path d="M0.579102 99.6881C0.579102 44.8287 45.0514 0.356445 99.9108 0.356445V0.356445C154.77 0.356445 199.242 44.8287 199.242 99.6881V99.6881C199.242 154.548 154.77 199.02 99.9108 199.02V199.02C45.0514 199.02 0.579102 154.548 0.579102 99.6881V99.6881Z" fill="#FFC289"/>
<path d="M174.753 107.398C173.321 105.115 171.665 102.565 169.069 101.848C146.648 95.7622 168.219 84.6636 133.357 75.8921C122.169 73.0727 127.226 53.9187 115.277 49.3093C114.919 48.3695 114.158 47.6087 112.816 47.3402C102.567 45.5501 92.4085 45.6396 82.205 47.6087C81.4442 47.7429 80.9072 48.0562 80.4597 48.459C78.4906 48.2352 76.2082 49.3988 76.0739 51.9944C75.6264 59.826 71.6882 67.0759 64.7964 71.1036C59.8289 74.0125 54.1005 74.1468 48.6407 75.4446C43.2257 76.6977 38.124 79.2485 35.6178 83.6343C33.962 85.2901 32.9775 87.125 32.6195 89.8549C32.3062 92.3162 32.8432 94.1511 33.067 96.5677C33.604 102.162 32.4852 104.936 28.8155 109.322C22.9977 116.348 18.1645 122.748 20.7154 132.459C26.6674 154.925 53.8768 152.687 69.1821 142.215C69.7638 141.812 70.1666 141.365 70.4351 140.828C72.0462 141.812 73.7468 142.707 75.5369 143.423C83.8608 146.78 93.9301 146.422 101.225 140.872C105.029 138.008 107.132 134.115 108.877 129.774C110.22 126.462 110.981 122.658 113.263 119.839C118.589 113.26 122.437 117.467 127.36 120.331C130.761 122.3 134.341 123.195 137.787 123.195C138.548 125.97 140.114 128.521 142.442 130.356C143.739 131.385 145.216 132.101 146.738 132.549C144.276 134.16 144.993 139.172 148.841 139.44C160.745 140.38 174.26 134.92 177.125 122.166C178.199 117.378 177.438 111.649 174.753 107.398Z" fill="#23355F"/>
<path d="M76.6555 108.562H123.332L170.68 154.656C170.68 154.656 180.257 297.998 181.152 302.607C182.092 307.217 17.4482 287.794 17.4482 287.794L37.4973 155.865L76.6555 108.562Z" fill="white"/>
<path d="M112.459 53.7414C105.164 50.5639 98.4961 45.5964 93.8867 39.1073C93.7524 38.9283 93.6629 38.7493 93.5286 38.5703C92.5441 38.6598 91.5595 38.7493 90.6197 38.8836C90.4407 38.8836 90.3065 38.9284 90.1275 38.9284C85.16 46.4915 79.8344 54.0546 73.1216 60.0067V82.6066C73.1216 89.6774 76.299 96.0323 81.356 100.239C85.339 103.595 90.5302 105.609 96.169 105.609H102.748C110.848 105.609 118.008 101.403 122.081 95.0477C124.408 91.4675 125.75 87.1713 125.75 82.5618V57.6795C121.186 57.0978 116.666 55.5762 112.459 53.7414Z" fill="#97B1FE"/>
<path d="M92.0515 43.3133C93.036 41.7917 95.4079 41.6127 96.3477 43.3133C102.21 54.0091 113.98 59.2898 125.75 59.2003V56.4704C125.75 43.7608 115.457 33.4678 102.747 33.4678H96.1687C83.4591 33.4678 73.166 43.7608 73.166 56.4704V61.6617C81.0424 57.7235 87.3525 50.7422 92.0515 43.3133Z" fill="#23355F"/>
<path d="M121.499 90.0352C107.804 90.5274 94.0653 90.5275 80.6396 93.3021C81.4899 100.865 81.8032 108.473 81.2215 116.126C82.8325 123.957 88.3371 130.446 97.1085 131.386C106.238 132.371 117.381 125.031 117.471 115.007C117.516 109.413 117.516 103.819 117.56 98.2248C118.455 97.5983 119.306 96.8823 120.066 96.1215C120.29 93.9734 120.827 92.0043 121.499 90.0352Z" fill="#97B1FE"/>
<path d="M81.0866 66.9422C67.3924 58.663 63.678 59.8713 61.5747 65.6891C59.5161 71.507 61.5746 74.8186 72.36 80.1889C83.19 85.6039 81.0866 66.9422 81.0866 66.9422Z" fill="#97B1FE"/>
<path d="M116.978 66.9422C130.672 58.663 134.387 59.8713 136.49 65.6891C138.549 71.5069 136.49 74.8186 125.705 80.1889C114.919 85.6039 116.978 66.9422 116.978 66.9422Z" fill="#97B1FE"/>
<path d="M107.892 103.594C102.567 103.818 97.2412 103.684 91.9156 103.192C90.7521 103.102 90.7521 104.937 91.9156 105.026C97.2412 105.519 102.522 105.653 107.892 105.429C109.056 105.385 109.056 103.55 107.892 103.594Z" fill="#23355F"/>
<path d="M88.0237 64.6151C85.6966 64.3019 83.7723 66.8527 84.5331 69.0008C84.9359 70.1196 86.7259 69.6274 86.3232 68.5086C86.0099 67.6135 86.6812 66.271 87.7552 66.4052C88.7398 66.5395 89.2321 67.7925 88.8293 68.5981C88.2475 69.6274 89.8586 70.5672 90.4404 69.5379C91.4697 67.6135 90.3061 64.9284 88.0237 64.6151Z" fill="#23355F"/>
<path d="M116.799 64.6151C114.472 64.3019 112.547 66.8527 113.308 69.0008C113.711 70.1196 115.501 69.6274 115.098 68.5086C114.785 67.6135 115.456 66.271 116.53 66.4052C117.515 66.5395 118.007 67.7925 117.604 68.5981C117.022 69.6274 118.634 70.5672 119.215 69.5379C120.2 67.6135 119.036 64.9284 116.799 64.6151Z" fill="#23355F"/>
<path d="M89.7677 56.6047C88.5146 57.0075 87.3063 57.3655 86.0533 57.7682C84.9345 58.1263 85.4267 59.9163 86.5455 59.5583C87.7986 59.1556 89.0069 58.7976 90.2599 58.3948C91.3787 58.0368 90.8865 56.2467 89.7677 56.6047Z" fill="#23355F"/>
<path d="M113.8 56.1572H111.025C109.817 56.1572 109.817 57.9921 111.025 57.9921H113.8C114.964 57.9921 114.964 56.1572 113.8 56.1572Z" fill="#23355F"/>
<path d="M110.175 88.1104C108.788 89.811 107.088 91.1983 105.029 92.0486C103.955 92.4961 104.402 94.2862 105.521 93.8387C107.848 92.8541 109.907 91.4221 111.473 89.453C112.234 88.5132 110.936 87.2153 110.175 88.1104Z" fill="#23355F"/>
<path d="M68.0177 66.4512C66.9884 65.9142 66.0486 67.4805 67.0779 68.0623C69.047 69.1363 70.4791 71.0159 70.7924 73.2535C70.9266 74.4171 72.8062 74.4171 72.6272 73.2535C72.2692 70.3446 70.6134 67.8385 68.0177 66.4512Z" fill="#23355F"/>
<path d="M128.614 66.9868C126.287 68.4189 124.944 71.0146 125.168 73.7444C125.258 74.908 127.137 74.9528 127.003 73.7444C126.824 71.6411 127.719 69.7167 129.509 68.5979C130.583 67.9714 129.643 66.3603 128.614 66.9868Z" fill="#23355F"/>
<path d="M103.418 63.2282C102.881 62.1541 101.315 63.0939 101.807 64.168C104.134 69.046 107.177 77.1462 100.42 80.0103C99.3456 80.4578 100.285 82.0689 101.359 81.6214C109.146 78.3097 106.148 68.9565 103.418 63.2282Z" fill="#23355F"/>
<path d="M50.7889 147.675C48.5513 135.323 46.2242 122.971 43.2705 110.799C31.1874 114.871 21.2972 124.18 17.001 136.666C14.7186 143.289 12.1677 152.374 10.7804 159.355C6.61842 180.031 -4.34587 248.457 -26.006 255.17C-61.047 262.643 -76.7551 240.536 -85.7503 231.227C-95.8643 220.755 -112.915 219.636 -123.79 229.661C-134.351 239.372 -135.47 257.228 -125.356 267.7C-95.193 298.982 -43.8174 331.875 6.30515 298.221C19.0596 289.674 28.3233 278.172 35.3941 265.15C36.1102 259.287 36.9157 253.424 37.766 247.562C39.0639 230.422 41.6147 213.461 43.4496 196.365C43.4943 195.47 43.4943 194.62 43.5391 193.725C43.7181 193.546 43.8524 193.412 43.9866 193.188C44.1209 192.069 44.2104 190.95 44.2999 189.787C44.2551 189.652 44.1656 189.518 44.0761 189.339C36.2444 176.629 42.465 162.711 48.4618 150.673C49.2674 149.689 50.0282 148.659 50.7889 147.675Z" fill="#97B1FE"/>
<path d="M76.6564 108.562H56.8759C49.3127 108.562 42.1076 110.575 35.8423 114.156C45.285 136.263 53.1167 158.997 61.0378 181.642C66.2739 161.369 71.5994 142.797 75.7614 135.816C80.7736 127.313 80.9526 116.885 76.6564 108.562Z" fill="white"/>
<path d="M42.5109 190.772C39.602 216.595 36.6931 242.417 33.7394 268.239C33.6052 269.402 35.44 269.447 35.5743 268.283C38.4832 242.461 41.3921 216.639 44.3457 190.817C44.5247 189.654 42.6451 189.609 42.5109 190.772Z" fill="#23355F"/>
<path d="M323.825 229.662C312.95 219.637 295.855 220.756 285.785 231.228C276.835 240.537 252.713 259.915 228.726 256.737C220.402 255.216 212.928 244.027 209.796 235.972C206.574 228.812 191.671 164.324 189.434 156.85C187.42 150.048 185.361 143.29 183.034 136.667C179.543 126.553 172.338 118.497 163.298 113.664C161.195 118.005 159.226 122.436 157.346 126.866C157.257 127.09 156.675 128.477 156.585 128.656C156.227 129.551 155.825 130.446 155.466 131.341C154.75 133.131 153.99 134.921 153.274 136.711C152.065 139.665 150.812 142.619 149.604 145.572C156.72 159.177 163.925 175.064 156.093 188.937C157.078 196.903 157.615 204.914 158.286 212.925C158.331 213.327 158.286 213.685 158.152 213.999C159.986 230.781 162.403 247.518 164.148 264.3C171.309 277.726 180.707 289.541 193.73 298.267C243.897 331.921 295.228 299.028 325.391 267.746C335.505 257.229 334.341 239.373 323.825 229.662Z" fill="#97B1FE"/>
<path d="M136.85 173.721C145.71 153.851 156.048 134.563 165.58 115.006C158.957 110.889 151.215 108.562 143.07 108.562H123.29C118.949 116.885 119.172 127.313 124.229 135.816C127.854 141.902 132.285 156.67 136.85 173.721Z" fill="white"/>
<path d="M157.079 190.772C159.988 216.595 162.897 242.417 165.85 268.239C165.984 269.402 164.15 269.447 164.015 268.283C161.106 242.461 158.197 216.639 155.244 190.817C155.11 189.654 156.944 189.609 157.079 190.772Z" fill="#23355F"/>
</g>
<defs>
<clipPath id="clip0_3_14585">
<path d="M0.579102 99.6881C0.579102 44.8287 45.0514 0.356445 99.9108 0.356445V0.356445C154.77 0.356445 199.242 44.8287 199.242 99.6881V99.6881C199.242 154.548 154.77 199.02 99.9108 199.02V199.02C45.0514 199.02 0.579102 154.548 0.579102 99.6881V99.6881Z" fill="white"/>
</clipPath>
</defs>
</svg>
