<svg width="199" height="200" viewBox="0 0 199 200" fill="none" xmlns="http://www.w3.org/2000/svg">
<g clip-path="url(#clip0_3_14588)">
<path d="M0.000976562 99.6881C0.000976562 44.8287 44.4733 0.356445 99.3327 0.356445V0.356445C154.192 0.356445 198.664 44.8287 198.664 99.6881V99.6881C198.664 154.548 154.192 199.02 99.3327 199.02V199.02C44.4733 199.02 0.000976562 154.548 0.000976562 99.6881V99.6881Z" fill="#B17BF4"/>
<path d="M96.5972 29.2902C118.132 23.707 123.117 14.3352 128.501 25.3022C133.885 36.2692 125.909 37.2662 130.096 45.2421C134.284 53.2181 126.108 61.1941 118.531 58.6019C110.954 56.0097 96.5972 29.2902 96.5972 29.2902Z" fill="#2D264F"/>
<path d="M77.4579 66.1795C70.6783 71.3639 77.2585 83.1285 69.4819 80.1375C64.4969 78.3429 60.1101 82.7297 58.9137 90.7056C56.5209 104.664 51.5359 81.3339 36.9798 94.6936C22.4236 108.053 24.4176 90.7056 12.4536 104.664C12.4536 104.664 25.8134 112.64 41.7654 131.184C57.7173 149.728 111.555 117.824 133.489 122.61C133.489 122.61 144.855 117.226 140.069 106.059C135.483 94.6936 128.704 104.065 130.698 89.5092C132.692 74.9531 124.117 85.5212 122.123 77.5453C120.129 69.5693 130.099 45.6413 108.165 47.0371C86.0321 48.2335 77.4579 66.1795 77.4579 66.1795Z" fill="#2D264F"/>
<path d="M90.0239 79.7379L80.4527 129.588C77.2623 145.939 102.387 152.918 105.378 136.567C108.568 120.017 111.758 103.267 114.949 86.7169C118.139 70.1667 93.2143 63.1877 90.0239 79.7379Z" fill="#788BF1"/>
<path d="M95.7958 71.3639C95.397 83.5272 96.9922 95.4912 102.575 105.86C104.37 109.05 106.763 111.643 109.554 113.637C112.545 106.059 113.144 95.4912 114.739 86.3188C117.331 74.3549 103.971 67.3759 95.7958 71.3639Z" fill="#2D264F"/>
<path d="M126.108 66.5789C126.108 75.1531 125.51 84.5249 125.31 94.0961C125.111 101.075 111.353 102.072 98.5909 95.6913C93.4065 93.0991 88.4216 89.5099 84.633 84.7243C80.8444 79.7393 81.4426 75.1531 80.8444 67.7753C78.2522 36.669 79.648 26.4996 107.365 29.69C123.516 31.4846 126.108 46.639 126.108 66.5789Z" fill="#788BF1"/>
<path d="M82.64 85.5212C90.616 103.068 88.4226 57.6053 86.628 43.4479C86.4286 42.0521 87.8244 40.4569 89.0208 40.2575C99.7884 38.0641 110.556 38.4629 121.523 38.6623C123.118 32.0821 112.151 29.8887 105.172 29.0911C77.4556 25.9008 74.664 34.8737 77.2562 65.9801C78.0538 73.5573 78.8514 80.7356 82.64 85.5212Z" fill="#2D264F"/>
<path d="M103.97 52.0216C103.97 54.215 103.97 56.4084 103.97 58.6018C103.97 59.7981 105.964 59.9976 105.964 58.8012C105.964 56.6078 105.964 54.4144 105.964 52.221C105.964 51.0246 103.97 50.8252 103.97 52.0216Z" fill="#2D264F"/>
<path d="M121.73 53.0186C121.73 55.212 121.73 57.4054 121.73 59.5988C121.73 60.7952 123.724 61.194 123.724 59.7982C123.724 57.6048 123.724 55.4114 123.724 53.218C123.724 52.0216 121.73 51.8222 121.73 53.0186Z" fill="#2D264F"/>
<path d="M120.33 48.6326C121.327 49.4302 122.523 48.0344 121.726 47.2368C119.333 45.0434 116.342 46.6386 115.744 50.0284C115.145 52.82 116.541 56.4092 117.139 59.0014L120.13 72.76C120.33 73.9564 122.124 73.5576 121.925 72.1618C121.127 68.5726 120.33 64.784 119.532 61.1948C119.133 59.4002 118.735 57.6056 118.336 55.6116C118.136 55.0134 118.136 54.4152 117.937 53.817C116.741 51.4242 117.538 47.835 120.33 48.6326Z" fill="#EF1B3A"/>
<path d="M110.557 67.1757C104.774 66.7769 100.786 64.9823 96.7984 60.7949C96.2002 60.9943 95.602 61.3931 95.2032 61.7919C95.0038 61.7919 94.605 78.7409 94.605 87.1157C92.2122 82.9283 90.0188 78.5415 87.8254 74.5535C87.2272 73.3571 84.8344 72.9583 85.4326 74.1547C89.0218 80.7349 93.0098 90.3061 98.3936 95.8892C111.155 102.071 124.914 101.273 125.113 94.2941C125.313 84.7229 125.911 75.3511 125.911 66.7769C120.926 67.1757 115.741 67.5745 110.557 67.1757Z" fill="#A9CDFF"/>
<path d="M90.0261 52.8187C74.6723 48.2325 64.1041 68.7707 90.0261 76.1485V52.8187Z" fill="#788BF1"/>
<path d="M89.2225 64.7834C87.0291 62.3906 84.4369 60.3966 81.8447 58.602C80.6483 58.0038 79.6513 59.599 80.8477 60.3966C83.4399 61.9918 85.8327 63.9858 87.8267 66.1791C88.8237 67.1761 90.2195 65.7804 89.2225 64.7834Z" fill="#EF1B3A"/>
<path d="M88.2233 68.7719C86.0299 68.5725 85.0329 66.1797 86.6281 64.5845C87.4257 63.5875 86.0299 62.1917 85.2323 63.1887C82.6401 66.1797 84.4347 70.5665 88.4227 70.7659C89.4197 70.7659 89.4197 68.7719 88.2233 68.7719Z" fill="#EF1B3A"/>
<path d="M99.1934 65.9802C97.9971 62.5904 96.4018 59.5994 94.4078 56.6085C92.6132 54.2157 90.4199 51.6235 87.6283 50.8259C86.4319 50.4271 85.8337 52.4211 87.0301 52.8199C89.8217 53.6175 92.2144 57.0073 93.8096 59.2007C95.4048 61.3941 96.4018 63.9862 97.3988 66.5784C97.5982 67.5754 99.5922 67.1766 99.1934 65.9802Z" fill="#A9CDFF"/>
<path d="M105.572 45.8411C104.575 46.0405 103.578 46.4393 102.581 46.6387C101.384 47.0375 101.783 48.8321 102.98 48.6327C103.977 48.4333 104.974 48.0345 105.971 47.8351C107.167 47.6357 106.768 45.6417 105.572 45.8411Z" fill="#EF1B3A"/>
<path d="M103.98 36.2703C103.78 35.6721 102.783 35.6721 102.185 36.0709C101.986 35.4727 100.789 35.0739 100.39 35.8715C96.4024 42.4517 87.6288 30.2883 82.4445 47.636C82.2451 48.633 81.4475 49.2312 82.4445 49.63C87.4294 51.4246 92.215 49.4306 96.4024 46.8384C99.7922 44.6451 103.381 42.0529 103.98 37.8655C103.98 37.6661 104.179 37.6661 104.179 37.4667C104.578 36.8685 104.378 36.4697 103.98 36.2703Z" fill="#2D264F"/>
<path d="M161.201 276.348H12.6479C14.4425 164.086 11.8504 131.584 42.5579 121.215C47.1441 119.62 52.5279 118.623 58.9087 117.825C63.2955 117.227 68.0811 117.027 73.4648 116.629C75.2594 116.629 77.2535 116.429 79.2475 116.429C84.033 116.23 89.2174 116.03 94.8006 116.03C100.583 115.831 105.768 115.831 110.553 116.03C113.544 116.23 116.136 116.23 118.928 116.629C177.751 121.813 159.207 159.699 161.201 276.348Z" fill="#A9CDFF"/>
<path d="M118.728 116.629L103.972 143.947L79.0474 116.429C83.833 116.23 89.2167 115.432 94.7999 115.233C100.583 115.034 105.169 115.233 110.154 115.432C112.945 115.632 116.136 116.429 118.728 116.629Z" fill="#788BF1"/>
<path d="M154.017 166.479C153.818 173.259 149.431 179.041 143.05 181.035C141.854 181.434 142.253 183.428 143.648 183.029C150.827 180.836 155.812 174.256 156.211 166.679C156.011 165.283 154.017 165.283 154.017 166.479Z" fill="#FFF9EF"/>
<path d="M157.609 179.24C157.609 178.044 155.615 178.044 155.615 179.24C157.011 202.57 158.407 225.7 159.603 249.03C159.603 250.226 161.597 250.226 161.597 249.03C160.401 225.7 159.005 202.37 157.609 179.24Z" fill="#FFF9EF"/>
<path d="M58.7131 117.822C58.5137 116.626 56.5197 116.626 56.7191 117.822C65.6921 184.422 72.0729 243.244 77.2572 310.043C77.2572 311.24 79.2512 311.24 79.2512 310.043C74.0669 243.244 67.6861 184.422 58.7131 117.822Z" fill="#FF6B57"/>
<path d="M12.4634 250.822C12.8622 281.928 12.4634 335.766 12.4634 335.766H54.7361V197.582L12.4634 250.822Z" fill="#A9CDFF"/>
<path d="M55.1318 168.471V268.17C55.1318 269.367 57.1258 269.367 57.1258 268.17V168.471C57.1258 167.274 55.1318 167.274 55.1318 168.471Z" fill="#788BF1"/>
</g>
<defs>
<clipPath id="clip0_3_14588">
<path d="M0.000976562 99.6881C0.000976562 44.8287 44.4733 0.356445 99.3327 0.356445V0.356445C154.192 0.356445 198.664 44.8287 198.664 99.6881V99.6881C198.664 154.548 154.192 199.02 99.3327 199.02V199.02C44.4733 199.02 0.000976562 154.548 0.000976562 99.6881V99.6881Z" fill="white"/>
</clipPath>
</defs>
</svg>
