<svg width="199" height="200" viewBox="0 0 199 200" fill="none" xmlns="http://www.w3.org/2000/svg">
<g clip-path="url(#clip0_3_13855)">
<rect x="0.000976562" y="0.375977" width="198.663" height="198.663" rx="99.3317" fill="#91C8FB"/>
<path d="M134.441 55.943L63.8857 93.2505C63.6618 92.8105 63.4487 92.3421 63.2444 91.8932C63.0846 91.5419 62.9247 91.1906 62.7934 90.8499C53.5178 69.1125 61.77 44.6218 81.5496 35.7315C97.5738 28.5292 116.359 33.7443 128.374 47.2921C130.656 49.8629 132.714 52.7702 134.441 55.943Z" fill="#0064C8"/>
<path d="M108.433 33.3328C108.433 33.3328 95.7478 32.5534 107.054 8.47268C113.005 20.0721 113.249 29.8027 108.433 33.3328Z" fill="#0061CB"/>
<path d="M109.746 33.7753C109.746 33.7753 109.351 25.1206 129.018 21.3834C123.056 30.7659 114.473 35.8129 109.746 33.7753Z" fill="#0061CB"/>
<path d="M113.198 33.7333C113.429 31.7156 111.624 29.825 109.166 29.5106C106.707 29.1961 104.527 30.5769 104.296 32.5946C104.065 34.6123 105.871 36.503 108.329 36.8174C110.787 37.1318 112.967 35.751 113.198 33.7333Z" fill="#0061CB" stroke="#F9BD64" stroke-width="1.38212" stroke-miterlimit="10"/>
<path d="M113.198 33.7333C113.429 31.7156 111.624 29.825 109.166 29.5106C106.707 29.1961 104.527 30.5769 104.296 32.5946C104.065 34.6123 105.871 36.503 108.329 36.8174C110.787 37.1318 112.967 35.751 113.198 33.7333Z" fill="#0061CB" stroke="#F9BD64" stroke-width="1.38212" stroke-miterlimit="10"/>
<path d="M167.844 104.737C162.371 90.1622 157.233 86.2968 144.362 86.4097C137.691 86.4672 134.849 79.1568 134.977 69.039L137.712 68.8114L140.214 68.6424C140.214 68.6424 137.809 57.0821 127.686 48.2449C121.52 42.8664 112.169 37.6132 99.4634 39.3711C71.757 43.1976 62.1231 62.3391 63.8274 86.115C63.8663 86.6628 63.8767 87.1999 63.8781 87.7176C63.805 96.2557 58.2861 103.966 49.9779 106.485C49.8122 106.537 49.627 106.597 49.4329 106.638C37.9412 109.801 17.5675 123.448 28.0248 142.429C20.8536 141.606 14.5672 150.889 16.5875 159.09C44.5222 153.959 190.376 125.168 190.376 125.168C190.376 125.168 185.539 103.072 167.844 104.737Z" fill="#F52A21"/>
<path d="M65.2371 110.495C62.959 113.443 60.1849 116.642 60.6151 120.381C61.0072 123.828 64.0724 126.541 64.3108 130.012C64.5735 133.899 61.2684 136.964 59.4429 140.391C57.4224 144.215 57.2606 149.08 59.3339 152.867C61.4072 156.654 65.8085 159.155 70.0615 158.641C74.0458 158.156 77.47 155.249 79.3958 151.682C81.3216 148.114 81.9369 143.989 82.1192 139.944C82.6385 127.492 79.1176 115.195 74.1037 103.799C73.0718 101.477 69.0435 96.3855 68.286 101.335C67.7628 104.991 67.6843 107.352 65.2371 110.495Z" fill="#D6261D"/>
<path d="M27.3613 141.985C27.3613 141.985 30.2866 146.164 34.4464 147.425" stroke="#BF3028" stroke-width="1.72765" stroke-miterlimit="10" stroke-linecap="round" stroke-linejoin="round"/>
<path d="M168.086 105.762C168.086 105.762 165.325 105.32 160.595 107.115" stroke="#BF3028" stroke-width="1.72765" stroke-miterlimit="10" stroke-linecap="round" stroke-linejoin="round"/>
<path d="M73.9746 79.9141C73.9746 79.9141 76.3561 82.6092 77.7857 86.9629" stroke="#BF3028" stroke-width="1.72765" stroke-miterlimit="10" stroke-linecap="round" stroke-linejoin="round"/>
<path d="M83.8934 72.0935L83.3468 67.1185" stroke="#BF3028" stroke-width="1.72765" stroke-miterlimit="10" stroke-linecap="round" stroke-linejoin="round"/>
<path d="M79.6086 250.181L81.5273 224.649C74.231 233.707 46.7593 238.144 30.2184 225.669L20.6322 286.53L8.9191 325.472L-3.01952 246.453L-3.20064 245.288C-3.6554 242.292 -4.11014 239.296 -4.5649 236.3C-5.52151 230 -6.46748 223.671 -7.42409 217.371C-8.27921 211.755 -9.11471 206.13 -9.97879 200.494C-10.7307 195.514 -11.3611 190.644 -10.5387 185.636C-9.85026 181.418 -8.33681 177.346 -6.14238 173.673C-1.68236 166.224 5.56826 160.67 13.9344 158.261C14.6658 158.049 15.4347 157.867 16.184 157.693L70.514 145.942L70.5982 148.493C72.9322 151.3 81.4314 159.682 97.3271 155.877C116.309 151.316 120.481 141.078 120.481 141.078L120.457 135.158C120.457 135.158 168.494 124.762 168.514 124.753C171.957 124 175.464 123.642 178.996 123.649C182.461 123.663 185.932 124.051 189.313 124.809C192.665 125.557 195.937 126.646 199.062 128.084C202.672 129.751 206.082 131.861 209.19 134.343C212.194 136.753 214.924 139.547 217.259 142.612C218.256 143.904 219.184 145.251 220.042 146.653L238.706 177.023L79.6086 250.181Z" fill="white"/>
<path d="M-11.1838 191.065C-10.148 189.612 -8.96494 188.588 -7.70193 188.001C-5.76941 187.127 -3.53346 187.393 -2.25078 188.671C-1.30955 189.61 -0.77066 191.115 -0.70841 193.126C-0.566194 197.187 -1.94757 201.103 -3.64384 204.737C-4.90972 205.942 -5.67154 207.482 -5.79702 209.13C-5.82503 209.38 -5.67102 209.617 -5.40585 209.683C-5.16011 209.759 -4.90751 209.642 -4.7752 209.414C-4.11911 208.16 -3.41186 206.812 -2.75947 205.394C-2.424 205.096 -2.06024 204.808 -1.63104 204.561C0.361206 203.351 2.7592 203.091 4.65997 203.916C8.41549 205.516 10.3756 210.583 8.84248 214.735C7.43281 218.64 3.41345 221.503 -1.14764 221.867C-1.41624 221.897 -1.64398 222.121 -1.63484 222.402C-1.6257 222.682 -1.42398 222.92 -1.13766 222.93C1.58778 223.134 4.26863 224.593 6.19222 226.926C8.12467 229.278 9.04328 232.196 8.73519 234.948C8.42709 237.701 6.87116 240.345 4.49257 242.209C3.13639 243.266 1.54134 244.055 -0.161998 244.395C-1.2787 244.629 -2.42912 244.737 -3.52695 244.44L-3.34895 245.615C-3.32066 245.625 -3.29238 245.636 -3.24466 245.637C-2.40857 245.771 -1.56562 245.711 -0.749239 245.593C0.422323 245.428 1.56189 245.089 2.65002 244.583C3.52441 244.177 4.35451 243.673 5.13147 243.051C7.75551 241.002 9.44548 238.082 9.79216 235.05C10.1388 232.019 9.10678 228.798 7.00975 226.238C5.54448 224.451 3.68031 223.135 1.66124 222.412C5.45626 221.29 8.59209 218.552 9.86259 215.068C11.5577 210.39 9.33361 204.686 5.08832 202.887C2.98067 201.968 0.335227 202.201 -1.8779 203.442C-0.52054 200.202 0.52194 196.682 0.382 193.094C0.301754 190.783 -0.323998 189.033 -1.4881 187.913C-3.06625 186.346 -5.7954 185.977 -8.11654 187.031L-8.17483 187.058C-9.26296 187.564 -10.2554 188.333 -11.1715 189.375L-11.1838 191.065Z" fill="#F77C2D"/>
<path d="M137.049 191.726C136.952 191.77 136.836 191.776 136.712 191.762C136.426 191.705 136.223 191.419 136.281 191.133C136.705 188.978 137.595 186.963 138.454 185.033C138.94 183.936 139.446 182.83 139.847 181.701C140.627 179.548 141.601 175.51 139.495 172.578C137.664 170.038 133.696 169.164 130.481 170.591C127.675 171.83 125.319 174.612 124.06 178.236C123.87 178.796 123.688 179.376 123.545 179.937C123.642 182.917 123.269 185.9 122.438 188.762C122.372 189.028 122.088 189.182 121.83 189.135C121.572 189.088 121.369 188.85 121.387 188.582C121.566 185.689 121.756 182.719 122.482 179.834C122.423 178.373 122.249 176.917 121.948 175.495C121.449 173.078 120.594 171.58 119.32 170.865C118.244 170.271 117.134 170.426 116.396 170.669C114.94 171.148 113.655 172.304 112.995 173.693C111.809 176.245 112.179 179.407 112.473 181.942C112.512 182.232 112.302 182.493 111.993 182.54C111.704 182.579 111.441 182.368 111.394 182.059C111.085 179.389 110.691 176.073 112.011 173.247C112.784 171.593 114.317 170.205 116.045 169.649C117.403 169.215 118.697 169.307 119.839 169.942C121.396 170.811 122.436 172.555 122.992 175.301C123.116 175.929 123.22 176.566 123.316 177.184C124.726 173.631 127.156 170.91 130.04 169.635C133.733 168.013 138.263 169.031 140.378 171.984C142.769 175.329 141.715 179.758 140.862 182.11C140.45 183.268 139.934 184.402 139.448 185.499C138.599 187.4 137.721 189.339 137.339 191.38C137.325 191.505 137.205 191.654 137.049 191.726Z" fill="#F77C2D"/>
<path d="M205.065 131.043C204.507 133.934 202.636 136.804 199.952 138.015C199.129 138.386 198.234 138.601 197.288 138.603C193.502 138.66 190.779 135.74 188.807 132.598C189.073 134.199 189.221 135.853 189.032 137.494C188.735 140.079 187.355 143.294 184.377 144.637L184.337 144.655C182.408 145.501 180.153 145.386 177.969 144.297C175.993 143.302 174.283 141.598 173.285 139.644C172.687 138.452 172.285 137.172 172.019 135.878C171.335 138.19 170.288 140.383 168.881 142.36C166.229 146.102 161.34 148.589 157.806 146.27C155.841 144.988 154.762 142.551 154.57 139.008C154.364 135.282 154.913 131.499 156.129 127.981L157.374 127.703C156.04 131.274 155.431 135.131 155.633 138.953C155.799 142.131 156.732 144.303 158.386 145.372C160.361 146.674 164.665 146.406 167.975 141.732C169.887 139.055 171.121 135.882 171.605 132.624C171.503 130.713 171.604 128.829 171.669 127.126C171.679 126.839 171.908 126.618 172.188 126.609C172.468 126.601 172.703 126.802 172.742 127.09C172.961 128.948 172.937 130.844 172.683 132.703C172.813 134.931 173.203 137.159 174.227 139.172C175.94 142.572 180.302 145.248 183.867 143.688L183.906 143.67C186.473 142.513 187.687 139.656 187.936 137.375C188.238 134.646 187.585 131.9 186.967 129.232C186.899 128.981 187.053 128.699 187.316 128.604C187.58 128.508 187.856 128.643 187.983 128.869C191.799 136.718 195.111 137.581 197.254 137.558C200.142 137.505 203.445 134.814 204.042 130.467C204.403 130.634 204.734 130.838 205.065 131.043Z" fill="#F77C2D"/>
<path d="M180.813 179.519C180.617 179.608 180.386 179.57 180.218 179.41C178.009 177.295 174.523 172.362 174.632 168.141C174.672 166.332 175.377 164.835 176.707 163.716C177.779 162.808 179.14 162.525 180.721 162.872C182.887 163.357 185.254 165.047 187.19 166.931C187.05 166.475 186.941 165.983 186.86 165.5C186.409 162.781 187.163 160.108 188.865 158.515C191.624 155.927 196.11 156.567 198.914 158.484C201.878 160.494 203.714 163.697 205.34 166.499C205.485 166.763 205.398 167.085 205.132 167.229C204.867 167.372 204.542 167.283 204.396 167.019C202.835 164.305 201.054 161.219 198.297 159.352C194.983 157.099 191.346 157.632 189.583 159.299C188.148 160.653 187.493 162.976 187.898 165.339C188.157 166.872 188.785 168.333 189.551 169.684C190.059 170.374 190.462 171.041 190.713 171.635C190.83 171.889 190.733 172.192 190.488 172.326C190.242 172.461 189.917 172.372 189.78 172.127C189.376 171.508 188.991 170.88 188.617 170.224C186.724 167.613 183.32 164.552 180.494 163.917C179.257 163.65 178.218 163.86 177.414 164.529C176.322 165.446 175.751 166.67 175.731 168.164C175.63 171.839 178.73 176.499 180.976 178.644C181.191 178.853 181.2 179.179 180.99 179.392C180.921 179.447 180.871 179.493 180.813 179.519Z" fill="#F77C2D"/>
<path d="M140.154 149.926C141.159 150.315 141.858 150.963 141.534 151.797C141.209 152.632 140.151 153 139.127 152.619C138.122 152.23 137.15 151.093 137.455 150.267C137.76 149.442 139.129 149.546 140.154 149.926Z" fill="#F77C2D"/>
<path d="M24.8452 196.965C24.1341 196.442 23.7536 195.765 24.1852 195.164C24.6258 194.582 25.5472 194.535 26.2583 195.058C26.9695 195.582 27.4599 196.704 27.0284 197.306C26.5878 197.888 25.537 197.498 24.8452 196.965Z" fill="#F77C2D"/>
<path d="M54.8503 154.467C55.4139 156.973 55.322 158.878 54.5757 160.441C54.337 160.95 54.0231 161.398 53.643 161.806C51.4409 164.214 47.2516 164.569 44.2486 163.186C41.587 161.98 39.5279 159.77 37.8346 157.585C38.3743 159.937 38.697 162.434 38.0953 164.875C37.301 168.183 34.1942 171.4 30.5364 170.855C27.4159 170.398 25.4875 167.445 24.6185 165.714C23.0066 162.524 22.2777 158.889 22.4822 155.329L23.5802 155.093C23.3307 158.556 24.013 162.141 25.5799 165.233C26.3588 166.769 28.0665 169.397 30.7067 169.787C33.6541 170.228 36.3792 167.466 37.0719 164.605C37.8117 161.488 36.9378 158.154 36.1566 155.227C36.0877 154.975 36.2116 154.73 36.4376 154.605C36.6727 154.499 36.9406 154.567 37.1074 154.775C39.1189 157.548 41.3979 160.697 44.7154 162.197C47.747 163.591 52.1565 162.995 53.6174 159.953C54.2594 158.626 54.3148 156.949 53.8111 154.676C53.3746 152.702 52.6941 150.815 51.759 149.042L52.8374 148.815C53.7244 150.586 54.4139 152.493 54.8503 154.467Z" fill="#F77C2D"/>
<path d="M131.892 69.312C131.917 69.6779 131.934 70.0243 131.969 70.4097C132.058 71.7383 132.174 73.1255 132.269 74.5696C132.829 82.3405 133.915 91.5702 133.844 99.2524C133.667 116.45 121.732 122.315 121.732 122.315L121.763 129.809L121.808 140.271C121.808 140.271 117.659 150.552 98.7601 155.19C82.9231 159.087 74.4554 150.71 72.1404 147.875L70.8657 105.182L70.8451 103.538C69.09 102.595 67.5945 101.084 66.6915 99.1126C65.8689 97.317 65.6557 95.4078 65.9582 93.5931C66.0022 93.4313 66.0372 93.25 66.1008 93.0792C66.8787 90.2913 69.0047 85.1864 75.1505 85.6074C80.098 85.9395 78.6059 99.1829 82.9102 98.936C86.6849 98.719 84.2318 78.6169 83.5747 73.6764C83.4928 72.982 83.4295 72.586 83.4295 72.586L97.6856 71.6316L99.8839 62.4563L106.114 71.0547L131.892 69.312Z" fill="#F8934F"/>
<path d="M77.56 97.6387C77.56 97.6387 74.006 99.2642 72.2841 96.3451C70.5621 93.426 72.7734 90.8131 72.7734 90.8131C73.6696 91.4392 74.5251 92.1316 75.2708 92.946C76.4966 94.2481 77.3949 95.868 77.56 97.6387Z" fill="#F77C2D"/>
<path d="M72.8023 90.7912C72.8023 90.7912 70.6003 93.4259 72.3098 96.3308C74.0281 99.2552 77.5795 97.6298 77.5795 97.6298C77.4158 95.8566 76.5107 94.2141 75.3153 92.9199C74.12 91.6256 72.6467 90.6027 71.1504 89.6852" stroke="#BF3028" stroke-width="1.72765" stroke-miterlimit="10" stroke-linecap="round" stroke-linejoin="round"/>
<path d="M81.3903 135.191C82.0339 137.197 81.7814 139.451 80.8089 141.301C80.2874 142.278 79.5894 143.123 79.2373 144.164C78.6282 145.989 79.2153 147.974 79.4424 149.888C79.588 151.15 79.5695 152.465 79.1928 153.66C75.1992 151.705 72.7364 149.09 71.6311 147.724L70.4524 104.74L70.4375 103.56C71.3763 103.981 72.5586 104.527 72.822 105.166C73.4423 106.755 72.7237 108.441 73.7234 110.092C74.633 111.596 76.1403 112.657 76.9423 114.234C78.8856 118.038 75.8369 122.724 76.8136 126.879C77.5708 129.973 80.402 132.156 81.3903 135.191Z" fill="#F77C2D"/>
<path d="M132.628 69.2543C132.653 69.6185 132.669 69.9633 132.703 70.3471C130.661 71.687 128.161 72.3884 125.705 72.6708C122.512 73.0503 119.3 72.8745 116.103 73.0913C112.082 73.3733 108.094 74.2972 104.082 74.0824C101.989 73.967 99.8986 73.5457 97.7827 73.5346C95.8114 73.5289 93.8366 73.8768 91.8599 74.0143C90.3676 74.1218 86.2625 74.3242 84.0342 73.4485C83.9539 72.7571 83.8915 72.3627 83.8915 72.3627L98.2283 71.457L100.467 62.3315L106.705 70.9089L132.628 69.2543Z" fill="#F77C2D"/>
<path d="M132.491 74.3265C132.495 74.49 133.44 85.8903 133.787 91.4949C133.927 93.8636 134.02 96.1827 134.032 98.3741C134.027 98.7775 134.034 99.1525 134.031 99.508C133.856 116.713 121.926 122.581 121.926 122.581L121.937 125.906L121.932 126.05C121.04 126.318 120.13 126.498 119.214 126.611C115.809 127.014 112.176 126.246 109.501 124.118C114.423 123.728 119.315 122.242 123.324 119.342C127.342 116.462 130.382 112.116 131.23 107.263C131.681 104.742 132.136 85.2597 132.1 82.3948C132.09 80.9819 131.918 79.573 131.908 78.1601C131.902 77.2182 131.84 75.3806 132.491 74.3265Z" fill="#F9AF79"/>
<path d="M121.545 122.612L121.575 130.099C118.861 130.419 108.558 130.997 103.836 122.61C103.826 122.638 111.768 126.913 121.545 122.612Z" fill="#BF3028"/>
<path d="M71.1006 103.509C71.1006 103.509 73.3586 104.814 75.9544 104.225" stroke="#BF3028" stroke-width="1.72765" stroke-miterlimit="10" stroke-linecap="round" stroke-linejoin="round"/>
<path d="M114.875 98.4169C116.544 99.2083 120.505 94.986 118.772 93.0256C117.865 91.9818 110.846 96.515 114.875 98.4169Z" fill="#F77C2D"/>
<path d="M116.252 112.537C116.232 113.369 115.021 113.262 113.549 113.205C112.076 113.147 110.869 113.204 110.909 112.363C110.949 111.522 112.263 110.617 113.746 110.647C115.219 110.704 116.292 111.696 116.252 112.537Z" fill="#F77C2D"/>
<path d="M106.415 90.5329C106.369 91.6184 105.968 92.3945 105.173 92.3597C104.359 92.3338 103.738 91.4388 103.785 90.3532C103.831 89.2677 104.532 88.4242 105.326 88.459C106.112 88.4743 106.462 89.4474 106.415 90.5329Z" fill="#1A1B16"/>
<path d="M126.156 89.2856C126.111 90.3232 125.732 91.0423 124.994 91.0285C124.247 90.9952 123.672 90.1496 123.717 89.112C123.762 88.0744 124.404 87.2577 125.151 87.291C125.898 87.3244 126.201 88.248 126.156 89.2856Z" fill="#1A1B16"/>
<path d="M96.3546 83.0403C99.5604 81.3797 103.303 80.7424 106.902 81.2452" stroke="#BF3028" stroke-width="1.72765" stroke-miterlimit="10" stroke-linecap="round" stroke-linejoin="round"/>
<path d="M122.499 80.1367C125.34 79.7628 128.281 80.071 130.974 81.0783" stroke="#BF3028" stroke-width="1.72765" stroke-miterlimit="10" stroke-linecap="round" stroke-linejoin="round"/>
<path d="M116.328 98.1079C117.034 97.5904 117.749 97.0925 118.317 96.4255C118.885 95.7585 119.287 94.9314 119.289 94.0524C119.27 92.9698 118.617 91.9917 118.115 91.038C117.049 89.0415 116.518 86.7729 116.559 84.5234" stroke="#BF3028" stroke-width="1.72765" stroke-miterlimit="10" stroke-linecap="round" stroke-linejoin="round"/>
<path d="M105.778 101.348C105.778 101.348 109.017 108.857 115.816 107.466C119.889 106.64 120.508 102.215 120.508 102.215C120.508 102.215 118.43 101.612 115.561 103.77C112.817 102.13 105.289 99.6652 105.778 101.348Z" fill="#F52A21"/>
<path d="M105.398 101.073C105.398 101.073 110.525 105.154 115.251 105.167C118.221 105.179 120.5 102.194 120.5 102.194" stroke="#BF3028" stroke-width="1.72765" stroke-miterlimit="10" stroke-linecap="round" stroke-linejoin="round"/>
</g>
<defs>
<clipPath id="clip0_3_13855">
<rect x="0.000976562" y="0.375977" width="198.663" height="198.663" rx="99.3317" fill="white"/>
</clipPath>
</defs>
</svg>
