<svg xmlns="http://www.w3.org/2000/svg" xmlns:xlink="http://www.w3.org/1999/xlink" viewBox="0 0 460.72 355.64"><defs><style>.cls-1{fill:#101b58;}.cls-2{fill:url(#linear-gradient);}.cls-3{fill:#fff;}.cls-4{fill:#1541f8;}</style><linearGradient id="linear-gradient" x1="115.24" y1="24.93" x2="372.62" y2="282.31" gradientUnits="userSpaceOnUse"><stop offset="0" stop-color="#01d3ff"/><stop offset="1" stop-color="#1541f8"/></linearGradient></defs><title>Cloudnimi SVG</title><g id="Layer_2" data-name="Layer 2"><g id="Layer_1-2" data-name="Layer 1"><path class="cls-1" d="M49.74,264.6a29.4,29.4,0,0,0-8.57-5.18,26.39,26.39,0,0,0-9.49-1.73q-9.64,0-15.68,6.19t-6,16q0,9.53,5.88,15.7a19.6,19.6,0,0,0,14.83,6.18,27.07,27.07,0,0,0,9.94-1.84,31.5,31.5,0,0,0,9-5.58v10.8a28.29,28.29,0,0,1-8.39,4.13,34,34,0,0,1-9.83,1.37A34.37,34.37,0,0,1,19,308.44,29.29,29.29,0,0,1,2.31,292a33.19,33.19,0,0,1,0-24.33A30,30,0,0,1,19,251.13a33,33,0,0,1,12.24-2.23,32,32,0,0,1,9.88,1.51A34.52,34.52,0,0,1,50.26,255Z"/><path class="cls-1" d="M61.59,309.08V250.31h9.55v50.22H92.5v8.55Z"/><path class="cls-1" d="M157.58,279.81a30.34,30.34,0,0,1-2.35,11.85,30,30,0,0,1-6.85,9.95,32,32,0,0,1-10.23,6.71,31.43,31.43,0,0,1-12,2.33,31.84,31.84,0,0,1-12.1-2.35,31.26,31.26,0,0,1-10.18-6.69,29.78,29.78,0,0,1-6.82-9.91,30.57,30.57,0,0,1,6.82-33.77,31.35,31.35,0,0,1,10.2-6.66,32.87,32.87,0,0,1,24.11,0,31.44,31.44,0,0,1,10.17,6.66A31.08,31.08,0,0,1,155.23,268,30.41,30.41,0,0,1,157.58,279.81Zm-10,0a22.25,22.25,0,0,0-1.63-8.47,22,22,0,0,0-4.67-7.14,20.88,20.88,0,0,0-15.14-6.43,21.6,21.6,0,0,0-19.87,13.53,22.75,22.75,0,0,0-1.61,8.51,22.32,22.32,0,0,0,1.61,8.44,21.71,21.71,0,0,0,4.66,7.1,20.83,20.83,0,0,0,15.21,6.42,20.6,20.6,0,0,0,8.17-1.64,21.65,21.65,0,0,0,7-4.78,22.09,22.09,0,0,0,6.3-15.54Z"/><path class="cls-1" d="M168.3,250.31h9.43V286q0,8,3.67,11.94t11,4q7.27,0,10.94-4T207,286V250.31h9.55v36.57q0,11.92-6,17.85t-18.15,5.92q-12.12,0-18.1-5.9t-6-17.87Z"/><path class="cls-1" d="M229.72,309.08V250.31h12.89q12.55,0,17.68,1.26a23.79,23.79,0,0,1,9,4.24,24.54,24.54,0,0,1,7.73,10,34.82,34.82,0,0,1,2.63,13.93A34.4,34.4,0,0,1,277,293.61a24.94,24.94,0,0,1-7.73,10,24,24,0,0,1-8.77,4.24q-4.92,1.26-15.31,1.26H229.72Zm9.56-8.63h8a41.46,41.46,0,0,0,9.94-.88,14.51,14.51,0,0,0,5.76-3,17.72,17.72,0,0,0,5-7.09,29.91,29.91,0,0,0,0-19.71,17.65,17.65,0,0,0-5-7.09,14.87,14.87,0,0,0-6-3,48.22,48.22,0,0,0-10.86-.88h-6.9Z"/><path class="cls-1" d="M290.58,309.08V248l37.34,35.93q1.53,1.53,3.09,3.25t3.29,3.9V250.31h8.83v61.06L305,274.8c-1-1-2-2-3-3.13s-1.85-2.25-2.71-3.46v40.87Z"/><path class="cls-1" d="M356.78,309.08V250.31h9.56v58.77Z"/><path class="cls-1" d="M428,280.06c-.11-.46-.29-1.72-.53-3.78-.21-1.71-.4-3.13-.56-4.25a29.48,29.48,0,0,1-1,4,34.33,34.33,0,0,1-1.67,4.1l-15.38,31.31-15.37-32c-.64-1.31-1.2-2.58-1.67-3.81s-.87-2.45-1.22-3.65a38.54,38.54,0,0,1-.3,3.87c-.18,1.35-.44,2.76-.79,4.24l-6.3,28.94h-8.79l13.89-61.26,17.34,37.09c.27.59.68,1.57,1.23,2.93s1.21,3.06,2,5.06a68.59,68.59,0,0,1,2.65-6.42c.33-.7.57-1.23.73-1.61l16.94-37.05,14.21,61.26h-8.87Z"/><path class="cls-1" d="M451.17,309.08V250.31h9.55v58.77Z"/><path class="cls-2" d="M326.93,195.81a60,60,0,0,0-7.79-100.57,80.2,80.2,0,0,0,1.53-15.6A79.24,79.24,0,0,0,309.41,38.8a60.07,60.07,0,0,1,81.07,46.13l.73,4.46,4.43.91a53.53,53.53,0,0,1,35.05,25.08h14.8a66.94,66.94,0,0,0-42.88-36.91,73.22,73.22,0,0,0-101.1-50.62A79.6,79.6,0,0,0,174,36.6,69.34,69.34,0,0,0,71.85,90a60,60,0,0,0,2.41,119.81v0H381.57l63.6-.16s0,1.56,0-13.25h-58.5Z"/><path class="cls-3" d="M251.84,177V132h7.52l38.13,29.83V132h9.91V177h-7.57l-38-30.3V177Z"/><path class="cls-3" d="M327.48,177V132h10.9V177Z"/><path class="cls-4" d="M355.58,177V132h8.76l22,26.66L408.24,132h8.82V177H406.89V146l-20.08,25.53h-2.13l-20.34-24.8V177Z"/><path class="cls-4" d="M433.67,177V132h10.9V177Z"/><path class="cls-1" d="M16.67,332v22.62H12.41V332h-7v-3.62H23.61V332Z"/><path class="cls-1" d="M48.9,354.62V328.38H63.55V332H53.17v6.58H63.55v3.74H53.17v8.48H63.55v3.82Z"/><path class="cls-1" d="M111.53,334.76a12.93,12.93,0,0,0-3.82-2.31,11.68,11.68,0,0,0-4.24-.78,9.35,9.35,0,0,0-7,2.77,10.75,10.75,0,0,0-.08,14.16,8.78,8.78,0,0,0,6.63,2.76,12.11,12.11,0,0,0,4.44-.83,14.13,14.13,0,0,0,4-2.49v4.82a12.62,12.62,0,0,1-3.75,1.85,15,15,0,0,1-4.39.61,15.31,15.31,0,0,1-5.57-1A13.08,13.08,0,0,1,90.35,347a14.83,14.83,0,0,1,0-10.86,13.46,13.46,0,0,1,7.47-7.39,14.89,14.89,0,0,1,5.47-1,14.32,14.32,0,0,1,4.41.67,15.53,15.53,0,0,1,4.07,2Z"/><path class="cls-1" d="M138.85,354.62V328.38h4.27v9.68H156v-9.68h4.26v26.24H156V341.88H143.12v12.74Z"/><path class="cls-1" d="M188.34,354.62V327.34l16.68,16c.45.46.91.94,1.38,1.45s.95,1.1,1.47,1.74V328.38h3.94v27.26l-17-16.33c-.46-.44-.9-.91-1.32-1.4a18.22,18.22,0,0,1-1.21-1.54v18.25Z"/><path class="cls-1" d="M266.77,341.55a13.37,13.37,0,0,1-4.11,9.74,14.29,14.29,0,0,1-4.57,3,14.24,14.24,0,0,1-15.29-3,13.26,13.26,0,0,1-4.09-9.74,13.44,13.44,0,0,1,4.09-9.77,13.92,13.92,0,0,1,4.56-3,14.57,14.57,0,0,1,10.76,0,13.89,13.89,0,0,1,7.6,7.46A13.52,13.52,0,0,1,266.77,341.55Zm-4.45,0a10.08,10.08,0,0,0-.72-3.78,9.91,9.91,0,0,0-2.09-3.19,9.54,9.54,0,0,0-15.63,3.17,10.11,10.11,0,0,0-.72,3.8,10,10,0,0,0,.72,3.77,9.58,9.58,0,0,0,2.08,3.17,9.37,9.37,0,0,0,6.79,2.87,9.23,9.23,0,0,0,3.65-.74,9.7,9.7,0,0,0,3.11-2.13,9.79,9.79,0,0,0,2.81-6.94Z"/><path class="cls-1" d="M293.69,354.62V328.38H298V350.8h9.54v3.82Z"/><path class="cls-1" d="M358.58,341.55a13.41,13.41,0,0,1-4.1,9.74,14.4,14.4,0,0,1-4.57,3,14.35,14.35,0,0,1-10.75,0,13.82,13.82,0,0,1-4.54-3,13.76,13.76,0,0,1-3.05-15,13.53,13.53,0,0,1,3.05-4.47,13.78,13.78,0,0,1,4.55-3,14.57,14.57,0,0,1,10.76,0,14,14,0,0,1,4.55,3,13.71,13.71,0,0,1,3,4.49A13.52,13.52,0,0,1,358.58,341.55Zm-4.44,0a9.9,9.9,0,0,0-.73-3.78,9.75,9.75,0,0,0-2.09-3.19,9.32,9.32,0,0,0-3.07-2.13,9.46,9.46,0,0,0-10.48,2.13,9.53,9.53,0,0,0-2.08,3.17,10.11,10.11,0,0,0-.72,3.8,10,10,0,0,0,.72,3.77,9.74,9.74,0,0,0,2.08,3.17,9.37,9.37,0,0,0,6.79,2.87,9.23,9.23,0,0,0,3.65-.74,9.59,9.59,0,0,0,3.11-2.13,9.86,9.86,0,0,0,2.82-6.94Z"/><path class="cls-1" d="M400,341.18h10.4c0,.18,0,.43,0,.75,0,.85.05,1.42.05,1.72,0,3.69-1.05,6.56-3.17,8.6s-5.1,3.07-8.94,3.07a16.37,16.37,0,0,1-5.76-.95,12.23,12.23,0,0,1-4.43-2.87,13.08,13.08,0,0,1-2.86-4.46,15.11,15.11,0,0,1-1-5.49,14.6,14.6,0,0,1,1-5.48,12.79,12.79,0,0,1,3-4.43,12.93,12.93,0,0,1,4.5-2.87,15.37,15.37,0,0,1,5.53-1,13.12,13.12,0,0,1,5.54,1.13,12.53,12.53,0,0,1,4.37,3.46l-3.12,2.35a8.62,8.62,0,0,0-3-2.29,9,9,0,0,0-3.73-.76,9.38,9.38,0,0,0-7,2.74,9.68,9.68,0,0,0-2.7,7.11,9.88,9.88,0,0,0,2.7,7.21,9.32,9.32,0,0,0,7,2.77,8.92,8.92,0,0,0,5.76-1.7,5.66,5.66,0,0,0,2.1-4.64v-.38H400Z"/><path class="cls-1" d="M442,354.62v-12l-8.84-14.23h4.48l5.5,8.91c.13.22.3.52.5.89s.39.77.6,1.2a12.75,12.75,0,0,1,.53-1.18,8.24,8.24,0,0,1,.58-1l5.65-8.8h4.26l-9,14.23v12Z"/></g></g></svg>