<svg xmlns="http://www.w3.org/2000/svg" xmlns:xlink="http://www.w3.org/1999/xlink" viewBox="0 0 585.95 285.82"><defs><style>.cls-1{fill:url(#linear-gradient);}.cls-2{fill:#fff;}.cls-3{fill:#1541f8;}</style><linearGradient id="linear-gradient" x1="136.2" y1="33.96" x2="486.71" y2="384.47" gradientUnits="userSpaceOnUse"><stop offset="0" stop-color="#01d3ff"/><stop offset="1" stop-color="#1541f8"/></linearGradient></defs><title>Logo</title><g id="Layer_2" data-name="Layer 2"><g id="Layer_1-2" data-name="Layer 1"><path class="cls-1" d="M424.49,266.66a81.67,81.67,0,0,0-10.61-137A109.28,109.28,0,0,0,416,108.46a107.88,107.88,0,0,0-15.35-55.62A81.83,81.83,0,0,1,511,115.67l1,6.06,6,1.25a72.91,72.91,0,0,1,47.74,34.15H586a91.18,91.18,0,0,0-58.39-50.27A99.73,99.73,0,0,0,389.87,37.93,108.4,108.4,0,0,0,216.28,49.84,94.44,94.44,0,0,0,77.1,122.63a81.65,81.65,0,0,0,3.29,163.16v0H498.91l86.61-.22s.06,2.12.06-18.05H505.9Z"/><path class="cls-2" d="M322.22,241V179.82h10.25l51.93,40.62V179.82h13.5V241H387.58l-51.79-41.26V241Z"/><path class="cls-2" d="M425.24,241V179.82h14.84V241Z"/><path class="cls-3" d="M463.5,241V179.82h11.94l30,36.31,29.82-36.31h12V241H533.38V198.89L506,233.66h-2.9l-27.7-33.78V241Z"/><path class="cls-3" d="M569.86,241V179.82H584.7V241Z"/></g></g></svg>