<?xml version="1.0" encoding="UTF-8"?> <!-- Generator: Adobe Illustrator 24.3.0, SVG Export Plug-In . SVG Version: 6.00 Build 0) --> <svg xmlns="http://www.w3.org/2000/svg" xmlns:xlink="http://www.w3.org/1999/xlink" id="Layer_1" x="0px" y="0px" viewBox="0 0 329 378" style="enable-background:new 0 0 329 378;" xml:space="preserve"> <style type="text/css"> .st0{fill:#F8BC3B;} </style> <g> <path class="st0" d="M164.5,378C164.5,378,164.5,378,164.5,378c-0.2,0-0.3,0-0.5-0.1c-0.2,0-0.3-0.1-0.5-0.2c0,0,0,0,0,0L1,284.2 c-0.6-0.4-1-1-1-1.7v-187c0,0,0,0,0,0c0-0.2,0-0.4,0.1-0.5l0,0c0,0,0,0,0,0c0-0.2,0.1-0.3,0.2-0.5c0.1-0.2,0.2-0.3,0.3-0.4 c0.1-0.1,0.3-0.2,0.4-0.3c0,0,0,0,0,0L163.5,0.3c0.6-0.4,1.4-0.4,2,0L328,93.7c0,0,0,0,0,0c0.2,0.1,0.3,0.2,0.4,0.3 c0.1,0.1,0.2,0.3,0.3,0.4c0.1,0.1,0.1,0.3,0.2,0.5c0,0,0,0,0,0l0,0c0,0.2,0.1,0.4,0.1,0.5c0,0,0,0,0,0v187c0,0.7-0.4,1.4-1,1.7 l-162.5,93.5c0,0,0,0,0,0c-0.2,0.1-0.3,0.2-0.5,0.2C164.8,378,164.7,378,164.5,378z M166.5,193.9v178.7L325,281.3V99L166.5,193.9z M4,281.3l158.5,91.2V193.9L4,99V281.3z M6,95.5l158.5,94.9L323,95.5L164.5,4.3L6,95.5z"></path> </g> <g> <path class="st0" d="M164.5,330C164.5,330,164.5,330,164.5,330c-0.2,0-0.4,0-0.5-0.1c-0.2,0-0.3-0.1-0.5-0.2l0,0c0,0,0,0,0,0 c0,0,0,0,0,0L44,260.7c-0.6-0.4-1-1-1-1.7V121c0,0,0,0,0-0.1c0-0.2,0-0.3,0.1-0.5c0-0.2,0.1-0.3,0.2-0.5c0.1-0.2,0.2-0.3,0.3-0.4 c0.1-0.1,0.3-0.2,0.4-0.3c0,0,0,0,0,0l119.5-69c0.6-0.4,1.4-0.4,2,0l119.5,69c0,0,0,0,0,0c0.2,0.1,0.3,0.2,0.4,0.3 c0.1,0.1,0.2,0.3,0.3,0.4c0.1,0.1,0.2,0.3,0.2,0.5c0,0.2,0.1,0.3,0.1,0.5c0,0,0,0,0,0.1v138c0,0.7-0.4,1.4-1,1.7l-119.5,69 c0,0,0,0,0,0c-0.2,0.1-0.3,0.2-0.5,0.2C164.8,330,164.7,330,164.5,330z M166.5,193.9v130.6L282,257.8V124.5L166.5,193.9z M47,257.8 l115.5,66.7V193.9L47,124.5V257.8z M48.9,121l115.6,69.4L280.1,121L164.5,54.3L48.9,121z"></path> </g> <g> <path class="st0" d="M164.5,279C164.5,279,164.5,279,164.5,279c-0.2,0-0.4,0-0.5-0.1c-0.2,0-0.3-0.1-0.5-0.2c0,0,0,0,0,0l-74.5-43 c-0.6-0.4-1-1-1-1.7v-86c0,0,0,0,0-0.1c0-0.2,0-0.4,0.1-0.5c0-0.2,0.1-0.3,0.2-0.5c0.1-0.2,0.2-0.3,0.3-0.4 c0.1-0.1,0.3-0.2,0.4-0.3c0,0,0,0,0,0l74.5-43c0.6-0.4,1.4-0.4,2,0l74.5,43c0,0,0,0,0,0c0.2,0.1,0.3,0.2,0.4,0.3 c0.1,0.1,0.2,0.3,0.3,0.4c0.1,0.1,0.1,0.3,0.2,0.5c0,0.2,0.1,0.4,0.1,0.5c0,0,0,0,0,0.1v86c0,0.7-0.4,1.4-1,1.7l-74.5,43 c0,0,0,0,0,0c-0.2,0.1-0.3,0.2-0.5,0.2C164.8,279,164.7,279,164.5,279z M166.5,193.9v79.7l70.5-40.7v-81.3L166.5,193.9z M92,232.8 l70.5,40.7v-79.7L92,151.5V232.8z M93.9,148l70.6,42.4l70.6-42.4l-70.6-40.7L93.9,148z"></path> </g> <g> <path class="st0" d="M164.5,232C164.5,232,164.5,232,164.5,232c-0.2,0-0.4,0-0.5-0.1c-0.2,0-0.3-0.1-0.5-0.2c0,0,0,0,0,0L130,212.2 c-0.6-0.4-1-1-1-1.7v-39c0,0,0,0,0-0.1c0-0.2,0-0.3,0.1-0.5c0-0.2,0.1-0.3,0.2-0.5c0.1-0.2,0.2-0.3,0.3-0.4 c0.1-0.1,0.3-0.2,0.4-0.3c0,0,0,0,0,0l33.5-19.5c0.6-0.4,1.4-0.4,2,0l33.5,19.5c0,0,0,0,0,0c0.2,0.1,0.3,0.2,0.4,0.3 c0.1,0.1,0.2,0.3,0.3,0.4c0.1,0.1,0.1,0.3,0.2,0.5c0,0.2,0.1,0.3,0.1,0.5c0,0,0,0,0,0.1v39c0,0.7-0.4,1.4-1,1.7l-33.5,19.5 c0,0,0,0,0,0c-0.2,0.1-0.3,0.2-0.5,0.2C164.8,232,164.7,232,164.5,232z M166.5,192.9v33.6l29.5-17.2V175L166.5,192.9z M133,209.3 l29.5,17.2v-33.6L133,175V209.3z M134.9,171.5l29.6,17.9l29.6-17.9l-29.6-17.2L134.9,171.5z"></path> </g> </svg> 