<?xml version="1.0" encoding="UTF-8"?> <!-- Generator: Adobe Illustrator 24.3.0, SVG Export Plug-In . SVG Version: 6.00 Build 0) --> <svg xmlns="http://www.w3.org/2000/svg" xmlns:xlink="http://www.w3.org/1999/xlink" id="Layer_1" x="0px" y="0px" viewBox="0 0 332 332" style="enable-background:new 0 0 332 332;" xml:space="preserve"> <style type="text/css"> .st0{fill:#80E1D9;} </style> <g> <path class="st0" d="M166,331.2c-91.3,0-165.6-74.3-165.6-165.6C0.4,74.3,74.7,0,166,0c91.3,0,165.6,74.3,165.6,165.6 C331.6,256.9,257.3,331.2,166,331.2z M166,4C76.9,4,4.4,76.5,4.4,165.6S76.9,327.2,166,327.2s161.6-72.5,161.6-161.6S255.1,4,166,4 z"></path> </g> <g> <path class="st0" d="M166.5,207h-1c-22.8,0-41.4-18.6-41.4-41.4c0-22.8,18.6-41.4,41.4-41.4h1c22.8,0,41.4,18.6,41.4,41.4 C207.9,188.5,189.3,207,166.5,207z M165.5,128.2c-20.6,0-37.4,16.8-37.4,37.4s16.8,37.4,37.4,37.4h1c20.6,0,37.4-16.8,37.4-37.4 s-16.8-37.4-37.4-37.4H165.5z"></path> </g> <g> <path class="st0" d="M166.5,246.9h-1c-44.8,0-81.3-36.5-81.3-81.3s36.5-81.3,81.3-81.3h1c44.8,0,81.3,36.5,81.3,81.3 S211.3,246.9,166.5,246.9z M165.5,88.3c-42.6,0-77.3,34.7-77.3,77.3c0,42.6,34.7,77.3,77.3,77.3h1c42.6,0,77.3-34.7,77.3-77.3 c0-42.6-34.7-77.3-77.3-77.3H165.5z"></path> </g> <g> <path class="st0" d="M166.5,288.8h-1c-67.9,0-123.2-55.3-123.2-123.2c0-67.9,55.3-123.2,123.2-123.2h1 c67.9,0,123.2,55.3,123.2,123.2C289.7,233.6,234.4,288.8,166.5,288.8z M165.5,46.4c-65.7,0-119.2,53.5-119.2,119.2 s53.5,119.2,119.2,119.2h1c65.7,0,119.2-53.5,119.2-119.2S232.2,46.4,166.5,46.4H165.5z"></path> </g> </svg> 