<?xml version="1.0" encoding="UTF-8"?> <!-- Generator: Adobe Illustrator 24.3.0, SVG Export Plug-In . SVG Version: 6.00 Build 0) --> <svg xmlns="http://www.w3.org/2000/svg" xmlns:xlink="http://www.w3.org/1999/xlink" id="Layer_1" x="0px" y="0px" viewBox="0 0 332 332" style="enable-background:new 0 0 332 332;" xml:space="preserve"> <style type="text/css"> .st0{fill:#FF7557;} </style> <g> <path class="st0" d="M297.7,332H34.3c-18.7,0-33.9-15.2-33.9-33.9V34.7C0.4,16,15.6,0.8,34.3,0.8h263.4c18.7,0,33.9,15.2,33.9,33.9 v263.4C331.6,316.8,316.4,332,297.7,332z M34.3,4.8C17.8,4.8,4.4,18.2,4.4,34.7v263.4c0,16.5,13.4,29.9,29.9,29.9h263.4 c16.5,0,29.9-13.4,29.9-29.9V34.7c0-16.5-13.4-29.9-29.9-29.9H34.3z"></path> </g> <g> <path class="st0" d="M193.9,207.8h-55.9c-7.7,0-14-6.3-14-14v-54.9c0-7.7,6.3-14,14-14h55.9c7.7,0,14,6.3,14,14v54.9 C207.9,201.5,201.6,207.8,193.9,207.8z M138.1,129c-5.5,0-10,4.5-10,10v54.9c0,5.5,4.5,10,10,10h55.9c5.5,0,10-4.5,10-10v-54.9 c0-5.5-4.5-10-10-10H138.1z"></path> </g> <g> <path class="st0" d="M229.8,247.7H102.2c-9.9,0-18-8.1-18-18V103c0-9.9,8.1-18,18-18h127.7c9.9,0,18,8.1,18,18v126.7 C247.8,239.6,239.7,247.7,229.8,247.7z M102.2,89.1c-7.7,0-14,6.3-14,14v126.7c0,7.7,6.3,14,14,14h127.7c7.7,0,14-6.3,14-14V103 c0-7.7-6.3-14-14-14H102.2z"></path> </g> <g> <path class="st0" d="M263.8,289.6H68.2c-14.3,0-25.9-11.6-25.9-25.9V69.1c0-14.3,11.6-25.9,25.9-25.9h195.5 c14.3,0,25.9,11.6,25.9,25.9v194.5C289.7,277.9,278.1,289.6,263.8,289.6z M68.2,47.2c-12.1,0-21.9,9.8-21.9,21.9v194.5 c0,12.1,9.8,21.9,21.9,21.9h195.5c12.1,0,21.9-9.8,21.9-21.9V69.1c0-12.1-9.8-21.9-21.9-21.9H68.2z"></path> </g> </svg> 