<svg fill="#000000" xmlns="http://www.w3.org/2000/svg"  viewBox="0 0 50 50" width="50px" height="50px"><path d="M 5 2 A 1.0001 1.0001 0 0 0 4 3 L 4 16 A 1.0001 1.0001 0 0 0 4.5214844 16.876953 L 15.521484 22.876953 A 1.0001 1.0001 0 0 0 17 22 L 17 9 A 1.0001 1.0001 0 0 0 16.478516 8.1230469 L 5.4785156 2.1230469 A 1.0001 1.0001 0 0 0 5 2 z M 20 10 A 1.0001 1.0001 0 0 0 19 11 L 19 24 A 1.0001 1.0001 0 0 0 19.521484 24.876953 L 30.521484 30.876953 A 1.0001 1.0001 0 0 0 32 30 L 32 17 A 1.0001 1.0001 0 0 0 31.478516 16.123047 L 20.478516 10.123047 A 1.0001 1.0001 0 0 0 20 10 z M 45.970703 10 A 1.0001 1.0001 0 0 0 45.521484 10.123047 L 34.521484 16.123047 A 1.0001 1.0001 0 0 0 34 17 L 34 30 A 1.0001 1.0001 0 0 0 35.478516 30.876953 L 46.478516 24.876953 A 1.0001 1.0001 0 0 0 47 24 L 47 11 A 1.0001 1.0001 0 0 0 45.970703 10 z M 20 27 A 1.0001 1.0001 0 0 0 19 28 L 19 41 A 1.0001 1.0001 0 0 0 19.521484 41.876953 L 30.521484 47.876953 A 1.0001 1.0001 0 0 0 32 47 L 32 34 A 1.0001 1.0001 0 0 0 31.478516 33.123047 L 20.478516 27.123047 A 1.0001 1.0001 0 0 0 20 27 z"/></svg>