<?xml version="1.0" standalone="no"?>
<svg xmlns:xlink="http://www.w3.org/1999/xlink" id="wave" style="transform:rotate(0deg); transition: 0.3s" viewBox="0 0 1440 490" version="1.1" xmlns="http://www.w3.org/2000/svg"><defs><linearGradient id="sw-gradient-0" x1="0" x2="0" y1="1" y2="0"><stop stop-color="rgba(0, 18, 46, 1)" offset="0%"/><stop stop-color="rgba(124, 218, 211, 1)" offset="100%"/></linearGradient></defs><path style="transform:translate(0, 0px); opacity:1" fill="url(#sw-gradient-0)" d="M0,98L60,138.8C120,180,240,261,360,253.2C480,245,600,147,720,155.2C840,163,960,278,1080,277.7C1200,278,1320,163,1440,122.5C1560,82,1680,114,1800,163.3C1920,212,2040,278,2160,318.5C2280,359,2400,376,2520,367.5C2640,359,2760,327,2880,326.7C3000,327,3120,359,3240,318.5C3360,278,3480,163,3600,147C3720,131,3840,212,3960,253.2C4080,294,4200,294,4320,245C4440,196,4560,98,4680,49C4800,0,4920,0,5040,32.7C5160,65,5280,131,5400,171.5C5520,212,5640,229,5760,220.5C5880,212,6000,180,6120,147C6240,114,6360,82,6480,57.2C6600,33,6720,16,6840,81.7C6960,147,7080,294,7200,359.3C7320,425,7440,408,7560,408.3C7680,408,7800,425,7920,408.3C8040,392,8160,343,8280,318.5C8400,294,8520,294,8580,294L8640,294L8640,490L8580,490C8520,490,8400,490,8280,490C8160,490,8040,490,7920,490C7800,490,7680,490,7560,490C7440,490,7320,490,7200,490C7080,490,6960,490,6840,490C6720,490,6600,490,6480,490C6360,490,6240,490,6120,490C6000,490,5880,490,5760,490C5640,490,5520,490,5400,490C5280,490,5160,490,5040,490C4920,490,4800,490,4680,490C4560,490,4440,490,4320,490C4200,490,4080,490,3960,490C3840,490,3720,490,3600,490C3480,490,3360,490,3240,490C3120,490,3000,490,2880,490C2760,490,2640,490,2520,490C2400,490,2280,490,2160,490C2040,490,1920,490,1800,490C1680,490,1560,490,1440,490C1320,490,1200,490,1080,490C960,490,840,490,720,490C600,490,480,490,360,490C240,490,120,490,60,490L0,490Z"/></svg>