<svg width="200" height="200" viewBox="0 0 200 200" fill="none" xmlns="http://www.w3.org/2000/svg">
<g clip-path="url(#clip0_3_17696)">
<rect width="198.663" height="198.663" transform="translate(0.446289 0.960938)" fill="#FFF628"/>
<path d="M148.257 220.642H35.5173C34.5564 220.642 33.7023 219.788 33.7023 218.828L32.3145 132.671C34.5564 130.536 37.2255 128.828 40.108 127.44C47.3678 124.13 56.9763 122.849 69.5741 121.888C72.0296 121.675 74.6986 121.568 77.3676 121.355C81.6381 121.034 86.2288 120.821 91.1398 120.394C97.8658 119.967 103.738 119.646 108.969 119.646C110.357 119.646 111.745 119.646 113.026 119.646C143.239 120.501 147.51 132.778 147.83 178.685C147.937 192.031 148.043 206.443 148.257 220.642Z" fill="#788BF1"/>
<path d="M77.3672 121.355C89.5379 131.817 108.648 131.283 113.025 119.753C111.744 119.753 110.356 119.646 108.968 119.646C103.737 119.646 97.8653 119.967 91.1394 120.394C86.2283 120.714 81.7444 121.034 77.3672 121.355Z" fill="#FF6B57"/>
<path d="M166.834 220.643H133.738C133.097 209.22 132.457 197.796 131.923 186.373C131.176 173.455 130.535 160.537 129.788 147.725C129.574 147.725 129.361 147.832 129.147 147.832C124.236 148.9 119.112 147.939 115.268 145.376C112.279 143.348 109.93 140.252 108.756 136.302C106.514 128.081 111.531 117.832 120.286 115.91L140.784 111.533C151.674 109.184 161.175 116.337 161.709 127.547C162.67 144.736 163.524 161.924 164.485 179.113C165.339 192.885 166.086 206.764 166.834 220.643Z" fill="#788BF1"/>
<path d="M134.269 200.252C133.949 207.085 133.629 213.811 133.202 220.643H132.027C132.348 213.811 132.668 207.085 133.095 200.252C133.095 199.505 134.376 199.505 134.269 200.252Z" fill="#2D264F"/>
<path d="M106.513 210.928C102.136 202.387 97.7589 193.739 93.3817 185.198C93.0615 184.451 91.9938 185.092 92.3141 185.839C96.6913 194.38 101.069 203.027 105.446 211.568C105.766 212.209 106.834 211.675 106.513 210.928Z" fill="#FFC741"/>
<path d="M109.502 121.889C112.065 114.096 114.627 106.302 117.189 98.5085C122.207 83.2416 99.0399 73.4196 93.9154 88.7932L83.2393 121.462C90.2855 126.053 100.748 124.772 109.502 121.889Z" fill="#FF6B57"/>
<path d="M108.756 125.092C111.745 116.017 114.735 106.835 117.724 97.7608C121.781 85.2697 107.154 76.4085 98.8271 81.9601C95.731 96.4796 96.6919 116.657 108.756 125.092Z" fill="#2D264F"/>
<path d="M181.888 216.158C176.549 205.696 170.464 192.564 164.485 179.005C156.692 161.283 130.535 104.806 138.543 99.5751C143.347 96.479 139.397 86.3367 135.019 80.0378C134.059 77.0485 132.777 75.9809 130.962 75.5538C130.215 75.1268 129.681 74.8065 129.148 74.9133C128.827 75.02 128.614 75.1268 128.4 75.3403C128.4 75.3403 128.4 75.3403 128.293 75.3403V75.4471C128.187 75.5538 128.187 75.7674 128.08 75.9809C126.906 79.7175 121.354 98.5075 128.827 100.536C123.489 101.817 115.162 101.817 108.116 105.233C97.226 110.571 125.624 172.173 131.71 186.265C136.834 198.222 142.066 209.966 147.19 220.535H183.382C183.169 219.148 182.635 217.546 181.888 216.158Z" fill="#FF6B57"/>
<path d="M133.846 83.1334C133.526 82.386 132.351 82.7063 132.672 83.4536C134.166 87.297 133.953 91.2472 132.031 94.8771C131.711 95.6244 132.778 96.1582 133.099 95.5176C135.127 91.5675 135.447 87.1903 133.846 83.1334Z" fill="#FFC741"/>
<path d="M98.4023 52.28C99.3632 51.3191 100.324 50.465 101.285 49.6109C107.584 43.7391 112.922 39.4686 112.922 39.4686C120.822 30.2872 137.904 38.8281 123.064 52.28C123.064 52.28 117.086 58.0451 109.826 66.9062C106.303 61.7817 102.353 56.9775 98.4023 52.28Z" fill="#2D264F"/>
<path d="M130.856 98.1872C128.827 106.408 116.763 106.301 103.738 101.817C99.5748 100.429 95.5179 98.2939 91.7812 95.4114C90.8204 94.6641 89.8595 93.81 88.8987 92.9559C84.5215 88.6854 82.066 82.7068 80.5713 75.5538C74.3792 45.8742 76.8347 37.4401 103.952 37.1198C112.92 37.0131 117.724 38.401 121.141 44.5931C123.81 49.3974 125.624 57.0842 127.973 69.3617C129.575 77.3688 133.205 89.1125 130.856 98.1872Z" fill="#FF6B57"/>
<path d="M121.247 44.4865C114.948 45.9812 103.525 47.0488 99.1477 48.8637C91.5677 51.9598 95.4111 86.1234 91.7812 95.4116C90.8204 94.6643 89.8595 93.8102 88.8987 92.9561C84.5215 88.6856 82.066 82.707 80.5713 75.554C74.3792 45.8744 76.8347 37.4403 103.952 37.12C113.027 36.9065 133.632 33.5969 121.247 44.4865Z" fill="#2D264F"/>
<path d="M97.3351 58.4716C82.0683 55.9093 74.2747 77.048 100.218 80.8914L97.3351 58.4716Z" fill="#FF6B57"/>
<path d="M87.7249 64.4505C91.675 63.9167 95.0914 66.906 95.0914 70.8562C95.0914 71.6035 94.0238 71.7102 94.0238 70.9629C94.0238 70.0021 93.8103 69.0412 93.3832 68.2939C91.8886 69.2547 91.6751 71.4967 93.49 72.5643C94.1306 72.8846 93.7035 73.9522 93.0629 73.6319C90.6074 72.244 90.5007 68.9344 92.7426 67.4398C91.5683 66.0519 89.8601 65.3046 87.8317 65.6249C87.1911 65.7316 86.9776 64.5573 87.7249 64.4505Z" fill="#788BF1"/>
<path d="M107.047 56.7639C108.222 56.5504 109.503 56.2301 110.677 56.0166C112.065 55.6963 112.385 57.9383 110.997 58.2586C109.823 58.4721 108.542 58.7924 107.368 59.0059C105.873 59.2194 105.659 57.0842 107.047 56.7639Z" fill="#2D264F"/>
<path d="M109.291 66.3728C109.612 64.9849 110.039 63.5971 110.359 62.2092C110.573 61.4618 111.747 61.6754 111.533 62.4227C111.213 63.8106 110.786 65.1985 110.466 66.5864C110.252 67.3337 109.078 67.1202 109.291 66.3728Z" fill="#2D264F"/>
<path d="M122.422 64.2371C122.742 62.8492 123.169 61.4613 123.49 60.0734C123.703 59.3261 124.877 59.5396 124.664 60.2869C124.344 61.6748 123.917 63.0627 123.596 64.4506C123.49 65.198 122.315 65.0912 122.422 64.2371Z" fill="#2D264F"/>
<path d="M120.179 92.8488C117.404 93.2759 114.628 91.6745 113.56 89.0054C113.24 88.2581 112.066 88.5784 112.386 89.3257C113.774 92.6353 117.083 94.4502 120.5 94.0232C121.354 93.9164 121.034 92.7421 120.179 92.8488Z" fill="#2D264F"/>
<path d="M127.228 80.6787C125.413 76.9421 123.812 73.0987 122.531 69.1485C121.89 67.4404 117.406 55.9102 121.57 55.5899C122.317 55.5899 122.317 54.3087 121.57 54.4155C116.552 54.7358 118.688 60.8212 119.542 63.7037C121.143 69.4688 123.278 75.0204 125.84 80.4652C122.638 80.7855 119.435 81.2125 116.232 81.9599C115.485 82.1734 115.805 83.3478 116.552 83.1342C119.969 82.3869 123.278 81.8531 126.801 81.6396C127.228 81.5328 127.442 81.1058 127.228 80.6787Z" fill="#788BF1"/>
<path d="M100.641 45.0204C100.641 44.9137 100.641 44.8069 100.641 44.7001C100.641 43.9528 99.4664 43.9528 99.4664 44.7001C99.4664 44.8069 99.4664 44.9137 99.4664 45.0204C97.438 46.3015 95.7298 47.903 94.3419 49.8247C94.2351 49.9314 94.2351 49.9314 94.1284 50.0382C93.9148 50.3585 93.7013 50.572 93.4878 50.8923C93.1675 51.3193 93.5946 51.7464 94.0216 51.7464C93.9148 55.3762 94.3419 63.063 98.2921 61.4616C100.214 60.7143 100.214 58.2588 100.321 56.5506C100.427 52.9207 100.534 49.2909 100.641 45.661C100.748 45.3407 100.748 45.1272 100.641 45.0204Z" fill="#2D264F"/>
<path d="M119.219 54.5217C120.393 54.3082 121.674 53.9879 122.849 53.7744C124.237 53.4541 124.557 55.6961 123.169 56.0164C121.995 56.2299 120.713 56.5502 119.539 56.7637C118.151 56.9772 117.831 54.7352 119.219 54.5217Z" fill="#2D264F"/>
<path d="M131.497 92.9559C130.963 88.899 130.536 84.842 130.003 80.7851C129.896 80.0378 128.721 80.0378 128.828 80.7851C129.469 86.5502 130.643 92.5288 130.857 98.2939C131.177 105.981 121.248 102.351 116.764 103.525C116.017 103.739 116.337 104.913 117.085 104.7C121.355 103.525 129.042 106.728 131.604 101.39C132.778 99.0413 131.818 95.6249 131.497 92.9559Z" fill="#788BF1"/>
<path d="M76.2993 131.497C76.0858 161.176 75.8723 190.963 75.552 220.642H42.4561C42.6696 190.963 42.8831 161.176 43.2034 131.497C43.3101 110.144 76.4061 110.144 76.2993 131.497Z" fill="#FF6B57"/>
<path d="M43.0966 131.497C43.6304 110.998 41.1749 81.212 46.0859 80.358C50.9969 79.5039 46.5129 96.6924 49.7158 98.4006C53.0254 100.002 48.5414 75.1267 52.5983 75.1267C56.6553 75.1267 53.4524 97.6533 55.9079 98.0803C58.3634 98.5073 55.9079 74.3793 59.2175 74.8064C62.5271 75.2334 60.8189 98.0803 63.2744 97.76C65.7299 97.4397 61.673 75.2334 66.157 75.2334C70.6409 75.2334 68.1854 108.756 71.495 109.61C74.8046 110.465 73.9505 98.6141 77.2601 96.1586C80.5697 93.7031 82.1711 106.408 80.1427 115.803C78.1142 125.198 76.1925 121.568 76.2993 131.71C76.406 141.746 43.0966 131.497 43.0966 131.497Z" fill="#FF6B57"/>
<path d="M71.1727 113.028C66.0482 116.551 62.9521 121.996 62.6318 128.294C62.6318 129.042 63.8062 129.042 63.8062 128.294C64.1265 122.529 67.009 117.405 71.7065 114.095C72.4539 113.668 71.8133 112.601 71.1727 113.028Z" fill="#FFC741"/>
</g>
<defs>
<clipPath id="clip0_3_17696">
<rect width="198.663" height="198.663" fill="white" transform="translate(0.446289 0.960938)"/>
</clipPath>
</defs>
</svg>
