<svg width="199" height="200" viewBox="0 0 199 200" fill="none" xmlns="http://www.w3.org/2000/svg">
<g clip-path="url(#clip0_3_17726)">
<path d="M0.0957031 0.94043H198.759V199.604H0.0957031V0.94043Z" fill="#FBFCFF"/>
<g clip-path="url(#clip1_3_17726)">
<path d="M426.22 -57.0029H-223.4V430.213H426.22V-57.0029Z" fill="#FBFCFF"/>
<path d="M104.288 98.3209C104.786 98.3209 105.371 98.256 106.02 98.1044C109.507 97.2815 113.556 92.9291 114.574 89.5727C115.916 85.112 111.715 82.7733 107.818 84.4624C103.573 86.3029 97.9867 98.256 104.288 98.3209Z" fill="#EBF2FF"/>
<path d="M87.7029 109.645C89.7168 111.313 93.6361 111.919 94.4157 109.169C95.3252 105.943 88.9589 104.037 87.0966 106.202C86.0356 107.415 86.5553 108.714 87.7029 109.645Z" fill="#EBF2FF"/>
<path d="M71.2232 89.4647C71.7429 92.4529 75.0126 95.3762 78.1525 94.2935C88.9795 90.6123 66.8924 74.7183 71.3315 88.2087C71.2015 88.5985 71.1582 89.0316 71.2232 89.4647Z" fill="#EBF2FF"/>
<path d="M134.715 175.82C144.307 174.932 154.42 171.619 158.079 161.745C158.664 160.164 159.898 156.721 158.794 155.184C157.235 153.04 154.961 155.378 153.424 156.331C144.524 161.788 134.888 167.548 124.581 168.869C110.96 170.623 96.6468 166.509 83.3946 163.152C79.0638 162.048 74.7546 160.77 70.5104 159.341C66.7859 158.085 63.1264 156.656 59.7917 154.577C56.0022 152.217 53.1222 148.947 50.6753 145.244C48.7698 142.343 47.2107 135.565 45.1103 132.707C44.2008 131.472 38.3975 130.758 36.8817 133.551C36.1238 134.937 37.7696 139.593 38.1377 141.087C41.5157 154.079 51.0435 165.491 63.4079 171.056C69.3844 173.741 75.9239 174.499 82.0737 176.643C88.6565 178.938 95.0444 182.511 102.19 182.576C107.712 182.619 112.887 180.497 118.019 178.765C123.606 176.859 128.933 176.34 134.715 175.82Z" fill="#EBF2FF"/>
<path d="M-4.132 161.441C-4.86824 159.059 -8.63603 160.077 -7.89979 162.481C-7.18521 164.776 -6.60055 167.093 -6.10251 169.453L-6.44897 205.118C-6.99032 207.456 -7.63994 209.795 -8.39783 212.09C-9.17738 214.472 -5.43124 215.511 -4.63004 213.13C-0.364197 200.18 0.653555 186.279 -1.49019 172.831C-2.09651 168.955 -2.98434 165.144 -4.132 161.441Z" fill="#EBF2FF"/>
<path d="M-1.14372 162.936C1.71461 175.171 2.16935 187.968 0.133872 200.376C-0.03936 201.415 0.393704 202.477 1.49806 202.78C2.42918 203.04 3.72842 202.455 3.90165 201.415C6.0454 188.293 5.63399 174.868 2.62408 161.897C2.03943 159.45 -1.70672 160.489 -1.14372 162.936Z" fill="#EBF2FF"/>
<path d="M233.456 281.644C233.261 280.388 233.023 279.154 232.785 278.049C231.269 270.86 228.735 263.844 226.765 256.785C226.354 255.334 224.513 255.074 223.539 255.854C223.603 255.399 223.668 254.923 223.733 254.468C225.076 245.308 226.418 236.17 227.739 227.011C229.039 218.133 230.663 197.453 231.529 190.74C210.546 193.837 186.575 196.175 165.441 197.626C159.464 198.038 153.488 198.384 147.511 198.666C145.562 198.752 145.129 201.177 146.234 202.152C143.982 220.536 141.751 238.92 139.499 257.305C138.373 266.594 137.226 275.884 136.1 285.173C135.818 287.469 135.537 289.742 135.255 292.038C135.017 294.073 134.627 296.542 136.359 297.798C140.149 300.504 148.031 308.646 154.592 307.78C153.423 307.932 153.098 310.552 153.358 311.375C154.029 313.389 155.826 313.302 157.537 313.085C162.344 312.457 167.238 310.855 171.959 309.707C181.573 307.39 191.144 304.965 200.672 302.41C208.078 300.418 215.462 298.361 222.846 296.217C225.877 295.329 229.883 294.809 231.897 292.103C234.041 289.266 233.997 285.26 233.456 281.644Z" fill="#EBF2FF"/>
<path d="M150.78 85.9138C147.9 82.1027 143.807 79.3093 140.321 76.0396C132.439 68.6772 133.5 56.6375 127.913 47.911C124.73 42.9306 120.161 38.9029 114.574 36.8674C109.529 35.0268 103.899 34.9835 98.9183 36.9324C99.3731 36.7592 97.6841 35.1784 97.5108 35.0701C96.6447 34.5721 95.6269 34.5721 94.6742 34.6587C88.4811 35.2217 81.6168 39.3576 77.0045 43.342C72.154 47.5212 68.3862 52.9347 66.1775 58.9329C64.7266 62.8523 64.2503 66.5984 64.2503 70.7343C64.2503 74.2856 64.4451 78.638 61.76 81.3881C59.2482 83.9433 55.5453 84.9177 53.0768 87.4945C49.5905 91.1324 50.6515 96.3294 52.0807 100.639C53.0984 103.713 54.5276 107.524 52.4055 110.448C51.4311 111.79 53.0551 113.912 54.6142 113.306C57.5808 112.158 61.0671 115.168 62.6479 117.94C65.4629 122.921 70.4433 121.405 76.5497 123.245C78.91 123.96 78.1954 119.651 77.6974 117.68C76.3765 112.375 73.6914 107.33 72.0241 102.046C70.1618 96.0912 70.335 89.9414 70.8547 83.77C71.1362 80.4786 71.4394 77.1872 71.7642 73.8958C72.089 70.5827 72.0024 66.4901 74.2977 63.8267C76.4198 61.3581 79.9277 60.6868 82.6128 59.0628C87.6582 55.9879 92.2922 52.0036 95.3454 47.0665C94.6092 48.2574 96.4498 51.9819 97.0344 53.0646C98.0955 55.0568 99.5896 56.8108 101.279 58.3049C104.31 60.99 108.1 62.7007 111.781 63.5668C114.163 66.8149 113.708 74.2639 114.336 78.5947C116.566 94.2722 113.816 110.794 106.476 124.934C111.802 125.93 120.551 128.637 124.08 127.121C128.368 125.281 131.334 120.69 136.423 120.798C138.892 120.863 141.598 121.946 143.937 120.712C146.297 119.456 147.9 117.031 150.238 115.623C154.764 112.873 155.457 106.615 155.327 101.829C155.175 96.4376 154.136 90.3529 150.78 85.9138Z" fill="#FFF8DC"/>
<path d="M74.2769 63.5879C72.3497 71.8164 71.2887 80.2182 71.0721 88.6632C70.8989 95.6142 71.3753 102.782 74.3852 109.04C75.4895 111.357 76.962 113.522 78.8676 115.233C82.3322 118.373 87.1178 119.845 91.795 119.672C96.4723 119.499 100.998 117.766 104.874 115.168" stroke="#003188" stroke-width="1.73232" stroke-miterlimit="10" stroke-linecap="round" stroke-linejoin="round"/>
<path d="M77.5674 68.2864C79.408 67.8317 81.2702 67.377 83.1758 67.5069C85.0813 67.6368 87.0085 68.3514 88.1345 69.8672C89.2172 71.318 89.4338 73.2669 89.109 75.0425C88.7841 76.8181 87.983 78.4638 87.1818 80.0879C86.2723 81.9501 85.3628 83.7907 84.4533 85.653C84.1718 86.216 83.8903 86.8223 83.9986 87.4286C84.2585 89.0527 86.6837 89.2475 87.5282 90.6767" stroke="#003188" stroke-width="1.73232" stroke-miterlimit="10" stroke-linecap="round" stroke-linejoin="round"/>
<path d="M100.976 77.9014C100.651 78.7242 100.218 80.2183 100.175 81.1062C100.175 81.2794 100.391 81.3444 100.478 81.1928C101.041 80.3699 101.301 78.8975 101.171 77.9014" stroke="#003188" stroke-width="1.73232" stroke-miterlimit="10" stroke-linecap="round" stroke-linejoin="round"/>
<path d="M81.0541 75.0859C80.7293 75.9088 80.2962 77.4029 80.2529 78.2907C80.2529 78.464 80.4694 78.5289 80.5561 78.3774C81.1191 77.5545 81.3789 76.082 81.249 75.0859" stroke="#003188" stroke-width="1.73232" stroke-miterlimit="10" stroke-linecap="round" stroke-linejoin="round"/>
<path d="M96.6436 71.0586C98.809 70.5173 101.039 70.1491 103.248 70.3873C105.457 70.6255 107.665 71.5134 109.181 73.1591" stroke="#003188" stroke-width="1.73232" stroke-miterlimit="10" stroke-linecap="round" stroke-linejoin="round"/>
<path d="M83.7412 97.3467C87.6173 96.827 96.6687 95.6144 97.2966 95.7659C96.1923 101.504 88.6134 105.835 84.6074 99.707" stroke="#003188" stroke-width="1.73232" stroke-miterlimit="10" stroke-linecap="round" stroke-linejoin="round"/>
<path d="M79.1055 115.644C79.8417 123.417 79.9716 131.234 79.5385 139.03" stroke="#003188" stroke-width="1.73232" stroke-miterlimit="10" stroke-linecap="round" stroke-linejoin="round"/>
<path d="M117.629 128.204C117.932 133.206 118.647 138.187 119.816 143.059" stroke="#003188" stroke-width="1.73232" stroke-miterlimit="10" stroke-linecap="round" stroke-linejoin="round"/>
<path d="M80.5362 126.299C80.9476 126.429 81.3591 126.515 81.7705 126.58C85.6249 127.143 89.6526 126.754 93.2904 125.368C96.95 123.982 100.22 121.578 102.537 118.438C103.056 117.745 103.511 117.031 103.793 116.208C102.234 117.377 100.35 117.962 98.4874 118.525C96.95 118.98 95.4125 119.434 93.8534 119.716C89.0462 120.539 83.9575 119.608 79.7783 117.139C80.0815 120.192 80.3197 123.246 80.4496 126.32" fill="#003188"/>
<path d="M80.5362 126.299C80.9476 126.429 81.3591 126.515 81.7705 126.58C85.6249 127.143 89.6526 126.754 93.2904 125.368C96.95 123.982 100.22 121.578 102.537 118.438C103.056 117.745 103.511 117.031 103.793 116.208C102.234 117.377 100.35 117.962 98.4874 118.525C96.95 118.98 95.4125 119.434 93.8534 119.716C89.0462 120.539 83.9575 119.608 79.7783 117.139C80.0815 120.192 80.3197 123.246 80.4496 126.32" stroke="#003188" stroke-width="1.73232" stroke-miterlimit="10" stroke-linecap="round" stroke-linejoin="round"/>
<path d="M114.315 142.82C128.477 146.068 142.596 149.49 156.692 153.063C161.326 154.232 165.982 155.445 170.529 156.939C172.976 157.74 175.423 158.649 177.61 160.014C182.504 163.067 185.73 168.091 188.784 172.963" stroke="#003188" stroke-width="1.73232" stroke-miterlimit="10" stroke-linecap="round" stroke-linejoin="round"/>
<path d="M79.1056 139.051C63.2982 134.093 46.3647 129.134 30.449 133.724C14.8365 138.228 3.31655 151.026 -9.09121 161.507C-15.5874 166.985 -22.5167 171.944 -28.6231 177.877C-32.2827 181.428 -35.7473 185.564 -36.765 190.566C-37.0682 192.06 -36.5269 194.247 -35.0111 194.031C-34.2532 193.923 -33.7768 193.208 -33.4303 192.537C-31.1783 188.141 -31.4165 182.922 -31.9145 178.029C-34.5996 150.853 -42.9797 124.283 -43.1963 96.9775" stroke="#003188" stroke-width="1.73232" stroke-miterlimit="10" stroke-linecap="round" stroke-linejoin="round"/>
<path d="M-67.3631 97.7148C-69.0954 129.979 -70.8278 162.525 -65.6524 194.422C-63.5953 207.111 -58.9397 221.446 -46.965 226.058C-37.0908 229.869 -26.0256 225.452 -16.7793 220.298C-3.8302 213.066 8.20943 204.253 19.0148 194.075C22.6094 190.697 26.3122 186.496 25.9441 181.581C22.068 183.313 20.7471 188.077 20.0975 192.278C16.2864 217.375 21.0286 242.862 24.6448 267.98C28.2394 293.099 30.5997 319.344 22.3495 343.358" stroke="#003188" stroke-width="1.73232" stroke-miterlimit="10" stroke-linecap="round" stroke-linejoin="round"/>
<path d="M-2.6823 167.439C0.652416 185.434 -0.0621591 204.165 -4.71777 221.878" stroke="#003188" stroke-width="1.73232" stroke-miterlimit="10" stroke-linecap="round" stroke-linejoin="round"/>
<path d="M93.1143 134.181C93.2442 136.931 93.3741 139.681 93.504 142.409" stroke="#003188" stroke-width="1.73232" stroke-miterlimit="10" stroke-linecap="round" stroke-linejoin="round"/>
<path d="M45.2598 132.621C48.2047 139.832 51.756 147.021 57.4943 152.283C68.4512 162.33 84.6268 163.218 99.2 166.098C106.238 167.484 113.232 169.455 120.399 169.281C132.742 168.957 143.915 162.352 154.461 155.921" stroke="#003188" stroke-width="1.73232" stroke-miterlimit="10" stroke-linecap="round" stroke-linejoin="round"/>
<path d="M57.3857 159.624C65.7442 163.457 74.6873 166.055 83.8036 167.311C91.2959 168.329 99.4812 168.675 105.219 173.569" stroke="#003188" stroke-width="1.73232" stroke-miterlimit="10" stroke-linecap="round" stroke-linejoin="round"/>
<path d="M147.641 192.494L135.189 295.091" stroke="#003188" stroke-width="1.73232" stroke-miterlimit="10" stroke-linecap="round" stroke-linejoin="round"/>
<path d="M124.361 180.542L109.853 300.289" stroke="#003188" stroke-width="1.73232" stroke-miterlimit="10" stroke-linecap="round" stroke-linejoin="round"/>
<path d="M232.2 184.872L147.533 192.451" stroke="#003188" stroke-width="1.73232" stroke-miterlimit="10" stroke-linecap="round" stroke-linejoin="round"/>
<path d="M210.979 182.273L151.647 187.687" stroke="#003188" stroke-width="1.73232" stroke-miterlimit="10" stroke-linecap="round" stroke-linejoin="round"/>
<path d="M205.782 178.159L146.45 183.573" stroke="#003188" stroke-width="1.73232" stroke-miterlimit="10" stroke-linecap="round" stroke-linejoin="round"/>
<path d="M205.781 173.179L124.362 180.541" stroke="#003188" stroke-width="1.73232" stroke-miterlimit="10" stroke-linecap="round" stroke-linejoin="round"/>
<path d="M124.581 180.758L147.967 192.668" stroke="#003188" stroke-width="1.73232" stroke-miterlimit="10" stroke-linecap="round" stroke-linejoin="round"/>
<path d="M174.708 129.871C174.405 129.871 174.232 130.326 174.448 130.521C174.665 130.716 175.098 130.499 175.055 130.196" stroke="#003188" stroke-width="1.73232" stroke-miterlimit="10" stroke-linecap="round" stroke-linejoin="round"/>
<path d="M143.008 167.247C145.52 166.099 148.032 164.973 150.543 163.825" stroke="#003188" stroke-width="1.73232" stroke-miterlimit="10" stroke-linecap="round" stroke-linejoin="round"/>
<path d="M44.4375 143.903C44.9139 144.531 45.4119 145.159 45.8883 145.787" stroke="#003188" stroke-width="1.73232" stroke-miterlimit="10" stroke-linecap="round" stroke-linejoin="round"/>
<path d="M97.8594 36.6729C97.9028 43.5372 94.8928 50.3149 89.9774 55.1437C85.0836 59.9509 78.3925 62.8309 71.5498 63.4589" stroke="#FFC701" stroke-width="1.73232" stroke-miterlimit="10" stroke-linecap="round" stroke-linejoin="round"/>
<path d="M95.1719 47.8682C96.6227 55.8802 103.682 62.5712 111.759 63.5673" stroke="#FFC701" stroke-width="1.73232" stroke-miterlimit="10" stroke-linecap="round" stroke-linejoin="round"/>
<path d="M96.1911 35.6552C87.8759 35.5903 79.5824 38.9466 73.6925 44.8149C67.8026 50.6615 64.3597 58.9333 64.3597 67.2484C64.3597 70.843 64.9227 74.6758 63.1903 77.8156C61.3714 81.0854 57.6036 82.6445 54.5504 84.7882C50.5011 87.6465 47.2963 92.627 48.6172 97.4125C49.3318 99.9893 51.2373 102.09 52.0385 104.645C52.9696 107.525 52.3417 110.838 50.4578 113.198" stroke="#FFC701" stroke-width="1.73232" stroke-miterlimit="10" stroke-linecap="round" stroke-linejoin="round"/>
<path d="M54.0752 114.692C56.3705 113.198 59.7269 113.61 61.6108 115.602C62.6285 116.684 63.2132 118.114 64.0144 119.37C64.8156 120.625 65.9849 121.838 67.479 121.968C68.4751 122.055 69.4279 121.643 70.424 121.513C72.5244 121.232 74.7548 122.314 75.8375 124.133" stroke="#FFC701" stroke-width="1.73232" stroke-miterlimit="10" stroke-linecap="round" stroke-linejoin="round"/>
<path d="M62.7155 85.6104C59.554 87.0395 57.5402 90.6341 57.9299 94.0771C58.2331 96.6756 59.7489 98.9709 60.4635 101.504C61.1781 104.038 60.7017 107.329 58.2981 108.369" stroke="#FFC701" stroke-width="1.73232" stroke-miterlimit="10" stroke-linecap="round" stroke-linejoin="round"/>
<path d="M65.0744 97.4775C63.472 99.578 64.4248 102.588 65.4426 105.013C66.4603 107.46 67.4564 110.405 65.9406 112.57" stroke="#FFC701" stroke-width="1.73232" stroke-miterlimit="10" stroke-linecap="round" stroke-linejoin="round"/>
<path d="M90.4082 44.6201C89.8018 47.1536 88.4593 49.4923 86.727 51.4411C83.9769 54.5593 80.2524 56.7897 76.2031 57.7425" stroke="#FFC701" stroke-width="1.73232" stroke-miterlimit="10" stroke-linecap="round" stroke-linejoin="round"/>
<path d="M106.825 49.4268C118.431 73.3761 117.652 102.955 104.768 126.255" stroke="#FFC701" stroke-width="1.73232" stroke-miterlimit="10" stroke-linecap="round" stroke-linejoin="round"/>
<path d="M108.318 127.078C109.964 125.389 112.779 125.713 114.966 126.58C117.175 127.446 119.362 128.723 121.701 128.507C125.533 128.182 127.894 124.176 131.293 122.357C133.913 120.95 137.075 120.906 139.998 121.448C141.666 121.751 143.571 122.162 144.87 121.079C145.455 120.603 145.801 119.888 146.17 119.239C146.841 118.07 147.707 116.965 148.898 116.337C150.089 115.709 151.67 115.688 152.687 116.554" stroke="#FFC701" stroke-width="1.73232" stroke-miterlimit="10" stroke-linecap="round" stroke-linejoin="round"/>
<path d="M131.898 62.7871C131.812 68.0274 133.825 73.2893 137.377 77.1221C140.95 80.9981 145.995 83.51 148.832 87.9491C152.491 93.6874 151.387 101.656 147.229 107.07" stroke="#FFC701" stroke-width="1.73232" stroke-miterlimit="10" stroke-linecap="round" stroke-linejoin="round"/>
<path d="M142.205 91.8252C144.046 95.1599 144.219 99.2309 143.288 102.934C142.378 106.637 140.473 110.015 138.351 113.176" stroke="#FFC701" stroke-width="1.73232" stroke-miterlimit="10" stroke-linecap="round" stroke-linejoin="round"/>
<path d="M123.173 66.8809C122.329 70.6487 122.567 74.633 123.888 78.2709C124.776 80.7178 126.118 82.9915 127.006 85.4384C127.894 87.8853 128.283 90.6786 127.201 93.0606C125.533 96.7634 120.575 99.2103 121.181 103.238C121.571 105.858 124.299 107.547 125.035 110.081C125.837 112.917 123.974 115.754 122.199 118.093" stroke="#FFC701" stroke-width="1.73232" stroke-miterlimit="10" stroke-linecap="round" stroke-linejoin="round"/>
<path d="M-11.9707 59.7773C-6.81705 60.5136 -1.68506 61.5746 3.36033 62.8955" stroke="#FFC701" stroke-width="1.73232" stroke-miterlimit="10" stroke-linecap="round" stroke-linejoin="round"/>
<path d="M100.805 34.8313C111.264 31.345 123.347 35.2211 131.034 43.1248C138.721 51.0285 142.25 62.3536 142.121 73.3755" stroke="#FFC701" stroke-width="1.73232" stroke-miterlimit="10" stroke-linecap="round" stroke-linejoin="round"/>
<path d="M144.415 73.2471C147.36 77.5346 151.886 80.4579 155.026 84.6154C161.305 92.9089 160.721 105.187 155.112 113.957" stroke="#FFC701" stroke-width="1.73232" stroke-miterlimit="10" stroke-linecap="round" stroke-linejoin="round"/>
</g>
</g>
<path d="M0.0957031 0.94043V-0.383993H-1.22872V0.94043H0.0957031ZM198.759 0.94043H200.084V-0.383993H198.759V0.94043ZM198.759 199.604V200.928H200.084V199.604H198.759ZM0.0957031 199.604H-1.22872V200.928H0.0957031V199.604ZM0.0957031 2.26485H198.759V-0.383993H0.0957031V2.26485ZM197.435 0.94043V199.604H200.084V0.94043H197.435ZM198.759 198.279H0.0957031V200.928H198.759V198.279ZM1.42013 199.604V0.94043H-1.22872V199.604H1.42013Z" fill="#003188" fill-opacity="0.1"/>
<defs>
<clipPath id="clip0_3_17726">
<path d="M0.0957031 0.94043H198.759V199.604H0.0957031V0.94043Z" fill="white"/>
</clipPath>
<clipPath id="clip1_3_17726">
<rect width="649.621" height="487.215" fill="white" transform="translate(-223.4 -57.0029)"/>
</clipPath>
</defs>
</svg>
