<svg width="200" height="200" viewBox="0 0 200 200" fill="none" xmlns="http://www.w3.org/2000/svg">
<g clip-path="url(#clip0_3_17692)">
<rect width="198.663" height="198.663" transform="translate(0.446289 0.564453)" fill="#5096FF"/>
<path d="M39.3116 78.5255C20.9982 80.0001 13.1495 80.1904 10.8663 76.9083C8.63065 73.6261 35.6013 73.1504 47.2553 73.5786C58.9093 74.0067 39.3116 78.5255 39.3116 78.5255Z" fill="#CC332F"/>
<path d="M30.1302 142.028C35.2675 147.213 44.7334 148.307 51.488 150.353C60.3831 152.969 69.4684 155.157 78.6014 156.632C95.7256 159.391 113.278 159.295 130.497 157.202C146.956 155.205 163.224 151.352 178.968 145.929C178.255 136.511 177.256 125.951 175.924 114.297C169.598 59.2137 159.18 55.7413 83.7862 57.7867C33.2697 59.1662 26.2773 98.3617 27.1335 140.221C28.18 140.506 29.1789 141.077 30.1302 142.028Z" fill="#FE7EB2"/>
<path d="M30.1302 142.028C32.5562 144.454 35.8859 146.024 39.501 147.165C39.2632 145.738 39.168 144.311 39.3108 142.979C41.3086 126.141 36.5043 107.304 71.5138 101.548C91.5397 98.2662 146.337 106.828 164.508 72.4847C153.472 57.4058 131.782 56.4545 83.7862 57.7864C33.2697 59.1658 26.2773 98.3613 27.1335 140.221C28.18 140.506 29.1789 141.077 30.1302 142.028Z" fill="#DD689D"/>
<path d="M180.823 201.249L29.9866 202.438C29.9866 184.172 27.4179 159.627 27.085 138.46C32.6979 137.984 55.6729 155.679 101.956 155.679C144.481 155.679 173.878 139.363 178.444 138.65C181.822 178.749 180.68 204.626 180.823 201.249Z" fill="#2C8469"/>
<path d="M167.031 76.5756C156.851 57.5962 135.779 56.407 83.788 57.8341C61.5265 58.4524 47.7319 66.3486 39.3125 78.5734C81.7426 74.768 124.601 73.5313 167.031 76.5756Z" fill="#CC332F"/>
<path d="M86.9268 69.8199C88.4489 62.3043 113.612 57.833 116.894 68.6783C116.942 68.6783 99.6748 68.6783 86.9268 69.8199Z" fill="#DD689D"/>
<path d="M60.0022 110.015C60.3352 111.061 61.0962 111.918 62.0952 112.441C63.7124 113.345 65.9005 113.107 67.3276 111.87C68.7546 110.681 69.3254 108.54 68.707 106.78C68.0886 105.02 66.3286 103.736 64.4735 103.688C61.0962 103.593 59.0033 106.971 60.0022 110.015Z" fill="#03036D"/>
<path d="M137.681 110.015C138.014 111.061 138.775 111.918 139.774 112.441C141.391 113.345 143.579 113.107 145.006 111.87C146.433 110.681 147.004 108.54 146.386 106.78C145.767 105.02 144.007 103.736 142.152 103.688C138.775 103.593 136.682 106.971 137.681 110.015Z" fill="#03036D"/>
<path d="M51.8213 90.7026C52.8678 102.357 54.4375 98.9317 66.0439 99.455C82.3595 100.264 78.6968 89.4658 78.6968 89.4658L51.8213 90.7026Z" fill="#03036D"/>
<path d="M127.025 89.3701C128.881 98.836 132.829 100.025 143.626 99.4544C154.424 98.836 154.947 91.7485 154.947 89.3701H127.025Z" fill="#03036D"/>
<path d="M178.444 138.698C173.735 147.307 121.696 178.512 121.696 178.512C120.935 175.991 111.802 162.481 110.661 163.29C109.519 164.051 110.233 190.927 110.233 190.927C110.233 190.927 98.9117 191.688 97.77 190.927C96.6284 190.166 96.1528 162.719 96.1528 162.719C93.5366 165.145 83.4047 176.847 83.4047 176.847C80.3604 170.33 27.085 138.507 27.085 138.507C32.6979 138.032 55.6729 155.727 101.956 155.727C144.481 155.727 173.878 139.364 178.444 138.698Z" fill="#3CA184"/>
<path d="M106.495 182L100.541 182.685L100.72 184.244L106.674 183.559L106.495 182Z" fill="white"/>
<path d="M100.663 172.072L100.572 173.639L105.321 173.915L105.412 172.348L100.663 172.072Z" fill="white"/>
<path d="M81.0278 132.181C81.884 137.747 86.4505 142.408 91.9207 143.835C97.3434 145.31 103.384 143.74 107.808 140.268C112.232 136.795 115.086 131.515 116.133 125.998C116.894 122.097 116.751 117.768 114.42 114.534C111.471 110.396 105.715 109.111 100.721 110.11C91.3024 111.965 79.363 121.241 81.0278 132.181Z" fill="#CC332F"/>
<path d="M113.659 113.63C110.567 110.253 105.334 109.207 100.72 110.11C97.2955 110.776 93.5377 112.489 90.208 114.867C98.0091 114.534 105.858 114.106 113.659 113.63Z" fill="white"/>
<path d="M81.1221 132.562C82.1686 137.937 86.5923 142.408 91.8723 143.835C97.295 145.31 103.336 143.74 107.76 140.268C111.042 137.699 113.42 134.132 114.895 130.231C103.574 128.091 91.4442 127.853 81.1221 132.562Z" fill="#FE673C"/>
<path d="M73.5118 179.845V202.439H45.7325C45.019 188.549 43.7822 179.321 43.7822 179.321C43.7822 179.321 69.9918 181.414 73.5118 179.845Z" fill="#FFD939"/>
<path d="M81.9062 91.5514L79.1807 97.1553L80.5923 97.8419L83.3179 92.238L81.9062 91.5514Z" fill="#03036D"/>
<path d="M94.3941 80.8558C98.6752 84.899 104.954 86.7066 110.71 85.6601C108.189 85.0893 106.524 81.9974 107.475 79.5715C116.323 84.4709 127.406 85.1368 136.824 81.379C134.636 81.8547 132.4 80.4753 131.021 78.7153C129.642 76.9553 128.833 74.8148 127.644 72.8645C124.647 67.9175 119.367 64.7305 113.849 63.0656C108.569 61.4483 92.1585 57.5002 88.3055 63.1132C85.0709 67.7272 91.0644 77.7164 94.3941 80.8558Z" fill="white"/>
</g>
<defs>
<clipPath id="clip0_3_17692">
<rect width="198.663" height="198.663" fill="white" transform="translate(0.446289 0.564453)"/>
</clipPath>
</defs>
</svg>
