<svg width="199" height="200" viewBox="0 0 199 200" fill="none" xmlns="http://www.w3.org/2000/svg">
<g clip-path="url(#clip0_3_17310)">
<rect width="198.663" height="198.663" transform="translate(0.000976562 0.772461)" fill="#F86767"/>
<path d="M189.143 148.936C177.035 187.169 141.268 214.876 99.0264 214.876C59.5627 214.876 25.7491 190.694 11.5938 156.336C11.5938 156.336 11.5938 156.336 11.5938 156.33C12.9177 149.637 16.1636 143.312 20.9818 137.569C20.0002 133.685 19.486 129.542 19.486 125.133C19.486 88.8474 52.4539 66.0103 101.695 66.6076C142.622 67.1062 174.281 86.6872 171.535 123.752C171.441 125.05 171.451 126.338 171.368 127.616C179.61 133.758 185.763 141.002 189.143 148.936Z" fill="#D6E8ED" stroke="#871C20" stroke-width="0.957654" stroke-miterlimit="10" stroke-linecap="round" stroke-linejoin="round"/>
<path d="M114.463 154.439C114.202 154.44 112.727 154.497 111.651 154.54C110.492 154.585 109.289 154.631 108.61 154.651C107.278 154.689 105.94 154.709 104.633 154.709C103.772 154.709 102.919 154.701 102.072 154.684C101.675 154.683 101.274 154.673 100.883 154.662C100.568 154.656 100.247 154.646 99.9253 154.634C99.4004 154.619 98.8587 154.597 98.323 154.569C97.7155 154.544 97.0751 154.512 96.4413 154.475C95.8134 154.436 95.2232 154.4 94.6391 154.353C94.2033 154.325 93.7676 154.289 93.3373 154.252C92.8842 154.219 92.4317 154.175 91.984 154.132C90.6295 154.004 89.3654 153.866 88.1324 153.71C87.6584 153.652 87.1766 153.592 86.7001 153.522C86.1381 153.448 85.5761 153.364 85.0242 153.28C84.947 153.27 84.8716 153.257 84.798 153.245C84.2042 153.156 83.6248 153.059 83.0455 152.961C82.4397 152.858 81.84 152.75 81.2403 152.637C80.7303 152.546 80.1928 152.437 79.6554 152.329C79.2813 152.255 78.9042 152.174 78.5277 152.095L78.4403 152.076C78.11 152.009 77.755 151.93 77.3989 151.846C76.7453 151.702 76.1019 151.548 75.4644 151.393L74.4864 151.149C74.1291 151.06 73.761 150.962 73.3929 150.862C73.0721 150.778 72.7333 150.689 72.3993 150.595C71.9636 150.472 71.5267 150.348 71.0892 150.218C70.6067 150.082 70.089 149.922 69.5761 149.762L69.2834 149.67C68.959 149.568 68.637 149.467 68.3185 149.36C67.9756 149.252 67.6416 149.139 67.3034 149.022C67.249 149.004 67.0173 148.926 67.0173 148.926C66.6462 148.802 66.2805 148.673 65.9148 148.538C65.0888 148.247 64.2778 147.944 63.4369 147.613C63.003 147.446 62.5415 147.257 62.086 147.068C62.086 147.068 61.9017 146.995 61.831 146.964C61.4845 146.823 61.1427 146.678 60.8009 146.527C59.2292 145.849 57.6898 145.127 56.2557 144.394C56.0522 144.293 55.82 144.17 55.5937 144.048C55.4094 143.952 55.1807 143.832 54.9575 143.712C54.6331 143.542 54.2883 143.352 53.943 143.157C53.5276 142.926 53.0906 142.675 52.6591 142.424C52.3131 142.223 51.9624 142.019 51.6236 141.81L50.8449 141.325L50.6043 141.172C50.4595 141.081 50.3152 140.99 50.1734 140.896C49.4162 140.406 48.6585 139.891 47.9415 139.38C47.7122 139.22 47.483 139.056 47.2543 138.885L47.052 138.737C46.9054 138.629 46.76 138.522 46.6163 138.412C46.3972 138.249 46.153 138.063 45.9136 137.871C45.0942 137.233 44.3203 136.595 43.6135 135.974C43.3962 135.787 43.1622 135.576 42.9287 135.366C41.8939 134.427 40.923 133.467 40.0354 132.507C39.8888 132.349 39.7379 132.186 39.5877 132.019L39.4465 131.858C39.0861 131.456 38.7522 131.066 38.4577 130.703C38.1357 130.313 37.7993 129.887 37.4791 129.46C37.3683 129.32 37.2199 129.127 37.0673 128.905C36.9991 128.814 36.7578 128.479 36.7578 128.479C36.3927 127.963 36.0737 127.487 35.7828 127.022C35.7828 127.022 35.6266 126.773 35.5877 126.71L35.5111 126.631L35.2986 126.234C32.0288 120.74 30.8306 115.028 31.8325 109.709C36.3018 85.8891 57.0883 75.2651 99.2304 75.2651C99.996 75.2651 100.762 75.2681 101.542 75.2753C137.362 75.5848 164.619 91.0054 166.353 111.941C166.788 117.156 166.076 122.157 164.236 126.805C161.487 133.773 156.328 139.705 148.903 144.432C148.903 144.432 148.438 144.726 148.292 144.815C147.919 145.048 147.501 145.294 147.083 145.54C144.597 146.986 142.486 148.559 140.796 150.221C140.493 150.524 140.182 150.843 139.885 151.168L139.773 151.294C139.678 151.399 139.584 151.503 139.495 151.611C139.283 151.862 139.075 152.119 138.854 152.404L138.715 152.589C138.466 152.92 138.253 153.223 138.062 153.516C137.953 153.68 137.872 153.813 137.791 153.951C137.573 154.311 137.409 154.605 137.273 154.872C136.14 157.088 132.484 161.935 132.484 161.935C132.484 161.935 121.333 154.439 114.463 154.439Z" stroke="#F3F8FA" stroke-width="0.957654" stroke-miterlimit="10" stroke-linecap="round" stroke-linejoin="round"/>
<path d="M160.857 125.465C158.536 131.348 154.07 136.831 146.951 141.364C146.77 141.478 146.583 141.597 146.396 141.712C146.022 141.945 145.633 142.174 145.243 142.402C142.424 144.044 140.102 145.803 138.249 147.626C137.88 147.995 137.527 148.358 137.189 148.727C137.023 148.914 136.857 149.096 136.702 149.283C136.39 149.651 136.094 150.025 135.809 150.399C135.803 150.404 135.809 150.404 135.809 150.404C135.528 150.778 135.263 151.152 135.019 151.526C134.895 151.713 134.78 151.9 134.666 152.092C134.437 152.471 134.225 152.845 134.033 153.224C132.511 156.199 132.044 159.175 132.486 161.932L132.444 161.937C130.466 155.545 123.165 150.805 114.462 150.805C113.907 150.805 109.971 150.976 108.506 151.018C106.331 151.08 104.196 151.091 102.109 151.049C101.725 151.049 101.335 151.039 100.957 151.028C100.655 151.023 100.354 151.012 100.053 151.002C99.5338 150.987 99.0197 150.966 98.5103 150.94C97.8872 150.914 97.2696 150.883 96.6567 150.847C96.0647 150.81 95.4782 150.774 94.8964 150.727C94.4708 150.701 94.0447 150.665 93.6245 150.628C93.1935 150.597 92.7626 150.555 92.3364 150.514C91.0646 150.394 89.8178 150.259 88.5872 150.104C88.1198 150.047 87.6577 149.989 87.201 149.922C86.6456 149.849 86.0896 149.766 85.5443 149.683C85.4665 149.673 85.3934 149.657 85.321 149.646C84.7602 149.563 84.2048 149.47 83.6493 149.377C83.0675 149.278 82.4912 149.174 81.9148 149.065C81.3953 148.971 80.8811 148.867 80.3676 148.764C79.9731 148.686 79.5835 148.603 79.1938 148.519C78.8616 148.452 78.5343 148.379 78.2075 148.302C77.5688 148.162 76.9404 148.011 76.3173 147.86C76.0054 147.783 75.6888 147.705 75.3824 147.627C75.0292 147.538 74.6815 147.445 74.3337 147.352C74.0171 147.269 73.7005 147.185 73.3887 147.097C72.9631 146.978 72.5423 146.859 72.1216 146.734C71.6284 146.594 71.14 146.443 70.6569 146.293C70.2469 146.163 69.8417 146.039 69.4419 145.903C69.1097 145.8 68.7877 145.69 68.4603 145.576C68.3616 145.545 68.2628 145.508 68.1641 145.477C67.8211 145.363 67.4835 145.244 67.1465 145.119C66.3367 144.833 65.5473 144.537 64.7686 144.23C64.3376 144.064 63.9067 143.887 63.4811 143.711C63.3931 143.674 63.3099 143.643 63.2267 143.607C62.9047 143.477 62.5881 143.342 62.2715 143.201C60.7554 142.547 59.3016 141.867 57.91 141.156C57.7125 141.057 57.5155 140.953 57.3234 140.849C57.1056 140.735 56.8871 140.621 56.6746 140.506C56.358 140.34 56.0461 140.169 55.7349 139.992C55.3141 139.759 54.8987 139.52 54.4887 139.28C54.1667 139.094 53.8447 138.906 53.5335 138.714C53.2791 138.553 53.0247 138.398 52.7752 138.242C52.5729 138.112 52.3699 137.988 52.173 137.858C51.4356 137.38 50.7246 136.897 50.0339 136.404C49.8316 136.264 49.6287 136.118 49.4264 135.968C49.2241 135.817 49.0211 135.671 48.8242 135.521C48.601 135.355 48.3831 135.189 48.17 135.018C47.4225 134.436 46.7006 133.844 46.0153 133.242C45.7921 133.05 45.579 132.858 45.3665 132.665C44.416 131.804 43.5284 130.926 42.7078 130.038C42.5678 129.887 42.4325 129.742 42.2978 129.591C42.2613 129.55 42.2254 129.508 42.1889 129.467C41.877 129.119 41.5712 128.766 41.2851 128.413C40.9631 128.023 40.6566 127.634 40.361 127.239C40.2419 127.088 40.1275 126.938 40.0234 126.782C39.9198 126.647 39.8259 126.512 39.7271 126.377C39.426 125.951 39.1352 125.52 38.8652 125.089C38.7353 124.882 38.6055 124.679 38.4863 124.472C38.4762 124.461 38.4708 124.451 38.4654 124.44C35.6355 119.715 34.5606 114.87 35.4069 110.379C39.5918 88.0717 59.6146 78.5437 101.513 78.907C136.339 79.208 161.228 94.0589 162.734 112.238C163.105 116.72 162.544 121.201 160.857 125.465Z" fill="#7575C6" stroke="#871C20" stroke-width="0.957654" stroke-miterlimit="10" stroke-linecap="round" stroke-linejoin="round"/>
<path d="M160.857 125.465C158.536 131.348 154.07 136.831 146.951 141.364C146.769 141.478 146.582 141.597 146.396 141.712C146.021 141.945 145.632 142.174 145.243 142.402C142.423 144.044 140.102 145.803 138.248 147.626C137.874 147.99 137.522 148.358 137.189 148.727C137.022 148.914 136.857 149.096 136.701 149.283C136.384 149.651 136.088 150.025 135.808 150.399C135.803 150.404 135.808 150.404 135.808 150.404C135.523 150.778 135.263 151.152 135.019 151.526C134.894 151.713 134.78 151.9 134.665 152.092C134.437 152.466 134.224 152.845 134.032 153.224C132.511 156.199 132.043 159.175 132.485 161.932L132.444 161.937C130.466 155.545 123.165 150.805 114.462 150.805C113.906 150.805 109.971 150.976 108.506 151.018C106.33 151.08 104.196 151.091 102.109 151.049C101.725 151.049 101.335 151.039 100.956 151.028C100.655 151.023 100.354 151.012 100.052 151.002C99.5333 150.987 99.0191 150.966 98.5098 150.94C97.8867 150.914 97.269 150.883 96.6561 150.847C96.0642 150.81 95.4776 150.774 94.8958 150.727C94.4703 150.701 94.0441 150.665 93.624 150.628C93.193 150.597 92.7621 150.555 92.3359 150.514C91.064 150.394 89.8173 150.259 88.5867 150.104C88.1192 150.047 87.6572 149.989 87.2005 149.922C86.645 149.849 86.089 149.766 85.5437 149.683C85.4659 149.673 85.3929 149.657 85.3205 149.646C84.7597 149.563 84.2042 149.47 83.6488 149.377C83.067 149.278 82.4906 149.174 81.9142 149.065C81.3947 148.971 80.8806 148.867 80.367 148.764C79.9726 148.686 79.5829 148.603 79.1933 148.519C78.8611 148.452 78.5337 148.379 78.2069 148.302C77.5683 148.162 76.9398 148.011 76.3167 147.86C76.0049 147.783 75.6883 147.705 75.3818 147.627C75.0287 147.538 74.6809 147.445 74.3332 147.352C74.0166 147.269 73.7 147.185 73.3881 147.097C72.9626 146.978 72.5418 146.858 72.121 146.734C71.6278 146.594 71.1394 146.443 70.6564 146.293C70.2464 146.163 69.8412 146.039 69.4414 145.903C69.1092 145.8 68.7872 145.69 68.4598 145.576C68.361 145.545 68.2623 145.508 68.1635 145.477C67.8206 145.363 67.483 145.244 67.146 145.119C66.3362 144.833 65.5467 144.537 64.768 144.23C64.3371 144.064 63.9061 143.887 63.4806 143.711C63.3926 143.674 63.3094 143.643 63.2262 143.607C62.9042 143.477 62.5876 143.342 62.2709 143.201C60.7549 142.547 59.301 141.867 57.9094 141.156C57.7119 141.057 57.515 140.953 57.3229 140.849C57.105 140.735 56.8865 140.621 56.674 140.506C56.3574 140.34 56.0456 140.169 55.7343 139.992C55.3136 139.759 54.8982 139.52 54.4882 139.28C54.1662 139.094 53.8442 138.906 53.5329 138.714C53.2786 138.553 53.0242 138.398 52.7746 138.242C52.5723 138.112 52.3694 137.988 52.1725 137.858C51.4351 137.38 50.724 136.897 50.0333 136.404C49.831 136.264 49.6281 136.118 49.4258 135.968C49.2235 135.817 49.0206 135.671 48.8237 135.521C48.6004 135.355 48.3826 135.189 48.1695 135.018C47.4219 134.436 46.7001 133.844 46.0148 133.242C45.7915 133.05 45.5784 132.858 45.3659 132.665C44.4155 131.804 43.5279 130.926 42.7073 130.038C42.5672 129.887 42.4319 129.742 42.2973 129.591C42.2608 129.55 42.2248 129.508 42.1883 129.467C41.8765 129.114 41.5754 128.766 41.2845 128.413C40.9625 128.023 40.6561 127.634 40.3604 127.239C40.2413 127.088 40.127 126.938 40.0228 126.782C39.9193 126.647 39.8253 126.512 39.7266 126.377C39.4255 125.946 39.1346 125.52 38.8647 125.089C38.7348 124.882 38.6049 124.679 38.4858 124.472C38.4756 124.461 38.4702 124.451 38.4648 124.44C50.6468 113.931 73.2343 106.874 99.0934 106.874C125.775 106.875 148.981 114.394 160.857 125.465Z" fill="url(#paint0_linear_3_17310)" stroke="#871C20" stroke-width="0.957654" stroke-miterlimit="10" stroke-linecap="round" stroke-linejoin="round"/>
<path d="M20.9744 137.569C19.9916 133.687 19.4858 129.542 19.4858 125.134C19.4858 88.8494 52.4549 66.0117 101.694 66.6096C142.623 67.107 173.566 85.6095 171.537 123.751C169.928 153.98 154.719 176.031 114.034 179.54C93.704 181.294 75.7079 178.431 61.0923 173.933" stroke="#871C20" stroke-width="0.957654" stroke-miterlimit="10" stroke-linecap="round" stroke-linejoin="round"/>
<path d="M28.3258 130.253C28.3258 130.253 18.7373 138.269 15.0396 146.462" stroke="#871C20" stroke-width="0.957654" stroke-miterlimit="10" stroke-linecap="round" stroke-linejoin="round"/>
<path d="M120.069 164.383C120.069 166.44 118.401 168.108 116.344 168.108C114.287 168.108 112.62 166.44 112.62 164.383C112.62 162.326 114.287 160.658 116.344 160.658C118.401 160.658 120.069 162.326 120.069 164.383Z" fill="#871C20" stroke="#871C20" stroke-width="0.957654" stroke-miterlimit="10" stroke-linecap="round" stroke-linejoin="round"/>
<path d="M147.435 159.868C149.568 159.868 151.297 158.139 151.297 156.006C151.297 153.873 149.568 152.144 147.435 152.144C145.302 152.144 143.573 153.873 143.573 156.006C143.573 158.139 145.302 159.868 147.435 159.868Z" fill="#871C20" stroke="#871C20" stroke-width="0.957654" stroke-miterlimit="10" stroke-linecap="round" stroke-linejoin="round"/>
<path d="M118.864 199.394C118.178 199.394 117.493 199.124 116.983 198.588C110.796 192.09 108.305 183.865 109.778 174.805C110.87 168.092 113.761 163.293 113.884 163.093C114.629 161.869 116.227 161.481 117.452 162.227C118.675 162.972 119.063 164.567 118.32 165.791C117.913 166.465 108.611 182.264 120.744 195.008C121.733 196.047 121.693 197.69 120.654 198.678C120.151 199.157 119.507 199.394 118.864 199.394Z" fill="#7575C6" stroke="#871C20" stroke-width="0.957654" stroke-miterlimit="10" stroke-linecap="round" stroke-linejoin="round"/>
<path d="M157.946 185.779C157.743 185.779 157.538 185.755 157.332 185.704C155.938 185.366 155.083 183.962 155.422 182.569C159.67 165.082 146.972 158.608 146.43 158.341C145.148 157.71 144.611 156.159 145.236 154.874C145.861 153.588 147.401 153.048 148.689 153.666C148.868 153.752 153.11 155.825 156.65 160.595C159.899 164.974 163.199 172.552 160.468 183.795C160.179 184.982 159.117 185.779 157.946 185.779Z" fill="#7575C6" stroke="#871C20" stroke-width="0.957654" stroke-miterlimit="10" stroke-linecap="round" stroke-linejoin="round"/>
<path d="M164.226 67.8495C164.939 74.7285 160.307 80.8455 153.881 81.5117C147.454 82.1778 141.666 77.1418 140.953 70.2622C140.239 63.3833 144.871 57.2662 151.298 56.6001C157.724 55.9345 163.512 60.9706 164.226 67.8495Z" fill="#FCD9C4"/>
<path d="M142.091 63.3563C143.801 59.6897 147.181 57.0274 151.297 56.6007C157.724 55.9345 163.512 60.9706 164.225 67.8495C164.939 74.7285 160.307 80.8455 153.88 81.5117C151.887 81.7181 149.955 81.3764 148.217 80.6007" stroke="#871C20" stroke-width="0.957654" stroke-miterlimit="10" stroke-linecap="round" stroke-linejoin="round"/>
<path d="M143.4 117.459C147.131 129.201 134.045 139.621 114.869 143.01C94.1055 146.678 67.4157 138.357 62.6322 125.889C57.1927 111.71 84.8049 100.278 106.8 99.1652C127.852 98.1004 139.795 106.116 143.4 117.459Z" fill="#FABAAF" stroke="#871C20" stroke-width="0.957654" stroke-miterlimit="10" stroke-linecap="round" stroke-linejoin="round"/>
<path d="M45.2562 88.8259C44.6439 119.029 69.3975 137.663 100.542 137.663C131.687 137.663 158.042 119.035 158.042 88.8259C158.042 58.6167 131.688 29.9463 100.542 29.9463C69.3975 29.9463 45.765 63.715 45.2562 88.8259Z" fill="url(#paint1_linear_3_17310)"/>
<path d="M81.9348 52.0409C77.5577 53.6036 63.5125 64.1079 69.9228 83.4765C70.4561 85.0883 69.2375 86.7774 67.5903 87.1892C65.6163 87.683 63.7088 86.2148 63.6543 84.1803C63.5406 79.929 62.6273 73.296 58.4279 69.2762C51.8698 62.9982 47.1797 66.596 47.1797 66.596L61.6798 52.7196C61.6786 52.7196 86.2119 50.514 81.9348 52.0409Z" fill="#871C20" stroke="#871C20" stroke-width="0.957654" stroke-miterlimit="10" stroke-linecap="round" stroke-linejoin="round"/>
<path d="M131.912 92.4704C131.377 96.1263 127.42 101.215 119.813 102.04C111.691 102.695 106.733 97.8393 105.944 94.2517C105.663 92.9792 105.907 91.8629 106.722 91.2141C109.583 88.5818 115.524 90.4348 119.377 90.0661C123.23 89.7028 127.331 86.8993 130.639 88.9451C131.72 89.5107 132.151 90.8508 131.912 92.4704Z" fill="white" stroke="#871C20" stroke-width="0.957654" stroke-miterlimit="10" stroke-linecap="round" stroke-linejoin="round"/>
<path d="M119.27 50.7021C121.733 53.165 124.839 54.0526 126.208 52.6838C127.577 51.315 126.69 48.2086 124.226 45.7456C121.763 43.2826 118.657 42.395 117.288 43.7638C115.919 45.1327 116.806 48.2391 119.27 50.7021Z" fill="#871C20" stroke="#871C20" stroke-width="0.957654" stroke-miterlimit="10" stroke-linecap="round" stroke-linejoin="round"/>
<path d="M111.006 45.9086C108.705 48.5236 108.017 51.6796 109.47 52.9587C110.924 54.2378 113.967 53.1544 116.269 50.5394C118.57 47.9245 119.258 44.7684 117.804 43.4893C116.351 42.2103 113.308 43.2936 111.006 45.9086Z" fill="#871C20" stroke="#871C20" stroke-width="0.957654" stroke-miterlimit="10" stroke-linecap="round" stroke-linejoin="round"/>
<path d="M45.2562 88.8259C44.6439 119.029 69.3975 137.663 100.542 137.663C131.687 137.663 158.042 119.035 158.042 88.8259C158.042 58.6167 131.688 29.9463 100.542 29.9463C69.3975 29.9463 45.765 63.715 45.2562 88.8259Z" stroke="#871C20" stroke-width="0.957654" stroke-miterlimit="10" stroke-linecap="round" stroke-linejoin="round"/>
<path d="M48.2558 49.7272C47.7884 51.3002 47.4329 52.906 47.1797 54.5311C77.6822 52.8875 126.223 42.5334 135.158 31.8885C110.111 5.8014 57.3356 16.5978 48.2558 49.7272Z" fill="#9090DD" stroke="#871C20" stroke-width="0.957654" stroke-miterlimit="10" stroke-linecap="round" stroke-linejoin="round"/>
<path d="M40.71 66.4926C42.116 70.6476 44.4587 76.9388 49.3517 78.6949C50.3949 75.1941 51.264 73.4057 52.7268 70.3083C59.5794 53.1052 119.372 39.0265 139.859 49.186C142.427 50.4597 144.951 52.4073 147.341 55.6334C150.16 52.5581 149.439 47.3174 148.206 41.6558C146.788 35.1474 142.743 32.7922 141.594 32.2122C118.609 20.6078 60.8495 36.0099 43.8865 51.1091C38.5224 56.0566 39.3154 62.3687 40.71 66.4926Z" fill="#9090DD" stroke="#871C20" stroke-width="0.957654" stroke-miterlimit="10" stroke-linecap="round" stroke-linejoin="round"/>
<path d="M50.8103 91.4191C58.0497 90.2404 62.963 83.4161 61.7843 76.1767C60.6056 68.9372 53.7813 64.024 46.5418 65.2027C39.3023 66.3814 34.3891 73.2057 35.5678 80.4451C36.7465 87.6846 43.5708 92.5978 50.8103 91.4191Z" fill="#FBCDBC"/>
<path d="M59.8722 71.1405C57.511 67.4595 53.3835 65.0205 48.6857 65.0205C41.3512 65.0205 35.4048 70.9663 35.4048 78.3014C35.4048 85.6364 41.3506 91.5822 48.6857 91.5822C50.9607 91.5822 53.1022 91.01 54.9738 90.0021" stroke="#871C20" stroke-width="0.957654" stroke-miterlimit="10" stroke-linecap="round" stroke-linejoin="round"/>
<path d="M49.2465 86.8943C50.2867 86.8943 51.2833 86.695 52.1907 86.3299C55.1462 85.1568 57.2381 82.2784 57.2381 78.9027C57.2381 77.1867 56.6958 75.5928 55.7549 74.2868C54.3161 72.25 51.9363 70.9219 49.2465 70.9219C47.479 70.9219 45.8462 71.4947 44.5234 72.4643" stroke="#871C20" stroke-width="0.957654" stroke-miterlimit="10" stroke-linecap="round" stroke-linejoin="round"/>
<path d="M50.7158 81.7026C50.7158 83.418 51.2581 85.0232 52.1882 86.3292C55.1438 85.1561 57.2356 82.2778 57.2356 78.902C57.2356 77.186 56.6934 75.5921 55.7525 74.2861C52.7963 75.4491 50.7158 78.3269 50.7158 81.7026Z" fill="#871C20" stroke="#871C20" stroke-width="0.957654" stroke-miterlimit="10" stroke-linecap="round" stroke-linejoin="round"/>
<path d="M129.196 69.4565C131.363 72.3953 131.623 76.0374 129.894 79.254" stroke="#871C20" stroke-width="9.57654" stroke-miterlimit="10" stroke-linecap="round" stroke-linejoin="round"/>
<path d="M100.93 71.6553C103.097 74.5941 103.357 78.2361 101.628 81.4527" stroke="#871C20" stroke-width="9.57654" stroke-miterlimit="10" stroke-linecap="round" stroke-linejoin="round"/>
<path d="M128.185 88.205C128.185 88.205 131.079 86.188 132.03 85.4967C134.971 83.3569 136.531 80.5552 135.185 77.4667C133.838 74.3783 130.243 72.9657 127.155 74.3119L119.614 77.4045" fill="#FBD5BE"/>
<path d="M128.185 88.205C128.185 88.205 131.079 86.188 132.03 85.4967C134.971 83.3569 136.531 80.5552 135.185 77.4667C133.838 74.3783 130.243 72.9657 127.155 74.3119L119.614 77.4045" stroke="#871C20" stroke-width="0.957654" stroke-miterlimit="10" stroke-linecap="round" stroke-linejoin="round"/>
<path d="M89.6287 94.3181C92.5813 95.7144 95.7894 95.1237 96.795 92.9989C97.8005 90.8735 96.2222 88.0185 93.2696 86.6221C90.317 85.2257 87.1089 85.8165 86.1034 87.9413C85.0978 90.0667 86.6761 92.9217 89.6287 94.3181Z" fill="#FABAAF"/>
<path d="M143.952 85.9386C142.027 87.1147 139.729 86.8627 138.821 85.376C137.912 83.8886 138.736 81.7291 140.661 80.553C142.587 79.3763 144.884 79.6283 145.793 81.1156C146.701 82.6024 145.877 84.7619 143.952 85.9386Z" fill="#FABAAF"/>
<path d="M133.261 63.1516C131.053 58.2101 123.974 58.404 122.041 63.4586" stroke="#871C20" stroke-width="0.957654" stroke-miterlimit="10" stroke-linecap="round" stroke-linejoin="round"/>
<path d="M107.168 64.6003C104.961 59.6588 97.8815 59.8527 95.9482 64.9073" stroke="#871C20" stroke-width="0.957654" stroke-miterlimit="10" stroke-linecap="round" stroke-linejoin="round"/>
<path d="M124.747 88.7266C125.209 89.1503 128.049 93.5023 125.509 100.389" stroke="#871C20" stroke-width="0.957654" stroke-miterlimit="10" stroke-linecap="round" stroke-linejoin="round"/>
<path d="M119.704 90.0273C119.704 90.0273 122.682 95.0287 119.1 102.067" stroke="#871C20" stroke-width="0.957654" stroke-miterlimit="10" stroke-linecap="round" stroke-linejoin="round"/>
<path d="M113.424 89.8286C113.424 89.8286 115.337 95.8876 112.814 100.87" stroke="#871C20" stroke-width="0.957654" stroke-miterlimit="10" stroke-linecap="round" stroke-linejoin="round"/>
</g>
<defs>
<linearGradient id="paint0_linear_3_17310" x1="42.8283" y1="161.073" x2="154.312" y2="111.229" gradientUnits="userSpaceOnUse">
<stop offset="0.1031" stop-color="#D6E8ED"/>
<stop offset="0.1854" stop-color="#DEECF0"/>
<stop offset="0.4424" stop-color="#F0F7F9"/>
<stop offset="0.7094" stop-color="#FBFDFD"/>
<stop offset="1" stop-color="white"/>
</linearGradient>
<linearGradient id="paint1_linear_3_17310" x1="43.5829" y1="133.844" x2="179.618" y2="22.2401" gradientUnits="userSpaceOnUse">
<stop stop-color="#F79292"/>
<stop offset="0.0345" stop-color="#F8A09C"/>
<stop offset="0.1011" stop-color="#F9B6AC"/>
<stop offset="0.1748" stop-color="#FAC5B7"/>
<stop offset="0.2603" stop-color="#FBCEBD"/>
<stop offset="0.385" stop-color="#FBD1BF"/>
<stop offset="0.4315" stop-color="#FBD2C0"/>
<stop offset="0.8047" stop-color="#FCDAC5"/>
</linearGradient>
<clipPath id="clip0_3_17310">
<rect width="198.663" height="198.663" fill="white" transform="translate(0.000976562 0.772461)"/>
</clipPath>
</defs>
</svg>
