<svg width="200" height="200" viewBox="0 0 200 200" fill="none" xmlns="http://www.w3.org/2000/svg">
<g clip-path="url(#clip0_3_17347)">
<rect width="198.663" height="198.663" transform="translate(0.579102 0.772461)" fill="#849BD6"/>
<path d="M172.361 148.889C178.681 143.793 180.14 135.383 179.33 126.629C177.533 107.231 153.068 85.102 100.3 85.1691C39.1039 85.2469 21.2714 104.555 21.2714 124.035C21.2714 127.953 21.879 131.6 24.3515 135.221C8.54535 145.677 -2.25037 161.504 -6.87012 177.239L199.023 199.772C197.411 179.947 187.903 162.45 172.361 148.889Z" fill="url(#paint0_linear_3_17347)" stroke="#871C20" stroke-width="1.32442" stroke-miterlimit="10" stroke-linecap="round" stroke-linejoin="round"/>
<path d="M163.579 119.252C164.079 105.207 139.056 93.1086 107.927 92.2378C76.7983 91.367 59.0171 135.659 59.0171 135.659C59.0171 135.659 76.5044 147.49 81.2516 162.781C87.296 150.785 113.836 142.196 117.722 140.591C117.722 140.59 162.793 141.26 163.579 119.252Z" fill="#871C20" stroke="#871C20" stroke-width="1.32442" stroke-miterlimit="10" stroke-linecap="round" stroke-linejoin="round"/>
<path d="M165.559 143.477C185.121 157.639 197.188 177.198 199.023 199.773L-6.87012 177.24C-1.65024 159.463 9.83663 144.323 26.2818 134.006" stroke="#871C20" stroke-width="1.32442" stroke-miterlimit="10" stroke-linecap="round" stroke-linejoin="round"/>
<path d="M157.282 106.771C158.44 107.227 159.647 107.945 160.825 108.88" stroke="#65BA64" stroke-width="1.32442"/>
<path d="M163.846 111.861C167.129 115.825 169.483 121.473 168.628 127.503C167.444 135.865 158.416 139.558 146.645 142.138C132.95 145.138 127.691 146.448 110.755 151.028C96.8439 154.79 88.635 161.519 84.3745 166.144" stroke="#65BA64" stroke-width="1.32442" stroke-dasharray="13.61 6.81"/>
<path d="M82.9793 167.746C81.3097 169.776 80.587 171.115 80.587 171.115C80.587 171.115 79.9819 169.705 78.7949 167.386" stroke="#65BA64" stroke-width="1.32442"/>
<path d="M77.0782 164.172C75.5973 161.51 73.6562 158.278 71.2706 154.836C67.1574 148.901 58.0164 138.409 49.8828 132.631" stroke="#65BA64" stroke-width="1.32442" stroke-dasharray="11.67 5.83"/>
<path d="M48.3703 131.607C47.1221 130.801 45.9077 130.125 44.7505 129.613" stroke="#65BA64" stroke-width="1.32442"/>
<path d="M112.135 142.698C102.911 146.239 85.931 153.491 81.2508 162.782C76.5028 147.487 59.0171 135.657 59.0171 135.657C59.0171 135.657 59.5353 134.361 60.5518 132.212C66.2211 127.621 73.8961 124.804 82.355 124.804C96.1232 124.804 107.823 132.274 112.135 142.698Z" fill="#FFD3C0" stroke="#871C20" stroke-width="1.32442"/>
<path d="M63.5862 131.029C59.8547 131.655 47.372 133.033 39.6101 126.629C29.287 118.113 38.9429 112.688 38.6184 97.9619C38.6764 100.6 41.4924 101.438 42.8739 102.685C51.4661 110.442 51.4611 124.964 63.5862 131.029Z" fill="#FFD67B" stroke="#871C20" stroke-width="1.32442" stroke-miterlimit="10" stroke-linecap="round" stroke-linejoin="round"/>
<path d="M49.742 77.8576L49.7428 77.8708C45.0593 85.6783 42.5123 94.7887 42.889 103.863C35.9656 101.41 32.1926 92.9146 33.0121 85.9647C33.9673 77.7003 42.639 72.7172 49.742 77.8576Z" fill="#FFD3C0" stroke="#871C20" stroke-width="1.32442" stroke-miterlimit="10" stroke-linecap="round" stroke-linejoin="round"/>
<path d="M39.6089 82.1574C41.9357 80.9116 44.9703 81.7782 46.8833 83.4006" stroke="#871C20" stroke-width="1.32442" stroke-miterlimit="10" stroke-linecap="round" stroke-linejoin="round"/>
<path d="M153.855 135.865C151.811 141.096 146.861 143.149 141.513 142.437C136.77 142.247 129.18 138.778 125.099 141.22C143.541 130.186 147.341 110.187 142.763 92.0595C145.023 92.2747 147.606 91.0082 148.069 87.6061C148.756 82.565 148.557 77.5901 147.581 72.8057C156.951 92.4485 161.76 115.138 153.855 135.865Z" fill="#FFD67B" stroke="#871C20" stroke-width="1.32442" stroke-miterlimit="10" stroke-linecap="round" stroke-linejoin="round"/>
<path d="M144.582 110.917C143.678 131.405 127.789 145.759 101.056 147.425C68.3011 149.467 39.2582 134.083 43.1247 97.1933C46.1618 69.546 74.7031 46.8172 102.437 54.1032C129.742 60.2336 146.366 83.1743 144.582 110.914C144.582 110.915 144.582 110.916 144.582 110.917Z" fill="#FFD3C0" stroke="#871C20" stroke-width="1.32442"/>
<path d="M148.071 87.6063C147.607 91.0084 145.025 92.2749 142.765 92.0597C142.492 90.9836 142.194 89.9158 141.863 88.8562C140.969 88.79 140.066 88.848 139.189 89.0218C137.178 89.4109 135.282 90.3793 133.734 91.7203C133.693 91.7948 133.651 91.861 133.577 91.919L133.535 91.8941C133.179 92.2252 132.832 92.5729 132.559 92.9702V92.9537C132.343 91.5465 131.102 90.7932 129.868 90.3462C128.908 89.924 127.965 89.4688 127.021 89.0052C123.23 87.1262 119.588 84.9492 116.128 82.5238C105.499 74.9912 96.3274 65.2401 89.8129 53.9412C80.244 65.9106 66.263 75.4133 50.6348 76.4232L49.7408 77.8553C47.4314 76.1335 45.7759 76.0176 44.3687 75.8024C44.3687 71.109 48.6399 60.2487 54.6743 54.1481H54.6826C54.7157 54.1067 54.7571 54.0736 54.7985 54.0322C57.1328 51.7145 59.6989 49.7361 62.4388 48.0723C62.4553 48.064 62.4719 48.0558 62.4884 48.0475C73.1335 41.6075 86.4025 39.8692 98.7114 41.2763C109.712 42.4932 120.291 46.4581 129.868 51.8966C134.38 54.5206 139.164 57.2025 141.772 61.9125C143.833 65.4057 145.795 69.0478 147.583 72.8059C148.559 77.5904 148.758 82.5652 148.071 87.6063Z" fill="#FFD67B" stroke="#871C20" stroke-width="1.32442" stroke-miterlimit="10" stroke-linecap="round" stroke-linejoin="round"/>
<path d="M92.9038 52.561C92.9038 52.561 104.712 75.0307 129.701 86.4257" stroke="#EDA53E" stroke-width="1.32442" stroke-linecap="round" stroke-linejoin="round"/>
<path d="M110.054 67.9634C115.592 73.7288 123.045 79.9411 132.494 84.6163" stroke="#EDA53E" stroke-width="1.32442" stroke-linecap="round" stroke-linejoin="round"/>
<path d="M89.8101 53.9367C89.8101 53.9367 92.7627 39.008 107.204 42.7603" stroke="#871C20" stroke-width="1.32442" stroke-miterlimit="10"/>
<path d="M54.6834 54.152C63.2789 44.9059 78.6894 40.6859 93.2564 41.6834C119.876 43.5069 138.113 62.596 139.172 88.8717C139.336 92.907 147.219 93.8176 148.067 87.6094C151.731 60.7716 130.358 35.7359 99.2941 32.5548C84.7958 31.0698 61.1515 34.0241 54.6768 54.147L54.6834 54.152Z" fill="#F4736C" stroke="#871C20" stroke-width="1.32442" stroke-miterlimit="10" stroke-linecap="round" stroke-linejoin="round"/>
<path d="M152.931 100.738C151.067 110.002 140.2 116.786 131.921 110.386C123.568 103.994 126.209 91.7582 134.579 86.665C144.015 80.6629 155.042 90.572 152.931 100.738Z" fill="#FFD3C0"/>
<path d="M137.623 112.808C147.456 114.229 155.926 102.624 152.337 93.5595C150.364 87.8389 144.099 83.7464 138.035 85.0062C134.28 85.714 131.385 88.6261 129.411 91.7352" stroke="#871C20" stroke-width="1.32442"/>
<path d="M149.531 101.552C151.112 94.3996 144.088 88.4645 137.611 92.4651C134.729 94.5411 133.751 98.7553 135.342 101.912C136.267 103.738 137.518 105.702 139.584 106.331" stroke="#871C20" stroke-width="1.32442"/>
<path d="M136.895 104.398C133.153 100.96 133.963 95.1097 137.963 92.2324C139.834 96.1097 139.147 100.817 136.895 104.398Z" fill="#871C20" stroke="#871C20" stroke-width="1.32442" stroke-miterlimit="10" stroke-linecap="round" stroke-linejoin="round"/>
<path d="M70.1975 96.727C69.9782 96.7146 69.7605 96.6782 69.5502 96.6203C69.3392 96.5623 69.1355 96.4828 68.9426 96.386C68.7498 96.2891 68.5677 96.1741 68.3988 96.045C68.23 95.9158 68.0743 95.7718 67.9336 95.617C67.7929 95.4622 67.6671 95.2967 67.557 95.1237C67.4104 94.8919 67.2921 94.6468 67.177 94.401C67.033 94.0931 66.894 93.7843 66.769 93.4706C66.6191 93.094 66.4892 92.7099 66.3766 92.3217C66.264 91.9335 66.1688 91.5411 66.0927 91.1463C66.0165 90.7506 65.9602 90.3524 65.923 89.9526C65.8857 89.5528 65.8692 89.1513 65.8725 88.7499C65.8758 88.3484 65.8998 87.9469 65.9445 87.5479C65.9892 87.149 66.0546 86.7516 66.1415 86.3584C66.2284 85.9652 66.336 85.5762 66.4643 85.1921C66.5926 84.808 66.7408 84.4298 66.913 84.0614C67.0843 83.6931 67.2797 83.3338 67.4842 82.9779C67.6547 82.6815 67.8318 82.3877 68.0486 82.1187C68.2225 81.9035 68.422 81.7039 68.6513 81.5384C68.8235 81.4142 69.013 81.3091 69.2133 81.2263C69.4137 81.1436 69.6264 81.0831 69.8441 81.0475C70.0618 81.0119 70.2853 81.0012 70.5071 81.0153C70.729 81.0293 70.9492 81.0674 71.1627 81.1278C71.3763 81.1882 71.5816 81.271 71.7761 81.372C71.9706 81.473 72.1535 81.5922 72.3232 81.7255C72.4929 81.8587 72.6494 82.0061 72.7901 82.1642C72.9316 82.3223 73.0575 82.492 73.1676 82.6691C73.2776 82.8463 73.372 83.0308 73.4498 83.2212C73.5276 83.4116 73.5889 83.607 73.6344 83.8048C73.6791 84.0027 73.7072 84.2038 73.718 84.4049C73.7288 84.6061 73.723 84.8081 73.699 85.0076C73.675 85.2071 73.6319 85.404 73.5723 85.5969C73.5119 85.7898 73.4341 85.9777 73.3348 86.1548C73.2023 86.3907 73.0334 86.6085 72.8902 86.8394C72.7114 87.1283 72.5732 87.4387 72.464 87.7566C72.3332 88.1382 72.2429 88.5305 72.204 88.9278C72.1651 89.3243 72.1767 89.7258 72.2272 90.1248C72.2786 90.523 72.3687 90.9186 72.5153 91.2953C72.6369 91.609 72.7984 91.9094 72.9317 92.2207C73.0384 92.469 73.127 92.7239 73.1833 92.9847C73.2255 93.18 73.2503 93.3787 73.2578 93.5766C73.2652 93.7752 73.2553 93.9739 73.228 94.1701C73.2007 94.3662 73.1551 94.5599 73.0922 94.7495C73.0285 94.9382 72.9474 95.122 72.8472 95.2967C72.747 95.4713 72.6287 95.6377 72.4913 95.79C72.3547 95.9431 72.1999 96.0822 72.0294 96.2039C71.8589 96.3256 71.6726 96.4299 71.4748 96.5118C71.277 96.5946 71.0675 96.655 70.8531 96.6914C70.6371 96.7279 70.4169 96.7394 70.1975 96.727Z" fill="#871C20" stroke="#871C20" stroke-width="1.32442" stroke-miterlimit="10" stroke-linecap="round" stroke-linejoin="round"/>
<path d="M97.3166 100.267C97.103 100.255 96.8911 100.22 96.6867 100.164C96.4822 100.107 96.2844 100.03 96.0981 99.9351C95.9119 99.84 95.7356 99.7274 95.5734 99.6007C95.4111 99.4741 95.2613 99.3334 95.1272 99.1811C94.9923 99.0288 94.8723 98.8665 94.7688 98.6952C94.6297 98.4675 94.5188 98.2258 94.412 97.9833C94.2779 97.6803 94.1488 97.3758 94.0329 97.0662C93.8946 96.6945 93.7754 96.3162 93.6745 95.9329C93.5726 95.5497 93.4882 95.1631 93.4228 94.7732C93.3574 94.3834 93.3111 93.9902 93.2838 93.5953C93.2565 93.2005 93.249 92.804 93.2622 92.4083C93.2747 92.0118 93.3077 91.6161 93.3607 91.2221C93.4137 90.8281 93.4874 90.4358 93.5826 90.0484C93.6769 89.6601 93.7928 89.276 93.9277 88.8978C94.0627 88.5195 94.2175 88.1462 94.3946 87.7828C94.5718 87.4194 94.7713 87.0651 94.9807 86.715C95.1545 86.4228 95.3358 86.1331 95.5551 85.8682C95.7306 85.6563 95.9309 85.4609 96.1602 85.2978C96.3316 85.1761 96.5195 85.0727 96.7173 84.9915C96.9151 84.9104 97.1246 84.8509 97.3373 84.8161C97.55 84.7813 97.7686 84.7706 97.9846 84.7838C98.2007 84.797 98.4151 84.8343 98.622 84.893C98.8289 84.9518 99.0284 85.0329 99.2164 85.1314C99.4043 85.23 99.5806 85.3467 99.7445 85.4775C99.9075 85.6083 100.057 85.7531 100.192 85.9087C100.327 86.0644 100.447 86.2307 100.552 86.4046C100.656 86.5792 100.744 86.7613 100.816 86.9484C100.888 87.1355 100.945 87.3283 100.984 87.5237C101.024 87.719 101.047 87.9169 101.054 88.1164C101.061 88.315 101.05 88.5145 101.022 88.7107C100.994 88.9077 100.947 89.1022 100.884 89.2918C100.821 89.4822 100.74 89.6676 100.638 89.8422C100.503 90.0748 100.332 90.2893 100.186 90.5177C100.004 90.8025 99.862 91.1087 99.7469 91.4224C99.6095 91.7991 99.5119 92.1865 99.4647 92.578C99.4167 92.9695 99.4192 93.366 99.4597 93.7592C99.5003 94.1524 99.5805 94.5423 99.7155 94.914C99.828 95.2235 99.9795 95.5199 100.103 95.8261C100.201 96.0712 100.283 96.3228 100.331 96.5802C100.368 96.7731 100.388 96.9685 100.389 97.1646C100.392 97.3608 100.377 97.5562 100.345 97.7507C100.313 97.9444 100.264 98.1356 100.197 98.3219C100.13 98.5081 100.045 98.6886 99.9423 98.8607C99.8397 99.0329 99.7188 99.196 99.5806 99.3466C99.4423 99.4964 99.2875 99.6338 99.117 99.7539C98.9473 99.8731 98.7619 99.9758 98.5665 100.056C98.3712 100.137 98.1651 100.197 97.9548 100.232C97.7454 100.268 97.5302 100.28 97.3166 100.267Z" fill="#871C20" stroke="#871C20" stroke-width="1.32442" stroke-miterlimit="10" stroke-linecap="round" stroke-linejoin="round"/>
<path d="M70.0147 98.0562C69.6687 94.996 67.7607 92.362 64.8801 91.449C62.8835 90.8166 60.7935 91.1278 59.0171 92.1452" fill="#FFD3C0"/>
<path d="M70.0147 98.0562C69.6687 94.996 67.7607 92.362 64.8801 91.449C62.8835 90.8166 60.7935 91.1278 59.0171 92.1452" stroke="#871C20" stroke-width="1.32442"/>
<path d="M59.039 95.7841C58.6442 97.3991 60.0008 99.1183 62.0694 99.6241C64.138 100.131 66.1363 99.2317 66.5311 97.6176C66.9259 96.0035 65.5692 94.2833 63.5006 93.7776C61.4312 93.271 59.4339 94.1691 59.039 95.7841Z" fill="#FCB7AD"/>
<path d="M78.2104 102.973C77.1872 102.569 76.1566 102.177 75.1335 101.764C74.4159 101.476 73.7015 101.178 72.9764 100.901C72.5617 100.743 72.1437 100.592 71.7364 100.417C71.431 100.285 71.1313 100.14 70.8523 99.9666C70.5734 99.7936 70.3143 99.5933 70.0759 99.3748C69.8367 99.1571 69.6181 98.9212 69.4211 98.672C69.2241 98.4228 69.0478 98.1588 68.8947 97.8856C68.7407 97.6125 68.6083 97.3285 68.499 97.0388C68.3889 96.7483 68.3012 96.4519 68.2358 96.1506C68.1704 95.8493 68.1282 95.5447 68.1083 95.2392C68.0892 94.933 68.0934 94.6259 68.1224 94.3213C68.1514 94.0158 68.2043 93.7128 68.2821 93.4157C68.3599 93.1177 68.4626 92.8255 68.5917 92.5432C68.72 92.2601 68.8748 91.987 69.0553 91.7287C69.2357 91.4705 69.4418 91.2271 69.6728 91.0036C69.9037 90.7801 70.1587 90.5781 70.4343 90.401C70.7099 90.2247 71.0072 90.074 71.3184 89.954C71.6296 89.8348 71.9566 89.7454 72.2902 89.6907C72.6237 89.6353 72.9648 89.6146 73.305 89.627C73.7578 89.6436 74.2089 89.7214 74.6394 89.8505C75.1774 90.0119 75.684 90.2545 76.1939 90.4821C77.0101 90.8463 77.837 91.1741 78.6639 91.5011C79.697 91.9091 80.7317 92.3173 81.7739 92.7005" fill="#FFD3C0"/>
<path d="M78.2104 102.973C77.1872 102.569 76.1566 102.177 75.1335 101.764C74.4159 101.476 73.7015 101.178 72.9764 100.901C72.5617 100.743 72.1437 100.592 71.7364 100.417C71.431 100.285 71.1313 100.14 70.8523 99.9666C70.5734 99.7936 70.3143 99.5933 70.0759 99.3748C69.8367 99.1571 69.6181 98.9212 69.4211 98.672C69.2241 98.4228 69.0478 98.1588 68.8947 97.8856C68.7407 97.6125 68.6083 97.3285 68.499 97.0388C68.3889 96.7483 68.3012 96.4519 68.2358 96.1506C68.1704 95.8493 68.1282 95.5447 68.1083 95.2392C68.0892 94.933 68.0934 94.6259 68.1224 94.3213C68.1514 94.0158 68.2043 93.7128 68.2821 93.4157C68.3599 93.1177 68.4626 92.8255 68.5917 92.5432C68.72 92.2601 68.8748 91.987 69.0553 91.7287C69.2357 91.4705 69.4418 91.2271 69.6728 91.0036C69.9037 90.7801 70.1587 90.5781 70.4343 90.401C70.7099 90.2247 71.0072 90.074 71.3184 89.954C71.6296 89.8348 71.9566 89.7454 72.2902 89.6907C72.6237 89.6353 72.9648 89.6146 73.305 89.627C73.7578 89.6436 74.2089 89.7214 74.6394 89.8505C75.1774 90.0119 75.684 90.2545 76.1939 90.4821C77.0101 90.8463 77.837 91.1741 78.6639 91.5011C79.697 91.9091 80.7317 92.3173 81.7739 92.7005" stroke="#871C20" stroke-width="1.32442" stroke-miterlimit="10" stroke-linecap="round" stroke-linejoin="round"/>
<path d="M66.1411 78.0974C66.5326 77.1447 67.2147 76.2441 68.1534 75.6754C69.0912 75.1068 70.2849 74.8716 71.4172 75.0107C72.5505 75.1498 73.6232 75.663 74.4585 76.3873C75.2953 77.1124 75.8938 78.0494 76.2539 79.027" stroke="#871C20" stroke-width="1.32442" stroke-miterlimit="10" stroke-linecap="round" stroke-linejoin="round"/>
<path d="M94.3447 81.2424C94.7992 80.2996 95.5715 79.4097 96.6103 78.8477C97.6483 78.2856 98.9513 78.0522 100.181 78.1855C101.411 78.3188 102.565 78.8204 103.458 79.5323C104.352 80.2458 104.982 81.1704 105.348 82.1364" stroke="#871C20" stroke-width="1.32442" stroke-miterlimit="10" stroke-linecap="round" stroke-linejoin="round"/>
<path d="M93.9749 110.497C93.859 111.016 93.6678 111.528 93.4154 112.012C93.1629 112.496 92.8492 112.953 92.4808 113.39C92.1191 113.82 91.7035 114.216 91.2458 114.577C90.7888 114.939 90.2839 115.26 89.7517 115.539C89.6151 115.615 89.4719 115.682 89.3287 115.744C88.9189 115.935 88.4968 116.099 88.0663 116.242C87.4794 116.433 86.8727 116.576 86.2585 116.678C85.6377 116.781 85.0102 116.842 84.382 116.863C83.7545 116.884 83.1196 116.87 82.4922 116.822C81.8573 116.774 81.2365 116.692 80.6156 116.576C79.9948 116.461 79.3881 116.303 78.7937 116.113C78.2135 115.929 77.6613 115.711 77.1225 115.444C77.1084 115.437 77.0885 115.431 77.0745 115.423C76.5215 115.158 75.9967 114.851 75.4984 114.516C75.0075 114.175 74.5432 113.8 74.1202 113.397C73.6972 112.995 73.3081 112.565 72.9671 112.107C72.6261 111.657 72.3256 111.179 72.0731 110.682C71.8206 110.184 71.6162 109.672 71.4796 109.14C71.343 108.614 71.2611 108.082 71.2685 107.536C71.2752 107.086 71.3364 106.636 71.521 106.213C71.6642 105.878 71.896 105.558 72.2031 105.312C72.4282 105.128 72.708 104.978 72.9944 104.869C73.2874 104.759 73.6012 104.684 73.9223 104.65C74.5564 104.575 75.212 104.65 75.8527 104.759C76.8079 104.923 77.7218 105.169 78.6431 105.387C79.8781 105.68 81.1264 105.94 82.3954 106.096C83.6577 106.253 84.9465 106.315 86.2089 106.294C87.2593 106.287 88.2965 106.219 89.361 106.205C90.2136 106.191 91.0868 106.212 91.8649 106.479C92.3492 106.649 92.7995 106.915 93.1546 107.243C93.2225 107.304 93.2912 107.373 93.3591 107.447C93.5503 107.658 93.7068 107.891 93.816 108.137C93.9658 108.471 94.0412 108.819 94.0685 109.174C94.1041 109.617 94.0701 110.061 93.9749 110.497Z" fill="#871C20"/>
<path d="M91.6225 114.262C90.8825 114.787 88.4968 116.098 88.0664 116.241C87.4795 116.432 86.8728 116.576 86.2586 116.677C85.6378 116.78 85.0103 116.841 84.382 116.862C83.7546 116.883 83.1197 116.869 82.4922 116.821C81.8573 116.773 81.2366 116.691 80.6157 116.576C79.9949 116.46 79.3882 116.302 78.7938 116.112C78.2136 115.928 75.2932 114.591 74.4604 113.706C75.5721 112.171 77.5621 110.54 83.2803 110.54C88.6442 110.54 90.606 112.618 91.6225 114.262Z" fill="url(#paint1_radial_3_17347)"/>
<path d="M89.4512 110.451C87.7659 111.33 84.6279 111.74 82.0966 111.556C79.5727 111.412 76.2567 110.134 75.1318 109.071C73.4911 107.519 75.0291 104.727 75.0291 104.727H75.5548C75.6574 104.747 75.7592 104.761 75.8552 104.781C76.8105 104.966 77.7177 105.238 78.6456 105.484C79.8732 105.818 81.1223 106.111 82.3913 106.289C83.6602 106.46 84.9424 106.521 86.2048 106.5C87.2552 106.48 88.2924 106.405 89.3635 106.385C89.6499 106.378 89.9363 106.378 90.2227 106.398C90.529 107.524 90.904 109.693 89.4512 110.451Z" fill="url(#paint2_linear_3_17347)" stroke="#871C20" stroke-width="1.32442" stroke-miterlimit="10"/>
<path d="M93.9749 110.497C93.859 111.016 93.6678 111.528 93.4154 112.012C93.1629 112.496 92.8492 112.953 92.4808 113.39C92.1191 113.82 91.7035 114.216 91.2458 114.577C90.7888 114.939 90.2839 115.26 89.7517 115.539C89.6151 115.615 89.4719 115.682 89.3287 115.744C88.9189 115.935 88.4968 116.099 88.0663 116.242C87.4794 116.433 86.8727 116.576 86.2585 116.678C85.6377 116.781 85.0102 116.842 84.382 116.863C83.7545 116.884 83.1196 116.87 82.4922 116.822C81.8573 116.774 81.2365 116.692 80.6156 116.576C79.9948 116.461 79.3881 116.303 78.7937 116.113C78.2135 115.929 77.6613 115.711 77.1225 115.444C77.1084 115.437 77.0885 115.431 77.0745 115.423C76.5215 115.158 75.9967 114.851 75.4984 114.516C75.0075 114.175 74.5432 113.8 74.1202 113.397C73.6972 112.995 73.3081 112.565 72.9671 112.107C72.6261 111.657 72.3256 111.179 72.0731 110.682C71.8206 110.184 71.6162 109.672 71.4796 109.14C71.343 108.614 71.2611 108.082 71.2685 107.536C71.2752 107.086 71.3364 106.636 71.521 106.213C71.6642 105.878 71.896 105.558 72.2031 105.312C72.4282 105.128 72.708 104.978 72.9944 104.869C73.2874 104.759 73.6012 104.684 73.9223 104.65C74.5564 104.575 75.212 104.65 75.8527 104.759C76.8079 104.923 77.7218 105.169 78.6431 105.387C79.8781 105.68 81.1264 105.94 82.3954 106.096C83.6577 106.253 84.9465 106.315 86.2089 106.294C87.2593 106.287 88.2965 106.219 89.361 106.205C90.2136 106.191 91.0868 106.212 91.8649 106.479C92.3492 106.649 92.7995 106.915 93.1546 107.243C93.2225 107.304 93.2912 107.373 93.3591 107.447C93.5503 107.658 93.7068 107.891 93.816 108.137C93.9658 108.471 94.0412 108.819 94.0685 109.174C94.1041 109.617 94.0701 110.061 93.9749 110.497Z" stroke="#871C20" stroke-width="1.32442" stroke-miterlimit="10" stroke-linecap="round" stroke-linejoin="round"/>
<path d="M110.053 98.0258C108.606 96.3421 106.493 95.1625 104.045 94.8786C100.287 94.4432 96.8161 96.2444 95.1183 99.1755C94.5753 100.113 93.0431 101.828 94.082 102.301C94.4636 102.475 110.053 98.0258 110.053 98.0258Z" fill="#FFD3C0"/>
<path d="M94.9551 99.4413C96.9069 96.4564 100.288 94.4441 104.046 94.8795C106.495 95.1626 108.607 96.343 110.054 98.0266" stroke="#871C20" stroke-width="1.32442"/>
<path d="M107.866 101.426C108.102 99.3796 106.491 97.5119 104.267 97.2544C102.042 96.9969 100.047 98.447 99.8103 100.493C99.5734 102.54 101.185 104.407 103.409 104.665C105.633 104.922 107.629 103.472 107.866 101.426Z" fill="#FCB7AD"/>
<rect width="148.17" height="35.5939" transform="translate(36.1724 182.053)" fill="#B4DF8D"/>
</g>
<defs>
<linearGradient id="paint0_linear_3_17347" x1="95.3902" y1="207.552" x2="99.716" y2="87.509" gradientUnits="userSpaceOnUse">
<stop offset="0.0178" stop-color="#C1EA98"/>
<stop offset="0.248" stop-color="#AFDA88"/>
<stop offset="0.4194" stop-color="#A7D381"/>
<stop offset="0.5936" stop-color="#93CB78"/>
<stop offset="0.9493" stop-color="#5FB861"/>
<stop offset="1" stop-color="#57B55E"/>
</linearGradient>
<radialGradient id="paint1_radial_3_17347" cx="0" cy="0" r="1" gradientUnits="userSpaceOnUse" gradientTransform="translate(83.0424 113.69) scale(9.27627 3.17619)">
<stop stop-color="#ED7F9A"/>
<stop offset="0.353" stop-color="#E77592"/>
<stop offset="0.9496" stop-color="#D85B7E"/>
<stop offset="1" stop-color="#D6587C"/>
</radialGradient>
<linearGradient id="paint2_linear_3_17347" x1="83.1314" y1="102.259" x2="81.9678" y2="111.483" gradientUnits="userSpaceOnUse">
<stop offset="0.4773" stop-color="#D2CFFF"/>
<stop offset="0.5675" stop-color="#E2E0FF"/>
<stop offset="0.6956" stop-color="#F2F1FF"/>
<stop offset="0.834" stop-color="#FCFCFF"/>
<stop offset="1" stop-color="white"/>
</linearGradient>
<clipPath id="clip0_3_17347">
<rect width="198.663" height="198.663" fill="white" transform="translate(0.579102 0.772461)"/>
</clipPath>
</defs>
</svg>
