<svg width="200" height="200" viewBox="0 0 200 200" fill="none" xmlns="http://www.w3.org/2000/svg">
<g clip-path="url(#clip0_3_17643)">
<rect width="198.663" height="198.663" transform="translate(0.868164 0.772461)" fill="#9AB78D"/>
<path d="M199.36 121.847V302.691C199.36 305.058 198.91 307.469 197.979 309.66C197.409 311.008 196.653 312.29 195.743 313.441C195.185 314.164 194.549 314.832 193.859 315.446C192.083 317.035 189.936 318.208 187.645 318.876C185.344 319.544 182.911 319.709 180.555 319.424L20.269 300.389C17.7267 300.083 15.2391 299.261 12.9708 298.023C10.7024 296.795 8.67516 295.162 6.96568 293.234C5.26715 291.305 3.88636 289.092 2.94395 286.692C1.99059 284.303 1.47559 281.728 1.47559 279.163V110.406C12.5105 102.736 25.9673 98.2427 40.4979 98.2427C65.1759 98.2427 86.7746 111.228 98.6314 130.624C111.003 114.34 130.739 103.809 152.984 103.809C170.923 103.809 187.229 110.669 199.36 121.847Z" fill="#FBD5BE"/>
<path d="M199.532 268.94L199.36 302.691C199.36 305.058 198.91 307.468 197.979 309.66C197.409 311.008 196.653 312.29 195.743 313.441C195.185 314.164 194.549 314.832 193.859 315.446C192.083 317.035 189.936 318.207 187.645 318.876C185.344 319.544 182.911 319.709 180.555 319.424L20.269 300.389C17.7267 300.083 15.2391 299.261 12.9708 298.022C10.7024 296.795 8.67517 295.162 6.96568 293.234C5.26715 291.305 3.88636 289.091 2.94395 286.692C1.99059 284.303 1.47559 281.727 1.47559 279.163V201.557C19.8504 192.775 12.5599 178.062 17.6609 130.383C19.2433 115.597 25.7251 101.574 25.8676 101.256C26.3607 100.149 28.0416 97.6498 34.233 96.7183C37.9369 96.1594 40.0146 96.8728 41.3077 98.5494C41.2968 98.5823 27.0335 172.745 84.2104 178.214C130.272 182.619 139.711 148.687 142.757 137.571C145.698 126.837 153.466 107.772 156.184 103.882C156.184 103.882 159.391 100.041 166.681 102.222C170.1 103.244 171.848 104.626 171.837 106.422C171.837 106.422 163.003 144.512 163.003 167.24C163.003 191.468 158.266 293.991 180.384 291.723C195.616 290.162 199.532 268.94 199.532 268.94Z" fill="#EBF0F3" stroke="#871C20" stroke-width="1.54382" stroke-miterlimit="10"/>
<path d="M35.0113 79.492C34.2848 86.4998 39.0035 92.7307 45.5499 93.4101C52.0964 94.0895 57.993 88.9578 58.7195 81.95C59.446 74.9422 54.7275 68.7113 48.181 68.0319C41.6346 67.3536 35.7378 72.4842 35.0113 79.492Z" fill="#FBD5BE"/>
<path d="M57.5601 74.9148C55.8178 71.1791 52.3747 68.4669 48.181 68.0319C41.6346 67.3536 35.7378 72.4842 35.0113 79.492C34.2848 86.4998 39.0035 92.7307 45.5499 93.4101C47.5805 93.6205 49.5486 93.2721 51.3195 92.482" stroke="#871C20" stroke-width="1.54382" stroke-miterlimit="10" stroke-linecap="round" stroke-linejoin="round"/>
<path d="M156.209 100.862C156.832 131.63 131.615 150.613 99.8877 150.613C68.1603 150.613 41.3115 131.637 41.3115 100.862C41.3115 70.0864 68.1603 40.8794 99.8877 40.8794C131.615 40.8794 155.69 75.2806 156.209 100.862Z" fill="#FBD5BE"/>
<path d="M80.8102 62.0231C78.3008 64.5325 75.136 65.4365 73.7421 64.0415C72.3482 62.6477 73.2512 59.4829 75.7606 56.9735C78.2701 54.464 81.4348 53.56 82.8286 54.955C84.2236 56.35 83.3197 59.5136 80.8102 62.0231Z" fill="#871C20" stroke="#871C20" stroke-width="1.54382" stroke-miterlimit="10" stroke-linecap="round" stroke-linejoin="round"/>
<path d="M89.2297 57.1397C91.5748 59.8036 92.275 63.0187 90.7945 64.3217C89.314 65.6246 86.214 64.5211 83.8689 61.8572C81.5239 59.1932 80.8235 55.9781 82.304 54.6751C83.7845 53.3722 86.8846 54.4757 89.2297 57.1397Z" fill="#871C20" stroke="#871C20" stroke-width="1.54382" stroke-miterlimit="10" stroke-linecap="round" stroke-linejoin="round"/>
<path d="M156.209 100.862C156.832 131.63 131.615 150.613 99.8877 150.613C68.1603 150.613 41.3115 131.637 41.3115 100.862C41.3115 70.0864 68.1603 40.8794 99.8877 40.8794C131.615 40.8794 155.69 75.2806 156.209 100.862Z" stroke="#871C20" stroke-width="1.54382" stroke-miterlimit="10" stroke-linecap="round" stroke-linejoin="round"/>
<path d="M72.2206 77.4043C69.812 80.671 69.5238 84.7178 71.4447 88.2924" stroke="#871C20" stroke-width="7.71911" stroke-miterlimit="10" stroke-linecap="round" stroke-linejoin="round"/>
<path d="M100.805 79.1484C98.396 82.414 98.1077 86.4619 100.029 90.0365" stroke="#871C20" stroke-width="7.71911" stroke-miterlimit="10" stroke-linecap="round" stroke-linejoin="round"/>
<path d="M79.6801 99.4676L73.1568 96.3938C70.5488 95.1413 69.4495 92.0127 70.7021 89.4057C71.9535 86.7977 75.0833 85.6986 77.6902 86.9511L84.2137 90.0249" fill="#FBD5BE"/>
<path d="M79.6801 99.4676L73.1568 96.3938C70.5488 95.1413 69.4495 92.0127 70.7021 89.4057C71.9535 86.7977 75.0833 85.6986 77.6902 86.9511L84.2137 90.0249" stroke="#871C20" stroke-width="1.54382" stroke-miterlimit="10" stroke-linecap="round" stroke-linejoin="round"/>
<path d="M93.5677 118.262C92.5946 118.22 91.6314 117.974 90.7427 117.532C88.5488 116.443 86.2377 116.443 82.9754 117.423C80.3488 118.212 77.3648 117.414 75.5041 115.091C73.1141 112.107 73.8823 107.553 76.8158 105.101C83.1563 99.804 92.5343 100.187 98.4211 105.972C101.543 109.04 101.625 114.038 98.1975 116.76C96.8442 117.835 95.1939 118.331 93.5677 118.262Z" fill="#871C20" stroke="#871C20" stroke-width="1.54382" stroke-miterlimit="10" stroke-linecap="round" stroke-linejoin="round"/>
<path d="M83.7563 115.931C83.7563 115.931 79.5275 118.762 74.8253 121.716V121.727C69.9423 124.794 64.575 128.03 62.8842 128.425C60.9785 128.864 58.96 127.816 58.3058 125.978C57.5168 123.791 58.7452 121.433 60.9445 120.79C60.9785 120.779 61.0235 120.779 61.0574 120.779L72.2206 117.183C72.2206 117.183 72.2206 117.183 72.2316 117.183L82.7865 113.789C84.1278 113.35 84.9628 115.21 83.7563 115.931Z" fill="white" stroke="#871C20" stroke-width="1.54382" stroke-miterlimit="10" stroke-linecap="round" stroke-linejoin="round"/>
<path d="M83.7557 115.932C83.7557 115.932 79.5269 118.762 74.8247 121.717C75.4 117.646 72.4797 117.217 72.231 117.183L82.7859 113.789C84.1272 113.35 84.9622 115.211 83.7557 115.932Z" fill="#F4736C" stroke="#871C20" stroke-width="1.54382" stroke-miterlimit="10" stroke-linecap="round" stroke-linejoin="round"/>
<path d="M64.419 123.827C65.0732 125.526 64.3106 127.401 62.7161 128.014C61.1217 128.629 59.2982 127.75 58.644 126.052C57.9898 124.353 58.7524 122.478 60.3469 121.863C61.9413 121.251 63.7648 122.13 64.419 123.827Z" fill="#871C20"/>
<path d="M112.579 80.7203C108.105 82.4517 105.217 81.93 100.714 81.7755C94.6292 81.5662 91.6486 80.3531 91.3976 80.2194C90.1013 79.528 89.0186 77.7133 89.2915 76.1824C89.2915 76.1824 92.1538 74.0609 98.183 74.2614C104.211 74.463 112.579 80.7203 112.579 80.7203Z" fill="#FBD5BE"/>
<path d="M80.1195 76.3196C80.0713 78.1409 78.8582 79.6115 77.2331 80.201C74.3094 81.2618 71.0658 81.0591 68.8259 80.6668C63.8487 79.7934 59.7196 79.2937 59.3799 78.8302C59.3799 78.8302 64.047 72.4623 70.9496 72.2421C77.8511 72.0218 80.1195 76.3196 80.1195 76.3196Z" fill="#FBD5BE"/>
<path d="M62.3315 80.5704C65.4711 80.6208 73.8487 81.0427 77.2337 80.2022C78.896 79.7913 80.0719 78.1421 80.1201 76.3208" stroke="#871C20" stroke-width="1.54382" stroke-miterlimit="10" stroke-linecap="round" stroke-linejoin="round"/>
<path d="M111.784 81.5221C104.683 82.0142 94.8779 82.3812 91.7022 80.6421C89.5928 79.4861 89.0197 77.713 89.2915 76.1821" stroke="#871C20" stroke-width="1.54382" stroke-miterlimit="10" stroke-linecap="round" stroke-linejoin="round"/>
<path d="M88.7916 101.453V107.798C88.1231 107.798 87.4437 107.776 86.7534 107.754C82.5235 107.579 78.6662 107.031 75.7075 106.253C76.0253 105.837 76.3979 105.453 76.8143 105.102C80.2552 102.22 84.5946 101.015 88.7916 101.453Z" fill="white" stroke="#871C20" stroke-width="1.54382" stroke-miterlimit="10" stroke-linecap="round" stroke-linejoin="round"/>
<path d="M99.212 106.911C97.2505 107.349 94.7959 107.645 92.0454 107.765V102.133C94.3686 102.867 96.5601 104.149 98.4121 105.968C98.7189 106.264 98.9929 106.582 99.212 106.911Z" fill="white" stroke="#871C20" stroke-width="1.54382" stroke-miterlimit="10" stroke-linecap="round" stroke-linejoin="round"/>
<path d="M153.153 61.0305C153.629 62.6326 153.991 64.2687 154.249 65.9245C123.176 64.25 73.7261 53.7016 64.623 42.8584C90.1382 16.2814 143.903 27.2802 153.153 61.0305Z" fill="#8D95B7" stroke="#871C20" stroke-width="1.54382" stroke-miterlimit="10"/>
<path d="M160.84 78.1101C159.408 82.3433 157.021 88.7516 152.036 90.5411C150.973 86.9753 150.088 85.153 148.598 81.997C141.617 64.4715 80.7046 50.1293 59.8335 60.4794C57.2167 61.7768 54.647 63.7613 52.2121 67.0477C49.3388 63.9147 50.0752 58.5759 51.331 52.8086C52.7753 46.1778 56.8968 43.779 58.0671 43.1884C81.4827 31.3666 140.323 47.0566 157.604 62.4387C163.068 67.4784 162.26 73.9087 160.84 78.1101Z" fill="#8D95B7" stroke="#871C20" stroke-width="1.54382" stroke-miterlimit="10"/>
<path d="M166.103 92.3038C167.3 84.9283 162.291 77.979 154.916 76.782C147.54 75.585 140.591 80.5936 139.394 87.9691C138.197 95.3446 143.206 102.294 150.581 103.491C157.957 104.688 164.906 99.6793 166.103 92.3038Z" fill="#FBD5BE"/>
<path d="M141.321 82.8454C143.727 79.0955 147.931 76.6113 152.718 76.6113C160.19 76.6113 166.247 82.669 166.247 90.1403C166.247 97.6128 160.189 103.669 152.718 103.669C150.4 103.669 148.218 103.086 146.312 102.06" stroke="#871C20" stroke-width="1.54382" stroke-miterlimit="10" stroke-linecap="round" stroke-linejoin="round"/>
<path d="M152.147 98.894C151.088 98.894 150.072 98.6912 149.148 98.3186C146.138 97.1231 144.006 94.1918 144.006 90.752C144.006 89.0042 144.559 87.3801 145.518 86.0498C146.984 83.9754 149.408 82.6221 152.148 82.6221C153.949 82.6221 155.612 83.205 156.96 84.1934" stroke="#871C20" stroke-width="1.54382" stroke-miterlimit="10" stroke-linecap="round" stroke-linejoin="round"/>
<path d="M150.648 93.6055C150.648 95.3534 150.096 96.9883 149.148 98.3186C146.138 97.1231 144.006 94.1918 144.006 90.752C144.006 89.0042 144.559 87.3801 145.518 86.0498C148.529 87.2344 150.648 90.1657 150.648 93.6055Z" fill="#871C20" stroke="#871C20" stroke-width="1.54382" stroke-miterlimit="10" stroke-linecap="round" stroke-linejoin="round"/>
<path d="M88.9625 159.659C90.8331 162.883 89.7351 167.013 86.5112 168.884C83.9316 170.38 80.6277 169.502 79.1319 166.923C77.9353 164.86 78.6377 162.217 80.7012 161.02C82.3515 160.062 84.4663 160.625 85.4241 162.275C86.1901 163.595 85.7408 165.287 84.4203 166.053C83.3639 166.666 82.0106 166.306 81.3981 165.25" stroke="#871C20" stroke-width="1.54382" stroke-miterlimit="10" stroke-linecap="round" stroke-linejoin="round"/>
</g>
<defs>
<clipPath id="clip0_3_17643">
<rect width="198.663" height="198.663" fill="white" transform="translate(0.868164 0.772461)"/>
</clipPath>
</defs>
</svg>
