<svg width="199" height="200" viewBox="0 0 199 200" fill="none" xmlns="http://www.w3.org/2000/svg">
<g clip-path="url(#clip0_3_17390)">
<rect width="198.663" height="198.663" transform="translate(0.290039 0.772461)" fill="#D9B7F3"/>
<path d="M187.776 170.418L187.735 277.016C187.735 279.026 187.362 281.067 186.564 282.931C186.078 284.071 185.446 285.158 184.669 286.132C184.192 286.743 183.654 287.313 183.063 287.841C181.561 289.177 179.738 290.182 177.791 290.741C175.844 291.311 173.782 291.456 171.783 291.218L35.7981 275.059C33.6436 274.8 31.5304 274.106 29.6038 273.049C27.6875 272.013 25.968 270.625 24.5178 268.989C23.0677 267.362 21.8971 265.477 21.0995 263.447C20.2916 261.417 19.8462 259.221 19.8462 257.056V159.739C23.4095 154.539 29.262 149.722 37.1758 145.713C44.9446 141.767 54.6918 138.597 66.2 136.588C75.0253 135.044 84.8969 134.185 95.7007 134.185C109.27 134.185 124.984 136.857 139.641 141.29C151.833 144.978 163.289 149.878 172.146 155.471C179.469 160.081 185.021 165.167 187.776 170.418Z" fill="url(#paint0_linear_3_17390)"/>
<path d="M131.447 176.28C136.344 181.819 139.793 187.17 141.885 190.821C143.321 193.326 142.324 196.516 139.72 197.762L87.952 222.51C83.5704 224.602 78.6916 220.676 79.8413 215.963C80.7322 212.286 82.0995 207.873 84.1608 203.026L46.8282 177.162C45.0869 175.956 44.9533 173.428 46.565 172.053C49.6819 169.394 54.858 165.185 60.8648 161.115C53.0836 156.958 46.305 152.396 41.9825 149.298C39.7254 147.68 40.1501 144.231 42.7159 143.171C49.4177 140.398 57.2798 138.144 66.1994 136.586C66.1994 136.814 66.2201 137.052 66.2615 137.301C67.1213 143.775 68.7786 149.762 70.9332 155.241C71.3889 156.433 71.8758 157.593 72.3833 158.722C72.4351 158.836 72.4869 158.939 72.5387 159.053C73.0463 160.193 73.5849 161.301 74.1339 162.399C74.1857 162.492 74.2375 162.585 74.2789 162.679C74.8486 163.777 75.4287 164.854 76.0191 165.9C76.0606 165.983 76.1123 166.056 76.1538 166.138C81.2087 174.974 87.3097 182.059 92.7272 187.332C98.1964 179.242 105.706 170.789 116.044 162.855C124.994 154.61 133.715 147.286 139.64 141.289C149.888 144.388 159.615 148.344 167.717 152.849C169.783 153.997 169.856 156.945 167.85 158.197C158.416 164.086 142.56 173.325 131.457 176.279H131.447V176.28Z" fill="#616F93"/>
<path d="M187.776 170.418L187.735 277.016C187.735 279.026 187.362 281.067 186.564 282.931C186.078 284.071 185.446 285.158 184.669 286.132C184.192 286.743 183.654 287.313 183.063 287.841C181.561 289.177 179.738 290.182 177.791 290.741C175.844 291.311 173.782 291.456 171.783 291.218L35.7981 275.059C33.6436 274.8 31.5304 274.106 29.6038 273.049C27.6875 272.013 25.968 270.625 24.5178 268.989C23.0677 267.362 21.8971 265.477 21.0995 263.447C20.2916 261.417 19.8462 259.221 19.8462 257.056V159.739C23.4095 154.539 29.262 149.722 37.1758 145.713C44.9446 141.767 54.6918 138.597 66.2 136.588C75.0253 135.044 84.8969 134.185 95.7007 134.185C109.27 134.185 124.984 136.857 139.641 141.29C151.833 144.978 163.289 149.878 172.146 155.471C179.469 160.081 185.021 165.167 187.776 170.418Z" stroke="#871C20" stroke-width="1.51375" stroke-miterlimit="10"/>
<path d="M132.586 151.129C132.586 171.114 117.174 187.315 98.1629 187.315C79.1521 187.315 61.3481 167.147 61.3481 147.161C61.3481 127.177 79.1511 114.943 98.1629 114.943C117.174 114.943 132.586 131.145 132.586 151.129Z" fill="#F5B2A0"/>
<path d="M172.075 147.643C172.075 147.643 144.492 166.392 127.738 170.853C116.499 173.846 108.96 160.53 112.33 157.427C126.238 144.619 139.605 134.013 142.767 127.221L172.075 147.643Z" fill="#747FA3" stroke="#871C20" stroke-width="1.51375" stroke-miterlimit="10" stroke-linecap="round" stroke-linejoin="round"/>
<path d="M79.855 164.691C59.5661 158.056 39.3838 141.872 39.3838 141.872C39.3838 141.872 55.3585 134.289 69.8188 125.497C70.3906 128.495 68.1604 130.054 68.6317 133.595C70.2528 145.69 74.595 156.087 79.855 164.691Z" fill="#747FA3" stroke="#871C20" stroke-width="1.51375" stroke-miterlimit="10" stroke-linecap="round" stroke-linejoin="round"/>
<path d="M104.407 191.655C99.4008 198.188 94.7271 205.006 94.7271 205.006L45.8086 171.111C45.8086 171.111 59.0653 158.842 73.2283 151.362C81.341 172.213 96.748 185.857 104.407 191.655Z" fill="#747FA3" stroke="#871C20" stroke-width="1.51375" stroke-miterlimit="10" stroke-linecap="round" stroke-linejoin="round"/>
<path d="M140.636 190.121L84.2363 217.081C79.8547 219.175 74.9759 215.254 76.1257 210.534C79.2487 197.719 87.9726 176.132 112.33 157.426C131.778 170.038 140.636 190.121 140.636 190.121Z" fill="#747FA3" stroke="#871C20" stroke-width="1.51375" stroke-miterlimit="10" stroke-linecap="round" stroke-linejoin="round"/>
<path d="M164.539 137.201C161.769 138.431 158.994 139.67 156.224 140.901C156.224 140.901 156.223 140.901 156.223 140.902C156.223 140.902 156.223 140.902 156.222 140.902C155.336 141.25 154.78 142.266 154.888 143.176C154.887 143.158 154.888 143.142 154.888 143.123C154.893 143.17 154.893 143.216 154.898 143.264C154.896 143.243 154.892 143.223 154.89 143.202C154.898 143.32 154.914 143.431 154.933 143.545V143.544C154.94 143.576 154.945 143.608 154.952 143.638C154.975 143.748 154.996 143.834 155.037 143.971C155.986 146.896 159.93 149.52 162.984 148.85C163.866 148.657 164.659 147.905 164.755 146.975C164.76 146.94 164.762 146.904 164.766 146.869C164.761 146.904 164.76 146.94 164.755 146.974C164.77 146.874 164.776 146.791 164.78 146.73C164.865 144.762 165.17 137.635 165.17 137.635C165.171 137.34 164.816 137.094 164.539 137.201Z" fill="url(#paint1_linear_3_17390)" stroke="#871C20" stroke-width="1.51375" stroke-miterlimit="10" stroke-linecap="round" stroke-linejoin="round"/>
<path d="M45.3818 132.568C45.3818 132.569 45.3818 132.569 45.3818 132.568C45.3818 132.568 45.4699 139.701 45.4948 141.671C45.4968 141.731 45.501 141.815 45.5124 141.916C45.5082 141.881 45.5072 141.845 45.5051 141.81C45.5082 141.845 45.5082 141.883 45.5124 141.917C45.5807 142.848 46.3493 143.624 47.2267 143.845C50.2586 144.607 54.2807 142.103 55.3176 139.209C55.3632 139.072 55.386 138.987 55.4119 138.878C55.4191 138.848 55.4264 138.816 55.4336 138.783C55.4336 138.785 55.4336 138.784 55.4336 138.784C55.4564 138.672 55.4751 138.562 55.4875 138.443C55.4854 138.462 55.4802 138.484 55.4782 138.505C55.4844 138.457 55.4854 138.412 55.4927 138.365C55.4916 138.383 55.4927 138.399 55.4906 138.417C55.6253 137.51 55.1001 136.478 54.2259 136.103C54.2259 136.103 54.2259 136.103 54.2248 136.103C54.2248 136.103 54.2238 136.103 54.2238 136.102C51.4923 134.786 48.7566 133.463 46.0251 132.151C45.7496 132.038 45.3881 132.272 45.3818 132.568Z" fill="url(#paint2_linear_3_17390)" stroke="#871C20" stroke-width="1.51375" stroke-miterlimit="10" stroke-linecap="round" stroke-linejoin="round"/>
<path d="M132.149 189.843C132.155 189.835 132.162 189.828 132.168 189.82C134.05 187.681 133.401 183.893 130.638 182.257C130.633 182.254 130.626 182.25 130.62 182.247C130.624 182.249 130.629 182.252 130.634 182.255C130.521 182.189 130.407 182.121 130.293 182.058C130.18 182 130.05 181.937 129.931 181.882L129.922 181.877C129.921 181.877 129.921 181.877 129.92 181.876C129.919 181.876 129.919 181.875 129.918 181.875C129.861 181.853 129.796 181.825 129.738 181.8H129.737C129.631 181.759 129.498 181.708 129.388 181.673C129.317 181.653 129.248 181.63 129.177 181.61L129.155 181.602C129.153 181.602 129.151 181.601 129.149 181.601C129.147 181.6 129.145 181.6 129.143 181.599L129.118 181.593C128.934 181.545 128.749 181.503 128.562 181.475C128.559 181.475 128.555 181.474 128.552 181.473C128.308 181.433 128.061 181.411 127.814 181.408C127.815 181.408 127.815 181.408 127.816 181.408C127.709 181.407 127.603 181.404 127.497 181.41C127.492 181.41 127.486 181.41 127.481 181.41C127.329 181.421 127.176 181.429 127.023 181.45C127.034 181.449 127.046 181.446 127.056 181.445C126.937 181.459 126.814 181.485 126.697 181.502C126.688 181.504 126.675 181.507 126.666 181.509C126.656 181.511 126.642 181.513 126.632 181.515C126.46 181.556 126.289 181.598 126.126 181.649L126.136 181.646L126.126 181.649C126.122 181.65 126.119 181.651 126.116 181.653L125.969 181.704L125.916 181.721C125.911 181.723 125.905 181.727 125.9 181.729L125.88 181.736C125.877 181.737 125.875 181.739 125.872 181.74C125.867 181.741 125.864 181.743 125.86 181.744L125.839 181.751L125.837 181.752C124.765 182.253 124.121 182.579 123.284 184.09C123.195 184.271 123.139 184.407 123.063 184.626C123.051 184.653 122.986 184.862 122.961 184.974L122.938 185.056C122.935 185.07 122.932 185.088 122.929 185.103C122.925 185.119 122.92 185.137 122.916 185.151L122.914 185.16C122.914 185.161 122.913 185.162 122.913 185.163C122.903 185.211 122.895 185.269 122.884 185.32C122.868 185.391 122.857 185.469 122.847 185.543C122.848 185.534 122.85 185.524 122.851 185.515C122.85 185.52 122.85 185.525 122.85 185.53C122.837 185.618 122.826 185.715 122.819 185.823L122.817 185.844C122.817 185.858 122.816 185.874 122.816 185.889C122.815 185.902 122.813 185.919 122.812 185.932V185.971C122.807 186.063 122.805 186.187 122.807 186.282C122.807 186.267 122.808 186.247 122.808 186.23C122.807 186.398 122.816 186.54 122.829 186.667C122.829 186.668 122.829 186.67 122.83 186.672C122.831 186.679 122.832 186.688 122.833 186.697C122.832 186.688 122.831 186.679 122.83 186.672C122.831 186.678 122.831 186.684 122.832 186.689L122.837 186.718C122.837 186.741 122.842 186.763 122.846 186.786C122.859 186.894 122.875 187.009 122.891 187.104L122.883 187.047C122.889 187.089 122.896 187.132 122.905 187.172C122.905 187.173 122.905 187.173 122.905 187.175C122.905 187.177 122.906 187.179 122.907 187.181C122.942 187.358 122.966 187.462 123.006 187.594C123.043 187.731 123.107 187.914 123.172 188.077C123.174 188.084 123.176 188.089 123.178 188.096C123.186 188.116 123.197 188.142 123.204 188.16C123.2 188.15 123.196 188.137 123.191 188.126C123.208 188.168 123.227 188.212 123.246 188.254L123.263 188.299C123.265 188.304 123.268 188.309 123.271 188.315C123.273 188.32 123.275 188.326 123.277 188.33L123.303 188.382C123.411 188.622 123.533 188.822 123.668 189.042L123.68 189.057C124.264 189.954 125.112 190.671 126.091 191.1C126.097 191.103 126.107 191.107 126.113 191.11C126.114 191.11 126.114 191.11 126.114 191.111C126.115 191.111 126.115 191.112 126.116 191.112C126.238 191.164 126.352 191.208 126.472 191.254C126.469 191.253 126.465 191.252 126.462 191.251L126.474 191.255C128.394 191.956 130.59 191.6 132.004 190.006C132.054 189.956 132.101 189.899 132.149 189.843Z" fill="url(#paint3_radial_3_17390)" stroke="#871C20" stroke-width="1.51375" stroke-miterlimit="10" stroke-linecap="round" stroke-linejoin="round"/>
<path d="M54.2356 171.519C54.794 173.401 56.4876 174.555 58.3624 174.721L58.3738 174.723C58.3707 174.723 58.3676 174.722 58.3645 174.722C58.4836 174.73 58.5955 174.738 58.7177 174.742C58.7188 174.742 58.7188 174.742 58.7198 174.742C58.7208 174.742 58.7208 174.742 58.7208 174.742C58.7281 174.742 58.7364 174.742 58.7436 174.742C59.7287 174.766 60.7159 174.5 61.5538 173.979L61.5694 173.97C61.7683 173.84 61.9475 173.72 62.1319 173.563L62.1743 173.53C62.1774 173.526 62.1826 173.522 62.1857 173.519C62.1899 173.516 62.194 173.512 62.1981 173.509L62.2303 173.479C62.2634 173.45 62.2955 173.422 62.3266 173.393C62.3183 173.4 62.31 173.409 62.3028 173.416C62.3173 173.402 62.3359 173.386 62.3494 173.372C62.3546 173.367 62.3577 173.364 62.3618 173.36C62.4799 173.249 62.6042 173.121 62.6891 173.021C62.7741 172.928 62.8342 172.849 62.9326 172.715C62.9336 172.713 62.9357 172.712 62.9367 172.71C62.9377 172.709 62.9367 172.709 62.9377 172.708C62.9605 172.678 62.9833 172.646 63.0051 172.612L62.9761 172.655C63.0268 172.583 63.0848 172.493 63.1387 172.408C63.1511 172.39 63.1636 172.374 63.1729 172.355L63.1874 172.332C63.1905 172.328 63.1926 172.323 63.1957 172.318C63.1915 172.324 63.1874 172.331 63.1832 172.337C63.1874 172.331 63.1915 172.324 63.1957 172.318C63.1967 172.317 63.1977 172.314 63.1977 172.314C63.2588 172.214 63.322 172.099 63.3863 171.958C63.38 171.972 63.3728 171.988 63.3666 172.002C63.4049 171.923 63.4525 171.818 63.4836 171.741L63.4981 171.707C63.5023 171.696 63.5075 171.682 63.5116 171.67C63.5168 171.658 63.523 171.643 63.5282 171.632L63.5344 171.614C63.5706 171.52 63.5996 171.436 63.6224 171.357C63.6235 171.353 63.6255 171.348 63.6266 171.344C63.6245 171.352 63.6214 171.362 63.6193 171.369C63.639 171.304 63.6607 171.235 63.6752 171.169C63.6866 171.123 63.7022 171.07 63.7125 171.027C63.7125 171.026 63.7125 171.025 63.7125 171.024L63.7146 171.014C63.7167 171.001 63.7198 170.984 63.7229 170.97C63.726 170.955 63.7301 170.939 63.7333 170.926L63.7467 170.849C63.7695 170.745 63.7975 170.544 63.7975 170.517C63.8203 170.307 63.8265 170.169 63.8234 169.985C63.7157 168.397 63.3055 167.873 62.6063 167.037L62.6052 167.036L62.5907 167.021C62.5887 167.018 62.5856 167.016 62.5835 167.014C62.5814 167.012 62.5804 167.01 62.5783 167.008L62.5648 166.994C62.5617 166.99 62.5566 166.986 62.5535 166.982L62.5162 166.947L62.4136 166.846C62.4115 166.844 62.4084 166.841 62.4063 166.839L62.3991 166.833L62.4053 166.839C62.2893 166.732 62.1629 166.631 62.0355 166.529C62.0273 166.524 62.0179 166.517 62.0096 166.511C62.0024 166.504 61.9931 166.498 61.9858 166.492C61.8947 166.432 61.8014 166.363 61.7092 166.305C61.7165 166.31 61.7258 166.316 61.7341 166.321C61.616 166.244 61.4917 166.178 61.3684 166.109C61.3643 166.107 61.3602 166.105 61.356 166.103C61.269 166.057 61.1799 166.017 61.0908 165.976L61.0919 165.977C60.8847 165.883 60.6693 165.805 60.4497 165.743C60.4476 165.742 60.4445 165.742 60.4414 165.741C60.2736 165.691 60.1027 165.655 59.9307 165.623L59.9079 165.618C59.9058 165.618 59.9038 165.617 59.9017 165.617C59.8996 165.617 59.8976 165.616 59.8965 165.616L59.8758 165.613C59.8085 165.602 59.7422 165.594 59.6748 165.583C59.5692 165.569 59.4387 165.56 59.3341 165.552H59.333C59.275 165.549 59.2108 165.548 59.1549 165.544C59.1538 165.544 59.1538 165.544 59.1528 165.544C59.1517 165.544 59.1518 165.544 59.1507 165.544H59.1414C59.0212 165.543 58.8887 165.545 58.7706 165.549C58.6504 165.558 58.5282 165.569 58.408 165.58C58.4122 165.58 58.4184 165.579 58.4225 165.579C58.4163 165.579 58.409 165.58 58.4028 165.582C55.459 165.867 53.4391 168.775 54.1735 171.295C54.1756 171.305 54.1787 171.314 54.1808 171.322C54.1973 171.388 54.2149 171.454 54.2356 171.519Z" fill="url(#paint4_radial_3_17390)" stroke="#871C20" stroke-width="1.51375" stroke-miterlimit="10" stroke-linecap="round" stroke-linejoin="round"/>
<path d="M153.85 152.828C153.866 152.491 153.833 152.167 153.771 151.839C153.5 150.659 153.345 149.431 153.012 148.275C152.953 148.183 152.845 148.129 152.737 148.116C151.371 148.06 150 147.886 148.635 147.908C148.603 147.909 148.57 147.911 148.538 147.916C148.508 147.92 148.478 147.923 148.45 147.926C148.462 147.924 148.475 147.925 148.486 147.923C148.472 147.925 148.456 147.925 148.442 147.927H148.443H148.442C148.17 147.967 147.924 148.017 147.664 148.116C147.465 148.182 147.21 148.305 147.013 148.43C146.963 148.461 146.916 148.492 146.869 148.525C146.096 149.048 145.57 149.954 145.469 150.873C145.438 151.111 145.437 151.364 145.445 151.581C145.504 152.357 145.688 152.904 146.045 153.546C146.086 153.617 146.127 153.686 146.171 153.755C146.229 153.855 146.301 153.954 146.376 154.055C146.374 154.052 146.372 154.05 146.37 154.047C146.373 154.051 146.376 154.055 146.379 154.059C146.378 154.058 146.377 154.057 146.376 154.055C146.752 154.562 147.23 155.003 147.761 155.347C147.775 155.355 147.788 155.362 147.801 155.37C147.943 155.455 148.087 155.54 148.233 155.614C148.232 155.613 148.23 155.612 148.229 155.612C148.249 155.621 148.27 155.63 148.289 155.64C148.278 155.634 148.265 155.63 148.254 155.624C149.475 156.237 151.05 156.337 152.24 155.608C152.434 155.508 152.85 155.171 153.018 154.958C153.076 154.893 153.068 154.907 153.165 154.78C153.166 154.778 153.168 154.777 153.169 154.775C153.174 154.767 153.179 154.759 153.186 154.753C153.594 154.221 153.826 153.503 153.85 152.828Z" fill="url(#paint5_linear_3_17390)" stroke="#871C20" stroke-width="1.51375" stroke-miterlimit="10" stroke-linecap="round" stroke-linejoin="round"/>
<path d="M58.4954 150.604C58.5006 150.61 58.5069 150.616 58.512 150.621C58.5131 150.622 58.5151 150.624 58.5162 150.625C58.6177 150.728 58.6084 150.716 58.6674 150.768C58.8414 150.939 59.2506 151.194 59.4339 151.26C60.5775 151.778 61.9707 151.514 62.992 150.83C62.9827 150.837 62.9713 150.842 62.962 150.848C62.9786 150.837 62.9962 150.826 63.0128 150.816C63.0117 150.817 63.0107 150.818 63.0086 150.819C63.1308 150.737 63.2499 150.645 63.367 150.553C63.3784 150.543 63.3888 150.536 63.4012 150.527C63.8363 150.16 64.2133 149.715 64.4919 149.22C64.4909 149.221 64.4909 149.222 64.4899 149.223C64.4919 149.219 64.494 149.214 64.4971 149.211C64.495 149.214 64.494 149.217 64.493 149.22C64.5489 149.122 64.6027 149.025 64.6431 148.93C64.6742 148.863 64.7032 148.796 64.7322 148.729C64.9788 148.115 65.0824 147.607 65.0482 146.909C65.0306 146.713 65.0026 146.488 64.9477 146.279C64.755 145.47 64.1843 144.721 63.4364 144.341C63.3919 144.317 63.3453 144.294 63.2976 144.272C63.1081 144.183 62.8677 144.102 62.6823 144.065C62.4389 144.005 62.2131 143.989 61.9666 143.982H61.9655C61.9655 143.982 61.9655 143.982 61.9666 143.982C61.9531 143.982 61.9396 143.984 61.9272 143.983C61.9376 143.983 61.9489 143.982 61.9603 143.982C61.9344 143.982 61.9075 143.983 61.8806 143.983C61.8516 143.982 61.8226 143.985 61.7925 143.987C60.5713 144.119 59.3687 144.428 58.1557 144.631C58.0614 144.655 57.9713 144.714 57.9288 144.803C57.761 145.871 57.76 146.984 57.6502 148.067C57.6316 148.365 57.6378 148.659 57.6896 148.959C57.7849 149.559 58.0718 150.173 58.4954 150.604Z" fill="url(#paint6_linear_3_17390)" stroke="#871C20" stroke-width="1.51375" stroke-miterlimit="10" stroke-linecap="round" stroke-linejoin="round"/>
<path d="M40.7184 85.2227C41.9583 93.5798 46.1918 101.475 52.6036 102.488C59.0155 103.501 64.435 97.4041 64.7085 88.8698C64.9819 80.3356 60.0493 72.3368 53.5939 71.5838C44.1015 70.4765 39.463 76.7578 40.7184 85.2227Z" fill="#FBD5BE"/>
<path d="M63.5888 81.414C61.7947 76.2223 58.0088 72.427 53.594 71.5839C45.2006 69.9825 38.7825 76.2793 40.9961 86.8428C42.755 95.2362 46.1919 101.475 52.6038 102.488C56.1142 103.042 59.3274 101.466 61.5617 98.5239" stroke="#871C20" stroke-width="1.51375" stroke-miterlimit="10" stroke-linecap="round" stroke-linejoin="round"/>
<path d="M157.846 100.609C157.476 128.829 140.697 147.804 99.3418 147.145C68.9752 146.662 47.5084 127.076 47.8782 98.8568C48.248 70.6374 70.3155 44.4711 100.682 44.9559C137.269 45.539 158.216 72.391 157.846 100.609Z" fill="#FBD5BE"/>
<path d="M157.846 100.609C157.476 128.829 140.697 147.804 99.3418 147.145C68.9752 146.662 47.5084 127.076 47.8782 98.8568C48.248 70.6374 70.3155 44.4711 100.682 44.9559C137.269 45.539 158.216 72.391 157.846 100.609Z" stroke="#871C20" stroke-width="1.51375" stroke-miterlimit="10" stroke-linecap="round" stroke-linejoin="round"/>
<path d="M76.7236 95.019C77.2208 96.4278 78.2277 98.1266 79.1807 99.2049C79.191 99.2152 79.2014 99.2256 79.2117 99.2256C81.1902 101.463 84.0387 102.851 87.2706 102.83C89.8187 102.81 92.2737 101.888 94.3039 100.355C96.0338 99.0702 97.4528 97.3611 98.3644 95.4137" stroke="#871C20" stroke-width="1.51375" stroke-miterlimit="10" stroke-linecap="round" stroke-linejoin="round"/>
<path d="M94.3059 100.355C94.2645 101.857 93.9434 103.317 93.4358 104.819C92.8765 106.363 92.1307 107.948 90.3801 108.818C88.7228 109.657 86.0089 109.512 83.5436 107.948C81.1611 106.466 79.0066 103.597 79.1205 100.231C79.1205 99.8784 79.1413 99.5365 79.1827 99.2051C79.193 99.2154 79.2034 99.2258 79.2138 99.2258C81.1922 101.463 84.0408 102.851 87.2726 102.831C89.8208 102.81 92.2757 101.888 94.3059 100.355Z" fill="white" stroke="#871C20" stroke-width="1.51375" stroke-miterlimit="10"/>
<path d="M117.385 76.3952C128.755 76.4387 143.437 81.1932 150.736 75.3086" stroke="#871C20" stroke-width="6.055" stroke-miterlimit="10" stroke-linecap="round" stroke-linejoin="round"/>
<path d="M103.076 97.0528C102.279 97.0476 101.498 96.9813 100.736 96.858C99.5651 96.6705 98.4361 96.3494 97.364 95.9123C94.5061 94.747 92.0408 92.7478 90.2136 90.2028C89.5019 89.2115 88.8877 88.1373 88.3822 86.9958C88.0839 86.3194 87.8032 85.2463 86.7694 85.2287C85.9521 85.2152 85.457 86.2593 85.1369 86.9067C84.6325 87.9301 83.8618 89.428 83.3367 90.1344C80.8455 93.4843 77.2635 95.558 73.3046 95.5373C72.0999 95.5301 70.9356 95.3301 69.8304 94.9624C68.8743 94.6434 67.9627 94.199 67.1071 93.6438C66.1977 93.0544 65.3514 92.3418 64.5849 91.5224C63.4082 90.2701 62.4137 88.7681 61.6545 87.088C60.63 84.8174 60.0344 82.2144 59.9992 79.4363C59.9878 78.5392 60.0355 77.6588 60.138 76.799C60.3493 75.0277 61.7518 73.8013 63.3729 73.7246C65.5699 73.62 116.562 74.2198 116.795 74.2736C118.408 74.6476 119.645 75.9952 119.769 77.7468C119.794 78.1083 119.81 78.4729 119.816 78.8406C119.966 88.9608 112.346 97.117 103.076 97.0528Z" fill="#871C20"/>
<path d="M64.6899 78.0859L74.9375 78.2496" stroke="white" stroke-width="4.54125" stroke-miterlimit="10" stroke-linecap="round" stroke-linejoin="round"/>
<path d="M112.491 78.7515L114.02 78.7763" stroke="white" stroke-width="4.54125" stroke-miterlimit="10" stroke-linecap="round" stroke-linejoin="round"/>
<path d="M95.6973 78.5811L106.401 78.7519" stroke="white" stroke-width="4.54125" stroke-miterlimit="10" stroke-linecap="round" stroke-linejoin="round"/>
<path d="M123.718 19.6312C119.152 18.1033 114.005 18.0815 108.426 19.3929C106.178 19.9212 104.324 20.2672 102.587 22.082C100.712 23.7093 100.886 43.6523 100.744 54.484C97.4348 54.9284 92.498 54.4871 90.4512 54.2437C89.3273 54.1101 88.4655 53.6077 87.9931 52.9323C84.985 48.616 80.6614 30.2785 79.9591 25.089C79.7613 23.6253 79.8815 22.4808 80.4978 21.8054C82.9403 19.134 90.2109 18.2701 95.2854 18.0733C100.41 17.8733 110.747 18.3187 115.887 18.2908V18.2918C118.559 18.24 121.215 18.7238 123.718 19.6312Z" fill="#871C20" stroke="#871C20" stroke-width="1.51375" stroke-miterlimit="10" stroke-linecap="round" stroke-linejoin="round"/>
<path d="M132.769 28.4301C131.759 31.9167 127.849 50.3546 127.543 51.0165C127.535 51.0424 127.527 51.059 127.527 51.059C118.271 47.8779 112.172 48.5139 103.433 53.6465C102.865 54.0712 101.906 54.3333 100.744 54.4866C100.888 43.6527 100.71 23.7139 102.593 22.0845C104.324 20.2687 106.182 19.9207 108.43 19.3955C108.667 19.3364 108.914 19.2857 109.151 19.2339C109.151 19.2339 111.799 22.1446 111.799 27.9412C111.799 27.9412 113.707 20.855 113.723 18.5471C117.286 18.2592 120.637 18.6062 123.717 19.6327C126.576 20.6675 129.232 22.2544 131.488 24.2391C131.504 24.2474 131.514 24.2556 131.522 24.265C131.548 24.2909 131.581 24.3157 131.615 24.3416C131.7 24.4266 131.793 24.5115 131.87 24.5964C132.931 25.7069 133.117 27.0638 132.769 28.4301Z" fill="#F4736C" stroke="#871C20" stroke-width="1.51375" stroke-miterlimit="10" stroke-linecap="round" stroke-linejoin="round"/>
<path d="M131.87 24.5955C131.789 24.5105 131.702 24.4266 131.611 24.3437C131.61 24.3437 131.61 24.3427 131.61 24.3427C131.58 24.3158 131.549 24.2889 131.517 24.2619C131.508 24.2536 131.499 24.2453 131.49 24.237C129.227 22.2555 126.57 20.6676 123.717 19.6328C121.214 18.7243 118.558 18.2406 115.887 18.2934V18.2924C110.747 18.3203 100.41 17.876 95.2854 18.0748C90.2119 18.2716 82.9403 19.1356 80.4978 21.807C79.8815 22.4824 79.7613 23.6269 79.9591 25.0906C80.6614 30.2801 84.9861 48.6176 87.9931 52.9339C88.4644 53.6093 89.3273 54.1117 90.4511 54.2453C92.4969 54.4887 97.4348 54.9289 100.744 54.4856C101.903 54.3302 102.863 54.0661 103.429 53.6487C112.168 48.5171 118.267 47.8749 127.526 51.056C127.526 51.056 127.533 51.0425 127.545 51.0156C127.848 50.3526 131.757 31.9167 132.766 28.4332C133.119 27.0618 132.931 25.7111 131.87 24.5955Z" stroke="#871C20" stroke-width="1.51375" stroke-miterlimit="10" stroke-linecap="round" stroke-linejoin="round"/>
<path d="M165.155 84.9845C163.65 93.2981 159.168 101.054 152.727 101.862C146.286 102.671 141.064 96.4046 141.062 87.8662C141.059 79.3278 146.244 71.4896 152.721 70.9426C162.243 70.1378 166.68 76.5641 165.155 84.9845Z" fill="#FBD5BE"/>
<path d="M142.419 80.4498C144.378 75.3173 148.282 71.6442 152.722 70.9429C161.162 69.6087 167.376 76.1076 164.828 86.5944C162.803 94.9278 159.169 101.055 152.728 101.863C149.201 102.305 146.04 100.627 143.901 97.6158" stroke="#871C20" stroke-width="1.51375" stroke-miterlimit="10" stroke-linecap="round" stroke-linejoin="round"/>
<path d="M155.241 76.604C148.861 81.2497 146.549 87.3726 149.022 93.0738" stroke="#871C20" stroke-width="1.51375" stroke-miterlimit="10" stroke-linecap="round" stroke-linejoin="round"/>
<path d="M154.207 87.014C153.952 89.5818 151.593 91.6856 148.669 92.1652C147.474 88.6765 148.029 85.0687 150.18 81.7695C152.739 82.4998 154.447 84.5901 154.207 87.014Z" fill="#871C20" stroke="#871C20" stroke-width="1.51375" stroke-miterlimit="10" stroke-linecap="round" stroke-linejoin="round"/>
<path d="M84.9679 95.0868L80.1481 94.0231C77.022 93.4098 74.8799 90.8099 75.3636 88.2162C75.8473 85.6224 78.7736 84.0169 81.8987 84.6301L87.8517 85.8637" fill="#FBD5BE"/>
<path d="M84.9679 95.0868L80.1481 94.0231C77.022 93.4098 74.8799 90.8099 75.3636 88.2162C75.8473 85.6224 78.7736 84.0169 81.8987 84.6301L87.8517 85.8637" stroke="#871C20" stroke-width="1.51375" stroke-miterlimit="10" stroke-linecap="round" stroke-linejoin="round"/>
<path d="M109.148 19.2331C109.148 19.2331 112.25 23.2429 111.796 27.9404C111.796 27.9404 113.478 21.0966 113.721 18.5464L109.148 19.2331Z" fill="#871C20" stroke="#871C20" stroke-width="1.51375" stroke-miterlimit="10" stroke-linecap="round" stroke-linejoin="round"/>
<path d="M124.933 20.1118C124.933 20.1118 126.666 22.0685 126.186 25.7727C126.186 25.7727 128.219 23.3302 128.399 21.9308L124.933 20.1118Z" fill="#871C20" stroke="#871C20" stroke-width="1.51375" stroke-miterlimit="10" stroke-linecap="round" stroke-linejoin="round"/>
<path d="M99.9604 68.502H109.678" stroke="#871C20" stroke-width="1.51375" stroke-miterlimit="10" stroke-linecap="round" stroke-linejoin="round"/>
<path d="M69.0073 68.502H78.7245" stroke="#871C20" stroke-width="1.51375" stroke-miterlimit="10" stroke-linecap="round" stroke-linejoin="round"/>
</g>
<defs>
<linearGradient id="paint0_linear_3_17390" x1="183.41" y1="172.675" x2="27.9876" y2="266.259" gradientUnits="userSpaceOnUse">
<stop offset="0.4183" stop-color="#8D95B7"/>
<stop offset="0.7685" stop-color="#A6ACC5"/>
<stop offset="1" stop-color="#B2B6CC"/>
</linearGradient>
<linearGradient id="paint1_linear_3_17390" x1="155.585" y1="145.489" x2="167.342" y2="141.951" gradientUnits="userSpaceOnUse">
<stop offset="0.0598" stop-color="#898CAA"/>
<stop offset="0.2066" stop-color="#9497B2"/>
<stop offset="0.4634" stop-color="#B1B3C7"/>
<stop offset="0.7972" stop-color="#DFE0E8"/>
<stop offset="1" stop-color="white"/>
</linearGradient>
<linearGradient id="paint2_linear_3_17390" x1="54.7222" y1="140.709" x2="43.0777" y2="136.815" gradientUnits="userSpaceOnUse">
<stop offset="0.0598" stop-color="#898CAA"/>
<stop offset="0.2066" stop-color="#9497B2"/>
<stop offset="0.4634" stop-color="#B1B3C7"/>
<stop offset="0.7972" stop-color="#DFE0E8"/>
<stop offset="1" stop-color="white"/>
</linearGradient>
<radialGradient id="paint3_radial_3_17390" cx="0" cy="0" r="1" gradientUnits="userSpaceOnUse" gradientTransform="translate(128.022 186.504) scale(5.15734)">
<stop offset="0.0921" stop-color="white"/>
<stop offset="0.2182" stop-color="#F8F8FA"/>
<stop offset="0.3985" stop-color="#E5E6ED"/>
<stop offset="0.6115" stop-color="#C6C8D6"/>
<stop offset="0.8477" stop-color="#9C9EB8"/>
<stop offset="0.9402" stop-color="#898CAA"/>
</radialGradient>
<radialGradient id="paint4_radial_3_17390" cx="0" cy="0" r="1" gradientUnits="userSpaceOnUse" gradientTransform="translate(58.9277 170.148) rotate(-154.919) scale(4.75146)">
<stop offset="0.0921" stop-color="white"/>
<stop offset="0.2182" stop-color="#F8F8FA"/>
<stop offset="0.3985" stop-color="#E5E6ED"/>
<stop offset="0.6115" stop-color="#C6C8D6"/>
<stop offset="0.8477" stop-color="#9C9EB8"/>
<stop offset="0.9402" stop-color="#898CAA"/>
</radialGradient>
<linearGradient id="paint5_linear_3_17390" x1="145.862" y1="153.147" x2="154.328" y2="150.6" gradientUnits="userSpaceOnUse">
<stop offset="0.0598" stop-color="#898CAA"/>
<stop offset="0.2066" stop-color="#9497B2"/>
<stop offset="0.4634" stop-color="#B1B3C7"/>
<stop offset="0.7972" stop-color="#DFE0E8"/>
<stop offset="1" stop-color="white"/>
</linearGradient>
<linearGradient id="paint6_linear_3_17390" x1="64.8509" y1="148.352" x2="57.0126" y2="147.025" gradientUnits="userSpaceOnUse">
<stop offset="0.0598" stop-color="#898CAA"/>
<stop offset="0.2066" stop-color="#9497B2"/>
<stop offset="0.4634" stop-color="#B1B3C7"/>
<stop offset="0.7972" stop-color="#DFE0E8"/>
<stop offset="1" stop-color="white"/>
</linearGradient>
<clipPath id="clip0_3_17390">
<rect width="198.663" height="198.663" fill="white" transform="translate(0.290039 0.772461)"/>
</clipPath>
</defs>
</svg>
