<svg width="200" height="200" viewBox="0 0 200 200" fill="none" xmlns="http://www.w3.org/2000/svg">
<g clip-path="url(#clip0_3_17523)">
<rect width="198.663" height="198.663" transform="translate(0.446289 0.772461)" fill="#DB90DD"/>
<path d="M30.0428 188.901C5.55257 190.843 -4.85408 192.736 -18.7133 195.583C-16.4577 197.615 5.8994 213.342 16.6264 228.943C21.5292 236.072 -9.69316 257.013 -11.4886 255.987C-42.0041 238.528 -64.4961 217.612 -72.1364 206.402C-78.6459 196.851 -79.3321 182.958 -72.8714 175.065C-61.4649 161.128 -32.7572 152.134 2.70092 147.532C24.9578 144.644 61.7205 140.736 84.234 139.434C102.579 138.374 120.349 146.782 130.651 161.998C135.146 168.639 138.535 176.968 139.265 187.295C139.755 194.252 139.938 202.571 139.589 212.3C138.611 239.528 132.551 266.244 121.811 291.251C104.594 298.238 57.3184 308.473 4.82247 281.562C18.5758 261.606 24.419 238.337 25.8469 214.269C26.3493 205.794 25.1375 197.466 23.3437 189.497" fill="url(#paint0_linear_3_17523)"/>
<path d="M23.3435 189.497C25.1372 197.466 26.3491 205.794 25.8466 214.268C24.4196 238.336 18.5756 261.606 4.82227 281.561C4.82227 281.561 33.3702 298.622 72.3165 299.07C111.264 299.518 121.811 291.25 121.811 291.25C132.551 266.244 138.61 239.527 139.589 212.299C139.938 202.57 139.739 194.252 139.264 187.294" stroke="#871C20" stroke-width="1.32442" stroke-miterlimit="10" stroke-linecap="round" stroke-linejoin="round"/>
<path d="M-11.4886 255.986C-42.0041 238.528 -64.4961 217.612 -72.1364 206.402C-78.6459 196.851 -79.3321 182.958 -72.8714 175.064C-61.4649 161.128 -32.7572 152.134 2.70093 147.532C32.0236 143.727 77.578 144.884 91.4977 145.832" stroke="#871C20" stroke-width="1.32442" stroke-miterlimit="10" stroke-linecap="round" stroke-linejoin="round"/>
<path d="M30.0413 188.9C5.55106 190.843 -4.85559 192.735 -18.7148 195.583C-16.4592 197.615 5.89789 213.342 16.6249 228.943" stroke="#871C20" stroke-width="1.32442" stroke-miterlimit="10" stroke-linecap="round" stroke-linejoin="round"/>
<path d="M79.1789 208.857C79.8122 186.648 73.6139 172.826 73.6139 172.826C73.6139 172.826 48.5343 146.807 37.6202 144.894C22.3248 142.212 15.8699 146.21 15.8699 146.21C26.1664 149.696 34.2818 164.351 37.9935 179.541C44.8532 207.613 32.6098 211.504 24.8503 211.375C22.1576 211.331 20.3472 208.566 21.5078 205.106C18.9301 207.932 19.104 211.886 19.1594 213.034C20.1047 232.491 6.37292 259.183 -0.369222 270.708C-4.0685 277.033 -6.95076 281.663 -6.7852 285.707C-6.61965 289.751 -3.40792 293.211 5.07915 297.196C17.1504 302.863 44.96 308.147 51.6524 305.461C56.3599 303.573 77.6881 261.131 79.1789 208.857Z" fill="url(#paint1_linear_3_17523)"/>
<path d="M79.1789 208.857C79.8122 186.648 73.6139 172.826 73.6139 172.826C73.6139 172.826 48.5343 146.807 37.6202 144.894C22.3248 142.212 15.8699 146.21 15.8699 146.21C26.1664 149.696 34.2818 164.351 37.9935 179.541C44.8532 207.613 32.6098 211.504 24.8503 211.375C22.1576 211.331 20.3472 208.566 21.5078 205.106C18.9301 207.932 19.104 211.886 19.1594 213.034C20.1047 232.491 6.37292 259.183 -0.369222 270.708C-4.0685 277.033 -6.95076 281.663 -6.7852 285.707C-6.61965 289.751 -3.40792 293.211 5.07915 297.196C17.1504 302.863 44.96 308.147 51.6524 305.461C56.3599 303.573 77.6881 261.131 79.1789 208.857Z" stroke="#871C20" stroke-width="1.32442" stroke-miterlimit="10" stroke-linecap="round" stroke-linejoin="round"/>
<path d="M15.1556 232.865C14.697 229.777 17.0727 226.465 20.1602 226.007C26.1152 225.123 33.0262 222.264 36.1436 217.568C41.3626 209.707 42.0405 196.823 38.0532 181.289C32.4906 159.615 24.6451 150.102 17.3467 146.63C14.5033 145.277 12.4174 144.894 13.0432 143.205C13.8105 141.134 16.7573 139.345 21.3796 139.345C37.7544 139.345 42.5281 153.251 49.0028 178.479C53.866 197.425 52.6757 213.103 45.561 223.82C40.6681 231.191 33.3101 236.221 24.1327 237.158C18.0718 237.777 15.5728 235.671 15.1556 232.865Z" fill="#FFD67B" stroke="#871C20" stroke-width="1.32442" stroke-miterlimit="10"/>
<path d="M141.043 291.37C133.563 289.693 121.077 288.781 112.97 290.351C110.212 288.198 111.72 285.164 111.72 285.164C133.517 228.311 116.229 174.662 116.229 174.662C114.765 161.838 121.372 151.702 125.736 147.89C129.172 144.894 127.608 144.229 132.795 157.278C140.833 177.507 143.772 202.827 144.582 213.534C146.241 235.364 147.907 284.412 141.043 291.37Z" fill="url(#paint2_linear_3_17523)" stroke="#871C20" stroke-width="1.32442" stroke-miterlimit="10"/>
<path d="M220.369 242.155C208.769 255.493 182.724 268.704 142.757 270.092C140.469 270.178 138.136 270.218 135.756 270.218C127.901 270.218 123.09 269.92 119.087 269.329C115.795 268.847 113.049 268.171 109.614 267.299C99.6359 264.771 109.379 227.356 119.66 227.785C121.633 227.866 123.657 227.952 125.715 228.02C132.293 228.261 139.242 228.422 146.135 228.273C159.782 227.975 173.217 226.478 183.132 221.988C177.73 219.339 157.962 212.378 143.706 204.563C142.341 193.043 139.767 177.247 134.976 162.353C133.967 159.217 132.952 157.06 132.367 155.478C136.386 156.165 142.321 158.202 150.956 161.946C157.132 164.624 163.744 167.267 170.705 170.415C190.936 179.573 218.711 197.882 224.727 204.752C233.862 215.176 233.031 227.596 220.369 242.155Z" fill="url(#paint3_linear_3_17523)"/>
<path d="M132.365 155.479C142.244 157.745 163.744 167.267 170.705 170.417C190.935 179.571 218.713 197.882 224.731 204.753C233.861 215.177 233.032 227.596 220.371 242.155C208.107 256.258 179.698 270.218 135.755 270.218C121.443 270.218 117.23 269.228 109.616 267.3C99.6388 264.773 109.383 227.358 119.663 227.788C140.421 228.657 166.65 229.447 183.132 221.989C177.734 219.344 157.961 212.378 143.709 204.563" stroke="#871C20" stroke-width="1.32442" stroke-miterlimit="10" stroke-linecap="round" stroke-linejoin="round"/>
<path d="M143.646 206.028C142.426 192.838 140.532 187.397 136.551 171.889C130.988 150.215 119.073 139.023 110.029 139.023C109.919 139.023 101.835 138.414 101.739 135.295C101.645 132.174 107.547 131.659 110.667 131.564C127.019 131.085 139.389 145.961 145.064 171.381C147.891 184.048 150.735 200.879 145.661 214.31C144.951 216.189 144.018 210.058 143.646 206.028Z" fill="#FFD67B" stroke="#871C20" stroke-width="1.32442" stroke-miterlimit="10"/>
<path d="M134.941 146.332C135.627 135.023 119.564 127.399 78.7245 129.071C36.2925 130.807 23.8719 135.358 32.7389 152.295C35.9506 158.43 50.4704 174.983 58.6695 180.324C62.4424 183.203 68.0621 185.196 72.3333 184.048C79.2725 182.183 82.4577 178.337 79.9943 163.066C79.3296 158.945 76.2735 154.082 71.7283 150.993C70.0388 149.845 70.5429 145.521 86.5394 144.059C96.3261 143.164 108.185 144.059 112.107 148.205L112.11 148.21C109.11 151.414 106.857 155.617 106.388 159.217C105.143 168.754 107.474 176.011 114.062 177.191C119.037 178.082 125.011 172.205 127.622 168.193V168.194C130.25 164.639 134.378 155.615 134.941 146.332Z" fill="#9090DD"/>
<path d="M128.815 166.364C128.393 167.076 127.995 167.689 127.623 168.193C125.007 172.208 119.039 178.077 114.064 177.191C107.475 176.008 105.141 168.756 106.382 159.221C106.854 155.62 109.106 151.415 112.11 148.211L112.102 148.203C111.498 147.557 110.695 146.994 109.743 146.506L116.332 144.834C116.332 144.834 109.261 156.433 110.777 164.719C113.586 180.061 128.271 166.907 128.815 166.364Z" fill="url(#paint4_linear_3_17523)"/>
<path d="M72.3377 184.045C68.0664 185.196 62.4459 183.201 58.6713 180.329C50.4681 174.981 35.9492 158.434 32.7375 152.292C26.2561 139.917 31.1482 134.156 50.7993 131.275C49.3838 131.631 36.7935 134.806 38.2007 143.477C39.6733 152.549 49.9888 166.987 61.801 173.866C73.0752 180.431 80.7726 174.973 80.7726 170.006C81.2444 179.609 78.0741 182.506 72.3377 184.045Z" fill="url(#paint5_linear_3_17523)"/>
<path d="M112.102 148.205C108.183 144.06 96.3265 143.162 86.5366 144.06C71.1128 145.473 70.0955 149.543 71.559 150.855C71.2776 150.639 70.6584 150.189 69.7751 149.705C66.8415 148.096 67.056 143.851 70.1452 142.565C74.0895 140.924 80.0626 139.423 89.0289 138.949C100.425 138.35 107.235 139.854 111.191 141.498C113.942 142.642 114.426 146.341 112.102 148.205Z" fill="#7575C6" stroke="#7575C6" stroke-width="1.32442" stroke-miterlimit="10"/>
<path d="M131.409 161.068C132.016 159.654 132.793 157.281 132.793 157.281C133.877 153.916 134.709 150.145 134.941 146.331C135.627 135.022 119.564 127.398 78.7245 129.07C36.2925 130.806 23.8719 135.357 32.7389 152.294C32.7389 152.294 42.5462 167.473 51.6525 174.592" stroke="#871C20" stroke-width="1.32442" stroke-miterlimit="10" stroke-linecap="round" stroke-linejoin="round"/>
<path d="M72.3333 184.049C79.2724 182.184 82.4576 178.337 79.9942 163.067C79.3295 158.946 76.2734 154.082 71.7281 150.994C70.0387 149.846 70.5428 145.522 86.5393 144.06C96.326 143.165 108.185 144.06 112.106 148.206L112.11 148.211C109.11 151.415 106.857 155.618 106.387 159.218C105.142 168.754 107.474 176.012 114.062 177.192C117.172 177.748 121.224 175.289 123.818 172.734" stroke="#871C20" stroke-width="1.32442" stroke-miterlimit="10" stroke-linecap="round" stroke-linejoin="round"/>
<path d="M58.3838 148.284C69.8343 145.79 78.7965 155.641 79.9942 163.067" stroke="#871C20" stroke-width="1.32442" stroke-miterlimit="10" stroke-linecap="round" stroke-linejoin="round"/>
<path d="M117.972 144.059C111.94 146.414 107.372 153.618 106.387 159.217" stroke="#871C20" stroke-width="1.32442" stroke-miterlimit="10" stroke-linecap="round" stroke-linejoin="round"/>
<path d="M107.815 172.473C103.593 174.029 98.5106 175.056 92.9977 175.329C88.6022 175.544 84.4303 175.246 80.7136 174.542C81.0696 171.604 80.6309 167.912 80.6309 167.912C81.798 168.285 83.0231 168.599 84.2978 168.856C84.3889 168.872 84.48 168.889 84.5793 168.905C84.9684 168.98 85.3657 169.046 85.7713 169.104C86.1603 169.17 86.5577 169.22 86.955 169.261C87.0874 169.286 87.2199 169.303 87.3523 169.303C87.6834 169.344 88.0145 169.377 88.3539 169.402C88.4367 169.41 88.5277 169.419 88.6105 169.427C88.9913 169.452 89.3721 169.477 89.7528 169.493C89.8356 169.493 89.9184 169.501 90.0094 169.501C90.4647 169.518 90.92 169.526 91.3835 169.526C91.7312 169.526 92.0788 169.518 92.4265 169.51C92.7742 169.501 93.1135 169.493 93.4612 169.468C93.7095 169.46 93.9578 169.443 94.2144 169.419C94.4793 169.402 94.7525 169.377 95.0174 169.352C95.4147 169.319 95.8038 169.27 96.1928 169.22C96.5239 169.178 96.855 169.137 97.1779 169.079C97.9146 168.972 98.6347 168.831 99.3466 168.674C99.5535 168.624 99.7522 168.583 99.9591 168.533C100.15 168.483 100.34 168.442 100.53 168.384C100.944 168.285 101.35 168.169 101.755 168.044C102.095 167.945 102.426 167.838 102.749 167.722C103.427 167.498 104.081 167.242 104.719 166.977C105 166.861 105.282 166.737 105.555 166.604C105.753 166.513 105.96 166.414 106.159 166.314C106.159 166.314 106.399 169.659 107.815 172.473Z" fill="#CFDCE2" stroke="#871C20" stroke-width="1.32442" stroke-miterlimit="10"/>
<path d="M106.383 159.22C106.052 161.77 105.977 164.162 106.159 166.314C105.961 166.413 105.754 166.513 105.555 166.604C105.282 166.736 105.001 166.86 104.719 166.976C104.082 167.241 103.428 167.498 102.749 167.721C102.426 167.837 102.095 167.945 101.756 168.044C101.35 168.168 100.945 168.284 100.531 168.384C100.34 168.441 100.15 168.483 99.9595 168.532C99.7526 168.582 99.5539 168.624 99.347 168.673C98.6351 168.83 97.915 168.971 97.1782 169.079C96.8554 169.137 96.5243 169.178 96.1932 169.22C95.8042 169.269 95.4151 169.319 95.0178 169.352C94.7529 169.377 94.4797 169.402 94.2148 169.418C93.9582 169.443 93.7099 169.46 93.4616 169.468C93.1139 169.493 92.7746 169.501 92.4269 169.509C92.0792 169.518 91.7316 169.526 91.3839 169.526C90.9204 169.526 90.4651 169.518 90.0098 169.501C89.9188 169.501 89.836 169.493 89.7532 169.493C89.3725 169.476 88.9917 169.451 88.6109 169.426C88.5281 169.418 88.4371 169.41 88.3543 169.402C88.0149 169.377 87.6838 169.344 87.3527 169.302C87.2203 169.302 87.0878 169.286 86.9554 169.261C86.5581 169.22 86.1607 169.17 85.7717 169.104C85.3661 169.046 84.9688 168.979 84.5797 168.905C84.4804 168.888 84.3893 168.872 84.2982 168.855C83.0235 168.599 81.7984 168.284 80.6313 167.912C80.4905 166.438 80.2836 164.832 79.9939 163.069C79.3316 158.947 76.2772 154.08 71.7245 150.992C70.5325 150.181 70.4332 147.797 76.0537 145.951C76.0206 145.769 75.9958 145.579 75.9709 145.388C75.9461 145.198 75.913 144.999 75.8799 144.792C75.8799 144.767 75.8716 144.743 75.8716 144.718C75.8054 144.337 75.7475 143.948 75.6812 143.551L75.6564 143.377C74.6879 137.4 73.2228 129.346 73.2228 129.346L100.15 120.762L104.438 134.222C105.059 136.183 105.936 139.61 106.532 143.691C106.573 143.981 106.615 144.279 106.656 144.577C106.689 144.825 106.722 145.074 106.755 145.33C109.065 146.026 110.936 146.969 112.103 148.203L112.111 148.211C109.106 151.414 106.855 155.619 106.383 159.22Z" fill="url(#paint6_linear_3_17523)"/>
<path d="M76.457 148.986C76.1367 145.372 73.2246 129.345 73.2246 129.345L100.149 120.762L104.441 134.225C105.275 136.839 106.56 142.078 107.021 147.996" stroke="#871C20" stroke-width="1.32442" stroke-miterlimit="10" stroke-linecap="round" stroke-linejoin="round"/>
<path d="M75.5426 82.163C97.1489 74.1502 121.808 65.3138 121.808 65.3138C120.54 58.9715 115.242 51.2865 105.998 46.0278C94.866 39.6945 81.0058 38.899 69.3617 44.9252C49.2843 55.3161 44.3599 77.4016 46.3697 94.1175C46.6925 96.7986 49.5004 98.5096 51.6583 98.5552H51.665C51.6401 97.5693 51.6525 96.5892 51.7088 95.61C51.7088 95.5032 51.7336 95.3964 51.7651 95.2896C51.8338 95.0703 51.9596 94.8815 52.1045 94.7061C54.0009 92.6582 56.7457 91.6226 59.2199 90.4422C61.3051 89.5317 63.4275 88.7155 65.5689 87.9424C69.5819 86.4665 73.6702 85.2547 77.7768 84.0801C76.5699 83.7117 75.9085 82.9079 75.5426 82.163Z" fill="url(#paint7_linear_3_17523)" stroke="#871C20" stroke-width="1.32442" stroke-miterlimit="10"/>
<path d="M164.981 38.0855C163.825 37.0186 162.312 36.233 160.283 36.1138C150.399 35.536 139.735 41.0812 132.224 45.2887C122.045 50.9912 112.355 57.4908 103.186 64.6874C94.7458 70.8857 85.916 76.3117 76.1062 80.1988C75.8297 80.3056 75.4911 80.4373 75.0955 80.5755C74.7221 80.7063 74.9986 78.1667 75.0507 77.9863C76.3479 73.4807 80.9825 70.865 85.7703 67.4223C97.2439 59.1695 123.077 38.7519 141.824 33.6611C150.007 31.4386 159.093 31.0462 164.981 38.0855Z" fill="url(#paint8_linear_3_17523)"/>
<path d="M163.831 53.591C155.459 64.6442 130.603 79.5274 127.576 80.8402C126.71 79.0001 125.705 77.2229 124.568 75.54H124.561C119.155 69.1216 94.4052 79.553 86.8502 81.4809C83.8297 82.379 80.8026 83.2208 77.7755 84.0809C76.2077 83.6024 75.5546 82.3873 75.2831 81.5231C75.1225 81.0099 75.3981 80.4619 75.8973 80.2608C77.1753 79.7459 79.5858 78.7485 80.7347 78.2212C88.726 74.5583 96.0922 69.8955 103.184 64.6881C112.352 57.4915 122.043 50.9919 132.222 45.2894C139.734 41.0819 150.397 35.5367 160.281 36.1145C164.382 36.3537 166.398 39.3361 167.534 41.8484C169.069 46.0236 166.274 50.3694 163.831 53.591Z" fill="url(#paint9_linear_3_17523)" stroke="#4E9365" stroke-width="1.32442" stroke-miterlimit="10"/>
<path d="M128.882 83.9681C128.832 83.9929 128.799 84.0095 128.758 84.0261C127.889 82.1884 126.887 80.4087 125.753 78.7284H125.745C120.34 72.3049 95.5894 82.743 88.0319 84.6717C85.0106 85.5657 81.9809 86.41 78.9596 87.2709C77.2296 86.7411 76.6088 85.3091 76.3936 84.4565C77.9911 83.9929 79.597 83.546 81.2029 83.1155C83.0984 82.6023 84.9775 82.056 86.8482 81.4765C90.6063 80.3177 94.3478 79.134 98.081 77.9089C99.9435 77.3129 101.822 76.7252 103.71 76.1706C104.405 75.9636 105.109 75.7567 105.821 75.5663C107.228 75.1773 108.652 74.8379 110.084 74.5316C110.795 74.3743 111.516 74.2336 112.244 74.1094C114.065 73.7866 115.903 73.5466 117.765 73.5052C119.056 73.4803 120.364 73.5383 121.631 73.828C122.351 74.0018 123.063 74.2336 123.675 74.6641C124.023 74.8958 124.329 75.1938 124.561 75.5415H124.569C125.703 77.2218 126.713 79.0015 127.574 80.8392C128.063 81.8573 128.493 82.9003 128.882 83.9681Z" fill="#4E9365" stroke="#871C20" stroke-width="1.32442" stroke-miterlimit="10" stroke-linecap="round" stroke-linejoin="round"/>
<path d="M77.7773 84.0802C80.8045 83.2201 83.8316 82.3783 86.8521 81.4802C94.4071 79.5523 119.156 69.1208 124.563 75.5393H124.57C125.707 77.2221 126.711 78.9994 127.578 80.8395C130.605 79.5275 155.461 64.6435 163.833 53.5911C166.275 50.3695 169.07 46.0237 167.538 41.8476C166.828 40.279 164.705 37.8305 164.981 38.0855C159.094 31.0453 150.008 31.4385 141.825 33.6602C125.428 38.1128 103.61 54.2914 90.7211 63.7991" stroke="#871C20" stroke-width="1.32442" stroke-miterlimit="10" stroke-linecap="round" stroke-linejoin="round"/>
<path d="M131.168 93.9957C130.86 90.7054 130.138 87.4589 129.02 84.344C128.593 83.1512 128.116 81.9824 127.576 80.8401C126.709 79 125.704 77.2227 124.567 75.5399H124.561C124.328 75.1939 124.02 74.8992 123.675 74.6608C123.059 74.2337 122.35 74.0011 121.628 73.8314C120.36 73.5425 119.054 73.4796 117.76 73.5044C115.901 73.5483 114.061 73.7875 112.239 74.1071C111.518 74.2329 110.795 74.3711 110.079 74.5276C108.647 74.8355 107.228 75.1807 105.815 75.5705C105.106 75.7593 104.402 75.9596 103.705 76.1673C101.821 76.7261 99.9439 77.3105 98.0781 77.9131C94.3474 79.1316 90.6051 80.3186 86.8495 81.4799C84.9779 82.0577 83.0939 82.6041 81.1975 83.1131C78.5603 83.8225 75.9412 84.57 73.3288 85.3737C72.6252 85.5873 71.9283 85.8067 71.2247 86.0326C69.3282 86.6353 67.4443 87.2693 65.5661 87.9415C63.4246 88.7138 61.3022 89.53 59.2171 90.4413C57.7602 91.082 56.3282 91.7666 54.94 92.5513C54.2488 92.947 53.5709 93.3675 52.9559 93.8699C52.6422 94.1207 52.3466 94.3914 52.1016 94.7051C51.9576 94.8806 51.8318 95.0693 51.7622 95.2887C51.7308 95.3955 51.706 95.5023 51.706 95.609C51.6497 96.5891 51.6372 97.5684 51.6621 98.5542C51.677 99.2959 51.72 100.038 51.7771 100.779L51.7763 100.78C51.5967 100.876 51.422 100.98 51.2498 101.087C51.1902 101.124 51.1298 101.161 51.071 101.199C50.9055 101.306 50.7433 101.417 50.5852 101.533C50.5355 101.569 50.4875 101.608 50.4387 101.645C49.9478 102.02 49.4958 102.439 49.0852 102.896C49.019 102.97 48.9536 103.042 48.8899 103.118C48.7823 103.245 48.678 103.374 48.577 103.507C48.5058 103.6 48.4379 103.696 48.3701 103.793C48.2807 103.92 48.1896 104.045 48.106 104.176C47.9719 104.385 47.8453 104.6 47.7269 104.82C47.6681 104.93 47.6168 105.043 47.5622 105.155C47.4902 105.301 47.4198 105.449 47.3553 105.598C47.3064 105.713 47.26 105.828 47.2162 105.944C47.1524 106.108 47.0945 106.276 47.0398 106.445C47.0067 106.547 46.972 106.647 46.9422 106.751C46.8652 107.018 46.7973 107.29 46.7427 107.565C46.7311 107.623 46.7253 107.683 46.7145 107.741C46.6731 107.973 46.6392 108.206 46.6152 108.442C46.6053 108.539 46.5986 108.636 46.5912 108.733C46.5755 108.944 46.5672 109.158 46.5647 109.372C46.5639 109.464 46.5614 109.555 46.5631 109.648C46.5688 109.949 46.5837 110.252 46.6177 110.558C46.6177 110.562 46.6185 110.564 46.6193 110.567C47.2236 115.973 51.8972 120.218 57.3364 120.131C57.6775 120.125 58.0863 120.095 58.5275 120.045C60.3817 122.773 62.5505 125.285 65.0148 127.475C69.4739 131.431 74.8238 134.377 80.5701 136.003C86.3164 137.636 92.4518 137.95 98.2793 136.945C101.526 136.386 104.716 135.413 107.736 134.069C110.757 132.725 113.609 131.004 116.202 128.957C118.79 126.909 121.132 124.536 123.135 121.911C125.145 119.286 126.828 116.417 128.128 113.377C129.427 110.337 130.351 107.141 130.866 103.875C131.376 100.609 131.476 97.2803 131.168 93.9957Z" fill="url(#paint10_linear_3_17523)"/>
<path d="M128.882 83.9681C128.832 83.9929 128.799 84.0095 128.758 84.0261C127.889 82.1884 126.887 80.4087 125.753 78.7284H125.745C120.34 72.3049 95.5894 82.743 88.0319 84.6717C85.5503 85.4059 83.0628 86.107 80.5787 86.8106C78.7825 87.3197 76.8679 86.29 76.4002 84.4822L76.3936 84.4565C77.9911 83.9929 79.597 83.546 81.2029 83.1155C83.0984 82.6023 84.9775 82.056 86.8482 81.4765C90.6063 80.3177 94.3478 79.134 98.081 77.9089C99.9435 77.3129 101.822 76.7252 103.71 76.1706C104.405 75.9636 105.109 75.7567 105.821 75.5663C107.228 75.1773 108.652 74.8379 110.084 74.5316C110.795 74.3743 111.516 74.2336 112.244 74.1094C114.065 73.7866 115.903 73.5466 117.765 73.5052C119.056 73.4803 120.364 73.5383 121.631 73.828C122.351 74.0018 123.063 74.2336 123.675 74.6641C124.023 74.8958 124.329 75.1938 124.561 75.5415H124.569C125.703 77.2218 126.713 79.0015 127.574 80.8392C128.063 81.8573 128.493 82.9003 128.882 83.9681Z" fill="#F8C3AF"/>
<path d="M131.168 93.9957C130.86 90.7054 130.138 87.4589 129.02 84.344C128.593 83.1512 128.116 81.9824 127.576 80.8401C126.709 79 125.704 77.2227 124.567 75.5399H124.561C124.328 75.1939 124.02 74.8992 123.675 74.6608C123.059 74.2337 122.35 74.0011 121.628 73.8314C120.36 73.5425 119.054 73.4796 117.76 73.5044C115.901 73.5483 114.061 73.7875 112.239 74.1071C111.518 74.2329 110.795 74.3711 110.079 74.5276C108.647 74.8355 107.228 75.1807 105.815 75.5705C105.106 75.7593 104.402 75.9596 103.705 76.1673C101.821 76.7261 99.9439 77.3105 98.0781 77.9131C94.3474 79.1316 90.6051 80.3186 86.8495 81.4799C84.9779 82.0577 83.0939 82.6041 81.1975 83.1131C78.5603 83.8225 75.9412 84.57 73.3288 85.3737C72.6252 85.5873 71.9283 85.8067 71.2247 86.0326C69.3282 86.6353 67.4443 87.2693 65.5661 87.9415C63.4246 88.7138 61.3022 89.53 59.2171 90.4413C57.7602 91.082 56.3282 91.7666 54.94 92.5513C54.2488 92.947 53.5709 93.3675 52.9559 93.8699C52.6422 94.1207 52.3466 94.3914 52.1016 94.7051C51.9576 94.8806 51.8318 95.0693 51.7622 95.2887C51.7308 95.3955 51.706 95.5023 51.706 95.609C51.6497 96.5891 51.6372 97.5684 51.6621 98.5542C51.677 99.2959 51.72 100.038 51.7771 100.779L51.7763 100.78C51.5967 100.876 51.422 100.98 51.2498 101.087C51.1902 101.124 51.1298 101.161 51.071 101.199C50.9055 101.306 50.7433 101.417 50.5852 101.533C50.5355 101.569 50.4875 101.608 50.4387 101.645C49.9478 102.02 49.4958 102.439 49.0852 102.896C49.019 102.97 48.9536 103.042 48.8899 103.118C48.7823 103.245 48.678 103.374 48.577 103.507C48.5058 103.6 48.4379 103.696 48.3701 103.793C48.2807 103.92 48.1896 104.045 48.106 104.176C47.9719 104.385 47.8453 104.6 47.7269 104.82C47.6681 104.93 47.6168 105.043 47.5622 105.155C47.4902 105.301 47.4198 105.449 47.3553 105.598C47.3064 105.713 47.26 105.828 47.2162 105.944C47.1524 106.108 47.0945 106.276 47.0398 106.445C47.0067 106.547 46.972 106.647 46.9422 106.751C46.8652 107.018 46.7973 107.29 46.7427 107.565C46.7311 107.623 46.7253 107.683 46.7145 107.741C46.6731 107.973 46.6392 108.206 46.6152 108.442C46.6053 108.539 46.5986 108.636 46.5912 108.733C46.5755 108.944 46.5672 109.158 46.5647 109.372C46.5639 109.464 46.5614 109.555 46.5631 109.648C46.5688 109.949 46.5837 110.252 46.6177 110.558C46.6177 110.562 46.6185 110.564 46.6193 110.567C47.2236 115.973 51.8972 120.218 57.3364 120.131C57.6775 120.125 58.0863 120.095 58.5275 120.045C60.3817 122.773 62.5505 125.285 65.0148 127.475C69.4739 131.431 74.8238 134.377 80.5701 136.003C86.3164 137.636 92.4518 137.95 98.2793 136.945C101.526 136.386 104.716 135.413 107.736 134.069C110.757 132.725 113.609 131.004 116.202 128.957C118.79 126.909 121.132 124.536 123.135 121.911C125.145 119.286 126.828 116.417 128.128 113.377C129.427 110.337 130.351 107.141 130.866 103.875C131.376 100.609 131.476 97.2803 131.168 93.9957Z" stroke="#871C20" stroke-width="1.32442" stroke-miterlimit="10" stroke-linecap="round" stroke-linejoin="round"/>
<path d="M102.83 90.5205C102.83 90.5205 104.813 94.2355 103.542 97.0242" stroke="#871C20" stroke-width="5.29769" stroke-miterlimit="10" stroke-linecap="round" stroke-linejoin="round"/>
<path d="M119.373 87.2681C119.373 87.2681 121.356 90.9831 120.085 93.7718" stroke="#871C20" stroke-width="5.29769" stroke-miterlimit="10" stroke-linecap="round" stroke-linejoin="round"/>
<path d="M116.68 95.3412C117.287 93.9498 118.852 92.7628 120.852 92.3505C122.683 91.9739 124.433 92.3381 125.567 93.1982" fill="#FCDFCA"/>
<path d="M116.68 95.3412C117.287 93.9498 118.852 92.7628 120.852 92.3505C122.683 91.9739 124.433 92.3381 125.567 93.1982" stroke="#871C20" stroke-width="1.32442" stroke-miterlimit="10" stroke-linecap="round" stroke-linejoin="round"/>
<path d="M115.54 116.293C111.451 117.086 107.053 116.248 103.873 113.865C101.466 112.062 100.972 108.762 103.021 106.57C105.174 104.266 108.853 104.28 110.988 106.31C111.537 106.831 112.9 107.326 114.557 107.2C114.587 107.198 114.617 107.195 114.647 107.193C116.152 107.058 117.35 106.123 118.025 104.851C118.889 103.225 120.698 102.505 122.402 103.157C124.312 103.889 125.434 106.126 124.989 108.217C124.171 112.067 120.571 115.319 115.54 116.293Z" fill="white" stroke="#871C20" stroke-width="1.32442" stroke-miterlimit="10" stroke-linecap="round" stroke-linejoin="round"/>
<path d="M113.529 95.2047L118.195 92.9003C119.932 92.0642 122.017 92.7951 122.853 94.5318C123.689 96.2692 122.958 98.3544 121.222 99.1904L116.556 101.495" fill="url(#paint11_linear_3_17523)"/>
<path d="M113.529 95.2047L118.195 92.9003C119.932 92.0642 122.017 92.7951 122.853 94.5318C123.689 96.2692 122.958 98.3544 121.222 99.1904L116.556 101.495" stroke="#871C20" stroke-width="1.32442" stroke-miterlimit="10" stroke-linecap="round" stroke-linejoin="round"/>
<path d="M116.036 106.803C116.036 106.803 119.122 110.982 118.363 115.453" stroke="#871C20" stroke-width="1.32442" stroke-miterlimit="10" stroke-linecap="round" stroke-linejoin="round"/>
<path d="M111.309 106.548C111.309 106.548 111.651 113.912 107.727 115.836" stroke="#871C20" stroke-width="1.32442" stroke-miterlimit="10" stroke-linecap="round" stroke-linejoin="round"/>
<path d="M118.027 104.851C118.027 104.851 122.628 104.89 124.221 110.356" stroke="#871C20" stroke-width="1.32442" stroke-miterlimit="10" stroke-linecap="round" stroke-linejoin="round"/>
<path d="M79.529 83.5713C76.1021 89.2084 74.0989 95.7974 74.0244 102.866H74.0162C74.0162 105.209 72.1288 107.096 69.7945 107.096C68.4039 107.096 67.1788 106.434 66.409 105.391L66.4007 105.399H66.3924C65.5316 104.282 64.4969 103.272 63.2966 102.419C61.2603 100.433 58.3797 99.3402 55.3252 99.6796C55.2259 99.6879 55.1183 99.7044 55.019 99.721C53.8849 99.7127 52.784 99.87 51.741 100.176L51.7327 100.168C51.6996 99.6299 51.6665 99.0919 51.6665 98.5538C51.6417 97.5688 51.65 96.592 51.7079 95.607C51.7079 95.5077 51.7327 95.4 51.7659 95.2924C51.8321 95.0689 51.9562 94.8786 52.1052 94.7047C52.3453 94.3902 52.6433 94.1253 52.9578 93.8687C53.5704 93.372 54.2491 92.9499 54.9444 92.5525C56.3268 91.7662 57.7589 91.0791 59.2157 90.4417C61.3017 89.5312 63.429 88.7117 65.5647 87.9419C67.4437 87.2714 69.331 86.634 71.2266 86.0297C71.9302 85.8063 72.6255 85.591 73.3291 85.3758C75.3902 84.7384 77.4513 84.1424 79.529 83.5713Z" fill="#871C20" stroke="#871C20" stroke-width="1.32442" stroke-miterlimit="10" stroke-linecap="round" stroke-linejoin="round"/>
<path d="M99.3584 99.9428C99.966 98.5514 101.53 97.3643 103.531 96.9521C105.361 96.5755 107.112 96.9397 108.245 97.7997" fill="#FCDFCA"/>
<path d="M99.3584 99.9428C99.966 98.5514 101.53 97.3643 103.531 96.9521C105.361 96.5755 107.112 96.9397 108.245 97.7997" stroke="#871C20" stroke-width="1.32442" stroke-miterlimit="10" stroke-linecap="round" stroke-linejoin="round"/>
<path d="M46.295 110.245C46.9365 115.59 52.5256 120.783 58.0294 120.12C64.3477 119.359 67.5164 113.931 66.706 109.166C65.8037 103.858 60.6054 98.7103 55.1007 99.3709C49.5953 100.031 45.6535 104.9 46.295 110.245Z" fill="#F9C8B5"/>
<path d="M65.1002 104.99C64.3817 103.644 62.7891 101.987 62.7891 101.987C60.8745 100.058 58.1619 99.0028 55.1017 99.3703C49.5971 100.031 45.6544 104.9 46.2959 110.245C46.9375 115.59 52.2351 120.55 57.7663 120.147C58.5245 120.092 59.8191 119.861 60.7272 119.453" stroke="#871C20" stroke-width="1.32442" stroke-miterlimit="10" stroke-linecap="round" stroke-linejoin="round"/>
<path d="M48.9329 111.045C48.423 107.44 50.7681 104.249 54.1702 103.916C56.9474 103.644 59.3586 104.721 60.414 107.342C61.0547 108.932 60.9314 110.742 60.0117 112.189C59.3893 113.169 58.3016 114.801 56.526 115.168" stroke="#871C20" stroke-width="1.32442" stroke-miterlimit="10" stroke-linecap="round" stroke-linejoin="round"/>
<path d="M58.7334 113.877C58.7334 113.877 59.7159 112.973 60.0412 112.487C60.9957 111.062 61.1497 109.196 60.5098 107.605C60.057 106.481 59.3244 105.573 58.4586 104.854C58.4586 104.855 55.9083 108.815 58.7334 113.877Z" fill="#871C20" stroke="#871C20" stroke-width="1.32442" stroke-miterlimit="10" stroke-linecap="round" stroke-linejoin="round"/>
<path d="M106.755 145.331C109.065 146.026 110.936 146.97 112.103 148.203L112.111 148.212C109.106 151.415 106.855 155.62 106.383 159.221C106.052 161.77 105.977 164.163 106.159 166.315C105.961 166.414 105.754 166.514 105.555 166.605C105.282 166.737 105.001 166.861 104.719 166.977C104.082 167.242 103.428 167.499 102.749 167.722C102.426 167.838 102.095 167.946 101.756 168.045C101.35 168.169 100.945 168.285 100.531 168.384C100.34 168.442 100.15 168.484 99.9595 168.533C99.7526 168.583 99.5539 168.624 99.347 168.674C98.6351 168.831 97.915 168.972 97.1782 169.08C96.8554 169.138 96.5243 169.179 96.1932 169.22C95.8042 169.27 95.4151 169.32 95.0178 169.353C94.7529 169.378 94.4797 169.402 94.2148 169.419C93.9582 169.444 93.7099 169.46 93.4616 169.469C93.1139 169.493 92.7746 169.502 92.4269 169.51C92.0792 169.518 91.7316 169.527 91.3839 169.527C90.9204 169.527 90.4651 169.518 90.0098 169.502C89.9188 169.502 89.836 169.493 89.7532 169.493C89.3725 169.477 88.9917 169.452 88.6109 169.427C88.5281 169.419 88.4371 169.411 88.3543 169.402C88.0149 169.378 87.6838 169.344 87.3527 169.303C87.2203 169.303 87.0878 169.287 86.9554 169.262C86.5581 169.22 86.1607 169.171 85.7717 169.104C85.3661 169.046 84.9688 168.98 84.5797 168.906C84.4804 168.889 84.3893 168.873 84.2982 168.856C83.0235 168.608 81.7984 168.293 80.6313 167.912C80.4905 166.439 80.2836 164.833 79.9939 163.07C79.3316 158.948 76.2772 154.081 71.7245 150.993C70.5325 150.182 70.4332 147.798 76.0537 145.952" stroke="#871C20" stroke-width="1.32442" stroke-miterlimit="10" stroke-linecap="round" stroke-linejoin="round"/>
</g>
<defs>
<linearGradient id="paint0_linear_3_17523" x1="-5.32879" y1="312.698" x2="75.2466" y2="94.9521" gradientUnits="userSpaceOnUse">
<stop stop-color="#D6E0E5"/>
<stop offset="0.2803" stop-color="#E5EBEE"/>
<stop offset="0.6503" stop-color="white"/>
</linearGradient>
<linearGradient id="paint1_linear_3_17523" x1="-9.09855" y1="231.094" x2="68.3999" y2="220.866" gradientUnits="userSpaceOnUse">
<stop offset="0.0907" stop-color="#7575C6"/>
<stop offset="0.4681" stop-color="#8282D1"/>
<stop offset="1" stop-color="#9090DD"/>
</linearGradient>
<linearGradient id="paint2_linear_3_17523" x1="104.954" y1="222.63" x2="139.404" y2="218.084" gradientUnits="userSpaceOnUse">
<stop offset="0.0907" stop-color="#7575C6"/>
<stop offset="0.4681" stop-color="#8282D1"/>
<stop offset="1" stop-color="#9090DD"/>
</linearGradient>
<linearGradient id="paint3_linear_3_17523" x1="99.8651" y1="280.248" x2="191.92" y2="182.292" gradientUnits="userSpaceOnUse">
<stop stop-color="#D6E0E5"/>
<stop offset="0.5008" stop-color="#F1F5F6"/>
<stop offset="0.72" stop-color="white"/>
</linearGradient>
<linearGradient id="paint4_linear_3_17523" x1="104.97" y1="168.573" x2="121.1" y2="156.506" gradientUnits="userSpaceOnUse">
<stop offset="0.0907" stop-color="#7575C6"/>
<stop offset="0.4681" stop-color="#8282D1"/>
<stop offset="1" stop-color="#9090DD"/>
</linearGradient>
<linearGradient id="paint5_linear_3_17523" x1="44.1492" y1="167.689" x2="63.4746" y2="153.232" gradientUnits="userSpaceOnUse">
<stop offset="0.0907" stop-color="#7575C6"/>
<stop offset="0.4681" stop-color="#8282D1"/>
<stop offset="1" stop-color="#9090DD"/>
</linearGradient>
<linearGradient id="paint6_linear_3_17523" x1="68.6847" y1="162.933" x2="103.984" y2="137.554" gradientUnits="userSpaceOnUse">
<stop stop-color="#F2A290"/>
<stop offset="0.6505" stop-color="#FACFBB"/>
<stop offset="0.9994" stop-color="#FDE2CD"/>
</linearGradient>
<linearGradient id="paint7_linear_3_17523" x1="-2.00018" y1="110.513" x2="138.663" y2="30.6379" gradientUnits="userSpaceOnUse">
<stop offset="0.2737" stop-color="#55A366"/>
<stop offset="0.2876" stop-color="#58A567"/>
<stop offset="0.4432" stop-color="#7CB571"/>
<stop offset="0.5708" stop-color="#91BF78"/>
<stop offset="0.6535" stop-color="#99C37A"/>
<stop offset="0.6808" stop-color="#A5C97D"/>
<stop offset="0.7767" stop-color="#CCDB86"/>
<stop offset="0.8651" stop-color="#E8E78D"/>
<stop offset="0.9423" stop-color="#F9EF91"/>
<stop offset="1" stop-color="#FFF292"/>
</linearGradient>
<linearGradient id="paint8_linear_3_17523" x1="21.4737" y1="109.607" x2="193.396" y2="11.9815" gradientUnits="userSpaceOnUse">
<stop offset="0.0082" stop-color="#55A366"/>
<stop offset="0.1564" stop-color="#6EAF6D"/>
<stop offset="0.3396" stop-color="#86BA74"/>
<stop offset="0.51" stop-color="#94C179"/>
<stop offset="0.6535" stop-color="#99C37A"/>
<stop offset="0.6808" stop-color="#A5C97D"/>
<stop offset="0.7767" stop-color="#CCDB86"/>
<stop offset="0.8651" stop-color="#E8E78D"/>
<stop offset="0.9423" stop-color="#F9EF91"/>
<stop offset="1" stop-color="#FFF292"/>
</linearGradient>
<linearGradient id="paint9_linear_3_17523" x1="99.5761" y1="83.3232" x2="167.633" y2="32.1821" gradientUnits="userSpaceOnUse">
<stop stop-color="#4E9365"/>
<stop offset="0.2221" stop-color="#599A68"/>
<stop offset="0.6104" stop-color="#76AC70"/>
<stop offset="1" stop-color="#99C37A"/>
</linearGradient>
<linearGradient id="paint10_linear_3_17523" x1="44.0844" y1="162.538" x2="124.607" y2="62.2522" gradientUnits="userSpaceOnUse">
<stop offset="0.1298" stop-color="#F2A290"/>
<stop offset="0.3466" stop-color="#F8C3B0"/>
<stop offset="0.5378" stop-color="#FCDAC5"/>
<stop offset="0.6594" stop-color="#FDE2CD"/>
</linearGradient>
<linearGradient id="paint11_linear_3_17523" x1="122.863" y1="94.5871" x2="114.294" y2="98.6636" gradientUnits="userSpaceOnUse">
<stop stop-color="#F2A290"/>
<stop offset="0.0057" stop-color="#F2A391"/>
<stop offset="0.2514" stop-color="#F7BEAB"/>
<stop offset="0.4991" stop-color="#FAD2BE"/>
<stop offset="0.748" stop-color="#FCDEC9"/>
<stop offset="1" stop-color="#FDE2CD"/>
</linearGradient>
<clipPath id="clip0_3_17523">
<rect width="198.663" height="198.663" fill="white" transform="translate(0.446289 0.772461)"/>
</clipPath>
</defs>
</svg>
