<svg width="199" height="200" viewBox="0 0 199 200" fill="none" xmlns="http://www.w3.org/2000/svg">
<g clip-path="url(#clip0_3_17463)">
<rect width="198.663" height="198.663" transform="translate(0.157227 0.772461)" fill="#FDA656"/>
<path d="M177.296 169.862V291.496C177.296 293.421 176.949 295.384 176.237 297.173C175.798 298.269 175.222 299.316 174.522 300.244C174.089 300.833 173.606 301.377 173.074 301.879C171.711 303.179 170.064 304.133 168.306 304.677C166.548 305.222 164.678 305.352 162.876 305.123L39.9485 289.613C38.0043 289.366 36.0849 288.691 34.3513 287.688C32.6114 286.685 31.0573 285.36 29.7509 283.787C28.4445 282.221 27.3857 280.413 26.6613 278.462C25.9307 276.512 25.5345 274.407 25.5345 272.32L24.9834 165.77C30.0419 162.234 35.3295 159.541 40.8586 157.491C49.5082 154.29 58.7399 152.662 68.5783 151.832C78.7758 150.972 89.6173 150.972 101.134 150.972C112.799 150.972 124.507 151.981 135.46 153.987C145.057 155.733 154.072 158.247 161.966 161.516C167.749 163.9 172.925 166.68 177.296 169.862Z" fill="#9090DD"/>
<path d="M58.9036 177.49C60.0416 175.84 61.5468 173.752 62.4892 172.806C51.2391 168.627 44.5336 163.179 44.8308 157.792C44.8617 157.185 44.9856 156.591 45.1899 156.009C53.8395 152.808 63.0712 151.179 72.9096 150.35L74.6742 153.551C74.3336 154.746 74.1788 156.058 74.1788 157.47C74.1788 171.673 90.0664 195.096 90.4874 195.721C76.349 194.021 64.255 185.422 59.503 181.615C58.2504 180.612 57.9922 178.81 58.9036 177.49Z" fill="#6060B4"/>
<path d="M163.056 165.553C162.629 172.382 150.951 177.534 133.98 180.072C134.325 180.71 135.739 182.771 137.003 184.584C138.114 186.177 137.431 188.385 135.617 189.076C127.498 192.169 106.811 199.087 88.0386 197.396C87.4195 197.341 86.7941 197.279 86.1812 197.205C106.155 184.735 126.798 163.399 135.46 153.987C145.057 155.733 154.072 158.247 161.966 161.516C162.759 162.829 163.136 164.179 163.056 165.553Z" fill="#6060B4"/>
<path d="M128.028 162.238C127.292 171.897 113.491 178.719 97.2049 177.476C80.918 176.233 68.3126 167.397 69.0487 157.739C69.7855 148.081 83.5859 141.259 99.8729 142.502C116.159 143.744 128.765 152.581 128.028 162.238Z" fill="url(#paint0_linear_3_17463)"/>
<path d="M125.762 166.206C121.188 173.547 107.69 177.531 92.599 175.344C75.826 172.907 63.0967 163.728 62.9958 154.355C62.3141 155.5 61.8578 156.729 61.6411 158.028C60.5774 164.478 65.7579 171.136 74.4032 175.793C76.7708 180.748 81.0609 187.552 87.6482 190.332C87.6482 190.332 101.301 186.526 110.396 180.809C118.756 178.841 124.684 174.468 125.652 168.6C125.781 167.805 125.819 167.001 125.762 166.206Z" fill="white" stroke="#871C20" stroke-width="0.990652" stroke-miterlimit="10" stroke-linecap="round" stroke-linejoin="round"/>
<path d="M56.9258 177.323C56.9258 177.323 60.133 172.4 61.6871 170.846C51.2605 166.97 45.038 161.918 45.3166 156.921C45.6262 151.213 54.3563 146.371 67.9282 143.808L70.5535 148.569L72.9867 152.984C72.671 154.098 72.5224 155.312 72.5224 156.624C72.5224 166.778 81.2834 182.016 85.4689 188.721C86.7196 190.715 87.5555 191.953 87.6484 192.09C70.702 190.053 56.9258 177.323 56.9258 177.323Z" fill="#9090DD" stroke="#871C20" stroke-width="0.990652" stroke-miterlimit="10" stroke-linecap="round" stroke-linejoin="round"/>
<path d="M66.1979 170.714L67.2926 169.619L65.8413 169.081" stroke="#871C20" stroke-width="0.990652" stroke-linecap="round" stroke-linejoin="round"/>
<path d="M63.0202 168.036L62.7657 167.942C51.949 163.917 48.2712 159.583 48.4074 157.094C48.5542 154.401 56.3172 148.752 66.8069 147.516" stroke="#871C20" stroke-width="0.990652" stroke-linecap="round" stroke-linejoin="round" stroke-dasharray="4.81 4.81"/>
<path d="M68.3037 147.371C68.8133 147.332 69.329 147.305 69.8497 147.289L70.597 148.644" stroke="#871C20" stroke-width="0.990652" stroke-linecap="round" stroke-linejoin="round"/>
<path d="M72.1577 151.477L72.988 152.982C72.6722 154.097 72.5236 155.31 72.5236 156.623C72.5236 165.582 79.3443 178.499 83.8245 186.021" stroke="#871C20" stroke-width="0.990652" stroke-linecap="round" stroke-linejoin="round" stroke-dasharray="5.17 5.17"/>
<path d="M84.6571 187.404C84.9426 187.872 85.2144 188.312 85.4694 188.721C84.9729 188.609 84.472 188.484 83.9692 188.348" stroke="#871C20" stroke-width="0.990652" stroke-linecap="round" stroke-linejoin="round"/>
<path d="M80.6612 187.311C74.1476 185.007 67.6366 181.265 63.7148 178.647" stroke="#871C20" stroke-width="0.990652" stroke-linecap="round" stroke-linejoin="round" stroke-dasharray="5.55 5.55"/>
<path d="M62.2886 177.665C61.805 177.32 61.3896 177.009 61.0503 176.74C61.345 176.315 61.6478 175.887 61.9438 175.476" stroke="#871C20" stroke-width="0.990652" stroke-linecap="round" stroke-linejoin="round"/>
<path d="M63.231 173.774C63.4811 173.465 63.7021 173.21 63.8811 173.031L65.4445 171.468" stroke="#871C20" stroke-width="0.990652" stroke-linecap="round" stroke-linejoin="round" stroke-dasharray="3.41 3.41"/>
<path d="M158.94 162.742C158.55 169.07 147.721 173.85 131.988 176.202C132.595 177.329 136.792 183.23 136.792 183.23C136.792 183.23 111.642 194.269 89.3897 192.263C88.8139 192.214 88.2381 192.152 87.6685 192.09C89.1854 191.143 90.7085 190.14 92.2254 189.093C110.695 176.363 128.83 157.046 135.034 150.185C136.483 148.582 137.282 147.659 137.282 147.659C150.668 151.51 159.293 156.903 158.94 162.742Z" fill="#9090DD" stroke="#871C20" stroke-width="0.990652" stroke-miterlimit="10" stroke-linecap="round" stroke-linejoin="round"/>
<path d="M128.709 173.562L127.178 173.793L127.912 175.156" stroke="#871C20" stroke-width="0.990652" stroke-linecap="round" stroke-linejoin="round"/>
<path d="M128.898 176.994L129.262 177.67C129.466 178.052 129.942 178.79 130.531 179.663" stroke="#871C20" stroke-width="0.990652" stroke-linecap="round" stroke-linejoin="round" stroke-dasharray="3.34 3.34"/>
<path d="M131.119 180.527C131.406 180.945 131.704 181.376 132 181.8C131.575 181.96 131.086 182.129 130.539 182.306" stroke="#871C20" stroke-width="0.990652" stroke-linecap="round" stroke-linejoin="round"/>
<path d="M127.781 183.123C120.047 185.262 106.435 187.975 95.2109 188.89" stroke="#871C20" stroke-width="0.990652" stroke-linecap="round" stroke-linejoin="round" stroke-dasharray="4.61 4.61"/>
<path d="M93.7696 188.999C93.2489 189.035 92.7338 189.067 92.2261 189.093C92.649 188.802 93.0725 188.506 93.4947 188.208" stroke="#871C20" stroke-width="0.990652" stroke-linecap="round" stroke-linejoin="round"/>
<path d="M96.1089 186.32C111.401 175.028 125.897 160.096 132.901 152.519" stroke="#871C20" stroke-width="0.990652" stroke-linecap="round" stroke-linejoin="round" stroke-dasharray="5.16 5.16"/>
<path d="M133.997 151.329C134.374 150.917 134.72 150.535 135.037 150.186C135.542 150.306 136.042 150.434 136.536 150.568" stroke="#871C20" stroke-width="0.990652" stroke-linecap="round" stroke-linejoin="round"/>
<path d="M139.567 151.492C149.13 154.725 156.001 160.122 155.85 162.557C155.634 166.042 148.03 170.674 131.53 173.138L130.277 173.327" stroke="#871C20" stroke-width="0.990652" stroke-linecap="round" stroke-linejoin="round" stroke-dasharray="5.07 5.07"/>
<path d="M45.9604 99.6408C45.2428 106.44 49.9231 114.367 56.0589 115.011C63.1018 115.751 67.9671 109.867 68.3492 103.741C68.7745 96.9202 64.5054 89.151 58.3696 88.5034C52.2344 87.8557 46.6781 92.8424 45.9604 99.6408Z" fill="#FDE0CB"/>
<path d="M55.7662 114.975C49.6953 114.156 45.2436 106.44 45.9612 99.6408C46.6788 92.8418 52.2351 87.8557 58.371 88.5034C61.7825 88.8637 64.4406 90.8952 66.0046 93.7966C66.0046 93.7966 67.2912 96.2756 67.7135 98.1362" stroke="#871C20" stroke-width="0.990652" stroke-miterlimit="10" stroke-linecap="round" stroke-linejoin="round"/>
<path d="M52.668 94.5493C53.7298 93.9785 54.9242 93.7296 56.1613 93.8912C59.2403 94.2949 61.5665 96.2719 62.0173 99.8035" stroke="#871C20" stroke-width="0.990652" stroke-miterlimit="10" stroke-linecap="round" stroke-linejoin="round"/>
<path d="M153.461 121.405C153.183 150.235 127.26 165.341 97.0475 162.522C68.4244 159.851 47.8102 142.017 50.3004 115.961C52.6873 90.988 78.243 67.3696 105.651 69.8239C133.696 72.3352 153.751 91.4133 153.461 121.405Z" fill="url(#paint1_linear_3_17463)"/>
<path d="M153.461 121.405C153.183 150.235 127.26 165.341 97.0475 162.522C68.4244 159.851 47.8102 142.017 50.3004 115.961C52.6873 90.988 78.243 67.3696 105.651 69.8239C133.696 72.3352 153.751 91.4133 153.461 121.405Z" stroke="#871C20" stroke-width="0.990652" stroke-miterlimit="10" stroke-linecap="round" stroke-linejoin="round"/>
<path d="M77.8963 99.8257C75.9899 102.411 75.7615 105.614 77.2821 108.442" stroke="#871C20" stroke-width="9.90652" stroke-miterlimit="10" stroke-linecap="round" stroke-linejoin="round"/>
<path d="M105.039 101.761C103.133 104.346 102.905 107.549 104.425 110.378" stroke="#871C20" stroke-width="9.90652" stroke-miterlimit="10" stroke-linecap="round" stroke-linejoin="round"/>
<path d="M101.16 124.979C99.3975 125.954 96.397 126.824 94.7327 126.744C86.1277 126.331 85.3655 121.403 85.3655 121.403C83.0115 124.912 78.5975 125.927 76.1085 125.394C73.9767 124.938 72.2449 123.995 70.9138 123.14C70.1212 122.633 69.9479 121.561 70.5175 120.806C73.9105 116.311 79.9534 113.506 86.6527 113.915C93.3892 114.33 99.0668 117.871 101.878 122.787C102.33 123.58 101.959 124.537 101.16 124.979Z" fill="#871C20" stroke="#871C20" stroke-width="0.990652" stroke-miterlimit="10" stroke-linecap="round" stroke-linejoin="round"/>
<path d="M70.4564 127.141C72.8445 125.809 74.6964 123.679 75.5223 120.98C77.3377 115.051 73.5156 108.624 66.9854 106.625" fill="#FCDBC6"/>
<path d="M70.4564 127.141C72.8445 125.809 74.6964 123.679 75.5223 120.98C77.3377 115.051 73.5156 108.624 66.9854 106.625" stroke="#871C20" stroke-width="0.990652" stroke-miterlimit="10" stroke-linecap="round" stroke-linejoin="round"/>
<path d="M89.5331 113.306L79.9164 116.481C77.0924 117.378 74.0752 115.816 73.1781 112.992C72.2809 110.168 73.843 107.151 76.667 106.254L86.2838 103.079" fill="#FCDAC5"/>
<path d="M89.5331 113.306L79.9164 116.481C77.0924 117.378 74.0752 115.816 73.1781 112.992C72.2809 110.168 73.843 107.151 76.667 106.254L86.2838 103.079" stroke="#871C20" stroke-width="0.990652" stroke-miterlimit="10" stroke-linecap="round" stroke-linejoin="round"/>
<path d="M149.338 124.913C155.92 124.913 161.256 119.972 161.256 113.878C161.256 107.784 155.92 102.843 149.338 102.843C142.756 102.843 137.42 107.784 137.42 113.878C137.42 119.972 142.756 124.913 149.338 124.913Z" fill="white" stroke="#871C20" stroke-width="0.990652" stroke-miterlimit="10" stroke-linecap="round" stroke-linejoin="round"/>
<path d="M152.656 93.5719C151.617 84.0356 83.658 56.1908 76.9785 70.1151C77.0312 70.0055 74.1973 77.3388 74.1973 77.3388C77.2652 75.1489 86.6881 68.8081 91.4123 70.0371C96.747 71.4252 102.94 80.7275 105.693 81.515C111.303 83.1044 116.85 84.8901 122.321 86.8664L129.489 99.8346C129.489 99.8346 139.904 103.82 147.257 102.956C147.257 102.956 149.494 102.903 149.972 101.795C150.258 100.933 152.305 94.8919 152.561 94.1316L152.55 94.1303C152.62 93.9539 152.671 93.762 152.656 93.5719Z" fill="#7272C4" stroke="#871C20" stroke-width="0.990652" stroke-miterlimit="10" stroke-linecap="round" stroke-linejoin="round"/>
<path d="M163.95 81.6761C162.141 66.937 147.756 55.7216 134.997 48.2781C121.517 40.4142 104.174 34.3359 88.0612 36.6701C78.5008 38.0552 72.8361 45.3383 74.6582 54.9087C74.5709 54.4505 76.2353 64.5 76.9776 70.1152C93.2664 60.5956 138.225 80.2285 151.8 96.378C162.289 93.1546 164.4 87.7048 163.95 81.6761Z" fill="#FDBF56" stroke="#871C20" stroke-width="0.990652" stroke-miterlimit="10"/>
<path d="M103.698 52.5175C106.205 56.8591 105.324 62.0612 101.731 64.136C98.137 66.2108 93.1918 64.3732 90.6849 60.031C88.1779 55.6895 89.0589 50.4873 92.6525 48.4125C96.2461 46.3377 101.192 48.176 103.698 52.5175Z" fill="#9090DD" stroke="#871C20" stroke-width="0.990652" stroke-miterlimit="10" stroke-linecap="round" stroke-linejoin="round"/>
<path d="M95.8102 70.8596C96.5197 72.8478 93.905 75.5981 89.9696 77.0023C86.0343 78.4072 82.2686 77.9341 81.559 75.9466C80.8495 73.9591 83.4642 71.2089 87.3995 69.804C91.3349 68.3991 95.1006 68.8721 95.8102 70.8596Z" fill="#871C20" stroke="#871C20" stroke-width="0.990652" stroke-miterlimit="10" stroke-linecap="round" stroke-linejoin="round"/>
<path d="M99.4531 77.6864C101.332 75.3141 101.514 72.3287 99.8597 71.0182C98.2053 69.7078 95.3408 70.5686 93.4618 72.9409C91.5828 75.3132 91.4008 78.2986 93.0552 79.6091C94.7097 80.9195 97.5741 80.0587 99.4531 77.6864Z" fill="#871C20" stroke="#871C20" stroke-width="0.990652" stroke-miterlimit="10" stroke-linecap="round" stroke-linejoin="round"/>
<path d="M162.943 114.83C161.944 121.922 154.37 128.675 147.068 127.644C138.686 126.46 134.619 119.156 135.826 112.84C137.171 105.805 144.225 99.0994 151.528 100.128C158.83 101.156 163.941 107.738 162.943 114.83Z" fill="#F9CAB6"/>
<path d="M147.418 127.687C154.692 128.524 161.944 121.922 162.942 114.83C163.941 107.738 158.829 101.156 151.526 100.127C147.465 99.556 143.829 100.886 141.23 103.398C141.23 103.398 139.067 105.559 138.075 107.33" stroke="#871C20" stroke-width="0.990652" stroke-miterlimit="10" stroke-linecap="round" stroke-linejoin="round"/>
<path d="M159.411 115.822C160.187 111.042 157.155 106.733 152.64 106.198C148.953 105.762 145.718 107.128 144.242 110.586C143.347 112.683 143.462 115.094 144.645 117.044C145.447 118.364 146.849 120.563 149.2 121.1" stroke="#871C20" stroke-width="0.990652" stroke-miterlimit="10" stroke-linecap="round" stroke-linejoin="round"/>
<path d="M146.3 119.323C146.3 119.323 145.018 118.093 144.598 117.438C143.368 115.518 143.213 113.031 144.109 110.933C144.741 109.451 145.74 108.262 146.911 107.331C146.911 107.331 150.196 112.666 146.3 119.323Z" fill="#871C20" stroke="#871C20" stroke-width="0.990652" stroke-miterlimit="10" stroke-linecap="round" stroke-linejoin="round"/>
<path d="M101.414 129.688C99.5197 127.516 98.373 124.675 98.373 121.567C98.373 114.738 103.91 109.201 110.739 109.201C113.178 109.201 115.453 109.908 117.369 111.127" fill="#FAD0BC"/>
<path d="M101.414 129.688C99.5197 127.516 98.373 124.675 98.373 121.567C98.373 114.738 103.91 109.201 110.739 109.201C113.178 109.201 115.453 109.908 117.369 111.127" stroke="#871C20" stroke-width="0.990652" stroke-miterlimit="10" stroke-linecap="round" stroke-linejoin="round"/>
<path d="M90.2444 71.1131C79.2599 74.3965 75.6155 77.4316 72.2132 79.733C46.5386 73.4033 45.0093 59.7577 49.4549 55.2379C55.6465 48.9435 63.3921 53.0826 70.0357 56.3889C77.9665 60.3397 84.3933 65.6273 90.2444 71.1131Z" fill="url(#paint2_linear_3_17463)" stroke="#871C20" stroke-width="0.990652" stroke-miterlimit="10"/>
<path d="M118.213 77.3757C124.59 83.7604 127.871 91.9834 129.489 99.835C123.688 97.128 114.252 94.5523 106.056 86.2872C95.144 75.2841 70.1832 48.0233 49.4551 55.2377C65.3575 40.5203 109.396 68.5496 118.213 77.3757Z" fill="url(#paint3_linear_3_17463)"/>
<path d="M49.4551 55.2375C65.5043 40.4093 109.395 68.5488 118.213 77.3749C124.59 83.7596 127.871 91.9827 129.489 99.8342C123.688 97.1272 114.252 94.5516 106.056 86.2864C99.6979 79.8744 88.5685 67.9426 76.2869 60.5288" stroke="#871C20" stroke-width="0.990652" stroke-miterlimit="10" stroke-linecap="round" stroke-linejoin="round"/>
<path d="M109.68 118.363C107.497 119.876 104.835 119.814 103.734 118.226C102.634 116.638 103.512 114.124 105.695 112.611C107.878 111.099 110.541 111.161 111.641 112.749C112.741 114.337 111.863 116.851 109.68 118.363Z" fill="#F6B7A4"/>
<path d="M70.5637 114.217C69.7006 115.307 67.7768 115.222 66.2667 114.026C64.7572 112.829 64.2334 110.977 65.0965 109.886C65.9596 108.797 67.8833 108.882 69.3934 110.078C70.903 111.275 71.4268 113.128 70.5637 114.217Z" fill="#F6B7A4"/>
<path d="M74.3188 94.2815C76.2599 89.9356 82.4868 90.1059 84.187 94.552" stroke="#871C20" stroke-width="0.990652" stroke-miterlimit="10" stroke-linecap="round" stroke-linejoin="round"/>
<path d="M99.5503 95.555C101.491 91.2091 107.718 91.3794 109.418 95.8249" stroke="#871C20" stroke-width="0.990652" stroke-miterlimit="10" stroke-linecap="round" stroke-linejoin="round"/>
</g>
<defs>
<linearGradient id="paint0_linear_3_17463" x1="115.333" y1="169.79" x2="25.5181" y2="131.759" gradientUnits="userSpaceOnUse">
<stop stop-color="#F2A290"/>
<stop offset="0.1701" stop-color="#F6B9A6"/>
<stop offset="0.3921" stop-color="#FACFBB"/>
<stop offset="0.6021" stop-color="#FCDDC8"/>
<stop offset="0.7858" stop-color="#FDE2CD"/>
</linearGradient>
<linearGradient id="paint1_linear_3_17463" x1="134.678" y1="178.942" x2="60.5269" y2="42.1147" gradientUnits="userSpaceOnUse">
<stop stop-color="#F2A290"/>
<stop offset="0.1701" stop-color="#F6B9A6"/>
<stop offset="0.3921" stop-color="#FACFBB"/>
<stop offset="0.6021" stop-color="#FCDDC8"/>
<stop offset="0.7858" stop-color="#FDE2CD"/>
</linearGradient>
<linearGradient id="paint2_linear_3_17463" x1="84.8742" y1="79.6708" x2="49.7922" y2="54.987" gradientUnits="userSpaceOnUse">
<stop offset="0.0564" stop-color="#6060B4"/>
<stop offset="0.2223" stop-color="#7777C8"/>
<stop offset="0.3981" stop-color="#8A8AD7"/>
<stop offset="0.5241" stop-color="#9090DD"/>
<stop offset="1" stop-color="#9090DD"/>
</linearGradient>
<linearGradient id="paint3_linear_3_17463" x1="131.264" y1="99.2922" x2="56.1796" y2="46.4628" gradientUnits="userSpaceOnUse">
<stop offset="0.0564" stop-color="#6060B4"/>
<stop offset="0.2283" stop-color="#7777C8"/>
<stop offset="0.4106" stop-color="#8A8AD7"/>
<stop offset="0.5411" stop-color="#9090DD"/>
<stop offset="1" stop-color="#9090DD"/>
</linearGradient>
<clipPath id="clip0_3_17463">
<rect width="198.663" height="198.663" fill="white" transform="translate(0.157227 0.772461)"/>
</clipPath>
</defs>
</svg>
