<svg width="199" height="200" viewBox="0 0 199 200" fill="none" xmlns="http://www.w3.org/2000/svg">
<g clip-path="url(#clip0_3_16082)">
<rect width="198.663" height="198.663" transform="translate(0.157227 0.583984)" fill="#C870FF"/>
<path d="M95.9079 37.0059C75.5049 37.0059 58.957 56.5634 58.957 80.6976C58.957 90.0085 61.4257 98.6545 65.6303 105.745H126.185C130.39 98.6545 132.859 90.0198 132.859 80.6976C132.847 56.5634 116.311 37.0059 95.9079 37.0059Z" fill="black"/>
<path d="M168.762 132.9C159.135 112.576 138.541 108.383 129.444 108.834C129.444 108.834 113.877 109.116 109.458 116.837C106.899 121.312 106.651 122.451 106.651 122.451L36.7852 123.781C16.4723 126.768 6.18067 144.883 -0.616566 159.458L-29.4175 223.519C-41.6142 266.354 9.35948 265.339 9.35948 265.339H77.5799H105.107H151.808H165.031C216.636 265.339 214.979 238.489 205.262 206.261C205.273 204.3 175.345 146.788 168.762 132.9Z" fill="#6983FF" stroke="black" stroke-width="1.08215"/>
<path d="M185.997 210.363L139.859 129.811L107.485 136.698L138.078 237.135C140.028 245.804 147.817 263.591 163.317 265.429" stroke="white" stroke-width="1.08215" stroke-linecap="round"/>
<path d="M45.2632 173.435L16.2368 224.488H77.4345V264.358" stroke="white" stroke-width="1.08215" stroke-linecap="round"/>
<path d="M130.211 112.959L136.253 130.364L113.066 135.29L108.072 114.492C113.212 102.814 121.813 83.6172 122.332 82.0391C122.862 80.4497 125.206 79.7959 126.255 80.8104C126.773 78.9505 130.73 79.5817 130.73 82.0391C133.976 80.8104 134.653 83.5834 134.585 84.6205C137.268 83.3467 138.959 85.6575 138.35 87.4386C138.034 88.3629 136.772 102.149 136.772 102.149C134.878 108.067 130.211 112.959 130.211 112.959Z" fill="#FF85D2"/>
<path d="M133.67 86.3789L132.036 99.3759" stroke="#FF01A1" stroke-width="1.08215" stroke-linecap="round"/>
<path d="M132.025 99.376C129.275 99.5451 123.154 101.766 120.618 109.284" stroke="#FF01A1" stroke-width="1.08215" stroke-linecap="round"/>
<path d="M129.669 83.8086L128.034 96.8056" stroke="#FF01A1" stroke-width="1.08215" stroke-linecap="round"/>
<path d="M126.322 82.2871L124.687 95.2842" stroke="#FF01A1" stroke-width="1.08215" stroke-linecap="round"/>
<path d="M118.149 76.876L119.953 64.0593C119.761 62.7405 107.88 51.5019 78.0986 61.7147C81.0407 71.2286 76.6783 81.9148 76.6783 81.9148C70.5799 76.876 62.5765 80.2014 62.3511 86.3786C62.7231 96.9634 71.2562 96.0278 75.0776 93.4689V124.062C75.0776 124.062 77.1291 129.653 81.0407 131.603C94.1842 138.897 102.92 128.774 106.122 124.062V108.439C110.011 108.439 118.161 108.923 121.576 102.092C125.071 95.0809 121.452 82.8391 118.149 76.876Z" fill="#FF85D2"/>
<path d="M121.609 85.3188C123.367 92.1837 128.924 107.582 112.343 108.461" stroke="#FF01A1" stroke-width="1.08215" stroke-linecap="round"/>
<path d="M106.132 116.341L91.8271 106.906C91.8271 106.906 96.2572 107.662 99.0978 107.943C101.848 108.225 106.132 108.36 106.132 108.36V116.341Z" fill="black"/>
<path d="M105.647 69.2783C106.774 75.0949 102.322 78.5104 102.322 78.5104L107.642 87.9003H101.375" stroke="black" stroke-width="1.08215" stroke-linecap="round"/>
<path d="M94.9278 67.4298C92.6395 67.0353 90.3287 67.0804 88.728 67.5313" stroke="black" stroke-width="1.08215" stroke-linecap="round"/>
<path d="M115.747 67.9484C113.459 67.5538 111.148 67.5989 109.536 68.0498" stroke="black" stroke-width="1.08215" stroke-linecap="round"/>
<path d="M101.004 97.2224C98.9528 96.1403 97.1492 94.6861 96.1572 93.3447" stroke="black" stroke-width="1.08215" stroke-linecap="round"/>
<path d="M75.9359 88.7121L68.3496 82.501" stroke="black" stroke-width="1.08215" stroke-linecap="round"/>
<path d="M70.5453 84.3945L66.769 87.9679" stroke="black" stroke-width="1.08215" stroke-linecap="round"/>
<path d="M91.5013 78.105C92.267 78.105 92.8877 77.4843 92.8877 76.7185C92.8877 75.9528 92.267 75.332 91.5013 75.332C90.7355 75.332 90.1147 75.9528 90.1147 76.7185C90.1147 77.4843 90.7355 78.105 91.5013 78.105Z" fill="black"/>
<path d="M112.312 78.6236C113.078 78.6236 113.698 78.0028 113.698 77.2371C113.698 76.4713 113.078 75.8506 112.312 75.8506C111.546 75.8506 110.925 76.4713 110.925 77.2371C110.925 78.0028 111.546 78.6236 112.312 78.6236Z" fill="black"/>
</g>
<defs>
<clipPath id="clip0_3_16082">
<rect width="198.663" height="198.663" fill="white" transform="translate(0.157227 0.583984)"/>
</clipPath>
</defs>
</svg>
