<svg width="199" height="200" viewBox="0 0 199 200" fill="none" xmlns="http://www.w3.org/2000/svg">
<g clip-path="url(#clip0_3_15951)">
<rect width="198.663" height="198.663" transform="translate(0.290039 0.583984)" fill="#8F5AFF"/>
<path d="M129.031 67.9557C129.538 86.8396 118.97 107.204 103.717 107.204C93.5344 107.204 84.1229 94.1619 77.5308 82.1947C71.466 76.0893 70.0259 71.9921 70.0259 66.8603C70.0259 51.4043 82.3988 38.8691 97.652 38.8691C112.905 38.8691 128.605 51.7086 129.031 67.9557Z" fill="black"/>
<path d="M167.589 54.8731C145.967 44.3257 130.004 50.4716 124.73 54.8731V59.7006C127.063 59.4775 139.639 62.0332 145.866 68.4225C154.669 77.4689 153.29 93.8783 151.566 100.247L158.3 95.359L157.042 90.4706L160.632 93.6754L175.825 82.6615L177.731 81.2822L174.506 73.5339L181.524 78.5237L183.431 77.1444L191.017 71.6476C187.873 68.6659 178.806 61.1002 167.589 54.8731Z" fill="black"/>
<path d="M136.21 118.685L62.0333 120.105C47.2872 121.89 39.5795 138.887 33.7581 147.062L-4.78047 206.188L-41.3516 181.604L-59.0591 206.959C-44.9418 218.236 -28.999 230.69 -21.0478 235.781C-5.28757 245.903 10.1076 240 15.8478 235.781L54.9341 189.758V241.562L145.338 243.367V189.738L197 292.028L227.506 278.904C209.373 229.798 188.339 184.119 165.946 136.859C158.664 121.525 143.086 118.36 136.21 118.685Z" fill="#FF85D2"/>
<path d="M145.073 186.107V161.361" stroke="white" stroke-width="1.94721" stroke-linecap="round"/>
<path d="M54.9761 186.107V161.361" stroke="white" stroke-width="1.94721" stroke-linecap="round"/>
<path d="M112.456 188.582C112.091 184.038 112.517 175.154 117.182 175.986C123.004 177.02 130.529 188.582 136.979 184.262C140.204 181.665 136.695 170.793 139.19 167.69" stroke="white" stroke-width="1.94721" stroke-linecap="round"/>
<path d="M140.124 135.642C139.759 131.098 140.185 122.214 144.85 123.046C150.022 123.979 156.574 133.248 162.497 132.194" stroke="white" stroke-width="1.94721" stroke-linecap="round"/>
<path d="M170.935 194.647C170.57 190.103 170.996 181.219 175.661 182.051C179.982 182.821 185.276 189.414 190.346 190.955" stroke="white" stroke-width="1.94721" stroke-linecap="round"/>
<path d="M47.7936 162.152C47.4285 157.608 47.8747 148.724 52.5197 149.556C58.341 150.59 65.8661 162.152 72.3163 157.831C75.5414 155.235 72.0324 144.363 74.5272 141.26" stroke="white" stroke-width="1.94721" stroke-linecap="round"/>
<path d="M74.8517 80.186L71.8092 74.8312C75.5414 73.6547 83.8982 59.4563 84.5067 53.7363C86.3525 59.6997 96.5754 71.89 115.439 78.685L111.707 84.6484C117.123 80.1657 124.242 83.1271 124.425 88.6036C124.1 97.9949 116.514 97.1836 113.106 94.9118V122.092C113.106 122.092 111.281 127.061 107.812 128.785C96.1291 135.256 88.3808 126.27 85.5412 122.092V108.218C82.093 108.218 74.8517 108.644 71.8092 102.579C68.7058 96.3722 71.9106 85.48 74.8517 80.186Z" fill="#FECB4B"/>
<path d="M85.5205 115.257L98.218 106.88C98.218 106.88 94.283 107.549 91.7678 107.813C89.3135 108.056 85.5205 108.178 85.5205 108.178V115.257V115.257Z" fill="black"/>
<path d="M85.9478 73.4321C84.9539 78.6044 88.9092 81.6267 88.9092 81.6267L84.1831 89.9632H89.7611" stroke="black" stroke-width="1.94721" stroke-linecap="round"/>
<path d="M95.4795 71.8089C97.5078 71.4641 99.5767 71.5046 100.997 71.89" stroke="black" stroke-width="1.94721" stroke-linecap="round"/>
<path d="M76.9839 72.2557C79.0122 71.9108 81.0812 71.9514 82.501 72.3368" stroke="black" stroke-width="1.94721" stroke-linecap="round"/>
<path d="M90.0835 98.2592C91.909 97.2856 93.5114 96.0078 94.3836 94.811" stroke="black" stroke-width="1.94721" stroke-linecap="round"/>
<path d="M112.355 90.6939L119.09 85.1768" stroke="black" stroke-width="1.94721" stroke-linecap="round"/>
<path d="M117.144 86.8809L120.511 90.0451" stroke="black" stroke-width="1.94721" stroke-linecap="round"/>
<path d="M119.05 79.436L126.413 73.4321" stroke="black" stroke-width="1.29814" stroke-linecap="round"/>
<path d="M80.0449 82.0127C80.8739 82.0127 81.5459 81.3407 81.5459 80.5117C81.5459 79.6828 80.8739 79.0107 80.0449 79.0107C79.2159 79.0107 78.5439 79.6828 78.5439 80.5117C78.5439 81.3407 79.2159 82.0127 80.0449 82.0127Z" fill="black"/>
<path d="M97.4873 82.0127C98.3163 82.0127 98.9882 81.3407 98.9882 80.5117C98.9882 79.6828 98.3163 79.0107 97.4873 79.0107C96.6583 79.0107 95.9863 79.6828 95.9863 80.5117C95.9863 81.3407 96.6583 82.0127 97.4873 82.0127Z" fill="black"/>
</g>
<defs>
<clipPath id="clip0_3_15951">
<rect width="198.663" height="198.663" fill="white" transform="translate(0.290039 0.583984)"/>
</clipPath>
</defs>
</svg>
