<svg width="200" height="199" viewBox="0 0 200 199" fill="none" xmlns="http://www.w3.org/2000/svg">
<g clip-path="url(#clip0_3_15883)">
<rect width="198.663" height="198.663" transform="translate(0.868164 0.187988)" fill="#FF7B7B"/>
<path d="M70.4383 118.275L154.948 135.526C169.098 142.067 178.662 156.66 181.685 163.123L213.581 266.604C224.266 293.861 198.207 310.148 183.822 314.891L51.4672 342.488L48.4444 317.471H3.59653L28.1704 190.719L-14.9576 214.433C-29.1077 225.821 -50.1636 219.176 -58.9455 214.433L-135.638 151.474L-110.204 118.275L-33.9026 169.585C-16.3648 159.083 6.67153 143.109 17.2516 135.526C34.2161 123.356 52.9526 115.122 70.4383 118.275Z" fill="#FECB4B"/>
<path d="M135.17 77.3088C135.17 97.5308 120.524 113.922 102.465 113.922C102.465 113.922 81.4357 98.1562 72.7319 79.602C65.0705 59.0153 84.3804 40.7217 102.465 40.7217C120.524 40.6957 135.17 57.0869 135.17 77.3088Z" fill="black"/>
<path d="M73.6167 83.042L71.8187 75.98C69.76 67.1199 80.5485 41.1388 113.435 61.3608C116.067 69.9082 121.435 88.1757 121.435 88.1757C127.611 83.0681 136.081 83.9801 138.113 90.1041C140.875 100.997 132.041 104.202 122.426 103.785V113.74V130.887C122.426 130.887 118.908 135.291 114.947 137.271C101.604 144.672 89.0438 135.682 85.8124 130.887V115.043C81.8514 115.043 73.5907 115.538 70.1248 108.606C66.6068 101.518 70.2551 89.0878 73.6167 83.042Z" fill="#6983FF"/>
<path d="M85.7349 121.923L98.0609 113.792C98.0609 113.792 94.2302 114.444 91.8067 114.678C89.4353 114.913 85.7349 115.043 85.7349 115.043V121.923Z" fill="black"/>
<path d="M86.5161 77.3096C85.3173 83.5377 90.0862 87.186 90.0862 87.186L84.4053 97.2449H91.1286" stroke="black" stroke-width="2.50168" stroke-linecap="round"/>
<path d="M98.3218 77.2309C100.302 76.8921 102.283 76.9443 103.664 77.3091" stroke="black" stroke-width="2.50168" stroke-linecap="round"/>
<path d="M77.1621 76.0322C79.1426 75.6934 81.1231 75.7455 82.5042 76.1104" stroke="black" stroke-width="2.50168" stroke-linecap="round"/>
<path d="M95.2437 103.369C97.0157 102.431 98.5792 101.18 99.4131 100.033" stroke="black" stroke-width="2.50168" stroke-linecap="round"/>
<path d="M125.762 94.5348L132.902 88.7236" stroke="black" stroke-width="2.50168" stroke-linecap="round"/>
<path d="M130.998 90.834L134.803 94.5344" stroke="black" stroke-width="2.50168" stroke-linecap="round"/>
<path d="M101.267 86.4307C101.929 86.4307 102.465 85.894 102.465 85.2319C102.465 84.5699 101.929 84.0332 101.267 84.0332C100.605 84.0332 100.068 84.5699 100.068 85.2319C100.068 85.894 100.605 86.4307 101.267 86.4307Z" fill="black"/>
<path d="M80.1328 85.2314C80.7948 85.2314 81.3315 84.6947 81.3315 84.0327C81.3315 83.3707 80.7948 82.834 80.1328 82.834C79.4708 82.834 78.9341 83.3707 78.9341 84.0327C78.9341 84.6947 79.4708 85.2314 80.1328 85.2314Z" fill="black"/>
<path d="M102.464 40.6963C90.5805 40.6963 78.1503 48.6183 73.2251 59.8758L134.907 72.5406C132.822 54.5858 119.089 40.6963 102.464 40.6963Z" fill="#FECB4B"/>
<path d="M134.047 72.3329L52.4561 55.6289" stroke="black" stroke-width="1.66779" stroke-linecap="round"/>
</g>
<defs>
<clipPath id="clip0_3_15883">
<rect width="198.663" height="198.663" fill="white" transform="translate(0.868164 0.187988)"/>
</clipPath>
</defs>
</svg>
