<svg width="200" height="200" viewBox="0 0 200 200" fill="none" xmlns="http://www.w3.org/2000/svg">
<g clip-path="url(#clip0_3_16107)">
<rect width="198.663" height="198.663" transform="translate(0.579102 0.583984)" fill="#FFB800"/>
<path d="M100.016 46.8618C79.8446 46.8618 63.4843 66.1977 63.4843 90.0584C63.4843 99.2639 51.3367 107.812 55.4936 114.822H146.668C150.825 107.812 136.537 99.275 136.537 90.0584C136.537 66.1977 120.188 46.8618 100.016 46.8618Z" fill="black"/>
<path d="M149.878 120.004L55.9181 121.799C40.3937 121.799 30.709 129.221 9.46731 156.035C9.46731 156.035 -32.6928 212.717 -37.5184 217.943C-55.2161 242.071 -31.6229 263.804 -10.3256 262.132C-0.150504 261.341 53.4998 244.568 53.4998 244.568V257.161C53.4998 257.161 68.6119 244.991 79.3441 246.797C87.1899 248.112 94.5565 255.724 94.5565 255.724C102.447 245.081 127.188 234.393 124.837 255.724C124.837 255.724 131.601 248.569 154.492 248.569C177.395 248.569 179.813 255.724 179.813 255.724L180.014 242.294C180.014 242.294 189.955 247.031 193.187 247.722C219.833 257.161 233.831 229.668 224.492 212.126C221.639 203.366 187.258 142.438 187.525 143.051C178.297 123.593 158.582 119.581 149.878 120.004Z" fill="#FF85D2"/>
<path d="M119.877 171.147C119.676 168.651 119.91 163.769 122.473 164.226C125.672 164.795 129.806 171.147 133.362 168.773C135.134 167.347 133.206 161.373 134.576 159.668" stroke="white" stroke-width="1.06988" stroke-linecap="round"/>
<path d="M54.693 151.365C54.4924 148.868 54.7265 143.987 57.2897 144.444C60.4882 145.012 64.6229 151.365 68.178 148.991C69.95 147.564 68.022 141.591 69.3928 139.886" stroke="white" stroke-width="1.06988" stroke-linecap="round"/>
<path d="M8.11831 203.299C7.9177 200.803 8.15175 195.922 10.715 196.378C13.9135 196.947 18.0482 203.299 21.6033 200.925C23.3753 199.499 21.4473 193.525 22.8181 191.82" stroke="white" stroke-width="1.06988" stroke-linecap="round"/>
<path d="M175.601 182.637C175.4 180.14 175.634 175.259 178.197 175.716C181.396 176.284 185.531 182.637 189.086 180.263C190.858 178.836 188.93 172.863 190.301 171.158" stroke="white" stroke-width="1.06988" stroke-linecap="round"/>
<path d="M148.396 136.81C148.195 134.314 148.429 129.432 150.992 129.889C154.191 130.458 158.326 136.81 161.881 134.436C163.653 133.01 161.725 127.036 163.095 125.331" stroke="white" stroke-width="1.06988" stroke-linecap="round"/>
<path d="M77.8406 83.7172L74.8984 78.5349C78.5204 77.3982 92.897 65.4066 93.4876 59.8677C95.2708 65.6406 111.419 80.2178 117.159 82.2795L118.418 88.0524C123.667 83.7172 130.844 84.4862 132.583 89.6907C134.935 98.9296 127.434 101.649 119.287 101.303V109.751V124.306C119.287 124.306 116.301 128.039 112.935 129.722C101.623 135.997 90.9578 128.363 88.2051 124.306V110.865C84.8617 110.865 77.8517 111.289 74.9095 105.405C71.8782 99.3754 74.9875 88.8437 77.8406 83.7172Z" fill="#6983FF"/>
<path d="M88.1366 116.705L98.5903 109.806C98.5903 109.806 95.3472 110.363 93.2743 110.564C91.2571 110.765 88.1255 110.865 88.1255 110.865V116.705H88.1366Z" fill="black"/>
<path d="M88.7957 78.8359C87.7704 84.1185 91.8158 87.2167 91.8158 87.2167L86.9902 95.7423H92.6851" stroke="black" stroke-width="1.06988" stroke-linecap="round"/>
<path d="M98.8037 78.7687C100.475 78.4789 102.169 78.5123 103.34 78.8467" stroke="black" stroke-width="1.06988" stroke-linecap="round"/>
<path d="M80.8491 77.7657C82.5208 77.476 84.2148 77.5094 85.385 77.8438" stroke="black" stroke-width="1.06988" stroke-linecap="round"/>
<path d="M96.1938 100.958C97.6984 100.166 99.0134 99.0965 99.7378 98.127" stroke="black" stroke-width="1.06988" stroke-linecap="round"/>
<path d="M122.095 93.4688L128.158 88.5317" stroke="black" stroke-width="1.06988" stroke-linecap="round"/>
<path d="M126.531 90.3149L129.752 93.4689" stroke="black" stroke-width="1.06988" stroke-linecap="round"/>
<path d="M101.311 86.5703C101.871 86.5703 102.325 86.1163 102.325 85.5562C102.325 84.9961 101.871 84.542 101.311 84.542C100.75 84.542 100.296 84.9961 100.296 85.5562C100.296 86.1163 100.75 86.5703 101.311 86.5703Z" fill="black"/>
<path d="M83.356 85.5674C83.9161 85.5674 84.3701 85.1133 84.3701 84.5532C84.3701 83.9931 83.9161 83.5391 83.356 83.5391C82.7958 83.5391 82.3418 83.9931 82.3418 84.5532C82.3418 85.1133 82.7958 85.5674 83.356 85.5674Z" fill="black"/>
<path d="M136.977 54.5498C141.851 48.4148 141.418 39.9591 136.011 35.6637C130.604 31.3682 122.269 32.8595 117.396 38.9945C112.522 45.1296 112.955 53.5852 118.362 57.8807C123.769 62.1762 132.104 60.6849 136.977 54.5498Z" fill="black"/>
<path d="M78.0514 93.847C83.4309 93.847 87.7918 89.4861 87.7918 84.1066C87.7918 78.7271 83.4309 74.3662 78.0514 74.3662C72.672 74.3662 68.311 78.7271 68.311 84.1066C68.311 89.4861 72.672 93.847 78.0514 93.847Z" stroke="black" stroke-width="1.06988"/>
<path d="M102.747 93.847C108.127 93.847 112.488 89.4861 112.488 84.1066C112.488 78.7271 108.127 74.3662 102.747 74.3662C97.3678 74.3662 93.0068 78.7271 93.0068 84.1066C93.0068 89.4861 97.3678 93.847 102.747 93.847Z" stroke="black" stroke-width="1.06988"/>
<path d="M86.8115 88.832H94.167" stroke="black" stroke-width="1.06988"/>
<path d="M112.555 85.4668H119.197" stroke="black" stroke-width="1.06988"/>
</g>
<defs>
<clipPath id="clip0_3_16107">
<rect width="198.663" height="198.663" fill="white" transform="translate(0.579102 0.583984)"/>
</clipPath>
</defs>
</svg>
