<svg width="200" height="199" viewBox="0 0 200 199" fill="none" xmlns="http://www.w3.org/2000/svg">
<g clip-path="url(#clip0_3_15909)">
<rect width="198.663" height="198.663" transform="translate(0.446289 0.187988)" fill="#63E296"/>
<path d="M58.1248 120.403L142.36 139.408C172.682 146.254 182.782 160.87 184.036 167.318C187.315 187.664 195.528 234.164 202.197 257.354C208.865 280.545 199.885 294.717 191.997 296.309L167.55 297.895L158.15 261.2L142.818 217.844L128.967 295.452L84.6875 258.828L15.6321 247.059L26.8835 193.666C7.4098 203.111 -19.9284 222.587 -31.0603 226.711C-55.8144 235.849 -74.0838 220.059 -77.4267 209.435L-105.356 127.929L-74.7939 114.053L-43.6861 178.383C-27.3926 165.329 -4.37676 147.298 7.53017 138.669C33.7997 114.711 50.6426 118.748 58.1248 120.403Z" fill="#FF85D2"/>
<path d="M48.6383 205.999C49.9529 207.501 51.5061 210.338 47.2047 209.8C41.8416 209.125 45.6414 200.738 49.8796 202.708C54.1177 204.679 57.9653 213.094 46.0595 212.835C34.1538 212.577 40.5421 196.695 48.1254 198.578" stroke="white" stroke-width="1.59353" stroke-linecap="round"/>
<path d="M-4.21523 189.228C-2.90061 190.73 -1.34739 193.566 -5.64885 193.028C-11.0119 192.354 -7.21211 183.966 -2.97394 185.937C1.26423 187.907 5.12048 196.299 -6.79399 196.064C-18.6997 195.806 -12.3114 179.924 -4.7281 181.806" stroke="white" stroke-width="1.59353" stroke-linecap="round"/>
<path d="M122.611 169.781C123.925 171.283 125.479 174.12 121.186 173.558C115.823 172.884 119.623 164.496 123.861 166.467C128.09 168.461 131.946 176.853 120.041 176.594C108.158 176.345 114.523 160.454 122.107 162.337" stroke="white" stroke-width="1.59353" stroke-linecap="round"/>
<path d="M29.6735 135.815C30.9881 137.317 32.5413 140.154 28.2486 139.592C22.8856 138.918 26.6854 130.53 30.9235 132.501C35.153 134.494 39.0092 142.886 27.1035 142.628C15.1977 142.37 21.5861 126.487 29.1694 128.37" stroke="white" stroke-width="1.59353" stroke-linecap="round"/>
<path d="M31.0254 174.83L27.4096 190.836" stroke="white" stroke-width="2.3903" stroke-linecap="round"/>
<path d="M147.223 197.812L143.607 213.818" stroke="white" stroke-width="2.3903" stroke-linecap="round"/>
<path d="M129.649 75.4885C129.962 94.5447 119.135 114.98 103.725 114.826C93.4662 114.71 83.0748 101.805 76.5504 89.6719C72.3586 83.7177 70.0816 78.9374 70.1483 73.7712C70.305 58.1768 82.911 45.6709 98.297 45.8165C113.692 45.9389 129.366 59.0924 129.649 75.4885Z" fill="black"/>
<path d="M75.1817 87.3943L72.1706 81.9629C75.9609 80.8261 84.5066 66.5695 85.1917 60.8136C86.996 66.8485 97.175 79.2569 116.134 86.3475L112.298 92.3161C117.792 87.8491 124.946 90.9257 125.093 96.4399C124.672 105.926 117.018 105.018 113.637 102.68L112.944 131.936L125.443 134.808C124.246 137.986 111.507 150.445 95.0371 147.078C75.6507 142.528 70.4878 127.486 69.2306 121.896L85.7697 125.289L85.7045 115.831C82.2264 115.788 74.9156 116.15 71.9174 109.981C68.8238 103.644 72.1785 92.6975 75.1817 87.3943Z" fill="#6983FF"/>
<path d="M85.7919 122.703L98.5547 114.706C98.5547 114.706 94.5774 115.349 92.0277 115.577C89.5564 115.809 85.7193 115.869 85.7193 115.869L85.7919 122.703Z" fill="black"/>
<path d="M86.2061 80.7114C85.1469 85.9397 89.109 89.0377 89.109 89.0377L84.279 97.4287L89.8812 97.4845" stroke="black" stroke-width="2.3903" stroke-linecap="round"/>
<path d="M95.7547 79.0187C97.8238 78.6813 99.902 78.742 101.345 79.1459" stroke="black" stroke-width="2.3903" stroke-linecap="round"/>
<path d="M77.0164 79.5138C79.0855 79.1764 81.1637 79.2371 82.6068 79.641" stroke="black" stroke-width="2.3903" stroke-linecap="round"/>
<path d="M90.289 105.861C92.1237 104.911 93.7449 103.615 94.6662 102.424" stroke="black" stroke-width="2.3903" stroke-linecap="round"/>
<path d="M112.874 98.167L119.69 92.6555" stroke="black" stroke-width="2.3903" stroke-linecap="round"/>
<path d="M117.723 94.3291L121.108 97.5383" stroke="black" stroke-width="2.3903" stroke-linecap="round"/>
<path d="M98.8252 88.621C99.5026 88.6316 100.06 88.0912 100.071 87.414C100.081 86.7368 99.5405 86.1792 98.8631 86.1686C98.1858 86.158 97.6282 86.6984 97.6178 87.3756C97.6073 88.0528 98.1479 88.6104 98.8252 88.621Z" fill="black"/>
<path d="M80.0967 89.0873C80.7741 89.0979 81.3316 88.5575 81.3421 87.8803C81.3526 87.2031 80.812 86.6455 80.1346 86.6349C79.4573 86.6243 78.8997 87.1647 78.8893 87.8419C78.8788 88.5191 79.4194 89.0767 80.0967 89.0873Z" fill="black"/>
<path d="M139.582 60.885C147.72 55.2397 150.465 45.07 145.713 38.1704C140.96 31.2708 130.51 30.254 122.372 35.8993C114.234 41.5446 111.489 51.7143 116.242 58.6139C120.994 65.5135 131.444 66.5303 139.582 60.885Z" fill="black"/>
<path d="M101.993 219.61L131.89 283.34L121.457 342.513C120.49 347.687 117.866 357.828 114.249 360.409C106.602 366.74 100.711 365.729 99.5063 365.273L94.9314 417.385L34.2504 410.585L37.8185 349.052L25.4056 334.782L18.7341 407.097L-44.5337 401.968C-42.8716 354.083 -36.0965 240.769 -29.053 217.826C-13.0884 180.312 12.5496 189.249 23.3661 198.407L49.5681 232.08C67.7403 192.778 93.324 204.743 101.993 219.61Z" fill="black" stroke="black" stroke-width="1.59353"/>
</g>
<defs>
<clipPath id="clip0_3_15909">
<rect width="198.663" height="198.663" fill="white" transform="translate(0.446289 0.187988)"/>
</clipPath>
</defs>
</svg>
