<svg width="199" height="199" viewBox="0 0 199 199" fill="none" xmlns="http://www.w3.org/2000/svg">
<g clip-path="url(#clip0_3_15991)">
<rect width="198.663" height="198.663" transform="translate(0.157227 0.187988)" fill="#C870FF"/>
<path d="M95.9079 36.6094C75.5049 36.6094 58.957 56.1669 58.957 80.3011C58.957 89.6121 61.4257 98.258 65.6303 105.348H126.185C130.39 98.258 132.859 89.6233 132.859 80.3011C132.847 56.1669 116.311 36.6094 95.9079 36.6094Z" fill="black"/>
<path d="M168.762 132.504C159.135 112.18 138.541 107.986 129.444 108.437C129.444 108.437 113.877 108.719 109.458 116.441C106.899 120.916 106.651 122.054 106.651 122.054L36.7852 123.385C16.4723 126.372 6.18067 144.486 -0.616566 159.062L-29.4175 223.122C-41.6142 265.957 9.35948 264.943 9.35948 264.943H77.5799H105.107H151.808H165.031C216.636 264.943 214.979 238.092 205.262 205.864C205.273 203.903 175.345 146.391 168.762 132.504Z" fill="#6983FF" stroke="black" stroke-width="1.08215"/>
<path d="M185.997 209.967L139.859 129.415L107.485 136.302L138.078 236.739C140.028 245.407 147.817 263.195 163.317 265.032" stroke="white" stroke-width="1.08215" stroke-linecap="round"/>
<path d="M45.2632 173.039L16.2368 224.091H77.4345V263.961" stroke="white" stroke-width="1.08215" stroke-linecap="round"/>
<path d="M130.211 112.563L136.253 129.967L113.066 134.893L108.072 114.096C113.212 102.418 121.813 83.2207 122.332 81.6426C122.862 80.0532 125.206 79.3994 126.255 80.4139C126.773 78.554 130.73 79.1852 130.73 81.6426C133.976 80.4139 134.653 83.1869 134.585 84.224C137.268 82.9502 138.959 85.261 138.35 87.0421C138.034 87.9664 136.772 101.753 136.772 101.753C134.878 107.671 130.211 112.563 130.211 112.563Z" fill="#FF85D2"/>
<path d="M133.67 85.9824L132.036 98.9795" stroke="#FF01A1" stroke-width="1.08215" stroke-linecap="round"/>
<path d="M132.025 98.9795C129.275 99.1486 123.154 101.369 120.618 108.888" stroke="#FF01A1" stroke-width="1.08215" stroke-linecap="round"/>
<path d="M129.669 83.4121L128.034 96.4092" stroke="#FF01A1" stroke-width="1.08215" stroke-linecap="round"/>
<path d="M126.322 81.8906L124.687 94.8877" stroke="#FF01A1" stroke-width="1.08215" stroke-linecap="round"/>
<path d="M118.149 76.4795L119.953 63.6628C119.761 62.344 107.88 51.1054 78.0986 61.3182C81.0407 70.8321 76.6783 81.5183 76.6783 81.5183C70.5799 76.4795 62.5765 79.8049 62.3511 85.9821C62.7231 96.5669 71.2562 95.6313 75.0776 93.0725V123.666C75.0776 123.666 77.1291 129.257 81.0407 131.207C94.1842 138.5 102.92 128.378 106.122 123.666V108.042C110.011 108.042 118.161 108.527 121.576 101.696C125.071 94.6844 121.452 82.4426 118.149 76.4795Z" fill="#FF85D2"/>
<path d="M121.609 84.9224C123.367 91.7872 128.924 107.185 112.343 108.065" stroke="#FF01A1" stroke-width="1.08215" stroke-linecap="round"/>
<path d="M106.132 115.945L91.8271 106.51C91.8271 106.51 96.2572 107.265 99.0978 107.547C101.848 107.829 106.132 107.964 106.132 107.964V115.945Z" fill="black"/>
<path d="M105.647 68.8818C106.774 74.6984 102.322 78.1139 102.322 78.1139L107.642 87.5038H101.375" stroke="black" stroke-width="1.08215" stroke-linecap="round"/>
<path d="M94.9278 67.0333C92.6395 66.6388 90.3287 66.6839 88.728 67.1348" stroke="black" stroke-width="1.08215" stroke-linecap="round"/>
<path d="M115.747 67.5519C113.459 67.1574 111.148 67.2024 109.536 67.6533" stroke="black" stroke-width="1.08215" stroke-linecap="round"/>
<path d="M101.004 96.8259C98.9528 95.7438 97.1492 94.2897 96.1572 92.9482" stroke="black" stroke-width="1.08215" stroke-linecap="round"/>
<path d="M75.9359 88.3156L68.3496 82.1045" stroke="black" stroke-width="1.08215" stroke-linecap="round"/>
<path d="M70.5453 83.998L66.769 87.5714" stroke="black" stroke-width="1.08215" stroke-linecap="round"/>
<path d="M91.5013 77.7085C92.267 77.7085 92.8877 77.0878 92.8877 76.322C92.8877 75.5563 92.267 74.9355 91.5013 74.9355C90.7355 74.9355 90.1147 75.5563 90.1147 76.322C90.1147 77.0878 90.7355 77.7085 91.5013 77.7085Z" fill="black"/>
<path d="M112.312 78.2271C113.078 78.2271 113.698 77.6063 113.698 76.8406C113.698 76.0749 113.078 75.4541 112.312 75.4541C111.546 75.4541 110.925 76.0749 110.925 76.8406C110.925 77.6063 111.546 78.2271 112.312 78.2271Z" fill="black"/>
</g>
<defs>
<clipPath id="clip0_3_15991">
<rect width="198.663" height="198.663" fill="white" transform="translate(0.157227 0.187988)"/>
</clipPath>
</defs>
</svg>
