<svg width="200" height="200" viewBox="0 0 200 200" fill="none" xmlns="http://www.w3.org/2000/svg">
<g clip-path="url(#clip0_3_16581)">
<rect width="198.663" height="198.663" transform="translate(0.446289 0.583984)" fill="#ACCDFF"/>
<path d="M158.637 277.932C157.533 278.761 156.428 279.589 155.324 280.325C153.207 281.798 151.182 283.363 149.065 284.835C146.488 294.407 143.819 303.979 141.242 313.552C139.401 320.27 137.56 326.897 135.719 333.616H70.555L65.4928 320.547L20.2092 319.81C20.4853 319.074 20.6694 318.246 20.9455 317.509C23.9828 307.201 27.2962 294.131 30.4256 281.062C30.6097 280.141 30.8858 279.221 31.0699 278.3C32.9107 270.477 34.6595 262.654 36.3162 255.382C39.1694 242.589 41.5625 231.636 42.9431 225.654C46.9928 208.442 39.1694 228.047 21.1296 248.295C15.055 255.106 2.81367 268.636 -6.94256 266.979C-7.40276 266.887 -7.95503 266.795 -8.41523 266.611C-9.33563 266.243 -10.256 265.783 -10.9923 265.231C-12.6491 264.034 -13.8456 262.47 -14.6739 260.997C-15.4102 259.708 -15.9625 258.604 -16.2386 257.867C-16.2386 257.867 -16.6067 256.947 -16.8829 255.935C-21.5769 240.196 -7.49483 215.161 -7.49483 215.161C-5.93015 212.308 -4.45749 209.731 -2.98486 207.246C7.41565 188.838 13.7664 178.345 23.8908 166.472C37.5127 150.549 52.5152 132.969 72.1196 124.134C75.6172 122.569 79.2988 121.28 83.0724 120.268C83.9008 120.084 84.8212 119.808 85.6495 119.624C95.3137 117.599 104.334 117.783 109.396 118.059C111.973 118.243 113.538 118.427 113.538 118.427C115.194 118.703 116.667 118.979 118.048 119.256C123.662 120.452 127.804 122.017 129.921 122.845C131.762 123.581 133.602 124.318 135.351 125.146C137.192 126.066 139.033 126.987 140.781 127.999C155.6 136.375 165.908 147.88 170.97 155.059C176.769 163.251 180.819 172.731 183.028 183.039C189.194 212.216 181.187 247.559 158.637 277.932Z" fill="#336859"/>
<path opacity="0.17" d="M114.181 272.685C145.934 239.551 155.599 205.404 143.818 190.862C136.362 181.658 118.783 178.252 106.357 183.867C93.6558 189.665 89.7901 203.379 84.5439 215.252C80.0339 225.469 73.223 237.434 62.1782 250.044C62.1782 249.675 59.2329 192.611 49.7528 191.69C41.1011 190.862 -5.74725 249.399 -14.8592 260.996C-15.8716 262.285 -16.4238 262.929 -16.4238 262.929L-11.1776 265.23L-7.12782 266.979C2.6284 268.636 14.8697 255.198 20.9443 248.295C38.8921 228.046 46.8075 208.442 42.7578 225.653C40.5488 234.949 36.0389 256.486 30.9767 278.208C27.6633 292.29 24.1657 306.464 20.8523 317.509C18.8274 324.32 16.8025 330.026 15.0538 333.616H135.718C140.136 317.325 144.646 301.126 149.064 284.835C153.298 283.178 155.415 281.705 155.323 280.325C155.046 276.919 141.332 274.434 114.181 272.685Z" fill="url(#paint0_linear_3_16581)"/>
<path opacity="0.05" d="M182.934 183.131C179.436 182.027 175.479 180.37 170.969 177.977C151.64 167.669 143.817 143.738 140.688 128C155.506 136.375 165.814 147.88 170.877 155.059C176.675 163.343 180.725 172.823 182.934 183.131Z" fill="url(#paint1_linear_3_16581)"/>
<path opacity="0.05" d="M71.8418 124.133C61.4413 142.357 27.9388 199.514 14.0408 208.258C6.49352 213.044 0.787058 210.927 -3.2627 207.245C7.13781 188.837 13.4886 178.345 23.613 166.472C37.2348 150.549 52.2373 132.969 71.8418 124.133Z" fill="url(#paint2_linear_3_16581)"/>
<path opacity="0.36" d="M135.166 125.238C128.631 140.425 115.654 149.537 103.688 148.156C101.479 147.88 91.6312 146.407 86.661 137.479C82.151 129.38 84.9122 121.096 85.3724 119.624C95.0366 117.599 104.056 117.783 109.119 118.059L117.862 119.256C123.477 120.452 127.619 122.017 129.736 122.845C131.576 123.673 133.417 124.41 135.166 125.238Z" fill="#0D2A28"/>
<path d="M125.503 121.189C125.134 131.405 117.035 139.229 108.107 139.505C98.0748 139.781 88.8708 130.393 89.7912 118.796C89.7912 118.704 89.7912 118.612 89.7912 118.52C89.9753 117.323 90.2514 115.483 90.6196 113.274C91.9081 105.358 92.6444 101.4 93.1967 100.204C93.6569 99.2835 94.2091 98.5472 94.8534 97.8109C97.0623 95.5099 100.56 93.9452 106.266 91.4601C108.567 90.4477 111.605 89.3432 115.194 88.2387C117.771 87.5024 120.625 86.7661 123.754 86.2139C123.754 88.2387 123.846 90.2636 123.938 92.2885C124.03 94.5895 124.122 96.8905 124.214 99.1915C124.214 99.2835 124.214 99.3756 124.214 99.4676C124.306 102.321 124.49 105.174 124.674 108.027C124.95 112.537 125.227 116.863 125.503 121.189Z" fill="#DF7D56"/>
<path opacity="0.13" d="M123.939 92.3808C123.847 92.3808 123.847 92.3808 123.755 92.3808C123.663 93.3012 120.809 111.617 105.439 117.6C98.996 120.085 92.9213 119.348 89.792 118.704C89.792 118.612 89.792 118.52 89.792 118.428C89.9761 117.232 90.2522 115.391 90.6204 113.182C91.9089 105.266 92.6452 101.309 93.1975 100.112C93.6577 99.1917 94.2099 98.4554 94.8542 97.7191L115.195 88.147C117.772 87.4106 120.625 86.6743 123.755 86.1221C123.847 88.331 123.939 90.3559 123.939 92.3808Z" fill="#002544"/>
<path d="M129.368 67.6215C129.276 68.634 129.184 69.6464 129.092 70.6589C128.631 73.6962 127.803 75.8131 127.159 78.3902C126.33 78.9424 125.226 79.5867 123.293 81.2435C120.716 83.5444 118.967 85.8454 117.771 88.0544C114.181 94.3131 114.181 100.02 109.119 105.266C102.768 111.801 89.0543 115.022 80.6786 109.684C73.8677 105.45 73.4995 93.7609 72.6712 70.5668C72.6712 70.5668 72.1189 54.0917 78.8378 41.9424C79.3901 40.93 80.1264 40.1016 80.4025 39.7335L80.4945 39.6414L80.5866 39.5494C80.7706 39.3653 80.9547 39.1812 81.0468 38.9971C81.3229 38.721 81.599 38.4449 81.8751 38.1688C82.0592 37.9847 82.2433 37.8006 82.4274 37.6165C82.6114 37.4325 82.8876 37.2484 83.0717 37.0643C83.1637 36.9723 83.3478 36.8802 83.4398 36.7882C83.6239 36.6041 83.8079 36.5121 84.0841 36.328C91.4473 31.4499 101.94 31.1738 109.671 33.9349C110.131 34.119 110.5 34.2111 110.96 34.3951C111.42 34.5792 111.788 34.7633 112.156 34.9474C112.524 35.1315 112.985 35.3156 113.353 35.5917C113.721 35.7758 113.997 35.9598 114.365 36.1439C114.365 36.1439 114.365 36.1439 114.457 36.1439C114.549 36.236 114.825 36.328 115.102 36.5121C115.378 36.6962 115.654 36.8802 115.93 37.0643C116.206 37.2484 116.39 37.4325 116.666 37.6165C118.231 38.8131 119.703 40.1937 120.9 41.7583C121.084 41.9424 121.268 42.2185 121.452 42.4026C126.883 49.7658 129 59.43 129.368 67.6215Z" fill="#DF7D56"/>
<path d="M129.37 67.6218C129.278 68.6342 129.186 69.6467 129.094 70.6591C128.633 73.6964 127.805 75.8133 127.161 78.3904C126.701 80.3233 126.332 82.4402 126.332 85.4775C126.332 89.5272 126.885 92.8407 127.345 94.9576C125.688 95.3258 122.927 95.6019 121.27 94.1293C120.81 93.6691 120.442 92.9327 119.521 91.5521C119.521 91.5521 118.509 89.8034 117.773 88.1467C115.748 83.3606 115.564 72.4078 114.459 72.2238C114.091 72.2238 113.631 73.0521 112.711 76.8257C111.882 76.8257 110.962 76.9178 110.041 76.8257C108.016 76.7337 106.176 76.3655 104.703 75.9053C104.795 71.6715 104.795 67.2536 104.703 62.5596C104.519 57.4053 104.243 52.5272 103.783 47.8332C95.499 45.8083 87.1234 43.8755 78.8398 41.8506C79.3 41.0222 79.8522 40.2859 80.4045 39.6417L80.4966 39.5496L80.5886 39.4576C80.7726 39.2735 80.9567 39.0894 81.0488 38.9054C81.3249 38.6292 81.601 38.3531 81.8771 38.077C82.0612 37.8929 82.2453 37.7088 82.4294 37.5248C82.6134 37.3407 82.8896 37.1566 83.0737 36.9725C83.1657 36.8805 83.3498 36.7884 83.4418 36.6964C83.6259 36.5123 83.81 36.4203 84.0861 36.2362C91.4493 31.3581 101.942 31.082 109.673 33.8432C110.133 34.0272 110.502 34.1193 110.962 34.3034C111.422 34.4874 111.79 34.6715 112.158 34.8556C112.526 35.0397 112.987 35.2237 113.355 35.4999C113.723 35.6839 113.999 35.868 114.367 36.0521C114.367 36.0521 114.367 36.0521 114.459 36.0521C114.551 36.1441 114.827 36.2362 115.104 36.4203C115.38 36.6043 115.656 36.7884 115.932 36.9725C116.208 37.1566 116.392 37.3407 116.668 37.5248C118.233 38.7213 119.613 40.1019 120.902 41.6665C121.086 41.8506 121.27 42.1267 121.454 42.3108C126.701 49.3058 129.83 58.7859 129.37 67.6218Z" fill="#302C34"/>
<path d="M83.1372 72.4576C83.5949 71.4932 83.2214 70.358 82.303 69.9221C81.3846 69.4861 80.2689 69.9145 79.8112 70.8789C79.3535 71.8433 79.727 72.9784 80.6454 73.4143C81.5638 73.8503 82.6794 73.4219 83.1372 72.4576Z" fill="#302C34"/>
<path d="M125.042 76.1813C125.042 80.9674 121.82 84.833 117.955 84.833C114.733 84.833 112.064 82.348 111.144 78.8505C110.959 78.0221 110.775 77.1937 110.775 76.2733C110.775 71.4873 113.997 67.6216 117.862 67.6216C119.611 67.6216 121.176 68.3579 122.464 69.6465C124.029 71.1191 125.042 73.5121 125.042 76.1813Z" fill="#DF7D56"/>
<path opacity="0.25" d="M122.465 69.5547C118.324 73.0522 113.354 77.1019 111.145 78.7587C110.96 77.9303 110.776 77.102 110.776 76.1816C110.776 71.3955 113.998 67.5298 117.863 67.5298C119.612 67.5298 121.269 68.3582 122.465 69.5547Z" fill="url(#paint3_linear_3_16581)"/>
<path d="M89.0983 63.5703L80.7129 56.9614L79.0607 59.0578L87.4461 65.6666L89.0983 63.5703Z" fill="#302C34"/>
<path d="M80.1269 97.4429C79.8508 97.4429 79.6668 97.2588 79.5747 96.9827C79.4827 96.7066 79.6667 96.4305 79.9429 96.3384C82.52 95.6942 84.821 94.4976 86.8458 92.8409C87.7662 92.1046 88.6867 91.1842 89.423 90.2638C89.6071 89.9877 89.9752 89.9877 90.1593 90.1717C90.4354 90.3558 90.4354 90.724 90.2513 90.9081C89.423 91.9205 88.5026 92.8409 87.4901 93.6693C85.3732 95.418 82.8881 96.6146 80.1269 97.3509C80.219 97.4429 80.1269 97.4429 80.1269 97.4429Z" fill="black"/>
<path d="M79.7587 67.1616C79.7587 67.1616 64.2959 80.8756 67.2412 83.0845C70.1865 85.2935 73.0397 85.5696 73.0397 85.5696L79.7587 67.1616Z" fill="#DF7D56"/>
</g>
<defs>
<linearGradient id="paint0_linear_3_16581" x1="-16.4011" y1="257.402" x2="155.285" y2="257.402" gradientUnits="userSpaceOnUse">
<stop offset="0.00238381" stop-color="#FF931E"/>
<stop offset="0.6622" stop-color="#0D2A28"/>
</linearGradient>
<linearGradient id="paint1_linear_3_16581" x1="140.625" y1="155.631" x2="182.913" y2="155.631" gradientUnits="userSpaceOnUse">
<stop offset="0.00238381" stop-color="#FF931E"/>
<stop offset="1" stop-color="white"/>
</linearGradient>
<linearGradient id="paint2_linear_3_16581" x1="-3.20858" y1="167.591" x2="71.8738" y2="167.591" gradientUnits="userSpaceOnUse">
<stop offset="0.00238381" stop-color="#FF931E"/>
<stop offset="1" stop-color="white"/>
</linearGradient>
<linearGradient id="paint3_linear_3_16581" x1="110.803" y1="73.1701" x2="122.485" y2="73.1701" gradientUnits="userSpaceOnUse">
<stop offset="0.1269" stop-color="#CD907F"/>
<stop offset="0.8455" stop-color="#691B26"/>
</linearGradient>
<clipPath id="clip0_3_16581">
<rect width="198.663" height="198.663" fill="white" transform="translate(0.446289 0.583984)"/>
</clipPath>
</defs>
</svg>
