<svg width="199" height="200" viewBox="0 0 199 200" fill="none" xmlns="http://www.w3.org/2000/svg">
<g clip-path="url(#clip0_3_16232)">
<rect width="198.663" height="198.663" transform="translate(0.290039 0.980469)" fill="#7F87CD"/>
<path d="M117.059 201.037C109.971 211.875 100.162 219.878 86.3977 219.793C45.7252 219.476 75.3046 141.839 76.597 138.5C77.0737 138.473 77.5999 138.525 77.8702 138.518L78.0621 138.562L128.579 145.004L131.515 145.399C132.425 145.538 133.285 145.598 134.195 145.736C134.21 145.672 131.436 179.07 117.059 201.037Z" fill="#CD907F"/>
<path opacity="0.08" d="M117.056 201.035L80.9149 217.276C76.2663 204.525 71.6177 191.773 66.969 179.021C70.5737 179.432 76.1634 179.687 82.7273 178.01C91.2845 175.843 96.8193 171.579 99.9292 169.122C102.055 167.45 109.317 161.493 115.488 150.246C116.849 147.796 118.153 144.997 119.373 141.978C125.18 127.286 125.071 114.081 125.138 109.321C125.157 108.048 125.237 107.394 125.38 107.359C125.522 107.324 125.726 107.908 125.934 109.367C126.213 111.111 126.536 114.143 126.888 119.132C126.96 120.896 127.046 122.597 127.182 124.376C127.563 131.321 128.036 138.153 128.524 144.921L128.509 144.985C128.515 145.255 128.536 145.462 128.542 145.732C128.561 146.543 128.643 147.369 128.647 148.244C128.862 147.889 130.399 145.547 132.846 145.427C133.181 145.436 133.643 145.473 134.155 145.588C134.204 145.667 131.431 179.067 117.056 201.035Z" fill="url(#paint0_linear_3_16232)"/>
<path d="M232.273 286.104C227.955 287.952 223.637 289.801 219.29 291.777C216.597 292.983 213.903 294.19 211.288 295.347C205.131 298.191 199.052 300.986 193.087 303.874C186.384 294.56 179.323 283.552 172.653 270.817C167.863 261.666 163.925 252.91 160.668 244.711C154.834 272.303 149.015 299.832 143.181 327.424C143.152 327.552 143.123 327.68 143.109 327.744L42.471 299.96C38.018 295.861 33.4866 291.812 29.0336 287.713L32.5662 258.996L35.9376 231.586C32.3678 239.05 28.7195 246.562 24.9784 254.188C23.4877 257.213 21.9971 260.238 20.5064 263.263C20.2917 263.618 20.1265 264.051 19.9118 264.406C15.2995 272.911 10.7018 281.352 6.02554 289.842C5.70348 290.375 5.44536 290.921 5.1233 291.454C2.70884 290.236 0.116921 288.91 -2.46055 287.521C-4.91007 286.161 -7.47308 284.708 -10.0711 283.112C-12.1368 281.839 -14.252 280.487 -16.3527 279.071C-21.491 275.624 -26.1526 272.15 -30.3023 268.792C-28.4129 263.705 -25.1648 254.691 -21.2392 243.274L-21.2248 243.21C-20.6486 241.256 -19.8555 238.342 -18.6908 234.975C-16.1302 227.216 -12.4259 217.969 -5.17714 204.344C5.06525 185.211 13.115 170.424 28.037 157.66C29.1929 156.711 30.5346 155.535 32.4749 154.09C44.3085 145.469 56.8513 141.446 67.4227 139.599C69.8787 139.145 73.8496 138.832 75.4017 138.511C75.4657 138.525 76.0848 138.463 76.7535 138.48C77.2303 138.453 77.7565 138.505 78.0269 138.499L78.2188 138.542C78.551 139.155 78.8831 139.768 79.1658 140.303C82.6771 147.08 87.7354 158.913 88.8675 174.431C89.8226 187.757 87.6349 198.625 85.5966 205.56C89.7059 204.338 112.725 197.101 123.53 173.994C128.871 162.561 129.137 151.863 128.711 145.716C128.705 145.446 128.685 145.24 128.678 144.969C129.731 145.073 130.72 145.161 131.694 145.314C132.604 145.453 133.464 145.513 134.375 145.651C141.542 146.666 147.847 148.225 153.283 150.058C156.025 151.014 158.626 152.005 160.941 153.066C168.946 156.623 174.672 160.741 178.744 164.149C184.34 168.842 196.378 180.437 221.704 253.73C226.209 267.119 229.853 278.364 232.273 286.104Z" fill="#BDD3DE"/>
<path opacity="0.5" d="M13.4538 173.277L13.1732 174.222L4.9567 201.687L4.60384 202.953L-2.93583 228.015L-3.28866 229.28L-10.785 254.151L-11.1378 255.416L-17.9368 278.09C-18.3556 277.861 -18.696 277.583 -19.0365 277.304L-12.3242 255.014L-11.9714 253.748L-4.47507 228.878L-4.12221 227.613L3.41746 202.55L3.77028 201.285L11.1738 176.528C11.7598 175.719 12.2818 174.895 12.8534 174.15C13.0679 173.795 13.2681 173.504 13.4538 173.277Z" fill="white"/>
<path opacity="0.5" d="M48.8317 144.949L46.9973 150.99L46.6445 152.255L38.1908 180.474L37.838 181.739L29.6071 209.268L29.2542 210.533L21.7146 235.596L21.3618 236.861L13.9583 261.618L13.6054 262.883L5.54788 289.645L5.19505 290.91L4.98667 291.535C4.61733 291.385 4.19848 291.156 3.77963 290.926L3.8663 290.542L4.21912 289.277L12.2767 262.516L12.6295 261.251L20.033 236.494L20.3858 235.228L27.9254 210.166L28.2783 208.901L36.5091 181.372L36.862 180.106L45.3157 151.888L45.6685 150.623L47.1294 145.64C47.7918 145.386 48.3117 145.167 48.8317 144.949Z" fill="white"/>
<path opacity="0.5" d="M81.0913 144.428L76.4508 159.923L76.0979 161.189L67.6442 189.407L67.2914 190.672L59.0461 218.265L58.6932 219.531L51.1536 244.593L50.8008 245.858L43.4407 270.423L43.0879 271.689L36.3034 294.299C35.9774 293.956 35.573 293.663 35.247 293.321L41.823 271.336L42.1759 270.071L49.536 245.506L49.8888 244.24L57.4284 219.178L57.7813 217.913L66.0266 190.319L66.3794 189.054L74.8331 160.836L75.186 159.57L80.2722 142.696C80.5549 143.231 80.8231 143.83 81.0913 144.428Z" fill="white"/>
<path opacity="0.5" d="M96.1521 201.356L88.3607 227.236L88.0078 228.501L80.4682 253.564L80.1153 254.829L72.7985 279.202L72.4457 280.467L64.3303 307.484L63.9775 308.75L61.4663 317.194C61.1403 316.851 60.7359 316.558 60.4099 316.215L62.7911 308.347L63.1439 307.082L71.2592 280.065L71.6121 278.799L78.9289 254.426L79.2818 253.161L86.8214 228.099L87.1743 226.833L94.5777 202.077C95.0832 201.922 95.6177 201.639 96.1521 201.356Z" fill="white"/>
<path opacity="0.5" d="M144.34 147.542L135.154 177.814L134.801 179.079L126.234 207.205L125.817 208.455L117.4 236.212L116.983 237.462L109.38 262.51L109.027 263.776L101.704 287.878L101.351 289.144L93.079 316.26L92.6622 317.511L86.9796 336.133C86.5318 336.032 86.1625 335.881 85.7147 335.78L91.3974 317.158L91.7502 315.892L100.022 288.776L100.375 287.511L107.713 263.344L108.065 262.079L115.669 237.031L116.086 235.78L124.503 208.024L124.855 206.759L133.423 178.633L133.775 177.368L142.947 147.16C143.508 147.354 143.956 147.455 144.34 147.542Z" fill="white"/>
<path opacity="0.5" d="M87.2039 163.224C87.2947 163.715 87.3855 164.207 87.4763 164.698L76.0185 161.237L74.7533 160.884L46.5639 152.302L45.2986 151.95L38.8236 149.95C39.3582 149.667 39.8288 149.37 40.3779 149.024L45.6661 150.621L46.9314 150.974L75.1207 159.556L76.386 159.908L87.2039 163.224Z" fill="white"/>
<path opacity="0.5" d="M200.558 199.096L190.045 195.917L188.794 195.5L163.377 187.746L162.112 187.393L134.74 179.063L133.474 178.71L122.77 175.487C122.999 175.068 123.15 174.699 123.379 174.28L133.891 177.459L135.157 177.812L162.529 186.142L163.794 186.495L189.211 194.25L190.477 194.602L199.852 197.458C200.071 197.978 200.353 198.513 200.558 199.096Z" fill="white"/>
<path opacity="0.5" d="M87.8518 195.515C87.7506 195.963 87.7134 196.425 87.6267 196.809L67.2417 190.594L65.9764 190.241L37.787 181.659L36.5217 181.306L13.1086 174.206L12.7886 174.134C12.9889 173.843 13.1891 173.552 13.3893 173.261L13.4616 172.941L13.5896 172.97L36.8747 180.041L38.14 180.394L66.3294 188.976L67.5947 189.329L87.8518 195.515Z" fill="white"/>
<path opacity="0.5" d="M215.243 235.631L206.429 232.969L205.164 232.616L180.564 225.114L179.313 224.697L154.457 217.137L153.192 216.784L125.82 208.454L124.554 208.101L98.433 200.188C98.9676 199.905 99.4382 199.608 99.9873 199.262L124.907 206.836L126.172 207.189L153.545 215.519L154.81 215.872L179.666 223.432L180.931 223.785L205.467 231.273L206.732 231.626L214.601 234.007C214.884 234.542 215.038 235.047 215.243 235.631Z" fill="white"/>
<path opacity="0.5" d="M159.793 249.209C159.692 249.657 159.605 250.041 159.504 250.488L145.609 246.209L144.358 245.792L117 237.398L115.749 236.981L88.0224 228.437L86.7571 228.084L58.5821 219.438L57.3312 219.021L29.2202 210.39L27.9694 209.973L4.57071 202.809L3.31986 202.392L-3.09125 200.407C-2.86212 199.988 -2.64742 199.633 -2.4183 199.215L3.7513 201.078L5.00214 201.495L28.4008 208.659L29.6517 209.076L57.7626 217.707L59.0135 218.124L87.1885 226.769L88.4538 227.122L116.245 235.681L117.496 236.098L144.853 244.492L146.104 244.909L159.793 249.209Z" fill="white"/>
<path opacity="0.5" d="M172.11 159.188L163.795 186.496L163.378 187.747L154.81 215.873L154.458 217.138L146.027 244.958L145.674 246.223L138.07 271.271L137.653 272.522L130.374 296.433L130.021 297.698L121.72 324.942L121.367 326.208L115.864 344.333C115.416 344.231 115.047 344.081 114.599 343.98L120.102 325.855L120.455 324.589L128.756 297.345L129.109 296.08L136.403 272.105L136.82 270.854L144.423 245.806L144.84 244.556L153.271 216.736L153.624 215.47L162.191 187.345L162.544 186.079L170.946 158.387C171.351 158.68 171.691 158.959 172.11 159.188Z" fill="white"/>
<path opacity="0.5" d="M193.625 184.824L190.461 194.667L190.045 195.918L180.98 223.864L180.563 225.115L171.541 252.868L171.125 254.119L168.45 262.392C168.182 261.793 167.9 261.259 167.631 260.66L169.874 253.702L170.291 252.451L179.313 224.698L179.729 223.447L188.794 195.501L189.211 194.25L192.777 183.22C193.059 183.754 193.356 184.225 193.625 184.824Z" fill="white"/>
<path opacity="0.17" d="M211.3 295.353C205.143 298.198 199.064 300.992 193.099 303.88C186.395 294.567 179.335 283.559 172.664 270.825C167.873 261.675 163.935 252.919 160.678 244.721C154.844 272.311 149.025 299.838 143.191 327.429C143.163 327.557 143.134 327.685 143.119 327.749L42.4772 299.968C38.024 295.869 33.4924 291.82 29.0392 287.721L32.5717 259.005L35.9429 231.598C32.373 239.061 28.7247 246.573 24.9835 254.198C23.4928 257.223 22.0021 260.248 20.5114 263.273C20.2967 263.627 20.1315 264.061 19.9168 264.416C15.3045 272.92 10.7066 281.361 6.03028 289.851L-2.45615 287.53L-10.4307 285.325C-10.4307 285.325 -10.3212 284.543 -10.0671 283.121C-7.57539 268.826 7.90602 189.631 43.4245 186.899C82.5012 183.896 68.378 239.531 148.54 221.07C196.061 210.159 208.816 256.068 211.3 295.353Z" fill="url(#paint1_linear_3_16232)"/>
<path opacity="0.32" d="M143.784 319.439C124.035 312.823 99.7555 302.157 87.1719 286.737C78.8584 276.519 84.8643 253.801 96.1135 228.705C110.257 229.481 124.401 230.257 138.559 230.97C143.386 203.951 148.276 176.947 153.103 149.928C155.845 150.884 158.444 151.875 160.759 152.936C157.852 178.304 150.368 244.466 146.269 288.798C145.531 298.315 144.648 308.471 143.784 319.439Z" fill="url(#paint2_linear_3_16232)"/>
<path d="M128.596 145.745C125.496 147.262 121.05 149.08 115.477 150.239C112.864 150.79 110.025 151.156 107.037 151.287C96.3729 151.765 87.7058 149.064 82.0326 146.503C80.7568 143.525 79.4581 140.946 78.3139 138.872C78.2644 138.793 78.2293 138.651 78.1159 138.558C78.7985 134.947 79.5451 131.352 80.3062 127.692C81.7125 120.883 83.1538 114.218 84.6941 107.709C84.8533 107.005 84.998 106.366 85.1428 105.726C85.3347 105.769 85.477 105.734 85.6689 105.778C96.4126 106.73 107.206 107.76 117.949 108.712C120.388 108.928 122.763 109.129 125.138 109.33C125.408 109.324 125.728 109.397 125.998 109.391C126.19 109.434 126.333 109.399 126.525 109.442C126.676 112.636 126.813 115.894 126.949 119.152C127.021 120.916 127.107 122.617 127.242 124.395C127.62 131.338 128.092 138.168 128.578 144.934L128.563 144.998C128.569 145.268 128.59 145.474 128.596 145.745Z" fill="#CD907F"/>
<path opacity="0.15" d="M96.0823 138.46C92.7437 139.251 88.7535 139.356 87.466 139.401C83.7461 139.501 80.5896 139.19 78.3223 138.811C78.2729 138.733 78.2378 138.59 78.1244 138.497C78.8069 134.886 79.5534 131.29 80.3144 127.63C81.7205 120.821 83.1616 114.154 84.7017 107.645L85.6764 105.714C89.8332 106.654 95.3704 107.437 101.822 107.149C106.431 106.982 110.473 106.35 113.812 105.559C114.482 107.055 118.379 116.275 113.862 125.54C109.059 135.48 98.2034 137.999 96.0823 138.46Z" fill="#19233D"/>
<path d="M130.117 99.0819C129.572 100.304 128.978 101.447 128.319 102.576C125.764 107.041 122.362 111.383 118.422 115.132C107.137 126.097 91.5556 132.864 80.2361 127.615C62.9659 119.543 65.1366 87.6217 65.8567 77.2944C65.9684 75.9075 66.0162 74.5062 66.1423 73.0553C66.2023 72.1947 66.2768 71.2701 66.4008 70.424C66.742 66.5337 67.2896 62.6229 68.3344 58.8917C69.9782 52.8078 72.8723 47.141 78.3024 42.451C88.9416 33.1554 105.702 30.6902 117.566 36.8014C125.454 40.8707 130.719 48.5161 133.375 57.5892C133.327 61.075 133.126 65.5349 132.685 71.3528C132.151 79.3686 131.328 88.6639 130.117 99.0819Z" fill="#CD907F"/>
<path d="M91.0044 107.061C84.6473 98.2959 78.8352 100.21 76.4181 101.681C73.9664 100.925 67.2673 100.218 63.7628 111.259C60.2294 122.428 72.6401 107.685 76.2775 103.195C80.7988 106.099 98.0341 116.717 91.0044 107.061Z" fill="url(#paint3_linear_3_16232)"/>
<path d="M72.7716 113.362C72.0039 113.189 71.329 112.902 70.7822 112.644C70.6047 112.537 70.5201 112.316 70.5635 112.124C70.6708 111.947 70.8917 111.862 71.0836 111.905C72.1134 112.407 73.8119 112.925 75.8264 112.641C78.7304 112.288 80.5015 110.403 81.1373 109.672C81.3087 109.509 81.5151 109.489 81.6926 109.596C81.8556 109.767 81.8762 109.974 81.7688 110.151C81.0401 110.995 79.112 112.98 75.9232 113.402C74.7839 113.683 73.7313 113.579 72.7716 113.362Z" fill="black"/>
<path d="M85.1819 85.77C86.3121 86.0257 87.4358 85.3165 87.6917 84.186C87.9475 83.0555 87.2387 81.9318 86.1085 81.6762C84.9782 81.4206 83.8546 82.1298 83.5987 83.2603C83.3429 84.3908 84.0517 85.5144 85.1819 85.77Z" fill="url(#paint4_linear_3_16232)"/>
<path d="M68.6605 84.1929C69.7907 84.4485 70.9144 83.7393 71.1702 82.6088C71.4261 81.4784 70.7173 80.3547 69.587 80.0991C68.4568 79.8435 67.3331 80.5527 67.0772 81.6831C66.8214 82.8136 67.5302 83.9373 68.6605 84.1929Z" fill="url(#paint5_linear_3_16232)"/>
<path d="M77.9774 77.4876C76.5203 79.1756 74.4338 81.8646 72.1738 85.3213C68.6836 90.6518 66.9953 93.3635 67.9627 95.3306C69.5943 98.5238 77.2868 97.5056 77.7779 97.4148C77.8017 90.7628 77.8896 84.1252 77.9774 77.4876Z" fill="#A2625E"/>
<path d="M97.7566 72.672L83.4038 69.2295L82.8684 71.596L97.2212 75.0385L97.7566 72.672Z" fill="url(#paint6_linear_3_16232)"/>
<path d="M73.4384 71.9582L66.1143 73.1262C66.1746 72.2658 66.2494 71.3414 66.3736 70.4955L73.0642 69.4532L73.4384 71.9582Z" fill="url(#paint7_linear_3_16232)"/>
<path d="M130.357 97.1171C130.277 97.7713 130.196 98.4255 130.116 99.0796C129.036 108.317 127.956 116.074 127.146 121.741L127.096 121.662C126.423 120.77 125.602 119.644 124.746 118.374C123.578 116.698 122.355 114.674 121.111 112.442C120.496 111.295 119.832 110.069 119.182 108.779C118.582 107.567 117.996 106.292 117.425 104.953C116.6 102.951 115.839 100.963 115.191 99.0685C113.516 93.9832 112.502 89.2489 111.863 84.9356C111.544 82.779 111.259 80.7647 111.039 78.765C109.879 69.022 109.364 61.7783 103.071 57.1957C99.6087 54.6649 92.1757 52.4471 85.0723 53.5312C76.0971 54.8647 73.1098 60.6445 68.698 59.0422C68.5701 59.0133 68.4566 58.9204 68.3287 58.8915C62.6685 56.2674 59.7138 43.1603 64.9217 37.0754C67.9436 33.5223 72.9811 33.2488 77.8968 33.2168C106.623 32.8509 122.928 32.7034 130.578 43.7787C132.538 46.7095 133.481 49.6794 133.374 57.5895C133.326 61.0751 133.125 65.5347 132.684 71.3522C132.67 71.4162 132.67 71.4162 132.67 71.4162L130.357 97.1171Z" fill="url(#paint8_linear_3_16232)"/>
<path d="M123.974 91.7732C122.331 97.2507 116.515 100.372 111.038 98.729C106.825 97.4395 104.022 93.7799 103.676 89.6675C103.552 88.4295 103.714 87.1214 104.082 85.7927C105.725 80.3153 111.541 77.1941 117.018 78.837C118.155 79.1614 119.12 79.6488 120.042 80.3281C123.582 82.8099 125.307 87.3686 123.974 91.7732Z" fill="#CD907F"/>
<path opacity="0.09" d="M120.052 80.2641L103.685 89.6032C103.562 88.3652 103.724 87.0572 104.092 85.7286C105.735 80.2513 111.551 77.1301 117.028 78.773C118.15 79.1614 119.18 79.6632 120.052 80.2641Z" fill="url(#paint9_linear_3_16232)"/>
</g>
<defs>
<linearGradient id="paint0_linear_3_16232" x1="74.5939" y1="153.717" x2="129.901" y2="170.321" gradientUnits="userSpaceOnUse">
<stop offset="0.00194495" stop-color="#19233D" stop-opacity="0.5"/>
<stop offset="0.8362" stop-color="#F07125"/>
</linearGradient>
<linearGradient id="paint1_linear_3_16232" x1="3.76789" y1="229.801" x2="212.2" y2="292.409" gradientUnits="userSpaceOnUse">
<stop offset="0.1948" stop-color="#87AEB4"/>
<stop offset="1" stop-color="#153E5C"/>
</linearGradient>
<linearGradient id="paint2_linear_3_16232" x1="96.9947" y1="219.296" x2="167.511" y2="240.464" gradientUnits="userSpaceOnUse">
<stop stop-color="#5A142A" stop-opacity="0.2"/>
<stop offset="1" stop-color="#FC860A" stop-opacity="0.2"/>
</linearGradient>
<linearGradient id="paint3_linear_3_16232" x1="65.464" y1="105.688" x2="91.7476" y2="113.582" gradientUnits="userSpaceOnUse">
<stop offset="0.000555701"/>
<stop offset="0.8106"/>
</linearGradient>
<linearGradient id="paint4_linear_3_16232" x1="83.6326" y1="83.1444" x2="87.6062" y2="84.3389" gradientUnits="userSpaceOnUse">
<stop offset="0.000555701"/>
<stop offset="0.8106"/>
</linearGradient>
<linearGradient id="paint5_linear_3_16232" x1="67.1198" y1="81.5659" x2="71.0935" y2="82.7605" gradientUnits="userSpaceOnUse">
<stop offset="0.000555701"/>
<stop offset="0.8106"/>
</linearGradient>
<linearGradient id="paint6_linear_3_16232" x1="83.1914" y1="70.0018" x2="97.4355" y2="74.2831" gradientUnits="userSpaceOnUse">
<stop offset="0.000555701"/>
<stop offset="0.8106"/>
</linearGradient>
<linearGradient id="paint7_linear_3_16232" x1="66.4325" y1="70.3315" x2="73.3311" y2="72.4058" gradientUnits="userSpaceOnUse">
<stop offset="0.000555701"/>
<stop offset="0.8106"/>
</linearGradient>
<linearGradient id="paint8_linear_3_16232" x1="57.4339" y1="59.0705" x2="138.633" y2="83.456" gradientUnits="userSpaceOnUse">
<stop stop-color="#002544"/>
<stop offset="0.1924" stop-color="#00172A"/>
<stop offset="0.4174" stop-color="#000A13"/>
<stop offset="0.6287" stop-color="#000305"/>
<stop offset="0.8106"/>
</linearGradient>
<linearGradient id="paint9_linear_3_16232" x1="105.049" y1="82.6286" x2="113.364" y2="85.1284" gradientUnits="userSpaceOnUse">
<stop offset="0.00308041" stop-color="#F07125"/>
<stop offset="0.4448" stop-color="#19233D" stop-opacity="0.5"/>
</linearGradient>
<clipPath id="clip0_3_16232">
<rect width="198.663" height="198.663" fill="white" transform="translate(0.290039 0.980469)"/>
</clipPath>
</defs>
</svg>
