<svg width="199" height="200" viewBox="0 0 199 200" fill="none" xmlns="http://www.w3.org/2000/svg">
<g clip-path="url(#clip0_3_16135)">
<rect width="198.663" height="198.663" transform="translate(0.000976562 0.980469)" fill="#A28676"/>
<path d="M106.435 39.1C105.526 42.3887 98.0385 71.2877 114.272 86.8917C116.232 88.781 118.821 90.6702 122.109 92.2796C120.01 94.5187 117.211 98.1574 115.812 103.265C114.412 108.303 115.532 111.032 115.182 118.729C114.762 129.505 112.593 128.176 113.293 133.914C114.482 144.13 120.36 150.777 124.698 155.535C125.818 156.795 126.658 157.635 126.867 157.845C141.492 172.539 147.859 197.099 161.224 201.928C174.239 206.686 196.911 193.671 201.739 174.778C203.908 166.381 202.998 154.906 196.561 146.789C188.654 136.853 177.738 138.392 175.919 131.045C173.819 122.438 188.024 116.42 185.575 108.024C183.616 101.516 175.009 102.916 165.983 91.5799C162.764 87.5214 159.615 83.6029 159.685 78.285C159.755 72.0573 164.233 69.7482 164.373 62.611C164.513 57.9228 162.624 54.4241 161.224 51.6252C154.437 38.0504 139.113 34.1319 136.944 33.6421C121.34 29.9335 108.814 37.5606 106.435 39.1Z" fill="url(#paint0_linear_3_16135)"/>
<path d="M84.4646 104.315C97.1997 96.3383 75.2981 47.2871 75.2981 47.2871C49.1281 59.6724 43.3203 68.419 43.9501 74.4367C44.5099 80.3144 51.0174 81.6439 52.067 89.271C53.5364 99.9769 41.9209 103.895 41.7809 115.651C41.711 127.336 53.3265 132.584 50.9474 137.832C48.2884 143.71 33.9439 136.993 18.5498 142.171C-0.0630355 148.398 -16.4368 170.58 -14.6874 192.901C-14.5475 194.581 -12.5883 216.272 2.17609 223.69C15.6809 230.477 22.6782 216.622 41.9209 222.71C51.3672 225.649 61.7233 232.786 74.1085 228.728C74.1085 228.728 74.2485 228.658 74.3884 228.588C99.9287 220.121 110.495 189.822 111.194 168.761C112.104 140.211 95.0305 120.199 90.1324 114.881C88.523 111.383 86.5638 107.744 84.4646 104.315Z" fill="url(#paint1_linear_3_16135)"/>
<path d="M159.684 177.647C159.195 180.446 158.565 182.825 158.215 184.434C158.215 184.504 158.145 184.644 158.145 184.714C158.005 185.414 157.795 186.184 157.585 186.953C155.766 194.161 148.699 218.371 119.73 310.036C104.895 309.337 90.131 308.637 75.2967 307.867C68.9291 307.447 62.6315 307.027 56.2639 306.608C56.8937 293.942 54.6546 286.036 52.3455 281.067C52.3455 281.067 48.7068 269.242 44.9983 256.577C44.9983 256.507 44.9983 256.507 44.9983 256.437C41.5696 244.541 38.0009 231.946 37.3712 227.328C37.3012 226.978 37.3012 226.698 37.2313 226.488C37.0913 225.089 37.0913 223.759 37.0913 222.57C37.0913 222.43 37.0913 222.29 37.0913 222.15C37.0913 221.94 37.0913 221.73 37.0913 221.52C37.0913 221.24 37.0913 221.03 37.1613 220.751C37.1613 220.541 37.2313 220.261 37.2313 220.051C37.2313 219.841 37.3012 219.561 37.3012 219.351C37.3012 219.141 37.3712 218.861 37.3712 218.651C37.6511 216.972 38.0709 215.503 38.5607 214.103C38.6307 213.893 38.7007 213.613 38.8406 213.403C39.2605 212.284 39.7503 211.094 40.3101 209.975C40.38 209.835 40.45 209.695 40.45 209.555C40.8699 208.505 41.3597 207.456 41.8495 206.266C41.9195 206.126 41.9894 205.986 41.9894 205.846C42.4093 204.797 42.7591 203.677 43.179 202.488C43.249 202.278 43.3189 202.068 43.3189 201.928C43.4588 201.578 43.5288 201.158 43.5988 200.808C43.6688 200.598 43.6688 200.388 43.7388 200.248C43.7388 200.178 43.8087 200.038 43.8087 199.969C43.8787 199.829 43.8787 199.619 43.9487 199.479C44.4385 197.31 44.9283 194.86 45.2082 191.992C47.0275 178.977 45.2782 173.029 45.698 168.97C45.698 168.83 45.698 168.76 45.698 168.621C45.698 168.411 45.768 168.201 45.768 167.991C45.768 167.851 45.8379 167.711 45.9079 167.501C45.9079 167.431 45.9779 167.291 45.9779 167.221C46.0479 167.081 46.0479 166.941 46.1178 166.801C46.1178 166.731 46.1878 166.591 46.2578 166.521C46.3278 166.311 46.4677 166.101 46.5377 165.962C46.8176 165.472 47.0974 165.052 47.5173 164.562C49.5465 162.323 53.2551 160.644 60.3224 157.845C61.2321 157.495 62.1417 157.075 63.1913 156.725C63.1913 156.725 63.961 156.445 66.3401 155.536C66.9699 155.326 67.5996 155.046 68.2294 154.766C74.457 152.177 80.5447 148.538 84.1833 145.599C84.3932 145.459 84.6031 145.249 84.813 145.11C85.2329 144.76 85.5827 144.48 85.8626 144.2C87.9618 142.241 89.5712 139.792 90.6908 137.203C94.5393 128.456 93.8396 117.4 93.2798 112.362L117.77 103.755C117.77 104.525 117.77 105.295 117.77 106.064C117.84 125.937 121.199 137.133 125.747 143.36C125.887 143.57 126.097 143.78 126.237 143.99C128.056 146.299 130.016 147.838 132.115 148.888C132.535 149.098 132.885 149.238 133.304 149.448C141.211 152.737 149.538 149.168 155.626 155.186C161.434 160.574 160.944 170.37 159.684 177.647Z" fill="#E2C8C0"/>
<path opacity="0.06" d="M108.534 98.6473C113.013 100.117 113.922 110.963 111.333 118.8C107.065 131.605 93.2803 136.293 90.9712 137.063C94.8197 128.316 94.12 117.26 93.5602 112.222C98.3884 102.986 104.756 97.3878 108.534 98.6473Z" fill="#253041"/>
<path opacity="0.06" d="M82.9241 201.508C83.414 197.52 84.0437 188.003 79.1456 177.507C73.4777 165.402 63.9614 159.594 60.5327 157.705C61.0225 157.495 61.4424 157.355 61.9322 157.145C62.422 156.935 62.9118 156.795 63.4016 156.585C63.4016 156.585 64.1713 156.305 66.5504 155.396C67.1802 155.186 67.8099 154.906 68.4397 154.626C75.0172 158.055 78.4458 162.043 80.3351 165.052C85.6531 173.379 87.5424 181.146 87.5424 181.146C88.1021 183.525 88.592 186.394 91.041 188.283C93.63 190.242 95.8692 189.193 96.8488 190.732C98.5281 193.531 93.9799 201.858 87.7523 202.488C85.723 202.698 83.9737 201.998 82.9241 201.508Z" fill="#253041"/>
<path d="M161.294 154.976C160.804 162.533 160.244 170.09 159.754 177.577C159.754 177.577 159.754 177.577 159.754 177.647C159.614 178.277 159.474 178.837 159.404 179.466C159.055 181.146 158.635 182.825 158.285 184.434C158.285 184.504 158.215 184.644 158.215 184.714C157.935 185.974 157.725 186.883 157.655 186.953C157.515 187.583 157.655 189.263 158.985 193.391C157.515 201.578 155.836 209.905 154.017 218.441C152.267 226.908 150.308 235.515 148.209 244.261C146.669 250.699 145.06 257.276 143.311 263.854C142.121 268.332 140.932 272.811 139.742 277.149C138.762 280.648 137.783 284.076 136.803 287.505C134.564 295.202 132.325 302.689 130.016 310.036C116.441 309.756 105.385 309.337 97.6182 308.987C92.2302 308.777 86.4924 308.427 75.4367 307.867C72.2879 307.727 69.1391 307.517 66.0602 307.377C62.8415 307.237 59.6227 307.027 56.4739 306.887C56.4739 306.817 56.4739 306.678 56.4739 306.608C56.4739 306.328 56.4739 305.978 56.4739 305.628C56.404 302.759 55.7042 298.281 54.5147 292.893C53.3251 287.505 51.7857 281.137 50.0364 274.56C48.497 268.612 46.8176 262.454 45.2082 256.577C45.2082 256.507 45.2082 256.507 45.2082 256.437C41.5696 243.142 38.2109 231.456 37.5812 227.328C37.5112 226.978 37.5112 226.698 37.4412 226.488C37.3013 225.089 37.3013 223.759 37.3013 222.57C37.3013 222.43 37.3013 222.29 37.3013 222.15C37.3013 221.94 37.3013 221.73 37.3013 221.52C37.3013 221.24 37.3013 221.03 37.3712 220.75C37.3712 220.541 37.4412 220.261 37.4412 220.051C37.4412 219.841 37.5112 219.561 37.5112 219.351C37.5112 219.141 37.5812 218.861 37.5812 218.651C37.8611 216.972 38.2809 215.502 38.7707 214.103C38.8407 213.893 38.9107 213.613 39.0506 213.403C39.4704 212.284 39.9602 211.094 40.52 209.975C40.59 209.835 40.66 209.695 40.66 209.555C41.0798 208.505 41.5696 207.456 42.0594 206.266C42.1294 206.126 42.1994 205.986 42.1994 205.846C42.6192 204.797 42.9691 203.677 43.3889 202.487C43.4589 202.278 43.5289 202.068 43.5289 201.928C43.6688 201.578 43.7388 201.158 43.8088 200.808C43.8787 200.598 43.8787 200.388 43.9487 200.248C43.9487 200.178 44.0187 200.038 44.0187 199.968C44.0887 199.828 44.0887 199.619 44.1586 199.479C44.6484 197.309 44.9983 195.14 45.4181 191.991C47.2374 178.976 45.4881 173.029 45.908 168.97C45.908 168.83 45.908 168.76 45.908 168.62C45.908 168.411 45.978 168.201 45.978 167.991C45.978 167.851 46.0479 167.711 46.1179 167.501C46.1179 167.431 46.1879 167.291 46.1879 167.221C46.2578 167.081 46.2579 166.941 46.3278 166.801C46.3278 166.731 46.3978 166.661 46.3978 166.521C46.4678 166.311 46.6077 166.101 46.6777 165.961C47.0276 165.402 47.3774 164.982 47.6573 164.562C48.7769 163.023 52.0656 158.544 57.8034 156.445C58.2932 156.235 58.853 156.095 59.4128 155.955C60.8822 155.605 63.3313 155.116 66.4801 155.535C72.4278 160.014 80.2648 167.431 84.4632 178.627C87.2621 186.044 86.9822 191.012 89.9211 191.922C94.8892 193.391 100.767 181.146 114.972 166.101C122.179 158.474 128.826 152.946 133.374 149.448C135.054 148.888 138.273 148.048 142.401 148.048C144.5 148.048 146.879 148.258 149.398 148.958C151.567 149.518 153.597 150.427 153.807 150.497C153.877 150.567 153.947 150.567 154.087 150.637C154.226 150.707 154.296 150.777 154.436 150.777C154.506 150.777 154.576 150.847 154.646 150.847C157.655 152.037 159.824 153.716 161.294 154.976Z" fill="#8376A2"/>
<path d="M199.221 263.924C199.082 273.16 196.632 279.947 191.035 284.216C177.32 294.572 153.039 284.496 139.674 277.148C136.945 275.679 134.706 274.28 133.097 273.23C129.738 271.061 127.289 269.032 125.54 266.932C123.58 264.623 122.531 262.384 122.111 259.935C121.761 257.836 121.971 255.597 122.531 253.498C123.86 248.25 127.639 243.561 132.327 241.952C135.756 240.762 139.114 241.672 145.622 243.491C146.532 243.771 147.371 243.981 148.141 244.261C157.447 247.27 160.806 250.489 162.835 248.949C165.424 246.99 162.765 239.783 159.687 230.966C157.797 225.508 155.768 221.45 153.949 218.441C150.94 213.473 148.281 211.444 147.161 210.604C144.223 208.505 143.103 208.575 141.703 207.455C137.575 204.166 136.456 194.58 146.042 169.25C148.141 163.722 150.73 157.424 153.879 150.287C153.949 150.357 154.019 150.357 154.159 150.427C154.299 150.497 154.369 150.567 154.509 150.567C154.579 150.567 154.649 150.637 154.718 150.637C155.978 151.267 157.797 152.176 159.687 153.436C170.323 160.433 175.361 171.279 178.09 178.976C178.509 180.236 178.929 181.355 179.209 182.405C190.545 217.671 199.431 245.521 199.221 263.924Z" fill="#8376A2"/>
<path opacity="0.21" d="M178.157 178.976C170.32 180.725 164.163 180.725 159.335 179.466C152.757 177.856 148.559 173.938 146.04 169.25C142.471 162.602 142.121 154.205 142.471 147.838C144.57 147.838 146.949 148.048 149.468 148.748C151.638 149.307 153.667 150.217 153.877 150.287C153.947 150.357 154.017 150.357 154.157 150.427C154.297 150.497 154.367 150.567 154.507 150.567C154.577 150.567 154.646 150.637 154.716 150.637C155.976 151.267 157.795 152.176 159.685 153.436C170.39 160.433 175.429 171.279 178.157 178.976Z" fill="url(#paint2_linear_3_16135)"/>
<path d="M126.447 143.78C116.861 152.387 108.324 156.725 100.977 156.725C99.4378 156.725 97.9684 156.515 96.4989 156.165C90.2713 154.486 86.4928 149.378 84.3936 145.459C84.6035 145.32 84.8134 145.11 85.0233 144.97C86.9826 148.748 90.6912 153.786 96.7089 155.396C104.686 157.565 114.482 153.436 125.958 143.15C126.098 143.36 126.308 143.57 126.447 143.78Z" fill="#31445A"/>
<path d="M99.229 159.734C100.891 159.734 102.238 158.387 102.238 156.725C102.238 155.063 100.891 153.716 99.229 153.716C97.5673 153.716 96.2202 155.063 96.2202 156.725C96.2202 158.387 97.5673 159.734 99.229 159.734Z" fill="#DF8744"/>
<path d="M126.797 90.0406C126.027 91.4401 124.978 93.3294 123.648 95.4985C116.021 107.744 96.9185 131.325 81.3845 126.847C74.4571 124.817 70.3987 117.82 68.8593 115.091C67.3898 112.572 65.2207 107.884 64.9408 96.2682C64.7309 88.2913 64.5209 78.1452 68.8593 65.7599C69.2091 64.7803 70.8185 60.302 73.3376 54.9141C75.5067 50.4358 78.3756 45.3278 81.8043 41.1993C85.7228 36.5111 90.341 33.0824 95.4491 33.2224C101.677 33.4323 106.155 38.8203 109.094 42.3889C109.164 42.5288 109.584 43.0186 110.143 43.7184C111.823 46.0975 115.112 51.2055 116.161 57.0133C116.651 59.8122 116.651 62.7511 115.741 65.69C114.902 68.3489 113.222 71.2878 112.592 76.6758C112.313 79.2648 112.313 81.4339 113.362 83.743C113.502 84.0929 114.482 86.0522 116.511 87.6616C120.709 90.8803 125.747 90.1806 126.797 90.0406Z" fill="#E2C8C0"/>
<path opacity="0.06" d="M116.301 57.0836C111.193 55.6142 100.907 52.9552 94.4697 53.515C88.1721 54.0748 78.5857 54.6346 73.4077 54.9145C75.5769 50.4362 78.4458 45.3281 81.8745 41.1997L110.284 43.7887C111.963 46.1678 115.252 51.2759 116.301 57.0836Z" fill="#253041"/>
<path d="M96.7813 87.3814C98.0566 87.3814 99.0904 86.3476 99.0904 85.0723C99.0904 83.797 98.0566 82.7632 96.7813 82.7632C95.506 82.7632 94.4722 83.797 94.4722 85.0723C94.4722 86.3476 95.506 87.3814 96.7813 87.3814Z" fill="#000105"/>
<path d="M74.5293 85.4923C75.8046 85.4923 76.8384 84.4584 76.8384 83.1831C76.8384 81.9078 75.8046 80.874 74.5293 80.874C73.254 80.874 72.2202 81.9078 72.2202 83.1831C72.2202 84.4584 73.254 85.4923 74.5293 85.4923Z" fill="#000105"/>
<path d="M83.9743 113.481C80.8255 113.481 78.3765 112.222 77.3968 111.662C77.1869 111.522 77.1169 111.242 77.2569 111.032C77.3968 110.822 77.6767 110.752 77.8867 110.892C79.0062 111.592 82.0151 113.061 85.8636 112.432C90.2719 111.732 92.791 108.583 93.4207 107.673C93.5607 107.463 93.8405 107.463 94.0505 107.603C94.2604 107.743 94.2604 108.023 94.1205 108.233C93.4207 109.213 90.6918 112.571 85.9336 113.341C85.2339 113.411 84.6041 113.481 83.9743 113.481Z" fill="#000105"/>
<path d="M84.0438 78.355C83.0641 79.7544 81.7346 81.7837 80.3352 84.3027C76.7666 90.6703 74.9472 93.959 76.2068 96.0582C77.8161 98.8571 83.9038 98.1574 85.3033 97.9475C84.8134 91.44 84.4636 84.8625 84.0438 78.355Z" fill="#C0846F"/>
<path d="M131.696 85.0722C126.938 63.5904 118.681 55.5435 111.543 52.3947C95.8694 45.3974 79.0059 58.9022 68.7898 49.5258C63.9617 45.0475 62.5622 37.2805 64.5215 31.8926C68.3 21.3266 85.1636 18.1778 96.3593 19.6473C116.092 22.2363 132.325 41.339 134.914 61.2813C136.244 71.4974 133.655 80.0341 131.696 85.0722Z" fill="#2A303D"/>
<path d="M103.289 74.6462L89.7142 71.0776C89.4343 71.0076 89.2243 70.7277 89.2943 70.3778L89.6442 69.1883C89.7142 68.9084 89.9941 68.6985 90.3439 68.7684L103.919 72.3371C104.199 72.407 104.409 72.6869 104.339 73.0368L103.989 74.2264C103.849 74.5762 103.569 74.7162 103.289 74.6462Z" fill="#2A303D"/>
<path d="M75.5087 71.5677L62.7737 74.0167C62.4938 74.0867 62.2139 73.8768 62.1439 73.5969L61.934 72.4073C61.864 72.1274 62.0739 71.8475 62.3538 71.7776L75.0889 69.3285C75.3688 69.2585 75.6487 69.4685 75.7187 69.7483L75.9286 70.9379C75.9986 71.2178 75.7886 71.4977 75.5087 71.5677Z" fill="#2A303D"/>
<path d="M133.097 95.4286C132.957 100.816 128.409 105.085 123.021 104.875C117.633 104.735 113.364 100.187 113.574 94.7988C113.574 94.5889 113.574 94.4489 113.574 94.239C113.994 89.061 118.402 85.1425 123.65 85.2824C126.309 85.3524 128.689 86.542 130.438 88.2913C132.117 90.1806 133.167 92.6996 133.097 95.4286Z" fill="#E2C8C0"/>
<path opacity="0.28" d="M130.369 88.3606L113.575 94.3084C113.995 89.1303 118.403 85.2118 123.651 85.3518C126.24 85.4218 128.619 86.5413 130.369 88.3606Z" fill="url(#paint3_linear_3_16135)"/>
<path d="M2.31366 143.15C2.31366 143.64 2.10375 144.13 1.75389 144.48C1.40402 144.829 0.914191 145.039 0.424379 145.039H-35.3319C-36.3815 145.039 -37.2212 144.2 -37.2212 143.15C-37.2212 142.66 -37.0113 142.17 -36.6614 141.821C-36.3115 141.471 -35.8217 141.261 -35.3319 141.261H0.424379C1.47398 141.331 2.31366 142.17 2.31366 143.15Z" fill="#BACFDA"/>
<path opacity="0.09" d="M2.31249 143.15C2.31249 143.64 2.10257 144.129 1.75271 144.479C1.40284 144.829 0.913014 145.039 0.423201 145.039H-1.46606C-3.21539 161.693 -4.96472 178.276 -6.64407 194.93H-19.3092C-27.706 185.833 -28.3358 182.195 -27.3561 180.586C-25.8167 178.066 -20.1489 179.886 -12.8017 175.967C-11.8921 175.477 -9.02317 173.798 -7.48376 170.579C-7.27384 170.16 -6.5741 168.55 -6.99394 168.27C-7.69367 167.71 -10.6325 172.189 -15.4607 174.638C-21.6883 177.787 -28.6856 176.317 -28.7556 175.617C-28.8256 175.058 -23.6476 175.058 -16.5103 171.909C-10.4926 169.25 -5.94436 165.541 -6.22425 165.051C-6.50415 164.562 -10.4226 166.871 -17.8398 169.04C-23.1577 170.579 -30.1551 172.049 -30.5049 171.139C-30.7149 170.439 -27.0762 168.62 -26.5864 168.34C-21.7583 165.891 -14.5511 164.072 -12.102 163.512C-11.1923 163.302 -9.37304 162.812 -8.9532 161.553C-8.74328 160.923 -8.88323 160.083 -9.37304 159.594C-10.6326 158.334 -13.6414 160.013 -18.3996 161.623C-23.2977 163.302 -28.9655 164.492 -29.2454 163.862C-29.4553 163.302 -25.9567 161.343 -23.9275 160.223C-16.0205 155.885 -13.2216 156.095 -12.5918 153.716C-11.962 151.267 -14.2012 147.558 -13.9213 145.039C-13.9213 144.969 -13.8513 144.269 -13.7114 143.29C-13.6414 142.59 -13.5714 141.96 -13.5015 141.331H0.423201C1.4728 141.331 2.31249 142.17 2.31249 143.15Z" fill="#2A303D"/>
<path d="M64.9413 208.995C63.5418 216.062 61.2327 225.578 57.1043 236.424C52.9758 247.27 31.9839 302.339 3.08495 302.199C-9.72015 302.129 -19.1665 291.213 -32.7413 274.63C-33.3011 273.93 -33.9309 273.16 -34.5606 272.46C-36.4499 270.151 -52.2638 250.279 -58.0716 220.82C-58.5614 218.511 -58.8413 216.342 -59.1212 214.453C-60.7306 201.858 -57.9317 197.729 -55.7625 195.77C-52.1239 192.551 -46.2461 191.781 -41.6979 193.391C-33.3711 196.33 -31.5518 206.476 -26.7936 217.671C-22.1754 228.517 -13.1488 244.261 -4.5421 251.468C-1.39331 254.127 1.75546 255.597 4.48441 255.247C14.9804 253.988 22.6075 226.768 31.0742 196.54C32.0538 193.041 34.9228 182.335 42.8297 170.719C44.3692 168.48 45.7686 166.591 46.8882 165.262C47.0981 164.982 47.378 164.702 47.5879 164.422C53.4657 179.256 59.2035 194.16 64.9413 208.995Z" fill="#8376A2"/>
<path opacity="0.4" d="M47.0978 165.191C47.0278 182.755 45.1385 250.559 19.8782 265.463C-0.0641717 277.219 -3.91268 262.104 -4.33252 251.398C-1.18373 254.057 1.96508 255.527 4.69404 255.177C15.19 253.917 22.8171 226.698 31.2839 196.469C32.2635 192.971 35.1324 182.265 43.0393 170.649C44.5788 168.41 45.9782 166.521 47.0978 165.191Z" fill="url(#paint4_linear_3_16135)"/>
<path d="M63.0532 177.367H62.9833L52.6972 176.458C52.0674 176.388 51.6476 175.898 51.7176 175.268C51.7875 174.638 52.2774 174.218 52.9071 174.288L63.1932 175.198C63.8229 175.268 64.2428 175.758 64.1728 176.388C64.1028 176.947 63.613 177.367 63.0532 177.367Z" fill="#BACFDA"/>
<path d="M172.141 170.44C171.931 170.44 171.721 170.37 171.511 170.23L163.185 164.142C162.695 163.793 162.555 163.093 162.975 162.603C163.325 162.113 164.024 161.973 164.514 162.393L172.841 168.481C173.331 168.831 173.471 169.53 173.051 170.02C172.771 170.3 172.421 170.44 172.141 170.44Z" fill="#BACFDA"/>
<path d="M85.233 199.338C84.8131 199.338 84.4632 199.128 84.2533 198.708C83.9734 198.149 84.1834 197.519 84.7431 197.239L93.9096 192.481C94.4694 192.201 95.0992 192.411 95.3791 192.971C95.659 193.53 95.449 194.16 94.8892 194.44L85.7228 199.198C85.5828 199.338 85.4429 199.338 85.233 199.338Z" fill="#BACFDA"/>
<path d="M182.147 191.502L176.479 194.44C176.339 194.51 176.129 194.58 175.989 194.58C175.569 194.58 175.22 194.37 175.01 194.021C174.73 193.461 174.94 192.831 175.499 192.551L181.517 189.402C181.727 190.032 181.937 190.802 182.147 191.502Z" fill="#BACFDA"/>
<path d="M118.121 165.051C117.701 165.051 117.351 164.842 117.141 164.492C116.861 163.932 117.071 163.302 117.631 163.022L126.797 158.264C127.357 157.984 127.987 158.194 128.267 158.754C128.547 159.314 128.337 159.943 127.777 160.223L118.61 164.981C118.471 164.981 118.261 165.051 118.121 165.051Z" fill="#BACFDA"/>
<path d="M152.268 177.787H152.198L141.912 177.017C141.282 176.947 140.862 176.457 140.862 175.827C140.932 175.198 141.422 174.778 142.052 174.778L152.338 175.548C152.968 175.618 153.388 176.107 153.388 176.737C153.318 177.367 152.828 177.787 152.268 177.787Z" fill="#BACFDA"/>
<path d="M148.21 148.398C148.07 148.888 147.65 149.238 147.16 149.238H147.09L136.804 148.468C136.734 148.468 136.664 148.468 136.524 148.398C139.323 147.838 143.452 147.419 148.21 148.398Z" fill="#BACFDA"/>
<path d="M119.872 186.533C119.662 186.533 119.522 186.463 119.312 186.393L110.355 181.215C109.795 180.936 109.655 180.236 109.935 179.676C110.215 179.116 110.915 178.976 111.475 179.256L120.431 184.434C120.991 184.714 121.131 185.414 120.851 185.974C120.641 186.323 120.221 186.533 119.872 186.533Z" fill="#BACFDA"/>
</g>
<defs>
<linearGradient id="paint0_linear_3_16135" x1="103.955" y1="117.792" x2="202.801" y2="117.792" gradientUnits="userSpaceOnUse">
<stop offset="0.3245" stop-color="#2A303D"/>
<stop offset="1" stop-color="#31445A"/>
</linearGradient>
<linearGradient id="paint1_linear_3_16135" x1="-14.9158" y1="138.573" x2="111.218" y2="138.573" gradientUnits="userSpaceOnUse">
<stop offset="0.3245" stop-color="#2A303D"/>
<stop offset="1" stop-color="#31445A"/>
</linearGradient>
<linearGradient id="paint2_linear_3_16135" x1="142.371" y1="164.082" x2="178.129" y2="164.082" gradientUnits="userSpaceOnUse">
<stop stop-color="white"/>
<stop offset="1" stop-color="#9375A1"/>
</linearGradient>
<linearGradient id="paint3_linear_3_16135" x1="113.557" y1="89.792" x2="130.367" y2="89.792" gradientUnits="userSpaceOnUse">
<stop stop-color="#E2C8C0"/>
<stop offset="1" stop-color="#DD8093" stop-opacity="0.4"/>
</linearGradient>
<linearGradient id="paint4_linear_3_16135" x1="-4.36758" y1="217.457" x2="47.0854" y2="217.457" gradientUnits="userSpaceOnUse">
<stop stop-color="#302E40"/>
<stop offset="1" stop-color="#9375A1"/>
</linearGradient>
<clipPath id="clip0_3_16135">
<rect width="198.663" height="198.663" fill="white" transform="translate(0.000976562 0.980469)"/>
</clipPath>
</defs>
</svg>
