<svg width="200" height="200" viewBox="0 0 200 200" fill="none" xmlns="http://www.w3.org/2000/svg">
<g clip-path="url(#clip0_3_16310)">
<rect width="198.663" height="198.663" transform="translate(0.579102 0.980469)" fill="#8677A7"/>
<path d="M133.335 133.475C129.675 150.793 125.658 169.272 118.605 191.858C118.07 193.643 117.445 195.518 116.82 197.393C115.124 202.57 113.249 208.016 111.285 213.64C101.822 239.796 92.0026 261.043 84.3254 276.219C60.4008 269.166 36.4763 262.114 12.5518 255.061C12.9981 229.084 15.944 191.411 27.7278 147.758C32.102 131.779 38.5295 107.765 47.5459 85.4472C48.1708 83.9296 48.7957 82.5012 49.4206 80.9836C61.115 53.2205 76.7374 29.2067 97.0018 27.7783C114.142 26.6178 130.3 41.9724 137.531 54.8273C141.012 60.987 146.101 73.0385 133.335 133.475Z" fill="#19233D"/>
<path opacity="0.35" d="M118.605 191.858C118.07 193.643 117.445 195.518 116.82 197.392C115.124 202.57 113.249 208.016 111.285 213.64C101.822 239.796 92.0026 261.042 84.3254 276.218C60.4008 269.166 36.4763 262.114 12.5518 255.061C12.9981 229.083 15.944 191.411 27.7278 147.758C32.102 131.778 38.5295 107.765 47.5459 85.4469C48.1708 83.9293 48.7957 82.501 49.4206 80.9834L118.605 191.858Z" fill="url(#paint0_linear_3_16310)"/>
<path d="M154.135 153.828L146.993 181.77C146.993 181.86 146.904 181.949 146.904 181.949C144.137 189.358 141.458 198.642 139.852 209.533C139.762 210.426 139.584 211.319 139.495 212.212C138.87 217.478 138.513 222.567 138.423 227.388C138.423 228.459 138.423 229.619 138.423 230.691C138.513 238.189 139.227 244.885 140.119 250.776C140.566 253.544 141.101 256.133 141.548 258.454C141.548 258.543 141.548 258.543 141.548 258.632L141.458 258.722C140.744 259.525 138.691 261.757 135.388 264.256C134.228 265.149 132.889 266.131 131.371 267.113C124.765 271.398 115.124 275.594 103.251 274.969C92.0026 274.433 83.3433 269.791 78.1656 266.131C75.9338 264.524 74.2377 263.096 73.345 262.203C73.7913 260.507 74.2377 258.9 74.5948 257.382H74.5055C75.2197 254.437 75.8446 251.669 76.2909 248.991C76.8265 245.777 77.2729 242.742 77.4514 239.975C77.5407 238.636 77.63 237.297 77.7192 235.958C77.7192 235.6 77.7192 235.333 77.7192 234.976C77.8085 233.636 77.8085 232.387 77.7192 231.137C77.63 224.085 76.648 218.728 75.666 214.8C74.0592 208.373 69.9527 196.5 65.8463 185.52C65.8463 185.43 65.757 185.341 65.757 185.252C65.6677 184.984 65.5784 184.716 65.3999 184.359C63.3467 179.36 61.9184 175.343 61.0256 172.754C57.9904 164.005 54.5982 154.721 55.2231 153.918C58.0797 151.775 60.6685 149.901 62.9896 148.294C62.9896 148.294 62.9896 148.294 63.0789 148.294C64.2394 147.49 65.3106 146.776 66.3819 146.151C68.8815 144.544 71.381 143.027 73.4343 141.777C74.2377 141.331 74.9519 140.884 75.5768 140.438C76.2016 140.081 76.8265 139.724 77.3622 139.367C79.3261 138.206 84.1467 134.725 87.9854 131.154L88.6103 130.529C90.485 128.743 92.0918 126.958 92.8953 125.53C95.7519 120.531 96.9124 115.353 97.1803 110.443C97.3588 107.943 97.2695 105.533 97.0017 103.212C96.3768 97.1416 94.6807 92.1425 93.6987 89.4644C102.536 90.6249 111.464 91.7854 120.301 92.9459C120.034 96.2489 119.944 99.909 120.123 103.748C120.301 107.14 120.658 110.711 121.373 114.282C122.087 117.763 123.069 121.334 124.497 124.905C124.497 124.994 124.586 125.083 124.586 125.083C125.3 126.869 126.104 128.654 127.086 130.35C127.443 130.975 127.8 131.689 128.246 132.314C128.425 132.582 128.514 132.85 128.693 133.118C129.318 134.01 129.943 134.903 130.567 135.796C133.335 139.545 135.924 141.42 138.959 143.205C139.137 143.295 139.405 143.473 139.584 143.562C140.119 143.919 140.655 144.187 141.191 144.544C141.458 144.723 141.637 144.812 141.905 144.991C145.476 146.776 149.225 149.186 154.135 153.828Z" fill="#E6A67F"/>
<path opacity="0.13" d="M124.854 124.905C121.461 124.637 116.998 123.834 112.356 121.781C104.5 118.389 99.7687 113.3 97.537 110.533C97.7155 108.033 97.6262 105.623 97.3584 103.302L120.569 103.837C120.301 106.069 120.212 109.908 121.819 114.371C122.443 117.853 123.425 121.424 124.854 124.905Z" fill="#002544"/>
<path opacity="0.25" d="M153.957 153.828L146.815 181.77C146.815 181.859 146.726 181.949 146.726 181.949C143.958 189.358 141.28 198.642 139.673 209.533L86.8252 200.16L127.265 130.35C128.336 132.225 129.497 134.01 130.746 135.796C133.514 139.545 136.103 141.42 139.138 143.205C139.316 143.294 139.584 143.473 139.763 143.562C140.298 143.919 140.834 144.187 141.37 144.544C141.637 144.723 141.816 144.812 142.084 144.991C145.297 146.776 149.136 149.186 153.957 153.828Z" fill="url(#paint1_linear_3_16310)"/>
<path opacity="0.64" d="M128.959 133.118C126.549 136.064 121.639 140.706 114.319 142.224C113.962 142.045 113.516 141.867 113.069 141.867C112.355 141.867 111.73 142.134 111.284 142.67C110.927 142.67 110.57 142.759 110.213 142.759C109.945 142.759 109.677 142.759 109.498 142.759C101.018 142.759 93.0727 138.296 88.3413 131.154L88.9662 130.529C93.6976 137.76 101.821 142.134 110.213 141.867C119.765 141.599 125.924 135.618 128.602 132.315C128.602 132.583 128.781 132.85 128.959 133.118Z" fill="white"/>
<path opacity="0.64" d="M114.318 142.223C113.961 142.045 113.515 141.866 113.068 141.866C112.354 141.866 111.729 142.134 111.283 142.67C110.837 143.116 110.569 143.741 110.569 144.455C110.569 145.883 111.729 146.955 113.068 146.955C114.407 146.955 115.568 145.794 115.568 144.455C115.568 143.473 115.032 142.67 114.318 142.223Z" fill="white"/>
<path d="M132.44 60.0051C129.673 60.5407 122.621 61.612 114.676 58.309C103.963 53.7562 99.6781 44.3827 98.7854 42.2402C98.6961 42.2402 98.6068 42.3295 98.6068 42.3295C97.0892 49.0248 95.7502 55.9879 94.5004 63.3081C92.5365 74.9133 91.1974 85.8936 90.3047 96.249C94.9468 102.855 101.017 107.497 106.998 109.997C108.694 110.711 117.532 113.389 123.96 110.532C134.672 105.89 140.207 85.0009 132.44 60.0051Z" fill="#E6A67F"/>
<path d="M110.927 74.3778C112.11 74.3778 113.069 73.4186 113.069 72.2353C113.069 71.052 112.11 70.0928 110.927 70.0928C109.743 70.0928 108.784 71.052 108.784 72.2353C108.784 73.4186 109.743 74.3778 110.927 74.3778Z" fill="black"/>
<path d="M130.296 71.7889C131.48 71.7889 132.439 70.8297 132.439 69.6464C132.439 68.4631 131.48 67.5039 130.296 67.5039C129.113 67.5039 128.154 68.4631 128.154 69.6464C128.154 70.8297 129.113 71.7889 130.296 71.7889Z" fill="black"/>
<path d="M121.459 70.9858C122.352 73.664 123.87 76.967 126.548 80.27C128.601 82.7696 130.297 84.0194 129.94 85.3584C129.672 86.5189 127.708 87.5902 121.459 87.858C121.459 82.234 121.459 76.6099 121.459 70.9858Z" fill="#C5856E"/>
<path d="M120.031 97.3203C118.692 97.3203 116.996 97.0525 115.3 96.3383C111.372 94.5529 109.765 91.1606 109.319 89.8215C109.23 89.5537 109.319 89.1967 109.676 89.1074C109.944 89.0181 110.301 89.1074 110.39 89.4645C110.747 90.4464 112.175 93.6602 115.836 95.3563C118.96 96.7847 121.995 96.1598 123.067 95.892C123.334 95.8027 123.691 95.9812 123.691 96.249C123.781 96.5169 123.602 96.8739 123.334 96.8739C122.709 97.0525 121.549 97.3203 120.031 97.3203Z" fill="black"/>
<path d="M112.266 59.469C110.659 59.9154 108.963 60.2724 107.356 60.7188C105.481 61.1651 103.517 61.7008 101.643 62.1471C102.178 61.5222 103.964 59.6476 106.999 59.0227C109.409 58.5763 111.373 59.1119 112.266 59.469Z" fill="black"/>
<path d="M135.474 64.647C133.867 64.2899 132.171 63.8435 130.564 63.4864C128.69 63.0401 126.726 62.5937 124.851 62.0581C125.655 61.7903 128.065 60.9868 131.011 61.7903C133.421 62.5044 134.849 63.9328 135.474 64.647Z" fill="black"/>
<path d="M141.457 258.632C141.457 258.722 141.457 258.811 141.546 258.9C140.743 259.793 137.529 263.274 132.351 266.756C132.173 266.934 131.994 267.024 131.726 267.202C129.584 268.631 127.173 269.97 124.495 271.219C123.335 271.755 122.174 272.201 120.924 272.648C115.836 274.433 109.944 275.594 103.249 275.326C102.088 275.237 100.928 275.147 99.8566 274.969C98.9638 274.879 98.1604 274.701 97.2677 274.612C93.3398 273.898 89.769 272.648 86.6445 271.309C86.1089 271.041 85.5732 270.773 85.0376 270.505C79.9492 268.006 76.2891 265.149 74.2359 263.364C73.7895 263.006 73.5217 262.739 73.2539 262.471C73.2539 262.471 73.2539 262.471 73.2539 262.382C73.2539 262.292 73.3432 262.292 73.3432 262.203C73.611 261.221 73.8788 260.328 74.1466 259.436C74.3251 258.722 74.5037 258.007 74.6822 257.382C76.2891 250.955 77.1818 245.152 77.6281 239.975C77.7174 238.636 77.8067 237.297 77.896 235.957C77.896 235.6 77.896 235.333 77.896 234.976C77.9852 233.636 77.9852 232.387 77.896 231.137C77.8067 224.263 76.8247 218.996 75.8427 215.157C75.8427 215.068 75.8427 215.068 75.8427 214.979C75.8427 214.979 75.8427 214.979 75.8427 214.89V214.8C75.7535 214.533 75.6642 214.265 75.5749 213.908C75.4857 213.729 75.4856 213.461 75.3964 213.193C75.3071 212.836 75.2178 212.569 75.1286 212.211C75.1286 212.033 75.0393 211.944 75.0393 211.765C74.95 211.587 74.95 211.319 74.8608 211.14C74.7715 210.872 74.6822 210.515 74.5929 210.248C74.5929 210.158 74.5929 210.158 74.5037 210.069C74.4144 209.712 74.3251 209.355 74.1466 208.998C74.0573 208.73 73.9681 208.462 73.8788 208.105C73.5217 207.034 73.1646 206.052 72.8075 204.891C72.8075 204.802 72.8075 204.802 72.7182 204.713C72.5397 204.266 72.4504 203.82 72.2719 203.463C72.2719 203.374 72.2719 203.374 72.1826 203.284L72.0041 202.838V202.749C71.4685 201.32 71.0221 199.803 70.4865 198.196C70.2187 197.482 70.0401 196.857 69.7723 196.143C68.6118 192.661 67.2727 189.18 66.0229 185.698L66.1122 185.609C67.2727 184.716 68.344 183.913 69.5045 183.109C70.0402 182.663 70.5758 182.306 71.2007 181.949C71.8256 181.592 72.2719 181.145 72.8968 180.788C73.0753 180.61 73.3432 180.52 73.5217 180.342C73.7895 180.163 73.968 179.985 74.2359 179.896C74.95 179.449 75.5749 179.003 76.1998 178.556C76.5569 178.289 77.0033 178.021 77.3603 177.842C77.5389 177.753 77.6281 177.664 77.8067 177.574C78.253 177.307 78.7887 176.95 79.235 176.682C79.7706 176.325 80.3063 176.057 80.7526 175.789C81.6453 175.253 82.538 174.807 83.4307 174.361C83.7878 174.182 84.2342 173.914 84.5913 173.736C84.6805 173.736 84.6805 173.647 84.7698 173.647H84.8591C85.0376 173.557 85.1269 173.468 85.3054 173.468C85.7518 173.289 86.1088 173.022 86.5552 172.843C86.6445 172.754 86.7338 172.754 86.9123 172.665C87.1801 172.486 87.5372 172.397 87.805 172.218C88.0728 172.04 88.4299 171.95 88.6977 171.772C89.3226 171.504 89.8582 171.236 90.4831 170.968C91.0188 170.701 91.6436 170.522 92.1793 170.254C92.4471 170.165 92.7149 170.076 92.8934 169.986C93.2505 169.897 93.5183 169.719 93.8754 169.629C94.2325 169.451 94.6788 169.362 95.0359 169.183C95.4823 169.004 95.9286 168.915 96.375 168.737C96.5535 168.647 96.8213 168.558 96.9999 168.558C97.1784 168.469 97.4462 168.469 97.6248 168.38C98.1604 168.201 98.696 168.112 99.1424 167.933C99.678 167.755 100.214 167.665 100.66 167.487C100.928 167.398 101.285 167.308 101.553 167.308C102.088 167.13 102.624 167.041 103.249 166.951C103.517 166.862 103.874 166.862 104.142 166.773C104.499 166.683 104.766 166.683 105.124 166.594C105.302 166.594 105.57 166.505 105.748 166.505C105.927 166.505 106.195 166.416 106.373 166.416C106.552 166.416 106.82 166.326 106.998 166.326C107.177 166.326 107.445 166.237 107.623 166.237C108.069 166.148 108.427 166.148 108.873 166.059C109.319 166.059 109.676 165.969 110.033 165.969C110.212 165.969 110.48 165.969 110.658 165.969C110.837 165.969 110.926 165.969 111.105 165.969H111.194C114.586 165.791 117.8 165.969 120.746 166.505C121.103 166.594 121.46 166.594 121.728 166.683C121.996 166.773 122.353 166.773 122.621 166.862C122.71 166.862 122.71 166.862 122.799 166.862C123.067 166.951 123.335 166.951 123.603 167.041C123.96 167.13 124.317 167.219 124.585 167.308C124.674 167.308 124.674 167.308 124.763 167.308C125.12 167.398 125.477 167.487 125.745 167.576C126.102 167.665 126.548 167.844 126.906 167.933C127.173 168.023 127.441 168.112 127.709 168.201C127.888 168.29 128.066 168.29 128.155 168.38C128.155 168.38 128.155 168.38 128.245 168.38C128.423 168.469 128.512 168.469 128.691 168.558C128.87 168.647 129.048 168.647 129.137 168.737C129.584 168.915 130.03 169.094 130.476 169.272C130.923 169.451 131.369 169.719 131.815 169.897C131.994 169.986 132.262 170.076 132.44 170.254C132.619 170.344 132.887 170.433 133.065 170.611C133.244 170.701 133.422 170.79 133.69 170.968C134.047 171.147 134.494 171.415 134.851 171.683C135.029 171.772 135.208 171.95 135.386 172.04C135.476 172.129 135.565 172.129 135.654 172.218C136.1 172.486 136.547 172.754 136.993 173.111C137.172 173.289 137.439 173.379 137.618 173.557C138.421 174.093 139.136 174.718 139.85 175.253C140.118 175.521 140.385 175.7 140.653 175.968C140.921 176.235 141.189 176.414 141.457 176.682C141.724 176.95 141.903 177.128 142.171 177.396C142.26 177.485 142.439 177.574 142.528 177.753C142.617 177.842 142.706 177.932 142.885 178.11C143.064 178.289 143.331 178.556 143.51 178.735C143.688 178.914 143.867 179.181 144.046 179.36C144.135 179.449 144.224 179.538 144.313 179.628C144.403 179.717 144.492 179.806 144.581 179.896C144.67 179.985 144.76 180.074 144.849 180.163C145.027 180.342 145.117 180.52 145.295 180.699C145.474 180.878 145.563 181.056 145.742 181.235C145.831 181.324 145.92 181.413 146.01 181.502C146.277 181.859 146.545 182.217 146.724 182.484L146.813 182.574C143.867 190.608 140.921 200.874 139.403 213.015C138.779 218.193 138.421 223.192 138.332 227.923C138.332 228.994 138.332 230.155 138.332 231.226C138.332 232.565 138.332 233.815 138.421 235.065C138.421 235.154 138.421 235.154 138.421 235.243C138.421 235.868 138.511 236.582 138.511 237.207C138.511 237.832 138.6 238.546 138.6 239.171C138.689 241.046 138.868 242.921 139.046 244.706C139.136 245.331 139.225 245.956 139.225 246.491C139.314 247.027 139.314 247.563 139.403 248.098C139.493 248.545 139.582 249.08 139.582 249.527C139.671 249.973 139.761 250.509 139.761 250.955C139.939 251.937 140.028 252.83 140.207 253.722C140.296 254.169 140.385 254.615 140.475 255.061C140.564 255.418 140.564 255.776 140.653 256.043C140.743 256.49 140.832 257.025 140.921 257.472C140.921 257.561 140.921 257.65 141.01 257.74C141.1 258.097 141.189 258.454 141.189 258.811C141.457 258.454 141.457 258.543 141.457 258.632Z" fill="#8677A7"/>
<path d="M76.2015 178.467C76.1122 179.449 75.2195 180.342 74.059 180.342C73.8804 180.342 73.7019 180.342 73.4341 180.253C73.7019 180.074 73.8804 179.896 74.1482 179.806C74.8624 179.271 75.4873 178.824 76.2015 178.467Z" fill="#004E5A"/>
<path d="M74.0556 192.126C75.2388 192.126 76.1981 191.246 76.1981 190.162C76.1981 189.077 75.2388 188.198 74.0556 188.198C72.8723 188.198 71.9131 189.077 71.9131 190.162C71.9131 191.246 72.8723 192.126 74.0556 192.126Z" fill="#87AEB4"/>
<path d="M86.7333 176.324C87.9166 176.324 88.8758 175.445 88.8758 174.36C88.8758 173.276 87.9166 172.396 86.7333 172.396C85.55 172.396 84.5908 173.276 84.5908 174.36C84.5908 175.445 85.55 176.324 86.7333 176.324Z" fill="#87AEB4"/>
<path d="M86.7333 188.198C87.9166 188.198 88.8758 187.319 88.8758 186.234C88.8758 185.149 87.9166 184.27 86.7333 184.27C85.55 184.27 84.5908 185.149 84.5908 186.234C84.5908 187.319 85.55 188.198 86.7333 188.198Z" fill="#004E5A"/>
<path d="M86.7333 200.071C87.9166 200.071 88.8758 199.192 88.8758 198.107C88.8758 197.022 87.9166 196.143 86.7333 196.143C85.55 196.143 84.5908 197.022 84.5908 198.107C84.5908 199.192 85.55 200.071 86.7333 200.071Z" fill="#87AEB4"/>
<path d="M100.838 167.219C100.481 167.933 99.7666 168.38 98.8739 168.38C98.4276 168.38 98.0705 168.291 97.7134 168.023C98.249 167.844 98.7846 167.755 99.231 167.576C99.7666 167.487 100.302 167.398 100.838 167.219Z" fill="#87AEB4"/>
<path d="M98.8754 180.253C100.059 180.253 101.018 179.373 101.018 178.289C101.018 177.204 100.059 176.325 98.8754 176.325C97.6921 176.325 96.7329 177.204 96.7329 178.289C96.7329 179.373 97.6921 180.253 98.8754 180.253Z" fill="#004E5A"/>
<path d="M98.8754 192.126C100.059 192.126 101.018 191.246 101.018 190.162C101.018 189.077 100.059 188.198 98.8754 188.198C97.6921 188.198 96.7329 189.077 96.7329 190.162C96.7329 191.246 97.6921 192.126 98.8754 192.126Z" fill="#87AEB4"/>
<path d="M111.015 175.789C112.198 175.789 113.158 174.91 113.158 173.825C113.158 172.741 112.198 171.861 111.015 171.861C109.832 171.861 108.873 172.741 108.873 173.825C108.873 174.91 109.832 175.789 111.015 175.789Z" fill="#87AEB4"/>
<path d="M111.015 187.662C112.198 187.662 113.158 186.783 113.158 185.698C113.158 184.614 112.198 183.734 111.015 183.734C109.832 183.734 108.873 184.614 108.873 185.698C108.873 186.783 109.832 187.662 111.015 187.662Z" fill="#004E5A"/>
<path d="M111.015 199.535C112.198 199.535 113.158 198.656 113.158 197.571C113.158 196.486 112.198 195.607 111.015 195.607C109.832 195.607 108.873 196.486 108.873 197.571C108.873 198.656 109.832 199.535 111.015 199.535Z" fill="#87AEB4"/>
<path d="M124.852 166.951C124.495 167.487 123.87 167.844 123.067 167.844C121.996 167.844 121.103 167.041 120.924 166.059C121.281 166.148 121.638 166.148 121.906 166.237C122.174 166.326 122.531 166.326 122.799 166.416C122.888 166.416 122.888 166.416 122.978 166.416C123.245 166.505 123.513 166.505 123.781 166.594C124.227 166.773 124.495 166.862 124.852 166.951Z" fill="#87AEB4"/>
<path d="M123.067 179.717C124.25 179.717 125.209 178.838 125.209 177.753C125.209 176.668 124.25 175.789 123.067 175.789C121.884 175.789 120.924 176.668 120.924 177.753C120.924 178.838 121.884 179.717 123.067 179.717Z" fill="#004E5A"/>
<path d="M123.067 191.59C124.25 191.59 125.209 190.711 125.209 189.626C125.209 188.541 124.25 187.662 123.067 187.662C121.884 187.662 120.924 188.541 120.924 189.626C120.924 190.711 121.884 191.59 123.067 191.59Z" fill="#87AEB4"/>
<path d="M123.067 203.463C124.25 203.463 125.209 202.584 125.209 201.499C125.209 200.414 124.25 199.535 123.067 199.535C121.884 199.535 120.924 200.414 120.924 201.499C120.924 202.584 121.884 203.463 123.067 203.463Z" fill="#004E5A"/>
<path d="M135.832 175.789C137.016 175.789 137.975 174.91 137.975 173.825C137.975 172.741 137.016 171.861 135.832 171.861C134.649 171.861 133.69 172.741 133.69 173.825C133.69 174.91 134.649 175.789 135.832 175.789Z" fill="#87AEB4"/>
<path d="M135.832 187.662C137.016 187.662 137.975 186.783 137.975 185.698C137.975 184.614 137.016 183.734 135.832 183.734C134.649 183.734 133.69 184.614 133.69 185.698C133.69 186.783 134.649 187.662 135.832 187.662Z" fill="#004E5A"/>
<path d="M135.832 199.535C137.016 199.535 137.975 198.656 137.975 197.571C137.975 196.486 137.016 195.607 135.832 195.607C134.649 195.607 133.69 196.486 133.69 197.571C133.69 198.656 134.649 199.535 135.832 199.535Z" fill="#87AEB4"/>
<path d="M93.9636 178.289C93.8743 178.378 93.6958 178.378 93.6065 178.378C93.0709 178.467 92.5353 178.199 92.2675 177.664L73.6099 141.598C74.4133 141.152 75.1275 140.706 75.7524 140.259L94.41 176.325C94.767 177.128 94.5885 177.932 93.9636 178.289Z" fill="#8677A7"/>
<path d="M141.456 144.544L132.618 179.538C132.261 179.27 131.994 179.003 131.637 178.735C131.458 178.556 131.279 178.378 131.012 178.199C130.833 178.021 130.655 177.842 130.387 177.753L139.135 143.205L141.456 144.544Z" fill="#8677A7"/>
<path opacity="0.42" d="M141.457 258.632C141.457 258.721 141.457 258.811 141.546 258.9C140.743 259.882 137.529 263.274 132.352 266.756L111.284 268.541C114.497 254.793 117.354 236.672 117.176 215.336C116.997 195.607 114.319 178.646 111.284 165.523C115.212 165.255 121.818 165.434 129.049 168.29C139.582 172.486 145.296 179.895 146.724 181.949L146.813 182.038C143.867 190.072 140.922 200.338 139.404 212.479C138.779 217.657 138.422 222.656 138.333 227.387C138.333 228.459 138.333 229.619 138.333 230.69C138.422 241.671 139.85 251.044 141.368 258.275C141.457 258.454 141.457 258.543 141.457 258.632Z" fill="url(#paint2_linear_3_16310)"/>
<path d="M88.5218 256.757L56.2951 258.9L49.6891 259.346L55.581 192.661C48.1715 199.356 13.713 229.798 -5.92651 226.673C-7.8012 226.405 -9.58663 225.78 -11.1935 224.798C-17.621 220.781 -18.1566 212.568 -28.0657 163.112C-28.9584 158.738 -29.7618 154.632 -30.5652 150.882C-30.833 149.454 -31.1008 148.115 -31.3686 146.776C-32.3506 141.866 -33.2434 137.759 -33.9575 134.546V134.456C-33.779 134.278 -29.1369 132.314 -26.3695 131.064C-25.9232 130.886 -25.5661 130.707 -25.2983 130.529C-25.1197 130.439 -24.9412 130.35 -24.8519 130.261C-24.7626 130.35 -24.7626 130.439 -24.6733 130.529C-24.5841 130.707 -24.4948 130.796 -24.4055 130.975C-22.0845 134.367 -19.2278 138.92 -16.2819 144.544C-1.28445 173.557 -4.85528 193.018 3.17908 195.25C10.0529 197.124 16.1233 183.823 36.1199 164.808C47.9037 153.65 59.0625 145.705 67.3647 140.348C74.4171 179.092 81.4694 217.925 88.5218 256.757Z" fill="#BDD3DE"/>
<path d="M248.136 135.17C246.797 141.509 244.744 151.596 242.244 163.916C238.406 183.109 235.906 196.142 234.031 205.069C231.086 218.639 229.389 222.834 225.729 225.334C225.64 225.423 225.461 225.512 225.372 225.602C215.642 231.672 199.216 223.816 184.933 214.264C172.881 206.23 162.347 196.856 158.598 193.464C160.562 202.481 162.526 211.497 164.49 220.513C162.883 221.138 161.187 221.763 159.49 222.477C156.455 223.727 153.331 225.066 150.117 226.405C144.493 228.905 139.137 231.404 134.048 233.993C134.316 220.067 135.209 204.891 136.994 188.554C138.958 170.968 141.815 154.81 145.029 140.259C153.777 145.794 165.472 154.096 177.97 165.612C197.698 183.823 204.572 196.41 210.91 194.357C219.213 191.589 212.874 167.933 228.14 142.937C228.854 141.776 229.568 140.616 230.371 139.455C231.978 137.134 233.496 135.17 234.835 133.653C235.728 132.582 236.531 131.689 237.156 131.064C237.781 131.332 238.495 131.6 239.12 131.867C242.066 133.028 245.012 134.099 247.958 135.26C248.047 135.081 248.136 135.081 248.136 135.17Z" fill="#BDD3DE"/>
<path opacity="0.36" d="M65.7592 213.729C65.7592 223.281 60.1351 245.331 56.3857 258.9L49.7797 259.346L55.6716 192.661C48.2621 199.356 13.8036 229.798 -5.83594 226.673C5.41217 213.907 28.1762 191.858 44.6913 187.662C67.4553 181.592 65.7592 199.356 65.7592 213.729Z" fill="url(#paint3_linear_3_16310)"/>
<path opacity="0.36" d="M225.731 225.245C225.642 225.334 225.464 225.423 225.374 225.513C215.644 231.583 199.218 223.727 184.935 214.175C172.883 206.141 162.349 196.767 158.6 193.375C160.564 202.391 162.528 211.408 164.492 220.424C162.885 221.049 161.189 221.674 159.493 222.388C154.672 214.264 144.942 195.696 150.119 186.68C156.011 176.503 210.645 214.532 225.731 225.245Z" fill="url(#paint4_linear_3_16310)"/>
</g>
<defs>
<linearGradient id="paint0_linear_3_16310" x1="12.5172" y1="178.633" x2="118.602" y2="178.633" gradientUnits="userSpaceOnUse">
<stop stop-color="#153E5C"/>
<stop offset="1" stop-color="#271C41"/>
</linearGradient>
<linearGradient id="paint1_linear_3_16310" x1="138.817" y1="126.431" x2="117.469" y2="192.077" gradientUnits="userSpaceOnUse">
<stop offset="0.1545" stop-color="#691B26"/>
<stop offset="0.5166" stop-color="#CD907F" stop-opacity="0.5"/>
</linearGradient>
<linearGradient id="paint2_linear_3_16310" x1="111.337" y1="217.047" x2="146.853" y2="217.047" gradientUnits="userSpaceOnUse">
<stop stop-color="#9776A6"/>
<stop offset="1" stop-color="#271C41"/>
</linearGradient>
<linearGradient id="paint3_linear_3_16310" x1="-5.88504" y1="222.819" x2="65.7588" y2="222.819" gradientUnits="userSpaceOnUse">
<stop stop-color="#153E5C"/>
<stop offset="0.9956" stop-color="#AAC0DC"/>
</linearGradient>
<linearGradient id="paint4_linear_3_16310" x1="148.715" y1="206.291" x2="225.736" y2="206.291" gradientUnits="userSpaceOnUse">
<stop stop-color="#153E5C"/>
<stop offset="0.9956" stop-color="#AAC0DC"/>
</linearGradient>
<clipPath id="clip0_3_16310">
<rect width="198.663" height="198.663" fill="white" transform="translate(0.579102 0.980469)"/>
</clipPath>
</defs>
</svg>
