<svg width="199" height="199" viewBox="0 0 199 199" fill="none" xmlns="http://www.w3.org/2000/svg">
<g clip-path="url(#clip0_3_15316)">
<rect width="198.663" height="198.663" transform="translate(0.157227 0.167969)" fill="#617AFF"/>
<path d="M129.763 133.126L142.923 133.102C144.831 133.1 146.719 132.722 148.481 131.99C150.243 131.258 151.844 130.186 153.191 128.836C154.539 127.485 155.607 125.882 156.335 124.119C157.063 122.355 157.436 120.465 157.434 118.557V118.557C157.426 114.706 155.889 111.015 153.161 108.296C150.433 105.578 146.736 104.054 142.885 104.061L129.725 104.084" fill="#FFE8D9"/>
<path d="M144.691 127.968L131.531 127.992L131.488 104.074H129.709L129.761 133.12L142.921 133.097C146.404 133.088 149.768 131.828 152.398 129.546C155.029 127.263 156.752 124.111 157.252 120.665C155.985 122.879 154.157 124.72 151.952 126.002C149.746 127.284 147.242 127.962 144.691 127.968V127.968Z" fill="#EABB9B"/>
<path d="M129.763 133.126L142.923 133.102C144.831 133.1 146.719 132.722 148.481 131.99C150.243 131.258 151.844 130.186 153.191 128.836C154.539 127.485 155.607 125.882 156.335 124.119C157.063 122.355 157.436 120.465 157.434 118.557V118.557C157.426 114.706 155.889 111.015 153.161 108.296C150.433 105.578 146.736 104.054 142.885 104.061L129.725 104.084" stroke="#323854" stroke-width="3.04497" stroke-linecap="round" stroke-linejoin="round"/>
<path d="M143.277 118.453C145.74 118.434 148.095 117.441 149.828 115.691C151.561 113.941 152.531 111.576 152.526 109.113L152.483 86.3568C152.431 58.7617 138.515 37.2804 99.5057 37.3517C63.9461 37.4183 46.6611 58.9425 46.6944 86.5519L46.7562 118.572C46.7562 118.572 117.466 118.653 143.277 118.453Z" fill="#FF6161"/>
<path d="M99.5048 44.5409C138.519 44.4695 152.43 65.9508 152.483 93.5459L152.511 109.389C152.511 109.299 152.511 109.213 152.511 109.118L152.468 86.3617C152.416 58.7666 138.499 37.2853 99.4905 37.3566C63.9309 37.4232 46.6459 58.9474 46.6792 86.5567V92.4183C47.2169 65.4465 64.5114 44.6075 99.5048 44.5409Z" fill="#FF8C80"/>
<path d="M143.277 118.453C145.74 118.434 148.095 117.441 149.828 115.691C151.561 113.941 152.531 111.576 152.526 109.113L152.483 86.3568C152.431 58.7617 138.515 37.2804 99.5057 37.3517C63.9461 37.4183 46.6611 58.9425 46.6944 86.5519L46.7562 118.572C46.7562 118.572 117.466 118.653 143.277 118.453Z" stroke="#323854" stroke-width="3.04497" stroke-linecap="round" stroke-linejoin="round"/>
<path d="M65.684 133.249L51.1538 133.278C49.2446 133.283 47.3532 132.913 45.5874 132.187C43.8217 131.461 42.2165 130.394 40.8634 129.047C39.5104 127.7 38.4361 126.1 37.7021 124.337C36.968 122.575 36.5886 120.685 36.5855 118.776V118.776C36.5792 114.924 38.1028 111.228 40.8214 108.5C43.5399 105.771 47.2308 104.234 51.0824 104.227L68.3959 104.193" fill="#FFE8D9"/>
<path d="M39.0667 115.032C39.0684 112.951 39.5195 110.895 40.3894 109.004C38.4965 111.086 37.25 113.674 36.8019 116.452C36.3537 119.23 36.7232 122.078 37.8654 124.65C39.0076 127.222 40.8731 129.406 43.2346 130.936C45.5961 132.466 48.3518 133.277 51.1657 133.269L65.696 133.24L66.0481 129.5H53.635C49.7851 129.512 46.0881 127.994 43.3564 125.281C40.6248 122.568 39.0819 118.882 39.0667 115.032V115.032Z" fill="#EABB9B"/>
<path d="M65.684 133.249L51.1538 133.278C49.2446 133.283 47.3532 132.913 45.5874 132.187C43.8217 131.461 42.2165 130.394 40.8634 129.047C39.5104 127.7 38.4361 126.1 37.7021 124.337C36.968 122.575 36.5886 120.685 36.5855 118.776V118.776C36.5792 114.924 38.1028 111.228 40.8214 108.5C43.5399 105.771 47.2308 104.234 51.0824 104.227L68.3959 104.193" stroke="#323854" stroke-width="3.04497" stroke-linecap="round" stroke-linejoin="round"/>
<path d="M43.042 113.633H43.1324C45.5013 113.629 47.7748 114.566 49.453 116.238C51.1312 117.91 52.0767 120.18 52.0818 122.549V123.315" fill="#FFE8D9"/>
<path d="M43.042 113.633H43.1324C45.5013 113.629 47.7748 114.566 49.453 116.238C51.1312 117.91 52.0767 120.18 52.0818 122.549V123.315" stroke="#323854" stroke-width="3.04497" stroke-linecap="round" stroke-linejoin="round"/>
<path d="M46.9946 184.214C48.422 211.334 70.8644 227.405 98.3405 227.353C125.817 227.301 148.211 211.177 149.52 184.019C141.056 175.427 121.273 169.408 98.2311 169.465C75.1892 169.522 55.4254 175.588 46.9946 184.214Z" fill="white"/>
<path d="M98.3262 220.588C72.9816 220.636 51.9189 206.966 47.6988 183.549C47.4561 183.777 47.223 184.024 46.9946 184.234C48.422 211.353 70.8644 227.425 98.3405 227.373C125.817 227.32 148.211 211.196 149.52 184.039C149.296 183.81 149.044 183.563 148.816 183.358C144.681 206.79 123.652 220.54 98.3262 220.588Z" fill="#EFEFEF"/>
<path d="M46.9946 183.348C48.5091 212.123 72.3213 229.175 101.475 229.12C130.628 229.064 154.389 211.956 155.778 183.141C146.797 174.024 125.807 167.638 101.358 167.699C76.9101 167.759 55.94 174.196 46.9946 183.348Z" stroke="#323854" stroke-width="3.23083" stroke-linecap="round" stroke-linejoin="round"/>
<path d="M99.8284 180.66L117.118 190.561L112.56 173.49C112.01 171.44 110.818 169.62 109.159 168.297C107.5 166.973 105.461 166.215 103.34 166.135C101.655 166.071 99.9505 166.041 98.2251 166.044C96.9357 166.044 95.5274 166.106 94.1429 166.187C91.8158 166.331 89.6132 167.287 87.92 168.89C86.2268 170.493 85.1506 172.64 84.8795 174.955L82.9146 191.67L99.8284 180.66Z" fill="white" stroke="#323854" stroke-width="3.04497" stroke-linecap="round" stroke-linejoin="round"/>
<path d="M98.3414 180.665H98.1606C95.768 180.665 93.473 179.717 91.7786 178.028C90.0841 176.339 89.1284 174.047 89.1208 171.654L89.0732 145.743L107.315 145.71L107.362 171.621C107.363 174.016 106.414 176.313 104.723 178.009C103.032 179.705 100.736 180.66 98.3414 180.665V180.665Z" fill="#FFE8D9"/>
<path d="M98.3414 180.665H98.1606C95.768 180.665 93.473 179.717 91.7786 178.028C90.0841 176.339 89.1284 174.047 89.1208 171.654L89.0732 145.743L107.315 145.71L107.362 171.621C107.363 174.016 106.414 176.313 104.723 178.009C103.032 179.705 100.736 180.66 98.3414 180.665V180.665Z" fill="#EABB9B"/>
<path d="M98.3414 180.665H98.1606C95.768 180.665 93.473 179.717 91.7786 178.028C90.0841 176.339 89.1284 174.047 89.1208 171.654L89.0732 145.743L107.315 145.71L107.362 171.621C107.363 174.016 106.414 176.313 104.723 178.009C103.032 179.705 100.736 180.66 98.3414 180.665V180.665Z" stroke="#323854" stroke-width="3.04497" stroke-linecap="round" stroke-linejoin="round"/>
<path d="M87.0171 68.6672C75.6983 68.6672 65.8212 75.6944 63.0332 85.7C62.05 89.2237 61.5554 92.8657 61.563 96.5239V104.512L55.73 115.279V120.988C55.7728 144.896 77.3445 164.784 103.555 165.045C130.199 165.312 148.416 145.681 148.369 121.464L148.321 96.3479C148.316 92.467 147.745 88.6076 146.627 84.8912C143.711 75.1901 133.829 68.6006 122.781 68.6006L87.0171 68.6672Z" fill="#FFE8D9"/>
<path d="M105.453 158.937C78.9574 158.675 57.0241 139.116 55.7871 115.165L55.73 115.27V120.979C55.7728 144.887 77.3445 164.774 103.555 165.036C123.809 165.236 139.191 153.927 145.385 137.845C137.559 150.658 123.328 159.113 105.453 158.937Z" fill="#EABB9B"/>
<path d="M61.7715 92.2236C61.6242 93.6128 61.5496 95.0087 61.5479 96.4057L61.7762 95.9823L61.7715 92.2236Z" fill="#EABB9B"/>
<path d="M61.545 96.528C61.545 96.4852 61.545 96.4424 61.545 96.4043L55.7119 107.171V113.123C55.7119 113.813 55.7405 114.493 55.7738 115.174L61.5497 104.512L61.545 96.528Z" fill="#EABB9B"/>
<path d="M87.0171 68.6672C75.6983 68.6672 65.8212 75.6944 63.0332 85.7C62.05 89.2237 61.5554 92.8657 61.563 96.5239V104.512L55.73 115.279V120.988C55.7728 144.896 77.3445 164.784 103.555 165.045C130.199 165.312 148.416 145.681 148.369 121.464L148.321 96.3479C148.316 92.467 147.745 88.6076 146.627 84.8912C143.711 75.1901 133.829 68.6006 122.781 68.6006L87.0171 68.6672Z" stroke="#323854" stroke-width="3.04497" stroke-linecap="round" stroke-linejoin="round"/>
<path d="M61.587 95.7197L61.6108 108.452C61.6108 116.916 58.856 119.304 55.792 119.314L55.6445 100.002" fill="#FF6161"/>
<path d="M61.587 95.7197L61.6108 108.452C61.6108 116.916 58.856 119.304 55.792 119.314L55.6445 100.002" stroke="#323854" stroke-width="3.04497" stroke-linecap="round" stroke-linejoin="round"/>
<path d="M86.8525 119.752C88.6288 119.752 90.0687 118.312 90.0687 116.536C90.0687 114.759 88.6288 113.319 86.8525 113.319C85.0762 113.319 83.6362 114.759 83.6362 116.536C83.6362 118.312 85.0762 119.752 86.8525 119.752Z" fill="#444A54"/>
<path d="M132.13 119.41C133.907 119.406 135.344 117.964 135.341 116.187C135.337 114.411 133.894 112.974 132.118 112.977C130.342 112.981 128.905 114.423 128.908 116.2C128.911 117.976 130.354 119.413 132.13 119.41Z" fill="#444A54"/>
<path d="M76.8818 106.896C80.7927 104.175 86.2784 102.776 93.6625 103.256" stroke="#323854" stroke-width="3.04497" stroke-linecap="round" stroke-linejoin="round"/>
<path d="M140.131 106.777C136.21 104.07 130.72 102.69 123.34 103.199" stroke="#323854" stroke-width="3.04497" stroke-linecap="round" stroke-linejoin="round"/>
<path d="M93.709 131.227C94.6772 134.488 96.6743 137.348 99.4021 139.38C102.13 141.413 105.442 142.508 108.843 142.503H109.529C112.93 142.495 116.238 141.387 118.958 139.345C121.678 137.302 123.664 134.434 124.62 131.17L93.709 131.227Z" fill="#444A54" stroke="#323854" stroke-width="3.04497" stroke-miterlimit="10"/>
<path d="M99.9929 180.756C99.8311 180.661 100.079 227.382 100.079 227.382Z" fill="#FFD371"/>
<path d="M99.9929 180.756C99.8311 180.661 100.079 227.382 100.079 227.382" stroke="#323854" stroke-width="3.04497" stroke-linecap="round" stroke-linejoin="round"/>
<path d="M100.585 68.6436L95.623 73.6297" stroke="#323854" stroke-width="3.04497" stroke-linecap="round" stroke-linejoin="round"/>
<path d="M95.4427 68.6533L90.4756 73.6395" stroke="#323854" stroke-width="3.04497" stroke-linecap="round" stroke-linejoin="round"/>
<path d="M109.171 134.733C107.34 134.737 105.538 135.2 103.932 136.08C102.327 136.961 100.967 138.23 99.979 139.772C102.591 141.555 105.681 142.505 108.843 142.498H109.528C112.69 142.493 115.777 141.531 118.382 139.739C117.388 138.2 116.024 136.936 114.415 136.061C112.806 135.187 111.003 134.73 109.171 134.733Z" fill="#FF6161"/>
<path d="M109.171 134.733C107.34 134.737 105.538 135.2 103.932 136.08C102.327 136.961 100.967 138.23 99.979 139.772C102.591 141.555 105.681 142.505 108.843 142.498H109.528C112.69 142.493 115.777 141.531 118.382 139.739C117.388 138.2 116.024 136.936 114.415 136.061C112.806 135.187 111.003 134.73 109.171 134.733Z" stroke="#323854" stroke-width="3.04497" stroke-linecap="round" stroke-linejoin="round"/>
<path d="M74.2886 121.055C72.7043 123.472 84.9936 132.631 86.5637 129.048C88.1337 125.466 75.8729 118.638 74.2886 121.055Z" fill="#FFF2EB"/>
<path d="M123.335 76.3703C127.141 72.8828 143.95 83.3309 142.366 92.2184C140.781 101.106 116.674 84.7772 123.335 77.1601" fill="#FFF2EB"/>
</g>
<defs>
<clipPath id="clip0_3_15316">
<rect width="198.663" height="198.663" fill="white" transform="translate(0.157227 0.167969)"/>
</clipPath>
</defs>
</svg>
