<svg width="200" height="199" viewBox="0 0 200 199" fill="none" xmlns="http://www.w3.org/2000/svg">
<g clip-path="url(#clip0_3_15272)">
<rect width="198.663" height="198.663" transform="translate(0.446289 0.167969)" fill="#FF7171"/>
<path d="M133.776 126.394L148.048 126.368C150.117 126.364 152.164 125.952 154.074 125.157C155.984 124.361 157.718 123.198 159.178 121.732C160.638 120.266 161.795 118.527 162.583 116.615C163.371 114.702 163.774 112.652 163.77 110.584V110.584C163.762 106.407 162.095 102.404 159.136 99.4553C156.177 96.5069 152.168 94.8545 147.991 94.8613L133.719 94.8872" fill="#FFE8D9"/>
<path d="M133.776 126.394L148.048 126.368C150.117 126.364 152.164 125.952 154.074 125.157C155.984 124.361 157.718 123.198 159.178 121.732C160.638 120.266 161.795 118.527 162.583 116.615C163.371 114.702 163.774 112.652 163.77 110.584V110.584C163.762 106.407 162.095 102.404 159.136 99.4553C156.177 96.5069 152.168 94.8545 147.991 94.8613L133.719 94.8872" stroke="#323854" stroke-width="3.30235" stroke-linecap="round" stroke-linejoin="round"/>
<path d="M149.338 192.11C154.736 192.069 159.08 187.543 159.07 181.981L158.869 75.6865C158.812 45.7589 144.168 22.4619 103.141 22.5393C65.7217 22.6115 47.5381 45.9498 47.5949 75.8981L47.7909 181.924C47.7909 184.661 48.8782 187.286 50.8136 189.222C52.7489 191.157 55.3738 192.244 58.1108 192.244C79.4729 192.249 128.435 192.26 149.338 192.11Z" fill="#FFD371"/>
<path d="M109.569 22.7198C107.505 22.5908 105.348 22.5185 103.119 22.5237C65.6992 22.5959 47.5156 45.9343 47.5724 75.8825L47.7891 181.924C47.7872 184.366 48.6515 186.73 50.2284 188.595C51.8052 190.46 53.9924 191.706 56.401 192.11L56.1946 82.2034C56.1327 49.4224 73.5888 23.7724 109.569 22.7198Z" fill="#FFDD99"/>
<path d="M158.87 75.6714C158.818 47.9007 146.212 25.8678 111.646 22.875C111.733 23.0328 111.778 23.2107 111.775 23.391C111.729 39.6809 109.396 56.0688 103.421 71.2906C100.47 78.819 96.9764 86.208 92.0693 92.6579C87.704 98.3751 82.5389 103.427 78.251 109.206V192.245C102.043 192.245 133.632 192.245 149.355 192.1C154.752 192.059 159.097 187.533 159.086 181.971L158.87 75.6714Z" fill="#F4BA5D"/>
<path d="M149.338 192.11C154.736 192.069 159.08 187.543 159.07 181.981L158.869 75.6865C158.812 45.7589 144.168 22.4619 103.141 22.5393C65.7217 22.6115 47.5381 45.9498 47.5949 75.8981L47.7909 181.924C47.7909 184.661 48.8782 187.286 50.8136 189.222C52.7489 191.157 55.3738 192.244 58.1108 192.244C79.4729 192.249 128.435 192.26 149.338 192.11Z" stroke="#323854" stroke-width="3.30235" stroke-linecap="round" stroke-linejoin="round"/>
<path d="M47.877 181.791C49.4249 211.203 73.7643 228.633 103.563 228.576C133.361 228.519 157.649 211.032 159.068 181.579C149.889 172.24 128.434 165.713 103.444 165.759C78.4547 165.805 57.0203 172.436 47.877 181.791Z" fill="white"/>
<path d="M103.547 221.238C76.0605 221.289 53.2175 206.465 48.6406 181.068C48.3775 181.315 48.1246 181.584 47.877 181.811C49.4249 211.222 73.7643 228.653 103.563 228.596C133.361 228.539 157.649 211.052 159.068 181.599C158.826 181.352 158.552 181.083 158.305 180.861C153.821 206.274 131.034 221.186 103.547 221.238Z" fill="#EFEFEF"/>
<path d="M47.877 181.791C49.4249 211.203 73.7643 228.633 103.563 228.576C133.361 228.519 157.649 211.032 159.068 181.579C149.889 172.24 128.434 165.713 103.444 165.759C78.4547 165.805 57.0203 172.436 47.877 181.791Z" stroke="#323854" stroke-width="3.30235" stroke-linecap="round" stroke-linejoin="round"/>
<path d="M103.518 195.418C119.483 195.387 133.569 186.042 142.104 171.76C131.629 168.003 118.156 165.759 103.461 165.784C88.7655 165.81 75.298 168.112 64.8389 171.904C73.4095 186.151 87.5219 195.444 103.518 195.418Z" fill="#FFE8D9" stroke="#323854" stroke-width="3.30235" stroke-linecap="round" stroke-linejoin="round"/>
<path d="M93.5587 168.169L93.502 140.068L113.29 140.026L113.342 168.127" fill="#FFE8D9"/>
<path d="M113.319 165.16L113.272 140.031L93.4893 140.067L93.5305 162.967C97.1373 166.775 105.094 166.491 113.319 165.16Z" fill="#EABB9B"/>
<path d="M113.342 168.127L113.29 140.026L93.502 140.068L93.5587 168.169" stroke="#323854" stroke-width="3.30235" stroke-linecap="round" stroke-linejoin="round"/>
<path d="M61.4912 165.02V173.194L61.5686 213.121C66.2904 217.69 71.8472 221.307 77.9359 223.776L77.8327 168.292L77.8018 152.115" fill="#FFD371"/>
<path d="M77.8461 168.292L77.9493 223.777C71.8606 221.308 66.3039 217.69 61.582 213.121C63.13 210.872 69.162 215.903 72.1599 207.678C76.3291 196.238 77.454 170.851 77.8461 168.292Z" fill="#F4BA5D"/>
<path d="M61.4912 165.02V173.194L61.5686 213.121C66.2904 217.69 71.8472 221.307 77.9359 223.776L77.8327 168.292L77.8018 152.115" stroke="#323854" stroke-width="3.30235" stroke-linecap="round" stroke-linejoin="round"/>
<path d="M67.5775 126.517L51.8191 126.548C47.642 126.555 43.6331 124.903 40.6741 121.954C37.7151 119.006 36.0483 115.003 36.0401 110.826C36.0332 106.649 37.6857 102.64 40.634 99.6809C43.5824 96.7219 47.5852 95.0551 51.7624 95.0469L70.5393 95.0107" fill="#FFE8D9"/>
<path d="M38.7205 106.76C38.7174 104.504 39.2014 102.274 40.1394 100.223C38.0865 102.481 36.7347 105.287 36.2487 108.3C35.7626 111.313 36.1634 114.402 37.4021 117.191C38.6408 119.981 40.664 122.349 43.2251 124.009C45.7863 125.668 48.7749 126.547 51.8267 126.538L67.5851 126.507L67.9669 122.452H54.5047C50.332 122.46 46.3265 120.812 43.3673 117.87C40.4081 114.929 38.7369 110.933 38.7205 106.76V106.76Z" fill="#EABB9B"/>
<path d="M67.5775 126.517L51.8191 126.548C47.642 126.555 43.6331 124.903 40.6741 121.954C37.7151 119.006 36.0483 115.003 36.0401 110.826C36.0332 106.649 37.6857 102.64 40.634 99.6809C43.5824 96.7219 47.5852 95.0551 51.7624 95.0469L70.5393 95.0107" stroke="#323854" stroke-width="3.30235" stroke-linecap="round" stroke-linejoin="round"/>
<path d="M43.0342 105.248H43.1477C45.7168 105.244 48.1825 106.26 50.0025 108.074C51.8226 109.887 52.8481 112.349 52.8535 114.918V115.743" fill="#FFE8D9"/>
<path d="M43.0342 105.248H43.1477C45.7168 105.244 48.1825 106.26 50.0025 108.074C51.8226 109.887 52.8481 112.349 52.8535 114.918V115.743" stroke="#323854" stroke-width="3.30235" stroke-linecap="round" stroke-linejoin="round"/>
<path d="M89.7196 56.4817C78.2439 56.4817 68.2285 64.0978 65.4009 74.9491C64.4039 78.7821 63.9044 82.7274 63.9148 86.6879L57.9912 93.3958L58.0273 113.236C58.0738 139.164 79.9519 160.738 106.531 161.022C133.527 161.311 152.01 140.026 151.938 113.762L151.886 86.5228C151.882 82.3222 151.304 78.1418 150.168 74.0977C147.222 63.5611 137.201 56.4043 125.999 56.4043L89.7196 56.4817Z" fill="#FFE8D9"/>
<path d="M150.187 74.1029C147.22 63.5611 137.199 56.4043 125.997 56.4043L89.7173 56.4714C89.0259 56.4714 88.3396 56.5023 87.6533 56.5591C90.2333 80.5218 113.721 99.7477 141.915 100.016C145.263 100.049 148.608 99.8044 151.915 99.2833V86.5228C151.907 82.3234 151.325 78.1448 150.187 74.1029Z" fill="#EABB9B"/>
<path d="M108.44 154.381C81.5724 154.092 59.3331 132.874 58.0792 106.909L58.0225 107.023V113.215C58.0689 139.143 79.947 160.717 106.526 161.001C127.062 161.223 142.645 148.957 148.93 131.517C140.994 145.407 126.567 154.577 108.44 154.381Z" fill="#EABB9B"/>
<path d="M64.1391 82.0234C63.9912 83.5164 63.9155 85.0282 63.9121 86.559L64.1443 86.0998L64.1391 82.0234Z" fill="#EABB9B"/>
<path d="M89.7196 56.4817C78.2439 56.4817 68.2285 64.0978 65.4009 74.9491C64.4039 78.7821 63.9044 82.7274 63.9148 86.6879L57.9912 93.3958L58.0273 113.236C58.0738 139.164 79.9519 160.738 106.531 161.022C133.527 161.311 152.01 140.026 151.938 113.762L151.886 86.5228C151.882 82.3222 151.304 78.1418 150.168 74.0977C147.222 63.5611 137.201 56.4043 125.999 56.4043L89.7196 56.4817Z" stroke="#323854" stroke-width="3.30235" stroke-linecap="round" stroke-linejoin="round"/>
<path d="M89.8853 111.605C91.8117 111.602 93.3704 110.037 93.3667 108.11C93.363 106.184 91.7983 104.625 89.8719 104.629C87.9455 104.633 86.3868 106.197 86.3905 108.124C86.3942 110.05 87.9589 111.609 89.8853 111.605Z" fill="#444A54"/>
<path d="M138.728 111.511C140.654 111.508 142.213 109.943 142.209 108.017C142.206 106.09 140.641 104.532 138.715 104.535C136.788 104.539 135.23 106.104 135.233 108.03C135.237 109.957 136.802 111.515 138.728 111.511Z" fill="#444A54"/>
<path d="M78.8047 97.9363C83.0461 94.9848 88.9956 93.4678 97.0038 93.9889" stroke="#323854" stroke-width="3.30235" stroke-linecap="round" stroke-linejoin="round"/>
<path d="M147.378 97.8069C143.127 94.8709 137.172 93.3745 129.169 93.9266" stroke="#323854" stroke-width="3.30235" stroke-linecap="round" stroke-linejoin="round"/>
<path d="M97.0537 124.325C98.1038 127.861 100.27 130.963 103.228 133.167C106.186 135.371 109.778 136.559 113.467 136.554H114.21C117.9 136.545 121.487 135.344 124.437 133.128C127.387 130.913 129.541 127.803 130.578 124.263L97.0537 124.325Z" fill="#444A54" stroke="#323854" stroke-width="3.30235" stroke-miterlimit="10" stroke-linecap="round"/>
<path d="M89.28 39.377L90.0127 52.7928C90.1838 58.4152 89.2255 64.0148 87.1945 69.2603C85.1636 74.5058 82.1011 79.2907 78.1884 83.3319C74.2757 87.3731 69.5921 90.5884 64.4149 92.7878C59.2377 94.9871 53.672 96.1257 48.047 96.1362H47.6084V88.2621" fill="#FFD371"/>
<path d="M90.0127 52.7928L89.28 39.377L84.8476 47.1168C86.9941 86.3736 47.6084 96.1362 47.6084 96.1362H48.047C53.672 96.1257 59.2377 94.9871 64.4149 92.7878C69.5921 90.5884 74.2757 87.3731 78.1884 83.3319C82.1011 79.2907 85.1636 74.5058 87.1945 69.2603C89.2255 64.0148 90.1838 58.4152 90.0127 52.7928Z" fill="#F4BA5D"/>
<path d="M89.28 39.377L90.0127 52.7928C90.1838 58.4152 89.2255 64.0148 87.1945 69.2603C85.1636 74.5058 82.1011 79.2907 78.1884 83.3319C74.2757 87.3731 69.5921 90.5884 64.4149 92.7878C59.2377 94.9871 53.672 96.1257 48.047 96.1362H47.6084V83.6182" stroke="#323854" stroke-width="3.30235" stroke-linecap="round" stroke-linejoin="round"/>
<path d="M158.903 94.7577L158.867 75.666C158.81 45.7384 144.166 22.4413 103.14 22.5187C89.1046 22.5445 85.5958 32.7664 86.7362 45.5269C89.2129 73.7362 113.428 95.0622 141.741 94.8713L158.903 94.7577Z" fill="#FFD371"/>
<path d="M100.583 26.9199C111.125 28.0293 121.006 30.9085 130.438 36.2955C156.408 51.1303 158.864 75.6709 158.864 75.6709C158.807 45.7433 144.164 22.4462 103.137 22.5236C98.1164 22.5236 94.4477 23.8549 91.8574 26.1356C94.7418 26.3678 97.6675 26.6155 100.583 26.9199Z" fill="#FFDD99"/>
<path d="M99.6799 66.3882C93.875 61.1302 89.4839 54.9899 87.002 48.0137C90.6191 74.9795 114.246 95.0671 141.702 94.8761L158.88 94.7575L158.849 77.3737C138.477 83.0186 115.965 81.1714 99.6799 66.3882Z" fill="#F4BA5D"/>
<path d="M158.903 94.7577L158.867 75.666C158.81 45.7384 144.166 22.4413 103.14 22.5187C89.1046 22.5445 85.5958 32.7664 86.7362 45.5269C89.2129 73.7362 113.428 95.0622 141.741 94.8713L158.903 94.7577Z" stroke="#323854" stroke-width="3.30235" stroke-linecap="round" stroke-linejoin="round"/>
<path d="M113.834 128.127C111.848 128.131 109.895 128.633 108.153 129.588C106.411 130.543 104.937 131.919 103.865 133.591C106.698 135.525 110.049 136.555 113.478 136.548H114.221C117.651 136.543 120.998 135.499 123.824 133.555C122.746 131.887 121.267 130.515 119.521 129.567C117.776 128.619 115.821 128.123 113.834 128.127Z" fill="#FF6161"/>
<path d="M113.834 128.127C111.848 128.131 109.895 128.633 108.153 129.588C106.411 130.543 104.937 131.919 103.865 133.591C106.698 135.525 110.049 136.555 113.478 136.548H114.221C117.651 136.543 120.998 135.499 123.824 133.555C122.746 131.887 121.267 130.515 119.521 129.567C117.776 128.619 115.821 128.123 113.834 128.127Z" stroke="#323854" stroke-width="3.30235" stroke-linecap="round" stroke-linejoin="round"/>
<path d="M148.694 76.7504C130.237 78.5873 109.422 69.6606 99.6748 57.3232C101.507 59.5265 132.755 75.8887 148.694 76.7504Z" fill="#F4BA5D"/>
<path d="M77.3274 113.292C75.6091 115.914 88.9372 125.846 90.64 121.961C92.3427 118.076 79.0456 110.671 77.3274 113.292Z" fill="#FFF2EB"/>
</g>
<defs>
<clipPath id="clip0_3_15272">
<rect width="198.663" height="198.663" fill="white" transform="translate(0.446289 0.167969)"/>
</clipPath>
</defs>
</svg>
