<svg width="200" height="200" viewBox="0 0 200 200" fill="none" xmlns="http://www.w3.org/2000/svg">
<g clip-path="url(#clip0_3_15171)">
<rect width="198.663" height="198.663" transform="translate(0.868164 0.395996)" fill="#FFF738"/>
<path d="M7.8193 210.669C7.90884 207.087 7.95361 203.55 8.04315 200.014C8.53563 172.928 21.6981 149.647 39.651 134.649C50.9331 133.933 62.2599 133.53 73.5868 133.619C92.256 133.754 111.462 133.888 130.042 137.022C130.311 137.29 130.624 137.559 130.893 137.872C145.935 153.721 155.069 177.046 157.531 202.7C158.068 208.341 158.337 214.116 158.203 219.936C157.173 274.466 156.098 328.997 155.069 383.572L141.638 383.169L31.4132 379.9C30.6521 378.781 29.891 377.707 29.1747 376.632C26.1303 371.349 22.5935 366.335 19.9521 361.813C15.9228 354.874 12.0725 347.711 7.95363 340.816C7.19254 338.801 6.38663 336.831 5.44646 334.951C5.536 330.743 5.62558 326.579 5.71512 322.371C6.38668 285.122 7.10298 247.873 7.8193 210.669Z" fill="#FE4E4E"/>
<path d="M48.6934 95.2964C50.0365 93.4608 51.8721 92.0281 53.5286 90.5059C58.9011 85.7155 59.6621 82.8054 60.9604 75.687C63.3333 62.4797 68.6162 59.704 81.9578 56.1672C93.9114 52.9885 107.701 50.347 118.49 55.5851C120.415 52.0035 127.22 52.1378 128.205 57.3312C129.504 64.1362 144.815 64.181 149.695 68.6581C153.59 72.1949 155.381 76.9406 154.083 82.1339C152.292 89.1628 148.307 92.6101 151.352 100.49C153.366 105.683 155.023 110.876 152.784 116.383C147.636 129.098 132.414 127.934 121.311 127.486C104.388 126.859 89.2552 129.949 72.2425 128.023C60.065 126.636 47.798 124.352 45.2908 111.682C44.2164 105.952 45.1566 100.042 48.6934 95.2964Z" fill="#23355F"/>
<path d="M118.85 72.822C133.624 63.1516 137.743 64.4051 140.25 70.7177C142.757 77.0303 140.608 80.7463 128.923 87.1036C117.238 93.461 118.85 72.822 118.85 72.822Z" fill="#F7ACA9"/>
<path d="M78.8245 64.7633C79.1826 64.629 79.5408 64.5395 79.8989 64.4052C84.5102 62.9725 89.0768 61.5399 93.509 59.6595C102.239 55.9883 110.701 51.7352 118.983 47.2134C120.998 48.4222 122.744 50.213 124.445 52.8097C127.042 56.7942 131.071 58.7641 130.892 63.9127L129.818 94.7146C129.504 104.161 123.729 112.085 115.67 115.712C114.506 121.487 113.298 127.218 112.133 132.993C110.029 143.29 97.0459 148.573 87.8232 145.708C78.9587 142.932 74.6608 135.142 74.5713 126.77C78.0634 114.279 79.1826 101.475 79.3169 88.402C79.4512 81.5074 80.1676 72.5981 78.8245 64.7633Z" fill="#F7ACA9"/>
<path d="M107.748 39.1548H107.793C121.001 39.6025 131.342 50.7055 130.895 63.9127L130.76 67.4048C125.254 55.1378 113.479 50.4369 107.748 39.1548Z" fill="#23355F"/>
<path d="M79.8996 69.9116C78.2431 69.4191 76.4522 69.1057 74.5271 68.2551L74.7062 61.8977C75.1539 48.6904 86.2569 38.3485 99.4641 38.7962L107.791 39.0648C115.895 39.3335 122.834 43.6314 126.953 49.944C112.806 59.7039 96.7779 67.0463 79.8996 69.9116Z" fill="#23355F"/>
<path d="M87.1063 73.4933C72.3321 63.823 68.2132 65.0765 65.7061 71.3891C63.199 77.7017 65.348 81.4177 77.033 87.775C88.718 94.1324 87.1063 73.4933 87.1063 73.4933Z" fill="#F7ACA9"/>
<path d="M83.3468 81.7315C81.2874 77.5231 77.7505 74.434 73.4078 72.7775C72.199 72.3298 71.5723 74.2549 72.7811 74.7026C76.6761 76.18 79.7204 79.0006 81.556 82.6717C82.0932 83.8805 83.9288 82.8956 83.3468 81.7315Z" fill="#23355F"/>
<path d="M112.851 77.6567C112.134 76.5822 110.299 77.5224 111.06 78.6417C113.074 81.5517 117.193 89.2075 110.881 90.2819C109.582 90.5058 110.075 92.4757 111.373 92.2518C114.015 91.8041 115.805 89.6104 116.253 87.0137C116.79 83.5216 114.731 80.3877 112.851 77.6567Z" fill="#23355F"/>
<path d="M115.672 115.935C109.807 116.249 103.942 116.159 98.0774 115.711C96.779 115.622 96.8237 117.637 98.1221 117.771C103.987 118.219 109.852 118.308 115.717 117.995C117.015 117.905 116.97 115.89 115.672 115.935Z" fill="#23355F"/>
<path d="M97.1812 67.673C95.7933 67.9417 94.4054 68.2103 92.9727 68.4789C91.6744 68.7475 91.9878 70.7622 93.2861 70.4936C94.674 70.2249 96.0619 69.9563 97.4946 69.6877C98.7929 69.4191 98.4795 67.4044 97.1812 67.673Z" fill="#23355F"/>
<path d="M124.537 67.494L121.493 67.1358C120.194 67.0015 119.971 69.0162 121.269 69.1505L124.313 69.5086C125.612 69.6877 125.836 67.6731 124.537 67.494Z" fill="#23355F"/>
<path d="M123.328 74.3886C125.701 75.5079 123.955 79.179 121.582 78.0598C119.209 76.9405 120.955 73.2246 123.328 74.3886Z" fill="#23355F"/>
<path d="M97.0929 73.9856C99.4657 75.1049 97.7197 78.7761 95.3469 77.6568C92.9741 76.5376 94.7201 72.8664 97.0929 73.9856Z" fill="#23355F"/>
<path d="M131.25 75.418C132.056 74.5226 132.817 73.6272 133.623 72.687C134.474 71.7021 135.907 73.1347 135.056 74.1196C134.25 75.015 133.489 75.9105 132.683 76.8506C131.832 77.8356 130.4 76.4029 131.25 75.418Z" fill="#23355F"/>
<path d="M76.0943 31.1855C79.5416 26.3951 85.9438 26.3055 90.4208 29.7081C95.0769 33.2449 97.6288 39.1546 99.4644 44.5718C101.031 49.1384 96.1066 51.7798 92.5698 50.3919C87.2421 50.3024 81.6906 49.6308 77.7061 45.7358C73.7663 41.8856 72.8261 35.7521 76.0943 31.1855Z" fill="#23355F"/>
<path d="M96.597 94.983C97.2238 98.2512 99.5966 100.803 102.775 101.609C104.029 101.922 103.492 103.892 102.238 103.579C98.3877 102.594 95.3881 99.4153 94.627 95.5202C94.4032 94.2219 96.3732 93.6847 96.597 94.983Z" fill="#23355F"/>
<path d="M115.941 145.931C120.462 137.872 147.235 129.5 149.25 130.217C218.375 155.109 273.487 209.191 260.549 265.154C259.116 271.467 256.877 277.421 254.057 282.973C237.313 272.9 221.733 261.08 205.168 250.738C205.213 250.022 205.302 249.306 205.302 248.5C205.481 234.263 187.528 216.713 166.262 202.61C148.578 190.925 128.655 181.658 115.045 178.792C117.328 169.704 111.285 154.258 115.941 145.931Z" fill="#FE4E4E"/>
<path d="M40.8613 129.367C41.3985 129.188 57.1576 138.187 57.6948 138.008C69.8276 153.364 63.6493 161.646 71.8423 179.375C70.9021 179.644 69.9171 179.913 68.8874 180.136C52.8149 183.405 27.6541 195.806 7.95514 210.67C-8.16216 222.802 -20.6083 236.547 -21.5932 248.232C-39.0536 257.455 -56.7379 266.23 -74.5117 274.825C-75.4518 272.139 -76.3025 269.408 -76.9293 266.543C-90.3156 208.789 -31.3084 153.095 40.8613 129.367Z" fill="#FE4E4E"/>
<path d="M138.459 126.635C142.085 127.755 145.712 128.963 149.249 130.262C145.712 133.082 141.996 135.634 138.101 137.873C126.058 144.857 112.403 148.886 98.4791 149.423C94.0916 149.602 89.6146 149.423 85.2271 148.886C84.9585 148.841 84.6451 148.841 84.3765 148.797C69.8709 146.827 56.1265 141.051 44.5758 132.321C43.3222 131.381 42.0686 130.396 40.8598 129.366C91.6293 116.607 132.818 124.845 138.459 126.635Z" fill="#F7ACA9"/>
<path d="M5.40387 208.475C13.9102 202.431 22.9985 197.462 32.6241 193.477C33.8329 192.985 34.3702 194.955 33.1614 195.447C23.7149 199.387 14.8055 204.356 6.4335 210.266C5.35902 210.982 4.32939 209.236 5.40387 208.475Z" fill="#23355F"/>
<path d="M109.673 135.007C110.479 131.963 112.941 119.651 113.703 116.607C114.016 115.353 115.986 115.89 115.672 117.144C114.867 120.188 112.404 132.5 111.643 135.544C111.33 136.843 109.36 136.305 109.673 135.007Z" fill="#23355F"/>
</g>
<defs>
<clipPath id="clip0_3_15171">
<rect width="198.663" height="198.663" fill="white" transform="translate(0.868164 0.395996)"/>
</clipPath>
</defs>
</svg>
