<svg width="199" height="200" viewBox="0 0 199 200" fill="none" xmlns="http://www.w3.org/2000/svg">
<g clip-path="url(#clip0_3_15084)">
<rect width="198.663" height="198.663" transform="translate(0.157227 0.395996)" fill="#3562FF"/>
<path d="M83.8996 75.6885C82.8199 73.2998 79.759 73.9488 78.4627 75.6137C78.2928 75.7979 78.1772 75.9973 78.0073 76.1815C76.124 74.5527 72.5281 75.2256 72.7109 78.2901C74.2436 99.0591 52.5746 103.012 39.4968 90.8294C32.3507 84.1912 26.8441 76.3319 18.9947 70.3079C5.03846 59.5595 -15.0432 51.1509 -33.0128 55.0975C-46.279 57.9862 -58.4549 69.8146 -56.3739 84.1313C-54.4929 96.8853 -42.6064 103.983 -31.5347 108.997C-43.5411 122.496 -39.1753 143.827 -23.4625 153.561C-5.79838 164.479 14.5836 158.659 29.6521 146.772C30.6815 154.072 35.7945 160.43 43.614 162.853C54.827 166.342 83.9999 163.449 91.4752 155.345C110.14 134.962 94.6989 99.9812 83.8996 75.6885Z" fill="#FE4E4E"/>
<path d="M215.636 269.92C215.311 269.648 215.04 269.392 214.805 269.205C214.731 269.066 214.603 268.912 214.438 268.688C212.973 266.794 211.214 265.104 209.68 263.248C206.611 259.536 203.713 255.642 201.022 251.636C199.659 249.599 198.418 247.54 197.107 245.518C197.033 245.379 196.942 245.294 196.905 245.225C196.772 244.894 196.548 244.478 196.266 243.869C194.146 239.511 192.026 235.152 190.237 230.659C188.752 226.898 187.421 223.008 186.25 219.166C186.495 219.705 185.01 214.198 184.925 213.707C184.414 211.343 184.026 208.957 183.638 206.572C183.123 203.449 181.949 193.613 180.848 189.734C160.509 203.312 143.541 226.569 126.127 243.758C133.148 266.052 144.301 286.964 159.662 304.889C176.589 324.563 196.68 338.143 218.514 351.722C220.523 352.964 222.516 354.259 224.456 355.538C236.08 338.478 247.47 321.231 260.426 305.152C245.02 293.963 229.086 282.21 215.636 269.92Z" fill="#FFF8E6"/>
<path d="M165.682 300.985C165.653 287.81 164.57 274.665 165.44 261.589C165.459 260.546 165.548 259.466 165.568 258.424C164.984 244.382 165.351 229.288 175.352 219.449C176.152 210.313 177.022 201.14 177.663 191.955C172.626 176.503 162.825 162.635 149.945 153.075C147.104 155.999 143.72 158.409 140.116 159.995C128.491 165.147 115.497 164.757 103.351 161.712C94.0183 159.345 84.2897 154.995 76.983 148.35C53.5817 159.948 36.4566 182.829 36.5078 211.157C36.5523 234.822 29.0201 297.258 27.3291 304.9C73.2435 311.437 119.502 313.301 165.839 314.315C165.738 309.973 165.683 305.471 165.682 300.985Z" fill="#FFF8E6"/>
<path d="M163.043 194.834C162.146 193.789 160.695 195.287 161.556 196.262C168.587 204.34 167.59 215.834 159.415 222.566C158.374 223.424 159.821 224.934 160.795 224.115C169.793 216.693 170.757 203.714 163.043 194.834Z" fill="#23355F"/>
<path d="M59.8634 223.492C60.9701 215.889 66.5618 205.621 71.6628 195.258C73.1467 181.828 74.1399 168.304 76.2353 154.946C73.7152 151.042 71.0052 147.609 70.801 147.722C55.9422 152.341 41.2325 160.715 31.7087 166.994C2.93319 185.944 -19.8454 213.588 -33.0225 246.102C-45.9639 277.984 -49.369 313.538 -43.7838 347.768C-36.9126 345.197 -30.1541 342.413 -23.3052 339.717C-11.0814 334.867 1.61467 331.399 13.8455 326.728C13.8608 326.674 13.8384 326.549 13.8537 326.495C11.7449 270.33 20.6306 265.501 32.8724 247.529C40.3384 236.725 49.4335 229.724 59.8634 223.492Z" fill="#FFF8E6"/>
<path d="M63.7744 203.339C52.5415 215.852 42.5826 229.35 33.7919 243.8C33.1238 244.945 34.8733 246.078 35.5415 244.932C44.1806 230.612 54.0937 217.276 65.1751 204.892C66.0769 203.937 64.6762 202.383 63.7744 203.339Z" fill="#23355F"/>
<path d="M116.279 57.3336C115.467 54.9306 114.204 52.9251 112.667 51.3065C112.189 51.8116 111.75 52.3848 111.326 52.9042C112.635 54.2895 113.699 55.9542 114.354 57.8551C114.652 59.1425 116.698 58.596 116.279 57.3336Z" fill="#23355F"/>
<path d="M114.058 167.273C129.335 168.343 141.871 162.638 150.479 153.366C141.209 145.42 123.351 140.298 107.904 141.217C95.7831 141.943 84.0121 145.35 73.6643 150.914C81.8377 161.902 101.927 166.474 114.058 167.273Z" fill="#F7ACA9"/>
<path d="M129.581 144.49C128.891 138.496 128.254 132.515 127.564 126.521C134.135 120.477 137.157 110.909 134.506 101.65L125.912 71.2582C124.529 66.4097 121.854 62.3696 118.354 59.3235C112.738 66.0931 106.553 72.4165 99.9446 78.1601C93.7055 84.4689 86.724 90.1106 79.3621 95.0096C81.4204 100.565 82.8734 106.478 84.3517 111.178C88.2785 123.921 91.201 136.796 91.7931 150.08C94.4943 158.25 101.052 164.511 110.372 164.444C120.04 164.355 130.773 155.209 129.581 144.49Z" fill="#F7ACA9"/>
<path d="M81.5107 93.822C81.45 93.1733 105.825 83.6305 118.012 60.4866C112.247 54.5214 103.143 52.266 94.5981 54.7023L86.4471 56.9562C73.5485 60.589 66.1032 74.0143 69.8197 86.9087L71.0071 90.9631C74.7759 91.3357 78.2818 92.2708 81.5107 93.822Z" fill="#FE4E4E"/>
<path d="M84.5408 94.3753C67.0026 89.7078 63.328 92.1744 62.9118 99.0217C62.4956 105.869 65.7946 108.778 79.2641 111.249C92.6793 113.706 84.5408 94.3753 84.5408 94.3753Z" fill="#F7ACA9"/>
<path d="M83.5723 103.359C80.1576 100.052 75.6012 98.2126 70.7841 98.056C69.394 97.9999 69.505 100.054 70.8401 100.097C75.1342 100.239 79.0849 101.931 82.1278 104.867C83.1191 105.783 84.5636 104.276 83.5723 103.359Z" fill="#23355F"/>
<path d="M121.981 82.357C120.928 81.5514 119.515 83.0195 120.554 83.8792C123.419 86.101 129.844 92.2939 124.021 95.2862C122.832 95.8896 123.915 97.6866 125.104 97.0831C127.496 95.8221 128.532 93.153 128.144 90.4454C127.63 86.8941 124.646 84.4667 121.981 82.357Z" fill="#23355F"/>
<path d="M127.324 125.377C121.584 127.257 115.725 128.709 109.826 129.867C108.486 130.091 109.126 132.074 110.412 131.836C116.365 130.692 122.17 129.226 127.91 127.346C129.184 126.934 128.598 124.965 127.324 125.377Z" fill="#23355F"/>
<path d="M106.955 80.6071C105.771 81.3843 104.519 82.2007 103.336 82.9778C102.22 83.7156 103.309 85.5033 104.424 84.7655C105.608 83.9884 106.859 83.1719 108.043 82.3948C109.159 81.6571 108.07 79.8694 106.955 80.6071Z" fill="#23355F"/>
<path d="M126.309 71.5045L123.294 72.373C121.985 72.7162 122.565 74.6959 123.874 74.3527L126.889 73.4842C128.144 73.1268 127.564 71.1471 126.309 71.5045Z" fill="#23355F"/>
<path d="M123.455 106.626C123.17 109.683 119.887 112.194 116.768 111.446C113.649 110.698 111.906 106.948 113.063 104.116C113.565 102.88 111.73 101.894 111.229 103.131C109.584 107.145 111.751 112.371 116.301 113.431C120.85 114.491 125.165 110.938 125.611 106.614C125.732 105.279 123.615 105.359 123.455 106.626Z" fill="#23355F"/>
<path d="M114.035 85.862C113.289 84.7454 111.517 85.7677 112.264 86.8843C112.891 87.7969 112.74 89.2493 111.678 89.7711C110.67 90.3073 109.296 89.5982 108.995 88.5427C108.575 87.2832 106.592 87.7902 106.998 89.1034C107.693 91.2968 110.333 92.6862 112.512 91.6569C114.622 90.6669 115.384 87.7695 114.035 85.862Z" fill="#23355F"/>
<path d="M130.254 78.3187C129.507 77.2021 127.736 78.2244 128.483 79.3411C129.11 80.2537 128.959 81.7062 127.897 82.2281C126.889 82.7642 125.515 82.0551 125.214 80.9995C124.794 79.7399 122.811 80.247 123.217 81.5602C123.912 83.7538 126.552 85.1433 128.73 84.114C130.84 83.124 131.534 80.2657 130.254 78.3187Z" fill="#23355F"/>
<path d="M113.072 56.5521C113.746 56.3875 114.434 56.1689 115.122 55.9503C109.299 44.7765 92.3274 44.2894 82.3863 50.099C67.035 59.0702 75.6955 78.9911 76.64 92.6031C76.7466 93.9618 78.8168 93.9438 78.7102 92.5851C77.9325 80.9841 71.174 66.7817 78.6789 56.2077C85.7731 46.332 106.713 45.2333 113.072 56.5521Z" fill="#23355F"/>
<path d="M89.3517 105.641C88.3507 109.455 85.5858 112.513 82.1506 113.724C81.4584 113.942 80.7123 114.146 79.9943 114.242C78.8024 114.384 77.613 114.297 76.372 113.967C70.5448 112.414 66.2471 105.693 68.2013 100.005C70.5197 93.1499 75.7127 90.7396 81.5398 92.2922C87.3669 93.8449 90.8743 99.8381 89.3517 105.641Z" fill="#23355F"/>
<path d="M123.329 166.611C120.291 167.045 117.029 167.828 113.594 167.544C100.431 166.662 76.8575 160.959 70.8955 147.715C84.9659 142.899 99.0093 141.498 109.521 147.59C115.517 151.495 120.284 157.635 122.725 165.287C122.957 165.964 123.207 165.96 123.329 166.611Z" fill="#F7ACA9"/>
<path d="M63.6638 388.994C62.6367 389.819 61.1978 388.344 62.2398 387.464C78.9524 373.876 80.1996 351.003 78.7621 330.837C76.0294 293.376 73.6638 256.257 74.4775 218.637C75.2648 182.602 78.1568 146.641 83.0943 110.974C83.8078 110.884 84.536 110.74 85.2405 110.471C82.1933 132.354 79.907 154.397 78.4258 176.436C75.833 214.9 75.6795 253.476 77.9031 291.97C78.9883 310.678 82.119 329.68 81.2444 348.415C80.4968 363.707 75.6788 379.184 63.6638 388.994Z" fill="#97B1FE"/>
</g>
<defs>
<clipPath id="clip0_3_15084">
<rect width="198.663" height="198.663" fill="white" transform="translate(0.157227 0.395996)"/>
</clipPath>
</defs>
</svg>
