<svg width="199" height="199" viewBox="0 0 199 199" fill="none" xmlns="http://www.w3.org/2000/svg">
<g clip-path="url(#clip0_3_15816)">
<rect width="198.663" height="198.663" transform="translate(0.290039 0.187988)" fill="#E7FF57"/>
<path d="M256.313 275.089C255.982 274.675 255.65 274.178 255.319 273.764C248.283 264.659 239.923 254.726 230.073 243.137C228.003 240.654 225.934 238.336 223.947 236.018C223.45 235.439 222.954 234.942 222.457 234.363C199.114 208.537 179.744 195.292 173.122 190.988C165.672 186.104 158.637 182.048 152.097 178.654C151.601 178.406 151.104 178.158 150.607 177.909C145.061 175.095 139.929 172.694 135.459 170.791L137.363 156.47C137.363 156.47 131.32 155.56 122.629 154.318C118.573 153.739 113.937 153.076 109.136 152.414C108.557 152.331 107.895 152.249 107.315 152.166C95.3125 150.428 82.2339 148.606 73.0457 147.448C66.2581 146.537 61.457 146.04 60.7948 146.123C60.2153 149.269 59.6359 152.331 59.0565 155.477C52.2688 155.311 45.9778 155.394 40.4318 155.642C39.8524 155.642 39.3557 155.725 38.7763 155.725C25.2009 156.47 15.6817 158.126 12.4534 158.705C-2.61193 161.52 -20.4916 168.473 -37.378 176.419C-37.8747 176.668 -38.3713 176.916 -38.868 177.164C-57.4099 185.939 -74.7102 195.789 -85.9678 202.411C-86.4644 202.742 -86.9611 202.991 -87.4577 203.322C-89.0305 204.232 -90.5205 205.143 -91.7621 205.888C-105.337 214 -114.94 220.374 -125.7 228.982C-132.819 234.694 -140.186 241.233 -145.484 246.531C-145.898 246.945 -146.312 247.276 -146.643 247.69C-148.133 249.18 -149.457 250.587 -150.451 251.829C-174.621 279.807 -166.178 329.142 -162.95 344.952C-160.301 358.941 -157.569 374.172 -154.755 391.555C-154.589 392.3 -154.507 393.045 -154.341 393.873C-151.692 410.097 -148.878 428.142 -145.898 448.588C-126.363 445.443 -106.827 442.38 -87.2922 439.234C-88.3683 430.626 -89.4444 422.596 -90.4377 415.064C-90.5205 414.484 -90.6033 413.988 -90.686 413.408C-93.9971 388.327 -96.6459 369.123 -98.3842 356.624C-98.7153 354.306 -99.0464 352.071 -99.2948 349.836C-102.523 326.245 -104.013 313 -99.3776 302.322C-99.1292 301.743 -98.8809 301.163 -98.6326 300.667C-97.8876 299.094 -96.977 297.604 -95.901 296.114C-91.5966 290.071 -84.0639 285.105 -70.2403 277.075C-69.7436 276.744 -69.247 276.496 -68.7503 276.165C-66.1842 274.675 -63.3698 273.019 -60.3071 271.281C-48.3045 264.328 -37.9575 259.113 -30.5076 255.554C-41.0202 298.68 -51.5328 341.724 -62.0454 384.768C-61.5487 385.181 -61.0521 385.513 -60.721 385.761L-60.3071 386.092C-59.8104 386.506 -59.231 386.837 -58.7343 387.251C-58.0721 387.748 -57.4099 388.161 -56.7477 388.658C-56.1683 389.072 -55.5888 389.486 -55.0094 389.9L-54.7611 390.065C-53.7678 390.727 -52.7745 391.39 -51.7811 392.052C-51.2017 392.466 -50.5395 392.88 -49.9601 393.211C-46.7318 395.28 -43.3379 397.267 -39.8613 399.171C-39.0336 399.667 -38.2058 400.081 -37.378 400.495C-35.8881 401.323 -34.3153 402.151 -32.3287 403.061C-31.4181 403.475 -30.5904 403.889 -29.6798 404.303C-27.8588 405.213 -26.1205 405.958 -24.4649 406.621C-23.5544 407.034 -22.7266 407.366 -21.8161 407.779C-20.0778 408.524 -18.3394 409.187 -16.5184 409.849C-15.6078 410.18 -14.6973 410.511 -13.7868 410.842C-13.2073 411.09 -12.6279 411.256 -12.0485 411.504C-10.8896 411.918 -9.73069 412.332 -8.48905 412.663C-7.74406 412.912 -6.91632 413.16 -6.08856 413.408C-5.2608 413.657 -4.43303 413.905 -3.60527 414.153C-2.86028 414.402 -2.11528 414.567 -1.37029 414.815C-0.376978 415.064 0.616339 415.395 1.52688 415.643C2.18909 415.809 2.93408 415.974 3.59629 416.14C4.34128 416.305 5.08627 416.554 5.83126 416.719C8.149 417.299 10.5495 417.795 13.1983 418.292C13.9433 418.458 14.6883 418.54 15.5161 418.706C18.8272 419.285 22.221 419.782 25.532 420.196C26.9392 420.361 28.512 420.527 30.1675 420.693C33.5613 421.024 36.8724 421.272 40.1007 421.355C40.8457 421.355 41.5079 421.438 42.2529 421.438C43.2462 421.438 44.2395 421.52 45.2328 421.52C46.8884 421.52 48.3783 421.52 49.9511 421.52C52.1861 421.52 54.0899 421.438 55.911 421.355C56.4904 421.355 56.9871 421.272 57.5665 421.272C58.3943 421.189 59.3048 421.189 60.1326 421.106C64.5197 420.858 68.9897 420.361 73.294 419.782C74.1218 419.699 74.9496 419.534 75.7773 419.451C78.0951 419.12 80.4128 418.706 82.8961 418.209H83.0616C83.6411 418.126 84.2205 417.961 84.7999 417.878C85.4621 417.713 86.0416 417.63 86.7038 417.464C87.6144 417.299 88.4421 417.05 89.3526 416.885C89.601 416.802 89.8493 416.802 90.0976 416.719C90.8426 416.554 91.5876 416.305 92.4154 416.14C92.6637 416.057 92.912 415.974 93.0776 415.974C93.657 415.809 94.2365 415.643 94.8159 415.56C102.597 413.491 110.295 410.842 117.745 407.779L118.407 407.531C119.235 407.2 119.98 406.869 120.725 406.538C120.973 406.455 121.139 406.372 121.222 406.289C122.215 405.876 123.622 405.296 125.278 404.468C135.376 374.338 145.558 344.207 155.657 314.159C156.07 312.835 156.567 311.428 156.981 310.103C160.209 300.584 163.438 290.982 166.666 281.38C172.874 287.505 181.814 296.528 192.327 307.868C192.492 308.034 192.658 308.199 192.823 308.365C193.237 308.779 193.568 309.193 193.982 309.607C195.555 311.262 196.962 312.835 198.286 314.325C198.7 314.822 199.197 315.318 199.611 315.732C203.667 320.202 206.812 323.679 209.13 326.576C211.448 329.39 212.938 331.625 213.848 333.529C215.918 338.082 217.242 343.131 216.166 352.981C216.083 353.561 216.083 354.058 216.001 354.637C214.924 363.494 212.027 375.993 206.398 394.784C203.501 404.386 199.776 416.14 194.975 429.632C194.81 430.212 194.561 430.791 194.313 431.453C192.161 437.496 189.76 443.87 187.112 450.575C207.475 449.913 227.92 449.25 248.366 448.588C251.346 439.4 255.237 427.397 259.624 413.16C259.872 412.498 260.038 411.753 260.286 411.09C261.859 405.958 263.514 400.495 265.17 394.866C274.358 364.073 279.573 346.277 280.814 336.426C280.897 335.764 280.98 335.185 280.98 334.605C281.063 333.695 281.063 332.867 281.063 332.122C280.401 311.676 272.04 295.617 256.313 275.089Z" fill="#290060"/>
<path d="M-17.5106 316.228C-27.8577 341.972 -32.6587 377.152 -28.5199 404.799C-28.9338 404.634 -29.3476 404.385 -29.7615 404.22C-29.8443 404.137 -30.0099 404.137 -30.0927 404.054C-30.8376 399.253 -31.3343 394.204 -31.5826 388.906C-32.7415 364.57 -28.2716 338.495 -19.0834 315.566C-1.36926 271.529 -5.83916 255.305 -12.1302 232.79C-12.7924 230.306 -13.5374 227.823 -14.1996 225.091C-19.0834 206.467 -28.4371 189.994 -38.7842 176.998C-38.2875 176.75 -37.7909 176.502 -37.2942 176.253C-26.6161 189.912 -17.3451 206.881 -12.6268 224.678C-11.8818 227.326 -11.2196 229.893 -10.5574 232.376C-4.18361 255.222 0.36907 271.695 -17.5106 316.228Z" fill="#FFB800"/>
<path d="M33.8109 386.091C29.8377 400.329 25.8644 411.255 21.8911 419.616C21.3117 419.533 20.7323 419.45 20.1528 419.367C24.1261 411.09 28.1821 400.163 32.2382 385.595C51.7734 315.152 45.8135 250.255 41.4264 202.907C39.6881 183.703 38.1981 167.644 38.8603 155.642C39.3569 155.642 39.9364 155.559 40.5158 155.559C39.8536 167.396 41.3436 183.372 43.0819 202.742C47.4691 250.255 53.4289 315.318 33.8109 386.091Z" fill="#FFB800"/>
<path d="M117.249 243.468V243.717C115.014 288.747 105.909 321.527 98.6242 347.849C90.8433 375.911 85.2145 396.108 91.7538 416.14C91.2572 416.223 90.6777 416.388 90.181 416.554C83.6417 395.943 89.4361 374.834 97.0515 347.518C104.336 321.278 113.441 288.582 115.676 243.717V243.468C116.752 221.947 118.822 179.317 107.481 152.166C108.144 152.249 108.723 152.332 109.302 152.414C120.312 179.979 118.242 222.029 117.249 243.468Z" fill="#FFB800"/>
<path d="M152.76 261.679C154.084 276.413 155.574 292.389 156.899 309.855C156.485 311.179 155.988 312.587 155.492 313.911C154.167 294.873 152.594 277.572 151.104 261.762C147.379 221.036 144.731 192.809 150.69 177.827C151.187 178.075 151.684 178.323 152.18 178.572C146.469 193.14 149.035 221.119 152.76 261.679Z" fill="#FFB800"/>
<path d="M154.416 103.908C154.747 108.212 155.326 117.483 151.932 125.098C146.221 137.846 130.742 141.819 124.451 143.475L122.795 154.319C118.739 153.739 114.103 153.077 109.302 152.415C108.723 152.332 108.061 152.249 107.481 152.166C95.4788 150.428 82.4001 148.607 73.2119 147.448L74.6191 138.425C76.0263 137.018 77.3507 135.528 78.5924 134.121C79.834 132.714 80.9929 131.307 82.069 129.982C82.3173 129.651 82.5657 129.32 82.814 128.989C86.9528 123.691 90.0155 118.807 92.1677 114.917C92.3333 114.586 92.4988 114.255 92.6644 114.006C93.5749 112.351 94.4855 110.695 95.3132 109.04C95.396 108.874 95.4788 108.626 95.6443 108.378C97.0515 105.398 98.2932 102.335 99.2037 98.61C99.2865 98.2789 99.3693 97.865 99.452 97.5339C102.018 85.6969 99.5348 75.1843 97.1343 68.3966C98.8726 66.8239 100.776 65.2511 102.68 63.5956C106.902 60.0362 111.537 56.3941 116.504 52.8347C119.484 50.6825 122.381 48.6958 125.196 46.792C127.679 48.9442 129.914 51.2619 131.9 53.7452C131.9 53.7452 131.9 53.7452 131.983 53.828C135.791 58.4635 138.936 63.5128 141.751 68.2311C145.724 71.0455 149.697 73.9427 153.671 77.0054C156.651 79.2403 159.548 81.4753 162.362 83.6275C158.968 86.1936 155.574 88.7596 152.263 91.3257C152.263 91.3257 152.263 91.3257 152.263 91.2429C153.008 94.2229 154.084 98.61 154.416 103.908Z" fill="#FF1EAD"/>
<path d="M124.45 143.889C119.566 143.061 114.848 141.654 110.295 139.668C104.584 137.184 99.3686 133.873 94.6503 129.817C94.4848 129.652 94.4848 129.403 94.5676 129.238C94.6503 129.072 94.9814 129.072 95.147 129.155C99.7824 133.211 104.997 136.439 110.626 138.84C115.013 140.744 119.732 142.151 124.45 142.979C124.698 142.979 124.864 143.227 124.781 143.475C124.864 143.724 124.698 143.889 124.45 143.889Z" fill="black"/>
<path d="M123.623 45.5504C123.375 45.3021 123.044 45.1366 122.795 44.8882C122.713 44.8055 122.547 44.7227 122.464 44.6399C122.133 44.3916 121.719 44.1432 121.388 43.8949L121.305 43.8121C120.892 43.5638 120.478 43.2327 120.064 42.9844L119.981 42.9016C119.567 42.6533 119.153 42.4049 118.739 42.1566C118.657 42.0738 118.491 42.0738 118.408 41.9911C118.326 41.9911 118.326 41.9083 118.243 41.9083C117.994 41.7427 117.663 41.5772 117.415 41.4944C117.415 41.4944 117.332 41.4944 117.332 41.4116C117.249 41.4116 117.167 41.3288 117.167 41.3288C117.167 41.3288 117.084 41.3288 117.001 41.2461C116.753 41.0805 116.422 40.9977 116.091 40.8322H116.008C116.008 40.8322 116.008 40.8322 115.925 40.8322C115.677 40.6666 115.428 40.5839 115.097 40.5011C114.766 40.3355 114.352 40.17 114.021 40.0044C114.021 40.0044 114.021 40.0044 113.938 40.0044C113.938 40.0044 113.856 40.0044 113.856 39.9216C113.773 39.8389 113.524 39.8389 113.359 39.7561C112.283 39.3422 110.048 38.5972 107.482 38.0178C107.316 38.0178 107.151 37.935 106.985 37.935C106.737 37.8522 106.489 37.8522 106.157 37.7695C105.826 37.6867 105.495 37.6867 105.247 37.6039C104.171 37.4384 103.177 37.2728 102.101 37.1072C75.6957 33.7962 62.8653 48.1165 62.8653 48.1165C61.7064 49.3582 59.7198 51.8414 57.8987 55.7319C56.5743 58.3808 55.4154 61.7746 54.7532 65.8307C53.0977 62.2713 51.0283 59.9535 49.29 60.2019C49.1244 60.2019 48.4622 60.2846 48.2139 60.7813C47.4689 62.1057 50.5316 65.1684 53.5116 67.7345C47.3861 69.3073 43.3301 71.7906 43.3301 74.2739C43.3301 74.8533 43.5784 75.5155 44.1578 75.9294C45.9789 77.171 49.9522 74.4394 53.0977 71.8733C52.6838 72.5355 52.1872 73.1978 51.7733 73.9427C50.9455 75.2672 50.2005 76.7571 49.4556 78.4127C48.0484 81.5582 46.9722 85.2831 46.6411 89.4219C45.4823 105.232 55.9949 121.125 73.2952 129.982C73.709 132.88 74.2057 135.694 74.6196 138.591C76.0268 137.184 77.3512 135.694 78.5928 134.287C79.8345 132.88 80.9933 131.472 82.0694 130.148C82.3178 129.817 82.5661 129.486 82.8144 129.155C86.9533 123.857 90.016 118.973 92.1682 115.083C92.3337 114.752 92.4993 114.42 92.6648 114.172C93.5753 112.517 94.4859 110.861 95.3137 109.206C95.3964 109.04 95.4792 108.792 95.6448 108.543C97.052 105.563 98.2936 102.501 99.2042 98.7757C99.2869 98.4446 99.3697 98.0307 99.4525 97.6996C102.019 85.8626 99.5353 75.3499 97.1348 68.5623C98.8731 66.9895 100.777 65.4168 102.681 63.7613C106.902 60.2019 111.538 56.5597 116.504 53.0003C119.484 50.8481 122.382 48.8615 125.196 46.9576C124.617 46.3782 124.12 45.9643 123.623 45.5504Z" fill="black"/>
<path d="M135.876 79.9857C137.476 79.9857 138.773 78.6886 138.773 77.0886C138.773 75.4885 137.476 74.1914 135.876 74.1914C134.276 74.1914 132.979 75.4885 132.979 77.0886C132.979 78.6886 134.276 79.9857 135.876 79.9857Z" fill="black"/>
<path d="M127.975 69.9109C133.261 68.8358 137.288 66.6932 136.969 65.1253C136.65 63.5573 132.106 63.1579 126.82 64.233C121.534 65.3081 117.508 67.4507 117.826 69.0186C118.145 70.5865 122.689 70.986 127.975 69.9109Z" fill="black"/>
<path d="M152.349 99.7694L127.599 102.418C130.413 96.7067 144.402 94.7201 151.024 94.1406C151.521 95.9617 151.935 97.8656 152.349 99.7694Z" fill="black"/>
<path d="M146.139 114.752C139.848 114.752 135.626 107.551 135.543 107.468C135.46 107.302 135.46 107.054 135.709 106.888C135.874 106.806 136.123 106.806 136.288 107.054C136.536 107.468 142.331 117.318 150.36 112.765C150.526 112.683 150.774 112.683 150.94 112.931C151.022 113.097 151.022 113.345 150.774 113.51C149.118 114.421 147.546 114.752 146.139 114.752Z" fill="black"/>
<path d="M84.5522 129.072C94.884 129.072 103.26 120.697 103.26 110.365C103.26 100.033 94.884 91.6572 84.5522 91.6572C74.2203 91.6572 65.8447 100.033 65.8447 110.365C65.8447 120.697 74.2203 129.072 84.5522 129.072Z" fill="#FF1EAD"/>
<path d="M94.8981 117.235C94.8153 117.235 94.7325 117.235 94.7325 117.152C94.6497 117.07 92.2492 115.828 92.0009 113.345C91.8353 111.358 93.077 109.454 95.0636 108.544L77.7633 96.3755C77.5978 96.2099 77.515 95.9616 77.6806 95.7961C77.8461 95.6305 78.0945 95.5477 78.26 95.7133L96.2225 108.378C96.3881 108.461 96.388 108.626 96.388 108.792C96.388 108.958 96.2225 109.04 96.057 109.123C94.0703 109.62 92.6631 111.441 92.8287 113.262C92.9942 115.331 94.9808 116.407 95.0636 116.407C95.2292 116.49 95.312 116.739 95.2292 116.987C95.2292 117.152 95.0636 117.235 94.8981 117.235Z" fill="black"/>
</g>
<defs>
<clipPath id="clip0_3_15816">
<rect width="198.663" height="198.663" fill="white" transform="translate(0.290039 0.187988)"/>
</clipPath>
</defs>
</svg>
