<svg width="200" height="200" viewBox="0 0 200 200" fill="none" xmlns="http://www.w3.org/2000/svg">
<g clip-path="url(#clip0_3_15685)">
<rect width="198.663" height="198.663" transform="translate(0.868164 0.791992)" fill="#82ACFF"/>
<circle cx="115.43" cy="216.011" r="86.7497" fill="#23355F"/>
<path d="M190.011 153.051C187.693 147.257 182.892 144.111 180.409 142.787C182.064 141.794 184.63 139.89 186.7 136.662C191.335 129.543 189.68 121.845 189.183 119.941C187.445 112.987 182.727 109.097 180.574 107.276C174.697 102.475 168.406 101.482 165.84 101.233C172.793 90.8034 172.711 77.4764 165.84 68.1227C157.48 56.7823 143.408 56.8651 142.083 56.8651C141.835 54.6301 140.511 46.6836 133.889 41.5514C125.859 35.3432 113.277 35.6743 103.261 43.1242C102.102 41.6342 99.9502 39.1509 96.3908 37.6609C91.0103 35.3432 86.0438 36.7504 83.1466 37.4954C80.8288 38.1576 72.634 41.1375 67.6674 48.753C62.2869 57.0306 63.8597 65.8049 63.8597 65.8049C63.8597 65.8049 41.7584 56.9478 36.4607 83.7674C31.163 110.587 50.3671 112.905 50.3671 112.905C50.3671 112.905 20.7332 117.706 20.1537 137.655C19.4915 157.604 36.3779 163.398 36.3779 163.398C36.3779 163.398 18.8293 175.898 32.2391 189.638C39.5234 172.504 49.6222 155.121 69.3229 143.863C72.4684 142.042 75.2 140.8 76.9384 140.055C77.3522 142.042 80.5805 158.68 85.1332 182.023C86.8715 180.781 87.8648 179.954 87.8648 179.954C87.8648 179.954 85.3816 196.674 111.787 193.694C137.862 190.715 130.246 162.819 130.081 162.074C135.461 168.779 141.504 173.828 147.547 177.47C147.216 160.584 146.967 146.512 146.636 138.648C146.636 138.151 146.636 137.655 146.553 137.158C151.437 138.814 156.073 140.8 160.46 143.118C173.125 149.989 182.395 159.508 189.431 169.772C191.418 164.474 192.246 158.514 190.011 153.051Z" fill="black"/>
<path d="M141.506 82.0296C141.34 80.9535 141.009 79.1324 140.43 76.8975C140.016 75.4903 139.602 73.9175 138.94 72.1792C138.443 70.8548 137.864 69.5304 137.202 68.1232C132.897 68.2887 126.275 67.7921 119.819 63.9016C113.941 60.425 110.713 55.7895 109.14 53.1406C109.058 56.7 108.478 64.2327 105.002 73.007C102.436 79.4635 98.2968 86.5823 91.6746 93.4527C90.1019 95.1083 88.3636 96.681 86.4597 98.2538C86.2114 98.4193 86.0458 98.5849 85.7975 98.8332C84.9698 99.4954 84.142 100.158 83.2314 100.82C84.3075 103.22 85.7147 105.621 87.2875 107.856C87.8669 108.684 88.5291 109.511 89.1914 110.339L89.2741 111.084V111.25C89.2741 111.25 89.2741 111.25 89.2741 111.332C89.9363 115.223 90.5158 119.113 91.0952 123.004C91.6746 126.812 92.3369 130.619 92.9163 134.427C92.9163 134.593 92.9163 134.675 92.999 134.841C93.4129 135.42 93.9096 135.917 94.3235 136.496C94.489 136.331 94.7374 136.414 94.9029 136.579L126.358 175.153L125.034 136.414C125.034 136.165 125.199 136 125.447 136C125.447 134.841 125.365 133.682 125.282 132.523C125.199 130.205 125.116 127.888 125.034 125.653C125.034 125.404 125.034 125.073 125.034 124.825C125.116 124.825 125.199 124.742 125.365 124.742C125.613 124.659 125.861 124.577 126.11 124.411C130.248 122.673 133.394 119.776 135.794 116.216C137.284 113.981 138.443 111.581 139.354 108.932C142.665 100.075 142.83 89.645 141.506 82.0296Z" fill="#FFC800"/>
<path d="M129.169 98.253C129.087 98.253 129.004 98.2529 128.921 98.1702C128.756 98.0046 128.756 97.7563 128.838 97.5907L133.143 92.6242L123.375 83.7671C123.21 83.6015 123.21 83.3532 123.375 83.1876C123.541 83.0221 123.789 83.0221 123.955 83.1876L134.053 92.293C134.219 92.4586 134.219 92.7069 134.053 92.8725L129.501 98.1702C129.418 98.1702 129.252 98.253 129.169 98.253Z" fill="black"/>
<path d="M111.626 88.8173C109.804 88.8173 108.397 88.1551 108.066 87.9067C107.901 87.824 107.818 87.5756 107.901 87.3273C107.983 87.1618 108.232 87.079 108.48 87.1618C108.894 87.4101 111.212 88.569 113.778 87.5756C116.592 86.4995 117.42 83.7679 117.503 83.5196C117.585 83.2713 117.834 83.1885 117.999 83.2713C118.248 83.3541 118.33 83.6024 118.248 83.7679C118.082 84.3474 117.089 87.1618 113.943 88.4034C113.198 88.7345 112.371 88.8173 111.626 88.8173Z" fill="black"/>
<path d="M133.228 84.3476C130 84.3476 127.765 81.6987 127.765 81.616C127.599 81.4504 127.682 81.2021 127.848 81.0365C128.013 80.871 128.262 80.9538 128.427 81.1193C128.593 81.2849 132.235 85.672 136.87 82.1954C137.036 82.0298 137.284 82.1126 137.45 82.2782C137.615 82.4437 137.533 82.6921 137.367 82.8576C135.877 84.0165 134.47 84.3476 133.228 84.3476Z" fill="black"/>
<path d="M109.642 78.8528C112.353 77.7524 114.286 76.2079 113.959 75.403C113.632 74.5982 111.17 74.8378 108.459 75.9382C105.748 77.0386 103.815 78.5831 104.141 79.388C104.468 80.1928 106.931 79.9532 109.642 78.8528Z" fill="black"/>
<path d="M136.491 72.4918C136.533 71.6242 134.198 70.8061 131.276 70.6645C128.353 70.5229 125.95 71.1114 125.908 71.9789C125.866 72.8465 128.201 73.6646 131.123 73.8062C134.046 73.9478 136.449 73.3594 136.491 72.4918Z" fill="black"/>
<path d="M125.197 108.186C117.747 108.186 116.34 102.475 116.34 102.475C116.257 102.226 116.423 102.061 116.671 101.978C116.919 101.895 117.085 102.061 117.168 102.309C117.25 102.558 118.575 107.855 126.025 107.359C126.273 107.359 126.439 107.524 126.439 107.772C126.439 108.021 126.273 108.186 126.025 108.186C125.776 108.186 125.445 108.186 125.197 108.186Z" fill="black"/>
<path d="M119.901 126.314C119.239 126.314 118.659 126.314 117.997 126.231C112.782 125.734 108.892 123.582 106.574 121.761C106.408 121.596 106.326 121.347 106.491 121.182C106.657 121.016 106.905 120.933 107.071 121.099C109.306 122.837 113.03 124.907 118.08 125.403C121.143 125.652 124.371 125.238 127.268 124.162C127.516 124.079 127.682 124.162 127.765 124.41C127.847 124.658 127.765 124.824 127.516 124.907C125.116 125.817 122.467 126.314 119.901 126.314Z" fill="black"/>
<path d="M81.4927 94.197C80.996 94.197 80.4993 93.8659 80.3338 93.452C75.2844 81.0355 77.9333 67.1291 87.0387 58.0237C99.7862 45.3589 117.914 49.9944 118.742 50.1599C124.371 51.6499 129.586 54.7126 133.89 58.9342C134.387 59.4309 134.387 60.1759 133.89 60.6725C133.393 61.1692 132.648 61.1692 132.152 60.6725C128.179 56.6993 123.295 53.8849 118.163 52.5605C117.418 52.3949 100.614 48.0905 88.8597 59.762C80.4993 68.1224 78.0988 80.9528 82.7343 92.4587C82.9826 93.1209 82.6515 93.7831 82.0721 94.1142C81.8238 94.1142 81.6582 94.197 81.4927 94.197Z" fill="#FF0090"/>
<path d="M84.2248 112.491C90.2594 112.491 95.1513 107.599 95.1513 101.564C95.1513 95.5297 90.2594 90.6377 84.2248 90.6377C78.1903 90.6377 73.2983 95.5297 73.2983 101.564C73.2983 107.599 78.1903 112.491 84.2248 112.491Z" fill="#FFC800"/>
<path d="M89.0246 106.034C88.9418 106.034 88.9418 106.034 88.8591 106.034C87.4519 105.537 86.6241 104.792 86.4585 103.799C86.2102 102.475 87.2863 101.15 87.8658 100.571L80.8298 94.9419C80.6642 94.7764 80.5814 94.528 80.747 94.3625C80.9125 94.1969 81.1609 94.1141 81.3264 94.2797L88.6935 100.157C88.7763 100.24 88.8591 100.322 88.8591 100.488C88.8591 100.571 88.7763 100.736 88.6935 100.819C88.1969 101.233 87.038 102.557 87.2035 103.633C87.2863 104.296 87.9485 104.875 89.1074 105.206C89.3557 105.289 89.4385 105.537 89.3557 105.703C89.3557 105.951 89.1902 106.034 89.0246 106.034Z" fill="black"/>
<path d="M143.904 115.637C141.255 115.885 138.606 116.051 135.957 116.299C137.447 114.064 138.606 111.663 139.516 109.015C141.006 111.167 143.904 115.637 143.904 115.637Z" fill="#892BFF"/>
<path d="M89.2715 111.415C89.6854 111.084 89.9337 110.587 89.9337 110.008C90.0165 108.849 89.106 107.939 87.9471 107.856C86.7882 107.773 85.8777 108.684 85.7949 109.842C85.7949 110.587 86.126 111.25 86.7054 111.581C84.8016 115.554 81.2422 123.666 81.2422 123.666C81.2422 123.666 96.8869 123.004 96.473 122.673C96.3075 122.424 91.5892 115.057 89.2715 111.415Z" fill="#892BFF"/>
<path d="M148.705 287.894C148.705 286.9 148.705 285.907 148.705 284.914C148.622 277.712 148.539 269.517 148.457 260.66C148.457 259.501 148.457 258.425 148.457 257.266C148.374 249.486 148.291 241.291 148.208 232.93C148.208 231.689 148.208 230.447 148.125 229.205C148.043 220.1 147.877 210.912 147.794 201.972C147.794 200.647 147.794 199.323 147.712 197.999C147.629 189.804 147.463 181.857 147.38 174.573C147.38 173.166 147.298 171.841 147.298 170.517C147.132 161.246 146.967 153.051 146.718 146.594C146.636 145.27 146.636 143.946 146.636 142.787C146.553 141.131 146.553 139.724 146.47 138.4C146.47 137.903 146.47 137.406 146.387 136.91C139.682 134.675 132.646 133.185 125.362 132.522C125.445 133.681 125.445 134.84 125.528 135.999C125.279 135.999 125.114 136.165 125.114 136.413L126.438 175.152L94.983 136.579C94.8175 136.413 94.5691 136.413 94.4036 136.496C93.9897 135.999 93.493 135.42 93.0792 134.84C93.0792 134.675 92.9964 134.592 92.9964 134.426C90.927 134.923 88.8576 135.42 86.8709 136.082C84.1393 136.91 81.4905 137.82 78.8416 138.896C78.1794 139.145 77.5172 139.476 76.855 139.807C81.1594 161.908 89.3542 204.29 96.6386 241.705C96.8869 242.946 97.1352 244.105 97.3008 245.264C100.115 259.833 102.764 273.573 104.999 284.831C105.165 285.493 105.247 286.155 105.413 286.818C105.496 287.232 105.578 287.645 105.661 288.059C105.827 288.887 105.992 289.715 106.158 290.543C106.655 293.109 107.151 295.509 107.565 297.744C115.18 297.827 122.796 297.91 130.329 297.992C136.537 298.075 142.662 298.075 148.87 298.158C148.788 295.261 148.788 291.701 148.705 287.894Z" fill="#FF0090"/>
<path d="M86.2909 146.678C87.388 146.678 88.2775 145.788 88.2775 144.691C88.2775 143.594 87.388 142.705 86.2909 142.705C85.1937 142.705 84.3042 143.594 84.3042 144.691C84.3042 145.788 85.1937 146.678 86.2909 146.678Z" fill="#1F0D60"/>
<path d="M129.169 144.692C129.169 145.768 128.258 146.678 127.182 146.678C126.851 146.678 126.52 146.596 126.272 146.513C126.106 146.43 126.023 143.036 126.189 142.953C126.52 142.788 126.851 142.705 127.182 142.705C128.258 142.705 129.169 143.533 129.169 144.692Z" fill="#1F0D60"/>
<path d="M146.803 146.595C145.975 146.347 145.396 145.602 145.396 144.691C145.396 143.864 145.893 143.119 146.72 142.788C146.72 144.029 146.72 145.271 146.803 146.595Z" fill="#1F0D60"/>
<path d="M96.1414 159.426C97.2386 159.426 98.128 158.536 98.128 157.439C98.128 156.342 97.2386 155.453 96.1414 155.453C95.0442 155.453 94.1548 156.342 94.1548 157.439C94.1548 158.536 95.0442 159.426 96.1414 159.426Z" fill="#1F0D60"/>
<path d="M137.035 159.426C138.133 159.426 139.022 158.536 139.022 157.439C139.022 156.342 138.133 155.453 137.035 155.453C135.938 155.453 135.049 156.342 135.049 157.439C135.049 158.536 135.938 159.426 137.035 159.426Z" fill="#1F0D60"/>
<path d="M86.2909 174.574C87.388 174.574 88.2775 173.685 88.2775 172.588C88.2775 171.491 87.388 170.601 86.2909 170.601C85.1937 170.601 84.3042 171.491 84.3042 172.588C84.3042 173.685 85.1937 174.574 86.2909 174.574Z" fill="#1F0D60"/>
<path d="M106.491 174.574C107.588 174.574 108.478 173.685 108.478 172.588C108.478 171.491 107.588 170.601 106.491 170.601C105.394 170.601 104.504 171.491 104.504 172.588C104.504 173.685 105.394 174.574 106.491 174.574Z" fill="#1F0D60"/>
<path d="M129.171 172.587C129.171 173.663 128.343 174.574 127.267 174.574H127.184C127.101 174.574 126.936 174.574 126.853 174.574C126.687 174.574 126.604 170.6 126.687 170.6C126.853 170.6 126.936 170.518 127.101 170.518H127.184C128.26 170.518 129.171 171.428 129.171 172.587Z" fill="#1F0D60"/>
<path d="M147.383 174.574C146.224 174.574 145.396 173.664 145.396 172.588C145.396 171.512 146.224 170.601 147.383 170.601C147.3 171.843 147.383 173.25 147.383 174.574Z" fill="#1F0D60"/>
<path d="M96.638 189.308C97.7352 189.308 98.6246 188.419 98.6246 187.322C98.6246 186.224 97.7352 185.335 96.638 185.335C95.5408 185.335 94.6514 186.224 94.6514 187.322C94.6514 188.419 95.5408 189.308 96.638 189.308Z" fill="#1F0D60"/>
<path d="M116.835 189.308C117.932 189.308 118.822 188.419 118.822 187.322C118.822 186.224 117.932 185.335 116.835 185.335C115.738 185.335 114.849 186.224 114.849 187.322C114.849 188.419 115.738 189.308 116.835 189.308Z" fill="#1F0D60"/>
<path d="M137.53 189.308C138.627 189.308 139.516 188.419 139.516 187.322C139.516 186.224 138.627 185.335 137.53 185.335C136.432 185.335 135.543 186.224 135.543 187.322C135.543 188.419 136.432 189.308 137.53 189.308Z" fill="#1F0D60"/>
<path d="M106.491 202.056C107.588 202.056 108.478 201.166 108.478 200.069C108.478 198.972 107.588 198.083 106.491 198.083C105.394 198.083 104.504 198.972 104.504 200.069C104.504 201.166 105.394 202.056 106.491 202.056Z" fill="#1F0D60"/>
<path d="M127.182 202.056C128.28 202.056 129.169 201.166 129.169 200.069C129.169 198.972 128.28 198.083 127.182 198.083C126.085 198.083 125.196 198.972 125.196 200.069C125.196 201.166 126.085 202.056 127.182 202.056Z" fill="#1F0D60"/>
<path d="M147.797 201.973C147.631 201.973 147.548 202.056 147.383 202.056C146.307 202.056 145.396 201.145 145.396 200.069C145.396 198.993 146.307 198.083 147.383 198.083C147.548 198.083 147.631 198.083 147.797 198.083C147.797 199.324 147.797 200.649 147.797 201.973Z" fill="#1F0D60"/>
<path d="M127.348 176.477C127.348 176.643 127.265 176.809 127.099 176.891C127.016 176.891 127.016 176.891 126.934 176.891C126.851 176.891 126.685 176.809 126.603 176.726L94.3197 137.159C94.1542 136.993 94.237 136.745 94.4025 136.579C94.5681 136.414 94.8164 136.496 94.982 136.662L126.437 175.236V174.408L126.271 170.683L125.444 145.685L125.361 143.781L125.113 136.496C125.113 136.248 125.278 136.083 125.526 136.083C125.775 136.083 125.94 136.248 125.94 136.496L126.189 143.036L126.271 146.595L127.099 170.6L127.265 174.656L127.348 176.477Z" fill="#1F0D60"/>
<path d="M108.889 305.193L63.2793 301.882C60.1338 301.634 56.9883 301.468 53.8428 301.22C54.4222 295.343 55.0017 289.466 55.5811 283.589C55.5811 283.423 55.5811 283.34 55.5811 283.175C55.5811 283.009 55.5811 282.927 55.6639 282.761C57.0711 268.523 58.3955 254.286 59.8027 240.048C51.1112 259.666 35.8803 275.063 17.7523 282.761C17.4212 282.927 17.09 283.009 16.7589 283.175C16.4278 283.34 16.0967 283.423 15.7656 283.589C10.9646 285.493 5.99801 286.817 0.865877 287.562C0.700325 287.562 0.617548 287.562 0.451995 287.645C0.286443 287.645 0.203666 287.645 0.0381134 287.728C-0.955204 287.893 -1.94853 287.976 -2.94184 288.059C-2.94184 288.059 -40.3568 291.701 -69.9907 257.018C-68.2524 252.216 -66.5141 247.415 -64.693 242.614C-61.7131 235.578 -58.8159 228.542 -55.836 221.506C-55.836 221.506 -55.836 221.506 -55.9187 221.424C-25.7054 245.18 -8.65341 246.174 1.61086 241.869C17.7523 234.999 22.3877 212.567 32.1554 189.555C39.4397 172.42 49.5384 155.037 69.2392 143.779C72.3847 141.958 75.1163 140.717 76.8546 139.972C77.2685 141.958 80.4968 158.596 85.0495 181.939C88.3606 198.826 92.3338 219.271 96.3898 240.297C96.6382 241.456 100.198 259.749 104.667 282.844C104.667 283.009 104.75 283.092 104.75 283.258C104.75 283.423 104.833 283.506 104.833 283.672C105.33 286.403 105.909 289.218 106.489 292.032C107.151 296.336 108.061 300.723 108.889 305.193Z" stroke="#00DC99" stroke-width="1.68457" stroke-miterlimit="10" stroke-linecap="round" stroke-linejoin="round"/>
<path d="M252.092 316.782C240.504 322.99 228.915 329.199 217.326 335.407C217.326 335.407 217.243 335.407 217.243 335.49C214.512 328.785 211.78 322.163 209.048 315.458C208.966 315.292 208.966 315.21 208.883 315.044C208.8 314.878 208.8 314.796 208.717 314.63C204.496 304.283 200.274 294.019 196.053 283.754C195.97 283.589 195.97 283.506 195.887 283.341C195.804 283.175 195.804 283.092 195.721 282.927C190.01 269.02 184.381 255.114 178.67 241.29C179.663 255.197 180.573 269.103 181.567 282.927C181.567 283.092 181.567 283.175 181.567 283.341C181.567 283.506 181.567 283.589 181.567 283.754C182.229 292.612 182.808 301.551 183.388 310.408C181.567 310.574 179.663 310.657 177.759 310.822C168.074 311.485 158.389 312.147 148.704 312.892C148.704 312.064 148.704 306.766 148.622 298.489C148.622 296.336 148.622 293.936 148.539 291.37C148.539 289.052 148.539 286.486 148.456 283.92V283.506C148.456 283.341 148.456 283.258 148.456 283.092C148.208 254.369 147.794 210.58 147.214 177.552C146.883 160.666 146.635 146.594 146.304 138.73C146.304 138.234 146.304 137.737 146.221 137.24C151.105 138.896 155.74 140.882 160.128 143.2C172.792 150.071 182.063 159.59 189.099 169.854C196.88 181.112 202.095 193.197 206.482 203.627C211.78 216.126 217.078 228.874 222.375 241.787C222.789 242.78 223.203 243.856 223.617 244.85C224.031 245.843 224.445 246.919 224.859 247.912C226.928 252.962 228.915 258.011 230.984 263.143C231.15 263.557 231.315 263.971 231.481 264.385L231.978 265.626C234.295 271.421 236.613 277.215 238.931 283.175C239.014 283.341 239.014 283.423 239.096 283.589C239.179 283.754 239.179 283.837 239.262 284.003C243.235 294.102 247.208 304.449 251.182 314.878C251.264 315.044 251.264 315.127 251.347 315.292C251.43 315.458 251.43 315.541 251.513 315.706C251.761 315.872 251.927 316.286 252.092 316.782Z" stroke="#00DC99" stroke-width="1.68457" stroke-miterlimit="10" stroke-linecap="round" stroke-linejoin="round"/>
</g>
<defs>
<clipPath id="clip0_3_15685">
<rect width="198.663" height="198.663" fill="white" transform="translate(0.868164 0.791992)"/>
</clipPath>
</defs>
</svg>
