<svg width="200" height="200" viewBox="0 0 200 200" fill="none" xmlns="http://www.w3.org/2000/svg">
<g clip-path="url(#clip0_3_15220)">
<rect width="198.663" height="198.663" transform="translate(0.446289 0.395996)" fill="#7C4EFE"/>
<path d="M23.7201 260.05C24.0869 260.111 24.3926 260.294 24.6983 260.478C26.7159 259.5 29.7117 260.417 29.6506 263.351C29.406 274.295 28.8558 285.239 28.2444 296.183H168.803C168.681 286.34 168.559 276.557 168.559 266.714C168.559 263.84 171.493 262.862 173.511 263.779C181.765 259.316 189.957 254.731 198.15 250.206C198.089 248.433 198.028 246.599 197.966 244.826C197.233 220.065 187.878 195.487 170.209 177.818C153.763 161.371 126.801 149.021 103.201 150.061C53.128 152.323 6.84568 191.757 8.4353 244.826C8.49644 247.883 8.61873 251.062 8.67987 254.242C13.5099 255.77 18.2175 257.604 22.8641 259.561C23.2309 259.683 23.4755 259.866 23.7201 260.05Z" fill="white"/>
<path d="M82.1708 154.279H56.1867C32.6482 154.279 11.4941 169.014 3.79056 191.207C0.733609 199.95 -1.95652 208.754 -4.5855 217.742C-5.9917 222.388 -7.33676 227.035 -8.86523 231.62C12.35 241.769 35.1549 248.495 57.2261 256.871C65.113 234.433 69.4539 209.61 81.0092 190.107C87.6122 178.979 87.8568 165.223 82.1708 154.279Z" fill="white"/>
<path d="M204.753 214.807C204.631 214.379 204.508 213.951 204.325 213.462C201.635 204.536 198.945 195.67 195.949 186.927C188.245 164.734 167.091 150 143.553 150H117.568C111.883 160.943 112.127 174.639 118.791 185.827C129.185 203.313 133.709 225.139 140.251 245.682C161.65 235.227 182.62 223.733 204.753 214.807Z" fill="white"/>
<path d="M143.002 117.228C141.902 111.603 138.661 106.529 137.133 100.965C135.36 94.4232 134.932 87.8202 135.482 81.0949C135.543 80.5446 135.299 80.239 134.932 80.0555C125.516 59.146 101.611 44.656 80.8238 54.0103C80.5792 54.1325 80.4569 54.316 80.3346 54.4994C73.2425 56.3947 67.1897 61.1024 64.1328 68.0111C61.9929 72.9023 61.9929 78.0991 62.1764 83.357C62.3598 90.1435 61.6872 102.127 60.5256 108.791C59.1194 116.922 58.8748 125.421 65.6001 131.351C70.7358 135.875 77.7668 137.098 84.1253 134.653C92.2568 131.535 98.7987 122.486 108.092 122.792C117.568 123.097 124.233 132.819 134.198 131.473C141.413 130.434 144.225 123.831 143.002 117.228Z" fill="#23355F"/>
<path d="M133.467 58.3513C133.65 51.6871 136.89 44.4116 129.92 40.0096C122.889 35.5464 114.085 39.765 107.177 42.2106L85.1667 50.0975C84.433 51.198 83.7605 52.2985 83.0879 53.4602H83.1491C83.088 53.827 83.0879 54.1327 83.0879 54.4995C81.0092 60.9191 84.2496 73.1469 87.6734 78.894C92.5645 86.9644 98.8007 95.8295 106.26 101.699C112.129 106.345 117.57 105.856 123.868 102.31C129.615 99.0699 136.585 94.6068 138.724 88.0037C141.476 79.2609 133.283 66.7885 133.467 58.3513Z" fill="#23355F"/>
<path d="M120.871 54.0718C116.958 54.1941 112.984 54.3775 109.071 54.622C104.975 54.9277 100.94 55.2334 96.8436 55.7225C95.8042 55.8448 94.7037 55.9671 93.6644 56.0894C93.2364 56.1505 92.625 56.2116 92.3804 56.2728C90.424 56.5173 88.4676 56.823 86.5111 57.1287C83.3319 57.679 80.1526 58.2292 76.9734 58.9017C71.4097 65.9939 67.9248 75.2259 67.9248 83.7854V111.97C67.9248 120.285 71.1652 127.867 76.4232 133.491C82.1702 139.605 90.3017 143.457 99.3503 143.457H102.896C113.168 143.457 122.277 138.566 128.025 130.985C131.999 125.727 134.383 119.124 134.383 112.032V83.8465C134.383 73.086 129.064 61.4696 120.871 54.0718Z" fill="#F7ACA9"/>
<path d="M102.958 46.5513H99.4118C90.1187 46.5513 81.8037 50.5864 76.0567 56.9449C71.0433 62.5086 67.9863 69.9064 67.9863 77.9768V84.1518C72.6329 83.2959 74.6505 76.0814 76.8515 70.0898C78.3188 66.0546 81.7426 62.9977 85.9001 62.1417C95.3766 60.1241 105.77 59.2682 115.614 59.5739C121.3 59.7573 126.068 63.8536 127.352 69.4173C127.536 70.2733 130.776 88.9818 132.61 89.96C133.161 90.2657 138.113 93.6895 138.785 88.0036L134.506 78.0379C134.383 66.4215 120.321 46.5513 102.958 46.5513Z" fill="#23355F"/>
<path d="M125.883 123.892C109.62 124.442 93.3567 124.626 77.3994 127.927C78.4999 137.526 78.8668 147.125 78.1331 156.724C80.1507 166.628 87.1205 174.821 98.1867 175.983C109.742 177.205 123.804 167.973 123.865 155.256C123.926 148.164 123.926 141.133 123.987 134.041C124.538 133.674 125.027 133.185 125.577 132.757C125.271 129.884 125.332 126.827 125.883 123.892Z" fill="#F7ACA9"/>
<path d="M77.951 94.6068C60.6487 84.152 55.941 85.6804 53.312 93.0171C50.683 100.354 53.312 104.572 66.946 111.359C80.58 118.206 77.951 94.6068 77.951 94.6068Z" fill="#F7ACA9"/>
<path d="M123.317 94.6068C140.619 84.152 145.327 85.6804 147.956 93.0171C150.585 100.354 147.956 104.572 134.322 111.359C120.688 118.206 123.317 94.6068 123.317 94.6068Z" fill="#F7ACA9"/>
<path d="M107.177 88.6766C106.076 87.515 104.059 89.1046 105.22 90.2662C108.277 93.3843 115.003 101.883 107.482 104.512C105.954 105.062 106.932 107.385 108.461 106.835C111.579 105.734 113.291 102.677 113.291 99.376C113.229 95.0351 110.05 91.6113 107.177 88.6766Z" fill="#23355F"/>
<path d="M87.5484 87.3923C84.4303 88.0648 83.1463 92.2834 85.1639 94.6678C86.2033 95.8906 88.282 94.4232 87.1815 93.2005C86.3256 92.2222 86.5701 90.2047 88.0375 89.8378C89.3214 89.5321 90.6053 90.9383 90.4219 92.1611C90.1773 93.7507 92.684 94.1787 92.9286 92.5891C93.3566 89.5933 90.6053 86.7197 87.5484 87.3923Z" fill="#23355F"/>
<path d="M88.2843 82.3182C86.6336 82.9296 84.9828 83.541 83.3321 84.2135C81.8036 84.7637 82.5984 87.2093 84.1269 86.5979C85.7776 85.9865 87.4284 85.3751 89.0792 84.7026C90.6076 84.1524 89.8128 81.7679 88.2843 82.3182Z" fill="#23355F"/>
<path d="M117.936 75.1042L114.207 75.6544C112.617 75.899 112.923 78.4057 114.574 78.1611L118.303 77.6109C119.893 77.3663 119.526 74.8596 117.936 75.1042Z" fill="#23355F"/>
<path d="M102.711 119.735C101.794 123.403 97.4527 125.91 93.8455 124.443C90.2383 123.036 88.8321 118.145 90.7274 114.905C91.5222 113.499 89.5046 111.97 88.7098 113.376C86.0809 118.023 87.6705 124.687 92.8673 126.766C98.0641 128.845 103.872 125.237 105.156 120.041C105.584 118.512 103.078 118.206 102.711 119.735Z" fill="#23355F"/>
<path d="M122.033 87.27C118.853 88.0648 120.137 92.9559 123.316 92.1611C126.435 91.3052 125.212 86.4141 122.033 87.27Z" fill="#23355F"/>
<path d="M123.254 134.53C116.223 139.299 108.336 141.378 99.8992 140.583C98.3096 140.461 98.3096 142.968 99.8992 143.09C108.703 143.885 117.202 141.684 124.538 136.67C125.822 135.814 124.599 133.613 123.254 134.53Z" fill="#23355F"/>
<path d="M139.152 93.6283C136.156 95.7681 134.077 98.8251 133.282 102.493C132.977 104.083 135.422 104.756 135.728 103.166C136.339 100.17 137.929 97.6023 140.436 95.8293C141.719 94.9122 140.497 92.7112 139.152 93.6283Z" fill="#23355F"/>
<path d="M67.7402 103.166C66.8843 99.3145 64.3164 96.013 60.7092 94.2399C59.2419 93.5063 57.958 95.7073 59.4253 96.441C62.4823 97.9083 64.561 100.537 65.2946 103.839C65.6615 105.428 68.107 104.756 67.7402 103.166Z" fill="#23355F"/>
</g>
<defs>
<clipPath id="clip0_3_15220">
<rect width="198.663" height="198.663" fill="white" transform="translate(0.446289 0.395996)"/>
</clipPath>
</defs>
</svg>
