<svg width="199" height="200" viewBox="0 0 199 200" fill="none" xmlns="http://www.w3.org/2000/svg">
<g clip-path="url(#clip0_3_15650)">
<rect width="198.663" height="198.663" transform="translate(0.157227 0.791992)" fill="#FDA85A"/>
<path d="M230.938 209.668C230.111 209.503 229.283 209.254 228.455 209.089C218.687 206.854 208.837 204.536 199.069 202.301C198.655 202.218 198.159 202.135 197.662 201.97C197.248 201.887 196.752 201.804 196.338 201.639C194.351 198.162 192.199 194.851 189.964 191.706C186.405 186.822 182.431 182.435 178.044 178.544C171.67 172.998 164.883 169.19 157.516 166.459C156.936 166.211 156.357 166.045 155.777 165.797C146.258 162.568 135.994 161.244 124.736 160.665V149.324C124.736 149.324 119.19 149.241 111.161 149.159C106.774 149.076 101.642 149.076 96.3438 148.993C95.5989 148.993 94.8539 148.993 94.1089 148.993C82.1891 148.91 69.3587 148.827 60.9983 148.91C55.8662 148.993 52.3896 149.076 51.8929 149.241C51.6446 153.794 51.479 158.347 51.2307 162.899C43.1186 164.058 35.1721 165.714 27.4739 168.28C26.9772 168.445 26.4805 168.611 25.9011 168.859C13.4846 173.247 2.06151 179.951 -7.12667 190.216C-7.12667 190.216 -14.6593 198.659 -24.5097 217.449L-25.2547 218.939C-30.5524 229.203 -36.4295 242.365 -42.1411 258.672C-43.4655 262.562 -44.7899 266.536 -44.7899 266.536C-45.2038 267.943 -45.7005 269.35 -46.1144 270.757C-46.4455 271.75 -46.7766 272.827 -47.0249 273.82C-47.0249 273.82 -47.0249 273.82 -47.0249 273.903C-46.4455 274.565 -45.7833 275.227 -45.2038 275.889C-45.121 275.972 -45.0383 276.055 -44.8727 276.22C-44.5416 276.551 -44.2933 276.883 -44.2105 276.883C-38.5817 282.925 -32.9529 288.057 -32.9529 288.057C-31.7113 289.216 -28.6485 291.948 -24.4269 295.259C-24.3442 295.342 -24.0131 295.59 -23.5992 295.921C-20.6192 298.322 -17.1426 300.971 -13.0866 303.702C-8.12 307.096 -4.06395 309.414 -1.00122 311.152C5.28978 314.794 10.2564 317.112 11.5808 317.774C11.5808 317.774 18.2029 320.92 23.5834 322.906C24.08 323.072 25.6528 323.651 27.3911 324.313C27.6394 324.396 28.3016 324.645 29.1294 324.976C29.3777 325.058 29.7088 325.141 30.0399 325.307C30.0399 325.307 30.0399 325.307 30.1227 325.307C30.2055 325.307 30.2883 325.39 30.371 325.39C30.4538 325.39 30.6194 325.472 30.7849 325.555C30.9505 325.638 31.1988 325.721 31.3644 325.721C31.6127 325.803 31.861 325.886 32.1093 325.969C32.7715 326.135 33.5165 326.466 34.3443 326.714C34.6754 326.797 34.9237 326.879 35.2548 326.962C36.4965 327.376 37.9865 327.79 39.642 328.287C39.8903 328.369 40.0559 328.369 40.3042 328.452C41.2975 328.701 42.2908 329.032 43.2014 329.28C43.8636 329.446 44.6086 329.611 45.2708 329.777C46.0158 329.942 46.7608 330.191 47.5058 330.356C49.8235 330.936 52.224 331.432 54.8728 331.929C55.6178 332.094 56.3628 332.177 57.1906 332.343C60.5016 332.922 63.8955 333.419 67.2065 333.833C68.6137 333.998 70.1865 334.164 71.842 334.329C75.2359 334.66 78.5469 334.909 81.7752 334.992C82.5202 334.992 83.1824 335.074 83.9274 335.074C84.9207 335.074 85.914 335.157 86.9073 335.157C88.5628 335.157 90.0528 335.157 91.6256 335.157C93.7778 335.157 95.6816 335.074 97.4199 334.992C97.4199 334.992 97.5027 334.992 97.5855 334.992C98.0821 334.992 98.5788 334.992 99.0754 334.909C99.0754 334.909 99.1582 334.909 99.241 334.909C100.069 334.826 100.979 334.826 101.807 334.743C106.194 334.495 110.664 333.998 114.969 333.419C115.796 333.336 116.624 333.171 117.452 333.088C119.687 332.757 122.005 332.343 124.571 331.846H124.736C125.316 331.763 125.895 331.598 126.474 331.515C127.137 331.349 127.716 331.267 128.378 331.101C129.289 330.936 130.117 330.687 131.027 330.522C131.275 330.439 131.524 330.439 131.772 330.356C132.517 330.191 133.262 329.942 134.09 329.777C134.338 329.694 134.587 329.611 134.752 329.611C135.332 329.446 135.911 329.28 136.49 329.197C144.271 327.128 151.97 324.479 159.419 321.416L160.082 321.168C160.164 321.168 160.247 321.085 160.33 321.085C161.075 320.754 161.737 320.506 162.482 320.175H162.565C162.731 320.092 162.813 320.092 162.979 320.009C163.807 319.678 164.552 319.264 165.297 318.933L165.545 318.85C166.207 318.519 166.787 318.271 167.366 318.022H167.449C167.532 318.022 167.532 317.94 167.614 317.94C168.359 317.609 169.022 317.277 169.684 316.946C169.849 316.864 169.932 316.781 170.098 316.781C170.925 316.367 171.588 316.036 172.333 315.622C172.829 315.374 173.326 315.125 173.74 314.877L174.071 314.711H174.154C174.568 314.463 174.981 314.297 175.395 314.049L175.809 313.801C176.637 313.304 177.547 312.89 178.375 312.394C179.286 311.897 180.114 311.4 181.024 310.904C181.19 310.821 181.272 310.738 181.438 310.655C182.266 310.159 183.176 309.662 184.087 309.083C184.997 308.503 185.908 307.924 186.901 307.344C187.812 306.765 188.722 306.185 189.633 305.606L189.716 305.523C190.626 304.944 191.454 304.364 192.282 303.785C193.192 303.205 194.103 302.543 194.931 301.964C195.841 301.302 196.669 300.722 197.579 300.06C198.242 299.563 198.987 299.067 199.649 298.487C199.814 298.322 199.98 298.239 200.145 298.156L200.311 298.073C201.139 297.411 201.967 296.749 202.794 296.087L202.877 296.004C203.622 295.424 204.367 294.845 205.029 294.266L205.443 293.934C206.271 293.272 207.016 292.61 207.844 291.948L207.926 291.865C208.589 291.286 209.251 290.706 209.913 290.127C210.906 289.299 211.9 288.388 212.81 287.478C213.555 286.816 214.3 286.071 215.045 285.409L215.128 285.326C215.956 284.581 216.701 283.836 217.446 283.091C217.528 283.008 217.611 282.925 217.694 282.842C218.025 282.511 218.356 282.18 218.687 281.849C218.77 281.766 218.853 281.684 218.936 281.601C219.432 281.104 219.929 280.608 220.426 280.111C220.757 279.78 221.005 279.531 221.253 279.283C221.916 278.621 222.578 277.876 223.24 277.214C223.406 277.048 223.654 276.8 223.819 276.634C230.028 269.929 235.657 262.728 240.789 255.278C241.203 254.699 241.534 254.119 241.948 253.622C242.279 246.09 242.527 238.474 242.858 230.942C242.858 229.948 242.941 228.955 242.941 227.962C243.189 222.83 243.355 217.78 243.603 212.648C239.216 211.572 235.077 210.661 230.938 209.668Z" fill="#290060"/>
<path d="M99.2413 335.24C98.7446 335.24 98.2479 335.323 97.7513 335.323C97.6685 335.323 97.6685 335.323 97.5858 335.323C88.6459 280.525 62.9852 235.991 43.8638 202.798C36.2484 189.554 29.7091 178.296 25.9014 169.108C26.398 168.942 26.8947 168.777 27.4741 168.528C31.2818 177.551 37.6556 188.726 45.3538 201.97C64.4752 235.329 90.3014 280.028 99.2413 335.24Z" fill="#FFB800"/>
<path d="M175.396 313.967C175.313 313.967 175.313 314.049 175.23 314.049C174.816 314.298 174.403 314.463 173.989 314.711H173.906C171.009 309.745 168.194 304.696 165.38 299.398C151.06 272.578 137.733 242.282 127.468 212.814C117.37 184.008 106.195 162.734 93.9438 149.159C94.6888 149.159 95.4338 149.159 96.1788 149.159C108.181 162.9 119.191 184.008 129.041 212.234C138.395 238.888 147.004 261.238 166.042 296.997C169.85 304.199 173.161 310.076 175.396 313.967Z" fill="#FFB800"/>
<path d="M218.853 281.684C218.771 281.767 218.688 281.849 218.605 281.932C218.274 282.263 217.943 282.594 217.612 282.925C209.748 268.771 200.808 254.45 192.282 240.875C189.137 235.908 186.157 231.025 183.177 226.306C168.36 202.301 156.523 181.11 155.612 165.962C156.192 166.128 156.771 166.376 157.351 166.625C158.592 181.11 169.933 201.639 183.673 224.071C186.902 229.286 190.213 234.667 193.607 240.047C202.215 253.457 211.072 267.612 218.853 281.684Z" fill="#FFB800"/>
<path d="M261.483 157.023C257.344 169.77 255.109 180.283 246.5 203.543C245.093 207.434 244.017 210.579 243.354 212.566C239.216 211.572 235.077 210.662 230.938 209.669C230.11 209.503 229.282 209.255 228.455 209.089C218.687 206.854 208.837 204.536 199.069 202.302C198.241 202.053 191.04 200.729 189.633 200.563C189.633 199.901 189.715 198.99 189.798 197.914C189.881 195.679 189.964 193.693 189.964 191.789C190.378 176.144 189.55 169.605 189.55 160.003C189.55 156.361 192.613 153.381 196.255 153.381C199.897 153.381 202.877 156.443 202.877 160.086L202.794 173.164C203.539 171.509 204.284 169.853 205.112 168.198L215.873 138.564C217.114 135.087 220.922 133.349 224.399 134.59C225.971 135.17 227.13 136.246 227.875 137.57L228.455 135.915C229.614 132.438 233.339 130.534 236.815 131.693C240.126 132.769 241.947 136.246 241.202 139.557C241.285 139.474 241.368 139.474 241.451 139.391C243.106 138.15 245.341 137.736 247.411 138.398C250.887 139.557 252.791 143.282 251.632 146.759L250.473 150.318C250.556 150.235 250.556 150.235 250.639 150.152C252.377 148.497 254.943 147.752 257.426 148.497C260.738 149.739 262.641 153.546 261.483 157.023Z" fill="#FF1EAD"/>
<path d="M144.52 89.8915C144.272 84.2627 143.941 77.9717 142.699 71.7635C121.757 70.6046 100.897 69.5285 79.9547 68.3696C80.6169 70.6046 83.5969 81.6966 77.4714 93.2025C72.6704 102.225 64.9722 106.53 60.0884 108.433C60.4195 109.427 60.9161 149.159 60.9161 149.159C69.2766 149.077 82.1069 149.159 94.0267 149.242C94.7717 149.242 95.5167 149.242 96.2617 149.242C101.642 149.242 106.691 149.325 111.079 149.408V145.269C115.962 145.021 120.515 144.772 125.482 142.041C145.431 131.114 144.769 95.4375 144.52 89.8915Z" fill="#FF1EAD"/>
<path d="M110.334 145.601C105.946 145.601 84.5074 144.856 73.912 131.363C73.7465 131.197 73.8292 130.949 73.9948 130.784C74.1604 130.618 74.4087 130.701 74.5742 130.866C86.0802 145.518 110.83 144.773 111.079 144.773C111.327 144.773 111.493 144.938 111.493 145.187C111.493 145.435 111.327 145.601 111.079 145.601C111.079 145.601 110.748 145.601 110.334 145.601Z" fill="black"/>
<path d="M142.7 71.7636C142.7 71.6809 142.7 71.6809 142.7 71.7636C142.618 71.1014 142.452 70.522 142.287 69.8598C142.121 69.032 141.873 68.2043 141.624 67.4593C139.969 61.4166 136.575 53.3045 129.622 46.1857C117.702 34.0176 95.4351 24.995 80.5353 34.6798C75.8171 37.7425 72.8371 42.0469 70.8505 46.0202C71.3471 41.9641 71.4299 37.8253 69.195 38.6531C66.4633 39.7292 67.5394 45.7718 68.5327 49.7451C63.8973 47.5102 58.1857 45.2752 55.9507 46.8479C55.2885 47.3446 54.9574 48.0896 55.123 48.8346C55.7024 50.904 60.9173 51.8973 65.9667 52.394C60.8345 54.6289 50.3219 60.6716 46.8453 73.2536C43.2859 86.084 48.5836 100.239 60.0896 108.434C64.8906 106.53 72.6716 102.225 77.4726 93.2027C83.5981 81.6968 80.6181 70.6048 79.9559 68.3698C100.898 69.4459 121.758 70.6048 142.7 71.7636Z" fill="black"/>
<path d="M128.296 93.6171C129.804 93.6171 131.027 92.3941 131.027 90.8854C131.027 89.3768 129.804 88.1538 128.296 88.1538C126.787 88.1538 125.564 89.3768 125.564 90.8854C125.564 92.3941 126.787 93.6171 128.296 93.6171Z" fill="black"/>
<path d="M97.9172 93.2855C99.4258 93.2855 100.649 92.0625 100.649 90.5539C100.649 89.0453 99.4258 87.8223 97.9172 87.8223C96.4085 87.8223 95.1855 89.0453 95.1855 90.5539C95.1855 92.0625 96.4085 93.2855 97.9172 93.2855Z" fill="black"/>
<path d="M117.039 129.542C109.589 129.542 103.298 121.098 103.049 120.685C102.967 120.519 102.967 120.353 103.049 120.271C103.132 120.188 103.298 120.022 103.463 120.105L126.392 123.085C126.558 123.085 126.641 123.168 126.723 123.333C126.806 123.499 126.806 123.582 126.641 123.747C123.909 127.555 120.681 129.542 117.039 129.542C117.039 129.542 117.121 129.542 117.039 129.542ZM104.374 121.016C106.112 123.085 111.327 128.714 117.039 128.714C117.039 128.714 117.039 128.714 117.121 128.714C120.267 128.714 123.081 127.058 125.565 123.747L104.374 121.016Z" fill="black"/>
<path d="M113.563 108.516C113.397 108.516 113.232 108.35 113.149 108.184C113.066 107.936 113.232 107.771 113.48 107.688L122.254 105.536L116.294 84.5104C116.212 84.262 116.377 84.0965 116.543 84.0137C116.791 83.9309 116.957 84.0965 117.039 84.262L123.165 105.701C123.165 105.784 123.165 105.949 123.165 106.032C123.165 106.115 122.999 106.198 122.917 106.198L113.728 108.516C113.646 108.516 113.646 108.516 113.563 108.516Z" fill="black"/>
<path d="M96.6329 81.6283C101.619 80.466 105.384 78.3327 105.042 76.8634C104.699 75.3942 100.379 75.1453 95.3928 76.3076C90.4062 77.4699 86.6414 79.6032 86.9838 81.0724C87.3263 82.5417 91.6463 82.7905 96.6329 81.6283Z" fill="black"/>
<path d="M138.985 80.763C139.328 79.2938 135.563 77.1605 130.576 75.9982C125.59 74.8359 121.27 75.0848 120.927 76.554C120.585 78.0233 124.35 80.1566 129.336 81.3189C134.323 82.4811 138.643 82.2323 138.985 80.763Z" fill="black"/>
<path d="M118.694 112.904C118.694 112.904 97.0891 109.262 92.1226 115.47L118.032 118.284L118.694 112.904Z" fill="black"/>
<path d="M122.087 113.235C122.087 113.235 141.953 115.884 144.271 123.169L121.011 118.45L122.087 113.235Z" fill="black"/>
<path d="M49.6585 125.485C59.4417 125.485 67.3726 117.555 67.3726 107.771C67.3726 97.988 59.4417 90.0571 49.6585 90.0571C39.8752 90.0571 31.9443 97.988 31.9443 107.771C31.9443 117.555 39.8752 125.485 49.6585 125.485Z" fill="#FF1EAD"/>
<path d="M58.1853 115.386C58.1025 115.386 58.0197 115.386 57.9369 115.303C56.1159 114.144 55.2881 112.903 55.2881 111.578C55.3709 110.006 56.6953 108.847 57.4403 108.267L43.3683 93.8642C43.2028 93.6987 43.2028 93.4504 43.3683 93.2848C43.5339 93.1193 43.7822 93.1193 43.9477 93.2848L58.3508 108.019C58.4336 108.102 58.5164 108.267 58.4336 108.35C58.3508 108.433 58.3508 108.598 58.1853 108.681C58.1853 108.681 56.0331 109.923 55.9503 111.578C55.9503 112.572 56.6953 113.648 58.1853 114.641C58.3508 114.807 58.4336 115.055 58.2681 115.221C58.5164 115.386 58.3508 115.386 58.1853 115.386Z" fill="black"/>
</g>
<defs>
<clipPath id="clip0_3_15650">
<rect width="198.663" height="198.663" fill="white" transform="translate(0.157227 0.791992)"/>
</clipPath>
</defs>
</svg>
