<svg width="200" height="200" viewBox="0 0 200 200" fill="none" xmlns="http://www.w3.org/2000/svg">
<g clip-path="url(#clip0_3_15543)">
<rect width="198.663" height="198.663" transform="translate(0.579102 0.791992)" fill="#8DBBFF"/>
<path d="M316.382 115.162C315.968 114.913 315.471 114.83 315.057 114.748L317.706 112.761C318.865 111.933 319.527 110.609 319.527 109.202C319.527 108.374 319.279 107.546 318.782 106.801C317.872 105.477 316.382 104.897 314.975 104.98L316.133 104.152C318.037 102.745 318.451 100.096 317.209 98.1924C315.885 96.2885 313.319 95.7919 311.415 97.1991L310.836 97.613C311.663 96.2058 311.663 94.3019 310.753 92.8947C309.428 90.9909 306.862 90.4942 304.959 91.9014L282.112 108.539L273.007 109.698L280.705 101.338C282.278 99.5996 282.195 96.868 280.622 95.2952C280.291 94.9641 279.96 94.7158 279.546 94.5502C277.973 93.8053 275.987 94.1364 274.745 95.4608C270.689 98.6891 265.143 103.738 260.094 111.354C253.886 120.79 246.105 149.017 242.959 157.378C230.46 190.985 226.073 193.468 223.258 193.716C222.927 193.716 222.596 193.716 222.265 193.716C222.265 193.716 222.265 193.716 222.182 193.716C214.318 192.64 194.618 167.559 181.456 157.543C176.407 153.653 168.874 148.686 158.61 144.133C163.825 161.847 168.791 180.886 173.096 201.249C173.923 205.305 174.751 209.278 175.579 213.252C178.973 220.288 183.526 226.413 188.989 231.297C189.982 232.207 191.058 233.035 192.134 233.863C197.515 237.919 203.557 240.733 209.931 242.141C211.173 242.389 212.332 242.637 213.573 242.803C216.884 243.217 220.113 243.299 223.093 242.968C235.592 241.809 244.615 235.353 247.429 233.283C247.429 233.283 268.04 220.95 283.023 165.572C284.016 162.013 284.844 158.288 284.844 158.288C285.341 156.219 285.672 154.894 285.672 154.894C286.499 151.169 287.244 147.279 287.907 143.14C288.238 141.153 288.486 139.332 288.734 137.428C290.39 136.766 292.79 135.773 295.605 134.614C308.104 129.647 312.822 126.005 316.961 122.777C318.782 121.37 319.113 118.638 317.789 116.734C317.458 115.824 316.961 115.41 316.382 115.162Z" fill="#FF1EAD"/>
<path d="M71.3616 151.748C69.5405 173.104 67.7194 194.377 65.8983 215.734C58.4485 234.607 50.833 253.645 42.8865 272.849V272.601C42.8865 271.939 42.3071 271.359 41.6449 271.359C40.9826 271.359 40.4032 271.939 40.4032 272.601V278.809C36.0988 289.074 31.7945 299.421 27.4073 309.768C26.4968 311.837 25.669 313.907 24.7585 315.976C20.7024 325.495 16.6464 334.932 12.5076 344.285C12.5076 344.368 12.5903 353.225 12.5903 353.225V354.301C12.5903 356.95 10.6865 358.937 8.20319 358.854C7.62376 358.854 7.04432 358.689 6.54767 358.44C6.38211 358.357 6.29934 358.275 6.13378 358.275C4.97491 357.612 4.06437 356.371 3.81604 354.964C3.73327 356.205 3.23661 357.199 2.40885 357.944C1.66386 358.689 0.587759 359.102 -0.57111 359.102C-2.64052 359.02 -4.37882 357.364 -4.87548 355.212C-4.87548 355.129 -4.95826 355.046 -4.95826 354.881C-4.95826 354.964 -4.95826 355.046 -4.95826 355.129C-5.28937 357.199 -6.9449 358.771 -8.93153 358.771C-9.01431 358.771 -9.09708 358.771 -9.26263 358.771C-10.6698 358.689 -11.9115 357.944 -12.7392 356.785C-13.2359 356.122 -13.567 355.378 -13.6498 354.55C-13.6498 354.467 -13.6498 354.384 -13.7326 354.219C-13.7326 354.301 -13.8153 354.467 -13.8153 354.55C-13.9809 355.046 -14.2292 355.46 -14.4776 355.874C-15.3881 357.033 -16.7953 357.695 -18.2853 357.447C-19.0303 357.364 -19.7752 357.033 -20.3547 356.536C-21.0169 356.04 -21.5135 355.378 -21.8446 354.633C-22.1758 353.888 -22.4241 352.977 -22.3413 352.066V351.735L-22.093 348.59L-21.9274 346.272L-21.7619 343.458L-21.6791 342.63C-21.8446 342.713 -21.9274 342.878 -22.093 342.961C-22.2585 343.044 -22.3413 343.209 -22.5069 343.375C-22.7552 343.623 -23.0035 343.872 -23.2518 344.12C-23.5002 344.368 -23.7485 344.617 -23.9968 344.865C-23.9968 344.865 -23.9968 344.865 -24.0796 344.948C-24.2452 345.196 -24.4935 345.362 -24.659 345.61C-24.9901 345.941 -25.3213 346.355 -25.5696 346.769C-25.7351 347.017 -25.9835 347.265 -26.149 347.514C-26.894 348.507 -27.639 349.583 -28.3012 350.659C-28.5495 350.99 -28.7151 351.404 -28.9634 351.735C-29.129 351.984 -29.2945 352.232 -29.3773 352.48C-29.5429 352.729 -29.6256 352.977 -29.7912 353.225C-29.874 353.391 -29.9567 353.556 -30.0395 353.722C-30.2051 353.97 -30.2878 354.219 -30.4534 354.55C-30.7017 355.046 -30.9501 355.626 -31.1984 356.123C-31.2812 356.371 -31.4467 356.619 -31.5295 356.867C-31.695 357.281 -31.8606 357.612 -32.0261 358.026C-33.0195 358.192 -34.0128 357.944 -34.9233 357.447C-37.1583 356.205 -37.9033 353.308 -36.6616 351.156L-25.9007 332.531C-24.0796 327.234 -22.2585 321.77 -20.2719 316.141C-10.8354 288.991 0.587757 258.777 14.0803 226.412C21.9441 207.622 31.7117 185.189 53.9785 164.826C60.9318 158.866 67.14 154.479 71.3616 151.748Z" fill="#FF1EAD"/>
<path d="M222.18 193.633C214.316 192.556 194.615 167.475 181.454 157.459C176.404 153.569 168.872 148.602 158.607 144.049C157.78 143.636 156.786 143.222 155.876 142.891C155.876 142.891 155.876 142.891 155.793 142.891C151.654 141.152 146.522 139.497 140.728 138.255C134.602 136.931 129.139 136.517 124.503 136.434C123.676 136.434 122.848 136.434 122.02 136.434H121.606C111.259 136.517 101.988 138.421 93.8761 141.235C89.6545 142.642 85.764 144.298 82.2047 146.036C81.2941 146.45 80.3836 146.947 79.473 147.361C78.728 147.774 77.9003 148.188 77.1553 148.602C76.3275 149.016 75.5825 149.43 74.8376 149.844C73.5959 150.506 72.437 151.251 71.2782 151.913C67.0566 154.728 60.9311 159.115 54.2262 165.24C31.9594 185.52 22.1918 208.036 14.328 226.826C0.835449 259.191 -10.5049 289.405 -20.0242 316.556C-23.418 316.224 -26.3152 315.148 -28.7985 312.582C-37.49 303.974 -28.7985 292.633 -36.1656 279.803C-47.0921 260.93 -80.8649 271.029 -86.4109 256.791C-90.4669 246.361 -77.471 228.813 -63.7301 220.369C-48.1682 210.767 -34.6756 214.989 -28.9641 205.056C-24.8252 197.854 -29.9574 192.225 -30.3713 182.209C-31.6957 151.582 13.0036 144.96 23.9301 106.221C30.8833 81.4705 16.3146 70.7924 28.2344 53.5749C37.2571 40.4962 57.3717 29.5697 74.8376 35.6124C79.8869 37.3507 83.7774 40.1651 86.7574 42.8967C82.453 47.8633 78.1486 52.8299 73.8442 57.7965L76.6586 60.3625C80.1352 54.8165 84.8535 50.2638 90.7306 47.7805C90.9789 47.6978 91.2273 47.5322 91.5584 47.4494C107.948 41.2412 131.374 51.0916 141.969 74.3518C140.396 75.014 138.824 75.6762 137.334 76.4212C137.334 76.5039 137.417 76.5867 137.417 76.6695C137.913 78.7389 138.162 80.8083 138.244 82.9605C138.244 83.3744 138.244 83.7883 138.244 84.2022C138.244 86.4371 138.162 88.6721 138.079 91.0726C137.913 94.2181 137.748 97.4464 137.913 100.757C138.079 104.813 138.658 109.035 140.231 113.422C140.893 115.243 141.721 117.147 142.714 118.968C145.529 124.183 148.922 127.329 149.999 128.322C160.014 137.593 172.265 138.503 176.321 139.248C193.291 141.98 215.475 167.061 222.18 193.633Z" fill="black"/>
<path d="M86.6768 42.5664C82.3724 47.533 78.068 52.4996 73.7637 57.4662L78.3991 61.605L91.3123 47.2019L91.4778 47.0363C89.8223 45.5464 88.2495 44.0564 86.6768 42.5664Z" fill="#8C1DF1"/>
<path d="M141.889 90.1628C141.144 85.9412 139.736 81.1402 137.336 76.3391C137.253 76.2564 137.253 76.1736 137.17 76.0908C128.644 79.8158 119.953 83.789 111.096 87.8451C110.185 88.259 109.275 88.6728 108.364 89.0867C107.702 89.4178 107.04 89.7489 106.378 89.9973C100.997 92.5633 95.6994 95.0466 90.4845 97.6127C89.9051 97.861 89.3257 98.1921 88.7462 98.4405C88.084 98.7716 87.4218 99.1027 86.7596 99.4338C84.1108 100.758 81.5447 102 78.8958 103.324C78.5647 103.49 78.3164 103.655 77.9853 103.738C77.5714 103.986 77.1575 104.152 76.7437 104.4C76.9092 104.897 77.0748 105.394 77.3231 105.89C77.9025 107.38 78.5647 108.705 78.5647 108.705C78.5647 108.705 80.2203 111.767 82.7863 114.499C82.9519 114.665 84.9385 116.568 88.1668 119.052L88.2496 119.135H88.1668L88.5807 120.625L93.8784 140.988V141.07L101.328 151.335C101.494 151.169 101.742 151.252 101.908 151.417L126.327 184.942L125.085 158.536C125.085 158.288 125.251 158.122 125.499 158.122L124.506 136.269L124.34 132.379V131.965C124.34 131.965 124.423 131.965 124.423 131.882C133.28 128.737 137.833 119.548 140.15 113.009C141.144 110.029 141.723 107.711 141.971 106.718C141.971 106.718 142.716 103.49 142.634 98.4405C142.634 96.2055 142.468 93.3083 141.889 90.1628Z" fill="#FF1EAD"/>
<path d="M115.814 133.702C114.49 133.702 113.165 133.62 111.841 133.454C104.474 132.461 99.2589 128.901 96.1134 126.087C95.9479 125.921 95.9479 125.673 96.1134 125.507C96.279 125.342 96.5273 125.342 96.6929 125.507C99.7556 128.239 104.888 131.633 112.006 132.626C115.98 133.206 120.036 132.875 124.009 131.716C124.257 131.633 124.423 131.798 124.506 131.964C124.589 132.212 124.423 132.378 124.257 132.461C121.36 133.288 118.629 133.702 115.814 133.702Z" fill="black"/>
<path d="M123.43 110.774C123.264 110.774 123.099 110.691 123.016 110.525C122.933 110.277 123.016 110.111 123.264 110.029L130.549 107.297L124.175 94.3839C124.092 94.2183 124.175 93.97 124.34 93.8044C124.506 93.7217 124.754 93.8044 124.92 93.97L131.459 107.297C131.542 107.38 131.542 107.545 131.459 107.628C131.376 107.711 131.294 107.794 131.211 107.876L123.513 110.774C123.595 110.774 123.513 110.774 123.43 110.774Z" fill="black"/>
<path d="M122.435 122.032C118.958 122.032 115.481 119.466 113.991 115.575C113.909 115.41 113.991 115.244 114.074 115.161C114.157 115.079 114.322 114.996 114.488 115.079L127.981 118.886C128.146 118.886 128.229 119.052 128.229 119.218C128.229 119.383 128.229 119.549 128.146 119.631C127.318 120.542 125.414 122.032 122.931 122.197C122.683 122.032 122.6 122.032 122.435 122.032ZM115.067 115.989C116.64 119.3 119.703 121.37 122.766 121.121C124.587 121.039 126.077 120.045 126.904 119.3L115.067 115.989Z" fill="black"/>
<path d="M133.815 86.6282C136.762 85.3805 138.877 83.7205 138.538 82.9206C138.2 82.1207 135.536 82.4838 132.589 83.7315C129.642 84.9792 127.527 86.6392 127.866 87.4391C128.205 88.239 130.868 87.8759 133.815 86.6282Z" fill="black"/>
<path d="M111.593 90.9907C114.793 90.9907 117.387 90.2866 117.387 89.418C117.387 88.5494 114.793 87.8452 111.593 87.8452C108.393 87.8452 105.798 88.5494 105.798 89.418C105.798 90.2866 108.393 90.9907 111.593 90.9907Z" fill="black"/>
<path d="M115.232 95.7911C116.192 95.7911 116.971 95.0128 116.971 94.0528C116.971 93.0927 116.192 92.3145 115.232 92.3145C114.272 92.3145 113.494 93.0927 113.494 94.0528C113.494 95.0128 114.272 95.7911 115.232 95.7911Z" fill="black"/>
<path d="M135.678 92.2315C136.638 92.2315 137.417 91.4532 137.417 90.4932C137.417 89.5331 136.638 88.7549 135.678 88.7549C134.718 88.7549 133.94 89.5331 133.94 90.4932C133.94 91.4532 134.718 92.2315 135.678 92.2315Z" fill="black"/>
<path d="M120.78 93.5562C121.691 98.6883 118.049 103.738 112.751 104.731C107.371 105.724 102.238 102.248 101.245 97.1155C107.702 95.8739 114.241 94.715 120.78 93.5562Z" fill="black"/>
<path d="M146.441 89.4175C147.269 94.6324 143.461 99.5162 138.08 100.427C132.7 101.337 127.568 97.6951 126.823 92.4802C133.362 91.4041 139.901 90.4108 146.441 89.4175Z" fill="black"/>
<path d="M107.039 104.566C106.957 104.566 106.956 104.566 106.874 104.566C106.625 104.483 106.543 104.235 106.625 103.987C107.536 101.835 107.039 101.421 106.046 100.593C105.549 100.179 104.97 99.7651 104.473 98.9374C103.811 98.0268 103.811 97.0335 104.473 96.2057C104.639 96.0402 104.887 95.9574 105.053 96.123C105.218 96.2885 105.301 96.5368 105.135 96.7024C104.722 97.2818 104.722 97.8613 105.135 98.5235C105.549 99.1857 106.129 99.5996 106.543 100.013C107.619 100.841 108.529 101.586 107.37 104.318C107.37 104.483 107.205 104.566 107.039 104.566Z" fill="white"/>
<path d="M132.865 100.262C132.782 100.262 132.782 100.262 132.7 100.262C132.451 100.179 132.369 99.9306 132.451 99.6823C133.527 97.199 133.031 96.7851 131.955 95.9574C131.458 95.5435 130.879 95.1296 130.382 94.3018C129.637 93.143 129.885 92.2324 130.299 91.653C130.465 91.4874 130.713 91.4047 130.879 91.5702C131.044 91.7358 131.127 91.9841 130.961 92.1497C130.63 92.7291 130.63 93.3085 131.044 93.888C131.458 94.5502 132.037 94.9641 132.451 95.2952C133.693 96.2885 134.438 97.1162 133.114 100.013C133.196 100.096 133.031 100.262 132.865 100.262Z" fill="white"/>
<path d="M117.883 96.7018C117.718 96.7018 117.469 96.5363 117.469 96.3707C117.469 96.1224 117.552 95.9568 117.8 95.874L129.058 94.1357C129.306 94.1357 129.472 94.2185 129.555 94.4668C129.555 94.7152 129.472 94.8807 129.223 94.9635L117.883 96.7018Z" fill="black"/>
<path d="M68.6312 98.6886C68.3828 98.6886 68.2173 98.5231 68.2173 98.2748C68.2173 98.0264 68.3828 97.8609 68.6312 97.8609L102.238 97.5298C102.487 97.5298 102.652 97.6953 102.652 97.9437C102.652 98.192 102.487 98.3575 102.238 98.3575L68.6312 98.6886Z" fill="black"/>
<path d="M93.5462 108.042C92.884 105.062 91.2285 102.579 88.9935 100.923C87.0896 99.433 84.6891 98.5225 82.2058 98.4397C81.1297 98.357 80.0536 98.4397 78.9775 98.6881C72.3554 100.095 68.1338 106.635 69.541 113.174C70.9482 119.796 77.4876 124.018 84.1097 122.61C90.8146 121.203 94.9534 114.664 93.5462 108.042Z" fill="#FF1EAD"/>
<path d="M86.7579 115.244C86.6751 115.244 86.5924 115.244 86.5924 115.162C85.2679 114.499 84.3574 113.092 84.2746 111.602C84.1918 110.278 84.7713 109.036 85.7646 108.208L75.1692 102.166C75.0037 102.083 74.9209 101.835 75.0037 101.586C75.0864 101.421 75.3348 101.338 75.5831 101.421L86.7579 107.794C86.9235 107.877 86.9235 107.96 87.0062 108.126C87.089 108.291 86.9235 108.374 86.8407 108.457C85.7646 109.119 85.1852 110.278 85.1852 111.519C85.2679 112.761 85.9302 113.837 87.0062 114.334C87.1718 114.417 87.2546 114.665 87.1718 114.913C87.089 115.162 86.9235 115.244 86.7579 115.244Z" fill="black"/>
<path d="M82.2072 121.7C83.6244 121.7 84.7733 120.551 84.7733 119.134C84.7733 117.717 83.6244 116.568 82.2072 116.568C80.79 116.568 79.6411 117.717 79.6411 119.134C79.6411 120.551 80.79 121.7 82.2072 121.7Z" fill="#1F0D60"/>
<path d="M185.677 277.733C181.042 278.147 176.407 278.644 171.771 279.058C150.497 281.127 129.224 283.114 107.95 285.183C107.123 285.266 106.295 285.349 105.467 285.431C103.398 285.597 101.328 285.845 99.2589 286.011C97.8517 286.176 96.5273 286.259 95.1201 286.425C90.9813 286.839 86.7596 287.253 82.6208 287.666C78.6476 288.08 74.6743 288.411 70.701 288.825C67.3072 289.156 63.9134 289.488 60.5195 289.819L60.9334 283.279L65.155 223.101L65.8172 215.817C67.6383 194.46 69.4594 173.187 71.2805 151.83C72.3566 151.168 73.5982 150.423 74.8399 149.761C75.5848 149.347 76.3298 148.933 77.1576 148.519C77.9026 148.105 78.6476 147.692 79.4753 147.278C80.3859 146.864 81.2964 146.367 82.2069 145.953C85.7663 144.215 89.6568 142.642 93.8784 141.152V141.235L101.328 151.499C101.494 151.334 101.742 151.416 101.908 151.582L126.327 185.106L125.085 158.701C125.085 158.452 125.251 158.287 125.499 158.287C125.168 151.003 124.837 143.718 124.588 136.434C131.873 136.351 137.584 137.179 141.64 138.089C142.634 138.338 143.461 138.503 143.793 138.586C150.166 140.159 155.133 142.394 158.692 144.132C163.907 161.846 168.874 180.885 173.178 201.248C174.006 205.304 174.834 209.277 175.662 213.25C178.641 228.481 181.125 243.215 183.111 257.37C184.022 264.158 184.932 271.028 185.677 277.733Z" fill="#290060"/>
<path d="M127.24 186.348C127.24 186.514 127.157 186.679 126.992 186.762C126.909 186.762 126.909 186.762 126.826 186.762C126.661 186.762 126.578 186.679 126.495 186.596L101.248 151.996C101.083 151.83 101.166 151.582 101.331 151.416C101.497 151.251 101.745 151.334 101.911 151.499L126.33 185.024L125.088 158.618C125.088 158.37 125.254 158.204 125.502 158.204C125.75 158.204 125.916 158.37 125.916 158.618L127.24 186.348Z" fill="black"/>
</g>
<defs>
<clipPath id="clip0_3_15543">
<rect width="198.663" height="198.663" fill="white" transform="translate(0.579102 0.791992)"/>
</clipPath>
</defs>
</svg>
