<svg width="199" height="199" viewBox="0 0 199 199" fill="none" xmlns="http://www.w3.org/2000/svg">
<g clip-path="url(#clip0_3_15356)">
<rect width="198.663" height="198.663" transform="translate(0.000976562 0.187988)" fill="#ACC3FF"/>
<g clip-path="url(#clip1_3_15356)">
<path d="M193.366 222.029C193.366 269.939 154.526 308.779 106.616 308.779C58.7054 308.779 19.8662 269.939 19.8662 222.029C19.8662 192.525 34.4439 165.52 56.95 149.848C70.9907 140.071 88.2095 135.279 106.616 135.279C154.526 135.279 193.366 174.118 193.366 222.029Z" fill="white"/>
<path d="M97.4117 194.087C96.7659 194.279 96.024 194.148 95.452 193.704C94.5984 192.903 94.4798 191.62 95.2561 190.686L109.625 174.014C110.425 173.16 111.708 173.042 112.642 173.818C113.496 174.618 113.614 175.901 112.838 176.836L98.4697 193.508C98.1142 193.789 97.7346 193.99 97.4117 194.087Z" fill="#1F0D60"/>
<path d="M133.381 141.362C130.572 146.681 127.786 152.081 124.976 157.4C124.806 157.714 124.531 157.972 124.232 158.149C123.635 158.503 122.779 158.582 122.151 158.242C121.103 157.675 120.718 156.383 121.309 155.416L128.904 141.377C129.493 141.29 132.825 141.264 133.381 141.362Z" fill="#1F0D60"/>
<path d="M68.7581 183.464C68.4747 183.987 68.0385 184.293 67.5541 184.437C66.9891 184.606 66.4326 184.508 65.9087 184.224L52.8863 176.503C53.1473 175.019 53.3276 173.559 53.5646 171.994L67.9731 180.533C69.0448 181.181 69.3489 182.497 68.7581 183.464Z" fill="#1F0D60"/>
<path d="M127.555 89.6604C120.398 85.9919 111.591 88.8793 107.947 96.117C107.947 96.117 100.381 91.0763 105.285 66.2374C109.799 43.6244 80.5615 51.9825 72.3069 44.3345C68.9938 47.0792 66.1239 50.1313 63.7864 53.2006C62.0071 55.4883 57.9556 60.4744 54.9398 68.0522C54.0399 70.3416 53.0988 73.0828 52.3345 76.1228C47.9535 92.9838 46.9527 118.242 63.4961 128.342C66.8161 130.341 70.6377 131.664 74.8559 132.253L75.3028 147.324C75.6191 159.006 85.5002 168.279 97.1827 167.963C108.865 167.647 118.138 157.765 117.822 146.083L116.988 118.208C116.942 117.167 116.839 116.231 116.712 115.214C119.573 112.428 122.12 109.472 124.272 106.37C125.421 104.622 126.602 102.688 127.679 100.697C129.04 98.1827 130.247 95.4501 131.245 92.6042C130.247 91.3195 128.998 90.3732 127.555 89.6604Z" fill="#FF0F97"/>
<path d="M64.4556 100.286C64.3748 100.31 64.2941 100.334 64.1893 100.277L53.5801 96.2307C53.4754 96.174 53.3465 96.0366 53.3225 95.9559C53.2984 95.8752 53.3311 95.6897 53.3878 95.5849L67.1997 78.8147C67.313 78.6052 67.5793 78.6138 67.7888 78.7271C67.9983 78.8405 67.9898 79.1067 67.8764 79.3162L54.4526 95.6192L64.538 99.3821C64.7475 99.4955 64.9004 99.7136 64.787 99.9231C64.6737 100.133 64.617 100.237 64.4556 100.286Z" fill="black"/>
<path d="M66.2111 69.5856C66.3496 68.5247 63.0967 67.2252 58.9455 66.683C54.7943 66.1408 51.3167 66.5612 51.1781 67.6221C51.0396 68.683 54.2925 69.9825 58.4437 70.5247C62.5949 71.0669 66.0725 70.6465 66.2111 69.5856Z" fill="black"/>
<path d="M92.0147 72.9467C92.1533 71.8858 88.4891 70.5325 83.8305 69.9241C79.1719 69.3156 75.283 69.6823 75.1444 70.7432C75.0059 71.8041 78.6701 73.1573 83.3287 73.7658C87.9873 74.3743 91.8762 74.0075 92.0147 72.9467Z" fill="black"/>
<path d="M81.8618 130.693C79.4401 131.415 76.9463 131.894 74.4044 132.212C74.1622 132.284 73.9286 132.09 73.9372 131.824C73.9458 131.557 74.0591 131.348 74.3253 131.356C76.972 131.095 79.5226 130.511 82.025 129.766C87.2479 128.122 92.1016 125.534 96.4812 121.944C96.6993 121.791 96.8848 121.824 97.1184 122.018C97.352 122.212 97.2386 122.421 97.0445 122.655C92.5842 126.269 87.6739 128.962 82.2654 130.573C82.104 130.621 82.0233 130.645 81.8618 130.693Z" fill="black"/>
<path d="M134.208 96.6437C132.891 93.6965 130.572 91.2233 127.558 89.6604C120.401 85.992 111.593 88.8793 107.949 96.117C104.281 103.274 107.168 112.081 114.382 115.645C121.539 119.314 130.346 116.426 133.91 109.213C136.039 105.151 135.976 100.512 134.208 96.6437Z" fill="#FF0F97"/>
<path d="M115.217 108.717C115.055 108.765 114.846 108.652 114.717 108.514C114.564 108.296 114.677 108.086 114.896 107.934C116.252 107.178 117.151 105.768 117.145 104.275C117.221 102.759 116.417 101.24 115.055 100.504C114.95 100.447 114.822 100.31 114.854 100.124C114.806 99.9626 114.943 99.8338 115.024 99.8097L125.494 92.4723C125.712 92.3194 125.922 92.4328 126.051 92.5702C126.203 92.7883 126.09 92.9978 125.953 93.1266L116 100.134C117.272 101.161 117.996 102.704 117.944 104.301C117.965 106.14 116.896 107.865 115.217 108.717C115.217 108.717 115.298 108.693 115.217 108.717Z" fill="black"/>
<path d="M126.686 34.8158C120.338 13.505 98.096 25.5796 98.096 25.5796C86.2191 13.7376 69.8497 26.348 70.0286 38.1594C68.7696 38.3586 57.3739 40.5229 51.6411 51.3709C45.3329 63.5328 51.9095 75.284 52.3922 76.0191C53.1805 73.0598 54.0409 70.3426 54.9975 67.9484C58.0133 60.3706 62.0648 55.3846 63.8441 53.0968C66.1816 50.0275 69.0515 46.9754 72.3645 44.2307C80.6191 51.8787 109.856 43.5206 105.343 66.1336C100.438 90.9725 108.004 96.0132 108.004 96.0132C111.673 88.8562 120.399 85.993 127.613 89.5566C129.056 90.2694 130.304 91.2157 131.416 92.2909C132.656 93.5034 133.621 94.9736 134.344 96.5159C154.049 82.1209 140.855 63.201 140.855 63.201C148.346 39.9645 126.686 34.8158 126.686 34.8158Z" fill="black"/>
<path d="M60.5513 79.2127C61.755 78.8541 62.4401 77.5876 62.0815 76.3839C61.723 75.1802 60.4565 74.4951 59.2527 74.8537C58.049 75.2122 57.3639 76.4787 57.7225 77.6825C58.0811 78.8862 59.3476 79.5713 60.5513 79.2127Z" fill="black"/>
<path d="M80.4561 82.5994C81.6598 82.2408 82.3449 80.9743 81.9863 79.7706C81.6278 78.5669 80.3612 77.8818 79.1575 78.2404C77.9538 78.599 77.2687 79.8655 77.6273 81.0692C77.9859 82.2729 79.2524 82.958 80.4561 82.5994Z" fill="black"/>
<path d="M74.1617 111.631C69.5605 113.002 64.8304 110.104 64.8304 110.104C64.6208 109.991 64.5487 109.749 64.662 109.539C64.7754 109.33 65.0175 109.257 65.2271 109.371C65.2271 109.371 67.2658 110.609 69.8627 111.066C73.2823 111.629 76.0922 110.441 78.1789 107.71C78.2922 107.5 78.5584 107.509 78.768 107.622C78.9775 107.735 78.9689 108.002 78.8556 108.211C77.4885 110.112 75.7761 111.15 74.1617 111.631Z" fill="black"/>
<path d="M282.474 251.54C202.675 169.233 180.549 154.556 153.935 146.049C150.637 145.01 145.493 143.379 139.284 141.713C130.637 194.999 122.015 248.366 113.368 301.652C110.274 320.767 107.179 339.881 104.085 358.996C100.999 377.844 97.9935 396.668 94.9075 415.516C104.433 412.678 113.982 409.922 123.507 407.084C127.301 405.954 131.095 404.824 134.809 403.717C149.177 399.437 163.546 395.157 177.891 390.796C176.565 337.668 175.24 284.539 173.834 231.435C214.542 265.713 255.225 299.91 295.933 334.187C310.767 327.043 325.577 319.819 340.411 312.676C327.071 298.281 307.104 276.985 282.474 251.54Z" fill="#892BFF"/>
<path d="M56.486 149.943C56.2439 150.015 56.1065 150.144 55.8643 150.216C55.6462 150.369 55.3233 150.465 55.0244 150.642C54.1038 151.092 53.1025 151.566 51.9638 152.169C51.5843 152.37 51.2047 152.571 50.8251 152.772C50.4456 152.973 49.9853 153.198 49.6298 153.48C4.7412 178.628 -1.16957 223.102 -18.5594 225.206C-18.5594 225.206 -18.5594 225.206 -18.6401 225.23C-18.8016 225.279 -19.0678 225.27 -19.2292 225.318C-29.0809 225.88 -44.3208 213.37 -66.0231 146.713C-66.0231 146.713 -66.0231 146.713 -66.1039 146.737C-79.4816 147.559 -92.8353 148.461 -106.132 149.258C-106.132 149.258 -106.213 149.282 -106.294 149.306C-101.649 192.041 -89.5601 223.77 -80.2318 243.578C-66.9101 271.776 -54.7374 297.592 -32.5985 301.104C-20.6136 302.983 -9.67995 297.792 1.12137 290.092C6.33225 286.343 11.5036 282.166 16.7076 277.803C17.6935 276.982 18.6793 276.161 19.6411 275.259C19.9159 275.002 20.2714 274.72 20.5462 274.462C19.7493 277.688 18.8958 281.018 18.0663 284.429C16.3833 291.171 14.611 298.202 13.0739 304.548C9.2768 319.829 5.45565 335.029 1.65855 350.31C3.07205 349.45 4.50961 348.67 5.92311 347.809C14.1774 343.065 22.916 338.177 32.2438 333.201C35.3536 306.173 38.6902 278.725 42.4389 250.891C42.9215 247.495 43.3233 244.124 43.8058 240.728C47.8156 211.41 52.0504 182.552 56.4535 154.259L57.2692 149.622C57.0271 149.694 56.8089 149.847 56.486 149.943Z" fill="#892BFF"/>
</g>
</g>
<defs>
<clipPath id="clip0_3_15356">
<rect width="198.663" height="198.663" fill="white" transform="translate(0.000976562 0.187988)"/>
</clipPath>
<clipPath id="clip1_3_15356">
<rect width="745.844" height="757.721" fill="white" transform="translate(-338.591 140.113) rotate(-16.5886)"/>
</clipPath>
</defs>
</svg>
