<svg width="200" height="200" viewBox="0 0 200 200" fill="none" xmlns="http://www.w3.org/2000/svg">
<g clip-path="url(#clip0_3_15588)">
<rect width="198.663" height="198.663" transform="translate(0.446289 0.791992)" fill="#8DBBFF"/>
<path d="M138.727 132.893C134.249 136.811 128.777 139.299 122.869 140.605V140.791L125.854 160.008C126.476 163.802 126.289 167.719 125.108 171.451C122.744 178.851 116.961 184.822 109.622 187.185C102.657 189.424 94.8834 188.242 88.6022 184.324C82.3211 180.468 78.2165 173.876 77.0971 166.6L74.2986 148.627L71.3135 129.473C74.5473 126.363 76.6618 122.134 76.9727 117.346C77.0971 114.983 76.8484 112.619 76.1643 110.505C76.2887 95.1441 76.413 79.7833 76.5374 64.4224C86.3634 59.696 96.7491 55.0318 107.757 50.4297C115.406 47.2581 122.869 44.273 130.145 41.5366C154.337 64.1737 160.245 113.925 138.727 132.893Z" fill="#FF1EAD"/>
<path d="M137.848 62.6749C143.315 60.8296 147.222 57.7771 146.574 55.8571C145.926 53.937 140.968 53.8765 135.501 55.7218C130.034 57.5671 126.127 60.6195 126.775 62.5396C127.423 64.4596 132.38 64.5202 137.848 62.6749Z" fill="black"/>
<path d="M97.0933 77.6573C102.457 75.5309 106.2 72.2801 105.454 70.3963C104.707 68.5126 99.7531 68.7092 94.3891 70.8355C89.0251 72.9618 85.2821 76.2126 86.0289 78.0964C86.7756 79.9802 91.7293 79.7836 97.0933 77.6573Z" fill="black"/>
<path d="M119.387 118.9C112.359 118.9 106.016 112.992 105.954 112.93C105.829 112.806 105.829 112.557 105.954 112.433C106.078 112.308 106.327 112.246 106.451 112.433C106.576 112.557 118.392 123.565 127.347 114.796C127.471 114.672 127.72 114.672 127.844 114.796C127.969 114.92 127.969 115.169 127.844 115.293C125.17 117.968 122.247 118.9 119.387 118.9Z" fill="black"/>
<path d="M130.643 97.8186L122.496 82.9553L119.76 77.9179L115.406 69.9576C115.282 69.7711 115.095 69.7089 114.909 69.8333C114.722 69.9576 114.66 70.1442 114.784 70.3308L129.834 97.8186L116.09 102.607C115.904 102.669 115.779 102.918 115.842 103.105C115.904 103.229 116.028 103.354 116.215 103.354C116.277 103.354 116.277 103.354 116.339 103.354L130.456 98.4405C130.581 98.4405 130.643 98.3161 130.705 98.1918C130.705 98.0052 130.705 97.8808 130.643 97.8186Z" fill="black"/>
<path d="M114.972 141.849C109.375 141.849 102.223 140.854 94.9472 137.309C94.7606 137.247 94.6984 136.998 94.7606 136.811C94.8228 136.625 95.0716 136.563 95.2582 136.625C106.577 142.16 117.398 141.413 122.808 140.418C122.995 140.356 123.181 140.543 123.244 140.729C123.306 140.916 123.119 141.103 122.933 141.165C120.942 141.538 118.206 141.849 114.972 141.849Z" fill="black"/>
<path d="M130.083 41.4745C122.807 44.2108 115.344 47.1959 107.695 50.3676C96.6874 54.9696 86.3017 59.6339 76.4758 64.3603C76.3514 79.7211 76.227 95.082 76.1026 110.443C73.8638 103.415 67.5205 98.1293 59.6846 97.6318C58.5651 97.5696 57.5079 97.5696 56.4507 97.6939C56.0776 96.5123 55.7666 95.3307 55.4557 94.1491C55.3935 93.776 55.2691 93.465 55.2069 93.0919C55.2069 93.0297 55.2069 93.0297 55.1447 92.9675C55.0203 92.2834 54.8338 91.6615 54.7094 90.9774C54.6472 90.6043 54.585 90.2934 54.5228 89.9202C54.4606 89.5471 54.3984 89.2361 54.3362 88.863C54.1497 87.7436 53.9631 86.6242 53.8387 85.5048C53.7765 84.8829 53.7143 84.261 53.6522 83.6391C53.59 83.2659 53.59 82.8928 53.59 82.5197C53.59 82.2087 53.5278 81.8978 53.5278 81.649C53.5278 81.4624 53.5278 81.3381 53.5278 81.1515C53.5278 80.8405 53.5278 80.5296 53.4656 80.2186C53.4034 79.0992 53.4034 78.042 53.4656 76.9848C53.4656 76.6738 53.4656 76.3629 53.4656 75.9897C53.4656 75.3678 53.5278 74.7459 53.5278 74.1862V73.9375C53.5278 73.7509 53.5278 73.6265 53.59 73.44C53.59 73.129 53.6522 72.8181 53.6522 72.5071C53.6522 72.2584 53.7143 72.0718 53.7143 71.823C53.7143 71.7608 53.7143 71.6986 53.7143 71.6986C54.3984 65.6662 56.7616 54.9074 64.9085 44.9571C76.7867 31.7729 97.869 26.238 114.598 32.0838C119.2 33.7008 123.429 36.1883 127.285 39.2978C128.342 39.9197 129.213 40.666 130.083 41.4745Z" fill="black"/>
<path d="M114.66 79.9697C118.205 88.1166 114.474 97.756 106.327 101.363C98.18 104.908 88.5406 101.176 84.9336 93.0296C94.8218 88.6141 104.772 84.323 114.66 79.9697Z" fill="#D5E0EA"/>
<path d="M140.406 87.3708C133.938 89.7962 126.848 87.8062 122.495 82.8932L119.759 77.8558C129.834 74.0622 139.846 70.2687 149.921 66.4751C153.03 74.8085 148.739 84.2614 140.406 87.3708Z" fill="#D5E0EA"/>
<path d="M113.169 81.7736C113.044 81.7736 112.858 81.7114 112.795 81.5248C112.111 79.7835 112.174 77.8556 112.982 76.1143C113.728 74.5596 115.097 73.378 116.651 72.8805C119.636 72.0098 122.932 73.6889 124.238 76.674C124.301 76.8606 124.238 77.1094 124.052 77.1715C123.865 77.2337 123.617 77.1715 123.554 76.985C122.435 74.3108 119.45 72.8183 116.9 73.6267C115.532 74.0621 114.35 75.0571 113.666 76.4875C112.92 77.98 112.858 79.7213 113.48 81.2761C113.542 81.4626 113.48 81.7114 113.293 81.7736C113.293 81.7736 113.231 81.7736 113.169 81.7736Z" fill="black"/>
<path d="M105.27 102.109C105.145 102.109 105.083 102.047 105.021 101.985C104.15 101.052 99.9834 96.2014 102.16 92.7187C103.839 90.0446 102.595 86.8107 102.036 85.5047C101.974 85.3182 102.036 85.0694 102.222 85.0072C102.409 84.945 102.658 85.0072 102.72 85.1938C103.404 86.562 104.71 90.1068 102.844 93.0919C100.916 96.1392 104.772 100.617 105.581 101.487C105.705 101.612 105.705 101.861 105.581 101.985C105.456 102.109 105.332 102.109 105.27 102.109Z" fill="white"/>
<path d="M138.978 88.2416C138.853 88.2416 138.729 88.1794 138.667 88.1172C137.361 86.4381 134.624 82.2092 136.739 79.2241C138.853 76.239 137.112 72.2588 136.739 71.5125C136.677 71.326 136.739 71.0772 136.925 71.015C137.112 70.9528 137.361 71.015 137.423 71.2016C137.796 72.0101 139.724 76.3633 137.361 79.6594C135.557 82.2092 138.107 86.1271 139.289 87.6819C139.413 87.8684 139.413 88.055 139.226 88.1794C139.164 88.2416 139.04 88.2416 138.978 88.2416Z" fill="white"/>
<path d="M89.7848 94.3363L71.6876 103.105C71.5011 102.918 71.3145 102.732 71.1279 102.545L89.4739 93.6522C89.6605 93.59 89.9092 93.6522 89.9714 93.8388C90.0958 94.0254 89.9714 94.2119 89.7848 94.3363Z" fill="black"/>
<path d="M108.505 92.2221C110.291 92.2221 111.739 90.7743 111.739 88.9883C111.739 87.2022 110.291 85.7544 108.505 85.7544C106.719 85.7544 105.271 87.2022 105.271 88.9883C105.271 90.7743 106.719 92.2221 108.505 92.2221Z" fill="black"/>
<path d="M143.269 78.416C145.055 78.416 146.503 76.9681 146.503 75.1821C146.503 73.3961 145.055 71.9482 143.269 71.9482C141.483 71.9482 140.035 73.3961 140.035 75.1821C140.035 76.9681 141.483 78.416 143.269 78.416Z" fill="black"/>
<path d="M76.165 110.443C75.2943 107.644 73.7396 105.157 71.6873 103.104C71.5007 102.918 71.3142 102.731 71.1276 102.545C68.1425 99.7461 64.1624 97.9426 59.7469 97.6317C58.6275 97.5695 57.5702 97.5695 56.513 97.6939C47.7443 98.6267 40.7168 105.779 40.0949 114.858C39.4109 125.057 47.1224 133.826 57.3215 134.51C62.6698 134.883 67.7072 132.893 71.3142 129.473C74.548 126.363 76.6625 122.134 76.9734 117.346C77.0978 114.858 76.849 112.557 76.165 110.443Z" fill="#FF1EAD"/>
<path d="M69.1384 124.062C69.0762 124.062 68.9519 124.062 68.8897 124C68.0812 123.44 66.713 122.134 66.2155 120.02C65.4071 116.786 67.2727 114.236 68.0812 113.241L49.984 103.602C49.7974 103.477 49.7353 103.291 49.8596 103.104C49.984 102.918 50.1706 102.855 50.3572 102.98L68.8897 112.868C69.0141 112.93 69.0762 113.054 69.0762 113.117C69.0762 113.241 69.0762 113.365 68.9519 113.428C68.8275 113.552 66.0911 116.288 66.9618 119.833C67.3971 121.699 68.6409 122.88 69.3872 123.378C69.5738 123.502 69.5738 123.751 69.4494 123.876C69.3872 124 69.2628 124.062 69.1384 124.062Z" fill="black"/>
<path d="M397.871 167.595C396.254 170.332 393.02 171.513 390.097 170.643C386.366 184.573 382.137 196.514 378.095 206.402C377.784 207.21 377.411 208.019 377.1 208.827C377.037 208.951 376.975 209.076 376.913 209.2C376.105 211.066 375.358 212.807 374.612 214.549C374.488 214.86 374.301 215.233 374.177 215.544C373.866 216.228 373.555 216.85 373.306 217.471C373.119 217.907 372.871 218.404 372.684 218.84C372.435 219.399 372.187 219.959 371.938 220.519C371.689 221.016 371.503 221.452 371.254 221.949C369.326 226.116 367.46 229.972 365.47 233.703C364.724 235.071 363.978 236.439 363.231 237.807C362.858 238.429 362.485 239.051 362.112 239.673C361.739 240.295 361.366 240.917 360.992 241.539C360.682 242.036 360.371 242.472 360.122 242.969C359.624 243.716 359.189 244.4 358.691 245.146C358.194 245.892 357.696 246.576 357.137 247.323C356.017 248.815 354.898 250.37 353.654 251.862C353.094 252.546 352.535 253.168 351.975 253.852C351.602 254.288 351.229 254.785 350.793 255.221C343.206 263.865 331.266 277.485 311.116 284.574C285.308 293.654 261.8 286.502 248.927 282.646C236.862 278.977 227.471 274.126 221.377 270.519C221.19 282.584 221.252 295.022 221.563 307.957C221.625 311.129 221.75 314.301 221.874 317.472C221.936 319.089 221.999 320.706 222.061 322.323C222.683 338.617 223.74 354.289 225.108 369.214C225.17 370.023 225.232 370.831 225.295 371.64C225.046 371.702 224.859 371.702 224.611 371.764C220.879 372.386 217.148 373.008 213.416 373.63C209.436 374.252 205.518 374.936 201.538 375.62C197.931 376.242 194.324 376.801 190.717 377.423C182.073 378.854 173.428 380.346 164.784 381.777C159.374 382.709 153.901 383.642 148.49 384.575C133.938 387.063 119.386 389.612 104.895 392.162C101.91 392.66 98.9252 393.219 95.8779 393.779C94.5719 394.028 93.2659 394.277 91.8977 394.463C85.9275 395.521 79.8951 396.578 73.9249 397.697C68.2034 398.754 62.4198 399.749 56.6983 400.807C53.3401 401.428 49.9819 402.05 46.5614 402.672C42.5813 403.419 38.6011 404.103 34.621 404.849V370.645C-17.7427 382.772 -38.4519 373.132 -47.7181 362.622C-48.34 361.938 -48.8997 361.192 -49.4595 360.446C-49.5838 360.321 -49.7082 360.135 -49.8326 359.948C-50.0192 359.699 -50.2057 359.388 -50.3923 359.14C-50.7032 358.642 -51.0142 358.145 -51.3251 357.647C-51.5117 357.274 -51.7605 356.963 -51.947 356.59C-52.258 356.03 -52.5689 355.47 -52.8799 354.911C-53.0043 354.6 -53.1908 354.351 -53.3152 354.04C-53.3152 353.978 -53.3774 353.978 -53.3774 353.916C-53.5018 353.605 -53.6262 353.356 -53.7505 353.045C-53.8749 352.734 -54.0615 352.423 -54.1859 352.112C-54.4346 351.49 -54.6834 350.868 -54.9321 350.246C-55.0565 349.873 -55.1809 349.5 -55.3053 349.127C-55.6784 348.132 -55.9894 347.075 -56.2381 346.018C-56.3625 345.644 -56.4247 345.333 -56.5491 344.96C-56.6113 344.649 -56.6735 344.338 -56.7978 344.027C-56.7978 343.903 -56.86 343.841 -56.86 343.716C-56.9222 343.406 -56.9844 343.095 -57.1088 342.784C-57.171 342.411 -57.2332 342.037 -57.3575 341.664C-57.4197 341.229 -57.5441 340.856 -57.6063 340.42C-57.7307 339.861 -57.7929 339.301 -57.9173 338.741C-58.1038 337.622 -58.2282 336.44 -58.3526 335.259C-58.4148 334.637 -58.477 334.077 -58.5391 333.455C-58.6013 333.082 -58.6013 332.647 -58.6635 332.211C-58.7257 331.403 -58.7879 330.532 -58.7879 329.724C-58.7879 329.288 -58.8501 328.915 -58.8501 328.48C-58.8501 328.045 -58.8501 327.609 -58.8501 327.174C-58.8501 326.739 -58.8501 326.241 -58.8501 325.806C-58.8501 325.246 -58.8501 324.624 -58.8501 324.065C-58.8501 323.567 -58.8501 323.07 -58.7879 322.572C-58.7879 322.385 -58.7879 322.199 -58.7879 322.012C-58.7879 321.701 -58.7879 321.453 -58.7257 321.142C-58.7257 320.769 -58.7257 320.395 -58.6635 319.96C-58.6635 319.898 -58.6635 319.836 -58.6635 319.836C-58.6635 319.338 -58.6013 318.778 -58.5391 318.219C-58.5391 318.094 -58.5391 317.97 -58.5391 317.846C-58.477 317.348 -58.477 316.851 -58.4148 316.291C-58.2904 314.487 -58.0416 312.622 -57.7929 310.756C-57.7307 310.321 -57.6685 309.823 -57.6063 309.388C-57.4819 308.517 -57.3575 307.709 -57.2332 306.838C-57.2332 306.776 -57.2332 306.651 -57.171 306.589C-57.1088 306.216 -57.0466 305.781 -56.9844 305.408C-56.86 304.661 -56.7356 303.915 -56.6113 303.169C-56.5491 302.92 -56.4869 302.609 -56.4869 302.36C-56.4247 302.049 -56.3625 301.676 -56.3003 301.365C-56.2381 300.93 -56.1138 300.432 -56.0516 299.997C-55.865 299.064 -55.6784 298.131 -55.4297 297.261C-55.1187 295.893 -54.8078 294.587 -54.4968 293.218C-54.4968 293.156 -54.4968 293.156 -54.4968 293.094C-54.3724 292.597 -54.2481 292.161 -54.1237 291.726C-53.8749 290.793 -53.6262 289.86 -53.3774 288.927C-53.0665 287.87 -52.7555 286.813 -52.4446 285.756C-52.1958 284.947 -51.947 284.077 -51.6983 283.268C-51.5739 282.833 -51.4495 282.46 -51.3251 282.024C-51.1386 281.465 -51.0142 280.967 -50.8276 280.407C-50.7032 279.91 -50.5167 279.475 -50.3301 278.977C-50.2057 278.604 -50.0814 278.169 -49.957 277.795C-49.0863 275.308 -48.2157 272.82 -47.2206 270.333C-46.8475 269.4 -46.4743 268.405 -46.1012 267.41C-45.4793 265.979 -44.9196 264.487 -44.2977 263.057C-44.1111 262.559 -43.8624 262.061 -43.6758 261.626C-43.0539 260.134 -42.3698 258.703 -41.6857 257.273C-41.437 256.775 -41.2504 256.278 -41.0017 255.842C-40.0688 253.852 -39.136 251.925 -38.1409 249.934C-37.8922 249.437 -37.6434 248.939 -37.3947 248.442C-37.0215 247.758 -36.6484 247.012 -36.2752 246.327C-36.1509 246.017 -35.9643 245.706 -35.7777 245.395C-35.5912 244.959 -35.3424 244.586 -35.0936 244.151C-34.8449 243.716 -34.6583 243.28 -34.4096 242.907C-33.8498 241.912 -33.2901 240.855 -32.6682 239.86C-32.4195 239.424 -32.1707 238.927 -31.922 238.492C-30.305 235.693 -28.6259 232.957 -26.8846 230.22C-26.6358 229.847 -26.3871 229.412 -26.1383 229.039C-25.4542 227.982 -24.7701 226.986 -24.1483 225.929C-23.8373 225.494 -23.5885 225.059 -23.2776 224.623C-20.8522 221.016 -18.3024 217.534 -15.6905 214.051C-14.7576 212.807 -13.8248 211.626 -12.8297 210.382C-12.4566 209.884 -12.0835 209.449 -11.7103 209.014C-11.3994 208.641 -11.1506 208.267 -10.8397 207.956C-10.6531 207.708 -10.4665 207.521 -10.2799 207.272C-8.10331 204.66 -5.92667 202.111 -3.62565 199.561C-3.25252 199.126 -2.81718 198.69 -2.44404 198.255C-1.20025 196.887 0.105732 195.519 1.41172 194.15C1.78485 193.777 2.0958 193.404 2.46894 193.093C2.90427 192.658 3.2774 192.222 3.71273 191.849C8.43915 187.123 13.4143 182.645 18.6383 178.416C19.0736 178.043 19.5711 177.67 20.0064 177.297C20.5661 176.862 21.1258 176.426 21.6856 175.991C22.0587 175.68 22.494 175.369 22.9293 175.058C23.2403 174.809 23.5512 174.561 23.8622 174.374C24.0488 174.25 24.2353 174.063 24.4219 173.939C25.0438 173.503 25.6657 173.006 26.2876 172.571C26.6607 172.322 27.0339 172.011 27.407 171.762C27.9045 171.389 28.402 171.078 28.8996 170.705C28.8996 170.705 28.8996 170.705 28.9618 170.705C29.3349 170.456 29.708 170.207 30.0812 169.959C30.2055 169.896 30.3299 169.772 30.4543 169.71C30.9518 169.399 31.4493 169.026 32.009 168.715C32.5066 168.342 33.0663 168.031 33.5638 167.72C33.9369 167.471 34.3101 167.222 34.6832 166.973C34.9941 166.725 35.3673 166.538 35.7404 166.289C36.3623 165.916 36.9842 165.543 37.6061 165.17C37.9793 164.921 38.4146 164.672 38.7877 164.424C42.5813 162.185 46.4992 160.07 50.4794 158.08C50.7903 157.956 51.1013 157.769 51.35 157.645C51.9098 157.396 52.4073 157.147 52.967 156.899C56.4496 155.282 63.7258 152.048 73.8627 148.938L76.6612 166.911C77.7807 174.187 81.9474 180.78 88.1663 184.635C94.4475 188.491 102.283 189.735 109.186 187.496C116.463 185.133 122.246 179.163 124.672 171.762C125.853 168.093 126.04 164.175 125.418 160.319L122.433 141.103C132.694 140.978 143.702 141.787 155.082 144.088C227.72 158.329 251.539 218.653 292.024 210.755C292.77 210.631 293.579 210.444 294.325 210.257C294.574 210.195 294.823 210.133 295.071 210.071C295.32 210.009 295.569 209.947 295.88 209.822C296.129 209.76 296.377 209.698 296.626 209.573H296.688C296.688 209.573 296.688 209.573 296.751 209.573L297.124 209.449C297.248 209.387 297.372 209.387 297.497 209.325C297.746 209.262 297.994 209.138 298.243 209.076C298.554 208.951 298.865 208.827 299.238 208.703C299.487 208.641 299.673 208.516 299.922 208.392C300.171 208.267 300.482 208.143 300.731 208.019C302.037 207.459 303.343 206.775 304.711 206.029C304.773 206.029 304.835 205.966 304.835 205.966C305.084 205.842 305.333 205.655 305.644 205.531C306.203 205.22 306.763 204.847 307.385 204.474C307.696 204.287 307.945 204.101 308.193 203.914C308.504 203.728 308.753 203.541 309.064 203.354C309.624 202.981 310.184 202.546 310.743 202.111C311.054 201.924 311.303 201.675 311.614 201.427C312.733 200.494 313.915 199.499 315.034 198.441C315.283 198.193 315.532 197.944 315.781 197.757C316.092 197.446 316.403 197.135 316.776 196.825C317.024 196.638 317.211 196.389 317.398 196.14C317.584 195.954 317.771 195.767 317.957 195.581C318.268 195.27 318.579 194.897 318.89 194.586C320.507 192.844 322.124 190.916 323.741 188.802C323.99 188.491 324.238 188.118 324.487 187.807C324.798 187.372 325.171 186.936 325.482 186.501C325.793 186.128 326.042 185.693 326.353 185.257C326.353 185.195 326.415 185.133 326.477 185.133C326.726 184.76 326.975 184.387 327.224 184.013C327.286 183.951 327.348 183.827 327.41 183.765C327.659 183.392 327.908 183.081 328.094 182.707C328.343 182.334 328.592 181.961 328.84 181.588C328.903 181.526 328.965 181.401 328.965 181.339C329.276 180.904 329.525 180.406 329.835 179.971C330.395 179.038 331.017 178.105 331.577 177.11C331.888 176.551 332.261 175.991 332.572 175.369C332.821 174.934 333.069 174.498 333.318 174.063C333.567 173.69 333.753 173.255 334.002 172.881C334.375 172.197 334.748 171.575 335.059 170.891C335.308 170.394 335.557 169.896 335.806 169.399C335.868 169.274 335.93 169.15 335.992 169.026C336.241 168.528 336.49 168.031 336.739 167.533C337.609 165.792 338.48 163.988 339.35 162.123C339.661 161.501 339.91 160.879 340.221 160.257C340.781 158.951 341.341 157.645 341.962 156.339C342.398 155.282 342.895 154.225 343.331 153.105C344.263 150.742 345.259 148.317 346.191 145.767L343.455 144.212C340.283 142.346 339.164 138.242 341.03 135.07C342.273 132.956 344.512 131.712 346.875 131.712C347.995 131.712 349.176 132.023 350.234 132.583L350.731 132.894L354.587 135.132L354.898 135.319L393.456 157.583H393.518L395.57 158.764C398.555 160.319 399.674 164.424 397.871 167.595Z" fill="#290060"/>
<path d="M30.4533 169.647C30.4533 172.197 28.3389 174.311 25.7891 174.311C25.2294 174.311 24.7319 174.187 24.2344 174C24.4209 173.876 24.6075 173.69 24.7941 173.565C25.416 173.13 26.0379 172.632 26.6598 172.197C27.0329 171.948 27.406 171.637 27.7792 171.388C28.2767 171.015 28.7742 170.704 29.2717 170.331C29.2717 170.331 29.2717 170.331 29.3339 170.331C29.7071 170.082 30.0802 169.834 30.4533 169.585C30.4533 169.585 30.4533 169.647 30.4533 169.647Z" fill="#D5E0EA"/>
<path d="M186.303 174.311C188.879 174.311 190.967 172.223 190.967 169.647C190.967 167.071 188.879 164.983 186.303 164.983C183.727 164.983 181.639 167.071 181.639 169.647C181.639 172.223 183.727 174.311 186.303 174.311Z" fill="#D5E0EA"/>
<path d="M102.473 188.615C97.684 188.615 92.7088 187.247 88.4799 184.572C82.1988 180.717 77.9699 174.124 76.7883 166.6L73.9897 148.627C73.9275 148.44 74.1141 148.254 74.3007 148.191C74.4873 148.191 74.6738 148.316 74.736 148.502L77.5346 166.475C78.654 173.814 82.8207 180.157 88.9153 183.95C95.2586 187.868 102.97 188.926 109.624 186.749C116.776 184.448 122.498 178.664 124.861 171.264C125.98 167.843 126.229 163.925 125.607 160.007C125.545 159.821 125.732 159.634 125.918 159.572C126.105 159.51 126.291 159.697 126.353 159.883C126.975 163.925 126.727 167.906 125.545 171.45C123.057 179.1 117.212 185.008 109.811 187.433C107.386 188.242 104.96 188.615 102.473 188.615Z" fill="#D5E0EA"/>
</g>
<defs>
<clipPath id="clip0_3_15588">
<rect width="198.663" height="198.663" fill="white" transform="translate(0.446289 0.791992)"/>
</clipPath>
</defs>
</svg>
