<svg width="199" height="200" viewBox="0 0 199 200" fill="none" xmlns="http://www.w3.org/2000/svg">
<g clip-path="url(#clip0_3_15145)">
<rect width="198.663" height="198.663" transform="translate(0.000976562 0.791992)" fill="#C2F03F"/>
<path d="M183.808 187.303L183.344 189.665L181.968 196.341L3.23409 208.686C10.1871 191.701 22.5702 176.897 36.9384 165.104C58.2507 147.714 87.4265 142.851 114.283 145.457C139.306 147.882 166.075 164.531 181.112 183.634C182.028 184.81 182.952 186.052 183.808 187.303Z" fill="#FE4E4E"/>
<path d="M130.146 99.4511C128.197 98.1808 124.727 98.4882 123.58 100.847C121.513 105.191 119.438 109.467 117.304 113.819C116.216 116.101 116.356 118.848 118.686 120.415C120.635 121.685 124.105 121.378 125.252 119.019C127.319 114.675 129.394 110.4 131.528 106.047C132.608 103.697 132.468 100.95 130.146 99.4511Z" fill="#23355F"/>
<path d="M121.9 69.551C121.88 67.7508 121.793 65.9594 121.496 64.1258C121.462 63.8529 121.352 63.5204 121.318 63.2475C121.208 62.915 121.022 62.5231 120.946 62.4635C120.937 62.3953 120.819 61.9946 120.633 61.6026C120.464 61.3471 120.304 61.1599 120.135 60.9044C120.051 60.7766 119.713 60.2656 119.384 59.8229C119.308 59.7634 119.232 59.7038 119.156 59.6443C118.625 59.2277 116.963 57.4319 116.222 57.5278C117.84 58.4278 118.077 58.6746 117.116 58.1055C116.896 57.9952 116.753 57.9444 116.534 57.8341C115.885 57.5713 115.228 57.2403 114.503 56.918C113.787 56.664 113.138 56.4013 112.421 56.1473C112.202 56.037 111.916 55.9354 111.764 55.8163C110.77 55.5289 109.599 55.4724 108.765 55.3723C105.757 54.8599 102.775 54.5523 99.7513 54.4581C99.0606 54.4088 98.3783 54.4277 97.6202 54.3871C95.7339 54.6311 95.9275 54.5367 96.6011 54.4496C95.4388 54.4612 94.268 54.4046 93.1731 54.4076C88.0608 54.5835 82.9069 54.9729 77.8116 55.2852C74.7935 59.0731 72.6946 63.6434 71.9694 68.7986L66.8163 104.271C65.232 115.154 70.0818 125.482 78.4708 131.261C78.6409 138.103 78.7436 144.954 78.9137 151.796C79.1422 164.039 92.766 172.815 103.747 171.395C112.101 170.315 117.888 165.128 120.868 158.295C122.085 155.433 122.577 152.25 122.396 149.153C121.482 135.265 122.835 121.431 125.207 107.535C126.567 99.2467 127.646 88.1523 131.255 79.2266C126.705 78.4283 121.848 74.6192 121.9 69.551Z" fill="#F7ACA9"/>
<path d="M113.613 46.6432L104.029 45.2467C94.163 43.817 84.7729 47.7582 78.7574 54.8464C78.9108 54.9644 79.1408 55.1415 79.3027 55.3273C88.8921 66.0045 104.869 55.6588 115.867 63.2699C123.074 68.2681 119.225 78.7939 120.818 85.8794C123.364 86.8626 124.879 87.3579 124.896 87.4932C128.28 85.2764 132.159 83.6843 136.328 82.743L137.036 77.9781C139.261 62.8457 128.765 48.846 113.613 46.6432Z" fill="#23355F"/>
<path d="M121.822 87.9366C140.799 79.9614 145.305 82.2084 146.847 89.987C148.39 97.7656 142.72 102.678 127.977 107.504C113.234 112.33 121.822 87.9366 121.822 87.9366Z" fill="#F7ACA9"/>
<path d="M124.395 98.072C127.664 93.7696 132.37 90.9272 137.734 89.9836C139.229 89.7284 139.521 92.0146 138.035 92.337C133.285 93.2038 129.169 95.7676 126.258 99.6153C125.362 100.752 123.507 99.276 124.395 98.072Z" fill="#23355F"/>
<path d="M77.9347 81.109C78.9679 80.0732 80.854 81.494 79.7621 82.6068C76.8473 85.5513 70.5915 93.5078 77.5346 96.008C78.9652 96.5165 78.0094 98.7217 76.5787 98.2132C73.6416 97.1367 72.1235 94.2806 72.1444 91.1558C72.2481 87.049 75.272 83.8821 77.9347 81.109Z" fill="#23355F"/>
<path d="M79.1265 130.035C85.9037 131.306 92.7586 132.093 99.631 132.472C101.173 132.555 100.768 134.839 99.2945 134.749C92.4221 134.37 85.5587 133.515 78.79 132.311C77.2906 132.02 77.6271 129.744 79.1265 130.035Z" fill="#23355F"/>
<path d="M94.3033 76.6175C95.7771 77.3241 97.3192 78.022 98.793 78.7285C100.19 79.3761 99.2225 81.5602 97.8254 80.9126C96.3515 80.2061 94.8097 79.5081 93.3358 78.8016C91.9982 78.0778 92.8976 75.9023 94.3033 76.6175Z" fill="#23355F"/>
<path d="M71.0986 69.7142L74.6341 70.2287C76.1201 70.4528 75.7889 72.751 74.303 72.5269L70.7675 72.0124C69.2218 71.8641 69.6127 69.4901 71.0986 69.7142Z" fill="#23355F"/>
<path d="M80.261 108.416C81.1086 111.811 85.1489 114.184 88.5116 112.866C91.8742 111.547 93.2396 107.048 91.5322 103.968C90.815 102.685 92.704 101.21 93.4297 102.56C95.9225 106.914 94.3548 113.088 89.4087 115.018C84.4626 116.949 79.0411 113.515 77.8679 108.65C77.5509 107.248 79.9354 106.946 80.261 108.416Z" fill="#23355F"/>
<path d="M70.3161 77.8653C67.3554 78.4506 68.22 83.0991 71.1807 82.5138C74.2178 81.9876 73.2768 77.28 70.3161 77.8653Z" fill="#23355F"/>
<path d="M92.4402 83.7661C89.4795 84.3514 90.344 88.9998 93.3048 88.4145C96.342 87.8884 95.4095 83.2487 92.4402 83.7661Z" fill="#23355F"/>
<path d="M116.832 65.2807C117.22 72.3258 117.049 79.235 116.335 86.1453C115.704 92.071 123.155 93.0489 123.719 87.132C124.442 80.2901 124.604 73.3125 124.216 66.2674C123.887 60.2581 116.494 59.203 116.832 65.2807Z" fill="#23355F"/>
<path d="M21.5008 183.133L2.98785 184.311C-1.64038 184.606 -1.16789 191.589 3.46035 191.295L21.9733 190.117C26.6016 189.822 26.1291 182.839 21.5008 183.133Z" fill="#97B1FE"/>
<rect width="100.159" height="35.5938" transform="translate(59.2407 196.014) rotate(-7.70874)" fill="#FE4E4E"/>
</g>
<defs>
<clipPath id="clip0_3_15145">
<rect width="198.663" height="198.663" fill="white" transform="translate(0.000976562 0.791992)"/>
</clipPath>
</defs>
</svg>
