<svg width="199" height="200" viewBox="0 0 199 200" fill="none" xmlns="http://www.w3.org/2000/svg">
<g clip-path="url(#clip0_3_15454)">
<rect width="198.663" height="198.663" transform="translate(0.290039 0.791992)" fill="#FFEE56"/>
<path d="M271.709 117.846C265.203 118.233 258.697 118.543 252.191 118.931C249.17 119.085 235.694 119.782 232.673 120.015C232.131 130.626 231.279 144.722 229.807 161.297C225.78 206.528 222.45 209.704 219.971 210.556C209.748 213.964 202.157 182.054 167.304 162.458C163.199 160.135 159.017 158.198 154.912 156.572C145.463 152.777 136.169 150.686 127.959 149.524C126.642 149.369 125.403 149.137 124.241 149.059C124.164 149.059 124.086 149.137 124.009 149.137V149.214C119.516 162.458 115.102 175.78 110.61 189.024C108.906 194.136 107.202 199.17 105.498 204.282C96.9781 204.05 88.4584 203.74 80.0162 203.508C80.0936 203.198 80.0936 202.888 80.1711 202.423C80.2485 202.191 80.2485 201.881 80.326 201.571C80.4034 201.184 80.4809 200.797 80.4809 200.41C80.5583 200.1 80.5583 199.79 80.6358 199.403C80.7132 199.17 80.7132 198.938 80.7907 198.628C80.7907 198.396 80.8681 198.163 80.8681 197.931C81.1005 196.46 81.4103 194.756 81.7201 192.897C81.7976 192.355 81.875 191.89 81.9525 191.348C82.0299 191.038 82.0299 190.806 82.1074 190.496C82.1074 190.263 82.1848 190.108 82.1848 189.876C82.2623 189.257 82.4172 188.637 82.4946 188.017C82.4946 187.94 82.4946 187.862 82.4946 187.785C82.5721 187.165 82.727 186.546 82.8044 185.926C83.5789 181.047 84.5083 175.703 85.2829 170.668C85.3603 170.281 85.4378 169.971 85.4378 169.584C85.5927 168.499 85.7476 167.493 85.9799 166.486C86.0574 166.098 86.1348 165.711 86.1348 165.324C86.2123 165.014 86.2123 164.782 86.2897 164.472C86.3672 163.93 86.4446 163.388 86.5995 162.846C86.677 162.303 86.7544 161.761 86.8319 161.219C86.9093 160.987 86.9094 160.677 86.9868 160.445C87.3741 157.966 87.7613 155.797 87.9937 154.248C74.8269 158.508 64.6033 163.93 56.5484 169.584C48.7257 175.083 42.9943 180.892 38.7345 186.158C18.9069 210.711 12.1686 246.726 -0.455996 245.719C-3.08935 245.486 -7.11683 243.24 -22.065 200.41C-27.0993 186.081 -31.0494 173.689 -34.07 163.852C-46.8495 166.873 -59.629 169.894 -72.3311 172.992C-65.8251 205.212 -53.7427 254.935 -36.1612 285.142C-33.6827 289.401 -31.1268 293.274 -28.416 296.604C-25.8601 299.78 -21.3679 304.814 -14.01 307.138C-3.55406 310.468 6.66954 306.441 10.6196 304.892C12.7108 304.04 14.647 303.033 16.4284 301.949C20.0687 299.78 23.2442 297.069 26.4197 293.506C23.7089 305.899 20.9206 319.298 18.2098 333.936C22.1599 333.936 26.1873 334.013 30.1374 334.013C68.4759 334.246 106.814 334.478 145.153 334.633C148.561 334.633 151.891 334.633 155.299 334.711C158.784 298.928 162.192 263.145 165.678 227.363C170.015 231.855 195.884 258.188 213.775 267.095C216.408 268.412 219.739 269.806 223.921 270.581C227.097 271.2 238.25 273.059 248.318 266.708C254.902 262.603 258 256.639 259.704 252.922C261.485 248.972 263.034 244.634 264.428 239.91C274.497 204.747 273.49 150.298 271.709 117.846Z" fill="#FF0F97"/>
<path d="M134.31 113.355C129.353 112.735 126.41 109.25 125.713 108.398C125.093 107.314 124.164 105.145 124.164 102.202C124.241 97.9419 126.41 95.0762 127.184 94.2242C126.642 94.4566 123.079 96.1605 119.594 94.4566C115.721 92.5978 114.482 85.782 114.947 83.3036C114.947 83.1487 115.024 82.7614 114.947 82.684C114.405 82.3742 112.623 86.7889 108.983 89.035C104.878 91.5909 99.9987 90.3517 99.1467 90.1968C97.0555 89.732 94.1898 88.9575 92.6408 86.2467C90.4721 82.4516 93.028 78.0369 93.2604 77.7271C90.6271 79.1212 83.6564 82.3741 76.376 80.1281C75.1367 79.7408 73.2779 79.1986 71.8063 78.0369C70.8769 79.2761 70.1024 80.6702 69.3279 82.0643C68.7857 83.0712 68.321 84.0781 67.7788 85.1624C58.6396 105.997 64.371 135.971 80.2485 144.258C82.9593 145.652 85.9799 146.427 89.2329 146.736C88.8457 149.215 88.4584 151.616 88.1486 154.094C87.9162 155.643 87.529 157.812 87.1417 160.29C87.1417 160.523 87.0643 160.833 86.9868 161.065C86.9094 161.607 86.8319 162.149 86.7545 162.691C86.677 163.234 86.5996 163.776 86.4447 164.318C86.3672 164.628 86.3672 164.86 86.2898 165.17C86.2123 165.557 86.1349 165.944 86.1349 166.332C85.9799 167.339 85.8251 168.423 85.5927 169.43C85.5153 169.817 85.4378 170.127 85.4378 170.514C85.128 172.295 84.8182 174.154 84.5084 176.013C92.6408 178.259 103.949 181.435 112.391 183.758C116.263 172.141 120.214 160.523 124.086 148.905C124.086 148.905 124.086 148.905 124.086 148.828C124.086 148.828 124.086 148.828 124.086 148.75V148.673C125.016 142.322 125.868 135.971 126.797 129.697C130.205 125.824 132.993 121.487 134.929 116.685C135.162 116.066 135.472 115.369 135.704 114.671C135.859 114.207 136.014 113.742 136.169 113.277C135.549 113.432 134.929 113.432 134.31 113.355Z" fill="#8235FF"/>
<path d="M180.083 100.807C176.055 92.0546 162.656 87.485 146.779 89.1889C146.701 89.1889 146.624 89.1889 146.546 89.1115C144.068 82.2957 139.188 73.7761 130.359 66.6505C143.216 66.0309 153.44 55.42 153.44 42.4082C153.44 29.0091 142.596 18.0884 129.275 18.0884C115.953 18.0884 105.11 28.9316 105.11 42.4082C105.11 47.4425 106.659 52.1671 109.292 56.0396C96.2028 53.0965 86.6763 53.2514 81.0998 53.7161C81.0998 53.7161 71.3409 54.5681 68.6301 58.8279C67.3134 60.8416 67.5457 62.7779 67.5457 62.7779C67.6232 63.2426 67.7007 64.2495 68.4752 65.1789C69.482 66.4956 70.7987 66.8054 71.186 66.8829C71.186 66.8829 69.3271 69.6711 69.3271 72.8466C58.4839 74.1633 49.9642 81.134 47.873 89.8085C45.5495 99.3351 51.9005 107.545 52.9074 108.862C45.7044 108.474 39.2759 113.431 37.8818 120.402C36.4877 127.218 40.2053 134.111 46.7113 136.744C35.5583 145.264 34.2416 158.198 39.2759 163.542C42.6838 167.183 49.2672 167.725 55.5407 165.866C55.928 167.183 56.3153 168.344 56.78 169.506C64.8349 163.852 75.0585 158.508 88.2253 154.171C88.6126 151.692 88.9998 149.291 89.3096 146.813C86.0567 146.581 83.0361 145.729 80.3252 144.334C64.4477 136.047 58.7163 106.073 67.8555 85.2389C68.3203 84.1546 68.785 83.1477 69.4046 82.1408C70.1791 80.7467 70.9536 79.43 71.883 78.1133C73.3546 79.2751 75.136 79.8173 76.4527 80.2045C83.7331 82.3732 90.7038 79.1977 93.3371 77.8035C93.1822 78.1133 90.6263 82.5281 92.7175 86.3232C94.2665 89.034 97.1322 89.8085 99.2234 90.2732C100.153 90.4281 104.955 91.6674 109.06 89.1115C112.777 86.8654 114.481 82.4506 115.024 82.7604C115.178 82.8379 115.101 83.2251 115.024 83.38C114.559 85.8585 115.798 92.6742 119.671 94.5331C123.156 96.1596 126.719 94.5331 127.261 94.3007C126.564 95.1527 124.318 98.0184 124.24 102.278C124.163 104.989 125.092 107.158 125.712 108.242C125.712 108.319 125.789 108.397 125.789 108.397C126.486 109.326 129.43 112.734 134.386 113.354C135.006 113.431 135.626 113.431 136.245 113.431C136.09 113.896 135.935 114.361 135.781 114.825C135.548 115.522 135.316 116.142 135.006 116.839C133.07 121.641 130.282 125.978 126.874 129.851C125.944 136.202 125.092 142.553 124.163 148.827V148.904C124.163 148.982 124.163 148.982 124.163 148.982C124.24 148.982 124.318 148.904 124.395 148.904C125.634 149.059 126.874 149.214 128.113 149.369C136.323 150.531 145.539 152.699 155.066 156.417C156.228 154.093 157.08 152.002 157.699 150.298C158.396 150.221 168.388 149.291 173.19 140.229C176.443 134.111 176.133 126.753 172.415 120.867C173.654 120.402 178.689 118.388 180.935 113.121C183.258 107.622 180.78 102.278 180.083 100.807Z" fill="black"/>
<path d="M92.0985 118.776L81.1778 117.227C81.1003 117.227 80.9454 117.149 80.868 117.072C80.7905 116.994 80.7905 116.839 80.7905 116.762L86.2896 98.6384C86.367 98.406 86.5994 98.3285 86.7543 98.406C86.9867 98.4834 87.0641 98.7158 86.9867 98.8707L81.565 116.53L91.9436 118.001C92.1759 118.001 92.3308 118.234 92.2534 118.466C92.4857 118.621 92.3308 118.776 92.0985 118.776Z" fill="black"/>
<path d="M81.2847 98.0636C81.6419 97.1929 79.5253 95.4999 76.5572 94.2821C73.589 93.0643 70.8932 92.7828 70.536 93.6535C70.1788 94.5242 72.2953 96.2172 75.2635 97.435C78.2317 98.6528 80.9275 98.9343 81.2847 98.0636Z" fill="black"/>
<path d="M102.836 98.5134C105.965 97.8053 108.333 96.4873 108.126 95.5695C107.918 94.6517 105.213 94.4816 102.084 95.1897C98.9554 95.8977 96.5873 97.2157 96.795 98.1335C97.0027 99.0513 99.7075 99.2214 102.836 98.5134Z" fill="black"/>
<path d="M92.7933 130.548C90.2374 130.548 88.3011 129.464 88.1462 129.387C87.9913 129.309 87.9139 129.077 87.9913 128.844C88.0688 128.69 88.3011 128.612 88.5335 128.69C88.6884 128.767 92.7159 131.013 96.6659 128.69C99.9963 126.753 100.616 123.036 100.616 122.648C100.616 122.416 100.848 122.261 101.081 122.339C101.313 122.339 101.468 122.571 101.39 122.803C101.313 123.578 100.616 127.373 97.0532 129.464C95.5816 130.316 94.11 130.548 92.7933 130.548Z" fill="black"/>
<path d="M89.3102 147.588C89.2328 147.588 89.2328 147.588 89.1553 147.588C88.923 147.588 88.7681 147.434 88.7681 147.201C88.7681 146.969 88.923 146.814 89.1553 146.814C89.2328 146.814 89.2328 146.814 89.3102 146.814C91.9436 146.814 94.6544 146.582 97.2877 146.117L97.5201 146.039C97.675 146.039 97.7525 145.962 97.9074 145.962C98.7593 145.807 99.6888 145.575 100.696 145.342C100.696 145.342 100.696 145.342 100.773 145.342C101.315 145.187 101.935 145.033 102.477 144.878C102.554 144.878 102.554 144.878 102.632 144.878C102.787 144.8 102.942 144.8 103.097 144.723C103.484 144.568 103.871 144.49 104.258 144.335C109.06 142.786 113.63 140.463 117.735 137.442C117.812 137.365 117.89 137.365 117.967 137.287L118.122 137.21C118.277 137.055 118.509 137.132 118.664 137.287C118.819 137.442 118.742 137.675 118.587 137.83L118.509 137.907C118.432 137.984 118.355 137.984 118.277 138.062C114.095 141.083 109.525 143.483 104.646 145.11C104.258 145.265 103.871 145.342 103.484 145.497C103.329 145.575 103.174 145.575 103.019 145.652C102.942 145.652 102.864 145.652 102.864 145.73C102.322 145.884 101.702 146.039 101.16 146.194H101.083C100.076 146.427 99.1466 146.659 98.2946 146.814C98.1397 146.814 97.9848 146.891 97.9074 146.891L97.675 146.969C94.7318 147.356 92.021 147.588 89.3102 147.588Z" fill="black"/>
<path d="M148.327 119.782C148.327 127.682 141.898 134.111 133.998 134.111C126.098 134.111 119.669 127.682 119.669 119.782C119.669 114.98 121.993 110.72 125.633 108.165C125.633 108.242 125.711 108.319 125.711 108.319C126.408 109.249 129.351 112.657 134.308 113.276C134.927 113.354 135.547 113.354 136.167 113.354C139.342 113.276 142.363 111.96 144.531 110.023C146.932 112.657 148.327 116.065 148.327 119.782Z" fill="#8235FF"/>
<path d="M129.349 126.366C129.271 126.366 129.194 126.366 129.116 126.289C128.961 126.134 128.884 125.901 129.039 125.746C130.278 124.12 130.665 122.571 130.356 121.254C129.891 119.473 128.187 118.621 128.187 118.621C128.032 118.543 127.955 118.466 127.955 118.311C127.955 118.156 128.032 118.001 128.109 117.924L139.417 111.418C139.572 111.34 139.805 111.34 139.96 111.573C140.037 111.728 140.037 111.96 139.805 112.115L129.039 118.311C129.658 118.776 130.665 119.705 131.053 121.099C131.44 122.648 130.975 124.352 129.581 126.211C129.581 126.289 129.504 126.366 129.349 126.366Z" fill="black"/>
<path d="M111.925 103.131C111.46 109.405 105.961 114.284 99.7652 113.897C93.724 113.51 88.922 108.32 88.9995 102.202C96.6672 102.511 104.335 102.821 111.925 103.131Z" fill="#D5E0EA"/>
<path d="M83.4227 101.969C83.1903 108.166 77.9236 113.045 71.7275 112.735C65.5314 112.425 60.6519 107.236 60.9617 101.04C68.3971 101.35 75.9099 101.66 83.4227 101.969Z" fill="#D5E0EA"/>
<path d="M91.555 103.208C91.4001 103.208 91.3227 103.131 91.2452 103.053C91.0903 102.821 89.6187 100.42 86.753 100.033C84.5844 99.8005 82.4157 100.73 81.0991 102.589C80.9442 102.744 80.7118 102.821 80.5569 102.666C80.402 102.511 80.3246 102.279 80.4795 102.124C81.951 100.033 84.352 98.9485 86.8305 99.1809C90.006 99.5681 91.6325 102.047 91.8648 102.589C91.9423 102.744 91.9423 102.976 91.7099 103.131C91.7099 103.208 91.6325 103.208 91.555 103.208Z" fill="black"/>
<path d="M126.098 105.764C126.098 105.764 126.02 105.764 125.943 105.764L110.453 104.603C110.22 104.603 110.065 104.37 110.065 104.215C110.065 103.983 110.298 103.828 110.453 103.828L125.943 104.99C126.175 104.99 126.33 105.222 126.33 105.377C126.408 105.61 126.253 105.764 126.098 105.764Z" fill="black"/>
<path d="M73.5881 113.044C73.4332 113.044 73.2783 112.967 73.2008 112.812C72.5037 111.418 72.1939 109.869 72.2714 108.32C72.3488 105.144 73.8204 102.743 75.0596 101.349C75.2145 101.194 75.4469 101.194 75.6018 101.349C75.7567 101.504 75.7567 101.736 75.6018 101.891C74.44 103.208 73.1233 105.377 73.0459 108.32C73.0459 109.791 73.3557 111.185 73.9753 112.502C74.0528 112.734 73.9753 112.889 73.8204 113.044C73.6655 113.044 73.6655 113.044 73.5881 113.044Z" fill="white"/>
<path d="M101.857 114.207C101.702 114.207 101.624 114.129 101.547 113.974C100.927 112.813 100.153 110.954 100.153 108.63C100.23 105.842 101.315 103.751 102.244 102.511C102.399 102.357 102.631 102.279 102.786 102.434C102.941 102.589 103.019 102.821 102.864 102.976C102.012 104.138 100.927 106.074 100.927 108.63C100.927 110.799 101.624 112.503 102.244 113.587C102.321 113.742 102.321 113.974 102.089 114.129C102.012 114.207 101.934 114.207 101.857 114.207Z" fill="white"/>
<path d="M98.2948 104.834C99.2358 104.834 99.9987 104.071 99.9987 103.13C99.9987 102.189 99.2358 101.426 98.2948 101.426C97.3537 101.426 96.5908 102.189 96.5908 103.13C96.5908 104.071 97.3537 104.834 98.2948 104.834Z" fill="black"/>
<path d="M70.179 103.75C71.1201 103.75 71.883 102.987 71.883 102.046C71.883 101.105 71.1201 100.342 70.179 100.342C69.238 100.342 68.4751 101.105 68.4751 102.046C68.4751 102.987 69.238 103.75 70.179 103.75Z" fill="black"/>
<path d="M135.935 138.759C138.929 138.759 141.356 136.332 141.356 133.338C141.356 130.343 138.929 127.916 135.935 127.916C132.941 127.916 130.513 130.343 130.513 133.338C130.513 136.332 132.941 138.759 135.935 138.759Z" fill="#00CE87"/>
<path d="M84.5075 176.167C83.9653 179.42 83.4232 182.75 82.881 185.926C82.8036 186.546 82.6487 187.165 82.5712 187.785C82.4938 188.482 82.3389 189.179 82.2614 189.798C82.184 190.263 82.1065 190.805 82.0291 191.27C81.9516 191.812 81.8741 192.354 81.7967 192.819C81.6418 193.748 81.4869 194.6 81.332 195.452C81.2546 195.84 81.1771 196.304 81.0996 196.692C81.0222 197.079 80.9447 197.466 80.9447 197.853C80.9447 198.086 80.8673 198.318 80.8673 198.551C80.7124 199.635 80.5575 200.642 80.4026 201.416C80.3251 201.726 80.3251 202.036 80.2477 202.268C80.1702 202.655 80.0928 203.043 80.0928 203.352C88.6124 203.585 97.1321 203.895 105.574 204.127C107.278 199.015 108.982 193.981 110.686 188.869C111.228 187.243 111.77 185.539 112.39 183.912C103.948 181.589 92.5625 178.413 84.5075 176.167Z" fill="white"/>
<path d="M112.313 184.299L84.3532 176.554C84.1209 176.477 84.0434 176.244 84.1208 176.09C84.1983 175.857 84.3532 175.78 84.5856 175.857L112.468 183.602C112.7 183.68 112.778 183.912 112.7 184.067C112.7 184.222 112.546 184.299 112.313 184.299Z" fill="#1F0D60"/>
</g>
<defs>
<clipPath id="clip0_3_15454">
<rect width="198.663" height="198.663" fill="white" transform="translate(0.290039 0.791992)"/>
</clipPath>
</defs>
</svg>
