<svg width="200" height="200" viewBox="0 0 200 200" fill="none" xmlns="http://www.w3.org/2000/svg">
<g clip-path="url(#clip0_3_17713)">
<path d="M0.770508 0.751953H199.434V199.415H0.770508V0.751953Z" fill="#F8F8F8"/>
<path d="M70.2126 135.479C70.0753 135.479 69.9551 135.445 69.835 135.376C69.4745 135.17 69.3543 134.707 69.5775 134.346C82.0065 113.402 101.44 108.836 110.779 106.638C111.173 106.553 111.585 106.793 111.688 107.205C111.791 107.617 111.534 108.012 111.122 108.115C101.989 110.261 82.9678 114.741 70.865 135.136C70.7105 135.342 70.4701 135.479 70.2126 135.479Z" fill="#000200"/>
<path d="M78.0413 146.294C77.9554 146.294 77.8868 146.277 77.8009 146.26C77.4061 146.123 77.2001 145.711 77.3202 145.316L78.8138 140.801C78.9511 140.406 79.3631 140.2 79.758 140.32C80.1528 140.458 80.3588 140.87 80.2387 141.264L78.7451 145.779C78.6421 146.088 78.3503 146.294 78.0413 146.294Z" fill="#000200"/>
<path d="M4.49683 198.963C4.17065 198.963 3.86164 198.74 3.77581 198.397C3.67281 198.002 3.91315 197.59 4.308 197.487C4.411 197.452 14.7284 194.74 17.8529 191.427C18.1447 191.118 18.6082 191.118 18.9172 191.392C19.2262 191.684 19.2262 192.148 18.9516 192.457C15.5181 196.096 5.13202 198.826 4.68568 198.946C4.61701 198.963 4.54833 198.963 4.49683 198.963Z" fill="#000200"/>
<path d="M-7.50312 211.702C-17.7347 211.702 -23.2282 210.225 -25.2883 206.912C-25.8891 205.968 -26.1981 204.869 -26.181 203.616C-26.1295 199.101 -17.9236 195.564 -7.50312 195.564C2.96883 195.564 11.1575 199.101 11.1575 203.633C11.1575 205.23 10.385 206.637 8.89149 207.839C5.85291 210.294 -0.121256 211.702 -7.50312 211.702ZM-7.50312 197.075C-17.7347 197.075 -24.6359 200.474 -24.6703 203.633C-24.6874 204.594 -24.4642 205.401 -24.0179 206.105C-21.7347 209.779 -13.4945 210.191 -7.50312 210.191C-0.567601 210.191 5.21772 208.869 7.9473 206.637C9.09749 205.727 9.64684 204.749 9.64684 203.616C9.64684 200.457 2.76282 197.075 -7.50312 197.075Z" fill="#000200"/>
<path d="M122.52 36.8365C111.43 36.27 105.61 39.3085 102.623 43.669C101.507 45.317 102.984 47.5316 104.924 47.0853C107.121 46.5702 109.885 46.2097 112.838 46.0552C119.344 50.862 127.43 52.7847 135.309 51.4114C138.125 54.8105 138.279 61.9177 138.382 69.0077C138.399 70.1579 139.103 69.5742 140.254 69.5914C141.713 69.5914 142.897 69.557 144.734 69.8832L147.086 69.8317C147.086 69.8317 147.086 69.8317 147.704 57.8147C148.356 45.7977 140.545 37.7635 122.52 36.8365Z" fill="#000200"/>
<path d="M139.172 70.1075C143.618 70.1075 146.76 70.9487 148.271 72.5281C148.992 73.3006 149.335 74.2277 149.284 75.2749C149.249 75.9272 149.026 77.1632 147.842 78.1761C146.537 79.3091 144.477 79.7898 141.885 79.5495C141.455 79.5151 141.112 79.807 141.061 80.219L138.417 107.292C138.382 107.635 138.588 107.961 138.932 108.081C138.983 108.098 139.55 108.287 140.528 108.682C140.872 108.27 141.215 107.875 141.576 107.48C140.889 107.189 140.34 106.983 139.979 106.845L142.503 81.0773C145.85 81.2147 147.773 80.219 148.837 79.292C150.022 78.2619 150.726 76.8542 150.794 75.3264C150.846 74.2963 150.64 72.8028 149.369 71.4637C147.55 69.541 144.116 68.5625 139.172 68.5625C138.76 68.5625 138.417 68.9058 138.417 69.3179C138.434 69.7814 138.76 70.1075 139.172 70.1075Z" fill="#000200"/>
<path d="M111.98 76.1148C110.075 76.1148 108.581 75.5654 107.74 74.5697C107.156 73.883 106.933 72.9904 107.088 72.029C107.448 69.9003 110.435 69.1449 111.826 68.8874V62.6557C111.826 62.2437 112.169 61.9004 112.581 61.9004C112.993 61.9004 113.336 62.2437 113.336 62.6557V69.5398C113.336 69.9174 113.045 70.2436 112.667 70.2951C111.414 70.4325 108.77 71.102 108.581 72.2865C108.495 72.8187 108.598 73.2479 108.89 73.6084C109.422 74.2436 110.59 74.6212 111.98 74.6212C112.392 74.6212 112.736 74.9646 112.736 75.3766C112.736 75.7714 112.392 76.1148 111.98 76.1148Z" fill="#000200"/>
<path d="M105.526 65.3163L105.68 66.8099C105.886 68.7326 102.899 69.0588 102.693 67.1189L102.538 65.6253C102.332 63.7026 105.32 63.3936 105.526 65.3163Z" fill="#000200"/>
<path d="M125.801 65.7978L125.955 67.2913C126.161 69.214 123.174 69.5402 122.968 67.6003L122.814 66.1068C122.608 64.1841 125.595 63.8751 125.801 65.7978Z" fill="#000200"/>
<path d="M122.486 58.8457C123.722 58.9831 124.907 59.1891 126.091 59.5496C127.018 59.8414 126.383 61.1976 125.473 60.923C124.426 60.5968 123.327 60.4595 122.246 60.3393C121.284 60.2191 121.525 58.7256 122.486 58.8457Z" fill="#000200"/>
<path d="M100.769 59.4119C101.541 58.9141 102.4 58.5364 103.138 57.987C103.893 57.4034 104.958 58.4849 104.185 59.0686C103.344 59.7209 102.4 60.1501 101.507 60.7338C100.7 61.2488 99.962 59.9441 100.769 59.4119Z" fill="#000200"/>
<path d="M121.371 82.9137C122.487 82.7421 123.981 82.227 124.067 80.888C124.118 79.9267 125.629 79.9267 125.577 80.888C125.457 82.9309 123.655 84.0639 121.766 84.3558C120.822 84.5103 120.41 83.0682 121.371 82.9137Z" fill="#000200"/>
<path d="M142.607 42.6048C138.212 38.7422 131.465 36.5448 122.556 36.0984C107.757 35.3259 99.8434 40.9396 99.0538 52.7849C98.8821 55.3085 98.7104 57.729 98.5387 60.0637C96.925 82.6213 95.9637 96.2349 103.758 101.282C105.663 102.518 107.998 103.376 110.367 103.977C110.367 103.994 110.367 104.029 110.367 104.046L110.024 110.672C110.006 110.896 110.109 111.119 110.264 111.273C110.401 111.393 110.59 111.462 110.762 111.462C110.796 111.462 110.848 111.462 110.882 111.445C111.277 111.376 120.547 109.866 122.727 104.87C122.83 104.63 122.813 104.372 122.659 104.149C122.521 103.943 122.264 103.788 122.023 103.806C121.903 103.788 110.624 103.909 104.582 99.9945C97.5259 95.428 98.4872 82.1407 100.049 60.1324C100.221 57.7977 100.393 55.3771 100.564 52.8536C101.303 41.8494 108.496 36.8366 122.504 37.5748C131.07 38.0212 137.508 40.0812 141.645 43.7206C145.508 47.1026 147.311 51.8407 147.002 57.7634C146.469 68.0808 145.937 69.8833 145.851 70.1237C145.68 70.4155 145.731 70.8104 145.989 71.0507C146.298 71.3254 146.761 71.3082 147.053 71.0164C147.585 70.4327 148.083 66.0036 148.495 57.8492C148.804 51.4459 146.83 46.3129 142.607 42.6048Z" fill="#000200"/>
<path d="M115.036 134.622C114.984 134.622 114.933 134.622 114.881 134.605C114.624 134.553 114.418 134.364 114.315 134.124C112.804 129.918 110.143 111.601 110.023 110.828C109.954 110.416 110.246 110.038 110.658 109.97C111.07 109.901 111.448 110.193 111.516 110.605C111.533 110.777 113.868 126.673 115.362 132.39L138.623 106.897C138.898 106.588 139.379 106.571 139.688 106.845C139.997 107.12 140.014 107.601 139.739 107.91L115.585 134.381C115.43 134.536 115.242 134.622 115.036 134.622Z" fill="#000200"/>
<path d="M135.121 41.7808C131.516 35.9268 124.426 32.6822 117.61 34.1243C114.898 34.6908 113.919 34.0213 111.465 33.0256C109.336 32.1672 107.087 31.6179 104.804 31.4462C101.576 31.2059 97.5764 31.4977 95.5507 34.3818C90.5894 41.4203 100.254 47.0168 105.799 48.3902C114.52 50.5532 123.791 48.682 131.138 43.5834C131.19 43.549 131.224 43.4975 131.258 43.446C132.477 43.3774 133.696 43.3087 134.915 43.24C135.808 43.2057 135.876 41.9353 135.121 41.7808Z" fill="#000200"/>
<path d="M196.631 172.594C186.846 125.882 145.336 108.904 139.98 106.896C139.482 107.17 138.984 107.428 138.486 107.702C138.572 107.891 138.727 108.063 138.95 108.132C139.413 108.286 184.941 124.063 195.172 172.92C200.185 196.834 197.833 215.306 188.391 226.344C181.833 234.018 171.876 237.932 160.374 237.349C146.091 236.628 132.495 224.508 122.572 215.649C116.409 210.156 111.551 205.813 108.238 205.658C100.204 205.28 99.0019 204.285 97.6285 201.521C97.4397 201.143 96.9933 201.006 96.6156 201.177C96.238 201.366 96.1006 201.813 96.2723 202.19C97.989 205.624 99.8602 206.757 108.152 207.152C110.933 207.289 115.86 211.684 121.559 216.765C131.654 225.778 145.473 238.104 160.289 238.859C161.061 238.894 161.816 238.911 162.572 238.911C173.593 238.911 183.104 234.842 189.524 227.323C199.275 215.89 201.73 196.971 196.631 172.594Z" fill="#000200"/>
<path d="M98.3146 196.937C95.0185 196.937 92.3919 196.267 90.452 194.945C88.5808 193.675 87.4478 191.821 87.0701 189.452C87.0014 189.04 87.2761 188.662 87.6881 188.594C88.1001 188.525 88.4778 188.8 88.5465 189.212C88.8555 191.151 89.7825 192.662 91.2932 193.692C94.1258 195.632 99.0527 195.924 105.525 194.55C105.92 194.465 106.332 194.722 106.417 195.134C106.503 195.546 106.246 195.941 105.834 196.027C103.036 196.645 100.529 196.937 98.3146 196.937Z" fill="#000200"/>
<path d="M103.069 202.929C95.9102 202.929 91.3266 200.217 90.5369 195.324C90.4682 194.912 90.7429 194.534 91.1549 194.466C91.5669 194.397 91.9446 194.672 92.0133 195.084C92.8029 200.011 98.4853 202.277 107.206 201.144C107.618 201.092 107.996 201.384 108.047 201.796C108.099 202.208 107.807 202.586 107.395 202.637C105.867 202.826 104.425 202.929 103.069 202.929Z" fill="#000200"/>
<path d="M138.622 194.293C139.068 204.027 134.433 213.228 126.245 218.584C125.438 219.117 126.193 220.421 127 219.889C135.309 214.464 140.236 205.28 140.15 195.409C139.601 195.083 139.103 194.705 138.622 194.293Z" fill="#000200"/>
<path d="M165.936 184.903C161.747 171.324 154.262 161.762 154.193 161.676C154.005 161.436 153.678 161.333 153.387 161.419C153.095 161.504 152.872 161.762 152.854 162.071C152.099 169.796 157.524 186.568 157.764 187.272C157.884 187.667 158.314 187.89 158.708 187.753C159.103 187.616 159.326 187.204 159.189 186.809C159.189 186.774 159.035 186.362 158.811 185.624L161.06 176.388C162.296 179.101 163.498 182.105 164.494 185.367C167.155 194.002 164.751 200.834 161.386 203.512C159.017 205.401 156.116 205.504 153.198 203.839C142.76 197.83 122.589 182.895 118.366 176.577C113.765 169.693 105.799 168.749 105.456 168.715C105.181 168.68 104.889 168.818 104.735 169.058C104.58 169.298 104.58 169.607 104.718 169.848L110.658 179.993C108.666 180.766 103.173 182.723 96.8724 183.564C92.2716 184.182 89.8683 182.895 87.9284 181.847C86.555 181.109 85.2503 180.423 83.6194 180.714C81.9714 181.006 81.5422 181.968 81.4392 182.5C80.9585 184.8 84.2031 187.89 87.3962 190.019C92.7351 193.573 104.134 191.169 104.615 191.066C105.027 190.98 105.284 190.586 105.198 190.174C105.113 189.761 104.718 189.504 104.306 189.59C104.186 189.607 93.0442 191.976 88.2374 188.766C84.4949 186.277 82.7095 183.839 82.9327 182.809C83.0014 182.517 83.3276 182.311 83.9113 182.191C85.0271 181.985 85.9541 182.483 87.2417 183.169C89.2502 184.251 92.0141 185.727 97.0956 185.041C105.198 183.942 111.791 181.161 112.065 181.041C112.271 180.955 112.409 180.783 112.477 180.577C112.546 180.371 112.529 180.148 112.409 179.959L106.881 170.517C109.336 171.135 114.091 172.869 117.112 177.401C121.799 184.44 142.846 199.598 152.442 205.143C154.039 206.07 155.67 206.517 157.232 206.517C159.052 206.517 160.786 205.899 162.314 204.697C166.21 201.572 168.82 194.259 165.936 184.903Z" fill="#000200"/>
<path d="M152.838 205.228C152.718 205.228 152.58 205.194 152.46 205.125C152.1 204.919 151.979 204.456 152.185 204.095C155.293 198.636 160.563 175.271 160.614 175.031C160.7 174.619 161.112 174.379 161.507 174.465C161.919 174.55 162.16 174.962 162.074 175.357C161.851 176.336 156.7 199.185 153.49 204.833C153.353 205.091 153.095 205.228 152.838 205.228Z" fill="#000200"/>
<path d="M64.2545 117.093C64.0829 116.887 63.8082 116.801 63.5507 116.852L18.6243 125.591L-12.534 131.651C-12.7744 131.702 -12.9632 131.857 -13.0662 132.08L-23.727 154.878C-23.7957 155.032 -23.8128 155.187 -23.7785 155.358L-19.6927 175.118L-28.448 192.525C-28.5681 192.766 -28.551 193.04 -28.4136 193.263C-28.2763 193.487 -28.0359 193.607 -27.7784 193.607H-27.7613L50.9843 192.079C51.3277 192.079 51.6195 191.839 51.7054 191.512L56.4435 173.161C56.4607 173.075 56.4778 172.989 56.4607 172.903L55.1388 157.264L54.4006 148.492L64.4262 117.848C64.4949 117.574 64.4262 117.299 64.2545 117.093ZM52.9071 148.148C52.8727 148.251 52.8556 148.354 52.8727 148.44L53.4221 155.015L54.9328 172.886L50.3663 190.568L-26.5596 192.062L-18.2335 175.53C-18.1648 175.375 -18.1305 175.204 -18.1649 175.032L-22.2506 155.273L-11.8645 133.058L20.7187 126.724L62.5893 118.569L52.9071 148.148Z" fill="#000200"/>
<path d="M105.387 170.19C105.112 170.19 104.855 170.035 104.718 169.778L97.6276 155.804L73.4391 144.731C73.2674 144.645 73.1129 144.508 73.0442 144.319L62.9843 117.882C62.8298 117.487 63.0358 117.058 63.4135 116.903C63.8083 116.749 64.2375 116.955 64.392 117.332L74.3489 143.495L98.5031 154.551C98.6576 154.619 98.7778 154.74 98.8636 154.894L106.057 169.108C106.245 169.486 106.091 169.932 105.73 170.121C105.627 170.156 105.507 170.19 105.387 170.19Z" fill="#000200"/>
<path d="M76.3066 263.099C76.0662 263.099 75.843 262.979 75.6885 262.79C75.5512 262.584 75.4997 262.326 75.5855 262.103L79.1391 251.94L43.6718 223.271C43.5002 223.134 43.3972 222.928 43.3972 222.687L43.1053 196.679L37.7492 192.13C37.4402 191.855 37.3887 191.392 37.6634 191.066C37.938 190.757 38.4015 190.705 38.7277 190.98L44.3414 195.752C44.513 195.89 44.5989 196.096 44.5989 196.319L44.8907 222.327L80.4953 251.116C80.7357 251.322 80.8387 251.648 80.7357 251.957L77.3709 261.605L136.838 260.747L141.902 243.048L115.877 215.237C115.739 215.1 115.671 214.911 115.671 214.722V211.254C115.671 210.842 116.014 210.499 116.426 210.499C116.838 210.499 117.181 210.842 117.181 211.254V214.43L143.31 242.327C143.482 242.515 143.55 242.79 143.482 243.048L138.16 261.691C138.074 262.017 137.782 262.223 137.456 262.241L76.3066 263.099Z" fill="#000200"/>
<path d="M90.5368 193.417C90.3823 193.314 90.2278 193.211 90.0561 193.125L43.8079 195.58C43.3959 195.597 43.0697 195.958 43.104 196.37C43.1212 196.764 43.4645 197.073 43.8594 197.073C43.8766 197.073 43.8937 197.073 43.8937 197.073L90.5197 194.601C90.8287 194.584 91.0862 194.378 91.1892 194.104C91.0347 194.001 90.8802 193.898 90.7257 193.777C90.6055 193.674 90.554 193.554 90.5368 193.417Z" fill="#000200"/>
<path d="M54.5197 159.822C54.142 159.822 53.7987 159.53 53.7643 159.135C53.73 158.723 54.039 158.363 54.451 158.328L98.107 154.483C98.5362 154.449 98.8796 154.758 98.9139 155.17C98.9482 155.582 98.6392 155.942 98.2272 155.977L54.5712 159.822C54.5712 159.822 54.554 159.822 54.5197 159.822Z" fill="#000200"/>
<path d="M-18.9022 175.959C-19.3142 175.959 -19.6404 175.633 -19.6576 175.238C-19.6747 174.826 -19.3486 174.483 -18.9365 174.466L55.6546 172.217C56.0667 172.217 56.41 172.526 56.4272 172.938C56.4443 173.35 56.1182 173.693 55.7061 173.71L-18.885 175.959C-18.885 175.959 -18.885 175.959 -18.9022 175.959Z" fill="#000200"/>
<path d="M54.5214 147.273C54.1437 147.273 53.8176 146.999 53.7832 146.621C53.7317 146.209 54.0236 145.831 54.4356 145.78L73.6627 143.308C74.0919 143.256 74.4524 143.548 74.5039 143.96C74.5554 144.372 74.2636 144.75 73.8516 144.801L54.6244 147.273C54.5901 147.256 54.5558 147.273 54.5214 147.273Z" fill="#000200"/>
<path d="M64.1349 184.696C64.0319 184.696 63.9117 184.679 63.8087 184.627C63.431 184.438 63.2765 183.992 63.4654 183.614L73.0789 163.872C73.2678 163.495 73.7141 163.34 74.0918 163.529C74.4695 163.718 74.624 164.164 74.4351 164.542L64.8216 184.284C64.6842 184.541 64.4267 184.696 64.1349 184.696Z" fill="#000200"/>
<path d="M79.5324 172.611C79.1375 172.611 78.8114 172.302 78.777 171.907C78.7427 171.495 79.0517 171.135 79.4809 171.1L94.1244 170.036C94.5364 170.001 94.8969 170.31 94.9313 170.74C94.9656 171.152 94.6566 171.512 94.2274 171.547L79.5839 172.611C79.5667 172.611 79.5495 172.611 79.5324 172.611Z" fill="#000200"/>
<path d="M15.2934 168.354C15.1561 168.354 15.0188 168.32 14.8814 168.234C14.5381 168.011 14.4351 167.547 14.6583 167.204L21.3534 156.732C21.5766 156.389 22.0401 156.286 22.3835 156.509C22.7268 156.732 22.8298 157.196 22.6066 157.539L15.9115 168.011C15.7741 168.234 15.5338 168.354 15.2934 168.354Z" fill="#000200"/>
<path d="M-15.3838 164.955C-15.7786 164.955 -16.1048 164.646 -16.1391 164.251C-16.1735 163.839 -15.8473 163.479 -15.4353 163.462L13.6458 161.625C14.0579 161.608 14.4184 161.917 14.4355 162.329C14.4699 162.741 14.1437 163.101 13.7317 163.118L-15.3494 164.955C-15.3666 164.955 -15.3666 164.955 -15.3838 164.955Z" fill="#000200"/>
<path d="M18.6415 138.843C18.2639 138.843 17.9377 138.568 17.9034 138.173C17.8519 137.761 18.1437 137.383 18.5557 137.332L27.6371 136.268C28.0491 136.216 28.4268 136.508 28.4783 136.92C28.5298 137.332 28.238 137.71 27.826 137.761L18.7445 138.825C18.693 138.843 18.6587 138.843 18.6415 138.843Z" fill="#000200"/>
<path d="M33.234 136.714C32.8564 136.714 32.5302 136.422 32.4959 136.044C32.4443 135.632 32.7534 135.254 33.1654 135.22L44.0837 133.984C44.5128 133.933 44.8733 134.242 44.9077 134.654C44.9592 135.066 44.6502 135.443 44.2382 135.478L33.3199 136.714C33.2855 136.714 33.2684 136.714 33.234 136.714Z" fill="#000200"/>
<path d="M36.204 183.427H18.6421C18.2301 183.427 17.8867 183.083 17.8867 182.671C17.8867 182.259 18.2301 181.916 18.6421 181.916H36.204C36.6161 181.916 36.9594 182.259 36.9594 182.671C36.9594 183.083 36.6161 183.427 36.204 183.427Z" fill="#000200"/>
<path d="M44.3752 189.16H37.062C36.65 189.16 36.3066 188.817 36.3066 188.405C36.3066 187.993 36.65 187.649 37.062 187.649H43.8773L47.2249 178.963H40.4611C40.0491 178.963 39.7057 178.62 39.7057 178.208C39.7057 177.795 40.0491 177.452 40.4611 177.452H48.3236C48.564 177.452 48.8043 177.572 48.9417 177.778C49.079 177.984 49.1133 178.242 49.0275 178.482L45.0962 188.679C44.976 188.971 44.6842 189.16 44.3752 189.16Z" fill="#000200"/>
<path d="M-23.0409 155.943C-23.4185 155.943 -23.7619 155.651 -23.7962 155.256C-23.8306 154.844 -23.5215 154.484 -23.1095 154.432L53.5589 147.617C53.988 147.583 54.3314 147.892 54.3829 148.304C54.4172 148.716 54.1082 149.076 53.6962 149.128L-22.9722 155.943C-23.0065 155.943 -23.0237 155.943 -23.0409 155.943Z" fill="#000200"/>
</g>
<path d="M0.770508 0.751953V-0.572469H-0.553915V0.751953H0.770508ZM199.434 0.751953H200.758V-0.572469H199.434V0.751953ZM199.434 199.415V200.74H200.758V199.415H199.434ZM0.770508 199.415H-0.553915V200.74H0.770508V199.415ZM0.770508 2.07638H199.434V-0.572469H0.770508V2.07638ZM198.109 0.751953V199.415H200.758V0.751953H198.109ZM199.434 198.091H0.770508V200.74H199.434V198.091ZM2.09493 199.415V0.751953H-0.553915V199.415H2.09493Z" fill="black" fill-opacity="0.1"/>
<defs>
<clipPath id="clip0_3_17713">
<path d="M0.770508 0.751953H199.434V199.415H0.770508V0.751953Z" fill="white"/>
</clipPath>
</defs>
</svg>
