<svg width="199" height="200" viewBox="0 0 199 200" fill="none" xmlns="http://www.w3.org/2000/svg">
<g clip-path="url(#clip0_3_17712)">
<path d="M0.325195 0.544922H198.989V199.208H0.325195V0.544922Z" fill="#F8F8F8"/>
<path d="M91.3947 117.606C76.4704 117.088 57.9784 117.742 47.5205 127.519C42.5912 132.149 39.9495 138.385 39.7043 146.12C39.2958 159.001 39.6771 178.201 40.1946 194.678C41.1205 195.713 42.0465 196.775 42.918 197.864C42.3461 180.761 41.8831 159.9 42.3461 146.201C42.5639 139.202 44.9333 133.565 49.3452 129.425C59.095 120.302 76.9061 119.73 91.3402 120.22C91.3675 120.22 91.3675 120.22 91.3947 120.22C92.1028 120.22 92.6747 119.675 92.7019 118.967C92.6747 118.232 92.1028 117.633 91.3947 117.606Z" fill="#201000"/>
<path d="M66.2851 210.229C65.577 210.229 64.9778 209.657 64.9778 208.949L64.3242 164.149C64.3242 163.795 64.4604 163.441 64.7327 163.196C65.0051 162.951 65.3591 162.815 65.7132 162.842L135.133 167.308C134.098 156.387 131.293 119.049 141.015 118.042C141.724 117.96 142.377 118.477 142.459 119.213C142.541 119.921 142.023 120.574 141.288 120.656C135.65 121.228 135.895 149.034 137.884 168.588C137.911 168.969 137.802 169.351 137.53 169.623C137.257 169.895 136.876 170.059 136.495 170.032L66.9659 165.538L67.5923 208.922C67.5923 209.63 67.0204 210.229 66.2851 210.229Z" fill="#201000"/>
<path d="M65.6315 165.428C64.9507 165.428 64.3515 164.884 64.3243 164.203L62.0366 121.69C62.0094 120.982 62.5541 120.356 63.2622 120.301C63.9975 120.247 64.5966 120.819 64.6511 121.527L66.9388 164.039C66.966 164.747 66.4213 165.374 65.7132 165.428C65.686 165.428 65.6588 165.428 65.6315 165.428Z" fill="#201000"/>
<path d="M159.971 70.11C158.691 67.1415 156.294 64.9355 153.925 62.8385C149.322 58.7261 145.564 55.104 142.214 49.7933C137.966 43.0665 134.044 35.3592 126.663 31.5737C117.458 26.835 103.051 32.1456 106.728 44.3193C107.218 45.9261 109.751 45.2452 109.261 43.6384V43.6112C109.588 43.6929 109.914 43.7746 110.214 43.8563C111.276 44.1559 112.338 44.4555 113.4 44.8095C116.696 42.6852 120.291 41.6776 123.259 42.1133C125.819 42.4946 127.998 43.9108 129.714 46.3074C132.192 49.7933 132.927 53.361 131.865 56.9287C131.13 59.3797 129.55 61.8036 127.29 63.9823C127.453 65.0172 127.617 66.0521 127.807 67.0597C127.834 67.1687 127.834 67.2776 127.862 67.3593C129.278 74.5764 132.246 81.8751 139.109 85.5789C149.404 91.1347 165.581 83.0189 159.971 70.11Z" fill="#201000"/>
<path d="M111.14 44.8098C108.934 46.5255 107.272 48.4591 106.592 50.0115C106.592 50.0115 103.705 40.4251 87.3644 40.7519C73.2843 41.0514 65.1958 45.5451 62.8264 55.0498C49.9447 49.7664 47.9838 33.4804 60.7839 32.0369C73.5567 30.5935 102.343 31.6284 111.14 44.8098Z" fill="#201000"/>
<path d="M116.968 83.9726C116.723 84.1632 116.478 84.3538 116.232 84.5172C117.975 78.5802 117.458 71.6627 117.458 71.6627C119.555 70.8457 121.57 69.8381 123.395 68.667C124.212 74.141 122.714 79.37 116.968 83.9726Z" fill="#201000"/>
<path d="M134.37 57.6908C133.362 61.0679 131.075 64.3087 127.834 67.0866C125.328 69.2109 122.305 71.0628 118.819 72.5334C118.928 75.5836 118.955 85.0066 114.87 90.3445C115.17 92.8773 116.45 103.934 117.921 118.913C118.002 119.621 117.458 120.275 116.749 120.357C116.014 120.438 115.388 119.894 115.306 119.185C113.618 102.191 112.201 90.2628 112.174 90.1267C112.12 89.7726 112.229 89.3913 112.474 89.119C116.995 83.7811 116.123 71.907 116.123 71.7709C116.069 71.199 116.423 70.6543 116.94 70.4636C121.052 68.8568 124.62 66.5964 127.262 64.0364C129.522 61.8576 131.102 59.4338 131.837 56.9827C132.899 53.4151 132.164 49.8202 129.686 46.3614C127.97 43.9648 125.791 42.5487 123.231 42.1674C120.263 41.7316 116.695 42.7121 113.372 44.8635C112.882 45.1904 112.392 45.5444 111.902 45.8985C109.941 47.4236 108.361 49.221 107.762 50.5827C107.544 51.0729 107.027 51.3997 106.482 51.3725C105.938 51.3453 105.475 50.964 105.311 50.4465C105.202 50.0925 102.424 41.7861 87.3366 42.1401C73.6379 42.4397 66.2302 46.661 64.0242 55.4304C63.2072 58.6713 63.0983 62.6747 63.6974 67.3317C63.9697 69.4015 64.2149 71.4985 64.4872 73.5955C65.9306 85.3879 67.4285 97.5616 71.4864 102.055C76.1162 107.202 81.2906 107.148 88.1264 105.378C88.4804 105.296 88.8345 105.351 89.1341 105.514C89.4336 105.705 89.6515 106.004 89.7332 106.331L94.6354 127.574C94.7988 128.282 94.363 128.99 93.6549 129.153C93.546 129.18 93.4643 129.18 93.3554 129.18C92.7562 129.18 92.2115 128.772 92.0754 128.173L87.4728 108.21C80.4736 109.817 74.7 109.545 69.5255 103.771C64.9229 98.6509 63.4523 86.6134 61.8727 73.8679C61.6276 71.7981 61.3553 69.7011 61.0829 67.6313C60.4293 62.5657 60.5655 58.3444 61.4642 54.7495C63.9698 44.7819 72.3851 39.798 87.2549 39.4712C99.5103 39.2261 104.63 44.2644 106.646 47.3419C107.544 46.1708 108.743 44.9725 110.159 43.8559C110.186 43.8287 110.24 43.8014 110.268 43.7742C112.31 42.1946 117.648 38.6542 123.558 39.5257C126.853 40.0159 129.604 41.7861 131.755 44.7818C134.778 48.8942 135.65 53.3606 134.37 57.6908Z" fill="#201000"/>
<path d="M76.4978 83.2098C76.1982 83.2098 75.8987 83.1008 75.6536 82.9102C69.3353 77.5451 70.3157 69.5655 74.1557 57.6097C74.3736 56.9289 75.1089 56.5476 75.7897 56.7655C76.4706 56.9833 76.8518 57.7187 76.634 58.3995C72.5489 71.1178 72.7395 77.0004 77.3421 80.8949C77.8868 81.3579 77.9685 82.1749 77.4782 82.7468C77.2604 83.0464 76.8791 83.2098 76.4978 83.2098Z" fill="#201000"/>
<path d="M93.1635 64.3099C93.986 63.9384 94.3517 62.9705 93.9802 62.148C93.6088 61.3255 92.6409 60.9599 91.8184 61.3313C90.9959 61.7028 90.6302 62.6707 91.0017 63.4932C91.3731 64.3157 92.341 64.6813 93.1635 64.3099Z" fill="#201000"/>
<path d="M67.9438 67.0589C68.7663 66.6874 69.1319 65.7196 68.7605 64.8971C68.389 64.0746 67.4211 63.7089 66.5986 64.0804C65.7761 64.4518 65.4105 65.4197 65.7819 66.2422C66.1534 67.0647 67.1213 67.4303 67.9438 67.0589Z" fill="#201000"/>
<path d="M93.4917 86.9674C96.8142 86.4227 98.7478 83.1274 97.4951 79.9682C96.8687 78.4159 99.2653 77.3265 99.8917 78.8789C101.771 83.6176 98.9929 88.7104 93.9274 89.5547C92.2389 89.827 91.8304 87.2398 93.4917 86.9674Z" fill="#201000"/>
<path d="M88.4261 55.0765C88.5078 54.3412 89.1614 53.8782 89.8695 53.9054C90.6048 53.9327 91.3401 53.9599 92.0482 53.9599C92.7563 53.9871 93.2738 54.7225 93.2193 55.4033C93.1376 56.1386 92.484 56.6016 91.7759 56.5744C91.0406 56.5471 90.3052 56.5199 89.5972 56.5199C88.8891 56.4927 88.3444 55.7301 88.4261 55.0765Z" fill="#201000"/>
<path d="M65.6313 55.5661L67.1292 54.8852C68.6543 54.2044 69.7437 56.5737 68.2186 57.2818L66.7207 57.9627C65.1683 58.6435 64.079 56.2469 65.6313 55.5661Z" fill="#201000"/>
<path d="M113.754 62.429C113.727 62.429 113.727 62.429 113.699 62.429C112.991 62.4018 112.42 61.8026 112.447 61.0673C112.583 57.6086 116.341 50.1737 121.788 48.8937C122.496 48.7303 123.204 49.166 123.368 49.8741C123.531 50.5822 123.095 51.2903 122.387 51.4537C118.166 52.4341 115.17 58.8341 115.061 61.1763C115.034 61.8843 114.462 62.429 113.754 62.429Z" fill="#201000"/>
<path d="M104.738 42.686C101.688 40.3711 97.9842 39.3362 94.1987 39.4996C94.0897 39.4996 93.9808 39.5541 93.8991 39.5813C93.7629 39.2818 93.5995 38.9822 93.4634 38.6826C92.7825 37.1303 90.5493 38.492 91.2029 40.0171C92.9731 44.0477 95.8327 47.452 99.6183 49.7124C101.933 51.1014 105.964 52.7626 107.707 49.658C109.205 46.989 106.726 44.1839 104.738 42.686Z" fill="#201000"/>
<path d="M34.013 201.514L28.9746 200.724C28.3483 200.425 27.7491 200.043 27.2044 199.553C24.0725 196.911 5.22651 186.808 5.25375 190.185C5.28098 195.713 24.5083 202.74 21.3763 209.357L9.58398 204.265C7.21461 204.047 4.87246 203.502 2.88437 202.277L-8.28161 176.486C-9.09863 174.607 -7.70968 172.482 -5.66713 172.482H21.3491C22.4929 172.482 23.5278 173.163 23.9908 174.198L28.2666 184.139C26.8504 184.084 25.6249 184.465 24.8623 185.391C23.0376 187.625 28.7023 188.659 31.807 192.336L33.6317 196.557C33.7679 198.055 33.9857 201.378 34.013 201.514Z" fill="#201000"/>
<path d="M137.202 271.069C122.469 271.069 99.7555 264.016 62.8532 249.582C14.5944 230.681 10.8633 227.794 6.36967 221.476C5.96116 220.877 6.09734 220.06 6.66925 219.651C7.2684 219.243 8.08543 219.379 8.49394 219.951C12.5518 225.67 16.3918 228.584 63.8064 247.158C135.323 275.154 150.356 273.466 159.235 254.184C163.837 244.135 168.195 219.76 170.619 190.538C171.844 175.478 172.443 160.417 172.362 146.964C172.253 131.032 164.981 123.215 148.069 120.9C141.124 119.947 133.144 119.975 125.41 120.029C122.768 120.056 120.127 120.056 117.512 120.029C116.777 120.029 116.205 119.43 116.205 118.722C116.205 117.986 116.75 117.442 117.512 117.415C120.127 117.442 122.741 117.415 125.383 117.415C133.199 117.387 141.287 117.333 148.423 118.313C159.752 119.866 174.84 124.55 174.976 146.964C175.058 160.472 174.459 175.614 173.233 190.756C170.809 220.251 166.343 244.979 161.631 255.274C156.811 265.704 150.03 271.069 137.202 271.069Z" fill="#201000"/>
<path d="M134.725 232.451C134.589 232.451 134.453 232.423 134.344 232.396C131.13 231.388 55.7734 207.504 48.5291 203.827C43.1368 201.077 40.4134 196.638 38.2074 193.043C37.3359 191.627 36.5189 190.265 35.6474 189.284C33.7682 187.106 30.4185 185.417 27.9946 185.417C27.9674 185.417 27.9401 185.417 27.9401 185.417C26.9869 185.417 26.3061 185.69 25.8976 186.207C26.1972 186.588 27.2321 187.215 27.9946 187.678C30.5274 189.23 34.0134 191.381 34.8848 195.548C35.7563 199.633 34.5036 201.349 33.3053 202.085C31.2627 203.31 28.3487 202.193 26.3878 200.532C22.575 197.319 8.24988 190.101 6.12562 191.136C5.77158 191.49 5.52646 191.872 5.5537 192.09C5.66263 192.934 8.19541 194.35 10.4286 195.63C13.969 197.618 18.381 200.096 21.9486 204.127C22.8201 205.053 24.7538 207.45 23.6372 209.138C22.684 210.609 20.3691 210.527 15.7393 208.839C12.0082 207.504 9.42095 206.823 7.5418 206.333C3.89243 205.38 2.39455 204.999 1.00561 201.54C0.733271 200.859 1.06007 200.096 1.74092 199.851C2.39454 199.579 3.18433 199.906 3.42944 200.587C4.32816 202.82 4.68221 202.902 8.19541 203.8C10.129 204.29 12.7707 204.971 16.6108 206.36C19.3069 207.341 20.6142 207.531 21.2133 207.531C20.9682 207.068 20.5052 206.388 20.015 205.87C16.7469 202.139 12.5256 199.797 9.17585 197.89C5.74435 195.957 3.26604 194.568 2.9937 192.416C2.85753 191.327 3.3205 190.265 4.38263 189.203C8.11371 185.581 26.4695 197.155 28.1036 198.517C29.6831 199.851 31.3172 200.233 31.998 199.824C32.6244 199.443 32.7606 197.999 32.3793 196.093C31.7257 193.016 28.9206 191.273 26.6601 189.911C24.9172 188.849 23.5282 187.977 23.3103 186.588C23.2286 186.098 23.2559 185.336 23.9367 184.546C24.8627 183.429 26.2516 182.83 27.9674 182.803C27.9946 182.803 28.0218 182.803 28.0763 182.803C31.2899 182.803 35.3206 184.791 37.7172 187.569C38.6976 188.713 39.5963 190.156 40.5223 191.681C42.6466 195.14 45.0432 199.061 49.7819 201.485C56.8355 205.08 134.426 229.645 135.188 229.891C135.869 230.108 136.25 230.844 136.032 231.525C135.787 232.097 135.27 232.451 134.725 232.451Z" fill="#201000"/>
<path d="M127.753 229.837C127.699 229.837 127.617 229.837 127.562 229.81C126.854 229.701 126.364 229.047 126.446 228.312L135.27 168.479C135.379 167.77 136.032 167.28 136.74 167.389C137.448 167.498 137.939 168.152 137.857 168.887L129.033 228.72C128.951 229.374 128.38 229.837 127.753 229.837Z" fill="#201000"/>
</g>
<path d="M0.325195 0.544922V-0.779501H-0.999227V0.544922H0.325195ZM198.989 0.544922H200.313V-0.779501H198.989V0.544922ZM198.989 199.208V200.533H200.313V199.208H198.989ZM0.325195 199.208H-0.999227V200.533H0.325195V199.208ZM0.325195 1.86934H198.989V-0.779501H0.325195V1.86934ZM197.664 0.544922V199.208H200.313V0.544922H197.664ZM198.989 197.884H0.325195V200.533H198.989V197.884ZM1.64962 199.208V0.544922H-0.999227V199.208H1.64962Z" fill="black" fill-opacity="0.1"/>
<defs>
<clipPath id="clip0_3_17712">
<path d="M0.325195 0.544922H198.989V199.208H0.325195V0.544922Z" fill="white"/>
</clipPath>
</defs>
</svg>
