<svg width="199" height="199" viewBox="0 0 199 199" fill="none" xmlns="http://www.w3.org/2000/svg">
<g clip-path="url(#clip0_3_17720)">
<path d="M0.325195 0.148438H198.989V198.812H0.325195V0.148438Z" fill="#F8F8F8"/>
<path d="M174.998 187.522C166.115 194.939 161.463 197.928 148.717 203.06C136.62 207.91 123.282 210.589 109.295 210.871C108.534 210.899 107.773 210.899 107.011 210.899C63.8112 210.899 26.7865 184.562 11.0518 147.058C11.0518 147.058 11.0517 106.875 54.1673 109.807L129.26 126.557C157.487 138.09 174.265 186.225 174.998 187.522Z" fill="#F8F8F8"/>
<path d="M107.011 212.055C64.516 212.055 26.4198 186.733 9.9801 147.509C9.9237 147.368 9.89551 147.198 9.89551 147.057C9.89551 146.352 10.0365 129.433 22.1055 118.154C29.8319 110.935 40.6319 107.72 54.2518 108.651L129.514 125.429C146.574 132.366 162.844 153.769 175.505 185.689C175.787 186.394 175.957 186.817 176.041 186.986C176.267 187.466 176.182 188.086 175.759 188.425C166.905 195.813 162.083 198.943 149.168 204.131C136.789 209.094 123.395 211.745 109.323 212.027C108.534 212.055 107.773 212.055 107.011 212.055ZM12.236 146.86C28.3655 185.069 65.5312 209.743 107.011 209.743C107.744 209.771 108.506 209.743 109.267 209.714C123.056 209.433 136.168 206.838 148.294 201.988C160.701 196.997 165.269 194.121 173.616 187.184C173.531 186.986 173.447 186.789 173.362 186.535C160.927 155.207 145.107 134.283 128.837 127.629L53.9134 110.935C41.1395 110.089 30.9316 113.078 23.7128 119.846C13.0819 129.8 12.2924 144.83 12.236 146.86Z" fill="#000200"/>
<path d="M121.393 58.7389C118.771 46.106 110.593 33.7551 83.0995 39C55.6059 44.2449 45.3134 58.2314 48.8101 76.5604C52.3067 94.8894 53.4064 95.7918 53.4064 95.7918C49.1202 98.3015 48.4999 101.544 48.9511 103.969C49.5714 107.269 52.6733 110.878 59.3845 110.399L64.6858 130.194L109.916 140.43C115.077 138.907 120.857 136.567 124.833 133.155C136.282 123.229 129.74 98.95 121.393 58.7389Z" fill="#F8F8F8"/>
<path d="M109.916 141.587C109.409 141.587 108.957 141.248 108.788 140.741C108.591 140.121 108.957 139.472 109.578 139.303C115.951 137.413 120.829 135.045 124.044 132.253C133.913 123.737 129.627 103.519 122.549 70.0472C121.788 66.4942 121.026 62.8002 120.209 58.9652C116.74 42.2153 104.643 36.0398 83.2686 40.1286C57.8617 44.9787 46.3003 57.4989 49.9097 76.3355C52.927 92.0985 54.1113 94.7491 54.3087 95.0875C54.4779 95.3131 54.5625 95.5951 54.5343 95.877C54.5061 96.2436 54.2805 96.6102 53.9703 96.8076C50.0789 99.0917 49.7123 101.855 50.0789 103.773C50.6429 106.705 53.3781 109.694 59.2998 109.243C59.9202 109.187 60.5124 109.666 60.5406 110.315C60.597 110.963 60.1176 111.527 59.469 111.555C51.9964 112.091 48.4998 107.918 47.7948 104.196C47.4001 102.165 47.4846 98.3867 51.94 95.3413C50.9249 92.6906 49.4867 86.4869 47.6538 76.7867C43.8188 56.7657 56.339 42.9203 82.8738 37.8445C105.461 33.5302 118.799 40.467 122.549 58.4858C123.339 62.3208 124.128 66.0148 124.861 69.5678C132.108 103.885 136.479 124.611 125.595 134.03C122.126 137.047 116.966 139.557 110.255 141.559C110.142 141.587 110.029 141.587 109.916 141.587Z" fill="#000200"/>
<path d="M115.105 45.2612C109.606 39.1985 100.019 35.7583 83.0995 38.9729C55.6059 44.2178 45.3134 58.2043 48.8101 76.5333C52.3067 94.8623 52.3067 94.8623 52.3067 94.8623L55.9161 94.4394C58.6795 93.5652 60.5124 93.3678 62.7401 93.0576C64.4884 92.8039 65.701 93.537 65.4754 91.7605C65.2498 89.984 65.0524 88.2075 64.855 86.4592C68.4362 85.0493 71.6226 82.5114 73.4274 79.0994C75.2321 75.6028 74.1041 70.5834 69.5078 70.5834C68.549 70.5834 68.1542 71.5422 68.4926 72.3317C69.2822 74.1929 69.3104 76.0539 68.7464 77.6613C68.1542 79.0994 66.9981 80.2555 65.419 80.9605C65.1652 81.0733 64.996 81.2707 64.9114 81.5245C64.7422 81.6372 64.573 81.7218 64.4038 81.8064C63.8117 74.5594 63.9809 68.0738 66.4623 64.0414C78.8697 64.4926 90.8822 59.8398 99.8776 51.0419C104.474 50.6471 108.788 50.6189 112.257 50.9291C115.359 51.2675 117.163 47.5735 115.105 45.2612Z" fill="#000200"/>
<path d="M107.462 97.1184C106.898 97.1184 106.391 96.6955 106.306 96.1033C106.221 95.4547 106.673 94.8626 107.293 94.778C109.464 94.4678 111.156 93.65 111.833 92.5785C112.228 91.9581 112.284 91.2813 112.03 90.4636C111.466 88.6871 107.293 88.2077 105.319 88.2923C104.699 88.2641 104.219 87.8693 104.135 87.2772L102.668 76.7027C102.584 76.0542 103.035 75.462 103.655 75.3774C104.276 75.2928 104.868 75.744 104.981 76.3643L106.306 85.9518C108.506 86.0364 113.271 86.5722 114.258 89.7586C114.709 91.225 114.568 92.6067 113.807 93.791C112.735 95.4829 110.536 96.6673 107.603 97.062C107.547 97.0902 107.519 97.1184 107.462 97.1184Z" fill="#000200"/>
<path d="M115.245 79.128L115.329 81.4684C115.414 84.4575 120.095 84.3165 119.982 81.3275L119.897 78.987C119.813 75.9979 115.132 76.1389 115.245 79.128Z" fill="#000200"/>
<path d="M84.1983 84.1749L84.2829 86.5154C84.3675 89.5044 89.0484 89.3635 88.9356 86.3744L88.851 84.0339C88.7664 81.0167 84.0855 81.1859 84.1983 84.1749Z" fill="#000200"/>
<path d="M94.6323 109.553C92.8558 109.525 90.4589 109.046 90.0641 107.015C89.7822 105.549 87.4417 105.859 87.7519 107.326C88.3722 110.456 91.3895 111.809 94.3503 111.866C95.8166 111.866 96.1268 109.553 94.6323 109.553Z" fill="#000200"/>
<path d="M49.374 79.4938C62.6273 71.6264 78.8415 68.0452 93.3355 63.8719C102.472 61.2212 111.721 58.9653 121.026 57.1606C118.037 45.0916 109.437 33.9532 83.0995 39.0008C55.6059 44.2457 45.3134 58.2322 48.8101 76.5612C48.9793 77.6045 49.1766 78.5633 49.374 79.4938Z" fill="#F8F8F8"/>
<path d="M49.3739 80.6785C49.2047 80.6785 49.0356 80.6503 48.8946 80.5657C48.5562 80.4247 48.3024 80.0863 48.2178 79.7197L47.6538 76.7589C43.8188 56.7379 56.339 42.8925 82.8738 37.8167C104.784 33.6152 118.009 40.0444 122.154 56.8507C122.239 57.1609 122.183 57.4993 122.013 57.7531C121.844 58.0351 121.562 58.2043 121.252 58.2607C112.398 59.9808 103.12 62.2366 93.6738 64.9437C91.1642 65.6769 88.5981 66.3818 86.0038 67.0868C73.6247 70.4988 60.8225 74.0236 49.9943 80.4529C49.7687 80.6221 49.5713 80.6785 49.3739 80.6785ZM94.9709 38.9165C91.4461 38.9165 87.5547 39.3395 83.2968 40.129C57.8899 44.9792 46.3285 57.4993 49.9379 76.3359L50.1917 77.6612C60.9635 71.5985 73.3427 68.1865 85.327 64.8873C87.9213 64.1823 90.4874 63.4774 92.997 62.7442C102.077 60.1218 111.016 57.9223 119.56 56.2304C116.289 44.6408 108.168 38.9165 94.9709 38.9165Z" fill="#000200"/>
<path d="M91.6435 210.928C91.4743 210.928 91.277 210.899 91.1078 210.787C90.5438 210.505 90.3182 209.8 90.6002 209.208C90.6566 209.123 95.0556 200.522 102.726 180.36C108.224 165.979 114.428 149.652 111.241 143.364C110.621 142.151 109.634 141.362 108.281 140.995C89.6132 135.891 86.0884 122.948 84.0017 115.222C83.325 112.712 82.62 110.118 81.7741 110.118C81.4639 110.09 81.1819 110.203 80.9563 110.626C79.208 113.84 82.6482 126.219 88.6545 134.961C89.0211 135.497 88.8801 136.23 88.3443 136.596C87.8085 136.963 87.0754 136.822 86.7088 136.286C81.0409 128.052 76.2754 114.291 78.8696 109.526C79.49 108.37 80.5051 107.777 81.8023 107.806C84.3683 107.862 85.1579 110.71 86.2294 114.63C88.2033 121.877 91.5025 134.03 108.873 138.768C110.903 139.332 112.398 140.516 113.3 142.349C116.966 149.568 110.819 165.641 104.897 181.235C97.1704 201.538 92.7151 210.223 92.6587 210.307C92.4895 210.702 92.0665 210.928 91.6435 210.928Z" fill="#000200"/>
<path d="M80.5896 134.82C80.223 134.82 79.8283 134.623 79.6027 134.284C73.822 125.571 69.3948 111.387 70.1562 106.763C70.7483 103.266 72.5248 102.702 73.54 102.674C76.4162 102.505 79.6027 106.847 80.4486 110.682C80.5896 111.302 80.1948 111.923 79.5745 112.064C78.9541 112.205 78.3337 111.81 78.1927 111.19C77.4314 107.806 74.7807 104.901 73.6246 105.014C73.1452 105.014 72.694 105.832 72.4966 107.157C71.8763 110.795 75.8805 124.387 81.5766 133.015C81.9431 133.551 81.7739 134.284 81.2382 134.623C81.0408 134.764 80.8152 134.82 80.5896 134.82Z" fill="#000200"/>
<path d="M73.0318 134.058C72.6653 134.058 72.2987 133.889 72.0731 133.551C66.518 125.458 63.5571 112.458 63.5571 108.933C63.5571 106.057 64.0647 102.363 66.4334 101.094C67.8997 100.305 69.7326 100.615 71.8475 102.025C72.3833 102.391 72.5243 103.096 72.1859 103.632C71.8193 104.168 71.1143 104.309 70.5786 103.97C69.648 103.35 68.3791 102.73 67.5613 103.153C66.5462 103.688 65.9258 105.916 65.8976 108.933C65.8976 111.866 68.6611 124.442 73.9906 132.225C74.3572 132.761 74.2162 133.494 73.6804 133.833C73.483 134.002 73.2574 134.058 73.0318 134.058Z" fill="#000200"/>
<path d="M51.6574 196.123C51.4882 196.123 51.2908 196.094 51.1216 196.01C50.5577 195.728 50.3321 195.023 50.6141 194.431L52.6162 190.511C58.6224 178.837 72.6653 151.456 70.2684 146.606C65.3055 136.511 61.5269 123.06 59.8914 117.308L59.4966 115.898C57.0715 107.382 57.1561 102.165 59.8068 100.36C61.4423 99.2325 63.7264 99.6837 66.2078 101.601C66.7154 101.996 66.8282 102.729 66.4334 103.237C66.0387 103.744 65.3055 103.857 64.7979 103.462C63.2188 102.25 61.8371 101.827 61.1321 102.306C60.7091 102.588 58.707 104.59 61.7525 115.277L62.1473 116.687C63.7546 122.384 67.505 135.693 72.3551 145.591C75.034 151.061 65.1081 171.308 54.7029 191.611L52.7008 195.53C52.5034 195.897 52.0804 196.123 51.6574 196.123Z" fill="#000200"/>
<path d="M124.607 65.2259C105.235 65.2541 48.8376 87.6719 48.8376 87.6719L45.3691 76.8155C45.3691 76.8155 101.174 56.428 121.985 55.1309L124.607 65.2259Z" fill="#F8F8F8"/>
<path d="M48.809 88.8276C48.6398 88.8276 48.4706 88.7993 48.3015 88.7147C48.0195 88.5738 47.7939 88.32 47.6811 88.0098L44.2127 77.1534C44.0153 76.5612 44.3255 75.9126 44.9176 75.7152C47.2017 74.8693 101.117 55.2431 121.871 53.9742C122.379 53.946 122.943 54.3126 123.084 54.8483L125.706 64.9434C125.791 65.2818 125.735 65.6766 125.509 65.9585C125.283 66.2405 124.945 66.4097 124.578 66.4097C105.657 66.4379 49.796 88.5456 49.232 88.7711C49.1192 88.7993 48.95 88.8276 48.809 88.8276ZM46.8069 77.5199L49.5422 86.1205C57.6916 82.9341 103.993 65.0562 123.084 64.0975L121.082 56.3429C101.597 58.0348 54.4487 74.7847 46.8069 77.5199Z" fill="#000200"/>
<path d="M86.1444 69.1446C84.3679 69.8495 82.676 70.6673 81.0405 71.7106C79.7997 72.5284 81.2943 74.3049 82.535 73.4871C83.9731 72.5566 85.5522 71.8798 87.1031 71.2312C88.5131 70.6955 87.5261 68.5806 86.1444 69.1446Z" fill="#000200"/>
<path d="M120.18 60.7142C118.883 60.0938 117.473 59.7273 116.232 59.0223C114.935 58.2891 113.553 60.1502 114.85 60.9116C116.288 61.7294 117.839 62.2087 119.306 62.9137C120.687 63.5341 121.533 61.3628 120.18 60.7142Z" fill="#000200"/>
<path d="M95.337 190.539C86.3135 190.539 72.0169 186.197 60.9349 176.524C60.4555 176.101 60.3991 175.368 60.8221 174.889C61.245 174.41 61.9782 174.353 62.4576 174.776C75.6263 186.281 94.0117 190.032 100.356 187.494C100.949 187.268 101.625 187.55 101.879 188.142C102.133 188.734 101.823 189.411 101.231 189.665C99.7642 190.229 97.7339 190.539 95.337 190.539Z" fill="#000200"/>
<path d="M53.406 96.9499C52.9266 96.9499 52.4754 96.6679 52.3062 96.1886C52.0806 95.5964 52.3908 94.9196 52.983 94.694C53.3214 94.5812 61.1888 91.6768 64.5162 91.0846C65.1647 90.9718 65.7569 91.3948 65.8697 92.0152C65.9825 92.6637 65.5595 93.2559 64.9392 93.3687C61.8091 93.9327 53.8853 96.8371 53.8007 96.8935C53.6598 96.9217 53.5188 96.9499 53.406 96.9499Z" fill="#000200"/>
<path d="M134.195 207.853C134.139 207.853 134.111 207.853 134.054 207.853C133.406 207.769 132.954 207.177 133.039 206.556L134.985 190.963C135.069 190.314 135.633 189.891 136.282 189.947C136.93 190.032 137.382 190.624 137.297 191.245L135.351 206.838C135.295 207.43 134.787 207.853 134.195 207.853Z" fill="#000200"/>
<path d="M45.1716 191.216C45.1998 191.188 45.1998 191.188 45.228 191.188C45.6792 190.737 45.651 190.004 45.1998 189.552C45.1434 189.496 39.5883 183.828 42.9721 167.388C43.1131 166.768 42.6901 166.148 42.0698 166.007C41.4494 165.866 40.829 166.289 40.688 166.909C38.122 179.373 40.4061 186.169 42.1262 189.214C43.1413 189.891 44.1565 190.568 45.1716 191.216Z" fill="#000200"/>
</g>
<path d="M0.325195 0.148438V-1.17598H-0.999227V0.148438H0.325195ZM198.989 0.148438H200.313V-1.17598H198.989V0.148438ZM198.989 198.812V200.136H200.313V198.812H198.989ZM0.325195 198.812H-0.999227V200.136H0.325195V198.812ZM0.325195 1.47286H198.989V-1.17598H0.325195V1.47286ZM197.664 0.148438V198.812H200.313V0.148438H197.664ZM198.989 197.487H0.325195V200.136H198.989V197.487ZM1.64962 198.812V0.148438H-0.999227V198.812H1.64962Z" fill="black" fill-opacity="0.1"/>
<defs>
<clipPath id="clip0_3_17720">
<path d="M0.325195 0.148438H198.989V198.812H0.325195V0.148438Z" fill="white"/>
</clipPath>
</defs>
</svg>
