<svg width="200" height="200" viewBox="0 0 200 200" fill="none" xmlns="http://www.w3.org/2000/svg">
<g clip-path="url(#clip0_3_17707)">
<path d="M0.770508 0.544922H199.434V199.208H0.770508V0.544922Z" fill="#F8F8F8"/>
<path d="M53.9269 153.133C55.3268 153.382 56.662 152.45 56.9092 151.052C57.1563 149.653 56.2218 148.318 54.8219 148.069C53.422 147.821 52.0868 148.753 51.8396 150.151C51.5925 151.55 52.527 152.885 53.9269 153.133Z" fill="black"/>
<path d="M114.172 182.479C115.572 182.728 116.907 181.796 117.154 180.397C117.401 178.999 116.467 177.664 115.067 177.415C113.667 177.166 112.332 178.098 112.085 179.497C111.838 180.895 112.772 182.231 114.172 182.479Z" fill="black"/>
<path d="M94.6427 131.447C96.0427 131.696 97.3778 130.763 97.625 129.365C97.8721 127.967 96.9376 126.631 95.5377 126.383C94.1378 126.134 92.8026 127.066 92.5555 128.465C92.3083 129.863 93.2428 131.198 94.6427 131.447Z" fill="black"/>
<path d="M168.439 192.548C169.839 192.796 171.174 191.864 171.421 190.466C171.668 189.067 170.734 187.732 169.334 187.483C167.934 187.235 166.598 188.167 166.351 189.565C166.104 190.964 167.039 192.299 168.439 192.548Z" fill="black"/>
<path d="M22.6516 361.394C22.5706 361.382 22.5706 361.382 22.6516 361.394C6.08863 356.953 -10.3254 351.546 -26.2789 345.304C-27.6063 344.77 -28.9337 344.237 -30.3421 343.691C-36.1252 341.401 -41.8836 338.951 -47.4675 336.445C-90.3065 317.419 -111.72 307.866 -118.017 290.094C-129.439 257.694 -91.7131 219.011 -61.3658 187.844L-58.9063 185.339C-44.43 170.513 -17.6069 142.84 26.6965 131.941C37.0372 129.412 47.7151 127.923 58.5556 127.531C57.4079 125.295 57.2073 123.369 57.8605 121.822C58.2649 120.814 58.9998 120.35 59.6537 119.874C60.2017 119.546 60.6812 119.126 61.1045 118.532C61.9759 117.183 61.6075 115.808 61.2266 114.514C60.902 113.393 60.6459 112.366 61.1874 111.543C62.5442 109.198 67.0561 111.127 74.6154 114.266C84.0443 118.187 96.8884 123.622 109.342 122.983L109.679 122.952C112.358 122.788 119.547 122.41 123.525 126.729C124.946 128.265 126.643 131.245 125.535 133.051C125.087 133.806 124.296 134.096 123.505 134.387C122.807 134.609 122.016 134.899 121.406 135.629C120.808 136.279 120.441 137.046 120.292 138.011C120.498 138.29 120.635 138.476 120.716 138.489C136.668 142.589 149.981 149.825 160.205 159.882C176.052 175.416 181.983 195.027 190.929 224.658C193.564 233.383 195.918 242.312 197.774 251.247C197.886 251.593 197.581 251.958 197.232 252.069C196.884 252.181 196.516 251.877 196.404 251.53C194.535 242.676 192.168 233.827 189.534 225.102C180.644 195.645 174.688 176.195 159.14 160.871C149.066 150.92 135.89 143.869 120.181 139.807L120.1 139.794C120.019 139.782 119.246 139.416 118.828 138.363C118.76 138.27 118.785 138.109 118.797 138.029C119.008 136.661 119.425 135.572 120.234 134.625C121.137 133.611 122.102 133.265 122.881 133.055C123.579 132.833 123.94 132.641 124.151 132.344C124.718 131.361 123.651 129.137 122.311 127.613C118.838 123.784 112.147 124.156 109.63 124.345L109.293 124.376C96.503 125.045 83.4969 119.586 73.9994 115.572C68.3907 113.227 63.0936 111.012 62.3156 112.293C62.0915 112.67 62.3038 113.444 62.5161 114.218C62.8846 115.593 63.4339 117.407 62.2326 119.282C61.6787 120.185 61.0248 120.661 60.3833 121.057C59.8229 121.465 59.3558 121.805 59.0945 122.424C58.4785 123.73 58.9345 125.612 60.2443 127.873C60.3814 128.059 60.4252 128.313 60.226 128.529C60.1078 128.758 59.9209 128.894 59.6779 128.857C48.6068 129.131 37.5925 130.651 26.9839 133.303C-16.902 144.184 -43.6069 171.628 -57.9898 186.386L-60.4493 188.891C-90.504 219.774 -127.937 258.172 -116.796 289.705C-110.736 306.864 -89.4037 316.405 -47.0383 335.275C-41.4544 337.781 -35.6836 340.151 -29.9939 342.509C-28.6665 343.042 -27.2581 343.588 -25.9307 344.122C-10.2078 350.246 5.97559 355.535 22.2021 360.007L26.4579 350.694L26.4703 350.614C28.4862 346.146 30.5831 341.69 32.6675 337.315L34.1484 334.166C37.1473 327.625 40.2273 321.096 43.2263 314.556L43.2387 314.475C43.3818 314.085 43.8116 313.987 44.2042 314.129C44.5968 314.272 44.6967 314.699 44.5537 315.089L43.9305 314.829L44.5413 315.17C41.5423 321.71 38.4623 328.239 35.4634 334.78L33.9825 337.929C31.8856 342.385 29.8698 346.853 27.7729 351.308L27.7605 351.389L23.2682 361.16C23.2558 361.24 22.9756 361.444 22.6516 361.394Z" fill="black"/>
<path d="M194.493 325.79C193.209 325.589 191.857 325.294 190.598 324.931C184.223 323.101 177.743 319.261 171.317 313.436C171.033 313.143 171.014 312.724 171.224 312.425C171.514 312.138 171.927 312.12 172.223 312.332C178.513 317.97 184.834 321.785 190.98 323.495C194.369 324.442 197.843 324.82 201.162 324.592C209.628 324.009 219.796 319.787 251.118 275.187C258.025 265.387 264.728 255.306 271.006 245.325C271.869 243.965 272.733 242.605 273.596 241.245C282.291 227.24 290.634 212.848 298.23 198.504C297.471 197.555 296.792 196.617 296.032 195.668C294.174 193.3 292.316 190.932 290.513 188.739C286.5 183.79 282.314 178.898 278.024 174.155C273.678 169.238 269.146 164.457 264.603 159.758L192.546 259.03C192.336 259.33 191.911 259.429 191.614 259.217C191.318 259.004 191.219 258.573 191.429 258.274L263.893 158.484C263.997 158.334 264.183 158.197 264.423 158.235C264.596 158.179 264.824 158.298 264.972 158.404C269.744 163.222 274.479 168.284 279.042 173.401C283.252 178.131 287.518 183.036 291.531 187.985C293.333 190.178 295.192 192.546 297.05 194.914C297.877 195.957 298.692 197.081 299.52 198.125C299.656 198.312 299.687 198.649 299.569 198.88C291.856 213.454 283.488 228.009 274.608 242.152C273.745 243.512 272.882 244.871 272.018 246.231C265.648 256.281 258.945 266.362 252.038 276.162C220.401 321.211 209.888 325.545 201.089 326.159C199.022 326.251 196.739 326.142 194.493 325.79Z" fill="black"/>
<path d="M68.0973 103.028C65.2826 102.589 62.6036 101.258 60.5431 99.1119C57.969 96.5537 56.6008 93.1056 56.5812 89.4534C56.5605 82.5666 61.7302 76.7392 68.516 75.9742C69.1036 75.9001 69.5985 75.8945 70.1738 75.9014C71.8192 75.9095 73.4834 76.3353 73.5638 76.3478C74.8382 76.6297 76.0755 77.1547 77.2078 77.8291C77.5047 78.0414 77.6843 78.4841 77.474 78.783C77.2638 79.0819 76.8247 79.2621 76.5277 79.0499C75.4635 78.469 74.3747 78.0502 73.2735 77.7124C73.2735 77.7124 71.6897 77.2992 70.2051 77.3162C69.7102 77.3218 69.2154 77.3275 68.7082 77.4141C62.5905 78.1175 58.0021 83.3723 57.973 89.5049C57.9256 96.2981 63.4265 101.801 70.0888 101.847C71.8147 101.867 73.7074 101.333 73.7074 101.333C74.0538 101.222 74.4312 101.446 74.5427 101.796C74.6541 102.145 74.4315 102.525 74.0852 102.636C74.0047 102.624 72.0192 103.226 70.0397 103.249C69.4768 103.161 68.7407 103.129 68.0973 103.028Z" fill="black"/>
<path d="M124.855 46.6723C112.986 52.9346 101.024 59.2652 89.1545 65.5275C88.6603 73.058 88.0853 80.576 87.591 88.1064C85.8587 88.0858 84.1948 88.1585 82.4626 88.1379C82.481 87.4792 82.1376 81.6379 76.9894 78.0281C71.6797 74.3933 66.0242 76.2447 65.4096 76.4801C65.2411 73.808 65.2585 69.9245 66.1138 65.4267C66.8453 61.7366 69.4931 51.4808 78.0896 43.3879C91.7013 30.6155 112.041 30.5455 117.86 35.1689C120.587 37.3282 122.301 40.1574 122.301 40.1574C123.972 42.7318 124.594 45.1434 124.855 46.6723Z" fill="black"/>
<path d="M128.719 74.0167C124.524 73.2758 121.524 69.4779 121.887 65.13C122.212 60.5305 126.252 57.0772 130.834 57.4779C133.092 57.6317 135.117 58.6429 136.526 60.3624C137.936 62.082 138.707 64.179 138.472 66.4252C138.317 68.6854 137.304 70.7125 135.585 72.1246C133.865 73.5366 131.769 74.3102 129.525 74.0773C129.194 74.1006 128.957 74.0586 128.719 74.0167ZM131.401 58.8853C131.163 58.8433 130.926 58.8014 130.689 58.7595C126.819 58.4846 123.459 61.3227 123.181 65.1952C122.903 69.0678 125.736 72.4276 129.605 72.7025C131.454 72.8656 133.27 72.2877 134.71 71.0714C136.15 69.8551 137.013 68.21 137.113 66.2668C137.277 64.4167 136.701 62.5993 135.487 61.1593C134.389 59.985 132.984 59.1648 131.401 58.8853Z" fill="black"/>
<path d="M107.199 84.693C105.221 84.3435 103.447 83.295 102.089 81.7479C100.601 80.0143 99.8575 77.7588 100.027 75.4195C100.381 70.6615 104.607 67.0778 109.361 67.4272C111.699 67.5949 113.789 68.6993 115.277 70.4329C116.766 72.1664 117.509 74.4219 117.339 76.7613C117.169 79.1006 116.064 81.1931 114.33 82.6843C112.597 84.1756 110.342 84.9212 108.005 84.7535C107.753 84.7908 107.516 84.7489 107.199 84.693ZM109.993 68.9278C109.756 68.8858 109.518 68.8439 109.281 68.8019C105.253 68.4991 101.693 71.5469 101.387 75.5779C101.208 77.5072 101.849 79.4178 103.128 80.951C104.421 82.4049 106.209 83.3742 108.15 83.472C110.078 83.649 111.988 83.0059 113.521 81.7244C114.975 80.4288 115.945 78.6393 116.045 76.6961C116.144 74.7528 115.582 72.8561 114.303 71.323C113.219 70.0694 111.655 69.2213 109.993 68.9278Z" fill="black"/>
<path d="M114.413 70.731L114.333 70.7172C113.95 70.569 113.767 70.2119 113.917 69.8313C114.095 69.293 115.185 66.3925 118.185 65.2072C119.505 64.7052 121.073 64.653 122.477 65.0603C122.875 65.1296 123.043 65.5656 122.987 65.8812C122.917 66.2756 122.557 66.4568 122.159 66.3875C121.457 66.1838 120.184 65.962 118.691 66.5152C116.238 67.3892 115.405 69.7653 115.241 70.2247C115.106 70.5264 114.731 70.7865 114.413 70.731Z" fill="black"/>
<path d="M88.3089 80.8117C88.0669 80.7717 87.8527 80.5761 87.733 80.3161C87.6271 79.9783 87.8577 79.616 88.208 79.5138C91.4139 78.7627 94.5529 77.9204 97.7587 77.1693L100.197 76.5315C100.547 76.4293 100.923 76.6515 101.029 76.9893C101.135 77.3271 100.904 77.6894 100.554 77.7916L98.1154 78.4294C94.9096 79.1805 91.7705 80.0228 88.5647 80.7739C88.5647 80.7739 88.4702 80.8384 88.3089 80.8117Z" fill="black"/>
<path d="M115.772 80.4596C115.692 80.4462 115.611 80.4327 115.611 80.4327C114.38 79.9048 113.918 78.7825 113.522 77.7517C113.179 76.8904 112.902 76.1207 112.126 75.8298C111.203 75.4339 110.126 75.8964 108.955 76.4235C107.69 77.0151 106.17 77.6443 104.806 76.9334C103.669 76.341 103.315 75.0761 102.947 73.8892C102.66 72.7158 102.467 71.4778 102.529 70.2022L102.543 70.1242C102.612 69.734 102.99 69.4758 103.311 69.5297C103.633 69.5837 103.913 69.8717 103.843 70.2619C103.809 71.3814 103.95 72.4498 104.184 73.4536C104.552 74.6405 104.749 75.3968 105.35 75.7387C106.099 76.1857 107.095 75.7097 108.266 75.1826C109.611 74.6045 111.051 73.9618 112.604 74.5436C113.916 75.0849 114.378 76.2073 114.787 77.16C115.131 78.0213 115.421 78.713 116.184 79.0819C116.492 79.2139 116.611 79.475 116.555 79.7871C116.471 80.2553 116.174 80.527 115.772 80.4596Z" fill="black"/>
<path d="M137.491 68.366C137.41 68.3529 137.329 68.3398 137.329 68.3398C136.25 67.8475 135.658 66.956 135.119 66.2324C134.581 65.5088 134.11 64.8756 133.327 64.5903C132.14 64.2397 130.963 64.7665 129.801 65.2159C128.53 65.8071 127.192 66.3078 125.964 65.7119C124.818 65.1291 124.456 63.8768 124.095 62.6245C123.961 61.9661 123.814 61.3852 123.762 60.7399C123.749 60.3399 123.966 60.0564 124.385 60.0443C124.803 60.0322 125.1 60.2392 125.112 60.6392C125.179 61.2071 125.245 61.775 125.473 62.369C125.848 63.5439 126.049 64.2927 126.656 64.6293C127.263 64.966 128.06 64.6965 129.25 64.0923C130.521 63.5011 132.143 62.8074 133.87 63.4042C135.125 63.8453 135.798 64.7498 136.404 65.5638C136.875 66.197 137.346 66.8302 138.115 67.1929C138.506 67.3356 138.6 67.7487 138.45 68.1226C138.099 68.2252 137.815 68.4182 137.491 68.366Z" fill="black"/>
<path d="M115.061 114.264C114.833 114.221 114.631 114.016 114.518 113.744C114.418 113.391 114.635 113.014 115.041 112.923C115.522 112.847 115.941 112.675 116.435 112.518C121.759 111.014 126.19 108.255 129.713 104.324C141.822 90.7304 136.858 68.4934 131.963 57.5473C130.758 54.8144 128.85 50.6124 125.637 46.7495C125.372 46.4491 125.437 46.0436 125.717 45.7621C125.996 45.4806 126.376 45.552 126.641 45.8525C129.98 49.9062 131.951 54.2035 133.143 57.0175C138.137 68.3166 143.314 91.1783 130.722 105.349C127.097 109.428 122.413 112.306 116.911 113.944C116.416 114.101 115.922 114.259 115.44 114.335C115.213 114.292 115.137 114.278 115.061 114.264Z" fill="black"/>
<path d="M114.211 121.231C113.835 121.162 113.659 120.794 113.72 120.387L114.658 114.187C114.72 113.779 115.07 113.508 115.371 113.564C115.672 113.619 115.923 114 115.861 114.408L114.923 120.608C114.849 121.097 114.586 121.3 114.211 121.231Z" fill="black"/>
<path d="M70.5675 112.251C70.1914 112.181 69.9403 111.799 70.078 111.406C70.7904 108.269 71.4276 105.119 72.1025 102.227C72.1649 101.82 72.5033 101.631 72.8795 101.701C73.2556 101.771 73.4314 102.139 73.369 102.546C72.7693 105.452 72.0569 108.588 71.3445 111.724C71.2193 112.036 70.9437 112.32 70.5675 112.251Z" fill="black"/>
<path d="M115.313 114.121C114.947 115.73 114.568 117.415 114.282 119.037C111.747 118.777 105.597 117.761 100.18 113.052C97.5116 110.704 95.8689 108.208 94.8594 106.372C97.7159 109.069 104.171 114.506 112.615 114.311C113.519 114.381 114.45 114.297 115.313 114.121Z" fill="black"/>
</g>
<path d="M0.770508 0.544922V-0.779501H-0.553915V0.544922H0.770508ZM199.434 0.544922H200.758V-0.779501H199.434V0.544922ZM199.434 199.208V200.533H200.758V199.208H199.434ZM0.770508 199.208H-0.553915V200.533H0.770508V199.208ZM0.770508 1.86934H199.434V-0.779501H0.770508V1.86934ZM198.109 0.544922V199.208H200.758V0.544922H198.109ZM199.434 197.884H0.770508V200.533H199.434V197.884ZM2.09493 199.208V0.544922H-0.553915V199.208H2.09493Z" fill="black" fill-opacity="0.1"/>
<defs>
<clipPath id="clip0_3_17707">
<path d="M0.770508 0.544922H199.434V199.208H0.770508V0.544922Z" fill="white"/>
</clipPath>
</defs>
</svg>
