<svg width="200" height="199" viewBox="0 0 200 199" fill="none" xmlns="http://www.w3.org/2000/svg">
<g clip-path="url(#clip0_3_17719)">
<path d="M0.770508 0.148438H199.434V198.812H0.770508V0.148438Z" fill="#F8F8F8"/>
<path d="M69.7219 171.852L66.5876 146.211C72.1714 145.631 107.005 141.799 116.092 140.798L117.211 159.934C117.58 159.604 118.027 159.354 118.515 159.183L117.382 140.008C117.369 139.824 117.29 139.653 117.145 139.534C117 139.416 116.816 139.363 116.631 139.376C99.4322 141.272 66.7193 144.868 65.7974 144.934C65.613 144.934 65.4418 145.026 65.3101 145.157C65.1784 145.302 65.1258 145.5 65.1521 145.684L68.3259 171.654C68.8132 171.681 69.2741 171.747 69.7219 171.852Z" fill="#000200"/>
<path d="M120.03 184.519C119.608 184.861 119.187 185.19 118.739 185.506L119.964 206.301L74.5952 211.7L72.6856 196.095C72.6592 196.108 72.6329 196.121 72.6066 196.121C72.1983 196.239 71.7769 196.292 71.3555 196.332L73.3309 212.517C73.3704 212.859 73.6601 213.109 74.0025 213.109C74.0289 213.109 74.0552 213.109 74.0815 213.109L120.741 207.565C121.096 207.526 121.36 207.21 121.334 206.854L120.03 184.519Z" fill="#000200"/>
<path d="M102.278 162.447C102.475 162.46 102.686 162.46 102.884 162.46L101.593 164.422C101.461 163.948 101.448 163.434 101.58 162.947C101.659 162.631 101.948 162.42 102.278 162.447Z" fill="#000200"/>
<path d="M117.29 140.415L106.781 156.495L105.912 157.812C105.398 157.798 104.858 157.785 104.318 157.785L105.188 156.455L116.158 139.677C116.355 139.361 116.777 139.282 117.093 139.48C117.409 139.677 117.501 140.099 117.29 140.415Z" fill="#000200"/>
<path d="M121.215 207.276C121.083 207.461 120.872 207.566 120.662 207.566C120.53 207.566 120.398 207.527 120.28 207.448L99.4457 192.869L97.9971 191.855C98.5634 191.723 99.1428 191.578 99.7486 191.434L101.184 192.434L121.07 206.355C121.36 206.552 121.426 206.974 121.215 207.276Z" fill="#000200"/>
<path d="M91.5447 193.093L90.1355 194.739L74.5166 212.886C74.3849 213.044 74.2005 213.124 74.003 213.124C73.8449 213.124 73.6869 213.071 73.5684 212.965C73.2918 212.728 73.2523 212.294 73.5025 212.017L88.0284 195.134L89.4244 193.514C90.096 193.396 90.7808 193.264 91.4657 193.132C91.4788 193.106 91.5052 193.106 91.5447 193.093Z" fill="#000200"/>
<path d="M93.1385 163.04C92.9409 163.382 92.7565 163.738 92.559 164.08C92.5327 164.133 92.5063 164.172 92.48 164.225L91.3474 163.474L65.4563 146.17C65.1402 145.959 65.0612 145.537 65.2719 145.235C65.4826 144.919 65.904 144.84 66.2069 145.05L92.0059 162.289L93.1385 163.04Z" fill="#000200"/>
<path d="M107.52 193.976C111.589 191.724 115.54 189.261 119.477 186.825L119.385 185.258C118.621 185.469 100.948 191.803 93.7443 193.37C85.8426 195.095 79.9163 195.807 72.041 196.439L73.9901 212.44L76.4659 212.15C85.8163 204.459 96.9971 199.81 107.52 193.976Z" fill="#000200"/>
<path d="M74.4108 171.956C74.0816 171.956 73.7918 171.706 73.7391 171.364L72.3564 160.71C72.33 160.512 72.3959 160.328 72.5144 160.183C72.6461 160.038 72.8305 159.959 73.0148 159.959H83.366C83.6953 159.959 83.985 160.209 84.0377 160.538L85.3151 169.164C85.3678 169.533 85.1176 169.876 84.7488 169.928C84.3932 169.981 84.0377 169.731 83.985 169.362L82.7866 161.302H73.7787L75.0561 171.206C75.1088 171.574 74.8454 171.917 74.4766 171.956C74.4766 171.956 74.4371 171.956 74.4108 171.956Z" fill="#000200"/>
<path d="M55.657 171.955C55.2882 171.955 54.9854 171.652 54.9854 171.284V148.184C54.9854 147.816 55.2882 147.513 55.657 147.513C56.0257 147.513 56.3286 147.816 56.3286 148.184V171.284C56.3286 171.652 56.0257 171.955 55.657 171.955Z" fill="#000200"/>
<path d="M55.657 206.92C55.2882 206.92 54.9854 206.617 54.9854 206.248V198.86C54.9854 198.491 55.2882 198.188 55.657 198.188C56.0257 198.188 56.3286 198.491 56.3286 198.86V206.248C56.3286 206.617 56.0257 206.92 55.657 206.92Z" fill="#000200"/>
<path d="M59.002 145.695C57.3426 146.34 56.9212 146.617 54.9853 147.802C54.8668 147.921 54.9853 148.961 54.9853 149.119V155.638C54.9853 155.915 55.1565 156.178 55.4199 156.27C55.4989 156.297 55.5779 156.31 55.6569 156.31C55.8545 156.31 56.0389 156.231 56.1705 156.073C56.3681 155.836 60.1345 150.318 60.1345 147.012C60.1214 145.985 59.3839 145.55 59.002 145.695Z" fill="#000200"/>
<path d="M109.968 101.551C109.929 101.525 109.889 101.485 109.836 101.459C109.507 101.288 109.099 101.433 108.928 101.762L100.46 118.672L83.2473 101.657C82.9839 101.393 82.5493 101.393 82.2991 101.657C82.0357 101.92 82.0357 102.355 82.2991 102.605L100.17 120.291C100.302 120.423 100.473 120.489 100.644 120.489C100.684 120.489 100.723 120.489 100.75 120.476C100.96 120.436 101.145 120.305 101.25 120.107L109.968 102.71V101.551V101.551Z" fill="#000200"/>
<path d="M91.4386 125.638C91.4123 125.638 91.3859 125.638 91.3596 125.638C91.1357 125.612 90.9382 125.48 90.846 125.283L79.3359 103.171C79.1647 102.842 79.2964 102.434 79.6256 102.263C79.9549 102.091 80.3631 102.223 80.5343 102.552L91.5967 123.782L97.6019 116.841C97.8521 116.565 98.2736 116.525 98.5501 116.775C98.8267 117.026 98.8662 117.447 98.616 117.724L91.9654 125.415C91.8205 125.559 91.623 125.638 91.4386 125.638Z" fill="#000200"/>
<path d="M108.611 120.488C108.466 120.488 108.308 120.436 108.19 120.344L102.487 115.853C102.224 115.655 102.158 115.3 102.303 115.01L108.94 102.538C109.032 102.367 109.177 102.249 109.362 102.196C109.546 102.143 109.744 102.183 109.902 102.288L113.339 104.514C113.589 104.672 113.708 104.988 113.615 105.278L109.243 120.014C109.177 120.225 109.019 120.396 108.795 120.462C108.743 120.475 108.677 120.488 108.611 120.488ZM103.765 115.142L108.242 118.658L112.18 105.357L109.783 103.803L103.765 115.142Z" fill="#000200"/>
<path d="M104.317 142.087C103.962 142.087 103.659 141.797 103.646 141.442L103.04 123.518L100.156 120.265C99.9055 119.988 99.9318 119.554 100.208 119.317C100.485 119.067 100.906 119.093 101.157 119.37L104.212 122.794C104.317 122.912 104.383 123.057 104.383 123.215L105.002 141.376C105.015 141.744 104.726 142.061 104.357 142.074C104.344 142.087 104.33 142.087 104.317 142.087Z" fill="#000200"/>
<path d="M130.539 208.83C130.183 208.83 129.88 208.54 129.867 208.185C129.749 205.261 126.996 136.661 126.996 136.082C126.996 135.713 127.299 135.41 127.668 135.41C128.036 135.41 128.339 135.713 128.339 136.082C128.353 137.017 131.184 207.421 131.21 208.132C131.223 208.501 130.934 208.817 130.565 208.83C130.552 208.83 130.539 208.83 130.539 208.83Z" fill="#000200"/>
<path d="M85.9325 69.9313C86.4988 62.2535 90.1994 50.2561 90.1994 50.2561C93.6366 53.4431 117.961 54.7205 120.792 53.2719C119.659 47.0164 115.195 41.3799 101.512 41.3799C85.3135 41.3799 79.9141 48.1226 79.9141 58.9084C79.9141 69.6942 79.9141 69.6942 79.9141 69.6942L80.0458 69.9181C82.4031 69.6547 83.5488 69.9444 85.9325 69.9313Z" fill="#000200"/>
<path d="M110.494 78.8208C110.125 78.8208 109.822 78.5179 109.822 78.1492C109.822 77.7804 110.125 77.4775 110.494 77.4775C111.758 77.4775 112.798 77.1351 113.273 76.5688C113.549 76.2528 113.641 75.8577 113.562 75.3836C113.391 74.3168 111.021 73.7242 109.888 73.6057C109.546 73.5662 109.282 73.2765 109.282 72.9341V66.7576C109.282 66.3888 109.585 66.0859 109.954 66.0859C110.323 66.0859 110.626 66.3888 110.626 66.7576V72.3546C111.877 72.5785 114.563 73.2633 114.879 75.1729C115.024 76.042 114.827 76.8322 114.3 77.4512C113.549 78.3335 112.193 78.8208 110.494 78.8208Z" fill="#000200"/>
<path d="M114.326 65.6133V66.9566C114.326 68.695 117.026 68.695 117.026 66.9566V65.6133C117.026 63.875 114.326 63.875 114.326 65.6133Z" fill="#000200"/>
<path d="M98.0879 65.6133V66.9566C98.0879 68.695 100.788 68.695 100.788 66.9566V65.6133C100.788 63.875 98.0879 63.875 98.0879 65.6133Z" fill="#000200"/>
<path d="M98.5888 59.094C97.5089 59.331 96.4553 59.6208 95.4413 60.0554C94.6511 60.3978 95.3359 61.5567 96.1261 61.2143C97.0348 60.8192 97.9962 60.5953 98.9575 60.3846C99.8004 60.2134 99.4448 58.9096 98.5888 59.094Z" fill="#000200"/>
<path d="M117.369 58.857C116.684 58.3961 115.907 58.0537 115.262 57.5401C114.59 57.0133 113.629 57.9615 114.314 58.4883C115.064 59.0809 115.907 59.4892 116.697 60.0159C117.408 60.5164 118.08 59.3443 117.369 58.857Z" fill="#000200"/>
<path d="M102.065 84.9184C101.051 84.7604 99.7205 84.2995 99.6415 83.1011C99.5888 82.245 98.2324 82.2319 98.2982 83.1011C98.4167 84.9316 100.023 85.9588 101.709 86.2222C102.552 86.3539 102.921 85.0501 102.065 84.9184Z" fill="#000200"/>
<path d="M121.899 63.2814C121.86 61.1875 121.82 59.0014 121.781 56.7362C121.609 46.0953 114.788 40.709 101.5 40.709C86.3152 40.709 79.2432 46.4904 79.2432 58.9223V69.7081C79.2432 70.0769 79.5461 70.3798 79.9148 70.3798C80.2835 70.3798 80.5864 70.0769 80.5864 69.7081V58.9223C80.5864 47.2674 87.0395 42.0654 101.5 42.0654C114.09 42.0654 120.279 46.8723 120.437 56.7625C120.477 59.0277 120.516 61.2138 120.556 63.3078C120.938 83.0883 121.175 95.033 114.656 98.7995C109.059 102.026 98.9578 101.42 98.8525 101.407C98.6286 101.394 98.4047 101.499 98.273 101.684C98.1413 101.868 98.1018 102.105 98.1808 102.329C99.3924 105.542 103.831 107.386 106.464 108.216C107.334 106.464 108.282 104.752 109.283 103.08V102.144C109.283 102.118 109.283 102.105 109.283 102.079C111.429 101.657 113.563 100.986 115.327 99.9715C122.544 95.7968 122.294 83.5624 121.899 63.2814Z" fill="#000200"/>
<path d="M81.5475 80.1118L81.6133 82.7984C82.0611 82.7984 82.5089 82.7984 82.9566 82.7852L82.8644 79.4007C82.8644 79.2163 82.7854 79.0451 82.6537 78.9266C82.522 78.808 82.3508 78.729 82.1665 78.7422C79.8355 78.8344 78.0181 78.3208 76.8987 77.2409C75.8846 76.2663 75.7398 75.1469 75.7398 74.5675C75.7398 73.6193 76.0822 72.8028 76.7802 72.1443C78.2025 70.7879 81.0602 70.1821 85.0506 70.3928C85.4061 70.4059 85.7354 70.1294 85.7617 69.7475C85.7749 69.3787 85.4983 69.0627 85.1164 69.0363C80.6915 68.8124 77.5703 69.5236 75.8583 71.1566C74.6599 72.3023 74.3965 73.6325 74.3965 74.5543C74.3965 75.9239 74.9628 77.2277 75.9768 78.2023C76.8723 79.0978 78.558 80.0855 81.5475 80.1118Z" fill="#000200"/>
<path d="M81.7053 78.8467C79.1899 79.0047 76.4112 78.4121 75.4893 77.003C73.7378 74.2901 74.6728 71.3138 81.3234 68.8511C83.7729 67.9424 85.2084 63.7018 85.801 61.2787C86.9468 56.6167 87.6974 51.8757 88.3559 47.1215C88.4086 46.7396 88.2637 46.4367 87.8818 46.2918C87.355 46.0943 87.118 46.0021 86.8941 45.9494C86.8019 45.8704 86.6834 45.8177 86.5385 45.8046C79.6377 45.2646 73.8563 52.8766 70.6166 58.0522C65.4674 66.2831 66.9687 75.8177 67.4823 85.0232C63.65 84.7598 59.7913 87.4859 56.9863 89.7774C53.1276 92.9117 50.6386 96.9679 50.6912 102.078C50.7834 112.363 61.2663 116.182 70.0635 115.708C79.6904 115.194 88.8036 109.4 91.398 99.7335C93.7949 90.8573 92.7281 78.1619 81.7053 78.8467Z" fill="#000200"/>
<path d="M175.961 94.5857C175.895 94.5857 175.816 94.5725 175.75 94.5462C175.394 94.4277 175.21 94.0458 175.329 93.6902C178.397 84.6428 181.005 74.1335 179.859 72.9088C179.569 72.6059 179.332 72.4742 179.161 72.5137C177.581 72.8561 174.854 81.1792 173.682 84.735C173.564 85.0905 173.182 85.2749 172.826 85.1695C172.471 85.051 172.286 84.6691 172.392 84.3135C175.526 74.7789 177.106 71.5918 178.858 71.1968C179.53 71.0519 180.201 71.3153 180.833 71.9869C183.072 74.3838 178.16 89.5418 176.593 94.1248C176.514 94.4145 176.25 94.5857 175.961 94.5857Z" fill="#000200"/>
<path d="M150.135 155.955C145.289 155.955 139.27 151.016 137.506 140.152C134.701 122.965 126.14 111.047 112.734 105.713C112.392 105.582 112.22 105.187 112.352 104.831C112.497 104.489 112.879 104.318 113.234 104.449C127.102 109.98 135.952 122.241 138.836 139.928C140.482 150.002 145.842 154.598 150.135 154.598C150.135 154.598 150.135 154.598 150.148 154.598C153.875 154.598 156.615 151.359 157.484 145.946C158.261 141.1 158.946 134.357 159.67 127.232C161.118 112.93 162.62 98.1411 165.241 93.94C169.139 87.7109 172.299 82.983 174.973 82.904C175.513 82.8908 176.263 83.062 176.909 83.9576C178.713 86.4993 175.987 91.3061 173.379 94.8882C172.931 95.5072 173.037 96.35 173.629 96.8505C176.132 98.9707 180.201 103.343 179.187 108.835C179.121 109.203 178.766 109.454 178.397 109.375C178.028 109.309 177.791 108.953 177.857 108.584C178.752 103.751 175.052 99.8004 172.76 97.8645C171.628 96.9031 171.417 95.2833 172.286 94.0849C175.5 89.6599 176.816 86.1569 175.816 84.7346C175.5 84.3 175.223 84.2473 175.025 84.2473C172.866 84.3131 168.836 90.753 166.426 94.6116C163.95 98.5757 162.396 113.865 161.026 127.364C160.302 134.515 159.617 141.271 158.827 146.157C157.839 152.188 154.521 155.942 150.135 155.955Z" fill="#000200"/>
<path d="M183.677 88.4883C182.677 87.0133 180.965 86.1441 178.291 85.7754C178.225 85.7622 178.173 85.7754 178.107 85.7754C178.08 85.9729 178.054 86.1705 178.028 86.368C178.001 86.6051 177.975 86.8289 177.962 87.066C178.015 87.0792 178.054 87.0923 178.107 87.1055C180.372 87.4216 181.781 88.0932 182.558 89.2389C183.519 90.6612 183.585 93.0054 182.742 96.4031C182.69 96.6007 182.637 96.785 182.558 96.9563C182.426 97.2723 182.031 97.9966 181.386 97.7859C180.398 97.4567 179.437 95.3101 180.359 91.5568C180.451 91.2012 180.227 90.8325 179.871 90.7403C179.516 90.6481 179.147 90.872 179.055 91.2275C177.988 95.5866 179.2 98.4576 180.965 99.0502C181.188 99.1292 181.412 99.1687 181.636 99.1687C182.532 99.1687 183.335 98.5629 183.796 97.483C183.901 97.2591 183.98 96.9958 184.046 96.7192C185.008 92.8869 184.889 90.2662 183.677 88.4883Z" fill="#000200"/>
<path d="M185.508 98.9309C184.691 98.9309 183.848 98.6543 183.15 98.1275C182.847 97.9036 182.795 97.4822 183.019 97.1793C183.242 96.8764 183.664 96.8238 183.967 97.0476C184.612 97.5349 185.455 97.7061 186.113 97.4822C186.601 97.311 186.917 96.9554 187.048 96.4023C187.918 92.8729 187.825 90.4761 186.746 89.0669C185.666 87.6446 183.545 86.9993 179.674 86.894C179.305 86.8808 179.002 86.5779 179.015 86.196C179.028 85.8273 178.976 85.4717 179.318 85.4717C184.125 85.4717 186.456 86.4594 187.812 88.2373C189.169 90.0151 189.34 92.7149 188.352 96.7184C188.102 97.7061 187.47 98.4173 186.561 98.7465C186.232 98.8782 185.876 98.9309 185.508 98.9309Z" fill="#000200"/>
<path d="M189.841 99.1694C188.919 99.1694 188.063 98.4978 187.549 97.3916C187.391 97.0492 187.536 96.6541 187.878 96.496C188.221 96.338 188.26 96.1405 188.418 96.4829C188.708 97.115 189.511 97.8393 189.893 97.813C190.302 97.7735 190.67 97.2862 190.855 96.5224C191.645 93.3222 191.579 91.1229 190.67 89.806C189.907 88.7129 188.484 88.0808 186.18 87.8174C185.811 87.7779 184.652 87.1194 184.691 86.7507C184.731 86.3819 185.969 86.4346 186.338 86.4741C189.051 86.7902 190.789 87.6067 191.777 89.0421C192.949 90.7278 193.067 93.2037 192.172 96.8516C191.842 98.2081 191.039 99.0641 190.025 99.1563C189.972 99.1694 189.907 99.1694 189.841 99.1694Z" fill="#000200"/>
<path d="M152.927 187.732C136.729 187.732 128.616 173.97 128.511 173.799C128.327 173.47 128.432 173.062 128.761 172.877C129.091 172.693 129.499 172.798 129.683 173.127C130.131 173.904 140.904 192.092 163.094 184.611C184.481 177.394 186.641 150.95 186.404 131.683C186.272 120.437 187.194 113.43 188.103 106.648C188.472 103.896 188.814 101.288 189.091 98.4304C189.13 98.0616 189.459 97.7719 189.828 97.8246C190.197 97.8641 190.473 98.1933 190.434 98.5621C190.157 101.446 189.815 104.054 189.446 106.832C188.551 113.562 187.629 120.516 187.76 131.67C187.905 143.009 188.314 177.539 163.529 185.889C159.683 187.192 156.141 187.732 152.927 187.732Z" fill="#000200"/>
<path d="M177.566 125.125C172.207 125.125 166.609 123.15 160.841 119.199C160.538 118.988 160.459 118.567 160.67 118.264C160.881 117.961 161.302 117.882 161.605 118.093C170.745 124.348 179.028 125.468 186.943 121.517C187.272 121.346 187.681 121.491 187.852 121.82C188.023 122.149 187.878 122.557 187.549 122.729C184.322 124.322 180.991 125.125 177.566 125.125Z" fill="#000200"/>
<path d="M177.226 133.014C171.866 133.014 166.269 131.039 160.5 127.088C160.198 126.877 160.119 126.456 160.329 126.153C160.54 125.85 160.961 125.771 161.264 125.982C170.404 132.237 178.687 133.356 186.602 129.406C186.932 129.234 187.34 129.379 187.511 129.709C187.682 130.038 187.537 130.446 187.208 130.617C183.982 132.211 180.65 133.014 177.226 133.014Z" fill="#000200"/>
<path d="M128.59 159.643C130.526 170.481 136.228 181.28 136.228 181.28L129.196 174.761L128.59 159.643Z" fill="#000200"/>
<path d="M120.385 164.291C118.712 167.991 116.803 170.968 108.769 172.904C108.414 172.996 108.045 172.772 107.953 172.403C107.861 172.035 108.085 171.679 108.453 171.587C115.907 169.796 117.593 167.201 119.16 163.738C120.148 161.538 120.082 160.406 119.845 159.84C119.687 159.458 119.397 159.194 118.962 159.023C118.185 158.72 116.895 160.551 115.775 162.171L115.143 163.066C114.169 164.436 110.653 165.568 104.687 166.438C103.765 166.569 102.83 166.24 102.211 165.542C101.921 165.213 101.71 164.844 101.605 164.436C101.473 163.962 101.46 163.448 101.592 162.961C101.671 162.645 101.961 162.434 102.29 162.46C102.487 162.473 102.698 162.473 102.896 162.473C106.241 162.46 109.955 160.735 110.113 159.023C110.139 158.76 110.06 158.641 109.994 158.549C109.52 158.022 107.887 157.877 105.925 157.838C105.411 157.825 104.871 157.812 104.331 157.812C104.239 157.812 104.16 157.812 104.068 157.812C103.001 157.798 101.842 157.785 100.644 157.746C96.6403 157.588 94.8097 160.116 93.1504 163.066C92.9528 163.409 92.7684 163.764 92.5709 164.107C92.5446 164.159 92.5182 164.199 92.4919 164.251C92.1495 164.87 91.8202 165.476 91.4647 166.069C88.3962 171.179 70.5516 172.522 65.1521 172.798C63.3742 172.891 61.6885 172.943 60.1214 172.943C50.1389 172.943 44.4629 171.02 42.8167 167.109C40.6438 161.907 45.016 152.899 57.4085 146.473C57.7377 146.301 58.146 146.433 58.3172 146.762C58.4884 147.092 58.3567 147.5 58.0274 147.671C46.7676 153.505 42.0924 161.881 44.0678 166.596C45.6877 170.481 52.7597 172.127 65.0863 171.468C78.6245 170.757 88.5279 168.36 90.3058 165.384C90.6745 164.778 91.0169 164.133 91.3593 163.501C91.3593 163.488 91.3725 163.474 91.3725 163.474C91.5832 163.092 91.7939 162.711 92.0046 162.315C93.7298 159.247 95.9159 156.205 100.67 156.402C101.869 156.442 103.014 156.455 104.068 156.468C104.463 156.468 104.832 156.481 105.187 156.481C105.754 156.495 106.28 156.508 106.768 156.521C108.835 156.613 110.244 156.85 110.969 157.653C111.337 158.062 111.482 158.562 111.43 159.155C111.166 161.868 106.675 163.83 102.83 163.83C102.856 164.133 102.988 164.409 103.199 164.646C103.528 165.015 103.989 165.186 104.476 165.107C109.744 164.344 113.326 163.29 114.037 162.289L114.656 161.407C116.21 159.194 117.672 157.1 119.437 157.772C120.214 158.075 120.78 158.615 121.083 159.339C121.57 160.511 121.346 162.184 120.385 164.291Z" fill="#000200"/>
<path d="M109.545 178.962C109.268 178.962 109.018 178.79 108.913 178.527C108.781 178.171 108.966 177.79 109.308 177.658C109.374 177.631 116.156 175.09 119.04 171.797C121.779 168.676 122.122 165.66 120.107 162.579C119.896 162.263 119.988 161.854 120.304 161.644C120.62 161.433 121.029 161.525 121.239 161.841C123.61 165.45 123.215 169.098 120.067 172.693C116.959 176.236 110.085 178.817 109.795 178.922C109.703 178.948 109.611 178.962 109.545 178.962Z" fill="#000200"/>
<path d="M110.783 184.69C110.533 184.69 110.283 184.545 110.177 184.308C110.019 183.966 110.164 183.571 110.493 183.413C110.533 183.386 114.984 181.266 118.487 178.751C121.727 176.42 122.807 172.759 121.45 168.729C121.332 168.373 121.516 167.991 121.872 167.873C122.227 167.754 122.609 167.939 122.728 168.294C124.269 172.864 122.978 177.184 119.277 179.844C115.669 182.438 111.27 184.532 111.086 184.624C110.968 184.677 110.875 184.69 110.783 184.69Z" fill="#000200"/>
<path d="M85.4318 197.03C85.2606 197.03 85.0762 196.965 84.9445 196.833C78.4915 190.209 76.8848 181.293 80.1903 170.323C80.2957 169.967 80.6776 169.77 81.0332 169.875C81.3887 169.98 81.5863 170.362 81.4809 170.718C78.2939 181.319 79.7426 189.55 85.919 195.898C86.1824 196.161 86.1693 196.596 85.9059 196.846C85.7742 196.965 85.603 197.03 85.4318 197.03Z" fill="#000200"/>
<path d="M77.9249 198.294C77.7537 198.294 77.5693 198.228 77.4377 198.097C70.9846 191.472 69.378 182.557 72.6835 171.586C72.7888 171.231 73.1708 171.033 73.5263 171.139C73.8819 171.244 74.0794 171.626 73.9741 171.981C70.7871 182.583 72.2357 190.814 78.4122 197.162C78.6756 197.425 78.6624 197.859 78.399 198.11C78.2673 198.228 78.0961 198.294 77.9249 198.294Z" fill="#000200"/>
<path d="M120.2 184.862C117.961 187.509 108.361 190.578 101.17 192.435C100.578 192.593 99.9982 192.737 99.4319 192.869C96.9692 193.475 94.9411 193.883 93.8348 194.041C93.4793 194.094 92.7418 194.239 91.6882 194.436C91.1615 194.542 90.6347 194.634 90.1079 194.739C89.3967 194.871 88.6988 195.003 88.0008 195.121C73.4749 197.742 61.6355 198.809 51.9955 198.809C31.675 198.809 21.1 194.068 15.6083 189.129C10.0508 184.125 7.60128 177.184 8.35194 168.492C12.4081 120.951 75.5556 103.304 82.0877 101.618V101.434C82.5355 101.697 82.9964 101.934 83.4573 102.184C83.4442 102.487 83.2334 102.737 82.9305 102.803C65.0464 106.82 13.2115 127.549 9.70839 168.611C9.01041 176.855 11.3019 183.413 16.5302 188.128C24.5109 195.305 43.6197 202.009 89.4231 193.501C90.0947 193.383 90.7795 193.251 91.4643 193.119C91.4907 193.119 91.517 193.106 91.5565 193.106C92.5969 192.909 93.3212 192.764 93.6768 192.724C94.7567 192.566 96.258 192.276 98.0096 191.868C98.5759 191.737 99.1553 191.592 99.7611 191.447C107.11 189.616 117.211 186.363 119.186 184.006C121.728 180.99 120.398 178.751 120.332 178.659C120.134 178.343 120.226 177.935 120.542 177.737C120.859 177.54 121.267 177.632 121.464 177.935C121.53 178.053 123.4 181.056 120.2 184.862Z" fill="#000200"/>
</g>
<path d="M0.770508 0.148438V-1.17598H-0.553915V0.148438H0.770508ZM199.434 0.148438H200.758V-1.17598H199.434V0.148438ZM199.434 198.812V200.136H200.758V198.812H199.434ZM0.770508 198.812H-0.553915V200.136H0.770508V198.812ZM0.770508 1.47286H199.434V-1.17598H0.770508V1.47286ZM198.109 0.148438V198.812H200.758V0.148438H198.109ZM199.434 197.487H0.770508V200.136H199.434V197.487ZM2.09493 198.812V0.148438H-0.553915V198.812H2.09493Z" fill="black" fill-opacity="0.1"/>
<defs>
<clipPath id="clip0_3_17719">
<path d="M0.770508 0.148438H199.434V198.812H0.770508V0.148438Z" fill="white"/>
</clipPath>
</defs>
</svg>
