<svg width="199" height="200" viewBox="0 0 199 200" fill="none" xmlns="http://www.w3.org/2000/svg">
<g clip-path="url(#clip0_3_15040)">
<rect width="198.663" height="198.663" transform="translate(0.000976562 0.395996)" fill="#81AD6C"/>
<path d="M49.3839 115.268L93.9062 126.241L98.4508 117.067L104.239 105.32L114.314 84.9681L86.0886 72.3922C84.9172 74.8663 49.3839 115.268 49.3839 115.268Z" fill="#FFA79B"/>
<path d="M105.936 105.323L115.153 85.6106L100.219 78.9801C99.4398 87.7221 101.382 97.75 105.936 105.323Z" fill="black"/>
<path d="M77.6601 49.9471C80.8075 36.6152 112.934 28.4173 118.22 40.7572C122.262 49.9537 133.167 75.5482 130.628 82.2115C125.477 95.6393 108.626 95.6706 98.6565 88.2541C88.5872 80.767 74.5684 63.0916 77.6601 49.9471Z" fill="#FFA79B"/>
<path d="M97.1559 46.2957C106.666 45.1671 115.736 39.4818 117.734 38.1729C123.775 29.4296 116.092 21.1484 101.649 30.7401C89.5066 33.113 75.3197 39.0759 74.9001 50.4264C70.4283 64.5793 79.4403 64.674 84.5666 72.0881C87.3396 70.1199 86.3506 65.4835 89.7287 63.4102C94.7019 60.2728 96.4351 57.9608 97.1559 46.2957Z" fill="#952C28"/>
<path d="M118.35 65.7217C119.386 65.5409 120.523 65.43 121.485 64.8246C122.518 64.1191 123.316 62.5792 122.087 61.6556C121.582 61.3062 122.153 60.5062 122.659 60.8556C123.787 61.7093 124.069 63.3232 123.211 64.5233C122.24 66.0933 120.255 66.4398 118.528 66.741C117.909 66.7615 117.731 65.7422 118.35 65.7217Z" fill="#D24A43"/>
<path d="M107.167 55.1579C107.651 55.9612 108.12 56.6779 108.604 57.4812C109.089 58.2845 107.798 58.8788 107.314 58.0755C106.83 57.2722 106.361 56.5555 105.877 55.7522C105.492 55.0199 106.698 54.4411 107.167 55.1579Z" fill="black"/>
<path d="M121.147 49.5589C121.631 50.3623 122.1 51.0791 122.584 51.8824C123.068 52.6857 121.778 53.2801 121.294 52.4767C120.81 51.6734 120.341 50.9566 119.857 50.1533C119.388 49.4365 120.663 48.7556 121.147 49.5589Z" fill="black"/>
<path d="M102.925 51.1341C103.737 50.6506 104.636 50.1524 105.463 49.753C106.522 49.1414 107.441 50.8045 106.295 51.4309C105.483 51.9144 104.584 52.4126 103.757 52.8119C102.698 53.4236 101.779 51.7605 102.925 51.1341Z" fill="#952C28"/>
<path d="M116.723 45.5589C117.535 45.0754 118.434 44.5772 119.261 44.1779C120.32 43.5662 121.239 45.2293 120.093 45.8557C119.281 46.3392 118.382 46.8374 117.555 47.2367C116.496 47.8484 115.577 46.1853 116.723 45.5589Z" fill="#952C28"/>
<path d="M109.885 75.4754C111.237 77.0706 113.18 77.9556 115.308 77.8522C115.93 77.8326 116.093 78.7616 115.471 78.7812C112.996 78.9441 110.676 77.9496 109.105 76.1308C108.741 75.5842 109.535 75.0133 109.885 75.4754Z" fill="#D24A43"/>
<path d="M76.5148 70.4404C76.7388 65.6244 82.6646 61.1993 88.7223 63.6489C90.3655 68.5717 92.1943 73.5497 93.9935 78.3561C91.799 80.4306 86.4678 82.184 82.5964 80.6684C78.2536 78.9721 76.2647 75.6148 76.5148 70.4404Z" fill="#FFA79B"/>
<path d="M83.5997 70.0212C85.1873 70.9702 86.8759 71.9892 88.4635 72.9382C88.9689 73.288 88.4692 73.989 87.8924 73.7394C87.7913 73.6694 87.6903 73.5995 87.5892 73.5296L87.4881 73.4596C86.0016 72.5805 84.5151 71.7014 83.0286 70.8223C82.437 70.4877 83.0229 69.7716 83.5997 70.0212Z" fill="#D24A43"/>
<path d="M101.363 246.729C106.617 208.923 117.761 99.4142 69.9713 99.7974C40.3458 100.038 10.9403 138.081 -9.95573 205.748C-16.3996 226.565 -22.2517 250.275 -25.5231 273.086C17.0725 265.687 60.3345 259.582 101.363 246.729Z" fill="#D24A43"/>
<path d="M52.2542 261.466C52.3279 242.717 52.9951 223.948 53.6624 205.178C54.5761 179.606 60.4579 166.613 61.5372 141.01C41.901 160.099 23.2049 175.049 22.2939 203.232C21.5066 226.978 30.7674 248.027 46.8902 262.563C48.7249 262.309 50.4482 261.895 52.2542 261.466Z" fill="black"/>
<path d="M197.325 281.805C202.415 269.778 208.814 258.313 214.551 246.523C195.509 237.448 175.279 231.632 156.555 221.873C155.795 221.477 154.088 220.095 154.088 220.095C154.088 220.095 110.348 140.422 98.2592 125.768C98.2592 125.768 110.644 247.989 111.72 251.812C112.866 255.532 191.085 280.28 191.085 280.28L197.325 281.805Z" fill="#D24A43"/>
<path d="M187.207 264.323C154.382 252.424 121.187 243.981 121.187 243.981C121.187 243.981 117.998 233.418 109.281 180.615C100.478 127.828 101.918 112.758 72.2897 104.82C72.2897 104.82 63.9951 106.7 51.1099 126.1C38.2246 145.5 37.1705 223.732 40.3259 264.802C42.5928 293.996 117.749 313.82 164.716 310.638C171.281 295.519 181.559 279.719 187.207 264.323Z" fill="#D24A43"/>
<path d="M105.991 139.386C108.373 168.411 110.755 197.436 113.137 226.461C113.185 226.818 113.163 227.276 113.211 227.633C112.849 227.418 112.58 227.28 112.217 227.065C112.17 226.708 112.11 226.263 112.144 225.893C109.786 197.046 107.44 168.289 105.093 139.531C105.01 138.907 105.99 138.749 105.991 139.386Z" fill="black"/>
</g>
<defs>
<clipPath id="clip0_3_15040">
<rect width="198.663" height="198.663" fill="white" transform="translate(0.000976562 0.395996)"/>
</clipPath>
</defs>
</svg>
