<svg width="200" height="199" viewBox="0 0 200 199" fill="none" xmlns="http://www.w3.org/2000/svg">
<g clip-path="url(#clip0_3_14831)">
<rect width="198.663" height="198.663" transform="translate(0.446289)" fill="#B18FFA"/>
<path d="M83.5654 76.405C83.5539 75.912 82.9605 75.8602 82.6696 76.0808C82.4437 76.2065 82.3441 76.5556 82.4053 76.8741C82.0988 78.7482 81.8574 80.5275 81.5508 82.4016C76.7125 76.3104 67.9187 74.358 61.0078 78.7311C54.5487 82.8528 52.4688 90.6776 55.0866 97.3579C50.8604 94.451 44.9453 95.3327 40.0829 96.9213C33.111 99.2428 26.3801 103.251 22.6273 109.745C19.315 115.494 18.7321 122.868 22.5636 128.491C25.9359 133.46 32.1109 135.664 37.7772 133.922C38.4924 139.81 44.698 142.174 50.0923 142.052C56.8189 141.923 63.963 140.064 69.8516 136.877C80.2581 131.176 87.6295 118.792 82.6502 107.198C89.3387 106.004 94.3739 99.678 94.5011 92.9688C94.5518 85.8616 89.6981 79.6907 83.5654 76.405Z" fill="#D24A43"/>
<path d="M169.224 138.063C173.634 157.371 175.829 177.419 179.051 196.911C182.431 217.517 185.794 238.044 189.174 258.65L189.823 262.038C178.827 264.567 167.241 267.391 156.229 269.842C124.615 276.959 93.4845 285.939 61.955 293.448C47.0248 257.997 33.2428 221.798 21.865 184.982C16.2015 166.691 15.526 147.619 29.2247 132.578C35.8515 125.353 44.1867 121.116 53.2061 118.534C55.1249 117.943 57.1217 117.334 59.0742 116.9C61.7127 116.23 64.4463 115.622 67.1355 115.188C70.3546 114.554 73.6855 114.059 76.8603 113.599L98.425 110.361L106.666 109.103C107.229 109.059 107.776 108.938 108.323 108.816C116.156 107.566 124.051 106.22 131.937 106.354C140.058 106.437 148.758 108.444 155.187 113.585C162.885 119.676 167.049 128.36 169.224 138.063Z" fill="#FECA55"/>
<path d="M26.9822 173.303C26.6273 212.094 40.0825 251.532 73.1727 249.891C106.263 248.25 26.9822 173.303 26.9822 173.303Z" fill="black"/>
<path d="M159.446 167.542C155.275 157.165 151.104 146.789 147.007 136.395C146.738 135.78 145.891 136.225 146.086 136.857C149.704 145.923 153.322 154.988 157.03 164.118C160.244 172.261 166.826 183.528 161.208 192.067C160.853 192.655 161.657 193.233 162.012 192.645C167.201 184.711 162.481 175.134 159.446 167.542Z" fill="black"/>
<path d="M100.184 107.454L105.887 159.718C105.887 159.718 76.503 131.237 61.1751 114.207C63.7928 113.533 66.5048 112.919 69.173 112.481C72.3667 111.842 75.6716 111.343 78.8215 110.879L100.184 107.454Z" fill="#FFA79B"/>
<path d="M104.387 101.482C103.53 102.422 97.0005 146.83 97.0005 146.83L68.786 120.503L80.3611 93.0576L104.387 101.482Z" fill="#FFA79B"/>
<path d="M101.648 122.567C103.258 112.111 104.891 102.15 105.285 101.726L90.8997 96.556C89.7647 105.819 95.0229 115.351 101.648 122.567Z" fill="black"/>
<path d="M87.5564 48.6789C94.9206 41.4984 113.2 44.9561 122.744 52.6079C126.885 55.9583 130.821 53.7525 130.04 58.1303C128.101 68.9482 121.259 105.011 115.061 109.622C102.571 118.782 87.8074 108.847 83.4539 96.0702C79.0394 83.3895 77.0966 58.9468 87.5564 48.6789Z" fill="#FFA79B"/>
<path d="M134.03 49.5612C129.799 45.8782 120.608 46.3323 116.094 47.9007C106.26 43.8531 93.8496 42.9725 87.9656 48.2582C80.6948 54.8679 79.1162 67.6559 80.1123 79.1948C84.5051 78.6101 86.6818 75.5257 90.9803 72.9631C104.435 71.7114 113.521 63.0504 115.573 58.2339C118.192 61.0501 128.837 61.8947 132.539 58.8957C137.498 54.3598 135.37 50.7234 134.03 49.5612Z" fill="#D24A43"/>
<path d="M72.4551 72.824C75.489 67.8734 84.5638 66.6638 89.6516 72.8361C88.5327 79.0832 87.5869 85.3736 86.7193 91.6466C83.142 92.5294 76.3208 91.2631 73.1152 87.3803C69.3846 82.958 69.1757 78.1581 72.4551 72.824Z" fill="#FFA79B"/>
<path d="M82.0601 77.3302C83.0576 79.1055 84.0714 80.9607 85.0689 82.7361C85.4267 83.322 84.4872 83.792 84.1293 83.2061C84.0209 83.064 84.0047 82.9842 83.8962 82.8421C83.88 82.7622 83.88 82.7622 83.8637 82.6824C82.9747 81.0491 82.0856 79.4158 81.1043 77.7203C80.8387 77.1966 81.7783 76.7266 82.0601 77.3302Z" fill="#952C28"/>
<path d="M107.956 74.1056C107.481 74.9488 107.1 75.8528 106.625 76.6959C106.166 77.6173 107.588 78.1206 108.063 77.2774C108.539 76.4343 108.919 75.5303 109.395 74.6871C109.854 73.7657 108.415 73.1842 107.956 74.1056Z" fill="black"/>
<path d="M123.733 76.5675C123.257 77.4107 122.877 78.3147 122.401 79.1579C121.942 80.0793 123.364 80.5825 123.84 79.7394C124.315 78.8962 124.696 77.9922 125.171 77.149C125.63 76.2276 124.192 75.6461 123.733 76.5675Z" fill="black"/>
<path d="M119.08 85.6981C118.501 85.3374 117.934 86.1807 118.513 86.5414C119.767 87.323 118.838 88.8055 117.756 89.1944C116.673 89.5833 115.44 89.28 114.304 89.0369C113.599 88.8636 113.321 89.8873 113.93 90.0005C115.771 90.4169 118.011 90.7494 119.434 89.2431C120.462 88.2221 120.43 86.5398 119.08 85.6981Z" fill="#952C28"/>
<path d="M111.691 70.1958C110.587 70.1059 109.466 69.9393 108.361 69.8494C107 69.733 106.859 71.7698 108.22 71.8863C109.324 71.9761 110.445 72.1428 111.55 72.2326C112.91 72.3491 113.052 70.3122 111.691 70.1958Z" fill="#952C28"/>
<path d="M126.361 71.0848C125.739 70.8947 125.039 70.7217 124.417 70.5315C123.094 70.1684 122.451 72.171 123.773 72.5342C124.395 72.7243 125.096 72.8974 125.718 73.0875C126.945 73.3903 127.684 71.448 126.361 71.0848Z" fill="#952C28"/>
<path d="M108.842 100.329C107.592 100.199 106.564 99.1944 106.296 97.9355C106.162 97.3061 105.151 97.5345 105.285 98.164C105.653 99.8949 107.06 101.144 108.81 101.325C109.404 101.439 109.437 100.442 108.842 100.329Z" fill="#952C28"/>
<path d="M200.058 198.509C201.209 196.801 229.166 141.56 229.992 140.89C230.819 140.221 274.367 139.995 274.367 139.995L242.719 200.737L200.058 198.509Z" fill="#2252B2"/>
<path d="M157.166 219.204C151.08 211.39 145.719 203.168 140.204 194.98C124.54 203.073 112.529 209.613 112.529 209.613C112.529 209.613 86.4715 177.583 53.1714 141.792C53.1714 141.792 23.9421 181.201 24.266 182.697C24.5899 184.194 88.9336 299.114 112.334 297.066C127.981 295.663 151.947 267.655 174.686 240.744C168.754 233.64 162.821 226.535 157.166 219.204Z" fill="#FECA55"/>
<path d="M204.202 171.737C200.583 172.919 195.295 171.766 190.456 173.779C186.346 178.736 160.69 190.42 146.175 197.602C149.428 214.278 163.374 245.062 180.301 242.095C198.169 221.637 215.122 202.271 226.628 196.793C228.276 196.033 204.202 171.737 204.202 171.737Z" fill="#FFA79B"/>
<path d="M249.554 175.264C251.05 173.008 249.262 170.547 247.571 170.414C248.08 168.203 246.343 164.841 244.397 165.814C244.397 165.814 245.06 163.166 242.2 161.496C238.551 160.395 230.318 167.134 224.064 171.922C219.911 172.303 204.086 175.121 203.968 176.846C202.419 176.603 200.7 176.719 199.05 177.144C189.962 177.746 186.576 188.008 190.295 195.085C192.572 199.387 196.868 202.295 201.549 203.18C200.716 205.055 204.22 212.663 206.529 211.452C232.208 198.318 237.561 206.026 250.232 181.357C252.896 177.238 251.369 175.208 249.554 175.264Z" fill="#FFA79B"/>
<path d="M140.662 198.142C130.852 202.008 120.977 205.966 111.167 209.833C110.859 209.969 110.469 210.12 110.16 210.256C103.696 212.793 97.3131 215.315 90.8649 217.929C90.2476 218.201 89.7162 217.264 90.3335 216.992C96.7164 214.469 103.099 211.947 109.482 209.425C109.791 209.289 110.181 209.138 110.489 209.002C120.365 205.044 130.256 201.162 140.228 197.266C140.845 196.994 141.295 197.946 140.662 198.142Z" fill="white"/>
<path d="M111.093 208.692C110.805 208.841 110.442 209.008 110.155 209.157C109.937 208.873 109.718 208.588 109.5 208.304C98.4206 193.703 87.3247 179.022 76.2455 164.42C75.8253 163.931 76.6203 163.164 76.9646 163.671C88.153 178.414 99.2489 193.095 110.437 207.839C110.656 208.123 110.874 208.408 111.093 208.692Z" fill="white"/>
<path d="M203.883 165.741C199.002 166.06 194.828 168.474 192.131 172.275C191.748 172.829 192.622 173.376 193.005 172.822C195.575 169.206 199.46 167.007 204.099 166.736C204.776 166.763 204.543 165.691 203.883 165.741Z" fill="#952C28"/>
</g>
<defs>
<clipPath id="clip0_3_14831">
<rect width="198.663" height="198.663" fill="white" transform="translate(0.446289)"/>
</clipPath>
</defs>
</svg>
