<svg width="200" height="199" viewBox="0 0 200 199" fill="none" xmlns="http://www.w3.org/2000/svg">
<g clip-path="url(#clip0_3_14725)">
<rect width="198.663" height="198.663" transform="translate(0.579102)" fill="#D7D372"/>
<path d="M39.5977 233.971C57.2832 240.855 75.3171 246.775 93.3962 252.464C116.735 259.764 140.302 266.711 163.489 274.378C179.912 219.476 193.519 153.344 193.412 137.242C193.171 102.327 139.536 98.4347 139.536 98.4347C139.536 98.4347 66.6258 104.693 66.0849 107.451C65.6042 109.902 21.1973 204.336 13.751 223.622C22.3871 227.102 30.9316 230.644 39.5977 233.971Z" fill="#697CCC"/>
<path d="M21.6792 228.255C18.8818 234.667 17.3555 238.717 17.6645 238.777C17.9736 238.837 22.1057 241.063 28.7609 244.727C12.736 248.648 -11.299 253.304 -47.13 257.961C-134.053 269.367 -150.481 269.258 -136.522 375.59C-131.954 410.385 -132.919 433.435 -132.271 447.551C-114.157 448.067 -86.4685 449.258 -68.4459 450.231C-58.6618 357.285 -71.048 338.834 -71.048 338.834C-71.048 338.834 -70.6268 336.307 10.0275 349.608C122.681 368.256 135.061 374.613 152.333 334.498C160.54 315.385 168.949 289.197 176.366 262.342C124.748 251.127 73.524 238.328 21.6792 228.255Z" fill="black"/>
<path d="M86.3106 262.822C86.3106 262.822 100.979 258.084 16.3703 235.029C-91.8677 205.65 -112.603 204.154 -150.712 306.735C-162.571 338.565 -170.054 357.654 -175.201 370.64C-159.512 380.163 -135.697 396.872 -119.762 405.969C-71.4234 331.919 -79.3767 314.969 -75.4832 301.425C-75.4832 301.425 -75.4832 301.425 -51.5808 316.887C-39.9959 313.526 -28.021 311.03 -16.4814 307.897C1.59914 302.952 19.7268 298.174 37.8544 293.396C56.4139 288.465 74.9884 283.458 93.531 278.208L86.3106 262.822Z" fill="black"/>
<path d="M8.91379 169.083C-1.12509 191.847 -3.1988 197.385 -3.1988 197.385C-3.1988 197.385 -69.0107 190.96 -94.7663 203.411C-101.381 206.081 -112.634 217.4 -113.091 222.146C-113.221 223.213 -113.699 225.618 -110.938 225.195C-110.544 228.93 -109.185 230.662 -107.97 230.264C-106.086 234.665 -100.765 234.014 -99.978 231.277C-98.9769 234.813 -95.14 237.55 -84.8628 225.427C-84.3485 225.289 -71.9443 225.327 -70.4279 225.452C-64.1021 228.727 -70.5491 230.962 -75.0698 233.709C-76.9184 234.847 -77.9517 238.006 -76.2602 238.475C-68.9615 240.529 -54.7619 231.938 -49.1679 228.688L37.818 239.19L56.8505 178.507C40.7509 175.837 24.7296 173.181 8.91379 169.083Z" fill="#952C28"/>
<path d="M136.937 98.5796L109.442 107.23L71.5783 119.164L54.2179 175.034C38.5627 170.973 22.983 166.532 7.1767 163.232C10.7092 155.15 15.2512 144.815 21.1707 131.588C40.3973 88.5581 53.658 89.3115 105.57 95.1862C114.753 96.255 125.126 97.3965 136.937 98.5796Z" fill="#697CCC"/>
<path d="M6.41976 200.289L-1.08291 197.228C-1.68715 196.97 -2.09718 197.822 -1.49293 198.08C1.00317 199.125 3.49924 200.17 6.00973 201.14C6.61398 201.398 7.024 200.547 6.41976 200.289Z" fill="white"/>
<path d="M68.6447 116.125C66.7198 124.459 64.7823 132.873 62.8575 141.208C62.6836 141.831 63.6223 142.014 63.724 141.377C65.6489 133.042 67.5864 124.628 69.5113 116.293C69.6851 115.67 68.8186 115.501 68.6447 116.125Z" fill="white"/>
<path d="M55.8346 177.863L32.7399 173.256C31.4355 172.996 30.3583 171.986 30.1385 170.669L21.0603 126.79C20.5606 124.463 22.6381 122.412 24.9399 122.872L48.0345 127.479C49.3389 127.739 50.4161 128.749 50.6359 130.065L59.7141 173.945C60.2138 176.271 58.1364 178.322 55.8346 177.863Z" fill="black"/>
<path d="M45.574 128.966C43.1809 128.594 40.7747 128.299 38.3815 127.928C37.7434 127.829 37.586 128.741 38.2242 128.84C40.6173 129.211 43.0236 129.506 45.4167 129.877C46.0549 129.976 46.2122 129.065 45.574 128.966Z" fill="white"/>
<path d="M42.5793 134.593C40.9201 134.104 38.9434 134.823 38.2286 136.429C38.2136 136.506 38.1985 136.582 38.1835 136.659C38.0917 136.72 38.0766 136.796 38.0616 136.873C37.7006 138.708 38.9355 140.544 40.7634 140.987C42.5144 141.415 44.1056 140.222 44.6051 138.493C44.9977 136.903 44.2235 135.159 42.5793 134.593ZM41.0824 140.176C39.7002 139.901 38.7741 138.525 39.0448 137.148C39.0598 137.072 39.0598 137.072 39.0749 136.995L39.1667 136.934C40.2923 134.456 44.362 135.266 43.7905 138.172C43.3962 139.365 42.3878 140.436 41.0824 140.176Z" fill="white"/>
<path d="M53.1256 157.691C51.7316 149.418 50.3519 141.066 48.884 132.778C48.7633 132.182 47.834 132.23 47.9547 132.825L52.1963 157.739C52.3026 158.413 53.2319 158.365 53.1256 157.691Z" fill="white"/>
<path d="M42.6384 146.08C43.3167 146.215 43.9743 145.777 44.1072 145.101C44.2401 144.425 43.798 143.767 43.1197 143.632C42.4414 143.497 41.7839 143.935 41.651 144.611C41.5181 145.287 41.9602 145.945 42.6384 146.08Z" fill="white"/>
<path d="M185.299 191.351C176.393 187.651 167.564 183.966 158.78 180.056C153.269 177.617 147.821 175.269 142.097 173.493L133.679 195.094C133.679 195.094 82.521 175.276 75.0306 173.013C74.8755 166.038 73.4719 157.189 70.9391 151.173C68.5028 145.487 64.3275 142.441 62.3863 141.608C58.5038 139.944 58.4349 148.048 62.3908 150.975C62.7768 152.296 59.7672 162.97 53.2107 160.492C51.7496 159.282 50.2736 158.146 48.7976 157.011C47.2251 155.545 37.5155 150.993 31.3461 142.89C29.9149 141.529 28.2654 138.41 26.2644 137.878C23.6535 137.155 21.5469 138.789 21.8501 141.343C21.9202 142.215 27.4464 149.885 28.0149 150.694C27.9311 153.566 27.2269 155.073 27.9058 157.776C27.4762 160.349 27.4819 162.769 27.8931 165.188C25.5682 175.679 32.4073 183.673 41.0371 189.584C43.6687 192.653 47.0216 196.17 51.0959 200.134C107.712 255.316 145.119 272.165 166.651 271.442C181.587 270.887 198.189 232.948 204.569 201.208C204.674 200.681 204.778 200.155 204.883 199.628C198.245 196.744 191.811 194.055 185.299 191.351Z" fill="#952C28"/>
<path d="M140.162 170.783L161.828 113.668L150.132 102.855L140.519 93.9764C145.177 94.5137 150.446 95.1739 155.929 95.957C182.275 99.6573 213.686 107.09 210.982 132.651C209.555 146.016 206.912 171.669 201.992 196.386C181.145 188.522 160.525 179.906 140.162 170.783Z" fill="#697CCC"/>
<path d="M141.696 200.932C139.785 198.824 137.873 196.716 135.961 194.608C135.572 194.137 134.942 194.883 135.331 195.353C137.243 197.462 139.155 199.57 141.067 201.678C141.471 202.072 142.1 201.327 141.696 200.932Z" fill="white"/>
<path d="M35.43 162.287C32.8953 160.002 30.4383 157.731 27.9035 155.446C27.4187 155.04 26.8017 155.707 27.2715 156.188C29.8063 158.473 32.2633 160.744 34.798 163.029C35.205 163.42 35.9148 162.693 35.43 162.287Z" fill="#D24A43"/>
<path d="M32.0177 167.156C29.6636 165.67 27.9087 163.589 26.8925 161.021C26.6889 160.428 25.7334 160.795 25.9521 161.312C27.0928 164.062 29.0493 166.34 31.6202 167.948C32.1932 168.297 32.5907 167.505 32.0177 167.156Z" fill="#D24A43"/>
<path d="M30.0238 174.292C28.7357 172.696 27.4476 171.099 26.1445 169.58C25.7565 169.108 24.926 169.658 25.3139 170.129C26.602 171.725 27.8901 173.321 29.1933 174.841C29.5812 175.312 30.4118 174.763 30.0238 174.292Z" fill="#D24A43"/>
<path d="M47.3555 200.665C37.5088 194.474 29.9323 185.328 25.8053 174.564C25.6018 173.971 24.6617 174.262 24.8652 174.855C29.1015 185.877 36.8024 195.205 46.8657 201.517C47.4536 201.79 47.8661 200.922 47.3555 200.665Z" fill="#D24A43"/>
<path d="M149.283 132.666C146.108 144.437 142.991 156.302 139.816 168.073C139.64 168.695 140.506 168.869 140.681 168.246C143.857 156.476 146.973 144.611 150.148 132.84C150.396 132.232 149.459 132.044 149.283 132.666Z" fill="white"/>
<path d="M137.132 94.9042C125.115 93.8127 114.48 92.7397 105.213 91.7596C105.041 95.9691 106.517 100.091 109.27 103.518C109.606 103.887 109.862 104.242 110.198 104.611C114.366 109.142 120.433 111.472 126.78 111.539C134.839 111.607 141.75 108.383 147.204 103.432C149.389 101.436 151.381 99.1745 153.087 96.707C147.359 95.9806 142.009 95.3997 137.132 94.9042Z" fill="#952C28"/>
<path d="M146.948 100.172L110.903 103.905L108.433 94.1893L105.218 81.723L99.7216 60.1316L126.255 54.9096C126.941 57.569 146.948 100.172 146.948 100.172Z" fill="#952C28"/>
<path d="M107.341 95.5247L107.463 96.0371C112.409 92.4806 115.826 87.106 117.828 80.8264C120.425 72.4361 119.282 64.7538 118.002 56.6357L99.1536 60.5415L104.365 82.7307L107.341 95.5247Z" fill="black"/>
<path d="M126.199 33.8065C118.352 22.9588 86.7025 28.2074 86.6458 41.5051C86.6073 51.4594 86.7586 78.9936 91.5807 84.0305C101.299 94.1215 116.233 87.5022 122.241 76.8759C128.339 66.191 134.063 44.5784 126.199 33.8065Z" fill="#952C28"/>
<path d="M128.274 37.5435C129.167 36.4242 129.582 34.9007 129.504 33.0463C129.212 28.85 125.694 26.8266 122.328 27.056C120.861 24.5337 117.494 22.9245 114.502 22.9241C113.122 22.9476 111.755 23.2803 110.588 23.8072C109.895 23.2821 109.092 22.8877 108.257 22.6399C106.339 22.1701 104.659 22.8217 103.193 23.9765L103.177 24.0498C100.297 23.5363 97.3636 24.0074 95.4848 26.3034C95.2496 26.6382 95.0144 26.973 94.8405 27.397C89.9485 24.6325 83.5579 23.1695 81.4193 28.8593C80.9749 30.147 80.9044 31.205 81.1756 32.1798C80.2378 33.1366 79.4838 34.3609 79.1298 35.9736C78.5375 38.3034 81.124 40.5188 83.5643 39.7168C84.093 39.5187 84.6216 39.3207 85.1342 39.1959C85.5923 40.0558 86.2374 40.8009 87.2242 41.4627C91.2328 44.1994 95.2461 42.4941 97.334 39.2451C100.923 40.2105 104.772 39.6206 107.934 37.7408C108.447 39.4547 109.908 40.9032 112.23 41.379C113.391 41.6169 114.522 41.619 115.47 41.3537C116.932 44.6407 119.522 48.3123 124.142 48.2634C126.328 48.2518 126.821 56.3195 128.849 56.6586C130.065 50.0137 130.292 43.0893 128.274 37.5435Z" fill="black"/>
<path d="M99.9233 62.8899C98.8953 63.1408 97.7737 63.4492 96.6702 63.3035C95.4113 63.1266 94.0333 62.0104 94.7252 60.7002C95.0084 60.1469 94.2178 59.6827 93.9347 60.236C93.2587 61.4732 93.6704 62.9291 94.9728 63.6487C96.538 64.65 98.5003 64.2056 100.136 63.7717C100.744 63.5888 100.531 62.7069 99.9233 62.8899Z" fill="black"/>
<path d="M94.4161 54.3419C94.8653 58.142 91.9297 61.6127 87.8048 61.3585C83.6798 61.1042 81.1194 57.3982 81.9482 53.6366C82.0782 53.0466 81.1725 52.778 81.0425 53.368C80.0837 57.7197 82.9913 62.0394 87.7634 62.276C92.5355 62.5127 95.9084 58.5168 95.3424 54.1517C95.242 53.5129 94.3156 53.7031 94.4161 54.3419Z" fill="#BCD7FD"/>
<path d="M113.813 50.9279C114.838 54.6364 112.471 58.4695 108.385 58.8327C104.299 59.1959 101.197 55.817 101.477 52.0011C101.531 51.3925 100.597 51.2695 100.559 51.8041C100.302 56.245 103.781 60.0925 108.512 59.7126C113.242 59.3327 115.909 54.8664 114.785 50.5164C114.576 50.0066 113.697 50.3605 113.813 50.9279Z" fill="#BCD7FD"/>
<path d="M100.906 53.6546C98.8907 53.9432 96.8754 54.2317 94.86 54.5202C94.2663 54.6317 94.483 55.5089 95.0767 55.3975C97.092 55.1089 99.1074 54.8204 101.123 54.5319C101.03 54.2101 100.999 53.9764 100.906 53.6546Z" fill="#BCD7FD"/>
<path d="M106.339 51.2868C106.381 52.184 106.495 53.0988 106.553 53.9192C106.667 54.834 107.939 54.5777 107.897 53.6805C107.856 52.7833 107.741 51.8686 107.684 51.0481C107.585 50.0566 106.225 50.3721 106.339 51.2868Z" fill="black"/>
<path d="M87.8434 52.626C87.8851 53.5229 87.9993 54.4374 88.057 55.2575C88.1712 56.172 89.4439 55.9158 89.4022 55.0189C89.3605 54.122 89.2462 53.2076 89.1886 52.3874C89.0743 51.473 87.7291 51.7116 87.8434 52.626Z" fill="black"/>
<path d="M90.8183 46.8343C89.7575 46.8529 88.6966 46.8715 87.6517 46.8172C87.1682 46.7977 86.7138 47.3921 86.7905 47.7873C86.8355 48.3282 87.3494 48.5817 87.8329 48.6011C88.8937 48.5825 89.9545 48.5639 90.9994 48.6182C91.4829 48.6377 91.9373 48.0433 91.8607 47.6481C91.8157 47.1072 91.3018 46.8537 90.8183 46.8343Z" fill="black"/>
<path d="M105.292 43.5081C104.378 43.6261 103.371 43.8015 102.457 43.9195C101.202 44.1205 101.619 45.8957 102.874 45.6947C103.788 45.5767 104.795 45.4013 105.709 45.2833C106.871 45.1398 106.454 43.3645 105.292 43.5081Z" fill="black"/>
<path d="M112.226 73.9582C111.351 75.8126 109.66 77.0854 107.625 77.4104C107.052 77.5165 107.08 78.4711 107.653 78.365C110.004 78.0332 111.969 76.5859 113.059 74.4646C113.34 73.8966 112.49 73.4655 112.226 73.9582Z" fill="black"/>
<path d="M129.791 46.1076C124.795 47.464 119.8 48.8203 114.804 50.1767C114.197 50.3593 114.408 51.2426 115.015 51.06C120.011 49.7036 125.007 48.3472 130.003 46.9908C130.687 46.8239 130.398 45.925 129.791 46.1076Z" fill="#BCD7FD"/>
<path d="M139.172 49.1538C137.121 44.8814 130.045 43.175 125.674 47.7912C126.136 52.8858 126.433 58.0214 126.729 63.1571C129.484 64.1866 134.92 63.6949 137.747 60.782C140.937 57.636 141.382 53.7794 139.172 49.1538Z" fill="#952C28"/>
<path d="M132.045 52.2811C131.046 53.8157 129.974 55.3326 128.959 56.9441C128.631 57.43 129.362 57.9313 129.762 57.463C129.85 57.4037 129.882 57.2498 129.97 57.1904C129.986 57.1135 129.986 57.1135 130.002 57.0365C130.969 55.6559 131.865 54.2576 132.848 52.8001C133.104 52.2966 132.373 51.7953 132.045 52.2811Z" fill="black"/>
</g>
<defs>
<clipPath id="clip0_3_14725">
<rect width="198.663" height="198.663" fill="white" transform="translate(0.579102)"/>
</clipPath>
</defs>
</svg>
