<svg width="199" height="199" viewBox="0 0 199 199" fill="none" xmlns="http://www.w3.org/2000/svg">
<g clip-path="url(#clip0_3_14683)">
<rect width="198.663" height="198.663" transform="translate(0.000976562)" fill="#5599FE"/>
<path d="M45.1259 123.976L108.948 116.863L185.827 146.679C185.827 146.679 188.165 350.52 183.488 349.351C178.714 348.182 6.44301 338.633 6.44301 335.027C6.44301 331.422 -4.85986 238.466 -4.85986 238.466L45.1259 123.976Z" fill="#FECA55"/>
<path d="M-12.1677 146.68C-37.7939 194.327 -44.9069 208.65 -44.9069 208.65L-124.027 138.397C-124.222 127.387 -125.976 116.084 -130.165 105.95C-135.427 93.3808 -143.612 91.7244 -152.381 81.8831C-157.448 76.1343 -163.489 83.9293 -158.422 89.6782L-153.258 95.9142C-153.161 99.0322 -151.407 107.217 -151.017 110.335C-159.494 102.248 -170.797 90.4577 -181.71 85.3909C-184.731 84.0267 -187.557 85.0986 -189.213 87.1448C-191.746 87.4371 -193.793 89.5807 -194.377 92.0167C-196.813 93.868 -198.177 97.6681 -196.034 100.884C-197.69 102.637 -198.567 105.171 -197.398 107.899C-197.3 108.094 -197.203 108.191 -197.203 108.386C-197.885 109.068 -197.008 111.504 -197.69 112.674C-200.711 118.033 -191.941 139.469 -175.669 150.187C-170.895 161.295 -160.956 168.506 -160.176 168.701C-142.93 191.891 -83.2002 274.519 -54.0661 301.606C-21.0346 332.397 6.15071 293.811 28.1718 223.558C50.1928 153.208 54.3826 129.433 54.3826 129.433L110.994 117.545C39.1823 113.258 13.556 98.9348 -12.1677 146.68Z" fill="#FFA79B"/>
<path d="M111.289 117.449L109.925 117.741L71.5339 125.828L54.6771 129.336C54.6771 129.336 50.4872 153.208 28.4662 223.461C27.0046 228.041 25.543 232.523 24.0815 236.81C4.88614 220.441 -14.8938 204.753 -34.8687 189.26C-29.8019 179.614 -22.494 165.778 -12.0681 146.485C7.71187 109.751 27.3944 109.848 68.4159 113.648C80.2059 114.72 93.6523 116.182 109.437 117.156C110.022 117.351 110.607 117.351 111.289 117.449Z" fill="#FECA55"/>
<path d="M26.7087 155.547C24.9548 174.839 23.2009 194.132 21.3496 213.425C21.2521 214.204 22.5189 214.204 22.5189 213.425C24.2727 194.132 26.0266 174.839 27.878 155.547C27.878 154.767 26.7087 154.767 26.7087 155.547Z" fill="white"/>
<path d="M108.848 116.864C152.402 121.054 207.747 114.525 214.373 154.377C220.902 194.327 225.676 212.743 228.697 241.39C231.717 270.037 242.435 304.53 206.676 308.135C170.916 311.74 88.6779 318.269 88.6779 318.269L72.6006 274.714C72.6006 274.714 139.346 250.841 160.782 244.313L156.592 158.47L108.848 116.864Z" fill="#FFA79B"/>
<path d="M227.039 227.943C204.628 228.431 182.217 229.405 160.196 233.108L156.591 158.567L127.165 132.844L109.918 117.741L109.431 117.351L108.846 116.864C118.59 117.838 128.918 118.228 139.149 118.715C174.714 120.469 209.208 123.392 214.274 154.475C219.828 187.701 224.116 206.117 227.039 227.943Z" fill="#FECA55"/>
<path d="M159.03 171.722C159.03 170.942 157.86 170.942 157.86 171.722C157.958 190.235 158.055 208.651 158.153 227.164C158.153 227.944 159.322 227.944 159.322 227.164C159.224 208.651 159.127 190.138 159.03 171.722Z" fill="white"/>
<path d="M104.37 126.802C112.749 124.756 120.934 122.418 129.217 120.079L111.093 77.3037L79.3281 91.4323C79.9128 91.9194 84.9795 112.674 88.9745 129.628C94.1387 128.654 99.303 127.972 104.37 126.802Z" fill="#FFA79B"/>
<path d="M101.442 84.6116C101.345 83.3449 101.248 82.0782 100.955 80.8115L79.4214 91.5297C79.8111 91.822 82.1497 100.981 84.7805 111.992C92.9653 104.294 99.3962 94.9401 101.442 84.6116Z" fill="black"/>
<path d="M135.547 56.1594C135.352 45.1488 118.885 33.846 105.829 32.287C100.177 31.6049 98.8131 27.0253 96.0848 30.8254C89.3616 40.3744 67.438 69.3135 68.4123 80.6163C69.8739 97.0834 89.7513 100.786 102.711 94.6474C115.767 88.5088 135.84 71.7495 135.547 56.1594Z" fill="#FFA79B"/>
<path d="M136.232 58.5954C137.986 55.7697 137.109 52.2619 134.77 50.3132C134.673 50.2157 134.673 50.2157 134.575 50.1183C135.355 44.6617 131.36 40.277 126.488 39.7899C125.903 38.4257 124.832 37.3539 123.37 36.6718C123.175 36.0872 122.98 35.6 122.59 35.2102C121.714 34.3333 120.642 33.9436 119.472 33.9436C118.693 31.5076 117.329 29.3639 114.99 28.1947C113.529 27.4152 111.872 27.6101 110.606 28.2921C107.78 25.369 104.272 22.933 100.764 22.7382C99.3028 22.6407 96.3796 23.3228 95.1129 26.928C93.6514 26.8306 92.2872 27.61 91.6051 29.1691C90.6307 31.5076 91.8 33.9436 93.6514 35.4051C94.7232 36.2821 96.2821 36.8667 97.7437 36.7692C102.226 41.7386 114.406 50.3132 117.329 50.2158C115.088 55.38 112.554 67.2674 118.693 68.3392C119.862 73.5035 114.113 81.9806 116.939 85.5858C123.175 80.519 129.021 74.3804 132.432 67.7546C132.529 67.7546 132.724 67.7546 132.919 67.7546C137.304 66.7802 138.668 61.7134 136.232 58.5954Z" fill="#952C28"/>
<path d="M130.578 81.0065C132.04 75.1602 126.291 67.6575 118.008 68.437C114.208 73.7961 110.311 79.0577 106.316 84.222C108.265 87.5349 114.208 91.5299 119.47 91.1401C125.414 90.5555 129.019 87.2426 130.578 81.0065Z" fill="#FFA79B"/>
<path d="M121.616 77.1083C119.278 77.4006 116.939 77.5955 114.601 77.8878C113.821 77.9852 114.016 79.0571 114.796 79.0571C114.99 79.0571 115.088 79.0571 115.283 79.0571C115.38 79.0571 115.38 79.0571 115.478 79.0571C117.621 78.8622 119.667 78.5699 121.811 78.375C122.591 78.1801 122.396 77.0109 121.616 77.1083Z" fill="#952C28"/>
<path d="M102.614 56.9392C101.932 57.7187 101.153 58.5956 100.471 59.3751C99.6913 60.2521 98.522 58.8879 99.3015 58.1084C99.9836 57.3289 100.763 56.452 101.445 55.6725C102.127 54.7955 103.296 56.0622 102.614 56.9392Z" fill="black"/>
<path d="M91.6027 47.8772C90.9206 48.6567 90.1411 49.5336 89.459 50.3131C88.6795 51.1901 87.5103 49.8259 88.2898 49.0464C88.9719 48.2669 89.7513 47.39 90.4334 46.6105C91.1155 45.7335 92.2847 47.0002 91.6027 47.8772Z" fill="black"/>
<path d="M84.8816 56.4522C85.5637 56.7445 85.1739 57.8164 84.4919 57.5241C82.9329 56.9395 82.1533 58.7908 82.5431 60.0575C82.9329 61.3242 84.0047 62.2011 84.9791 63.078C85.5637 63.5652 84.8816 64.5396 84.297 64.0524C82.738 62.6883 80.8866 60.9344 81.3738 58.5959C81.5687 56.9394 83.3226 55.8676 84.8816 56.4522Z" fill="#952C28"/>
<path d="M104.855 50.7023C105.732 51.6767 106.511 52.5536 107.388 53.528C108.46 54.6973 106.608 56.1588 105.537 54.9896C104.66 54.0152 103.88 53.1383 103.003 52.1639C102.029 50.9946 103.88 49.5331 104.855 50.7023Z" fill="#952C28"/>
<path d="M93.9413 41.0566C94.5259 41.5438 95.1105 42.031 95.7926 42.5181C96.9618 43.4925 95.5977 45.3438 94.4285 44.4669C93.8438 43.9797 93.2592 43.4925 92.5771 43.0053C91.4079 42.031 92.772 40.0822 93.9413 41.0566Z" fill="#952C28"/>
<path d="M77.7672 74.9656C78.7416 76.0374 80.398 76.3297 81.6647 75.7451C82.3468 75.4527 82.834 76.5246 82.1519 76.8169C80.3006 77.5964 78.2544 77.2066 76.7928 75.7451C76.3056 75.1604 77.1825 74.4784 77.7672 74.9656Z" fill="#952C28"/>
<path d="M139.251 118.714C136.328 124.268 132.138 129.043 127.169 132.843C121.713 137.033 115.184 139.956 107.876 141.125C93.8452 143.366 78.0602 137.422 71.4344 125.827C69.4856 122.319 68.3164 118.324 68.3164 113.842C80.1064 114.914 93.5529 116.376 109.338 117.35L108.753 116.863C118.595 117.74 128.923 118.13 139.251 118.714Z" fill="#FFA79B"/>
</g>
<defs>
<clipPath id="clip0_3_14683">
<rect width="198.663" height="198.663" fill="white" transform="translate(0.000976562)"/>
</clipPath>
</defs>
</svg>
