<svg width="200" height="200" viewBox="0 0 200 200" fill="none" xmlns="http://www.w3.org/2000/svg">
<g clip-path="url(#clip0_3_14996)">
<rect width="198.663" height="198.663" transform="translate(0.579102 0.395996)" fill="#91D767"/>
<path d="M158.591 140.487L105.732 151.818L100.653 137.584L94.0662 119.388L82.7354 87.9071L121.305 75.8506C122.533 79.7578 158.591 140.487 158.591 140.487Z" fill="#FFA79B"/>
<path d="M100.595 137.64L100.874 138.366C107.907 132.338 112.484 123.909 114.549 114.365C117.285 101.694 114.326 90.6423 111.256 78.9766L82.7896 87.9073L94.1204 119.388L100.595 137.64Z" fill="black"/>
<path d="M129.508 81.4881C128.615 89.5258 123.089 107.052 122.419 108.504C114.94 125.249 93.3386 137.473 77.04 124.188C76.9283 124.077 76.8167 124.021 76.7051 123.909C76.5376 123.797 76.426 123.63 76.2585 123.463C76.1469 123.351 76.0353 123.183 75.8678 123.016C75.812 122.96 75.812 122.904 75.7562 122.849C75.5329 122.57 75.3655 122.29 75.1422 122.011C74.8631 121.621 74.6399 121.174 74.3608 120.672C74.2491 120.504 74.1933 120.337 74.0817 120.169C73.97 119.946 73.8026 119.667 73.691 119.388C73.5793 119.22 73.5235 118.997 73.4119 118.774C73.2444 118.383 73.077 117.937 72.8537 117.49C72.6862 117.044 72.5188 116.597 72.3513 116.095C71.7373 114.476 71.1792 112.69 70.6768 110.792C70.6768 110.736 70.6768 110.736 70.6768 110.68C70.621 110.401 70.5094 110.122 70.4536 109.843C70.3978 109.564 70.2861 109.285 70.2303 109.006C69.7279 106.997 69.2256 104.82 68.7232 102.587C67.9418 98.9589 67.272 95.1633 66.658 91.3678C66.658 91.3119 66.658 91.2561 66.6022 91.1445C64.9277 80.5951 63.7555 70.0456 63.0857 63.4592C63.0299 63.1243 63.0299 62.7894 62.9741 62.5103C62.9741 62.3987 62.9741 62.2871 62.9183 62.1754C60.9088 42.5836 108.074 29.5224 121.638 44.2023C129.62 52.7981 131.127 67.4222 129.508 81.4881Z" fill="#FFA79B"/>
<path d="M121.805 44.3143C113.767 35.6627 94.0639 36.6674 79.6631 42.9747C77.0955 42.9747 74.5838 43.198 72.072 43.5887C69.2811 44.0352 65.7647 44.4818 63.8669 46.8261C63.0296 47.8866 62.6389 49.1704 62.7506 50.3984C62.4715 50.5658 62.1924 50.7333 61.8575 50.9007C58.341 52.966 55.6618 57.9337 59.5131 61.1711C63.0296 64.0736 69.3369 62.399 73.1883 61.3385C73.4116 61.2827 73.6907 61.1711 73.914 61.1152C80.6678 61.8967 87.4775 60.6687 93.5058 57.6546C96.6873 58.1011 99.7573 57.9895 102.827 57.3755C103.106 57.4871 103.385 57.6546 103.664 57.822C105.004 58.6593 105.953 59.8873 106.734 61.2269C107.013 61.4502 114.158 77.5813 108.911 81.2652C95.571 90.7541 78.2119 93.3775 66.7694 91.4797C67.3833 95.2753 68.0532 99.1267 68.8346 102.699C69.2811 104.932 69.7835 107.053 70.3417 109.118C70.3975 109.397 70.5091 109.676 70.5649 109.955C70.6208 110.234 70.7324 110.513 70.7882 110.792C70.7882 110.848 70.7882 110.848 70.7882 110.904C71.3464 112.802 71.9045 114.588 72.4627 116.207C72.6302 116.653 72.7976 117.156 72.9651 117.602C73.1325 118.049 73.3 118.495 73.5232 118.886C73.6349 119.109 73.6907 119.277 73.8023 119.5C73.914 119.779 74.0814 120.058 74.1931 120.281C74.3047 120.449 74.3605 120.616 74.4721 120.784C74.7512 121.23 74.9745 121.677 75.2536 122.123C75.421 122.402 75.6443 122.682 75.8676 122.961C75.9234 123.016 75.9234 123.072 75.9792 123.128C76.0908 123.295 76.2025 123.407 76.3699 123.575C76.5374 123.742 76.649 123.909 76.8164 124.021C76.9281 124.133 77.0397 124.189 77.1514 124.3C93.4499 137.585 115.833 126.477 122.866 109.509C124.596 105.267 122.866 95.1079 121.972 91.2565C121.414 88.8005 126.773 85.1166 129.564 81.5443C131.126 67.4226 129.619 52.7985 121.805 44.3143Z" fill="#697CCC"/>
<path d="M85.2454 86.6233C83.7942 87.1815 82.2313 87.7954 80.6126 87.6838C78.7707 87.5722 76.5938 86.0651 77.4868 83.9999C77.8217 83.1626 76.5938 82.4928 76.2589 83.3301C75.4216 85.2837 76.2589 87.4605 78.1567 88.4652C80.5568 89.749 83.2918 88.856 85.692 87.9629C86.5292 87.6838 86.1385 86.3442 85.2454 86.6233Z" fill="#D24A43"/>
<path d="M94.7321 73.7853C95.0112 75.0691 95.2344 76.3529 95.5135 77.6367C95.7926 78.9763 97.7462 78.3065 97.5229 77.0227C97.2439 75.7389 97.0206 74.4551 96.7415 73.1713C96.4624 71.8317 94.5088 72.5015 94.7321 73.7853Z" fill="black"/>
<path d="M68.444 76.5764C68.7231 77.8602 68.9464 79.144 69.2255 80.4278C69.5045 81.7674 71.4581 81.0976 71.2349 79.8138C70.9558 78.53 70.7325 77.2462 70.4534 75.9624C70.1743 74.6786 68.1649 75.2926 68.444 76.5764Z" fill="black"/>
<path d="M70.2869 65.6923C68.8357 66.1388 67.3844 66.6412 65.9332 67.0877C65.2075 67.311 64.9285 68.3157 65.2075 68.9855C65.5424 69.7669 66.3239 69.9344 67.1053 69.7111C68.5566 69.2646 70.0078 68.7622 71.4591 68.3157C72.1847 68.0924 72.4638 67.0877 72.1847 66.4179C71.8498 65.6364 71.0125 65.4132 70.2869 65.6923Z" fill="#697CCC"/>
<path d="M93.0598 62.5105C91.6644 62.8454 90.3248 63.2362 88.9294 63.5711C87.1432 64.0176 88.0363 66.6968 89.7666 66.2503C91.1621 65.9154 92.5017 65.5247 93.8971 65.1898C95.6832 64.799 94.7902 62.064 93.0598 62.5105Z" fill="#697CCC"/>
<path d="M104.39 105.546C103.329 108.448 100.985 110.625 97.9709 111.406C97.0778 111.63 97.3011 113.025 98.1941 112.802C101.655 111.853 104.446 109.453 105.674 106.048C106.009 105.211 104.669 104.708 104.39 105.546Z" fill="#FFA79B"/>
<path d="M138.55 68.1479C134.811 62.1755 123.982 60.8359 118.065 68.3712C119.517 75.9065 120.8 83.4418 121.917 91.0329C126.215 92.0376 134.308 90.4189 138.104 85.7303C142.458 80.3161 142.569 74.5669 138.55 68.1479Z" fill="#FFA79B"/>
<path d="M128.502 73.004C127.107 75.4041 125.767 77.8601 124.372 80.2602C123.925 81.0416 125.153 81.6556 125.656 80.8742C125.767 80.7067 125.879 80.5393 125.935 80.3718C125.991 80.316 125.991 80.2602 125.991 80.2044C127.219 78.0275 128.502 75.7948 129.73 73.618C130.233 72.8365 128.949 72.2225 128.502 73.004Z" fill="#D24A43"/>
<path d="M195.932 139.873V215.114H12.8523C12.6848 206.574 12.9639 189.55 15.978 164.767C20.0526 131.891 44.2215 135.798 94.0103 138.087C99.8711 138.366 106.067 138.589 112.653 138.757C125.993 139.092 144.581 139.371 162.107 139.538C174.722 139.706 186.778 139.817 195.932 139.873Z" fill="#EBF4FF"/>
<path d="M115.946 168.842C110.532 170.684 105.118 172.526 99.7035 174.424C100.15 163.484 100.597 152.544 101.043 141.604C101.099 140.822 99.8152 140.822 99.8152 141.604C99.3686 152.823 98.9221 164.098 98.4756 175.317C98.4756 175.708 98.8663 176.043 99.257 175.931L116.337 170.07C117.007 169.791 116.672 168.563 115.946 168.842Z" fill="white"/>
<path d="M154.181 146.236C146.758 158.013 139.334 169.791 131.91 181.512C128.338 177.717 124.821 173.921 121.249 170.181C120.691 169.623 119.854 170.46 120.356 171.074C124.096 175.037 127.836 179 131.575 183.019C131.854 183.298 132.357 183.243 132.524 182.908C140.115 170.907 147.651 158.906 155.242 146.906C155.688 146.18 154.628 145.51 154.181 146.236Z" fill="white"/>
<path d="M120.022 174.591C120.022 173.81 118.738 173.81 118.794 174.591L119.854 213.44C119.854 214.222 121.138 214.222 121.082 213.44L120.022 174.591Z" fill="white"/>
<path d="M41.3755 170.573V178.834C41.3755 179.615 42.6035 179.615 42.6035 178.834V170.573C42.6593 169.791 41.3755 169.791 41.3755 170.573Z" fill="white"/>
<path d="M112.653 138.757C108.746 138.645 104.504 138.478 100.876 138.366L119.463 169.233L157.977 139.538C141.957 139.259 125.045 139.036 112.653 138.757Z" fill="#FFA79B"/>
<path d="M71.2323 224.157C69.8368 222.371 68.3856 220.64 66.9344 218.854C63.5853 212.603 60.2921 206.351 56.8315 200.1C52.9801 193.123 47.0077 184.694 34.6163 184.917C34.1139 184.917 33.6115 184.973 33.1092 184.973C33.0534 195.913 35.9559 206.909 40.4212 216.845C41.6492 219.636 43.0446 222.371 44.4959 225.05V224.994C44.775 221.813 45.054 218.631 45.2773 215.449C47.6774 217.236 49.5752 219.859 52.2544 221.199C53.7057 224.827 56.9431 226.892 60.1805 229.18C63.1388 231.301 70.4508 234.93 73.0742 230.353C74.4697 228.12 72.6835 225.943 71.2323 224.157Z" fill="#FFA79B"/>
<path d="M50.3025 191.057C46.6186 187.485 41.6509 184.805 34.6738 184.973C27.4175 185.14 19.7706 186.759 14.0773 191.615C8.32812 194.294 5.25816 199.876 4.25345 206.072C2.91384 214.221 3.02549 223.096 4.0302 231.301C4.70001 236.715 8.43974 242.632 14.1331 241.348C14.3563 242.688 14.6913 243.971 15.1936 245.144C16.4216 247.767 19.5473 249.386 22.0591 248.772C22.9522 252.288 25.6314 255.47 29.427 254.465C29.427 254.744 29.2037 262.67 31.8829 264.847C33.8923 266.466 37.5763 266.019 39.195 262.893C41.8184 257.758 43.4371 237.776 44.3301 227.226C44.1069 226.054 47.0652 196.304 50.3025 191.057Z" fill="#FFA79B"/>
</g>
<defs>
<clipPath id="clip0_3_14996">
<rect width="198.663" height="198.663" fill="white" transform="translate(0.579102 0.395996)"/>
</clipPath>
</defs>
</svg>
