<svg width="199" height="200" viewBox="0 0 199 200" fill="none" xmlns="http://www.w3.org/2000/svg">
<g clip-path="url(#clip0_3_14959)">
<rect width="198.663" height="198.663" transform="translate(0.290039 0.395996)" fill="#FBED72"/>
<path d="M67.2673 100.621C71.8213 101.722 77.788 100.395 82.3583 101.384C82.3745 101.272 87.9011 102.168 88.0166 102.185C104.566 113.211 101.373 94.5889 101.422 94.253C98.8198 88.6282 76.9915 83.9408 73.7633 78.5703C67.8959 80.0258 64.9607 87.2672 68.4198 92.6704C68.5028 92.9106 67.168 100.493 67.2673 100.621Z" fill="#952C28"/>
<path d="M17.3718 243.139C39.6169 133.234 33.9856 91.6518 91.0506 100.038C93.0638 100.386 94.9841 100.605 96.8855 100.933C98.2277 101.165 99.5699 101.397 100.931 101.519C111.128 103.168 120.207 104.624 126.582 105.726C131.95 106.654 136.853 107.615 141.419 108.518C142.202 108.654 142.966 108.9 143.637 109.016C146.415 109.61 149.173 110.314 151.726 110.869C192.491 118.94 203.32 132.984 196.216 191.02C194.071 208.849 185.421 254.446 181.562 271.524L17.3718 243.139Z" fill="#2252B2"/>
<path d="M57.1071 196.907C47.1939 192.455 53.9309 175.253 56.0717 167.254L63.8575 137.393C64.0771 136.474 62.9534 135.895 62.7338 136.814C59.4797 149.525 56.1282 162.216 52.8741 174.927C50.8766 182.592 48.3142 194.596 56.6162 198.375C57.2985 198.507 57.7741 197.157 57.1071 196.907Z" fill="white"/>
<path d="M56.7357 196.659C56.7578 195.701 55.5917 195.478 55.5696 196.436C55.1456 202.128 54.7216 207.821 54.2975 213.513C54.1783 214.452 55.4415 214.694 55.4635 213.736C55.8876 208.043 56.3117 202.351 56.7357 196.659Z" fill="white"/>
<path d="M142.523 155.386L135.9 201.607C135.793 202.552 136.965 202.729 137.072 201.784L143.695 155.563C143.9 154.633 142.63 154.441 142.523 155.386Z" fill="white"/>
<path d="M137.642 105.091L95.5232 148.503C95.5232 148.503 97.0349 112.508 97.6959 97.7752C107.729 99.4975 116.661 101.018 122.934 102.167C128.216 103.135 133.039 104.133 137.642 105.091Z" fill="#FFA79B"/>
<path d="M135.411 102.187L98.7479 107.679L95.7016 97.8287L91.8567 85.225L85.2072 63.3813L112.134 56.8612C112.82 59.5947 135.411 102.187 135.411 102.187Z" fill="#FFA79B"/>
<path d="M94.5207 99.2651L94.6615 99.7598C99.4922 95.8932 102.847 90.2232 104.578 83.6569C106.873 74.9774 105.283 67.0721 103.748 58.8266L84.7087 63.7074L91.0054 86.1963L94.5207 99.2651Z" fill="black"/>
<path d="M110.921 35.1201C102.347 24.386 70.3317 31.2779 70.8743 44.9158C71.3227 55.0651 72.6955 83.3199 77.9597 88.2322C88.3601 98.1487 103.355 90.6386 108.944 79.4131C114.661 68.0958 119.405 45.7217 110.921 35.1201Z" fill="#FFA79B"/>
<path d="M161.386 92.4759C159.77 85.5797 152.745 81.6995 146.391 83.4333C151.425 71.0362 140.856 57.9135 126.618 60.1124L126.636 60.0033C127.684 55.2407 128.165 49.7088 124.254 46.0174C122.043 43.9602 119.476 43.3023 116.93 43.8829C116.226 40.5085 114.882 37.4749 112.859 35.0004C107.32 28.5646 92.7196 28.7939 82.3327 32.9902C79.745 31.0939 76.4417 29.9749 73.3311 31.1337C70.2392 32.1834 68.1313 34.9709 68.4011 38.1597C68.7654 41.4768 71.6741 43.5396 74.9762 43.9848C77.0328 44.2197 79.6171 44.0947 81.8418 43.3477C86.6542 44.4969 92.0689 44.8497 95.8215 44.0238C97.2631 48.5332 106.599 57.9676 112.006 54.2778C113.193 53.4679 112.799 54.4116 114.308 54.4419C115.369 57.0908 116.298 59.8297 117.36 62.4786C117.228 62.5686 117.19 62.7868 117.172 62.8959C117.134 63.1141 117.116 63.2232 117.078 63.4414C113.109 69.6193 115.765 77.9259 123.278 80.9906C117.761 86.6826 116.36 94.8658 120.486 102.073C125.765 111.384 137.939 115.124 148.158 111.909C156.454 109.044 163.476 101.361 161.386 92.4759Z" fill="#952C28"/>
<path d="M125.644 53.4705C123.284 49.249 116.019 47.8121 111.769 52.7842C112.487 57.9709 113.076 63.2491 113.555 68.5072C116.368 69.3638 121.947 68.6554 124.737 65.6008C127.841 62.029 128.168 58.0666 125.644 53.4705Z" fill="#FFA79B"/>
<path d="M85.7847 80.0088C87.7254 80.5957 89.9878 78.5909 89.4276 76.5287C89.2292 75.6855 90.4408 75.2164 90.749 76.0798C91.5988 79.1173 88.6716 82.3831 85.6507 81.4824C84.7902 81.2091 85.0342 79.7557 85.7847 80.0088Z" fill="#D24A43"/>
<path d="M76.1934 64.8848C76.5688 64.0471 77.7345 64.6977 77.4906 65.4451C76.7023 67.3393 78.7706 68.8209 80.5368 67.9959C81.3071 67.5641 81.7777 68.8848 81.0074 69.3166C78.095 70.7345 75.011 67.7262 76.1934 64.8848Z" fill="#D24A43"/>
<path d="M87.8239 55.1968C88.0884 56.2966 88.4421 57.5301 88.7066 58.6299C88.9004 59.483 87.7112 59.9563 87.4097 59.0826C87.1452 57.9828 86.7913 56.7494 86.5268 55.6495C86.4409 54.8169 87.6301 54.3437 87.8239 55.1968Z" fill="black"/>
<path d="M72.9099 56.0716C73.1747 57.1709 73.5288 58.4037 73.7936 59.503C73.9875 60.3558 72.7973 60.8288 72.4954 59.9556C72.2307 58.8563 71.8765 57.6234 71.6118 56.5241C71.4178 55.6714 72.6081 55.1983 72.9099 56.0716Z" fill="black"/>
<path d="M83.9949 49.2465C84.8131 49.2684 85.6497 49.1822 86.3536 49.1855C87.0576 49.1888 87.8019 49.6429 87.9013 50.4364C88.0191 51.1218 87.4146 51.9119 86.5964 51.89C85.7782 51.8682 84.9416 51.9543 84.2376 51.951C83.5337 51.9477 82.7893 51.4937 82.6899 50.7002C82.6864 50.0333 83.1583 49.3327 83.9949 49.2465Z" fill="#952C28"/>
<path d="M70.6987 49.5668C71.2833 49.5533 71.8865 49.4307 72.3579 49.3981C74.1303 49.2485 74.493 51.8928 72.7019 52.1516C72.1173 52.1651 71.514 52.2877 71.0426 52.3203C69.2515 52.5791 68.9076 49.8256 70.6987 49.5668Z" fill="#952C28"/>
<path d="M116.072 58.1382C115.216 59.2556 114.342 60.4857 113.487 61.6031C112.923 62.3104 114.004 63.2117 114.568 62.5044C115.423 61.387 116.297 60.1569 117.153 59.0395C117.717 58.3322 116.636 57.4309 116.072 58.1382Z" fill="#D24A43"/>
</g>
<defs>
<clipPath id="clip0_3_14959">
<rect width="198.663" height="198.663" fill="white" transform="translate(0.290039 0.395996)"/>
</clipPath>
</defs>
</svg>
