<svg width="199" height="199" viewBox="0 0 199 199" fill="none" xmlns="http://www.w3.org/2000/svg">
<g clip-path="url(#clip0_3_14620)">
<rect width="198.663" height="198.663" transform="translate(0.290039)" fill="#68A74B"/>
<path d="M108.294 236.388L99.7405 113.512L67.5723 103.605C35.0455 141.663 22.0836 154.792 14.4135 242.144C13.595 251.002 13.0778 259.491 12.6812 267.592C44.6032 257.172 76.4212 246.703 108.294 236.388Z" fill="#2252B2"/>
<path d="M67.0085 159.995C58.1095 172.994 50.8456 190.883 54.9847 206.793C58.2329 219.195 68.8642 229.167 79.3434 235.536C84.0262 238.358 89.2142 240.908 94.6087 242.338C99.2264 240.829 103.741 239.27 108.359 237.761L100.963 129.675C87.7888 137.352 75.6847 147.339 67.0085 159.995Z" fill="black"/>
<path d="M263.32 366.588C266.377 365.874 269.384 365.262 272.468 364.624C284.03 362.338 295.45 359.417 306.843 356.419C312.824 354.864 324.981 349.63 330.935 347.999C325.801 280.26 328.726 230.048 273.756 230.72C217.148 231.444 106.496 254.291 106.496 254.291L105.809 244.157C73.6014 251.355 41.311 258.325 9.40996 266.617C4.86785 341.389 17.5502 383.117 54.4003 372.341C94.3025 360.596 248.599 305.165 248.599 305.165C248.599 305.165 247.671 320.744 263.32 366.588Z" fill="#697CCC"/>
<path d="M113.746 87.959C112.811 88.7295 99.7692 129.044 99.7692 129.044L70.8383 103.785L92.3978 76.2533L113.746 87.959Z" fill="#FFA79B"/>
<path d="M109.644 101.469C112.022 94.3007 113.97 88.6014 114.37 88.2796L104.482 82.6419C104.358 89.4201 106.184 95.9193 109.644 101.469Z" fill="black"/>
<path d="M296.775 263.328C291.982 263.681 287.939 262.981 283.629 261.77C282.593 261.279 271.884 261.005 270.821 260.437C271.461 256.387 282.547 256.265 286.368 256.091C289.315 255.888 294.092 252.072 288.142 249.635C283.02 247.592 262.209 243.873 260.81 244.555C255.156 244.179 249.412 245.745 244.222 248.15C204.997 230.648 156.698 217.742 140.679 208.293C140.679 208.293 134.686 191.819 128.519 175.583C126.031 169.026 122.955 161.296 119.417 152.258C106.95 120.874 97.6177 104.225 76.9533 104.097C76.9533 104.097 55.3623 138.221 64.9079 167.197C74.4536 196.172 83.0759 254.282 110.345 266.758C137.718 279.284 218.402 285.199 237.65 286.449C242.336 288.478 251.48 290.188 254.508 291.43C263.483 296.324 275.665 297.105 285.464 292.852C287.272 292.109 288.142 290.665 288.396 289.185C288.484 288.459 289.091 287.978 289.806 287.805C290.855 287.598 291.903 287.391 292.924 287.107C295.529 286.421 296.411 284.279 296.038 282.246C295.892 281.345 296.413 280.375 297.281 280.146C297.281 280.146 297.281 280.146 297.357 280.119C301.442 278.982 301.248 274.282 298.818 272.041C298.97 271.986 299.047 271.958 299.2 271.903C306.671 269.363 302.747 262.894 296.775 263.328Z" fill="#FFA79B"/>
<path d="M89.1938 191.908C100.474 186.826 111.435 181.077 122.315 175.097C124.264 174.037 126.262 172.871 128.21 171.811C125.732 165.231 122.67 157.473 119.148 148.403C106.735 116.908 97.4424 100.199 76.8581 100.066C76.8581 100.066 55.3439 134.305 64.8468 163.383C67.9169 172.879 70.9702 185.515 74.5445 198.656C79.3334 196.383 84.2255 194.159 89.1938 191.908Z" fill="#2252B2"/>
<path d="M93.7127 39.7661C99.1783 31.7004 116.879 31.4852 127.237 36.7073C131.742 38.9957 134.979 36.2603 135.104 40.4794C135.45 50.8838 136.089 85.8094 131.227 91.2206C121.425 102.071 105.743 95.6392 99.0889 84.6416C92.5378 73.6936 85.9481 51.2728 93.7127 39.7661Z" fill="#FFA79B"/>
<path d="M136.612 32.1012C131.902 29.4397 123.588 31.5377 119.702 33.8223C109.798 31.753 98.1423 33.2898 93.8875 39.3889C88.594 46.9611 89.7437 59.3407 93.0729 70.0247C96.9511 68.6861 98.3705 65.3664 101.821 62.1173C113.931 58.4518 120.481 48.5593 121.428 43.6878C124.412 45.9162 134.435 44.6861 137.178 41.1669C140.749 36.0754 138.061 32.9733 136.612 32.1012Z" fill="#D24A43"/>
<path d="M117.598 59.5484C117.387 60.406 117.128 61.368 116.917 62.2256C116.63 63.1107 118.098 63.3646 118.385 62.4795C118.596 61.6219 118.855 60.6599 119.066 59.8023C119.326 58.8403 117.858 58.5864 117.598 59.5484Z" fill="black"/>
<path d="M132.506 58.5865C132.295 59.4441 132.036 60.4061 131.825 61.2637C131.538 62.1488 133.006 62.4027 133.293 61.5176C133.503 60.66 133.763 59.698 133.974 58.8404C134.233 57.8784 132.765 57.6244 132.506 58.5865Z" fill="black"/>
<path d="M130.223 67.8896C129.621 67.6695 129.251 68.5729 129.852 68.7929C131.16 69.2825 130.596 70.8554 129.674 71.4353C128.753 72.0152 127.533 72.011 126.468 71.9528C125.844 71.9125 125.684 72.9146 126.385 72.9279C128.151 72.9995 130.303 72.9361 131.33 71.2013C132.031 70.0103 131.53 68.3791 130.223 67.8896Z" fill="#952C28"/>
<path d="M120.24 55.2707C119.226 55.3629 118.135 55.4817 117.121 55.5738C115.847 55.6699 116.119 57.6334 117.393 57.5373C118.407 57.4452 119.498 57.3263 120.512 57.2342C121.836 57.0351 121.564 55.0717 120.24 55.2707Z" fill="#D24A43"/>
<path d="M133.798 53.0857C133.175 53.0457 132.552 53.0057 131.824 52.9162C130.579 52.8362 130.336 54.8154 131.582 54.8954C132.205 54.9355 132.827 54.9755 133.555 55.0649C134.878 55.1179 135.121 53.1387 133.798 53.0857Z" fill="#D24A43"/>
<path d="M123.754 83.4015C122.499 83.505 121.378 82.7787 120.89 81.6515C120.594 81.0631 119.706 81.4693 120.002 82.0576C120.731 83.6192 122.239 84.4668 123.93 84.38C124.596 84.3145 124.419 83.336 123.754 83.4015Z" fill="#952C28"/>
<path d="M96.312 62.5891C96.0476 62.3374 95.6841 62.2928 95.4528 62.374C95.3645 61.888 94.8632 61.461 94.1693 61.7048C87.5726 64.3674 83.3782 70.3221 83.0888 77.2313C65.5505 68.5724 43.7115 76.4184 36.9719 95.0729C36.0201 97.734 35.1501 98.212 32.6117 99.3625C30.8937 100.138 29.3135 101.297 27.8656 102.581C24.9973 105.226 22.9774 108.78 22.2849 112.642C20.9274 120.444 25.4681 127.982 32.3039 131.526C26.3743 136.281 22.7864 143.919 26.3137 151.296C30.4638 159.92 39.8811 159.541 47.5296 156.422C56.2298 152.848 65.5682 147.671 70.8303 139.618C75.4153 132.578 76.1663 123.094 71.0696 116.182C90.3568 118.366 89.9949 92.2974 90.33 89.8531C101.948 84.7366 96.6639 76.339 97.3789 73.5027C99.1666 67.6181 100.703 66.8198 96.312 62.5891Z" fill="#D24A43"/>
<path d="M88.3821 67.4647C88.3465 72.6665 94.7613 77.9979 101.625 75.9051C103.723 70.6626 105.953 65.5461 108.259 60.4024C105.935 58.0281 100.128 55.5941 95.748 56.891C90.8304 58.3788 88.3567 61.8522 88.3821 67.4647Z" fill="#FFA79B"/>
<path d="M98.6001 64.5505C99.8733 66.0113 101.146 67.472 102.447 69.0104C102.862 69.4714 102.141 70.0854 101.65 69.652C101.547 69.6019 101.493 69.4465 101.391 69.3964C101.364 69.3187 101.364 69.3187 101.337 69.241C100.193 67.9081 98.974 66.6027 97.8032 65.1921C97.4362 64.6258 98.1577 64.0118 98.6001 64.5505Z" fill="#952C28"/>
</g>
<defs>
<clipPath id="clip0_3_14620">
<rect width="198.663" height="198.663" fill="white" transform="translate(0.290039)"/>
</clipPath>
</defs>
</svg>
