<svg width="199" height="199" viewBox="0 0 199 199" fill="none" xmlns="http://www.w3.org/2000/svg">
<g clip-path="url(#clip0_3_14784)">
<rect width="198.663" height="198.663" transform="translate(0.157227)" fill="#438DD2"/>
<path d="M120.942 69.6628C121.087 69.3015 120.653 68.9402 120.292 69.0848C120.003 69.0848 119.786 69.3738 119.786 69.6628C118.847 71.1079 117.908 72.6252 116.968 74.0703C115.162 66.9894 108.37 62.0038 100.928 63.1599C93.8471 64.2437 89.0783 70.2408 88.7893 76.9604C86.3327 72.9142 80.9136 71.3246 76.2171 70.8911C69.353 70.2408 62.1276 71.1801 56.4918 75.2986C51.5062 78.9836 48.1825 85.1251 49.3386 91.4112C50.2779 96.9025 54.7577 101.238 60.249 101.816C58.6594 107.09 62.9946 111.57 67.6189 113.521C73.3992 115.978 80.1188 117.061 86.4049 116.483C97.4598 115.544 112.272 115.255 112.344 103.405C118.486 104.85 121.304 93.7956 123.977 88.0153C126.723 81.8737 124.989 74.7206 120.942 69.6628Z" fill="#642421"/>
<path d="M172.026 173.637C168.052 181.44 164.079 189.243 160.177 197.119C159.888 197.697 160.755 198.203 161.044 197.625C165.018 189.822 168.992 182.018 172.893 174.142C173.183 173.564 172.315 173.059 172.026 173.637Z" fill="white"/>
<path d="M189.872 219.951L145.002 219.373L123.109 219.084L39.439 218L61.2597 130.934L81.563 123.275L105.118 114.388C118.196 115.906 128.311 117.423 136.259 119.157C169.713 126.166 164.438 135.703 170.869 158.246C177.95 182.957 187.343 212.437 189.366 218.795C189.727 219.518 189.872 219.951 189.872 219.951Z" fill="#D24A43"/>
<path d="M151.72 208.029C151.648 208.39 151.575 208.68 151.503 209.041C151.214 208.969 150.925 208.896 150.636 208.824C150.708 208.535 150.78 208.174 150.925 207.812C152.37 201.599 150.925 194.012 150.347 188.232C149.335 177.683 148.252 167.133 147.24 156.584C147.168 155.934 148.179 155.934 148.252 156.584L151.72 192.133C152.153 197.119 152.876 202.971 151.72 208.029Z" fill="white"/>
<path d="M179.18 216.772C175.639 216.194 172.099 215.761 168.486 215.399C142.981 210.125 100.062 202.032 70.293 200.009L95.1484 139.027L105.192 114.316C95.2206 113.666 86.4779 113.232 78.6744 113.088C14.8019 111.859 17.2586 128.189 5.55342 180.067C-14.8945 270.818 -8.46386 271.324 85.2496 261.353C154.686 253.983 160.105 251.671 172.966 248.925C173.327 236.208 174.483 228.261 179.18 216.772Z" fill="#D24A43"/>
<path d="M67.1139 200.588C66.7527 200.588 66.4637 200.588 66.1024 200.588C66.1024 200.226 66.0301 199.937 66.0301 199.576C65.1631 188.232 64.296 176.961 63.429 165.617C63.3567 164.966 64.3683 164.966 64.4406 165.617C65.3076 176.888 66.1746 188.232 67.0417 199.504C67.1139 199.865 67.1139 200.226 67.1139 200.588Z" fill="white"/>
<path d="M170.22 214.099C164.006 212.22 157.72 210.486 151.434 208.969C151.145 208.897 150.856 208.824 150.567 208.752C123.255 202.322 95.1477 199.504 67.1131 200.515C66.7519 200.515 66.4629 200.515 66.1016 200.515C64.2952 200.587 62.5612 200.66 60.7548 200.732C60.1045 200.804 60.1045 199.793 60.7548 199.72C62.4889 199.648 64.2952 199.576 66.0293 199.504C66.3906 199.504 66.6796 199.504 67.0409 199.431C95.22 198.42 123.399 201.238 150.783 207.668C151.072 207.741 151.361 207.813 151.65 207.885C157.936 209.402 164.223 211.137 170.436 213.015C171.087 213.376 170.87 214.316 170.22 214.099Z" fill="white"/>
<path d="M124.27 96.4701C123.33 97.2648 113.432 138.377 113.432 138.377L82.5791 115.328L102.015 86.3545L124.27 96.4701Z" fill="#FFA79B"/>
<path d="M120.511 109.764C122.389 102.539 123.907 96.7585 124.268 96.4695L113.791 91.7007C114.225 98.348 116.609 104.562 120.511 109.764Z" fill="black"/>
<path d="M83.155 56.9468C84.7446 47.337 100.857 39.6058 112.49 39.9671C117.548 40.1116 119.354 36.2821 121.233 40.0393C125.857 49.3601 141.03 80.5738 138.791 87.5825C134.383 101.6 117.331 102.395 106.782 95.2414C96.1607 88.0883 80.8429 70.6751 83.155 56.9468Z" fill="#FFA79B"/>
<path d="M118.269 32.308C112.923 31.8745 106.347 37.2213 103.891 40.9785C94.1365 43.2906 84.3822 49.5767 83.1539 56.9466C81.6365 66.1229 87.9949 76.961 95.5093 85.2702C98.4717 82.38 98.255 78.7673 99.9168 74.3598C109.165 65.9061 110.899 54.1287 109.599 49.2877C113.212 50.0102 121.665 44.7357 122.677 40.4004C123.616 34.1143 119.859 32.4525 118.269 32.308Z" fill="#642421"/>
<path d="M86.7673 84.1142C86.2615 78.6229 92.5476 72.5535 99.9898 74.4321C102.663 79.8512 105.481 85.1257 108.444 90.4003C106.204 93.0737 100.279 95.9638 95.5101 94.88C90.091 93.5795 87.2731 90.039 86.7673 84.1142Z" fill="#FFA79B"/>
<path d="M96.5248 82.0906C98.3312 82.8854 100.138 83.608 101.944 84.4028C102.522 84.6918 102.088 85.4866 101.51 85.2698C101.366 85.1976 101.294 85.1976 101.149 85.1253C101.077 85.1253 101.077 85.0531 101.005 85.0531C99.3427 84.3305 97.7532 83.6802 96.0913 82.9577C95.5133 82.7409 95.9468 81.8739 96.5248 82.0906Z" fill="#952C28"/>
<path d="M113.07 64.7495C113.214 65.6888 113.359 66.5559 113.503 67.4952C113.648 68.4345 115.093 68.001 114.948 67.0617C114.804 66.1224 114.659 65.2553 114.515 64.316C114.298 63.3767 112.925 63.8102 113.07 64.7495Z" fill="black"/>
<path d="M125.713 57.3081C125.858 58.2474 126.002 59.1144 126.147 60.0538C126.291 60.9931 127.736 60.5595 127.592 59.6202C127.447 58.6809 127.303 57.8139 127.158 56.8746C127.014 55.9353 125.569 56.3688 125.713 57.3081Z" fill="black"/>
<path d="M127.879 66.484C127.229 66.5562 127.301 67.4955 127.951 67.4955C129.324 67.4233 129.469 69.0851 128.891 69.9522C128.313 70.8915 127.229 71.325 126.217 71.7585C125.639 72.0476 125.928 72.9869 126.506 72.6978C128.096 71.9753 130.047 71.036 130.191 69.0851C130.408 67.6401 129.324 66.4117 127.879 66.484Z" fill="#952C28"/>
<path d="M113.504 59.8367C112.564 60.3425 111.697 60.9205 110.758 61.4263C109.674 62.0766 110.758 63.7384 111.842 63.0881C112.781 62.5823 113.648 62.0043 114.587 61.4985C115.671 60.8482 114.587 59.2587 113.504 59.8367Z" fill="#642421"/>
<path d="M124.484 51.9611C123.906 52.1779 123.255 52.3947 122.677 52.6114C121.449 53.0449 122.099 54.9235 123.328 54.49C123.906 54.2732 124.556 54.0565 125.134 53.8397C126.29 53.3339 125.64 51.4553 124.484 51.9611Z" fill="#642421"/>
<path d="M129.035 83.0308C127.951 83.6088 126.65 83.4643 125.711 82.6695C125.205 82.236 124.555 83.0308 125.061 83.3921C126.361 84.4759 128.096 84.6204 129.613 83.8256C130.191 83.6088 129.613 82.7418 129.035 83.0308Z" fill="#952C28"/>
<path d="M136.334 119.085C130.626 141.556 114.586 144.591 105.193 142.929C102.086 142.351 98.6179 141.122 95.1497 139.027C89.9474 135.848 84.8896 130.79 81.6382 123.203C80.3376 120.241 79.3261 116.845 78.6758 113.088C86.4792 113.232 95.222 113.666 105.193 114.316C118.199 115.906 128.387 117.423 136.334 119.085Z" fill="#FFA79B"/>
</g>
<defs>
<clipPath id="clip0_3_14784">
<rect width="198.663" height="198.663" fill="white" transform="translate(0.157227)"/>
</clipPath>
</defs>
</svg>
