<svg width="199" height="200" viewBox="0 0 199 200" fill="none" xmlns="http://www.w3.org/2000/svg">
<g clip-path="url(#clip0_3_17700)">
<rect width="198.663" height="198.663" transform="translate(0.157227 0.356445)" fill="#5FA6E8"/>
<path d="M109.1 84.9862C108.877 83.9811 108.467 83.1249 107.946 82.3432C108.914 80.0353 109.547 77.4668 109.696 74.6749C110.329 63.768 93.3542 63.5075 92.7213 74.4143C92.0513 86.438 68.488 75.7917 62.9787 74.4143C53.1513 71.9203 43.2867 72.1436 34.3528 77.3551C19.0534 86.289 7.51365 110.857 15.2936 127.981C25.5305 150.539 56.3154 132.113 71.6893 126.231C89.9667 119.27 114.833 109.443 109.1 84.9862Z" fill="#FE4E4E"/>
<path d="M224.608 212.333C199.816 212.63 179.492 195.73 172.344 171.683C168.175 157.612 149.191 152.028 136.758 157.277C122.016 163.494 118.145 178.756 122.351 192.864C135.343 236.492 178.189 265.676 222.598 266.532C223.491 248.478 224.124 230.424 224.608 212.333Z" fill="white"/>
<path d="M161.364 290.283C154.663 258.157 157.083 225.102 167.543 191.786C192.781 111.454 65.2864 75.4206 40.1224 155.454C22.8128 210.51 22.7756 268.953 35.4693 323.301C77.4961 312.394 118.741 298.435 161.364 290.283Z" fill="white"/>
<path d="M149.042 160.479C148.335 159.771 147.255 160.851 147.963 161.558C155.221 168.966 155.668 181.213 148.893 189.067C148.26 189.812 149.34 190.929 149.973 190.147C157.269 181.66 156.897 168.519 149.042 160.479Z" fill="#23355F"/>
<path d="M150.454 192.865C150.343 191.897 148.817 191.86 148.928 192.865L150.938 211.403C151.05 212.371 152.576 212.408 152.465 211.403L150.454 192.865Z" fill="#23355F"/>
<path d="M136.944 42.3641C128.754 33.9141 114.423 36.4826 108.206 45.826C105.675 49.6602 107.276 55.1694 111.072 57.4774C115.13 59.9342 120.193 58.4452 122.724 54.6111C122.165 55.43 122.575 55.095 122.724 54.6111C122.761 54.6111 122.761 54.5739 122.798 54.5739C122.91 54.4994 123.022 54.4622 123.133 54.3877C123.282 54.3505 123.506 54.3133 123.692 54.2388C123.952 54.2388 124.325 54.2016 124.399 54.2016C124.399 54.2016 124.399 54.2016 124.436 54.2016C124.511 54.2016 124.622 54.2388 124.734 54.276C124.771 54.3133 124.808 54.3133 124.883 54.3877C124.957 54.6111 124.995 54.8344 125.032 55.0578C124.883 54.7227 124.808 55.2811 124.995 55.5045C124.957 55.6161 124.846 55.9139 124.771 56.2117C124.771 56.0628 124.585 56.3234 124.473 56.5095C124.287 56.6584 124.138 56.8073 124.436 56.6584C124.436 56.6957 124.436 56.6957 124.473 56.6584C121.049 59.3386 119.448 63.8056 121.719 67.8631C123.803 71.5856 129.499 73.7074 133.296 71.0645C142.714 64.5873 145.245 50.963 136.944 42.3641Z" fill="#FE4E4E"/>
<path d="M138.47 59.8237C138.247 54.7239 136.274 50.0708 133.184 46.46C132.812 46.0133 129.871 45.641 128.829 45.9016C127.079 46.3855 125.33 46.9811 123.618 47.6139C122.873 47.9117 122.129 48.1723 121.384 48.5073C121.31 48.5446 120.937 48.6935 120.863 48.7307C120.453 48.9168 120.081 49.1029 119.672 49.2891C112.971 52.3787 106.643 56.2501 100.278 60.0098C99.5331 60.4565 98.7514 60.6799 97.9697 60.7915C97.1879 61.536 96.4434 62.2805 95.6989 63.0623C94.2099 64.6257 92.7582 66.1891 91.3809 67.827C92.4976 74.0808 92.5348 80.8185 92.9071 86.1417C93.726 98.1653 93.6516 110.04 91.3809 121.766C92.0509 129.509 96.6296 136.321 104.968 138.219C113.679 140.192 125.218 134.348 126.372 124.707C127.042 119.309 127.675 113.949 128.345 108.551C135.492 104.605 140.22 96.8997 139.81 88.189L138.47 59.8237Z" fill="#F2DAE9"/>
<path d="M127.451 107.99C123.059 108.809 118.666 109.368 114.236 109.628C113.231 109.703 113.492 111.229 114.46 111.154C118.889 110.894 123.319 110.335 127.675 109.517C128.68 109.33 128.456 107.804 127.451 107.99Z" fill="#23355F"/>
<path d="M122.836 62.0947L120.64 62.802C119.71 63.0998 120.156 64.5888 121.124 64.2538L123.32 63.5465C124.251 63.2487 123.804 61.7969 122.836 62.0947Z" fill="#23355F"/>
<path d="M124.548 69.3889C122.575 69.7239 123.096 72.7391 125.031 72.4413C127.004 72.1063 126.52 69.0539 124.548 69.3889Z" fill="#23355F"/>
<path d="M137.989 58.9302L135.681 58.5952C134.713 58.4463 134.489 59.9725 135.457 60.1214L137.765 60.4564C138.77 60.6053 138.994 59.0791 137.989 58.9302Z" fill="#23355F"/>
<path d="M137.428 67.8254C135.455 68.1605 135.977 71.1757 137.912 70.8779C139.885 70.5429 139.364 67.4904 137.428 67.8254Z" fill="#23355F"/>
<path d="M101.767 73.8193C104.075 67.8261 111.781 53.1967 135.121 46.5335C130.84 41.2475 122.688 38.4557 115.391 38.7907L107.723 39.1629C70.275 44.4489 89.1107 86.8107 93.1682 95.0374C98.1191 89.7143 99.7943 78.9563 101.767 73.8193Z" fill="#FE4E4E"/>
<path d="M103.442 72.1071C89.1099 64.2899 85.3502 65.7416 83.489 71.772C81.6277 77.8025 83.9357 81.0783 95.1776 86.0664C106.419 91.0545 103.442 72.1071 103.442 72.1071Z" fill="#F2DAE9"/>
<path d="M102.027 78.4354C100.203 75.383 97.3741 73.2611 93.9494 72.2561C92.9816 71.9955 92.6465 73.4845 93.6144 73.7451C96.6296 74.6012 99.1236 76.5369 100.724 79.2543C101.245 80.1105 102.548 79.2916 102.027 78.4354Z" fill="#23355F"/>
<path d="M136.31 73.6333C135.752 72.8144 134.375 73.5217 134.933 74.3406C136.683 76.9091 139.549 81.86 135.38 83.7957C134.486 84.2052 135.156 85.5825 136.087 85.173C141.075 82.8279 138.581 77.0208 136.31 73.6333Z" fill="#23355F"/>
<path d="M126.743 95.336C121.829 95.8943 117.772 92.693 117.027 87.8538C116.878 86.8859 115.352 87.1837 115.501 88.1888C116.357 93.9214 121.345 97.5322 127.041 96.8622C128.046 96.7133 127.711 95.2243 126.743 95.336Z" fill="#23355F"/>
<path d="M305.921 172.451L184.251 239.744L193.71 256.846L315.38 189.553L305.921 172.451Z" fill="#23355F"/>
<path d="M302.782 181.735L99.1619 294.34C98.3057 294.824 99.0502 296.164 99.9064 295.68L303.526 183.075C304.42 182.591 303.675 181.251 302.782 181.735Z" fill="#F7ACA9"/>
<path d="M301.035 188.136L97.4148 300.741C96.5586 301.225 97.3031 302.565 98.1593 302.081L301.779 189.476C302.673 188.992 301.928 187.652 301.035 188.136Z" fill="#F7ACA9"/>
<path d="M295.561 196.587L103.109 303.05C102.252 303.534 102.997 304.874 103.853 304.39L296.306 197.927C297.199 197.48 296.454 196.103 295.561 196.587Z" fill="#F7ACA9"/>
<path d="M279.219 189.327L94.1746 291.658C93.3184 292.142 94.0629 293.482 94.9191 292.999L279.964 190.667C280.82 190.184 280.075 188.843 279.219 189.327Z" fill="#F7ACA9"/>
<path d="M72.2477 175.816C77.6453 155.044 81.889 134.012 86.6166 113.092C84.3086 113.203 81.8518 113.576 79.3205 114.32C23.446 130.587 -45.9784 169.264 -31.8329 239.172C-31.4979 240.736 -31.1257 242.262 -30.7162 243.788C-12.9972 236.79 5.13135 230.983 23.0365 224.469C21.1753 198.895 48.2005 184.452 72.2477 175.816Z" fill="white"/>
<path d="M54.7163 174.178C47.5691 181.772 40.3847 189.328 33.2376 196.922C32.5675 197.63 33.647 198.746 34.3171 198.002C41.4643 190.408 48.6487 182.851 55.7958 175.257C56.5031 174.55 55.4236 173.471 54.7163 174.178Z" fill="#23355F"/>
</g>
<defs>
<clipPath id="clip0_3_17700">
<rect width="198.663" height="198.663" fill="white" transform="translate(0.157227 0.356445)"/>
</clipPath>
</defs>
</svg>
