<svg width="200" height="200" viewBox="0 0 200 200" fill="none" xmlns="http://www.w3.org/2000/svg">
<g clip-path="url(#clip0_3_17697)">
<rect width="198.663" height="198.663" transform="translate(0.446289 0.356445)" fill="#6B42DF"/>
<path d="M197.619 268.06C198.783 231.819 194.251 212.642 184.638 190.799C172.969 164.261 140.26 150.321 116.426 145.115C91.6761 139.758 53.8771 134.238 32.035 148.358C9.59221 162.867 -3.20345 178.74 -11.3799 204.504C-23.7434 243.444 -33.1834 276.54 -42.0239 312.76C-39.1123 313.803 -36.2653 314.921 -33.3316 315.879C-31.7371 316.392 -30.1741 316.851 -28.5464 317.235C-28.2911 317.303 -28.0248 317.328 -27.7695 317.395C-27.2794 317.434 -26.7893 317.472 -26.2992 317.51C-23.5177 317.652 -20.6919 317.624 -17.9325 317.851C-8.62052 318.579 4.70132 322.603 4.90169 334.109C4.98553 337.644 3.59906 341.065 2.82098 344.419C2.5758 345.54 2.36209 346.716 2.15945 347.849C2.13732 347.934 2.13559 348.116 2.10239 348.244C2.04361 348.822 1.98485 349.399 1.92607 349.977C1.65605 352.598 1.51365 355.252 1.41379 357.918C0.976022 369.256 1.80693 380.609 2.32895 391.926C2.3833 392.945 2.40616 393.909 2.4605 394.927L131.493 429.038C133.435 418.737 136.165 408.554 137.597 398.118C137.632 397.807 137.827 396.353 137.632 397.807C137.42 399.851 137.793 396.481 137.941 395.562C138.099 394.6 138.257 393.638 138.405 392.719C138.71 390.838 139.059 388.967 139.364 387.086C139.996 383.42 140.585 379.743 141.121 376.097C141.202 375.434 141.272 374.814 141.395 374.162C141.511 373.189 141.404 374.302 141.327 374.601C141.463 373.724 141.514 372.825 141.608 371.937C141.807 370.119 141.909 368.321 142.022 366.48C142.229 362.701 142.222 358.867 141.981 355.061C141.785 352.135 143.388 349.456 145.569 347.705C148.018 345.797 150.472 345.625 153.454 346.048C157.532 346.624 161.577 347.328 165.633 347.99C167.603 348.283 169.604 348.629 171.585 348.879C172.021 348.949 175.3 349.451 172.852 349.077C173.81 349.239 174.844 349.284 175.813 349.403C179.765 349.764 183.762 349.953 187.751 349.822C189.446 349.768 190.436 347.702 192.08 347.498C195.17 322.945 196.546 302.547 197.619 268.06Z" fill="#F2DAE9"/>
<path d="M30.562 114.011C29.0079 112.934 70.1421 129.572 90.4518 137.734C96.5951 140.218 102.709 142.288 108.774 143.668C119.152 141.371 127.871 134.537 130.054 123.041C130.501 120.807 128.583 119.365 126.838 119.368C128.263 108.308 124.08 98.3345 116.335 89.3411C106.058 77.3929 93.7705 65.0625 77.9655 61.0855C76.9764 60.8309 76.1887 61.0346 75.5606 61.5053C74.29 61.4493 73.0684 62.0833 72.7447 63.671C71.2494 70.9639 69.6075 79.1676 62.6732 83.3897C57.5456 86.4961 51.3681 87.2999 46.2614 90.502C37.7575 95.8106 32.4623 104.293 30.573 113.969C30.53 113.958 30.562 114.011 30.562 114.011Z" fill="#FE4E4E"/>
<path d="M132.164 128.627C140.915 122.878 146.244 112.379 145.019 101.032L140.935 63.9759C140.073 55.9991 136.11 49.121 130.416 44.4946C113.586 60.0915 98.7154 77.8771 84.442 95.9622C84.6982 98.1517 84.9342 100.244 85.2027 102.206C87.1683 117.026 88.0833 131.746 86.538 146.448C86.3325 148.513 86.4846 150.582 87.0157 152.569C89.3785 160.997 95.4548 167.847 104.927 169.391C116.163 171.228 130.319 162.699 131.019 149.935C131.369 142.839 131.772 135.711 132.164 128.627Z" fill="#97B1FE"/>
<path d="M132.326 127.831C126.687 129.284 120.974 130.316 115.153 131.052C113.864 131.221 114.332 133.133 115.579 132.952C121.388 132.259 127.069 131.174 132.751 129.731C134.031 129.424 133.605 127.524 132.326 127.831Z" fill="#23355F"/>
<path d="M120.358 67.7192L117.557 68.8038C116.34 69.2577 117.087 71.1283 118.305 70.6743L121.106 69.5897C122.323 69.1357 121.576 67.2652 120.358 67.7192Z" fill="#23355F"/>
<path d="M123.622 77.0681C121.104 77.6347 122.011 81.5132 124.529 80.9465C127.005 80.3686 126.098 76.4902 123.622 77.0681Z" fill="#23355F"/>
<path d="M139.884 61.6267L136.85 61.4045C135.539 61.3002 135.391 63.2796 136.702 63.3839L139.736 63.6061C141.046 63.7104 141.195 61.731 139.884 61.6267Z" fill="#23355F"/>
<path d="M140.331 73.3247C137.812 73.8913 138.719 77.7697 141.238 77.2031C143.702 76.6678 142.806 72.7468 140.331 73.3247Z" fill="#23355F"/>
<path d="M93.8616 85.5406C96.3192 77.5339 124.173 59.3144 132.395 48.0365C126.475 41.5017 117.753 37.7928 108.404 38.8215L98.589 39.9087C50.9984 49.7763 78.7531 103.411 84.6269 113.83C90.5235 106.514 91.7963 92.3687 93.8616 85.5406Z" fill="#FE4E4E"/>
<path d="M96.118 83.943C76.7464 75.0568 72.0055 77.2237 70.1283 85.1019C68.2511 92.9801 71.5038 97.0289 86.5848 102.503C101.655 108.019 96.118 83.943 96.118 83.943Z" fill="#97B1FE"/>
<path d="M94.9439 91.8873C92.2587 88.1831 88.3332 85.6914 83.7638 84.7835C82.4939 84.5137 82.1751 86.4461 83.445 86.7158C87.4825 87.5368 90.909 89.8155 93.2911 93.0871C94.0925 94.09 95.7344 92.9323 94.9439 91.8873Z" fill="#23355F"/>
<path d="M139.814 81.1702C139.043 80.1342 137.347 81.1496 138.119 82.1856C140.538 85.4138 144.63 91.6231 139.491 94.5175C138.389 95.1408 139.386 96.8818 140.488 96.2585C146.676 92.7726 143.005 85.4344 139.814 81.1702Z" fill="#23355F"/>
<path d="M129.617 111.002C123.225 112.139 117.595 108.41 116.181 102.329C115.903 101.096 113.959 101.641 114.238 102.874C115.909 110.093 122.763 114.262 130.187 112.889C131.457 112.623 130.887 110.736 129.617 111.002Z" fill="#23355F"/>
<path d="M89.1355 58.6219C89.5401 53.7406 85.8469 49.833 81.5014 48.249C75.6149 46.0827 69.3369 47.1692 64.1169 50.1629C55.9027 53.0576 42.6799 61.9929 48.4426 71.4709C55.0948 82.4496 73.0139 72.8776 80.6925 68.5289C84.5532 66.3601 88.7419 63.4607 89.1355 58.6219Z" fill="#FE4E4E"/>
</g>
<defs>
<clipPath id="clip0_3_17697">
<rect width="198.663" height="198.663" fill="white" transform="translate(0.446289 0.356445)"/>
</clipPath>
</defs>
</svg>
