<svg width="200" height="200" viewBox="0 0 200 200" fill="none" xmlns="http://www.w3.org/2000/svg">
<g clip-path="url(#clip0_3_17699)">
<rect width="198.663" height="198.663" transform="translate(0.868164 0.356445)" fill="#F72626"/>
<path d="M-100.462 293.946C-102.544 293.946 -104.258 292.232 -104.258 290.151V4.15182C-104.258 2.07049 -102.544 0.356445 -100.462 0.356445H283.665C285.746 0.356445 287.46 2.07049 287.46 4.15182V290.151C287.46 292.232 285.746 293.946 283.665 293.946H-100.462Z" fill="#46FFDE"/>
<path d="M209.473 242.525V199.735C209.473 145.682 159.093 93.9549 99.8976 96.4647C40.5185 98.9746 -9.67822 141.825 -9.67822 199.735V242.525H209.473Z" fill="#23355F"/>
<path d="M80.8586 60.6542C63.5346 50.1251 58.7599 51.7167 56.1276 59.0626C53.4953 66.4084 56.1276 70.6323 69.7786 77.4885C83.4909 84.2834 80.8586 60.6542 80.8586 60.6542Z" fill="#97B1FE"/>
<path d="M126.341 60.6542C143.665 50.1251 148.44 51.7167 151.072 59.0626C153.705 66.4084 151.072 70.6323 137.421 77.4885C123.709 84.2834 126.341 60.6542 126.341 60.6542Z" fill="#97B1FE"/>
<path d="M64.3919 59.9811C62.9227 59.2465 61.6371 61.389 63.1063 62.1848C65.861 63.654 67.8199 66.2251 68.1872 69.3471C68.3708 70.9387 70.9419 70.9387 70.697 69.3471C70.2685 65.368 68.0036 61.8787 64.3919 59.9811Z" fill="#23355F"/>
<path d="M143.055 60.0411C139.872 62 137.974 65.5505 138.342 69.2846C138.464 70.8762 141.035 70.9374 140.851 69.2846C140.607 66.4075 141.831 63.714 144.28 62.2448C145.749 61.3878 144.463 59.184 143.055 60.0411Z" fill="#23355F"/>
<path d="M132.034 89.8535C114.71 90.5269 97.2635 90.4657 80.2456 94.0162C81.3475 103.627 81.7148 113.238 80.9802 122.91C83.0003 132.827 89.9789 141.03 101.12 142.254C112.69 143.478 126.831 134.174 126.892 121.502C126.953 114.401 126.953 107.3 127.014 100.199C128.177 99.4031 129.218 98.4849 130.198 97.5055C130.504 94.8732 131.177 92.3634 132.034 89.8535Z" fill="#97B1FE"/>
<path d="M105.894 111.646H102.405C94.569 111.646 87.4068 108.769 81.8974 104.055C75.1025 98.2398 70.8174 89.6696 70.8174 80.0587V47.7982C70.8174 38.7383 74.6127 30.5966 80.7343 24.8423C86.3661 19.5166 94.0181 16.2109 102.405 16.2109H105.894C114.525 16.2109 122.361 19.7002 128.115 25.3321C133.931 31.0863 137.542 39.0443 137.542 47.7982V80.0587C137.481 97.5052 123.34 111.646 105.894 111.646Z" fill="#97B1FE"/>
<path d="M136.074 38.2485C135.768 45.3495 135.707 52.5118 135.462 59.5515C135.156 66.6525 135.523 74.5493 131.483 80.6709C128.116 85.813 123.525 87.527 117.771 87.0985C114.037 86.8537 110.486 84.956 106.691 84.956C102.773 84.956 99.039 86.6088 95.1212 86.8537C69.1658 88.5065 73.5121 48.4103 77.185 31.576C77.3687 30.8415 77.6136 30.1681 77.9809 29.6784C77.9197 28.9438 77.9197 28.2092 77.9197 27.4746C73.2673 33.2901 70.3901 40.7584 70.3901 48.9V78.7732C70.3901 97.1991 84.6533 112.074 102.283 112.074H105.834C115.445 112.074 124.015 107.667 129.83 100.688C134.728 94.8117 137.727 87.1597 137.727 78.7732V49.0225C137.85 45.2883 137.176 41.6154 136.074 38.2485Z" fill="#FE4E4E"/>
<path d="M71.1861 56.7351C70.7575 56.429 76.1445 38.9214 78.3482 36.2279C87.5306 25.0255 118.138 26.8007 125.117 31.698C129.892 35.0648 133.259 52.6949 137.85 54.5926V49.0219C137.85 38.799 133.442 29.6778 126.525 23.5563C120.954 18.659 113.792 15.7207 105.956 15.7207H102.406C84.7759 15.7207 70.5127 30.6573 70.5127 49.0219V56.3066C70.6963 56.429 70.9412 56.5515 71.1861 56.7351Z" fill="#FE4E4E"/>
<path d="M85.9391 56.6131C82.7559 56.1845 80.1236 59.6738 81.1031 62.6734C81.654 64.2038 84.1027 63.5304 83.5517 62C83.1232 60.7757 84.0415 58.9393 85.5107 59.1229C86.8574 59.3065 87.5307 61.0206 86.9798 62.1225C86.184 63.5304 88.3878 64.8159 89.1836 63.408C90.6528 60.7757 89.0611 57.0416 85.9391 56.6131Z" fill="#23355F"/>
<path d="M125.425 56.6131C122.242 56.1845 119.609 59.6738 120.589 62.6734C121.14 64.2038 123.588 63.5304 123.038 62C122.609 60.7757 123.527 58.9393 124.996 59.1229C126.343 59.3065 127.017 61.0206 126.466 62.1225C125.67 63.5304 127.874 64.8159 128.669 63.408C130.077 60.7757 128.486 57.0416 125.425 56.6131Z" fill="#23355F"/>
<path d="M88.3277 45.6552C86.6136 46.2062 84.9608 46.6959 83.2467 47.2468C81.7164 47.7365 82.3285 50.1852 83.9201 49.6954C85.6341 49.1445 87.287 48.6548 89.001 48.1038C90.5314 47.6141 89.8581 45.1655 88.3277 45.6552Z" fill="#23355F"/>
<path d="M121.323 44.9824H117.527C115.874 44.9824 115.874 47.4923 117.527 47.4923H121.323C122.975 47.5535 122.975 44.9824 121.323 44.9824Z" fill="#23355F"/>
<path d="M116.364 88.8742C114.466 91.2616 112.14 93.0981 109.324 94.2612C107.855 94.8733 108.467 97.3219 109.997 96.7098C113.242 95.363 115.996 93.4042 118.2 90.6495C119.179 89.4252 117.343 87.6499 116.364 88.8742Z" fill="white"/>
<path d="M107.06 54.7777C106.326 53.3085 104.183 54.594 104.857 56.0632C108.04 62.7357 112.264 73.8769 102.959 77.8559C101.49 78.4681 102.775 80.6719 104.244 80.0597C114.957 75.4685 110.856 62.6133 107.06 54.7777Z" fill="#23355F"/>
<path d="M202.005 203.346C226.614 205.244 227.471 225.445 230.409 244.177C233.347 262.909 213.33 257.461 190.374 270.989C171.52 282.069 176.111 231.199 168.765 231.873C161.419 232.546 150.829 248.646 141.769 243.993C132.709 239.402 145.87 224.71 157.012 211.488C168.153 198.204 185.783 202.061 202.005 203.346Z" fill="#97B1FE"/>
</g>
<defs>
<clipPath id="clip0_3_17699">
<rect width="198.663" height="198.663" fill="white" transform="translate(0.868164 0.356445)"/>
</clipPath>
</defs>
</svg>
